  0
SECTION
  2
HEADER
  9
$ACADVER
  1
AC1015
  9
$ACADMAINTVER
 70
    20
  9
$DWGCODEPAGE
  3
ANSI_949
  9
$INSBASE
 10
0.0
 20
0.0
 30
0.0
  9
$EXTMIN
 10
-0.0648231639743244
 20
-0.0241220704920124
 30
-0.0015258207003583
  9
$EXTMAX
 10
594.0848022099235
 20
420.0105575020995
 30
0.0000000349246037
  9
$LIMMIN
 10
0.0
 20
0.0
  9
$LIMMAX
 10
594.0
 20
420.0
  9
$ORTHOMODE
 70
     1
  9
$REGENMODE
 70
     1
  9
$FILLMODE
 70
     1
  9
$QTEXTMODE
 70
     0
  9
$MIRRTEXT
 70
     1
  9
$LTSCALE
 40
1.0
  9
$ATTMODE
 70
     1
  9
$TEXTSIZE
 40
62.50587047096201
  9
$TRACEWID
 40
1.0
  9
$TEXTSTYLE
  7
STANDARD
  9
$CLAYER
  8
0
  9
$CELTYPE
  6
BYLAYER
  9
$CECOLOR
 62
   256
  9
$CELTSCALE
 40
1.0
  9
$DISPSILH
 70
     0
  9
$DIMSCALE
 40
1.0
  9
$DIMASZ
 40
2.5
  9
$DIMEXO
 40
0.625
  9
$DIMDLI
 40
5.0
  9
$DIMRND
 40
0.0
  9
$DIMDLE
 40
0.0
  9
$DIMEXE
 40
0.8
  9
$DIMTP
 40
0.0
  9
$DIMTM
 40
0.0
  9
$DIMTXT
 40
3.0
  9
$DIMCEN
 40
2.5
  9
$DIMTSZ
 40
0.0
  9
$DIMTOL
 70
     0
  9
$DIMLIM
 70
     0
  9
$DIMTIH
 70
     0
  9
$DIMTOH
 70
     0
  9
$DIMSE1
 70
     0
  9
$DIMSE2
 70
     0
  9
$DIMTAD
 70
     1
  9
$DIMZIN
 70
     8
  9
$DIMBLK
  1

  9
$DIMASO
 70
     1
  9
$DIMSHO
 70
     1
  9
$DIMPOST
  1

  9
$DIMAPOST
  1

  9
$DIMALT
 70
     0
  9
$DIMALTD
 70
     3
  9
$DIMALTF
 40
0.03937007874016
  9
$DIMLFAC
 40
1.0
  9
$DIMTOFL
 70
     1
  9
$DIMTVP
 40
0.0
  9
$DIMTIX
 70
     0
  9
$DIMSOXD
 70
     0
  9
$DIMSAH
 70
     0
  9
$DIMBLK1
  1

  9
$DIMBLK2
  1

  9
$DIMSTYLE
  2
STANDARD
  9
$DIMCLRD
 70
     4
  9
$DIMCLRE
 70
     4
  9
$DIMCLRT
 70
     4
  9
$DIMTFAC
 40
1.0
  9
$DIMGAP
 40
0.5
  9
$DIMJUST
 70
     0
  9
$DIMSD1
 70
     0
  9
$DIMSD2
 70
     0
  9
$DIMTOLJ
 70
     0
  9
$DIMTZIN
 70
     8
  9
$DIMALTZ
 70
     0
  9
$DIMALTTZ
 70
     0
  9
$DIMUPT
 70
     0
  9
$DIMDEC
 70
     1
  9
$DIMTDEC
 70
     1
  9
$DIMALTU
 70
     2
  9
$DIMALTTD
 70
     3
  9
$DIMTXSTY
  7
STANDARD
  9
$DIMAUNIT
 70
     0
  9
$DIMADEC
 70
     0
  9
$DIMALTRND
 40
0.0
  9
$DIMAZIN
 70
     0
  9
$DIMDSEP
 70
    46
  9
$DIMATFIT
 70
     0
  9
$DIMFRAC
 70
     0
  9
$DIMLDRBLK
  1

  9
$DIMLUNIT
 70
     2
  9
$DIMLWD
 70
    -2
  9
$DIMLWE
 70
    -2
  9
$DIMTMOVE
 70
     0
  9
$LUNITS
 70
     2
  9
$LUPREC
 70
     4
  9
$SKETCHINC
 40
1.0
  9
$FILLETRAD
 40
2.5
  9
$AUNITS
 70
     0
  9
$AUPREC
 70
     0
  9
$MENU
  1
.
  9
$ELEVATION
 40
0.0
  9
$PELEVATION
 40
0.0
  9
$THICKNESS
 40
0.0
  9
$LIMCHECK
 70
     0
  9
$CHAMFERA
 40
2.5
  9
$CHAMFERB
 40
2.5
  9
$CHAMFERC
 40
0.0
  9
$CHAMFERD
 40
0.0
  9
$SKPOLY
 70
     0
  9
$TDCREATE
 40
2454480.819145324
  9
$TDUCREATE
 40
2454480.444145324
  9
$TDUPDATE
 40
2457290.620702697
  9
$TDUUPDATE
 40
2457290.245702697
  9
$TDINDWG
 40
0.1098115741
  9
$TDUSRTIMER
 40
2457281.657870764
  9
$USRTIMER
 70
     1
  9
$ANGBASE
 50
0.0
  9
$ANGDIR
 70
     0
  9
$PDMODE
 70
     0
  9
$PDSIZE
 40
0.0
  9
$PLINEWID
 40
0.2
  9
$SPLFRAME
 70
     0
  9
$SPLINETYPE
 70
     6
  9
$SPLINESEGS
 70
     8
  9
$HANDSEED
  5
10A1C
  9
$SURFTAB1
 70
     6
  9
$SURFTAB2
 70
     6
  9
$SURFTYPE
 70
     6
  9
$SURFU
 70
     6
  9
$SURFV
 70
     6
  9
$UCSBASE
  2

  9
$UCSNAME
  2

  9
$UCSORG
 10
0.0
 20
0.0
 30
0.0
  9
$UCSXDIR
 10
1.0
 20
0.0
 30
0.0
  9
$UCSYDIR
 10
0.0
 20
1.0
 30
0.0
  9
$UCSORTHOREF
  2

  9
$UCSORTHOVIEW
 70
     0
  9
$UCSORGTOP
 10
0.0
 20
0.0
 30
0.0
  9
$UCSORGBOTTOM
 10
0.0
 20
0.0
 30
0.0
  9
$UCSORGLEFT
 10
0.0
 20
0.0
 30
0.0
  9
$UCSORGRIGHT
 10
0.0
 20
0.0
 30
0.0
  9
$UCSORGFRONT
 10
0.0
 20
0.0
 30
0.0
  9
$UCSORGBACK
 10
0.0
 20
0.0
 30
0.0
  9
$PUCSBASE
  2

  9
$PUCSNAME
  2

  9
$PUCSORG
 10
0.0
 20
0.0
 30
0.0
  9
$PUCSXDIR
 10
1.0
 20
0.0
 30
0.0
  9
$PUCSYDIR
 10
0.0
 20
1.0
 30
0.0
  9
$PUCSORTHOREF
  2

  9
$PUCSORTHOVIEW
 70
     0
  9
$PUCSORGTOP
 10
0.0
 20
0.0
 30
0.0
  9
$PUCSORGBOTTOM
 10
0.0
 20
0.0
 30
0.0
  9
$PUCSORGLEFT
 10
0.0
 20
0.0
 30
0.0
  9
$PUCSORGRIGHT
 10
0.0
 20
0.0
 30
0.0
  9
$PUCSORGFRONT
 10
0.0
 20
0.0
 30
0.0
  9
$PUCSORGBACK
 10
0.0
 20
0.0
 30
0.0
  9
$USERI1
 70
     0
  9
$USERI2
 70
     0
  9
$USERI3
 70
     0
  9
$USERI4
 70
     0
  9
$USERI5
 70
     0
  9
$USERR1
 40
0.0
  9
$USERR2
 40
0.0
  9
$USERR3
 40
0.0
  9
$USERR4
 40
0.0
  9
$USERR5
 40
0.0
  9
$WORLDVIEW
 70
     1
  9
$SHADEDGE
 70
     3
  9
$SHADEDIF
 70
    70
  9
$TILEMODE
 70
     1
  9
$MAXACTVP
 70
    48
  9
$PINSBASE
 10
0.0
 20
0.0
 30
0.0
  9
$PLIMCHECK
 70
     0
  9
$PEXTMIN
 10
0.0
 20
0.0
 30
0.0
  9
$PEXTMAX
 10
1182.7314453125
 20
831.0
 30
2.0
  9
$PLIMMIN
 10
0.0
 20
0.0
  9
$PLIMMAX
 10
420.0
 20
297.0
  9
$UNITMODE
 70
     0
  9
$VISRETAIN
 70
     0
  9
$PLINEGEN
 70
     0
  9
$PSLTSCALE
 70
     1
  9
$TREEDEPTH
 70
  3020
  9
$CMLSTYLE
  2
STANDARD
  9
$CMLJUST
 70
     0
  9
$CMLSCALE
 40
20.0
  9
$PROXYGRAPHICS
 70
     1
  9
$MEASUREMENT
 70
     1
  9
$CELWEIGHT
370
    -1
  9
$ENDCAPS
280
     0
  9
$JOINSTYLE
280
     0
  9
$LWDISPLAY
290
     0
  9
$INSUNITS
 70
     0
  9
$HYPERLINKBASE
  1

  9
$STYLESHEET
  1

  9
$XEDIT
290
     1
  9
$CEPSNTYPE
380
     0
  9
$PSTYLEMODE
290
     1
  9
$FINGERPRINTGUID
  2
{C848B05F-CEC4-4C36-A148-ADB50220BA8F}
  9
$VERSIONGUID
  2
{4AC72B69-B594-45A5-90ED-2BF4D3387286}
  9
$EXTNAMES
290
     1
  9
$PSVPSCALE
 40
0.0
  9
$OLESTARTUP
290
     0
  0
ENDSEC
  0
SECTION
  2
CLASSES
  0
CLASS
  1
IMAGE
  2
AcDbRasterImage
  3
ISM
 90
    34943
280
     0
281
     1
  0
CLASS
  1
DICTIONARYVAR
  2
AcDbDictionaryVar
  3
ObjectDBX Classes
 90
        0
280
     0
281
     0
  0
CLASS
  1
RASTERVARIABLES
  2
AcDbRasterVariables
  3
ISM
 90
        0
280
     0
281
     0
  0
CLASS
  1
IMAGEDEF
  2
AcDbRasterImageDef
  3
ISM
 90
    32768
280
     0
281
     0
  0
CLASS
  1
IMAGEDEF_REACTOR
  2
AcDbRasterImageDefReactor
  3
ISM
 90
    32769
280
     0
281
     0
  0
CLASS
  1
IDBUFFER
  2
AcDbIdBuffer
  3
ObjectDBX Classes
 90
    32768
280
     0
281
     0
  0
CLASS
  1
SPATIAL_FILTER
  2
AcDbSpatialFilter
  3
ObjectDBX Classes
 90
    32768
280
     0
281
     0
  0
CLASS
  1
SORTENTSTABLE
  2
AcDbSortentsTable
  3
ObjectDBX Classes
 90
        0
280
     0
281
     0
  0
CLASS
  1
LAYER_INDEX
  2
AcDbLayerIndex
  3
ObjectDBX Classes
 90
    32768
280
     0
281
     0
  0
CLASS
  1
SPATIAL_INDEX
  2
AcDbSpatialIndex
  3
ObjectDBX Classes
 90
    32768
280
     0
281
     0
  0
CLASS
  1
OBJECT_PTR
  2
CAseDLPNTableRecord
  3
ASE-LPNTableRecord
 90
    32769
280
     0
281
     0
  0
CLASS
  1
LAYOUT
  2
AcDbLayout
  3
ObjectDBX Classes
 90
        0
280
     0
281
     0
  0
CLASS
  1
PLOTSETTINGS
  2
AcDbPlotSettings
  3
ObjectDBX Classes
 90
    32768
280
     0
281
     0
  0
CLASS
  1
ACDBDICTIONARYWDFLT
  2
AcDbDictionaryWithDefault
  3
ObjectDBX Classes
 90
        0
280
     0
281
     0
  0
CLASS
  1
ACDBPLACEHOLDER
  2
AcDbPlaceHolder
  3
ObjectDBX Classes
 90
        0
280
     0
281
     0
  0
CLASS
  1
VBA_PROJECT
  2
AcDbVbaProject
  3
acad
 90
    32768
280
     0
281
     0
  0
CLASS
  1
WIPEOUT
  2
AcDbWipeout
  3
"WipeOut|Product Desc: Object Enabler for WipeOut entity                        |Company: Autodesk, Inc.                        |WEB Address: www.autodesk.com"
 90
    34943
280
     0
281
     1
  0
CLASS
  1
WIPEOUTVARIABLES
  2
AcDbWipeoutVariables
  3
"WipeOut|Product Desc:     WipeOut Dbx Application|Company:          Autodesk, Inc.|WEB Address:      www.autodesk.com"
 90
    32768
280
     0
281
     0
  0
CLASS
  1
RTEXT
  2
RText
  3
RText|AutoCAD Express Tool|expresstools@autodesk.com
 90
    35839
280
     0
281
     1
  0
CLASS
  1
ARCALIGNEDTEXT
  2
AcDbArcAlignedText
  3
ATEXT|AutoCAD Express Tool|expresstools@autodesk.com
 90
    32768
280
     0
281
     1
  0
CLASS
  1
TABLESTYLE
  2
AcDbTableStyle
  3
ObjectDBX Classes
 90
     4095
280
     0
281
     0
  0
CLASS
  1
MATERIAL
  2
AcDbMaterial
  3
ObjectDBX Classes
 90
     1153
280
     0
281
     0
  0
CLASS
  1
VISUALSTYLE
  2
AcDbVisualStyle
  3
ObjectDBX Classes
 90
     4095
280
     0
281
     0
  0
CLASS
  1
SCALE
  2
AcDbScale
  3
ObjectDBX Classes
 90
     1153
280
     0
281
     0
  0
CLASS
  1
MLEADERSTYLE
  2
AcDbMLeaderStyle
  3
ACDB_MLEADERSTYLE_CLASS
 90
     4095
280
     0
281
     0
  0
CLASS
  1
CELLSTYLEMAP
  2
AcDbCellStyleMap
  3
ObjectDBX Classes
 90
     1152
280
     0
281
     0
  0
CLASS
  1
SUN
  2
AcDbSun
  3
SCENEOE
 90
    33921
280
     0
281
     0
  0
ENDSEC
  0
SECTION
  2
TABLES
  0
TABLE
  2
VPORT
  5
7
102
{ACAD_XDICTIONARY
360
FC4F
102
}
330
0
100
AcDbSymbolTable
 70
     1
  0
VPORT
  5
F3F1
330
7
100
AcDbSymbolTableRecord
100
AcDbViewportTableRecord
  2
*Active
 70
     0
 10
0.0
 20
0.0
 11
1.0
 21
1.0
 12
297.0099895229747
 22
209.9932177158038
 13
0.0
 23
0.0
 14
1.0
 24
1.0
 15
0.0
 25
0.0
 16
0.0
 26
0.0
 36
1.0
 17
0.0
 27
0.0
 37
0.0
 40
423.4728897737315
 41
1.717213114754098
 42
50.0
 43
0.0
 44
0.0
 50
0.0
 51
0.0
 71
    16
 72
   100
 73
     1
 74
     1
 75
     0
 76
     0
 77
     0
 78
     0
281
     0
 65
     1
110
0.0
120
0.0
130
0.0
111
1.0
121
0.0
131
0.0
112
0.0
122
1.0
132
0.0
 79
     0
146
0.0
  0
ENDTAB
  0
TABLE
  2
LTYPE
  5
4
330
0
100
AcDbSymbolTable
 70
     2
  0
LTYPE
  5
11
330
4
100
AcDbSymbolTableRecord
100
AcDbLinetypeTableRecord
  2
BYBLOCK
 70
     0
  3

 72
    65
 73
     0
 40
0.0
  0
LTYPE
  5
12
330
4
100
AcDbSymbolTableRecord
100
AcDbLinetypeTableRecord
  2
BYLAYER
 70
     0
  3

 72
    65
 73
     0
 40
0.0
  0
LTYPE
  5
13
330
4
100
AcDbSymbolTableRecord
100
AcDbLinetypeTableRecord
  2
CONTINUOUS
 70
     0
  3
Solid line
 72
    65
 73
     0
 40
0.0
  0
ENDTAB
  0
TABLE
  2
LAYER
  5
2
102
{ACAD_XDICTIONARY
360
A84F
102
}
330
0
100
AcDbSymbolTable
 70
     2
  0
LAYER
  5
14
102
{ACAD_XDICTIONARY
360
F43F
102
}
330
2
100
AcDbSymbolTableRecord
100
AcDbLayerTableRecord
  2
0
 70
     0
 62
     7
  6
CONTINUOUS
370
    -3
390
8502
  0
LAYER
  5
DFEF
330
2
100
AcDbSymbolTableRecord
100
AcDbLayerTableRecord
  2
Defpoints
 70
     0
 62
     7
  6
CONTINUOUS
290
     0
370
    -3
390
8502
  0
ENDTAB
  0
TABLE
  2
STYLE
  5
3
330
0
100
AcDbSymbolTable
 70
     2
  0
STYLE
  5
17
330
3
100
AcDbSymbolTableRecord
100
AcDbTextStyleTableRecord
  2
STANDARD
 70
     0
 40
0.0
 41
0.8
 50
0.0
 71
     0
 42
62.50587047096201
  3
ARIALUNI.TTF
  4

1001
ACAD
1000
Arial Unicode MS
1071
    33074
  0
ENDTAB
  0
TABLE
  2
VIEW
  5
5
330
0
100
AcDbSymbolTable
 70
     0
  0
ENDTAB
  0
TABLE
  2
UCS
  5
6
330
0
100
AcDbSymbolTable
 70
     0
  0
ENDTAB
  0
TABLE
  2
APPID
  5
8
330
0
100
AcDbSymbolTable
 70
    11
  0
APPID
  5
16
330
8
100
AcDbSymbolTableRecord
100
AcDbRegAppTableRecord
  2
ACAD
 70
     0
  0
APPID
  5
851E
330
8
100
AcDbSymbolTableRecord
100
AcDbRegAppTableRecord
  2
DCO15
 70
     0
  0
APPID
  5
8879
330
8
100
AcDbSymbolTableRecord
100
AcDbRegAppTableRecord
  2
ACAD_DSTYLE_DIMTEXT_FILL
 70
     0
  0
APPID
  5
A84D
330
8
100
AcDbSymbolTableRecord
100
AcDbRegAppTableRecord
  2
AcAecLayerStandard
 70
     0
  0
APPID
  5
A84E
330
8
100
AcDbSymbolTableRecord
100
AcDbRegAppTableRecord
  2
ACAD_PSEXT
 70
     0
  0
APPID
  5
F43E
330
8
100
AcDbSymbolTableRecord
100
AcDbRegAppTableRecord
  2
AcadAnnoPO
 70
     0
  0
APPID
  5
F71E
330
8
100
AcDbSymbolTableRecord
100
AcDbRegAppTableRecord
  2
ACAD_EXEMPT_FROM_CAD_STANDARDS
 70
     0
  0
APPID
  5
F79A
330
8
100
AcDbSymbolTableRecord
100
AcDbRegAppTableRecord
  2
ACAD_MLEADERVER
 70
     0
  0
APPID
  5
F9B5
330
8
100
AcDbSymbolTableRecord
100
AcDbRegAppTableRecord
  2
AcadAnnotative
 70
     0
  0
APPID
  5
F9B6
330
8
100
AcDbSymbolTableRecord
100
AcDbRegAppTableRecord
  2
ACAD_DSTYLE_DIMJAG
 70
     0
  0
APPID
  5
F9B7
330
8
100
AcDbSymbolTableRecord
100
AcDbRegAppTableRecord
  2
ACAD_DSTYLE_DIMTALN
 70
     0
  0
ENDTAB
  0
TABLE
  2
DIMSTYLE
  5
9
330
0
100
AcDbSymbolTable
 70
     2
100
AcDbDimStyleTable
 71
     1
340
18
  0
DIMSTYLE
105
18
330
9
100
AcDbSymbolTableRecord
100
AcDbDimStyleTableRecord
  2
STANDARD
 70
     0
340
17
  0
ENDTAB
  0
TABLE
  2
BLOCK_RECORD
  5
1
330
0
100
AcDbSymbolTable
 70
     4
  0
BLOCK_RECORD
  5
A
102
{ACAD_XDICTIONARY
360
D699
102
}
330
1
100
AcDbSymbolTableRecord
100
AcDbBlockTableRecord
  2
*MODEL_SPACE
340
8509
  0
BLOCK_RECORD
  5
B
330
1
100
AcDbSymbolTableRecord
100
AcDbBlockTableRecord
  2
*PAPER_SPACE
340
850A
  0
ENDTAB
  0
ENDSEC
  0
SECTION
  2
BLOCKS
  0
BLOCK
  5
D
330
A
100
AcDbEntity
  8
0
100
AcDbBlockBegin
  2
*MODEL_SPACE
 70
     0
 10
0.0
 20
0.0
 30
0.0
  3
*MODEL_SPACE
  1

  0
ENDBLK
  5
E
330
A
100
AcDbEntity
  8
0
100
AcDbBlockEnd
  0
BLOCK
  5
F
330
B
100
AcDbEntity
 67
     1
  8
0
100
AcDbBlockBegin
  2
*PAPER_SPACE
 70
     0
 10
0.0
 20
0.0
 30
0.0
  3
*PAPER_SPACE
  1

  0
ENDBLK
  5
10
330
B
100
AcDbEntity
 67
     1
  8
0
100
AcDbBlockEnd
  0
ENDSEC
  0
SECTION
  2
ENTITIES
  0
LWPOLYLINE
  5
FF3F
330
A
100
AcDbEntity
  8
0
100
AcDbPolyline
 90
        4
 70
     1
 43
0.0
 10
0.0
 20
0.0
 10
594.0
 20
0.0
 10
594.0
 20
420.0
 10
0.0
 20
420.0
  0
LWPOLYLINE
  5
10046
330
A
100
AcDbEntity
  8
0
100
AcDbPolyline
 90
        4
 70
     1
 43
0.0
 10
10.0
 20
10.0
 10
584.0
 20
10.0
 10
584.0
 20
410.0
 10
10.0
 20
410.0
  0
LINE
  5
103C7
330
A
100
AcDbEntity
  8
0
  6
Continuous
 62
     7
370
     9
100
AcDbLine
 10
30.0000000725745
 20
15.00000034945424
 30
0.0
 11
30.0000000725745
 21
405.0000003494543
 31
0.0
  0
LINE
  5
103C8
330
A
100
AcDbEntity
  8
0
  6
Continuous
 62
     7
370
     9
100
AcDbLine
 10
30.0000000725745
 20
405.0000003494543
 30
0.0
 11
579.0000000725744
 21
405.0000003494543
 31
0.0
  0
LINE
  5
103C9
330
A
100
AcDbEntity
  8
0
  6
Continuous
 62
     7
370
     9
100
AcDbLine
 10
30.30000007257467
 20
15.3000003494543
 30
0.0
 11
30.30000007257468
 21
404.7000003494541
 31
0.0
  0
LINE
  5
103CA
330
A
100
AcDbEntity
  8
0
  6
Continuous
 62
     7
370
     9
100
AcDbLine
 10
30.60000007257527
 20
15.60000034945479
 30
0.0
 11
30.60000007257395
 21
404.4000003494538
 31
0.0
  0
LINE
  5
103CB
330
A
100
AcDbEntity
  8
0
  6
Continuous
 62
     7
370
     9
100
AcDbLine
 10
30.90000007257504
 20
15.90000034945445
 30
0.0
 11
30.90000007257504
 21
404.1000003494546
 31
0.0
  0
LINE
  5
103CC
330
A
100
AcDbEntity
  8
0
  6
Continuous
 62
     7
370
     9
100
AcDbLine
 10
31.20000007257431
 20
16.2000003494536
 30
0.0
 11
31.20000007257431
 21
403.8000003494544
 31
0.0
  0
LINE
  5
103CD
330
A
100
AcDbEntity
  8
0
  6
Continuous
 62
     7
370
     9
100
AcDbLine
 10
31.50000007257449
 20
16.50000034945367
 30
0.0
 11
31.5000000725745
 21
403.5000003494541
 31
0.0
  0
LINE
  5
103CE
330
A
100
AcDbEntity
  8
0
  6
Continuous
 62
     7
370
     9
100
AcDbLine
 10
31.80000007257468
 20
16.80000034945374
 30
0.0
 11
31.80000007257468
 21
403.2000003494541
 31
0.0
  0
LINE
  5
103CF
330
A
100
AcDbEntity
  8
0
  6
Continuous
 62
     7
370
     9
100
AcDbLine
 10
32.10000007257528
 20
17.10000034945423
 30
0.0
 11
32.10000007257395
 21
402.9000003494538
 31
0.0
  0
LINE
  5
103D0
330
A
100
AcDbEntity
  8
0
  6
Continuous
 62
     7
370
     9
100
AcDbLine
 10
32.40000007257504
 20
17.40000034945387
 30
0.0
 11
32.40000007257504
 21
402.6000003494545
 31
0.0
  0
LINE
  5
103D1
330
A
100
AcDbEntity
  8
0
  6
Continuous
 62
     7
370
     9
100
AcDbLine
 10
30.30000007257468
 20
404.7000003494541
 30
0.0
 11
578.7000000725742
 21
404.7000003494541
 31
0.0
  0
LINE
  5
103D2
330
A
100
AcDbEntity
  8
0
  6
Continuous
 62
     7
370
     9
100
AcDbLine
 10
30.60000007257486
 20
404.4000003494538
 30
0.0
 11
578.4000000725742
 21
404.4000003494538
 31
0.0
  0
LINE
  5
103D3
330
A
100
AcDbEntity
  8
0
  6
Continuous
 62
     7
370
     9
100
AcDbLine
 10
30.90000007257504
 20
404.1000003494546
 30
0.0
 11
578.1000000725749
 21
404.1000003494546
 31
0.0
  0
LINE
  5
103D4
330
A
100
AcDbEntity
  8
0
  6
Continuous
 62
     7
370
     9
100
AcDbLine
 10
31.20000007257431
 20
403.8000003494544
 30
0.0
 11
577.8000000725748
 21
403.8000003494544
 31
0.0
  0
LINE
  5
103D5
330
A
100
AcDbEntity
  8
0
  6
Continuous
 62
     7
370
     9
100
AcDbLine
 10
31.5000000725745
 20
403.5000003494541
 30
0.0
 11
577.5000000725746
 21
403.5000003494542
 31
0.0
  0
LINE
  5
103D6
330
A
100
AcDbEntity
  8
0
  6
Continuous
 62
     7
370
     9
100
AcDbLine
 10
31.80000007257468
 20
403.2000003494541
 30
0.0
 11
577.2000000725747
 21
403.2000003494541
 31
0.0
  0
LINE
  5
103D7
330
A
100
AcDbEntity
  8
0
  6
Continuous
 62
     7
370
     9
100
AcDbLine
 10
32.10000007257395
 20
402.9000003494538
 30
0.0
 11
576.9000000725744
 21
402.9000003494538
 31
0.0
  0
LINE
  5
103D8
330
A
100
AcDbEntity
  8
0
  6
Continuous
 62
     7
370
     9
100
AcDbLine
 10
32.40000007257504
 20
402.6000003494545
 30
0.0
 11
576.6000000725751
 21
402.6000003494545
 31
0.0
  0
LINE
  5
103D9
330
A
100
AcDbEntity
  8
0
  6
Continuous
 62
     7
370
     9
100
AcDbLine
 10
30.0000000725745
 20
15.00000034945424
 30
0.0
 11
579.0000000725744
 21
15.00000034945424
 31
0.0
  0
LINE
  5
103DA
330
A
100
AcDbEntity
  8
0
  6
Continuous
 62
     7
370
     9
100
AcDbLine
 10
30.30000007257479
 20
15.30000034945442
 30
0.0
 11
578.7000000725742
 21
15.30000034945442
 31
0.0
  0
LINE
  5
103DB
330
A
100
AcDbEntity
  8
0
  6
Continuous
 62
     7
370
     9
100
AcDbLine
 10
30.60000007257508
 20
15.6000003494546
 30
0.0
 11
578.400000072575
 21
15.6000003494546
 31
0.0
  0
LINE
  5
103DC
330
A
100
AcDbEntity
  8
0
  6
Continuous
 62
     7
370
     9
100
AcDbLine
 10
30.90000007257447
 20
15.90000034945387
 30
0.0
 11
578.1000000725748
 21
15.90000034945387
 31
0.0
  0
LINE
  5
103DD
330
A
100
AcDbEntity
  8
0
  6
Continuous
 62
     7
370
     9
100
AcDbLine
 10
31.20000007257476
 20
16.20000034945405
 30
0.0
 11
577.8000000725747
 21
16.20000034945405
 31
0.0
  0
LINE
  5
103DE
330
A
100
AcDbEntity
  8
0
  6
Continuous
 62
     7
370
     9
100
AcDbLine
 10
31.50000007257507
 20
16.50000034945424
 30
0.0
 11
577.5000000725745
 21
16.50000034945424
 31
0.0
  0
LINE
  5
103DF
330
A
100
AcDbEntity
  8
0
  6
Continuous
 62
     7
370
     9
100
AcDbLine
 10
31.80000007257536
 20
16.80000034945442
 30
0.0
 11
577.2000000725743
 21
16.80000034945442
 31
0.0
  0
LINE
  5
103E0
330
A
100
AcDbEntity
  8
0
  6
Continuous
 62
     7
370
     9
100
AcDbLine
 10
32.10000007257566
 20
17.1000003494546
 30
0.0
 11
576.900000072575
 21
17.1000003494546
 31
0.0
  0
LINE
  5
103E1
330
A
100
AcDbEntity
  8
0
  6
Continuous
 62
     7
370
     9
100
AcDbLine
 10
32.40000007257504
 20
17.40000034945387
 30
0.0
 11
576.6000000725748
 21
17.40000034945387
 31
0.0
  0
LINE
  5
103E2
330
A
100
AcDbEntity
  8
0
  6
Continuous
 62
     7
370
     9
100
AcDbLine
 10
579.0000000725744
 20
15.00000034945424
 30
0.0
 11
579.0000000725744
 21
405.0000003494544
 31
0.0
  0
LINE
  5
103E3
330
A
100
AcDbEntity
  8
0
  6
Continuous
 62
     7
370
     9
100
AcDbLine
 10
578.7000000725742
 20
15.30000034945442
 30
0.0
 11
578.7000000725742
 21
404.700000349454
 31
0.0
  0
LINE
  5
103E4
330
A
100
AcDbEntity
  8
0
  6
Continuous
 62
     7
370
     9
100
AcDbLine
 10
578.400000072575
 20
15.6000003494546
 30
0.0
 11
578.4000000725751
 21
404.4000003494547
 31
0.0
  0
LINE
  5
103E5
330
A
100
AcDbEntity
  8
0
  6
Continuous
 62
     7
370
     9
100
AcDbLine
 10
578.1000000725748
 20
15.90000034945387
 30
0.0
 11
578.1000000725748
 21
404.1000003494544
 31
0.0
  0
LINE
  5
103E6
330
A
100
AcDbEntity
  8
0
  6
Continuous
 62
     7
370
     9
100
AcDbLine
 10
577.8000000725747
 20
16.20000034945405
 30
0.0
 11
577.8000000725747
 21
403.8000003494541
 31
0.0
  0
LINE
  5
103E7
330
A
100
AcDbEntity
  8
0
  6
Continuous
 62
     7
370
     9
100
AcDbLine
 10
577.5000000725745
 20
16.50000034945424
 30
0.0
 11
577.5000000725745
 21
403.500000349454
 31
0.0
  0
LINE
  5
103E8
330
A
100
AcDbEntity
  8
0
  6
Continuous
 62
     7
370
     9
100
AcDbLine
 10
577.2000000725743
 20
16.80000034945442
 30
0.0
 11
577.2000000725743
 21
403.2000003494537
 31
0.0
  0
LINE
  5
103E9
330
A
100
AcDbEntity
  8
0
  6
Continuous
 62
     7
370
     9
100
AcDbLine
 10
576.900000072575
 20
17.1000003494546
 30
0.0
 11
576.9000000725752
 21
402.9000003494545
 31
0.0
  0
LINE
  5
103EA
330
A
100
AcDbEntity
  8
0
  6
Continuous
 62
     7
370
     9
100
AcDbLine
 10
576.6000000725739
 20
17.40000034945387
 30
0.0
 11
576.6000000725752
 21
402.6000003494546
 31
0.0
  0
LINE
  5
10792
330
A
100
AcDbEntity
  8
0
100
AcDbLine
 10
25.0000000725745
 20
209.0000003494543
 30
0.0
 11
27.5000000725745
 21
209.0000003494543
 31
0.0
  0
LINE
  5
10793
330
A
100
AcDbEntity
  8
0
100
AcDbLine
 10
27.5000000725745
 20
207.5000003494543
 30
0.0
 11
27.5000000725745
 21
208.8000003494542
 31
0.0
  0
LINE
  5
10794
330
A
100
AcDbEntity
  8
0
100
AcDbLine
 10
27.5000000725745
 20
207.5000003494543
 30
0.0
 11
30.0000000725745
 21
210.0000003494542
 31
0.0
  0
LINE
  5
10795
330
A
100
AcDbEntity
  8
0
100
AcDbLine
 10
27.5000000725745
 20
212.5000003494543
 30
0.0
 11
30.0000000725745
 21
210.0000003494542
 31
0.0
  0
LINE
  5
10796
330
A
100
AcDbEntity
  8
0
100
AcDbLine
 10
27.5000000725745
 20
211.2000003494543
 30
0.0
 11
27.5000000725745
 21
212.5000003494543
 31
0.0
  0
LINE
  5
10797
330
A
100
AcDbEntity
  8
0
100
AcDbLine
 10
25.0000000725745
 20
211.0000003494543
 30
0.0
 11
27.5000000725745
 21
211.0000003494543
 31
0.0
  0
LINE
  5
10798
330
A
100
AcDbEntity
  8
0
100
AcDbLine
 10
25.0000000725745
 20
208.8000003494542
 30
0.0
 11
25.0000000725745
 21
211.2000003494543
 31
0.0
  0
LINE
  5
10799
330
A
100
AcDbEntity
  8
0
100
AcDbLine
 10
25.0000000725745
 20
208.8000003494542
 30
0.0
 11
28.80000007257377
 21
208.8000003494542
 31
0.0
  0
LINE
  5
1079A
330
A
100
AcDbEntity
  8
0
100
AcDbLine
 10
27.5000000725745
 20
208.6000003494543
 30
0.0
 11
28.60000007257395
 21
208.6000003494543
 31
0.0
  0
LINE
  5
1079B
330
A
100
AcDbEntity
  8
0
100
AcDbLine
 10
27.5000000725745
 20
208.4000003494542
 30
0.0
 11
28.40000007257413
 21
208.4000003494542
 31
0.0
  0
LINE
  5
1079C
330
A
100
AcDbEntity
  8
0
100
AcDbLine
 10
27.5000000725745
 20
208.2000003494543
 30
0.0
 11
28.20000007257431
 21
208.2000003494543
 31
0.0
  0
LINE
  5
1079D
330
A
100
AcDbEntity
  8
0
100
AcDbLine
 10
27.5000000725745
 20
208.0000003494542
 30
0.0
 11
28.0000000725745
 21
208.0000003494542
 31
0.0
  0
LINE
  5
1079E
330
A
100
AcDbEntity
  8
0
100
AcDbLine
 10
27.5000000725745
 20
207.8000003494542
 30
0.0
 11
27.80000007257377
 21
207.8000003494542
 31
0.0
  0
LINE
  5
1079F
330
A
100
AcDbEntity
  8
0
100
AcDbLine
 10
27.5000000725745
 20
207.6000003494543
 30
0.0
 11
27.60000007257395
 21
207.6000003494543
 31
0.0
  0
LINE
  5
107A0
330
A
100
AcDbEntity
  8
0
100
AcDbLine
 10
25.0000000725745
 20
209.0000003494543
 30
0.0
 11
29.0000000725745
 21
209.0000003494543
 31
0.0
  0
LINE
  5
107A1
330
A
100
AcDbEntity
  8
0
100
AcDbLine
 10
25.0000000725745
 20
209.2000003494543
 30
0.0
 11
29.20000007257431
 21
209.2000003494543
 31
0.0
  0
LINE
  5
107A2
330
A
100
AcDbEntity
  8
0
100
AcDbLine
 10
25.0000000725745
 20
209.4000003494542
 30
0.0
 11
29.40000007257413
 21
209.4000003494542
 31
0.0
  0
LINE
  5
107A3
330
A
100
AcDbEntity
  8
0
100
AcDbLine
 10
25.0000000725745
 20
209.6000003494543
 30
0.0
 11
29.60000007257395
 21
209.6000003494543
 31
0.0
  0
LINE
  5
107A4
330
A
100
AcDbEntity
  8
0
100
AcDbLine
 10
25.0000000725745
 20
209.8000003494542
 30
0.0
 11
29.80000007257377
 21
209.8000003494542
 31
0.0
  0
LINE
  5
107A5
330
A
100
AcDbEntity
  8
0
100
AcDbLine
 10
25.0000000725745
 20
210.0000003494542
 30
0.0
 11
30.0000000725745
 21
210.0000003494542
 31
0.0
  0
LINE
  5
107A6
330
A
100
AcDbEntity
  8
0
100
AcDbLine
 10
25.0000000725745
 20
210.2000003494543
 30
0.0
 11
29.80000007257377
 21
210.2000003494543
 31
0.0
  0
LINE
  5
107A7
330
A
100
AcDbEntity
  8
0
100
AcDbLine
 10
25.0000000725745
 20
210.4000003494542
 30
0.0
 11
29.60000007257395
 21
210.4000003494542
 31
0.0
  0
LINE
  5
107A8
330
A
100
AcDbEntity
  8
0
100
AcDbLine
 10
25.0000000725745
 20
210.6000003494543
 30
0.0
 11
29.40000007257413
 21
210.6000003494543
 31
0.0
  0
LINE
  5
107A9
330
A
100
AcDbEntity
  8
0
100
AcDbLine
 10
25.0000000725745
 20
210.8000003494542
 30
0.0
 11
29.20000007257431
 21
210.8000003494542
 31
0.0
  0
LINE
  5
107AA
330
A
100
AcDbEntity
  8
0
100
AcDbLine
 10
25.0000000725745
 20
211.0000003494543
 30
0.0
 11
29.0000000725745
 21
211.0000003494543
 31
0.0
  0
LINE
  5
107AB
330
A
100
AcDbEntity
  8
0
100
AcDbLine
 10
25.0000000725745
 20
211.2000003494543
 30
0.0
 11
28.80000007257377
 21
211.2000003494543
 31
0.0
  0
LINE
  5
107AC
330
A
100
AcDbEntity
  8
0
100
AcDbLine
 10
27.5000000725745
 20
211.4000003494542
 30
0.0
 11
28.60000007257395
 21
211.4000003494542
 31
0.0
  0
LINE
  5
107AD
330
A
100
AcDbEntity
  8
0
100
AcDbLine
 10
27.5000000725745
 20
211.6000003494543
 30
0.0
 11
28.40000007257413
 21
211.6000003494543
 31
0.0
  0
LINE
  5
107AE
330
A
100
AcDbEntity
  8
0
100
AcDbLine
 10
27.5000000725745
 20
211.8000003494542
 30
0.0
 11
28.20000007257431
 21
211.8000003494542
 31
0.0
  0
LINE
  5
107AF
330
A
100
AcDbEntity
  8
0
100
AcDbLine
 10
27.5000000725745
 20
212.0000003494542
 30
0.0
 11
28.0000000725745
 21
212.0000003494542
 31
0.0
  0
LINE
  5
107B0
330
A
100
AcDbEntity
  8
0
100
AcDbLine
 10
27.5000000725745
 20
212.2000003494543
 30
0.0
 11
27.80000007257377
 21
212.2000003494543
 31
0.0
  0
LINE
  5
107B1
330
A
100
AcDbEntity
  8
0
100
AcDbLine
 10
27.5000000725745
 20
212.4000003494542
 30
0.0
 11
27.60000007257395
 21
212.4000003494542
 31
0.0
  0
LINE
  5
107B2
330
A
100
AcDbEntity
  8
0
100
AcDbLine
 10
25.0000000725745
 20
110.0000003494542
 30
0.0
 11
30.0000000725745
 21
110.0000003494542
 31
0.0
  0
LINE
  5
107B3
330
A
100
AcDbEntity
  8
0
100
AcDbLine
 10
25.0000000725745
 20
310.0000003494542
 30
0.0
 11
30.0000000725745
 21
310.0000003494542
 31
0.0
  0
LINE
  5
107B4
330
A
100
AcDbEntity
  8
0
100
AcDbLine
 10
25.0000000725745
 20
410.0000003494542
 30
0.0
 11
30.0000000725745
 21
410.0000003494542
 31
0.0
  0
LINE
  5
107B5
330
A
100
AcDbEntity
  8
0
100
AcDbLine
 10
25.0000000725745
 20
10.00000034945426
 30
0.0
 11
30.0000000725745
 21
10.00000034945426
 31
0.0
  0
TEXT
  5
107B7
330
A
100
AcDbEntity
  8
0
100
AcDbText
 10
26.00914059099196
 20
58.40000034945426
 30
0.0
 40
3.2
  1
B
 72
     1
 11
27.5000000725745
 21
60.00000034945426
 31
0.0
100
AcDbText
 73
     2
  0
TEXT
  5
107B8
330
A
100
AcDbEntity
  8
0
100
AcDbText
 10
25.88581180518023
 20
258.4000003494542
 30
0.0
 40
3.2
  1
D
 72
     1
 11
27.5000000725745
 21
260.0000003494542
 31
0.0
100
AcDbText
 73
     2
  0
TEXT
  5
107B9
330
A
100
AcDbEntity
  8
0
100
AcDbText
 10
26.00914059099196
 20
358.4000003494542
 30
0.0
 40
3.2
  1
E
 72
     1
 11
27.5000000725745
 21
360.0000003494542
 31
0.0
100
AcDbText
 73
     2
  0
TEXT
  5
107BB
330
A
100
AcDbEntity
  8
0
100
AcDbText
 10
25.88581180518023
 20
158.4000003494542
 30
0.0
 40
3.2
  1
C
 72
     1
 11
27.5000000725745
 21
160.0000003494542
 31
0.0
100
AcDbText
 73
     2
  0
LINE
  5
107BC
330
A
100
AcDbEntity
  8
0
100
AcDbLine
 10
581.5000000725745
 20
211.2000003494543
 30
0.0
 11
581.5000000725745
 21
212.5000003494543
 31
0.0
  0
LINE
  5
107BD
330
A
100
AcDbEntity
  8
0
100
AcDbLine
 10
579.0000000725744
 20
210.0000003494543
 30
0.0
 11
581.5000000725745
 21
212.5000003494543
 31
0.0
  0
LINE
  5
107BE
330
A
100
AcDbEntity
  8
0
100
AcDbLine
 10
579.0000000725744
 20
210.0000003494543
 30
0.0
 11
581.5000000725745
 21
207.5000003494543
 31
0.0
  0
LINE
  5
107BF
330
A
100
AcDbEntity
  8
0
100
AcDbLine
 10
581.5000000725745
 20
207.5000003494543
 30
0.0
 11
581.5000000725745
 21
208.8000003494542
 31
0.0
  0
LINE
  5
107C0
330
A
100
AcDbEntity
  8
0
100
AcDbLine
 10
580.2000000725743
 20
208.8000003494542
 30
0.0
 11
584.0000000725744
 21
208.8000003494542
 31
0.0
  0
LINE
  5
107C1
330
A
100
AcDbEntity
  8
0
100
AcDbLine
 10
580.4000000725741
 20
208.6000003494543
 30
0.0
 11
581.5000000725745
 21
208.6000003494543
 31
0.0
  0
LINE
  5
107C2
330
A
100
AcDbEntity
  8
0
100
AcDbLine
 10
580.6000000725739
 20
208.4000003494543
 30
0.0
 11
581.5000000725745
 21
208.4000003494543
 31
0.0
  0
LINE
  5
107C3
330
A
100
AcDbEntity
  8
0
100
AcDbLine
 10
580.8000000725737
 20
208.2000003494544
 30
0.0
 11
581.5000000725745
 21
208.2000003494544
 31
0.0
  0
LINE
  5
107C4
330
A
100
AcDbEntity
  8
0
100
AcDbLine
 10
581.0000000725745
 20
208.0000003494543
 30
0.0
 11
581.5000000725745
 21
208.0000003494543
 31
0.0
  0
LINE
  5
107C5
330
A
100
AcDbEntity
  8
0
100
AcDbLine
 10
581.2000000725743
 20
207.8000003494543
 30
0.0
 11
581.5000000725745
 21
207.8000003494543
 31
0.0
  0
LINE
  5
107C6
330
A
100
AcDbEntity
  8
0
100
AcDbLine
 10
581.4000000725741
 20
207.6000003494543
 30
0.0
 11
581.5000000725745
 21
207.6000003494543
 31
0.0
  0
LINE
  5
107C7
330
A
100
AcDbEntity
  8
0
100
AcDbLine
 10
580.0000000725744
 20
209.0000003494543
 30
0.0
 11
584.0000000725744
 21
209.0000003494543
 31
0.0
  0
LINE
  5
107C8
330
A
100
AcDbEntity
  8
0
100
AcDbLine
 10
579.8000000725737
 20
209.2000003494543
 30
0.0
 11
584.0000000725744
 21
209.2000003494543
 31
0.0
  0
LINE
  5
107C9
330
A
100
AcDbEntity
  8
0
100
AcDbLine
 10
579.6000000725739
 20
209.4000003494543
 30
0.0
 11
584.0000000725744
 21
209.4000003494543
 31
0.0
  0
LINE
  5
107CA
330
A
100
AcDbEntity
  8
0
100
AcDbLine
 10
579.4000000725741
 20
209.6000003494543
 30
0.0
 11
584.0000000725744
 21
209.6000003494543
 31
0.0
  0
LINE
  5
107CB
330
A
100
AcDbEntity
  8
0
100
AcDbLine
 10
579.2000000725742
 20
209.8000003494543
 30
0.0
 11
584.0000000725744
 21
209.8000003494543
 31
0.0
  0
LINE
  5
107CC
330
A
100
AcDbEntity
  8
0
100
AcDbLine
 10
579.0000000725744
 20
210.0000003494543
 30
0.0
 11
584.0000000725744
 21
210.0000003494543
 31
0.0
  0
LINE
  5
107CD
330
A
100
AcDbEntity
  8
0
100
AcDbLine
 10
579.2000000725742
 20
210.2000003494544
 30
0.0
 11
584.0000000725744
 21
210.2000003494544
 31
0.0
  0
LINE
  5
107CE
330
A
100
AcDbEntity
  8
0
100
AcDbLine
 10
579.4000000725741
 20
210.4000003494543
 30
0.0
 11
584.0000000725744
 21
210.4000003494543
 31
0.0
  0
LINE
  5
107CF
330
A
100
AcDbEntity
  8
0
100
AcDbLine
 10
579.6000000725739
 20
210.6000003494543
 30
0.0
 11
584.0000000725744
 21
210.6000003494543
 31
0.0
  0
LINE
  5
107D0
330
A
100
AcDbEntity
  8
0
100
AcDbLine
 10
579.8000000725737
 20
210.8000003494542
 30
0.0
 11
584.0000000725744
 21
210.8000003494542
 31
0.0
  0
LINE
  5
107D1
330
A
100
AcDbEntity
  8
0
100
AcDbLine
 10
580.0000000725744
 20
211.0000003494543
 30
0.0
 11
584.0000000725744
 21
211.0000003494543
 31
0.0
  0
LINE
  5
107D2
330
A
100
AcDbEntity
  8
0
100
AcDbLine
 10
580.2000000725743
 20
211.2000003494543
 30
0.0
 11
584.0000000725744
 21
211.2000003494543
 31
0.0
  0
LINE
  5
107D3
330
A
100
AcDbEntity
  8
0
100
AcDbLine
 10
580.4000000725741
 20
211.4000003494543
 30
0.0
 11
581.5000000725745
 21
211.4000003494543
 31
0.0
  0
LINE
  5
107D4
330
A
100
AcDbEntity
  8
0
100
AcDbLine
 10
580.6000000725739
 20
211.6000003494543
 30
0.0
 11
581.5000000725745
 21
211.6000003494543
 31
0.0
  0
LINE
  5
107D5
330
A
100
AcDbEntity
  8
0
100
AcDbLine
 10
580.8000000725737
 20
211.8000003494543
 30
0.0
 11
581.5000000725745
 21
211.8000003494543
 31
0.0
  0
LINE
  5
107D6
330
A
100
AcDbEntity
  8
0
100
AcDbLine
 10
581.0000000725745
 20
212.0000003494543
 30
0.0
 11
581.5000000725745
 21
212.0000003494543
 31
0.0
  0
LINE
  5
107D7
330
A
100
AcDbEntity
  8
0
100
AcDbLine
 10
581.2000000725743
 20
212.2000003494544
 30
0.0
 11
581.5000000725745
 21
212.2000003494544
 31
0.0
  0
LINE
  5
107D8
330
A
100
AcDbEntity
  8
0
100
AcDbLine
 10
581.4000000725741
 20
212.4000003494543
 30
0.0
 11
581.5000000725745
 21
212.4000003494543
 31
0.0
  0
LINE
  5
107D9
330
A
100
AcDbEntity
  8
0
100
AcDbLine
 10
579.0000000725744
 20
310.0000003494543
 30
0.0
 11
584.0000000725744
 21
310.0000003494543
 31
0.0
  0
LINE
  5
107DA
330
A
100
AcDbEntity
  8
0
100
AcDbLine
 10
579.0000000725744
 20
110.0000003494543
 30
0.0
 11
584.0000000725744
 21
110.0000003494543
 31
0.0
  0
LINE
  5
107DB
330
A
100
AcDbEntity
  8
0
100
AcDbLine
 10
579.0000000725744
 20
410.0000003494542
 30
0.0
 11
584.0000000725744
 21
410.0000003494542
 31
0.0
  0
LINE
  5
107DC
330
A
100
AcDbEntity
  8
0
100
AcDbLine
 10
579.0000000725744
 20
10.00000034945429
 30
0.0
 11
584.0000000725744
 21
10.00000034945429
 31
0.0
  0
TEXT
  5
107DE
330
A
100
AcDbEntity
  8
0
100
AcDbText
 10
580.0091405909919
 20
58.40000034945429
 30
0.0
 40
3.2
  1
B
 72
     1
 11
581.5000000725745
 21
60.00000034945429
 31
0.0
100
AcDbText
 73
     2
  0
TEXT
  5
107DF
330
A
100
AcDbEntity
  8
0
100
AcDbText
 10
579.8858118051802
 20
258.4000003494543
 30
0.0
 40
3.2
  1
D
 72
     1
 11
581.5000000725745
 21
260.0000003494543
 31
0.0
100
AcDbText
 73
     2
  0
TEXT
  5
107E0
330
A
100
AcDbEntity
  8
0
100
AcDbText
 10
580.0091405909919
 20
358.4000003494543
 30
0.0
 40
3.2
  1
E
 72
     1
 11
581.5000000725745
 21
360.0000003494543
 31
0.0
100
AcDbText
 73
     2
  0
TEXT
  5
107E2
330
A
100
AcDbEntity
  8
0
100
AcDbText
 10
579.8858118051802
 20
158.4000003494543
 30
0.0
 40
3.2
  1
C
 72
     1
 11
581.5000000725745
 21
160.0000003494543
 31
0.0
100
AcDbText
 73
     2
  0
LINE
  5
107E3
330
A
100
AcDbEntity
  8
0
100
AcDbLine
 10
302.0000000725747
 20
407.5000003494542
 30
0.0
 11
303.300000072574
 21
407.5000003494542
 31
0.0
  0
LINE
  5
107E4
330
A
100
AcDbEntity
  8
0
100
AcDbLine
 10
304.5000000725747
 20
405.0000003494543
 30
0.0
 11
307.0000000725747
 21
407.5000003494542
 31
0.0
  0
LINE
  5
107E5
330
A
100
AcDbEntity
  8
0
100
AcDbLine
 10
302.0000000725747
 20
407.5000003494542
 30
0.0
 11
304.5000000725747
 21
405.0000003494543
 31
0.0
  0
LINE
  5
107E6
330
A
100
AcDbEntity
  8
0
100
AcDbLine
 10
305.7000000725746
 20
407.5000003494542
 30
0.0
 11
307.0000000725747
 21
407.5000003494542
 31
0.0
  0
LINE
  5
107E7
330
A
100
AcDbEntity
  8
0
100
AcDbLine
 10
303.300000072574
 20
406.2000003494543
 30
0.0
 11
303.300000072574
 21
410.0000003494542
 31
0.0
  0
LINE
  5
107E8
330
A
100
AcDbEntity
  8
0
100
AcDbLine
 10
303.1000000725742
 20
406.4000003494544
 30
0.0
 11
303.1000000725742
 21
407.5000003494542
 31
0.0
  0
LINE
  5
107E9
330
A
100
AcDbEntity
  8
0
100
AcDbLine
 10
302.9000000725744
 20
406.6000003494542
 30
0.0
 11
302.9000000725744
 21
407.5000003494542
 31
0.0
  0
LINE
  5
107EA
330
A
100
AcDbEntity
  8
0
100
AcDbLine
 10
302.7000000725745
 20
406.8000003494542
 30
0.0
 11
302.7000000725745
 21
407.5000003494542
 31
0.0
  0
LINE
  5
107EB
330
A
100
AcDbEntity
  8
0
100
AcDbLine
 10
302.5000000725747
 20
407.0000003494542
 30
0.0
 11
302.5000000725747
 21
407.5000003494542
 31
0.0
  0
LINE
  5
107EC
330
A
100
AcDbEntity
  8
0
100
AcDbLine
 10
302.300000072574
 20
407.2000003494543
 30
0.0
 11
302.300000072574
 21
407.5000003494542
 31
0.0
  0
LINE
  5
107ED
330
A
100
AcDbEntity
  8
0
100
AcDbLine
 10
302.1000000725742
 20
407.4000003494544
 30
0.0
 11
302.1000000725742
 21
407.5000003494542
 31
0.0
  0
LINE
  5
107EE
330
A
100
AcDbEntity
  8
0
100
AcDbLine
 10
303.5000000725747
 20
406.0000003494542
 30
0.0
 11
303.5000000725747
 21
410.0000003494542
 31
0.0
  0
LINE
  5
107EF
330
A
100
AcDbEntity
  8
0
100
AcDbLine
 10
303.7000000725746
 20
405.8000003494542
 30
0.0
 11
303.7000000725746
 21
410.0000003494542
 31
0.0
  0
LINE
  5
107F0
330
A
100
AcDbEntity
  8
0
100
AcDbLine
 10
303.9000000725744
 20
405.6000003494542
 30
0.0
 11
303.9000000725744
 21
410.0000003494542
 31
0.0
  0
LINE
  5
107F1
330
A
100
AcDbEntity
  8
0
100
AcDbLine
 10
304.1000000725742
 20
405.4000003494543
 30
0.0
 11
304.1000000725742
 21
410.0000003494542
 31
0.0
  0
LINE
  5
107F2
330
A
100
AcDbEntity
  8
0
100
AcDbLine
 10
304.300000072574
 20
405.2000003494543
 30
0.0
 11
304.300000072574
 21
410.0000003494542
 31
0.0
  0
LINE
  5
107F3
330
A
100
AcDbEntity
  8
0
100
AcDbLine
 10
304.5000000725747
 20
405.0000003494543
 30
0.0
 11
304.5000000725747
 21
410.0000003494542
 31
0.0
  0
LINE
  5
107F4
330
A
100
AcDbEntity
  8
0
100
AcDbLine
 10
304.7000000725745
 20
405.2000003494543
 30
0.0
 11
304.7000000725745
 21
410.0000003494542
 31
0.0
  0
LINE
  5
107F5
330
A
100
AcDbEntity
  8
0
100
AcDbLine
 10
304.9000000725744
 20
405.4000003494543
 30
0.0
 11
304.9000000725744
 21
410.0000003494542
 31
0.0
  0
LINE
  5
107F6
330
A
100
AcDbEntity
  8
0
100
AcDbLine
 10
305.1000000725742
 20
405.6000003494542
 30
0.0
 11
305.1000000725742
 21
410.0000003494542
 31
0.0
  0
LINE
  5
107F7
330
A
100
AcDbEntity
  8
0
100
AcDbLine
 10
305.300000072574
 20
405.8000003494542
 30
0.0
 11
305.300000072574
 21
410.0000003494542
 31
0.0
  0
LINE
  5
107F8
330
A
100
AcDbEntity
  8
0
100
AcDbLine
 10
305.5000000725747
 20
406.0000003494542
 30
0.0
 11
305.5000000725747
 21
410.0000003494542
 31
0.0
  0
LINE
  5
107F9
330
A
100
AcDbEntity
  8
0
100
AcDbLine
 10
305.7000000725746
 20
406.2000003494543
 30
0.0
 11
305.7000000725746
 21
410.0000003494542
 31
0.0
  0
LINE
  5
107FA
330
A
100
AcDbEntity
  8
0
100
AcDbLine
 10
305.9000000725744
 20
406.4000003494544
 30
0.0
 11
305.9000000725744
 21
407.5000003494542
 31
0.0
  0
LINE
  5
107FB
330
A
100
AcDbEntity
  8
0
100
AcDbLine
 10
306.1000000725742
 20
406.6000003494542
 30
0.0
 11
306.1000000725742
 21
407.5000003494542
 31
0.0
  0
LINE
  5
107FC
330
A
100
AcDbEntity
  8
0
100
AcDbLine
 10
306.300000072574
 20
406.8000003494542
 30
0.0
 11
306.300000072574
 21
407.5000003494542
 31
0.0
  0
LINE
  5
107FD
330
A
100
AcDbEntity
  8
0
100
AcDbLine
 10
306.5000000725747
 20
407.0000003494542
 30
0.0
 11
306.5000000725747
 21
407.5000003494542
 31
0.0
  0
LINE
  5
107FE
330
A
100
AcDbEntity
  8
0
100
AcDbLine
 10
306.7000000725745
 20
407.2000003494543
 30
0.0
 11
306.7000000725745
 21
407.5000003494542
 31
0.0
  0
LINE
  5
107FF
330
A
100
AcDbEntity
  8
0
100
AcDbLine
 10
306.9000000725744
 20
407.4000003494544
 30
0.0
 11
306.9000000725744
 21
407.5000003494542
 31
0.0
  0
LINE
  5
10800
330
A
100
AcDbEntity
  8
0
100
AcDbLine
 10
204.5000000725747
 20
405.0000003494543
 30
0.0
 11
204.5000000725747
 21
410.0000003494542
 31
0.0
  0
LINE
  5
10801
330
A
100
AcDbEntity
  8
0
100
AcDbLine
 10
404.5000000725747
 20
405.0000003494543
 30
0.0
 11
404.5000000725747
 21
410.0000003494542
 31
0.0
  0
LINE
  5
10802
330
A
100
AcDbEntity
  8
0
100
AcDbLine
 10
504.5000000725747
 20
405.0000003494543
 30
0.0
 11
504.5000000725747
 21
410.0000003494542
 31
0.0
  0
LINE
  5
10804
330
A
100
AcDbEntity
  8
0
100
AcDbLine
 10
104.5000000725747
 20
405.0000003494543
 30
0.0
 11
104.5000000725747
 21
410.0000003494542
 31
0.0
  0
TEXT
  5
10807
330
A
100
AcDbEntity
  8
0
100
AcDbText
 10
53.25688956779982
 20
405.9000003494542
 30
0.0
 40
3.2
  1
2
 72
     1
 11
54.50000007257472
 21
407.5000003494542
 31
0.0
100
AcDbText
 73
     2
  0
TEXT
  5
10808
330
A
100
AcDbEntity
  8
0
100
AcDbText
 10
153.2568895677998
 20
405.9000003494542
 30
0.0
 40
3.2
  1
3
 72
     1
 11
154.5000000725747
 21
407.5000003494542
 31
0.0
100
AcDbText
 73
     2
  0
TEXT
  5
10809
330
A
100
AcDbEntity
  8
0
100
AcDbText
 10
253.2568895677998
 20
405.9000003494542
 30
0.0
 40
3.2
  1
4
 72
     1
 11
254.5000000725747
 21
407.5000003494542
 31
0.0
100
AcDbText
 73
     2
  0
TEXT
  5
1080A
330
A
100
AcDbEntity
  8
0
100
AcDbText
 10
353.2568895677998
 20
405.9000003494542
 30
0.0
 40
3.2
  1
5
 72
     1
 11
354.5000000725747
 21
407.5000003494542
 31
0.0
100
AcDbText
 73
     2
  0
TEXT
  5
1080B
330
A
100
AcDbEntity
  8
0
100
AcDbText
 10
453.2568895677997
 20
405.9000003494542
 30
0.0
 40
3.2
  1
6
 72
     1
 11
454.5000000725747
 21
407.5000003494542
 31
0.0
100
AcDbText
 73
     2
  0
TEXT
  5
1080C
330
A
100
AcDbEntity
  8
0
100
AcDbText
 10
553.2568895677997
 20
405.9000003494542
 30
0.0
 40
3.2
  1
7
 72
     1
 11
554.5000000725747
 21
407.5000003494542
 31
0.0
100
AcDbText
 73
     2
  0
LINE
  5
1081F
330
A
100
AcDbEntity
  8
0
100
AcDbLine
 10
204.5000000725747
 20
10.00000034945424
 30
0.0
 11
204.5000000725747
 21
15.00000034945424
 31
0.0
  0
LINE
  5
10820
330
A
100
AcDbEntity
  8
0
100
AcDbLine
 10
404.5000000725747
 20
10.00000034945424
 30
0.0
 11
404.5000000725747
 21
15.00000034945424
 31
0.0
  0
LINE
  5
10821
330
A
100
AcDbEntity
  8
0
100
AcDbLine
 10
504.5000000725747
 20
10.00000034945424
 30
0.0
 11
504.5000000725747
 21
15.00000034945424
 31
0.0
  0
LINE
  5
10823
330
A
100
AcDbEntity
  8
0
100
AcDbLine
 10
104.5000000725747
 20
10.00000034945424
 30
0.0
 11
104.5000000725747
 21
15.00000034945424
 31
0.0
  0
TEXT
  5
10826
330
A
100
AcDbEntity
  8
0
100
AcDbText
 10
53.25688956779982
 20
10.90000034945424
 30
0.0
 40
3.2
  1
2
 72
     1
 11
54.50000007257472
 21
12.50000034945424
 31
0.0
100
AcDbText
 73
     2
  0
TEXT
  5
10827
330
A
100
AcDbEntity
  8
0
100
AcDbText
 10
153.2568895677998
 20
10.90000034945424
 30
0.0
 40
3.2
  1
3
 72
     1
 11
154.5000000725747
 21
12.50000034945424
 31
0.0
100
AcDbText
 73
     2
  0
TEXT
  5
10828
330
A
100
AcDbEntity
  8
0
100
AcDbText
 10
253.2568895677998
 20
10.90000034945424
 30
0.0
 40
3.2
  1
4
 72
     1
 11
254.5000000725747
 21
12.50000034945424
 31
0.0
100
AcDbText
 73
     2
  0
TEXT
  5
10829
330
A
100
AcDbEntity
  8
0
100
AcDbText
 10
353.2568895677998
 20
10.90000034945424
 30
0.0
 40
3.2
  1
5
 72
     1
 11
354.5000000725747
 21
12.50000034945424
 31
0.0
100
AcDbText
 73
     2
  0
TEXT
  5
1082A
330
A
100
AcDbEntity
  8
0
100
AcDbText
 10
453.2568895677997
 20
10.90000034945424
 30
0.0
 40
3.2
  1
6
 72
     1
 11
454.5000000725747
 21
12.50000034945424
 31
0.0
100
AcDbText
 73
     2
  0
TEXT
  5
1082B
330
A
100
AcDbEntity
  8
0
100
AcDbText
 10
553.2568895677997
 20
10.90000034945424
 30
0.0
 40
3.2
  1
7
 72
     1
 11
554.5000000725747
 21
12.50000034945424
 31
0.0
100
AcDbText
 73
     2
  0
LINE
  5
1082D
330
A
100
AcDbEntity
  8
0
100
AcDbLine
 10
305.5000000725745
 20
10.00000034945424
 30
0.0
 11
305.5000000725745
 21
14.00000034945424
 31
0.0
  0
LINE
  5
1082E
330
A
100
AcDbEntity
  8
0
100
AcDbLine
 10
304.5000000725745
 20
15.00000034945424
 30
0.0
 11
307.0000000725745
 21
12.50000034945424
 31
0.0
  0
LINE
  5
1082F
330
A
100
AcDbEntity
  8
0
100
AcDbLine
 10
305.5000000725745
 20
12.50000034945424
 30
0.0
 11
307.0000000725745
 21
12.50000034945424
 31
0.0
  0
LINE
  5
10830
330
A
100
AcDbEntity
  8
0
100
AcDbLine
 10
302.0000000725745
 20
12.50000034945424
 30
0.0
 11
304.5000000725745
 21
15.00000034945424
 31
0.0
  0
LINE
  5
10831
330
A
100
AcDbEntity
  8
0
100
AcDbLine
 10
302.0000000725745
 20
12.50000034945424
 30
0.0
 11
303.5000000725745
 21
12.50000034945424
 31
0.0
  0
LINE
  5
10832
330
A
100
AcDbEntity
  8
0
100
AcDbLine
 10
303.3000000725738
 20
10.00000034945424
 30
0.0
 11
303.3000000725738
 21
13.80000034945419
 31
0.0
  0
LINE
  5
10833
330
A
100
AcDbEntity
  8
0
100
AcDbLine
 10
303.100000072574
 20
12.50000034945424
 30
0.0
 11
303.100000072574
 21
13.60000034945426
 31
0.0
  0
LINE
  5
10834
330
A
100
AcDbEntity
  8
0
100
AcDbLine
 10
302.9000000725741
 20
12.50000034945424
 30
0.0
 11
302.9000000725741
 21
13.40000034945421
 31
0.0
  0
LINE
  5
10835
330
A
100
AcDbEntity
  8
0
100
AcDbLine
 10
302.7000000725743
 20
12.50000034945424
 30
0.0
 11
302.7000000725743
 21
13.20000034945428
 31
0.0
  0
LINE
  5
10836
330
A
100
AcDbEntity
  8
0
100
AcDbLine
 10
302.5000000725745
 20
12.50000034945424
 30
0.0
 11
302.5000000725745
 21
13.00000034945424
 31
0.0
  0
LINE
  5
10837
330
A
100
AcDbEntity
  8
0
100
AcDbLine
 10
302.3000000725738
 20
12.50000034945424
 30
0.0
 11
302.3000000725738
 21
12.80000034945419
 31
0.0
  0
LINE
  5
10838
330
A
100
AcDbEntity
  8
0
100
AcDbLine
 10
302.1000000725739
 20
12.50000034945424
 30
0.0
 11
302.1000000725739
 21
12.60000034945426
 31
0.0
  0
LINE
  5
10839
330
A
100
AcDbEntity
  8
0
100
AcDbLine
 10
303.5000000725745
 20
10.00000034945424
 30
0.0
 11
303.5000000725745
 21
14.00000034945424
 31
0.0
  0
LINE
  5
1083A
330
A
100
AcDbEntity
  8
0
100
AcDbLine
 10
303.7000000725743
 20
10.00000034945424
 30
0.0
 11
303.7000000725743
 21
14.20000034945428
 31
0.0
  0
LINE
  5
1083B
330
A
100
AcDbEntity
  8
0
100
AcDbLine
 10
303.9000000725741
 20
10.00000034945424
 30
0.0
 11
303.9000000725741
 21
14.40000034945422
 31
0.0
  0
LINE
  5
1083C
330
A
100
AcDbEntity
  8
0
100
AcDbLine
 10
304.1000000725739
 20
10.00000034945424
 30
0.0
 11
304.1000000725739
 21
14.60000034945426
 31
0.0
  0
LINE
  5
1083D
330
A
100
AcDbEntity
  8
0
100
AcDbLine
 10
304.3000000725738
 20
10.00000034945424
 30
0.0
 11
304.3000000725738
 21
14.80000034945419
 31
0.0
  0
LINE
  5
1083E
330
A
100
AcDbEntity
  8
0
100
AcDbLine
 10
304.5000000725745
 20
10.00000034945424
 30
0.0
 11
304.5000000725745
 21
15.00000034945424
 31
0.0
  0
LINE
  5
1083F
330
A
100
AcDbEntity
  8
0
100
AcDbLine
 10
304.7000000725743
 20
10.00000034945424
 30
0.0
 11
304.7000000725743
 21
14.80000034945419
 31
0.0
  0
LINE
  5
10840
330
A
100
AcDbEntity
  8
0
100
AcDbLine
 10
304.9000000725741
 20
10.00000034945424
 30
0.0
 11
304.9000000725741
 21
14.60000034945426
 31
0.0
  0
LINE
  5
10841
330
A
100
AcDbEntity
  8
0
100
AcDbLine
 10
305.100000072574
 20
10.00000034945424
 30
0.0
 11
305.100000072574
 21
14.40000034945422
 31
0.0
  0
LINE
  5
10842
330
A
100
AcDbEntity
  8
0
100
AcDbLine
 10
305.3000000725738
 20
10.00000034945424
 30
0.0
 11
305.3000000725738
 21
14.20000034945428
 31
0.0
  0
LINE
  5
10843
330
A
100
AcDbEntity
  8
0
100
AcDbLine
 10
305.7000000725743
 20
10.00000034945424
 30
0.0
 11
305.7000000725743
 21
13.80000034945419
 31
0.0
  0
LINE
  5
10844
330
A
100
AcDbEntity
  8
0
100
AcDbLine
 10
305.9000000725741
 20
12.50000034945424
 30
0.0
 11
305.9000000725741
 21
13.60000034945426
 31
0.0
  0
LINE
  5
10845
330
A
100
AcDbEntity
  8
0
100
AcDbLine
 10
306.1000000725739
 20
12.50000034945424
 30
0.0
 11
306.1000000725739
 21
13.40000034945421
 31
0.0
  0
LINE
  5
10846
330
A
100
AcDbEntity
  8
0
100
AcDbLine
 10
306.3000000725738
 20
12.50000034945424
 30
0.0
 11
306.3000000725738
 21
13.20000034945428
 31
0.0
  0
LINE
  5
10847
330
A
100
AcDbEntity
  8
0
100
AcDbLine
 10
306.5000000725745
 20
12.50000034945424
 30
0.0
 11
306.5000000725745
 21
13.00000034945424
 31
0.0
  0
LINE
  5
10848
330
A
100
AcDbEntity
  8
0
100
AcDbLine
 10
306.7000000725743
 20
12.50000034945424
 30
0.0
 11
306.7000000725743
 21
12.80000034945419
 31
0.0
  0
LINE
  5
10849
330
A
100
AcDbEntity
  8
0
100
AcDbLine
 10
306.9000000725741
 20
12.50000034945424
 30
0.0
 11
306.9000000725741
 21
12.60000034945426
 31
0.0
  0
LINE
  5
1084A
330
A
100
AcDbEntity
  8
0
  6
Continuous
 62
     7
370
     9
100
AcDbLine
 10
499.66214945607
 20
63.77364480765663
 30
0.0
 11
499.7763347785252
 21
63.88783013011198
 31
0.0
1001
ACAD
1010
0.0
1020
0.0
1030
0.0
  0
LINE
  5
1084B
330
A
100
AcDbEntity
  8
0
  6
Continuous
 62
     7
370
     9
100
AcDbLine
 10
499.8287321064363
 20
63.49121465196936
 30
0.0
 11
500.2253475845791
 21
63.8878301301122
 31
0.0
1001
ACAD
1010
0.0
1020
0.0
1030
0.0
  0
LINE
  5
1084C
330
A
100
AcDbEntity
  8
0
  6
Continuous
 62
     7
370
     9
100
AcDbLine
 10
499.9953147568024
 20
63.20878449628207
 30
0.0
 11
500.6743603906325
 21
63.8878301301122
 31
0.0
1001
ACAD
1010
0.0
1020
0.0
1030
0.0
  0
LINE
  5
1084D
330
A
100
AcDbEntity
  8
0
  6
Continuous
 62
     7
370
     9
100
AcDbLine
 10
500.1618974071682
 20
62.92635434059457
 30
0.0
 11
501.1233731966861
 21
63.88783013011243
 31
0.0
1001
ACAD
1010
0.0
1020
0.0
1030
0.0
  0
LINE
  5
1084E
330
A
100
AcDbEntity
  8
0
  6
Continuous
 62
     7
370
     9
100
AcDbLine
 10
500.4227320351997
 20
62.73817616257247
 30
0.0
 11
501.5723860027397
 21
63.88783013011243
 31
0.0
1001
ACAD
1010
0.0
1020
0.0
1030
0.0
  0
LINE
  5
1084F
330
A
100
AcDbEntity
  8
0
  6
Continuous
 62
     7
370
     9
100
AcDbLine
 10
500.871744841253
 20
62.73817616257225
 30
0.0
 11
502.021398808793
 21
63.8878301301122
 31
0.0
1001
ACAD
1010
0.0
1020
0.0
1030
0.0
  0
LINE
  5
10850
330
A
100
AcDbEntity
  8
0
  6
Continuous
 62
     7
370
     9
100
AcDbLine
 10
500.2728884575385
 20
61.69030697280437
 30
0.0
 11
500.3849927900066
 21
61.80241130527225
 31
0.0
1001
ACAD
1010
0.0
1020
0.0
1030
0.0
  0
LINE
  5
10851
330
A
100
AcDbEntity
  8
0
  6
Continuous
 62
     7
370
     9
100
AcDbLine
 10
501.3207576473067
 20
62.73817616257247
 30
0.0
 11
502.4485848077822
 21
63.86600332304806
 31
0.0
1001
ACAD
1010
0.0
1020
0.0
1030
0.0
  0
LINE
  5
10852
330
A
100
AcDbEntity
  8
0
  6
Continuous
 62
     7
370
     9
100
AcDbLine
 10
500.2728884575388
 20
61.24129416675123
 30
0.0
 11
500.83400559606
 21
61.80241130527247
 31
0.0
1001
ACAD
1010
0.0
1020
0.0
1030
0.0
  0
LINE
  5
10853
330
A
100
AcDbEntity
  8
0
  6
Continuous
 62
     7
370
     9
100
AcDbLine
 10
501.7697704533602
 20
62.7381761625727
 30
0.0
 11
502.8221767426339
 21
63.79058245184637
 31
0.0
1001
ACAD
1010
0.0
1020
0.0
1030
0.0
  0
LINE
  5
10854
330
A
100
AcDbEntity
  8
0
  6
Continuous
 62
     7
370
     9
100
AcDbLine
 10
500.2728884575385
 20
60.79228136069741
 30
0.0
 11
501.2830184021131
 21
61.80241130527202
 31
0.0
1001
ACAD
1010
0.0
1020
0.0
1030
0.0
  0
LINE
  5
10855
330
A
100
AcDbEntity
  8
0
  6
Continuous
 62
     7
370
     9
100
AcDbLine
 10
502.2149977725955
 20
62.73439067575464
 30
0.0
 11
503.1548289490872
 21
63.67422185224632
 31
0.0
1001
ACAD
1010
0.0
1020
0.0
1030
0.0
  0
LINE
  5
10856
330
A
100
AcDbEntity
  8
0
  6
Continuous
 62
     7
370
     9
100
AcDbLine
 10
500.2728884575385
 20
60.34326855464406
 30
0.0
 11
501.4225521469516
 21
61.4929322440571
 31
0.0
1001
ACAD
1010
0.0
1020
0.0
1030
0.0
  0
LINE
  5
10857
330
A
100
AcDbEntity
  8
0
  6
Continuous
 62
     7
370
     9
100
AcDbLine
 10
502.5895857273003
 20
62.65996582440561
 30
0.0
 11
503.4538216834285
 21
63.52420178053375
 31
0.0
1001
ACAD
1010
0.0
1020
0.0
1030
0.0
  0
LINE
  5
10858
330
A
100
AcDbEntity
  8
0
  6
Continuous
 62
     7
370
     9
100
AcDbLine
 10
500.2728884575385
 20
59.89425574859047
 30
0.0
 11
501.422552146952
 21
61.04391943800374
 31
0.0
1001
ACAD
1010
0.0
1020
0.0
1030
0.0
  0
LINE
  5
10859
330
A
100
AcDbEntity
  8
0
  6
Continuous
 62
     7
370
     9
100
AcDbLine
 10
502.8966585439256
 20
62.5180258349776
 30
0.0
 11
503.7231751761705
 21
63.34454246722248
 31
0.0
1001
ACAD
1010
0.0
1020
0.0
1030
0.0
  0
LINE
  5
1085A
330
A
100
AcDbEntity
  8
0
  6
Continuous
 62
     7
370
     9
100
AcDbLine
 10
500.2728884575385
 20
59.44524294253688
 30
0.0
 11
501.4225521469518
 21
60.59490663195038
 31
0.0
1001
ACAD
1010
0.0
1020
0.0
1030
0.0
  0
LINE
  5
1085B
330
A
100
AcDbEntity
  8
0
  6
Continuous
 62
     7
370
     9
100
AcDbLine
 10
503.1518561337609
 20
62.32421061875948
 30
0.0
 11
503.9650002279627
 21
63.13735471296126
 31
0.0
1001
ACAD
1010
0.0
1020
0.0
1030
0.0
  0
LINE
  5
1085C
330
A
100
AcDbEntity
  8
0
  6
Continuous
 62
     7
370
     9
100
AcDbLine
 10
500.2728884575385
 20
58.99623013648374
 30
0.0
 11
501.4225521469516
 21
60.14589382589679
 31
0.0
1001
ACAD
1010
0.0
1020
0.0
1030
0.0
  0
LINE
  5
1085D
330
A
100
AcDbEntity
  8
0
  6
Continuous
 62
     7
370
     9
100
AcDbLine
 10
503.3596922545493
 20
62.08303393349456
 30
0.0
 11
504.1800574508677
 21
62.9033991298129
 31
0.0
1001
ACAD
1010
0.0
1020
0.0
1030
0.0
  0
LINE
  5
1085E
330
A
100
AcDbEntity
  8
0
  6
Continuous
 62
     7
370
     9
100
AcDbLine
 10
500.2728884575385
 20
58.54721733043016
 30
0.0
 11
501.4225521469516
 21
59.69688101984321
 31
0.0
1001
ACAD
1010
0.0
1020
0.0
1030
0.0
  0
LINE
  5
1085F
330
A
100
AcDbEntity
  8
0
  6
Continuous
 62
     7
370
     9
100
AcDbLine
 10
503.5222068211419
 20
61.79653569403353
 30
0.0
 11
504.3679354300852
 21
62.64226430297686
 31
0.0
1001
ACAD
1010
0.0
1020
0.0
1030
0.0
  0
LINE
  5
10860
330
A
100
AcDbEntity
  8
0
  6
Continuous
 62
     7
370
     9
100
AcDbLine
 10
500.2728884575385
 20
58.09820452437657
 30
0.0
 11
501.4225521469516
 21
59.24786821378962
 31
0.0
1001
ACAD
1010
0.0
1020
0.0
1030
0.0
  0
LINE
  5
10861
330
A
100
AcDbEntity
  8
0
  6
Continuous
 62
     7
370
     9
100
AcDbLine
 10
503.6437109182802
 20
61.46902698511849
 30
0.0
 11
504.5293381665842
 21
62.35465423342225
 31
0.0
1001
ACAD
1010
0.0
1020
0.0
1030
0.0
  0
LINE
  5
10862
330
A
100
AcDbEntity
  8
0
  6
Continuous
 62
     7
370
     9
100
AcDbLine
 10
500.511526870509
 20
57.88783013129364
 30
0.0
 11
501.6611808380491
 21
59.03748409883383
 31
0.0
1001
ACAD
1010
0.0
1020
0.0
1030
0.0
  0
LINE
  5
10863
330
A
100
AcDbEntity
  8
0
  6
Continuous
 62
     7
370
     9
100
AcDbLine
 10
503.7139531371549
 20
61.09025639793959
 30
0.0
 11
504.6651686146356
 21
62.04147187542026
 31
0.0
1001
ACAD
1010
0.0
1020
0.0
1030
0.0
  0
LINE
  5
10864
330
A
100
AcDbEntity
  8
0
  6
Continuous
 62
     7
370
     9
100
AcDbLine
 10
500.9605396765626
 20
57.88783013129386
 30
0.0
 11
502.1102083792934
 21
59.03749883402475
 31
0.0
1001
ACAD
1010
0.0
1020
0.0
1030
0.0
  0
LINE
  5
10865
330
A
100
AcDbEntity
  8
0
  6
Continuous
 62
     7
370
     9
100
AcDbLine
 10
503.7078695682951
 20
60.6351600230264
 30
0.0
 11
504.7720488598188
 21
61.69933931455012
 31
0.0
1001
ACAD
1010
0.0
1020
0.0
1030
0.0
  0
LINE
  5
10866
330
A
100
AcDbEntity
  8
0
  6
Continuous
 62
     7
370
     9
100
AcDbLine
 10
501.4095524826159
 20
57.88783013129386
 30
0.0
 11
502.6673507850301
 21
59.14562843370799
 31
0.0
1001
ACAD
1010
0.0
1020
0.0
1030
0.0
  0
LINE
  5
10867
330
A
100
AcDbEntity
  8
0
  6
Continuous
 62
     7
370
     9
100
AcDbLine
 10
503.5346908081101
 20
60.01296845678803
 30
0.0
 11
504.8444533069484
 21
61.32273095562641
 31
0.0
1001
ACAD
1010
0.0
1020
0.0
1030
0.0
  0
LINE
  5
10868
330
A
100
AcDbEntity
  8
0
  6
Continuous
 62
     7
370
     9
100
AcDbLine
 10
501.8585652886695
 20
57.88783013129386
 30
0.0
 11
504.8728750138389
 21
60.90213985646323
 31
0.0
1001
ACAD
1010
0.0
1020
0.0
1030
0.0
  0
LINE
  5
10869
330
A
100
AcDbEntity
  8
0
  6
Continuous
 62
     7
370
     9
100
AcDbLine
 10
502.3160388256765
 20
57.89629086224727
 30
0.0
 11
504.8388422497607
 21
60.41909428633153
 31
0.0
1001
ACAD
1010
0.0
1020
0.0
1030
0.0
  0
LINE
  5
1086A
330
A
100
AcDbEntity
  8
0
  6
Continuous
 62
     7
370
     9
100
AcDbLine
 10
505.7993146369986
 20
61.37956667356935
 30
0.0
 11
507.0844770469843
 21
62.66472908355513
 31
0.0
1001
ACAD
1010
0.0
1020
0.0
1030
0.0
  0
LINE
  5
1086B
330
A
100
AcDbEntity
  8
0
  6
Continuous
 62
     7
370
     9
100
AcDbLine
 10
502.8683149128819
 20
57.99955414339933
 30
0.0
 11
504.6961031899575
 21
59.82734242047491
 31
0.0
1001
ACAD
1010
0.0
1020
0.0
1030
0.0
  0
LINE
  5
1086C
330
A
100
AcDbEntity
  8
0
  6
Continuous
 62
     7
370
     9
100
AcDbLine
 10
505.6229896103134
 20
60.75422884083081
 30
0.0
 11
507.669079697318
 21
62.8003189278354
 31
0.0
1001
ACAD
1010
0.0
1020
0.0
1030
0.0
  0
LINE
  5
1086D
330
A
100
AcDbEntity
  8
0
  6
Continuous
 62
     7
370
     9
100
AcDbLine
 10
503.8908258220573
 20
58.57305224652145
 30
0.0
 11
504.0918985404582
 21
58.7741249649223
 31
0.0
1001
ACAD
1010
0.0
1020
0.0
1030
0.0
  0
LINE
  5
1086E
330
A
100
AcDbEntity
  8
0
  6
Continuous
 62
     7
370
     9
100
AcDbLine
 10
505.5930516956429
 20
60.27527812010703
 30
0.0
 11
508.1072952356369
 21
62.78952166010094
 31
0.0
1001
ACAD
1010
0.0
1020
0.0
1030
0.0
  0
LINE
  5
1086F
330
A
100
AcDbEntity
  8
0
  6
Continuous
 62
     7
370
     9
100
AcDbLine
 10
505.6351179441505
 20
59.86833156256125
 30
0.0
 11
508.473506610778
 21
62.7067202291887
 31
0.0
1001
ACAD
1010
0.0
1020
0.0
1030
0.0
  0
LINE
  5
10870
330
A
100
AcDbEntity
  8
0
  6
Continuous
 62
     7
370
     9
100
AcDbLine
 10
505.7261673706639
 20
59.510368183021
 30
0.0
 11
506.7536698362232
 21
60.53787064858011
 31
0.0
1001
ACAD
1010
0.0
1020
0.0
1030
0.0
  0
LINE
  5
10871
330
A
100
AcDbEntity
  8
0
  6
Continuous
 62
     7
370
     9
100
AcDbLine
 10
507.8727600077822
 20
61.65696082013937
 30
0.0
 11
508.7907348079133
 21
62.57493562027026
 31
0.0
1001
ACAD
1010
0.0
1020
0.0
1030
0.0
  0
LINE
  5
10872
330
A
100
AcDbEntity
  8
0
  6
Continuous
 62
     7
370
     9
100
AcDbLine
 10
505.8558236889475
 20
59.19101169525106
 30
0.0
 11
506.7623201491072
 21
60.09750815541065
 31
0.0
1001
ACAD
1010
0.0
1020
0.0
1030
0.0
  0
LINE
  5
10873
330
A
100
AcDbEntity
  8
0
  6
Continuous
 62
     7
370
     9
100
AcDbLine
 10
510.426250318241
 20
63.76143832454454
 30
0.0
 11
510.5526421238084
 21
63.88783013011198
 31
0.0
1001
ACAD
1010
0.0
1020
0.0
1030
0.0
  0
LINE
  5
10874
330
A
100
AcDbEntity
  8
0
  6
Continuous
 62
     7
370
     9
100
AcDbLine
 10
508.2330100289336
 20
61.56819803523717
 30
0.0
 11
509.0693561132787
 21
62.40454411958217
 31
0.0
1001
ACAD
1010
0.0
1020
0.0
1030
0.0
  0
LINE
  5
10875
330
A
100
AcDbEntity
  8
0
  6
Continuous
 62
     7
370
     9
100
AcDbLine
 10
506.0188435973134
 20
58.90501879756357
 30
0.0
 11
506.8638705602425
 21
59.75004576049264
 31
0.0
1001
ACAD
1010
0.0
1020
0.0
1030
0.0
  0
LINE
  5
10876
330
A
100
AcDbEntity
  8
0
  6
Continuous
 62
     7
370
     9
100
AcDbLine
 10
510.5928329686071
 20
63.47900816885726
 30
0.0
 11
511.001654929862
 21
63.8878301301122
 31
0.0
1001
ACAD
1010
0.0
1020
0.0
1030
0.0
  0
LINE
  5
10877
330
A
100
AcDbEntity
  8
0
  6
Continuous
 62
     7
370
     9
100
AcDbLine
 10
508.5012615758499
 20
61.3874367761
 30
0.0
 11
509.314613828561
 21
62.20078902881119
 31
0.0
1001
ACAD
1010
0.0
1020
0.0
1030
0.0
  0
LINE
  5
10878
330
A
100
AcDbEntity
  8
0
  6
Continuous
 62
     7
370
     9
100
AcDbLine
 10
506.2127431399294
 20
58.64990553412622
 30
0.0
 11
507.0294696019566
 21
59.46663199615341
 31
0.0
1001
ACAD
1010
0.0
1020
0.0
1030
0.0
  0
LINE
  5
10879
330
A
100
AcDbEntity
  8
0
  6
Continuous
 62
     7
370
     9
100
AcDbLine
 10
510.759415618973
 20
63.19657801316975
 30
0.0
 11
511.4506677359154
 21
63.8878301301122
 31
0.0
1001
ACAD
1010
0.0
1020
0.0
1030
0.0
  0
LINE
  5
1087A
330
A
100
AcDbEntity
  8
0
  6
Continuous
 62
     7
370
     9
100
AcDbLine
 10
508.7061442863664
 20
61.14330668056322
 30
0.0
 11
509.5289919095937
 21
61.96615430379051
 31
0.0
1001
ACAD
1010
0.0
1020
0.0
1030
0.0
  0
LINE
  5
1087B
330
A
100
AcDbEntity
  8
0
  6
Continuous
 62
     7
370
     9
100
AcDbLine
 10
506.4369431435438
 20
58.42509273168707
 30
0.0
 11
507.2536087926125
 21
59.24175838075598
 31
0.0
1001
ACAD
1010
0.0
1020
0.0
1030
0.0
  0
LINE
  5
1087C
330
A
100
AcDbEntity
  8
0
  6
Continuous
 62
     7
370
     9
100
AcDbLine
 10
510.925998269339
 20
62.91414785748248
 30
0.0
 11
511.899680541969
 21
63.88783013011243
 31
0.0
1001
ACAD
1010
0.0
1020
0.0
1030
0.0
  0
LINE
  5
1087D
330
A
100
AcDbEntity
  8
0
  6
Continuous
 62
     7
370
     9
100
AcDbLine
 10
508.8524571318325
 20
60.84060671997576
 30
0.0
 11
509.7130695296278
 21
61.70121911777096
 31
0.0
1001
ACAD
1010
0.0
1020
0.0
1030
0.0
  0
LINE
  5
1087E
330
A
100
AcDbEntity
  8
0
  6
Continuous
 62
     7
370
     9
100
AcDbLine
 10
506.6925925962505
 20
58.2317293783401
 30
0.0
 11
507.5463137083097
 21
59.08545049039935
 31
0.0
1001
ACAD
1010
0.0
1020
0.0
1030
0.0
  0
LINE
  5
1087F
330
A
100
AcDbEntity
  8
0
  6
Continuous
 62
     7
370
     9
100
AcDbLine
 10
511.1990393804826
 20
62.73817616257225
 30
0.0
 11
512.3486933480226
 21
63.8878301301122
 31
0.0
1001
ACAD
1010
0.0
1020
0.0
1030
0.0
  0
LINE
  5
10880
330
A
100
AcDbEntity
  8
0
  6
Continuous
 62
     7
370
     9
100
AcDbLine
 10
508.9292884673632
 20
60.46842524945282
 30
0.0
 11
509.8656977005698
 21
61.40483448265968
 31
0.0
1001
ACAD
1010
0.0
1020
0.0
1030
0.0
  0
LINE
  5
10881
330
A
100
AcDbEntity
  8
0
  6
Continuous
 62
     7
370
     9
100
AcDbLine
 10
506.9829272011022
 20
58.07305117713849
 30
0.0
 11
507.9549379263966
 21
59.04506190243296
 31
0.0
1001
ACAD
1010
0.0
1020
0.0
1030
0.0
  0
LINE
  5
10882
330
A
100
AcDbEntity
  8
0
  6
Continuous
 62
     7
370
     9
100
AcDbLine
 10
511.6480521865359
 20
62.73817616257225
 30
0.0
 11
512.7977061540762
 21
63.88783013011243
 31
0.0
1001
ACAD
1010
0.0
1020
0.0
1030
0.0
  0
LINE
  5
10883
330
A
100
AcDbEntity
  8
0
  6
Continuous
 62
     7
370
     9
100
AcDbLine
 10
508.8891920316959
 20
59.97931600773222
 30
0.0
 11
509.9836407193667
 21
61.07376469540304
 31
0.0
1001
ACAD
1010
0.0
1020
0.0
1030
0.0
  0
LINE
  5
10884
330
A
100
AcDbEntity
  8
0
  6
Continuous
 62
     7
370
     9
100
AcDbLine
 10
507.3144642016261
 20
57.95557537160902
 30
0.0
 11
510.0603813424916
 21
60.70149251247449
 31
0.0
1001
ACAD
1010
0.0
1020
0.0
1030
0.0
  0
LINE
  5
10885
330
A
100
AcDbEntity
  8
0
  6
Continuous
 62
     7
370
     9
100
AcDbLine
 10
512.0970649925896
 20
62.73817616257247
 30
0.0
 11
513.2226314183224
 21
63.86374258830528
 31
0.0
1001
ACAD
1010
0.0
1020
0.0
1030
0.0
  0
LINE
  5
10886
330
A
100
AcDbEntity
  8
0
  6
Continuous
 62
     7
370
     9
100
AcDbLine
 10
511.0297897049813
 20
61.67090087496422
 30
0.0
 11
511.1613001352893
 21
61.80241130527225
 31
0.0
1001
ACAD
1010
0.0
1020
0.0
1030
0.0
  0
LINE
  5
10887
330
A
100
AcDbEntity
  8
0
  6
Continuous
 62
     7
370
     9
100
AcDbLine
 10
507.7003506474325
 20
57.89244901136203
 30
0.0
 11
510.0827725203337
 21
60.27487088426323
 31
0.0
1001
ACAD
1010
0.0
1020
0.0
1030
0.0
  0
LINE
  5
10888
330
A
100
AcDbEntity
  8
0
  6
Continuous
 62
     7
370
     9
100
AcDbLine
 10
512.5460777986429
 20
62.73817616257247
 30
0.0
 11
513.5942329476915
 21
63.7863313116211
 31
0.0
1001
ACAD
1010
0.0
1020
0.0
1030
0.0
  0
LINE
  5
10889
330
A
100
AcDbEntity
  8
0
  6
Continuous
 62
     7
370
     9
100
AcDbLine
 10
511.0297897049813
 20
61.22188806891085
 30
0.0
 11
511.610312941343
 21
61.80241130527247
 31
0.0
1001
ACAD
1010
0.0
1020
0.0
1030
0.0
  0
LINE
  5
1088A
330
A
100
AcDbEntity
  8
0
  6
Continuous
 62
     7
370
     9
100
AcDbLine
 10
508.1721338406305
 20
57.91521939850645
 30
0.0
 11
510.0192669507841
 21
59.76235250866011
 31
0.0
1001
ACAD
1010
0.0
1020
0.0
1030
0.0
  0
LINE
  5
1088B
330
A
100
AcDbEntity
  8
0
  6
Continuous
 62
     7
370
     9
100
AcDbLine
 10
512.9899247274789
 20
62.73301028535479
 30
0.0
 11
513.9253108691323
 21
63.66839642700824
 31
0.0
1001
ACAD
1010
0.0
1020
0.0
1030
0.0
  0
LINE
  5
1088C
330
A
100
AcDbEntity
  8
0
  6
Continuous
 62
     7
370
     9
100
AcDbLine
 10
511.0297897049813
 20
60.77287526285727
 30
0.0
 11
512.0593257473965
 21
61.80241130527247
 31
0.0
1001
ACAD
1010
0.0
1020
0.0
1030
0.0
  0
LINE
  5
1088D
330
A
100
AcDbEntity
  8
0
  6
Continuous
 62
     7
370
     9
100
AcDbLine
 10
508.8674154619575
 20
58.16148821378011
 30
0.0
 11
509.7322629531058
 21
59.02633570492821
 31
0.0
1001
ACAD
1010
0.0
1020
0.0
1030
0.0
  0
LINE
  5
1088E
330
A
100
AcDbEntity
  8
0
  6
Continuous
 62
     7
370
     9
100
AcDbLine
 10
513.3609806575369
 20
62.6550534093592
 30
0.0
 11
514.222956336469
 21
63.51702908829157
 31
0.0
1001
ACAD
1010
0.0
1020
0.0
1030
0.0
  0
LINE
  5
1088F
330
A
100
AcDbEntity
  8
0
  6
Continuous
 62
     7
370
     9
100
AcDbLine
 10
511.0297897049808
 20
60.32386245680346
 30
0.0
 11
512.1794533943943
 21
61.47352614621695
 31
0.0
1001
ACAD
1010
0.0
1020
0.0
1030
0.0
  0
LINE
  5
10890
330
A
100
AcDbEntity
  8
0
  6
Continuous
 62
     7
370
     9
100
AcDbLine
 10
511.0297897049813
 20
59.87484965075032
 30
0.0
 11
512.1794533943943
 21
61.02451334016336
 31
0.0
1001
ACAD
1010
0.0
1020
0.0
1030
0.0
  0
LINE
  5
10891
330
A
100
AcDbEntity
  8
0
  6
Continuous
 62
     7
370
     9
100
AcDbLine
 10
513.6656020399391
 20
62.51066198570811
 30
0.0
 11
514.4910873942976
 21
63.33614734006665
 31
0.0
1001
ACAD
1010
0.0
1020
0.0
1030
0.0
  0
LINE
  5
10892
330
A
100
AcDbEntity
  8
0
  6
Continuous
 62
     7
370
     9
100
AcDbLine
 10
511.0297897049813
 20
59.42583684469695
 30
0.0
 11
512.1794533943943
 21
60.57550053411
 31
0.0
1001
ACAD
1010
0.0
1020
0.0
1030
0.0
  0
LINE
  5
10893
330
A
100
AcDbEntity
  8
0
  6
Continuous
 62
     7
370
     9
100
AcDbLine
 10
513.918713022269
 20
62.31476016198462
 30
0.0
 11
514.7317484679385
 21
63.1277956076542
 31
0.0
1001
ACAD
1010
0.0
1020
0.0
1030
0.0
  0
LINE
  5
10894
330
A
100
AcDbEntity
  8
0
  6
Continuous
 62
     7
370
     9
100
AcDbLine
 10
511.0297897049811
 20
58.97682403864337
 30
0.0
 11
512.1794533943941
 21
60.12648772805642
 31
0.0
1001
ACAD
1010
0.0
1020
0.0
1030
0.0
  0
LINE
  5
10895
330
A
100
AcDbEntity
  8
0
  6
Continuous
 62
     7
370
     9
100
AcDbLine
 10
514.1244973597199
 20
62.07153169338198
 30
0.0
 11
514.9456479145428
 21
62.89268224820489
 31
0.0
1001
ACAD
1010
0.0
1020
0.0
1030
0.0
  0
LINE
  5
10896
330
A
100
AcDbEntity
  8
0
  6
Continuous
 62
     7
370
     9
100
AcDbLine
 10
511.0297897049813
 20
58.52781123259001
 30
0.0
 11
512.1794533943943
 21
59.67747492200306
 31
0.0
1001
ACAD
1010
0.0
1020
0.0
1030
0.0
  0
LINE
  5
10897
330
A
100
AcDbEntity
  8
0
  6
Continuous
 62
     7
370
     9
100
AcDbLine
 10
514.2852491318522
 20
61.78327065946087
 30
0.0
 11
515.1323234679344
 21
62.63034499554305
 31
0.0
1001
ACAD
1010
0.0
1020
0.0
1030
0.0
  0
LINE
  5
10898
330
A
100
AcDbEntity
  8
0
  6
Continuous
 62
     7
370
     9
100
AcDbLine
 10
511.0297897049815
 20
58.07879842653665
 30
0.0
 11
512.1794533943946
 21
59.22846211594969
 31
0.0
1001
ACAD
1010
0.0
1020
0.0
1030
0.0
  0
LINE
  5
10899
330
A
100
AcDbEntity
  8
0
  6
Continuous
 62
     7
370
     9
100
AcDbLine
 10
516.803359343098
 20
63.85236806465309
 30
0.0
 11
516.8388214085571
 21
63.8878301301122
 31
0.0
1001
ACAD
1010
0.0
1020
0.0
1030
0.0
  0
LINE
  5
1089A
330
A
100
AcDbEntity
  8
0
  6
Continuous
 62
     7
370
     9
100
AcDbLine
 10
514.4048166416923
 20
61.45382536324746
 30
0.0
 11
515.2926573006189
 21
62.34166602217396
 31
0.0
1001
ACAD
1010
0.0
1020
0.0
1030
0.0
  0
LINE
  5
1089B
330
A
100
AcDbEntity
  8
0
  6
Continuous
 62
     7
370
     9
100
AcDbLine
 10
511.2878342157921
 20
57.88783013129386
 30
0.0
 11
512.4374881833318
 21
59.0374840988336
 31
0.0
1001
ACAD
1010
0.0
1020
0.0
1030
0.0
  0
LINE
  5
1089C
330
A
100
AcDbEntity
  8
0
  6
Continuous
 62
     7
370
     9
100
AcDbLine
 10
516.9699419934641
 20
63.56993790896559
 30
0.0
 11
517.2878342146105
 21
63.8878301301122
 31
0.0
1001
ACAD
1010
0.0
1020
0.0
1030
0.0
  0
LINE
  5
1089D
330
A
100
AcDbEntity
  8
0
  6
Continuous
 62
     7
370
     9
100
AcDbLine
 10
514.472444688153
 20
61.07244060365474
 30
0.0
 11
515.4273183381357
 21
62.02731425363731
 31
0.0
1001
ACAD
1010
0.0
1020
0.0
1030
0.0
  0
LINE
  5
1089E
330
A
100
AcDbEntity
  8
0
  6
Continuous
 62
     7
370
     9
100
AcDbLine
 10
511.7368470218452
 20
57.88783013129364
 30
0.0
 11
512.8867282946612
 21
59.03771140410959
 31
0.0
1001
ACAD
1010
0.0
1020
0.0
1030
0.0
  0
LINE
  5
1089F
330
A
100
AcDbEntity
  8
0
  6
Continuous
 62
     7
370
     9
100
AcDbLine
 10
517.1365246438299
 20
63.2875077532783
 30
0.0
 11
517.7368470206636
 21
63.88783013011198
 31
0.0
1001
ACAD
1010
0.0
1020
0.0
1030
0.0
  0
LINE
  5
108A0
330
A
100
AcDbEntity
  8
0
  6
Continuous
 62
     7
370
     9
100
AcDbLine
 10
514.4619774827456
 20
60.61296059219398
 30
0.0
 11
515.5328426791552
 21
61.68382578860359
 31
0.0
1001
ACAD
1010
0.0
1020
0.0
1030
0.0
  0
LINE
  5
108A1
330
A
100
AcDbEntity
  8
0
  6
Continuous
 62
     7
370
     9
100
AcDbLine
 10
512.1858598278988
 20
57.88783013129386
 30
0.0
 11
513.4572486687475
 21
59.1592189721423
 31
0.0
1001
ACAD
1010
0.0
1020
0.0
1030
0.0
  0
LINE
  5
108A2
330
A
100
AcDbEntity
  8
0
  6
Continuous
 62
     7
370
     9
100
AcDbLine
 10
517.3031072941962
 20
63.00507759759103
 30
0.0
 11
518.1858598267171
 21
63.88783013011198
 31
0.0
1001
ACAD
1010
0.0
1020
0.0
1030
0.0
  0
LINE
  5
108A3
330
A
100
AcDbEntity
  8
0
  6
Continuous
 62
     7
370
     9
100
AcDbLine
 10
514.2749700079357
 20
59.9769403113305
 30
0.0
 11
515.6035823791958
 21
61.30555268259058
 31
0.0
1001
ACAD
1010
0.0
1020
0.0
1030
0.0
  0
LINE
  5
108A4
330
A
100
AcDbEntity
  8
0
  6
Continuous
 62
     7
370
     9
100
AcDbLine
 10
512.6348726339524
 20
57.88783013129364
 30
0.0
 11
515.6297839246726
 21
60.88274142201408
 31
0.0
1001
ACAD
1010
0.0
1020
0.0
1030
0.0
  0
LINE
  5
108A5
330
A
100
AcDbEntity
  8
0
  6
Continuous
 62
     7
370
     9
100
AcDbLine
 10
517.4465177860934
 20
62.69947528343482
 30
0.0
 11
518.6348726327706
 21
63.88783013011198
 31
0.0
1001
ACAD
1010
0.0
1020
0.0
1030
0.0
  0
LINE
  5
108A6
330
A
100
AcDbEntity
  8
0
  6
Continuous
 62
     7
370
     9
100
AcDbLine
 10
513.0941198991932
 20
57.89806459048077
 30
0.0
 11
515.592356340793
 21
60.39630103208082
 31
0.0
1001
ACAD
1010
0.0
1020
0.0
1030
0.0
  0
LINE
  5
108A7
330
A
100
AcDbEntity
  8
0
  6
Continuous
 62
     7
370
     9
100
AcDbLine
 10
517.1916544935763
 20
61.9955991848642
 30
0.0
 11
518.9304462635209
 21
63.73439095480875
 31
0.0
1001
ACAD
1010
0.0
1020
0.0
1030
0.0
  0
LINE
  5
108A8
330
A
100
AcDbEntity
  8
0
  6
Continuous
 62
     7
370
     9
100
AcDbLine
 10
513.6531178547172
 20
58.00804973995173
 30
0.0
 11
515.4426845625671
 21
59.7976164478016
 31
0.0
1001
ACAD
1010
0.0
1020
0.0
1030
0.0
  0
LINE
  5
108A9
330
A
100
AcDbEntity
  8
0
  6
Continuous
 62
     7
370
     9
100
AcDbLine
 10
516.9367912010593
 20
61.29172308629382
 30
0.0
 11
519.0498080871791
 21
63.40473997241338
 31
0.0
1001
ACAD
1010
0.0
1020
0.0
1030
0.0
  0
LINE
  5
108AA
330
A
100
AcDbEntity
  8
0
  6
Continuous
 62
     7
370
     9
100
AcDbLine
 10
516.6819279085425
 20
60.58784698772342
 30
0.0
 11
519.1691699108373
 21
63.07508899001845
 31
0.0
1001
ACAD
1010
0.0
1020
0.0
1030
0.0
  0
LINE
  5
108AB
330
A
100
AcDbEntity
  8
0
  6
Continuous
 62
     7
370
     9
100
AcDbLine
 10
516.4270646160248
 20
59.88397088915235
 30
0.0
 11
518.3437739667692
 21
61.80068023989679
 31
0.0
1001
ACAD
1010
0.0
1020
0.0
1030
0.0
  0
LINE
  5
108AC
330
A
100
AcDbEntity
  8
0
  6
Continuous
 62
     7
370
     9
100
AcDbLine
 10
518.3908664753362
 20
61.84777274846374
 30
0.0
 11
519.2885317344953
 21
62.74543800762285
 31
0.0
1001
ACAD
1010
0.0
1020
0.0
1030
0.0
  0
LINE
  5
108AD
330
A
100
AcDbEntity
  8
0
  6
Continuous
 62
     7
370
     9
100
AcDbLine
 10
516.172201323508
 20
59.18009479058219
 30
0.0
 11
518.0889106742524
 21
61.09680414132663
 31
0.0
1001
ACAD
1010
0.0
1020
0.0
1030
0.0
  0
LINE
  5
108AE
330
A
100
AcDbEntity
  8
0
  6
Continuous
 62
     7
370
     9
100
AcDbLine
 10
518.5102282989942
 20
61.51812176606836
 30
0.0
 11
519.4078935581533
 21
62.41578702522724
 31
0.0
1001
ACAD
1010
0.0
1020
0.0
1030
0.0
  0
LINE
  5
108AF
330
A
100
AcDbEntity
  8
0
  6
Continuous
 62
     7
370
     9
100
AcDbLine
 10
515.9173380309908
 20
58.47621869201134
 30
0.0
 11
517.8340473817356
 21
60.39292804275601
 31
0.0
1001
ACAD
1010
0.0
1020
0.0
1030
0.0
  0
LINE
  5
108B0
330
A
100
AcDbEntity
  8
0
  6
Continuous
 62
     7
370
     9
100
AcDbLine
 10
518.6295901226523
 20
61.18847078367299
 30
0.0
 11
519.5272553818117
 21
62.08613604283232
 31
0.0
1001
ACAD
1010
0.0
1020
0.0
1030
0.0
  0
LINE
  5
108B1
330
A
100
AcDbEntity
  8
0
  6
Continuous
 62
     7
370
     9
100
AcDbLine
 10
515.7779622763264
 20
57.88783013129364
 30
0.0
 11
517.5791840892186
 21
59.68905194418585
 31
0.0
1001
ACAD
1010
0.0
1020
0.0
1030
0.0
  0
LINE
  5
108B2
330
A
100
AcDbEntity
  8
0
  6
Continuous
 62
     7
370
     9
100
AcDbLine
 10
518.7489519463106
 20
60.85881980127783
 30
0.0
 11
519.6466172054697
 21
61.75648506043694
 31
0.0
1001
ACAD
1010
0.0
1020
0.0
1030
0.0
  0
LINE
  5
108B3
330
A
100
AcDbEntity
  8
0
  6
Continuous
 62
     7
370
     9
100
AcDbLine
 10
516.22697508238
 20
57.88783013129386
 30
0.0
 11
517.3243207967016
 21
58.98517584561523
 31
0.0
1001
ACAD
1010
0.0
1020
0.0
1030
0.0
  0
LINE
  5
108B4
330
A
100
AcDbEntity
  8
0
  6
Continuous
 62
     7
370
     9
100
AcDbLine
 10
518.8683137699686
 20
60.52916881888222
 30
0.0
 11
519.7659790291279
 21
61.42683407804179
 31
0.0
1001
ACAD
1010
0.0
1020
0.0
1030
0.0
  0
LINE
  5
108B5
330
A
100
AcDbEntity
  8
0
  6
Continuous
 62
     7
370
     9
100
AcDbLine
 10
516.736887008873
 20
57.94872925173331
 30
0.0
 11
517.0656411760282
 21
58.27748341888855
 31
0.0
1001
ACAD
1010
0.0
1020
0.0
1030
0.0
  0
LINE
  5
108B6
330
A
100
AcDbEntity
  8
0
  6
Continuous
 62
     7
370
     9
100
AcDbLine
 10
522.6195853569861
 20
63.83142759984639
 30
0.0
 11
522.6759878872521
 21
63.88783013011243
 31
0.0
1001
ACAD
1010
0.0
1020
0.0
1030
0.0
  0
LINE
  5
108B7
330
A
100
AcDbEntity
  8
0
  6
Continuous
 62
     7
370
     9
100
AcDbLine
 10
518.9876755936266
 20
60.19951783648685
 30
0.0
 11
519.8853408527861
 21
61.09718309564641
 31
0.0
1001
ACAD
1010
0.0
1020
0.0
1030
0.0
  0
LINE
  5
108B8
330
A
100
AcDbEntity
  8
0
  6
Continuous
 62
     7
370
     9
100
AcDbLine
 10
519.1070374172848
 20
59.86986685409147
 30
0.0
 11
520.0047026764441
 21
60.76753211325081
 31
0.0
1001
ACAD
1010
0.0
1020
0.0
1030
0.0
  0
LINE
  5
108B9
330
A
100
AcDbEntity
  8
0
  6
Continuous
 62
     7
370
     9
100
AcDbLine
 10
522.7861680073522
 20
63.54899744415888
 30
0.0
 11
523.1250006933055
 21
63.8878301301122
 31
0.0
1001
ACAD
1010
0.0
1020
0.0
1030
0.0
  0
LINE
  5
108BA
330
A
100
AcDbEntity
  8
0
  6
Continuous
 62
     7
370
     9
100
AcDbLine
 10
519.2263992409432
 20
59.54021587169655
 30
0.0
 11
520.1240645001023
 21
60.43788113085565
 31
0.0
1001
ACAD
1010
0.0
1020
0.0
1030
0.0
  0
LINE
  5
108BB
330
A
100
AcDbEntity
  8
0
  6
Continuous
 62
     7
370
     9
100
AcDbLine
 10
522.9527506577182
 20
63.26656728847161
 30
0.0
 11
523.5740134993591
 21
63.88783013011243
 31
0.0
1001
ACAD
1010
0.0
1020
0.0
1030
0.0
  0
LINE
  5
108BC
330
A
100
AcDbEntity
  8
0
  6
Continuous
 62
     7
370
     9
100
AcDbLine
 10
519.3457610646009
 20
59.21056488930094
 30
0.0
 11
520.2434263237603
 21
60.10823014846028
 31
0.0
1001
ACAD
1010
0.0
1020
0.0
1030
0.0
  0
LINE
  5
108BD
330
A
100
AcDbEntity
  8
0
  6
Continuous
 62
     7
370
     9
100
AcDbLine
 10
523.1193333080841
 20
62.9841371327841
 30
0.0
 11
524.0230263054124
 21
63.88783013011243
 31
0.0
1001
ACAD
1010
0.0
1020
0.0
1030
0.0
  0
LINE
  5
108BE
330
A
100
AcDbEntity
  8
0
  6
Continuous
 62
     7
370
     9
100
AcDbLine
 10
519.4651228882594
 20
58.88091390690579
 30
0.0
 11
520.3627881474183
 21
59.7785791660649
 31
0.0
1001
ACAD
1010
0.0
1020
0.0
1030
0.0
  0
LINE
  5
108BF
330
A
100
AcDbEntity
  8
0
  6
Continuous
 62
     7
370
     9
100
AcDbLine
 10
523.2314961666916
 20
62.64728718533797
 30
0.0
 11
524.4720391114656
 21
63.88783013011198
 31
0.0
1001
ACAD
1010
0.0
1020
0.0
1030
0.0
  0
LINE
  5
108C0
330
A
100
AcDbEntity
  8
0
  6
Continuous
 62
     7
370
     9
100
AcDbLine
 10
519.5844847119174
 20
58.55126292451018
 30
0.0
 11
520.4821499710765
 21
59.4489281836693
 31
0.0
1001
ACAD
1010
0.0
1020
0.0
1030
0.0
  0
LINE
  5
108C1
330
A
100
AcDbEntity
  8
0
  6
Continuous
 62
     7
370
     9
100
AcDbLine
 10
522.9766328741748
 20
61.94341108676758
 30
0.0
 11
524.7431711425624
 21
63.70994935515523
 31
0.0
1001
ACAD
1010
0.0
1020
0.0
1030
0.0
  0
LINE
  5
108C2
330
A
100
AcDbEntity
  8
0
  6
Continuous
 62
     7
370
     9
100
AcDbLine
 10
519.7038465355753
 20
58.22161194211481
 30
0.0
 11
520.6015117947347
 21
59.11927720127414
 31
0.0
1001
ACAD
1010
0.0
1020
0.0
1030
0.0
  0
LINE
  5
108C3
330
A
100
AcDbEntity
  8
0
  6
Continuous
 62
     7
370
     9
100
AcDbLine
 10
522.7217695816575
 20
61.23953498819696
 30
0.0
 11
524.8625329662204
 21
63.38029837275986
 31
0.0
1001
ACAD
1010
0.0
1020
0.0
1030
0.0
  0
LINE
  5
108C4
330
A
100
AcDbEntity
  8
0
  6
Continuous
 62
     7
370
     9
100
AcDbLine
 10
519.8232083592338
 20
57.89196095971988
 30
0.0
 11
520.7208736183929
 21
58.78962621887899
 31
0.0
1001
ACAD
1010
0.0
1020
0.0
1030
0.0
  0
LINE
  5
108C5
330
A
100
AcDbEntity
  8
0
  6
Continuous
 62
     7
370
     9
100
AcDbLine
 10
522.4669062891402
 20
60.53565888962634
 30
0.0
 11
524.9818947898784
 21
63.05064739036447
 31
0.0
1001
ACAD
1010
0.0
1020
0.0
1030
0.0
  0
LINE
  5
108C6
330
A
100
AcDbEntity
  8
0
  6
Continuous
 62
     7
370
     9
100
AcDbLine
 10
520.2680903368611
 20
57.88783013129386
 30
0.0
 11
520.8402354420506
 21
58.45997523648339
 31
0.0
1001
ACAD
1010
0.0
1020
0.0
1030
0.0
  0
LINE
  5
108C7
330
A
100
AcDbEntity
  8
0
  6
Continuous
 62
     7
370
     9
100
AcDbLine
 10
524.2035913543775
 20
61.82333114881021
 30
0.0
 11
525.1012566135369
 21
62.72099640796955
 31
0.0
1001
ACAD
1010
0.0
1020
0.0
1030
0.0
  0
LINE
  5
108C8
330
A
100
AcDbEntity
  8
0
  6
Continuous
 62
     7
370
     9
100
AcDbLine
 10
522.2120429966235
 20
59.83178279105619
 30
0.0
 11
524.1287523473681
 21
61.74849214180085
 31
0.0
1001
ACAD
1010
0.0
1020
0.0
1030
0.0
  0
LINE
  5
108C9
330
A
100
AcDbEntity
  8
0
  6
Continuous
 62
     7
370
     9
100
AcDbLine
 10
520.7171031429143
 20
57.88783013129341
 30
0.0
 11
520.9595972657089
 21
58.13032425408801
 31
0.0
1001
ACAD
1010
0.0
1020
0.0
1030
0.0
  0
LINE
  5
108CA
330
A
100
AcDbEntity
  8
0
  6
Continuous
 62
     7
370
     9
100
AcDbLine
 10
524.3229531780357
 20
61.49368016641483
 30
0.0
 11
525.2206184371946
 21
62.39134542557394
 31
0.0
1001
ACAD
1010
0.0
1020
0.0
1030
0.0
  0
LINE
  5
108CB
330
A
100
AcDbEntity
  8
0
  6
Continuous
 62
     7
370
     9
100
AcDbLine
 10
521.9571797041064
 20
59.12790669248579
 30
0.0
 11
523.8738890548511
 21
61.04461604323024
 31
0.0
1001
ACAD
1010
0.0
1020
0.0
1030
0.0
  0
LINE
  5
108CC
330
A
100
AcDbEntity
  8
0
  6
Continuous
 62
     7
370
     9
100
AcDbLine
 10
521.7023164115894
 20
58.42403059391495
 30
0.0
 11
523.6190257623339
 21
60.34073994465962
 31
0.0
1001
ACAD
1010
0.0
1020
0.0
1030
0.0
  0
LINE
  5
108CD
330
A
100
AcDbEntity
  8
0
  6
Continuous
 62
     7
370
     9
100
AcDbLine
 10
527.007413508979
 20
63.72912769130471
 30
0.0
 11
527.1661159477867
 21
63.8878301301122
 31
0.0
1001
ACAD
1010
0.0
1020
0.0
1030
0.0
  0
LINE
  5
108CE
330
A
100
AcDbEntity
  8
0
  6
Continuous
 62
     7
370
     9
100
AcDbLine
 10
524.4423150016936
 20
61.16402918401945
 30
0.0
 11
525.3399802608528
 21
62.06169444317834
 31
0.0
1001
ACAD
1010
0.0
1020
0.0
1030
0.0
  0
LINE
  5
108CF
330
A
100
AcDbEntity
  8
0
  6
Continuous
 62
     7
370
     9
100
AcDbLine
 10
521.6151287550214
 20
57.88783013129364
 30
0.0
 11
523.3641624698172
 21
59.63686384608945
 31
0.0
1001
ACAD
1010
0.0
1020
0.0
1030
0.0
  0
LINE
  5
108D0
330
A
100
AcDbEntity
  8
0
  6
Continuous
 62
     7
370
     9
100
AcDbLine
 10
527.1739961593453
 20
63.44669753561743
 30
0.0
 11
527.6151287538403
 21
63.88783013011243
 31
0.0
1001
ACAD
1010
0.0
1020
0.0
1030
0.0
  0
LINE
  5
108D1
330
A
100
AcDbEntity
  8
0
  6
Continuous
 62
     7
370
     9
100
AcDbLine
 10
524.5616768253519
 20
60.83437820162408
 30
0.0
 11
525.4593420845112
 21
61.73204346078342
 31
0.0
1001
ACAD
1010
0.0
1020
0.0
1030
0.0
  0
LINE
  5
108D2
330
A
100
AcDbEntity
  8
0
  6
Continuous
 62
     7
370
     9
100
AcDbLine
 10
522.064141561075
 20
57.88783013129386
 30
0.0
 11
523.1092991773
 21
58.93298774751883
 31
0.0
1001
ACAD
1010
0.0
1020
0.0
1030
0.0
  0
LINE
  5
108D3
330
A
100
AcDbEntity
  8
0
  6
Continuous
 62
     7
370
     9
100
AcDbLine
 10
527.3387251592078
 20
63.16241372942659
 30
0.0
 11
528.0641415598936
 21
63.88783013011243
 31
0.0
1001
ACAD
1010
0.0
1020
0.0
1030
0.0
  0
LINE
  5
108D4
330
A
100
AcDbEntity
  8
0
  6
Continuous
 62
     7
370
     9
100
AcDbLine
 10
524.6810386490101
 20
60.50472721922893
 30
0.0
 11
525.578703908169
 21
61.40239247838781
 31
0.0
1001
ACAD
1010
0.0
1020
0.0
1030
0.0
  0
LINE
  5
108D5
330
A
100
AcDbEntity
  8
0
  6
Continuous
 62
     7
370
     9
100
AcDbLine
 10
522.6122843338621
 20
57.98696009802734
 30
0.0
 11
522.8312852612141
 21
58.20596102537956
 31
0.0
1001
ACAD
1010
0.0
1020
0.0
1030
0.0
  0
LINE
  5
108D6
330
A
100
AcDbEntity
  8
0
  6
Continuous
 62
     7
370
     9
100
AcDbLine
 10
527.3387251592075
 20
62.71340092337277
 30
0.0
 11
528.513154365947
 21
63.88783013011198
 31
0.0
1001
ACAD
1010
0.0
1020
0.0
1030
0.0
  0
LINE
  5
108D7
330
A
100
AcDbEntity
  8
0
  6
Continuous
 62
     7
370
     9
100
AcDbLine
 10
524.8004004726681
 20
60.17507623683332
 30
0.0
 11
525.6980657318274
 21
61.07274149599288
 31
0.0
1001
ACAD
1010
0.0
1020
0.0
1030
0.0
  0
LINE
  5
108D8
330
A
100
AcDbEntity
  8
0
  6
Continuous
 62
     7
370
     9
100
AcDbLine
 10
524.9197622963261
 20
59.84542525443794
 30
0.0
 11
525.8174275554856
 21
60.74309051359751
 31
0.0
1001
ACAD
1010
0.0
1020
0.0
1030
0.0
  0
LINE
  5
108D9
330
A
100
AcDbEntity
  8
0
  6
Continuous
 62
     7
370
     9
100
AcDbLine
 10
527.3387251592075
 20
62.26438811731942
 30
0.0
 11
528.9621671720006
 21
63.88783013011243
 31
0.0
1001
ACAD
1010
0.0
1020
0.0
1030
0.0
  0
LINE
  5
108DA
330
A
100
AcDbEntity
  8
0
  6
Continuous
 62
     7
370
     9
100
AcDbLine
 10
525.0391241199848
 20
59.51577427204302
 30
0.0
 11
525.9367893791436
 21
60.4134395312019
 31
0.0
1001
ACAD
1010
0.0
1020
0.0
1030
0.0
  0
LINE
  5
108DB
330
A
100
AcDbEntity
  8
0
  6
Continuous
 62
     7
370
     9
100
AcDbLine
 10
527.3387251592075
 20
61.81537531126583
 30
0.0
 11
529.1299426943428
 21
63.6065928464011
 31
0.0
1001
ACAD
1010
0.0
1020
0.0
1030
0.0
  0
LINE
  5
108DC
330
A
100
AcDbEntity
  8
0
  6
Continuous
 62
     7
370
     9
100
AcDbLine
 10
525.1584859436425
 20
59.18612328964741
 30
0.0
 11
526.0561512028018
 21
60.08378854880675
 31
0.0
1001
ACAD
1010
0.0
1020
0.0
1030
0.0
  0
LINE
  5
108DD
330
A
100
AcDbEntity
  8
0
  6
Continuous
 62
     7
370
     9
100
AcDbLine
 10
527.3387251592078
 20
61.36636250521269
 30
0.0
 11
529.2409652758269
 21
63.26860262183186
 31
0.0
1001
ACAD
1010
0.0
1020
0.0
1030
0.0
  0
LINE
  5
108DE
330
A
100
AcDbEntity
  8
0
  6
Continuous
 62
     7
370
     9
100
AcDbLine
 10
525.2778477673005
 20
58.85647230725203
 30
0.0
 11
526.1755130264598
 21
59.75413756641137
 31
0.0
1001
ACAD
1010
0.0
1020
0.0
1030
0.0
  0
LINE
  5
108DF
330
A
100
AcDbEntity
  8
0
  6
Continuous
 62
     7
370
     9
100
AcDbLine
 10
527.3387251592075
 20
60.9173496991591
 30
0.0
 11
529.3519878573111
 21
62.93061239726262
 31
0.0
1001
ACAD
1010
0.0
1020
0.0
1030
0.0
  0
LINE
  5
108E0
330
A
100
AcDbEntity
  8
0
  6
Continuous
 62
     7
370
     9
100
AcDbLine
 10
525.3972095909585
 20
58.52682132485643
 30
0.0
 11
526.2948748501178
 21
59.42448658401599
 31
0.0
1001
ACAD
1010
0.0
1020
0.0
1030
0.0
  0
LINE
  5
108E1
330
A
100
AcDbEntity
  8
0
  6
Continuous
 62
     7
370
     9
100
AcDbLine
 10
528.5944943015406
 20
61.72410603543858
 30
0.0
 11
529.4630104387954
 21
62.59262217269361
 31
0.0
1001
ACAD
1010
0.0
1020
0.0
1030
0.0
  0
LINE
  5
108E2
330
A
100
AcDbEntity
  8
0
  6
Continuous
 62
     7
370
     9
100
AcDbLine
 10
527.3387251592075
 20
60.46833689310552
 30
0.0
 11
528.4883791267479
 21
61.61799086064593
 31
0.0
1001
ACAD
1010
0.0
1020
0.0
1030
0.0
  0
LINE
  5
108E3
330
A
100
AcDbEntity
  8
0
  6
Continuous
 62
     7
370
     9
100
AcDbLine
 10
525.5165714146169
 20
58.1971703424615
 30
0.0
 11
526.414236673776
 21
59.09483560162039
 31
0.0
1001
ACAD
1010
0.0
1020
0.0
1030
0.0
  0
LINE
  5
108E4
330
A
100
AcDbEntity
  8
0
  6
Continuous
 62
     7
370
     9
100
AcDbLine
 10
528.7055168830248
 20
61.38611581086934
 30
0.0
 11
529.5740330202797
 21
62.25463194812414
 31
0.0
1001
ACAD
1010
0.0
1020
0.0
1030
0.0
  0
LINE
  5
108E5
330
A
100
AcDbEntity
  8
0
  6
Continuous
 62
     7
370
     9
100
AcDbLine
 10
527.338725159208
 20
60.01932408705238
 30
0.0
 11
528.4883791267479
 21
61.16897805459235
 31
0.0
1001
ACAD
1010
0.0
1020
0.0
1030
0.0
  0
LINE
  5
108E6
330
A
100
AcDbEntity
  8
0
  6
Continuous
 62
     7
370
     9
100
AcDbLine
 10
525.6562440095028
 20
57.88783013129386
 30
0.0
 11
526.5335984974345
 21
58.76518461922547
 31
0.0
1001
ACAD
1010
0.0
1020
0.0
1030
0.0
  0
LINE
  5
108E7
330
A
100
AcDbEntity
  8
0
  6
Continuous
 62
     7
370
     9
100
AcDbLine
 10
531.5267122676018
 20
63.75829838939285
 30
0.0
 11
531.6562440083211
 21
63.8878301301122
 31
0.0
1001
ACAD
1010
0.0
1020
0.0
1030
0.0
  0
LINE
  5
108E8
330
A
100
AcDbEntity
  8
0
  6
Continuous
 62
     7
370
     9
100
AcDbLine
 10
527.3387251592078
 20
59.57031128099879
 30
0.0
 11
528.4883791267479
 21
60.71996524853898
 31
0.0
1001
ACAD
1010
0.0
1020
0.0
1030
0.0
  0
LINE
  5
108E9
330
A
100
AcDbEntity
  8
0
  6
Continuous
 62
     7
370
     9
100
AcDbLine
 10
528.8165394645093
 20
61.04812558630033
 30
0.0
 11
529.6850556017641
 21
61.91664172355513
 31
0.0
1001
ACAD
1010
0.0
1020
0.0
1030
0.0
  0
LINE
  5
108EA
330
A
100
AcDbEntity
  8
0
  6
Continuous
 62
     7
370
     9
100
AcDbLine
 10
526.1052568155561
 20
57.88783013129386
 30
0.0
 11
526.6529603210922
 21
58.43553363682985
 31
0.0
1001
ACAD
1010
0.0
1020
0.0
1030
0.0
  0
LINE
  5
108EB
330
A
100
AcDbEntity
  8
0
  6
Continuous
 62
     7
370
     9
100
AcDbLine
 10
531.3070749652536
 20
63.08964828099124
 30
0.0
 11
532.1052568143746
 21
63.8878301301122
 31
0.0
1001
ACAD
1010
0.0
1020
0.0
1030
0.0
  0
LINE
  5
108EC
330
A
100
AcDbEntity
  8
0
  6
Continuous
 62
     7
370
     9
100
AcDbLine
 10
527.3387251592078
 20
59.1212984749452
 30
0.0
 11
528.4883791267477
 21
60.27095244248539
 31
0.0
1001
ACAD
1010
0.0
1020
0.0
1030
0.0
  0
LINE
  5
108ED
330
A
100
AcDbEntity
  8
0
  6
Continuous
 62
     7
370
     9
100
AcDbLine
 10
528.9275620459934
 20
60.71013536173109
 30
0.0
 11
529.7960781832482
 21
61.57865149898589
 31
0.0
1001
ACAD
1010
0.0
1020
0.0
1030
0.0
  0
LINE
  5
108EE
330
A
100
AcDbEntity
  8
0
  6
Continuous
 62
     7
370
     9
100
AcDbLine
 10
526.5542696216098
 20
57.8878301312941
 30
0.0
 11
526.7723221447506
 21
58.10588265443493
 31
0.0
1001
ACAD
1010
0.0
1020
0.0
1030
0.0
  0
LINE
  5
108EF
330
A
100
AcDbEntity
  8
0
  6
Continuous
 62
     7
370
     9
100
AcDbLine
 10
531.0874376629048
 20
62.42099817258917
 30
0.0
 11
532.5542696204281
 21
63.88783013011243
 31
0.0
1001
ACAD
1010
0.0
1020
0.0
1030
0.0
  0
LINE
  5
108F0
330
A
100
AcDbEntity
  8
0
  6
Continuous
 62
     7
370
     9
100
AcDbLine
 10
527.3387251592075
 20
58.67228566889185
 30
0.0
 11
528.4883791267477
 21
59.82193963643203
 31
0.0
1001
ACAD
1010
0.0
1020
0.0
1030
0.0
  0
LINE
  5
108F1
330
A
100
AcDbEntity
  8
0
  6
Continuous
 62
     7
370
     9
100
AcDbLine
 10
529.0385846274776
 20
60.37214513716185
 30
0.0
 11
529.9071007647324
 21
61.24066127441665
 31
0.0
1001
ACAD
1010
0.0
1020
0.0
1030
0.0
  0
LINE
  5
108F2
330
A
100
AcDbEntity
  8
0
  6
Continuous
 62
     7
370
     9
100
AcDbLine
 10
527.3387251592073
 20
58.22327286283826
 30
0.0
 11
528.4883791267475
 21
59.37292683037822
 31
0.0
1001
ACAD
1010
0.0
1020
0.0
1030
0.0
  0
LINE
  5
108F3
330
A
100
AcDbEntity
  8
0
  6
Continuous
 62
     7
370
     9
100
AcDbLine
 10
530.8678003605562
 20
61.75234806418711
 30
0.0
 11
533.0032824264815
 21
63.88783013011243
 31
0.0
1001
ACAD
1010
0.0
1020
0.0
1030
0.0
  0
LINE
  5
108F4
330
A
100
AcDbEntity
  8
0
  6
Continuous
 62
     7
370
     9
100
AcDbLine
 10
529.1496072089619
 20
60.03415491259284
 30
0.0
 11
530.0181233462167
 21
60.90267104984741
 31
0.0
1001
ACAD
1010
0.0
1020
0.0
1030
0.0
  0
LINE
  5
108F5
330
A
100
AcDbEntity
  8
0
  6
Continuous
 62
     7
370
     9
100
AcDbLine
 10
527.4522952337165
 20
57.88783013129364
 30
0.0
 11
528.4883791267475
 21
58.92391402432463
 31
0.0
1001
ACAD
1010
0.0
1020
0.0
1030
0.0
  0
LINE
  5
108F6
330
A
100
AcDbEntity
  8
0
  6
Continuous
 62
     7
370
     9
100
AcDbLine
 10
530.6481630582079
 20
61.08369795578505
 30
0.0
 11
533.0439991687422
 21
63.47953406631927
 31
0.0
1001
ACAD
1010
0.0
1020
0.0
1030
0.0
  0
LINE
  5
108F7
330
A
100
AcDbEntity
  8
0
  6
Continuous
 62
     7
370
     9
100
AcDbLine
 10
529.2606297904463
 20
59.69616468802337
 30
0.0
 11
530.1291459277008
 21
60.56468082527818
 31
0.0
1001
ACAD
1010
0.0
1020
0.0
1030
0.0
  0
LINE
  5
108F8
330
A
100
AcDbEntity
  8
0
  6
Continuous
 62
     7
370
     9
100
AcDbLine
 10
527.9069970320064
 20
57.89351912353026
 30
0.0
 11
528.4826901345111
 21
58.46921222603464
 31
0.0
1001
ACAD
1010
0.0
1020
0.0
1030
0.0
  0
LINE
  5
108F9
330
A
100
AcDbEntity
  8
0
  6
Continuous
 62
     7
370
     9
100
AcDbLine
 10
530.4285257558596
 20
60.41504784738345
 30
0.0
 11
533.0439991687419
 21
63.03052126026568
 31
0.0
1001
ACAD
1010
0.0
1020
0.0
1030
0.0
  0
LINE
  5
108FA
330
A
100
AcDbEntity
  8
0
  6
Continuous
 62
     7
370
     9
100
AcDbLine
 10
529.3716523719308
 20
59.35817446345459
 30
0.0
 11
530.2401685091854
 21
60.22669060070916
 31
0.0
1001
ACAD
1010
0.0
1020
0.0
1030
0.0
  0
LINE
  5
108FB
330
A
100
AcDbEntity
  8
0
  6
Continuous
 62
     7
370
     9
100
AcDbLine
 10
529.4826749534147
 20
59.02018423888512
 30
0.0
 11
533.0439991687419
 21
62.58150845421233
 31
0.0
1001
ACAD
1010
0.0
1020
0.0
1030
0.0
  0
LINE
  5
108FC
330
A
100
AcDbEntity
  8
0
  6
Continuous
 62
     7
370
     9
100
AcDbLine
 10
529.5936975348988
 20
58.68219401431588
 30
0.0
 11
531.707447025213
 21
60.79594350463003
 31
0.0
1001
ACAD
1010
0.0
1020
0.0
1030
0.0
  0
LINE
  5
108FD
330
A
100
AcDbEntity
  8
0
  6
Continuous
 62
     7
370
     9
100
AcDbLine
 10
531.8943452012019
 20
60.982841680619
 30
0.0
 11
533.0439991687417
 21
62.13249564815874
 31
0.0
1001
ACAD
1010
0.0
1020
0.0
1030
0.0
  0
LINE
  5
108FE
330
A
100
AcDbEntity
  8
0
  6
Continuous
 62
     7
370
     9
100
AcDbLine
 10
529.712163135046
 20
58.35164680840944
 30
0.0
 11
531.4878097228647
 21
60.12729339622819
 31
0.0
1001
ACAD
1010
0.0
1020
0.0
1030
0.0
  0
LINE
  5
108FF
330
A
100
AcDbEntity
  8
0
  6
Continuous
 62
     7
370
     9
100
AcDbLine
 10
531.8943452012022
 20
60.53382887456564
 30
0.0
 11
533.0439991687422
 21
61.6834828421056
 31
0.0
1001
ACAD
1010
0.0
1020
0.0
1030
0.0
  0
LINE
  5
10900
330
A
100
AcDbEntity
  8
0
  6
Continuous
 62
     7
370
     9
100
AcDbLine
 10
529.9231984617851
 20
58.11366932909504
 30
0.0
 11
531.2681724205167
 21
59.45864328782659
 31
0.0
1001
ACAD
1010
0.0
1020
0.0
1030
0.0
  0
LINE
  5
10901
330
A
100
AcDbEntity
  8
0
  6
Continuous
 62
     7
370
     9
100
AcDbLine
 10
531.8943452012022
 20
60.08481606851205
 30
0.0
 11
533.0439991687422
 21
61.23447003605201
 31
0.0
1001
ACAD
1010
0.0
1020
0.0
1030
0.0
  0
LINE
  5
10902
330
A
100
AcDbEntity
  8
0
  6
Continuous
 62
     7
370
     9
100
AcDbLine
 10
530.2552719567909
 20
57.9967300180474
 30
0.0
 11
531.048535118168
 21
58.78999317942453
 31
0.0
1001
ACAD
1010
0.0
1020
0.0
1030
0.0
  0
LINE
  5
10903
330
A
100
AcDbEntity
  8
0
  6
Continuous
 62
     7
370
     9
100
AcDbLine
 10
531.8943452012022
 20
59.63580326245869
 30
0.0
 11
533.0439991687419
 21
60.78545722999843
 31
0.0
1001
ACAD
1010
0.0
1020
0.0
1030
0.0
  0
LINE
  5
10904
330
A
100
AcDbEntity
  8
0
  6
Continuous
 62
     7
370
     9
100
AcDbLine
 10
531.8943452012019
 20
59.1867904564051
 30
0.0
 11
533.0439991687419
 21
60.33644442394484
 31
0.0
1001
ACAD
1010
0.0
1020
0.0
1030
0.0
  0
LINE
  5
10905
330
A
100
AcDbEntity
  8
0
  6
Continuous
 62
     7
370
     9
100
AcDbLine
 10
531.8943452012019
 20
58.73777765035175
 30
0.0
 11
533.0439991687419
 21
59.8874316178917
 31
0.0
1001
ACAD
1010
0.0
1020
0.0
1030
0.0
  0
LINE
  5
10906
330
A
100
AcDbEntity
  8
0
  6
Continuous
 62
     7
370
     9
100
AcDbLine
 10
531.8943452012022
 20
58.28876484429838
 30
0.0
 11
533.0439991687422
 21
59.43841881183812
 31
0.0
1001
ACAD
1010
0.0
1020
0.0
1030
0.0
  0
LINE
  5
10907
330
A
100
AcDbEntity
  8
0
  6
Continuous
 62
     7
370
     9
100
AcDbLine
 10
531.942423294251
 20
57.88783013129364
 30
0.0
 11
533.0439991687419
 21
58.98940600578453
 31
0.0
1001
ACAD
1010
0.0
1020
0.0
1030
0.0
  0
LINE
  5
10908
330
A
100
AcDbEntity
  8
0
  6
Continuous
 62
     7
370
     9
100
AcDbLine
 10
532.3916284129611
 20
57.88802244395037
 30
0.0
 11
533.0438068560854
 21
58.54020088707466
 31
0.0
1001
ACAD
1010
0.0
1020
0.0
1030
0.0
  0
LINE
  5
10909
330
A
100
AcDbEntity
  8
0
  6
Continuous
 62
     7
370
     9
100
AcDbLine
 10
500.2728884575385
 20
57.88783013129386
 30
0.0
 11
500.2728884575385
 21
61.80241130527247
 31
0.0
  0
LINE
  5
1090A
330
A
100
AcDbEntity
  8
0
  6
Continuous
 62
     7
370
     9
100
AcDbLine
 10
499.5948007921101
 20
63.88783013011243
 30
0.0
 11
502.1076500646822
 21
63.88783013011243
 31
0.0
  0
LINE
  5
1090B
330
A
100
AcDbEntity
  8
0
  6
Continuous
 62
     7
370
     9
100
AcDbLine
 10
526.9138078073792
 20
63.88783013011243
 30
0.0
 11
529.0375622437331
 21
63.88783013011243
 31
0.0
  0
LINE
  5
1090C
330
A
100
AcDbEntity
  8
0
  6
Continuous
 62
     7
370
     9
100
AcDbLine
 10
531.5692606822994
 20
63.88783013011243
 30
0.0
 11
533.0439991687419
 21
63.88783013011243
 31
0.0
  0
LINE
  5
1090D
330
A
100
AcDbEntity
  8
0
  6
Continuous
 62
     7
370
     9
100
AcDbLine
 10
500.2728884575385
 20
62.73817616257247
 30
0.0
 11
502.1076500646822
 21
62.73817616257247
 31
0.0
  0
LINE
  5
1090E
330
A
100
AcDbEntity
  8
0
  6
Continuous
 62
     7
370
     9
100
AcDbLine
 10
500.2728884575385
 20
61.80241130527247
 30
0.0
 11
501.4225521469516
 21
61.80241130527247
 31
0.0
  0
LINE
  5
1090F
330
A
100
AcDbEntity
  8
0
  6
Continuous
 62
     7
370
     9
100
AcDbLine
 10
501.4225521469516
 20
61.80241130527247
 30
0.0
 11
501.4225521469516
 21
59.03748409883383
 31
0.0
  0
LINE
  5
10910
330
A
100
AcDbEntity
  8
0
  6
Continuous
 62
     7
370
     9
100
AcDbLine
 10
500.2728884575385
 20
57.88783013129386
 30
0.0
 11
502.1035067776859
 21
57.88783013129386
 31
0.0
  0
LINE
  5
10911
330
A
100
AcDbEntity
  8
0
  6
Continuous
 62
     7
370
     9
100
AcDbLine
 10
515.7042910953605
 20
57.88783013129386
 30
0.0
 11
516.4581368269676
 21
57.88783013129386
 31
0.0
  0
ARC
  5
10912
330
A
100
AcDbEntity
  8
0
  6
Continuous
 62
     7
370
     9
100
AcDbCircle
 10
516.4581368269676
 20
58.55623360079381
 30
0.0
 40
0.6684034695
100
AcDbArc
 50
270.0
 51
340.0954155416548
  0
LINE
  5
10913
330
A
100
AcDbEntity
  8
0
  6
Continuous
 62
     7
370
     9
100
AcDbLine
 10
519.8247040720948
 20
57.88783013129386
 30
0.0
 11
521.0474008588085
 21
57.88783013129386
 31
0.0
  0
LINE
  5
10914
330
A
100
AcDbEntity
  8
0
  6
Continuous
 62
     7
370
     9
100
AcDbLine
 10
527.3387251592075
 20
57.88783013129386
 30
0.0
 11
527.8199756572475
 21
57.88783013129386
 31
0.0
  0
LINE
  5
10915
330
A
100
AcDbEntity
  8
0
  6
Continuous
 62
     7
370
     9
100
AcDbLine
 10
531.8943452012019
 20
57.88783013129386
 30
0.0
 11
532.3755956992417
 21
57.88783013129386
 31
0.0
  0
LINE
  5
10916
330
A
100
AcDbEntity
  8
0
  6
Continuous
 62
     7
370
     9
100
AcDbLine
 10
501.4225521469516
 20
59.03748409883383
 30
0.0
 11
502.1035067776859
 21
59.03748409883405
 31
0.0
  0
LINE
  5
10917
330
A
100
AcDbEntity
  8
0
  6
Continuous
 62
     7
370
     9
100
AcDbLine
 10
515.7042910953605
 20
57.88783013129386
 30
0.0
 11
517.4605308112554
 21
62.73817616257225
 31
0.0
  0
LINE
  5
10918
330
A
100
AcDbEntity
  8
0
  6
Continuous
 62
     7
370
     9
100
AcDbLine
 10
517.0866104673486
 20
58.32867244113367
 30
0.0
 11
518.3758459770845
 21
61.88925604565929
 31
0.0
  0
LINE
  5
10919
330
A
100
AcDbEntity
  8
0
  6
Continuous
 62
     7
370
     9
100
AcDbLine
 10
521.0474008588085
 20
57.88783013129386
 30
0.0
 11
518.8748881709839
 21
63.88783013011243
 31
0.0
  0
LINE
  5
1091A
330
A
100
AcDbEntity
  8
0
  6
Continuous
 62
     7
370
     9
100
AcDbLine
 10
519.8247040720948
 20
57.88783013129386
 30
0.0
 11
518.3758459770847
 21
61.88925604565929
 31
0.0
  0
LINE
  5
1091B
330
A
100
AcDbEntity
  8
0
  6
Continuous
 62
     7
370
     9
100
AcDbLine
 10
500.2728884575385
 20
62.73817616257247
 30
0.0
 11
499.5948007921101
 21
63.88783013011243
 31
0.0
  0
LINE
  5
1091C
330
A
100
AcDbEntity
  8
0
  6
Continuous
 62
     7
370
     9
100
AcDbLine
 10
517.4605308112554
 20
62.73817616257247
 30
0.0
 11
516.7824431458268
 21
63.88783013011243
 31
0.0
  0
LINE
  5
1091D
330
A
100
AcDbEntity
  8
0
  6
Continuous
 62
     7
370
     9
100
AcDbLine
 10
527.3387251592075
 20
57.88783013129386
 30
0.0
 11
527.3387251592075
 21
63.16741012498323
 31
0.0
  0
LINE
  5
1091E
330
A
100
AcDbEntity
  8
0
  6
Continuous
 62
     7
370
     9
100
AcDbLine
 10
528.4883791267475
 20
58.55623360079381
 30
0.0
 11
528.4883791267479
 21
62.0471564570646
 31
0.0
  0
ARC
  5
1091F
330
A
100
AcDbEntity
  8
0
  6
Continuous
 62
     7
370
     9
100
AcDbCircle
 10
527.8199756572475
 20
58.55623360079381
 30
0.0
 40
0.6684034695
100
AcDbArc
 50
270.0
 51
0.0
  0
LINE
  5
10920
330
A
100
AcDbEntity
  8
0
  6
Continuous
 62
     7
370
     9
100
AcDbLine
 10
533.0439991687419
 20
63.88783013011243
 30
0.0
 11
533.0439991687419
 21
58.55623360079381
 31
0.0
  0
ARC
  5
10921
330
A
100
AcDbEntity
  8
0
  6
Continuous
 62
     7
370
     9
100
AcDbCircle
 10
532.3755956992417
 20
58.55623360079381
 30
0.0
 40
0.6684034695
100
AcDbArc
 50
270.0
 51
0.0
  0
LINE
  5
10922
330
A
100
AcDbEntity
  8
0
  6
Continuous
 62
     7
370
     9
100
AcDbLine
 10
531.8943452012019
 20
61.36492465809897
 30
0.0
 11
531.8943452012019
 21
57.88783013129386
 31
0.0
  0
LINE
  5
10923
330
A
100
AcDbEntity
  8
0
  6
Continuous
 62
     7
370
     9
100
AcDbLine
 10
529.0375622437331
 20
63.88783013011243
 30
0.0
 11
530.3034114630166
 21
60.03415769540197
 31
0.0
  0
LINE
  5
10924
330
A
100
AcDbEntity
  8
0
  6
Continuous
 62
     7
370
     9
100
AcDbLine
 10
528.4883791267477
 20
62.0471564570646
 30
0.0
 11
529.6683894809596
 21
58.45480651093613
 31
0.0
  0
LINE
  5
10925
330
A
100
AcDbEntity
  8
0
  6
Continuous
 62
     7
370
     9
100
AcDbLine
 10
531.5692606822994
 20
63.88783013011243
 30
0.0
 11
530.3034114630163
 21
60.03415769540197
 31
0.0
  0
LINE
  5
10926
330
A
100
AcDbEntity
  8
0
  6
Continuous
 62
     7
370
     9
100
AcDbLine
 10
531.8943452012018
 20
61.36492465809874
 30
0.0
 11
530.9384334450733
 21
58.45480651093613
 31
0.0
  0
ARC
  5
10927
330
A
100
AcDbEntity
  8
0
  6
Continuous
 62
     7
370
     9
100
AcDbCircle
 10
530.3034114630166
 20
58.66339769086471
 30
0.0
 40
0.6684034695
100
AcDbArc
 50
198.1842490661069
 51
341.8157509338931
  0
LINE
  5
10928
330
A
100
AcDbEntity
  8
0
  6
Continuous
 62
     7
370
     9
100
AcDbLine
 10
527.3387251592075
 20
63.16741012498323
 30
0.0
 11
526.9138078073792
 21
63.88783013011243
 31
0.0
  0
ARC
  5
10929
330
A
100
AcDbEntity
  8
0
  6
Continuous
 62
     7
370
     9
100
AcDbCircle
 10
501.583902292361
 20
60.89114132223244
 30
0.0
 40
3.288991111325908
100
AcDbArc
 50
327.604223113216
 51
31.6684491765753
  0
ARC
  5
1092A
330
A
100
AcDbEntity
  8
0
  6
Continuous
 62
     7
370
     9
100
AcDbCircle
 10
501.583902292361
 20
60.89114132223244
 30
0.0
 40
2.139337143785908
100
AcDbArc
 50
327.604223113216
 51
31.6684491765753
  0
ARC
  5
1092B
330
A
100
AcDbEntity
  8
0
  6
Continuous
 62
     7
370
     9
100
AcDbCircle
 10
502.1035067776859
 20
60.56144400929383
 30
0.0
 40
2.673613877999999
100
AcDbArc
 50
270.0
 51
327.604223113216
  0
ARC
  5
1092C
330
A
100
AcDbEntity
  8
0
  6
Continuous
 62
     7
370
     9
100
AcDbCircle
 10
502.1035067776859
 20
60.56144400929383
 30
0.0
 40
1.52395991046
100
AcDbArc
 50
270.0
 51
327.604223113216
  0
ARC
  5
1092D
330
A
100
AcDbEntity
  8
0
  6
Continuous
 62
     7
370
     9
100
AcDbCircle
 10
502.1076500646822
 20
61.21421625211246
 30
0.0
 40
2.673613877999999
100
AcDbArc
 50
31.6684491765753
 51
90.0
  0
ARC
  5
1092E
330
A
100
AcDbEntity
  8
0
  6
Continuous
 62
     7
370
     9
100
AcDbCircle
 10
502.1076500646822
 20
61.21421625211246
 30
0.0
 40
1.52395991046
100
AcDbArc
 50
31.6684491765753
 51
90.0
  0
LINE
  5
1092F
330
A
100
AcDbEntity
  8
0
  6
Continuous
 62
     7
370
     9
100
AcDbLine
 10
511.0297897049813
 20
57.88783013129386
 30
0.0
 11
511.0297897049813
 21
61.80241130527247
 31
0.0
  0
LINE
  5
10930
330
A
100
AcDbEntity
  8
0
  6
Continuous
 62
     7
370
     9
100
AcDbLine
 10
510.3517020395529
 20
63.88783013011243
 30
0.0
 11
512.8645513121252
 21
63.88783013011243
 31
0.0
  0
LINE
  5
10931
330
A
100
AcDbEntity
  8
0
  6
Continuous
 62
     7
370
     9
100
AcDbLine
 10
511.0297897049813
 20
62.73817616257247
 30
0.0
 11
512.8645513121252
 21
62.73817616257247
 31
0.0
  0
LINE
  5
10932
330
A
100
AcDbEntity
  8
0
  6
Continuous
 62
     7
370
     9
100
AcDbLine
 10
511.0297897049813
 20
61.80241130527247
 30
0.0
 11
512.1794533943943
 21
61.80241130527247
 31
0.0
  0
LINE
  5
10933
330
A
100
AcDbEntity
  8
0
  6
Continuous
 62
     7
370
     9
100
AcDbLine
 10
512.1794533943943
 20
61.80241130527247
 30
0.0
 11
512.1794533943943
 21
59.03748409883383
 31
0.0
  0
LINE
  5
10934
330
A
100
AcDbEntity
  8
0
  6
Continuous
 62
     7
370
     9
100
AcDbLine
 10
511.0297897049813
 20
57.88783013129386
 30
0.0
 11
512.8604080251286
 21
57.88783013129386
 31
0.0
  0
LINE
  5
10935
330
A
100
AcDbEntity
  8
0
  6
Continuous
 62
     7
370
     9
100
AcDbLine
 10
512.1794533943943
 20
59.03748409883383
 30
0.0
 11
512.8604080251286
 21
59.03748409883405
 31
0.0
  0
LINE
  5
10936
330
A
100
AcDbEntity
  8
0
  6
Continuous
 62
     7
370
     9
100
AcDbLine
 10
511.0297897049813
 20
62.73817616257247
 30
0.0
 11
510.3517020395529
 21
63.88783013011243
 31
0.0
  0
ARC
  5
10937
330
A
100
AcDbEntity
  8
0
  6
Continuous
 62
     7
370
     9
100
AcDbCircle
 10
512.3408035398036
 20
60.89114132223244
 30
0.0
 40
3.288991111325908
100
AcDbArc
 50
327.604223113216
 51
31.6684491765753
  0
ARC
  5
10938
330
A
100
AcDbEntity
  8
0
  6
Continuous
 62
     7
370
     9
100
AcDbCircle
 10
512.3408035398036
 20
60.89114132223244
 30
0.0
 40
2.139337143785908
100
AcDbArc
 50
327.604223113216
 51
31.6684491765753
  0
ARC
  5
10939
330
A
100
AcDbEntity
  8
0
  6
Continuous
 62
     7
370
     9
100
AcDbCircle
 10
512.8604080251286
 20
60.56144400929383
 30
0.0
 40
2.673613877999999
100
AcDbArc
 50
270.0
 51
327.604223113216
  0
ARC
  5
1093A
330
A
100
AcDbEntity
  8
0
  6
Continuous
 62
     7
370
     9
100
AcDbCircle
 10
512.8604080251286
 20
60.56144400929383
 30
0.0
 40
1.52395991046
100
AcDbArc
 50
270.0
 51
327.604223113216
  0
ARC
  5
1093B
330
A
100
AcDbEntity
  8
0
  6
Continuous
 62
     7
370
     9
100
AcDbCircle
 10
512.8645513121252
 20
61.21421625211246
 30
0.0
 40
2.673613877999999
100
AcDbArc
 50
31.6684491765753
 51
90.0
  0
ARC
  5
1093C
330
A
100
AcDbEntity
  8
0
  6
Continuous
 62
     7
370
     9
100
AcDbCircle
 10
512.8645513121252
 20
61.21421625211246
 30
0.0
 40
1.52395991046
100
AcDbArc
 50
31.6684491765753
 51
90.0
  0
LINE
  5
1093D
330
A
100
AcDbEntity
  8
0
  6
Continuous
 62
     7
370
     9
100
AcDbLine
 10
518.8748881709839
 20
63.88783013011243
 30
0.0
 11
516.782443145827
 21
63.88783013011243
 31
0.0
  0
LINE
  5
1093E
330
A
100
AcDbEntity
  8
0
  6
Continuous
 62
     7
370
     9
100
AcDbLine
 10
521.5081660268406
 20
57.88783013129386
 30
0.0
 11
522.2620117584474
 21
57.88783013129386
 31
0.0
  0
ARC
  5
1093F
330
A
100
AcDbEntity
  8
0
  6
Continuous
 62
     7
370
     9
100
AcDbCircle
 10
522.2620117584474
 20
58.55623360079381
 30
0.0
 40
0.6684034695
100
AcDbArc
 50
270.0
 51
340.0954155416548
  0
LINE
  5
10940
330
A
100
AcDbEntity
  8
0
  6
Continuous
 62
     7
370
     9
100
AcDbLine
 10
525.6285790035749
 20
57.88783013129386
 30
0.0
 11
526.8512757902885
 21
57.88783013129386
 31
0.0
  0
LINE
  5
10941
330
A
100
AcDbEntity
  8
0
  6
Continuous
 62
     7
370
     9
100
AcDbLine
 10
521.5081660268406
 20
57.88783013129386
 30
0.0
 11
523.2644057427355
 21
62.73817616257225
 31
0.0
  0
LINE
  5
10942
330
A
100
AcDbEntity
  8
0
  6
Continuous
 62
     7
370
     9
100
AcDbLine
 10
522.8904853988288
 20
58.32867244113367
 30
0.0
 11
524.1797209085648
 21
61.88925604565929
 31
0.0
  0
LINE
  5
10943
330
A
100
AcDbEntity
  8
0
  6
Continuous
 62
     7
370
     9
100
AcDbLine
 10
526.8512757902885
 20
57.88783013129386
 30
0.0
 11
524.6787631024638
 21
63.88783013011243
 31
0.0
  0
LINE
  5
10944
330
A
100
AcDbEntity
  8
0
  6
Continuous
 62
     7
370
     9
100
AcDbLine
 10
525.6285790035749
 20
57.88783013129386
 30
0.0
 11
524.1797209085648
 21
61.88925604565929
 31
0.0
  0
LINE
  5
10945
330
A
100
AcDbEntity
  8
0
  6
Continuous
 62
     7
370
     9
100
AcDbLine
 10
523.2644057427355
 20
62.73817616257247
 30
0.0
 11
522.5863180773069
 21
63.88783013011243
 31
0.0
  0
LINE
  5
10946
330
A
100
AcDbEntity
  8
0
  6
Continuous
 62
     7
370
     9
100
AcDbLine
 10
524.6787631024638
 20
63.88783013011243
 30
0.0
 11
522.5863180773071
 21
63.88783013011243
 31
0.0
  0
ELLIPSE
  5
10947
330
A
100
AcDbEntity
  8
0
  6
Continuous
 62
     7
370
     9
100
AcDbEllipse
 10
507.8379175886139
 20
60.34755489905387
 30
0.0
 11
0.0
 21
-2.459724767760012
 31
0.0
210
0.0
220
0.0
230
1.0
 40
0.9130434782608746
 41
0.0
 42
6.283185307179586
  0
SPLINE
  5
10948
330
A
100
AcDbEntity
  8
0
  6
Continuous
 62
     7
370
     9
100
AcDbSpline
210
0.0
220
0.0
230
1.0
 70
    11
 71
     3
 72
    38
 73
    34
 74
     0
 42
0.0000000001
 43
0.0000000001
 40
0.0
 40
0.0
 40
0.0
 40
0.0
 40
0.3937162255416505
 40
0.3937162255416505
 40
0.787432451083301
 40
0.787432451083301
 40
1.181148676624951
 40
1.181148676624951
 40
1.574864902166601
 40
1.574864902166601
 40
1.968581127708252
 40
1.968581127708252
 40
2.362297353249902
 40
2.362297353249902
 40
2.756013578791553
 40
2.756013578791553
 40
3.149729804333204
 40
3.149729804333204
 40
3.543446029874854
 40
3.543446029874854
 40
3.937162255416505
 40
3.937162255416505
 40
4.330878480958156
 40
4.330878480958156
 40
4.724594706499806
 40
4.724594706499806
 40
5.118310932041457
 40
5.118310932041457
 40
5.512027157583108
 40
5.512027157583108
 40
5.905743383124758
 40
5.905743383124758
 40
6.283185307179586
 40
6.283185307179586
 40
6.283185307179586
 40
6.283185307179586
 10
507.8379175886139
 20
59.03748409883405
 30
0.0
 10
507.9674096525131
 20
59.03748409883383
 30
0.0
 10
508.0973066534824
 20
59.06510681924487
 30
0.0
 10
508.3494431915124
 20
59.1798209193048
 30
0.0
 10
508.4716819836365
 20
59.26766452579158
 30
0.0
 10
508.6855565969126
 20
59.50286313172114
 30
0.0
 10
508.7765261684312
 20
59.65035573941486
 30
0.0
 10
508.9013428291004
 20
59.98325787534259
 30
0.0
 10
508.9347760475177
 20
60.16824186608028
 30
0.0
 10
508.9334011985349
 20
60.53834160242786
 30
0.0
 10
508.8985973438334
 20
60.722905048141
 30
0.0
 10
508.7714606785839
 20
61.05429500852551
 30
0.0
 10
508.6795503874971
 20
61.20070229546832
 30
0.0
 10
508.4643873358709
 20
61.43349814084377
 30
0.0
 10
508.3417989075374
 20
61.52004085344287
 30
0.0
 10
508.0893067074398
 20
61.63228705349593
 30
0.0
 10
507.9593798091566
 20
61.65874398691949
 30
0.0
 10
507.7003977057688
 20
61.65643585704538
 30
0.0
 10
507.5705330937603
 20
61.62764439516559
 30
0.0
 10
507.3187656526306
 20
61.51045826839686
 30
0.0
 10
507.1968872717827
 20
61.42131333719226
 30
0.0
 10
506.9843242490785
 20
61.18372141720397
 30
0.0
 10
506.8943073291397
 20
61.03515325976218
 30
0.0
 10
506.7718274197245
 20
60.70076571599225
 30
0.0
 10
506.7397696192728
 20
60.51537797822629
 30
0.0
 10
506.7438939737317
 20
60.14531185061105
 30
0.0
 10
506.7800634899949
 20
59.96118567087297
 30
0.0
 10
506.9095031372985
 20
59.63133437501619
 30
0.0
 10
507.0023421374848
 20
59.48602197485001
 30
0.0
 10
507.2187705207913
 20
59.25563794779077
 30
0.0
 10
507.3416979433966
 20
59.17039552610095
 30
0.0
 10
507.5893071943475
 20
59.06288193585282
 30
0.0
 10
507.7137780927603
 20
59.03748409883383
 30
0.0
 10
507.8379175886139
 20
59.03748409883405
 30
0.0
  0
VIEWPORT
  5
84FD
102
{ACAD_XDICTIONARY
360
109EC
102
}
330
B
100
AcDbEntity
 67
     1
  8
0
 62
     0
 48
0.0
100
AcDbViewport
 10
0.0
 20
0.0
 30
0.0
 40
1000.0
 41
1000.0
 68
     1
 69
     1
 12
0.0
 22
0.0
 13
0.0
 23
0.0
 14
1.0
 24
1.0
 15
1.0
 25
1.0
 16
0.0
 26
0.0
 36
1.0
 17
0.0
 27
0.0
 37
0.0
 42
50.0
 43
0.0
 44
0.0
 45
1000.0
 50
0.0
 51
0.0
 72
   100
 90
    32800
  1

281
     0
 71
     1
 74
     0
110
0.0
120
0.0
130
0.0
111
1.0
121
0.0
131
0.0
112
0.0
122
1.0
132
0.0
 79
     0
146
0.0
  0
ENDSEC
  0
SECTION
  2
OBJECTS
  0
DICTIONARY
  5
19
330
0
100
AcDbDictionary
281
     1
  3
ACAD_COLOR
350
F9A2
  3
ACAD_GROUP
350
1A
  3
ACAD_IMAGE_VARS
350
F7A4
  3
ACAD_LAYOUT
350
8507
  3
ACAD_MATERIAL
350
F975
  3
ACAD_MLEADERSTYLE
350
F9A5
  3
ACAD_MLINESTYLE
350
1B
  3
ACAD_PLOTSETTINGS
350
8508
  3
ACAD_PLOTSTYLENAME
350
8501
  3
ACAD_SCALELIST
350
F426
  3
ACAD_TABLESTYLE
350
F9A3
  3
ACAD_VISUALSTYLE
350
F98E
  3
ACDB_RECOMPOSE_DATA
350
109EA
  3
AcDbVariableDictionary
350
8541
  3
APPDATA
350
F7A2
  3
ASE_INDEX_DICTIONARY
350
F9AA
  3
DWGPROPS
350
109EB
  0
DICTIONARY
  5
FC4F
330
7
100
AcDbDictionary
280
     1
281
     1
  0
DICTIONARY
  5
A84F
330
2
100
AcDbDictionary
280
     1
281
     1
  3
ACAD_LAYERSTATES
360
A850
  0
DICTIONARY
  5
F43F
330
14
100
AcDbDictionary
280
     1
281
     1
  3
ADSK_XREC_LAYER_RECONCILED
360
F440
  0
DICTIONARY
  5
D699
330
A
100
AcDbDictionary
280
     1
281
     1
  3
ACAD_SORTENTS
360
D69A
  0
DICTIONARY
  5
109EC
330
84FD
100
AcDbDictionary
280
     1
281
     1
  3
ACAD_XREC_ROUNDTRIP
360
109ED
  0
DICTIONARY
  5
F9A2
102
{ACAD_REACTORS
330
19
102
}
330
19
100
AcDbDictionary
281
     1
  0
DICTIONARY
  5
1A
102
{ACAD_REACTORS
330
19
102
}
330
19
100
AcDbDictionary
281
     1
  0
RASTERVARIABLES
  5
F7A4
102
{ACAD_REACTORS
330
19
102
}
330
19
100
AcDbRasterVariables
 90
        0
 70
     1
 71
     1
 72
     0
  0
DICTIONARY
  5
8507
102
{ACAD_REACTORS
330
19
102
}
330
19
100
AcDbDictionary
281
     1
  3
Model
350
8509
  3
1
350
850A
  0
DICTIONARY
  5
F975
102
{ACAD_REACTORS
330
19
102
}
330
19
100
AcDbDictionary
281
     1
  3
ByBlock
350
F97E
  3
ByLayer
350
F976
  3
Global
350
F986
  0
DICTIONARY
  5
F9A5
102
{ACAD_REACTORS
330
19
102
}
330
19
100
AcDbDictionary
281
     1
  3
Standard
350
F9A6
  0
DICTIONARY
  5
1B
102
{ACAD_REACTORS
330
19
102
}
330
19
100
AcDbDictionary
281
     1
  3
STANDARD
350
1C
  0
DICTIONARY
  5
8508
102
{ACAD_REACTORS
330
19
102
}
330
19
100
AcDbDictionary
281
     1
  0
ACDBDICTIONARYWDFLT
  5
8501
102
{ACAD_REACTORS
330
19
102
}
330
19
100
AcDbDictionary
281
     1
  3
Normal
350
8502
100
AcDbDictionaryWithDefault
340
8502
  0
DICTIONARY
  5
F426
102
{ACAD_REACTORS
330
19
102
}
330
19
100
AcDbDictionary
281
     1
  3
A0
350
F427
  3
A1
350
F428
  3
A2
350
F429
  3
A3
350
F42A
  3
A4
350
F42B
  3
A5
350
F42C
  3
A6
350
F42D
  3
A7
350
F42E
  3
A8
350
F42F
  3
A9
350
F430
  3
B0
350
F431
  3
B1
350
F432
  3
B2
350
F433
  3
B3
350
F434
  3
B4
350
F435
  3
B5
350
F436
  3
B6
350
F437
  0
DICTIONARY
  5
F9A3
102
{ACAD_REACTORS
330
19
102
}
330
19
100
AcDbDictionary
281
     1
  3
Standard
350
F9A4
  0
DICTIONARY
  5
F98E
102
{ACAD_REACTORS
330
19
102
}
330
19
100
AcDbDictionary
281
     1
  3
2dWireframe
350
F994
  3
3D Hidden
350
F996
  3
3dWireframe
350
F995
  3
Basic
350
F993
  3
Brighten
350
F99A
  3
ColorChange
350
F99E
  3
Conceptual
350
F997
  3
Dim
350
F999
  3
EdgeColorOff
350
F9A1
  3
Facepattern
350
F99D
  3
Flat
350
F98F
  3
FlatWithEdges
350
F990
  3
Gouraud
350
F991
  3
GouraudWithEdges
350
F992
  3
JitterOff
350
F99F
  3
Linepattern
350
F99C
  3
OverhangOff
350
F9A0
  3
Realistic
350
F998
  3
Thicken
350
F99B
  0
XRECORD
  5
109EA
102
{ACAD_REACTORS
330
19
102
}
330
19
100
AcDbXrecord
280
     1
 90
        1
330
F9A4
  0
DICTIONARY
  5
8541
102
{ACAD_REACTORS
330
19
102
}
330
19
100
AcDbDictionary
281
     1
  3
CANNOSCALE
350
FC83
  3
CMLEADERSTYLE
350
FC82
  3
CTABLESTYLE
350
FC81
  3
DIMASSOC
350
8543
  3
HPTRANSPARENCY
350
F956
  3
INDEXCTL
350
F764
  3
PROJECTNAME
350
8544
  3
SORTENTS
350
F763
  3
XCLIPFRAME
350
109E8
  0
DICTIONARY
  5
F7A2
102
{ACAD_REACTORS
330
19
102
}
330
19
100
AcDbDictionary
281
     1
  0
DICTIONARY
  5
F9AA
102
{ACAD_REACTORS
330
19
102
}
330
19
100
AcDbDictionary
281
     1
  3
ASEBlockHierarchyIndexRecord
350
F9AB
1001
DCO15
1040
1856497581.357
  0
XRECORD
  5
109EB
102
{ACAD_REACTORS
330
19
102
}
330
19
100
AcDbXrecord
280
     1
  1
DWGPROPS COOKIE
  2

  3

  4

  6

  7

  8
dhkim
  9

300
=
301
=
302
=
303
=
304
=
305
=
306
=
307
=
308
=
309
=
 40
0.1098114351851852
 41
2454480.819145324
 42
2457290.620702697
  1

 90
        0
  0
DICTIONARY
  5
A850
102
{ACAD_REACTORS
330
A84F
102
}
330
A84F
100
AcDbDictionary
281
     1
  0
XRECORD
  5
F440
102
{ACAD_REACTORS
330
F43F
102
}
330
F43F
100
AcDbXrecord
280
     1
290
     1
  0
SORTENTSTABLE
  5
D69A
102
{ACAD_REACTORS
330
D699
102
}
330
D699
100
AcDbSortentsTable
330
A
331
10046
  5
FF40
331
FF3F
  5
FF3F
  0
XRECORD
  5
109ED
102
{ACAD_REACTORS
330
109EC
102
}
330
109EC
100
AcDbXrecord
280
     1
102
SHADEPLOT
 70
     0
  0
LAYOUT
  5
8509
102
{ACAD_XDICTIONARY
360
109EE
102
}
102
{ACAD_REACTORS
330
8507
102
}
330
8507
100
AcDbPlotSettings
  1

  2
HP LaserJet 5100 PCL 6
  4

  6

 40
0.0
 41
0.0
 42
0.0
 43
0.0
 44
0.0
 45
0.0
 46
0.0
 47
0.0
 48
0.0
 49
0.0
140
0.0
141
0.0
142
1.0
143
1.0
 70
  1712
 72
     0
 73
     0
 74
     0
  7

 75
     0
147
1.0
148
0.0
149
0.0
100
AcDbLayout
  1
Model
 70
     1
 71
     0
 10
0.0
 20
0.0
 11
12.0
 21
9.0
 12
0.0
 22
0.0
 32
0.0
 14
1.000000000000000E+20
 24
1.000000000000000E+20
 34
1.000000000000000E+20
 15
-1.000000000000000E+20
 25
-1.000000000000000E+20
 35
-1.000000000000000E+20
146
0.0
 13
0.0
 23
0.0
 33
0.0
 16
1.0
 26
0.0
 36
0.0
 17
0.0
 27
1.0
 37
0.0
 76
     0
330
A
331
F3F1
  0
LAYOUT
  5
850A
102
{ACAD_XDICTIONARY
360
109F0
102
}
102
{ACAD_REACTORS
330
8507
102
}
330
8507
100
AcDbPlotSettings
  1

  2
HP LaserJet 5100 PCL 6
  4

  6

 40
0.0
 41
0.0
 42
0.0
 43
0.0
 44
0.0
 45
0.0
 46
0.0
 47
0.0
 48
0.0
 49
0.0
140
0.0
141
0.0
142
1.0
143
1.0
 70
   688
 72
     0
 73
     0
 74
     5
  7

 75
    16
147
1.0
148
0.0
149
0.0
100
AcDbLayout
  1
1
 70
     1
 71
     1
 10
0.0
 20
0.0
 11
420.0
 21
297.0
 12
0.0
 22
0.0
 32
0.0
 14
0.0
 24
0.0
 34
0.0
 15
1182.7314453125
 25
831.0
 35
2.0
146
0.0
 13
0.0
 23
0.0
 33
0.0
 16
1.0
 26
0.0
 36
0.0
 17
0.0
 27
1.0
 37
0.0
 76
     0
330
B
331
84FD
  0
MATERIAL
  5
F97E
102
{ACAD_XDICTIONARY
360
F97F
102
}
102
{ACAD_REACTORS
330
F975
102
}
330
F975
100
AcDbMaterial
  1
ByBlock
 72
     0
 43
0.0208333333333333
 43
0.0
 43
0.0
 43
0.0
 43
0.0
 43
0.0208333333333333
 43
0.0
 43
0.0
 43
0.0
 43
0.0
 43
1.0
 43
0.0
 43
0.0
 43
0.0
 43
0.0
 43
1.0
 77
     0
 47
0.0208333333333333
 47
0.0
 47
0.0
 47
0.0
 47
0.0
 47
0.0208333333333333
 47
0.0
 47
0.0
 47
0.0
 47
0.0
 47
1.0
 47
0.0
 47
0.0
 47
0.0
 47
0.0
 47
1.0
171
     0
 49
0.0208333333333333
 49
0.0
 49
0.0
 49
0.0
 49
0.0
 49
0.0208333333333333
 49
0.0
 49
0.0
 49
0.0
 49
0.0
 49
1.0
 49
0.0
 49
0.0
 49
0.0
 49
0.0
 49
1.0
175
     0
142
0.0208333333333333
142
0.0
142
0.0
142
0.0
142
0.0
142
0.0208333333333333
142
0.0
142
0.0
142
0.0
142
0.0
142
1.0
142
0.0
142
0.0
142
0.0
142
0.0
142
1.0
179
     0
144
0.0208333333333333
144
0.0
144
0.0
144
0.0
144
0.0
144
0.0208333333333333
144
0.0
144
0.0
144
0.0
144
0.0
144
1.0
144
0.0
144
0.0
144
0.0
144
0.0
144
1.0
147
0.0208333333333333
147
0.0
147
0.0
147
0.0
147
0.0
147
0.0208333333333333
147
0.0
147
0.0
147
0.0
147
0.0
147
1.0
147
0.0
147
0.0
147
0.0
147
0.0
147
1.0
  0
MATERIAL
  5
F976
102
{ACAD_XDICTIONARY
360
F977
102
}
102
{ACAD_REACTORS
330
F975
102
}
330
F975
100
AcDbMaterial
  1
ByLayer
 72
     0
 43
0.0208333333333333
 43
0.0
 43
0.0
 43
0.0
 43
0.0
 43
0.0208333333333333
 43
0.0
 43
0.0
 43
0.0
 43
0.0
 43
1.0
 43
0.0
 43
0.0
 43
0.0
 43
0.0
 43
1.0
 77
     0
 47
0.0208333333333333
 47
0.0
 47
0.0
 47
0.0
 47
0.0
 47
0.0208333333333333
 47
0.0
 47
0.0
 47
0.0
 47
0.0
 47
1.0
 47
0.0
 47
0.0
 47
0.0
 47
0.0
 47
1.0
171
     0
 49
0.0208333333333333
 49
0.0
 49
0.0
 49
0.0
 49
0.0
 49
0.0208333333333333
 49
0.0
 49
0.0
 49
0.0
 49
0.0
 49
1.0
 49
0.0
 49
0.0
 49
0.0
 49
0.0
 49
1.0
175
     0
142
0.0208333333333333
142
0.0
142
0.0
142
0.0
142
0.0
142
0.0208333333333333
142
0.0
142
0.0
142
0.0
142
0.0
142
1.0
142
0.0
142
0.0
142
0.0
142
0.0
142
1.0
179
     0
144
0.0208333333333333
144
0.0
144
0.0
144
0.0
144
0.0
144
0.0208333333333333
144
0.0
144
0.0
144
0.0
144
0.0
144
1.0
144
0.0
144
0.0
144
0.0
144
0.0
144
1.0
147
0.0208333333333333
147
0.0
147
0.0
147
0.0
147
0.0
147
0.0208333333333333
147
0.0
147
0.0
147
0.0
147
0.0
147
1.0
147
0.0
147
0.0
147
0.0
147
0.0
147
1.0
  0
MATERIAL
  5
F986
102
{ACAD_XDICTIONARY
360
F987
102
}
102
{ACAD_REACTORS
330
F975
102
}
330
F975
100
AcDbMaterial
  1
Global
 72
     0
 43
0.0208333333333333
 43
0.0
 43
0.0
 43
0.0
 43
0.0
 43
0.0208333333333333
 43
0.0
 43
0.0
 43
0.0
 43
0.0
 43
1.0
 43
0.0
 43
0.0
 43
0.0
 43
0.0
 43
1.0
 77
     0
 47
0.0208333333333333
 47
0.0
 47
0.0
 47
0.0
 47
0.0
 47
0.0208333333333333
 47
0.0
 47
0.0
 47
0.0
 47
0.0
 47
1.0
 47
0.0
 47
0.0
 47
0.0
 47
0.0
 47
1.0
171
     0
 49
0.0208333333333333
 49
0.0
 49
0.0
 49
0.0
 49
0.0
 49
0.0208333333333333
 49
0.0
 49
0.0
 49
0.0
 49
0.0
 49
1.0
 49
0.0
 49
0.0
 49
0.0
 49
0.0
 49
1.0
175
     0
142
0.0208333333333333
142
0.0
142
0.0
142
0.0
142
0.0
142
0.0208333333333333
142
0.0
142
0.0
142
0.0
142
0.0
142
1.0
142
0.0
142
0.0
142
0.0
142
0.0
142
1.0
179
     0
144
0.0208333333333333
144
0.0
144
0.0
144
0.0
144
0.0
144
0.0208333333333333
144
0.0
144
0.0
144
0.0
144
0.0
144
1.0
144
0.0
144
0.0
144
0.0
144
0.0
144
1.0
147
0.0208333333333333
147
0.0
147
0.0
147
0.0
147
0.0
147
0.0208333333333333
147
0.0
147
0.0
147
0.0
147
0.0
147
1.0
147
0.0
147
0.0
147
0.0
147
0.0
147
1.0
  0
MLEADERSTYLE
  5
F9A6
102
{ACAD_REACTORS
330
F9A5
102
}
330
F9A5
100
AcDbMLeaderStyle
170
     2
171
     1
172
     0
 90
        2
 40
0.0
 41
0.0
173
     1
 91
-1056964608
340
11
 92
       -2
290
     1
 42
2.0
291
     1
 43
0.36
  3
Standard
 44
4.0
300

342
17
174
     1
178
     6
175
     1
176
     0
 93
-1056964608
 45
4.0
292
     0
297
     0
 46
4.0
 94
-1056964608
 47
1.0
 49
1.0
140
1.0
293
     1
141
0.0
294
     1
177
     0
142
1.0
295
     0
296
     0
143
0.125
1001
ACAD_MLEADERVER
1070
     2
  0
MLINESTYLE
  5
1C
102
{ACAD_REACTORS
330
1B
102
}
330
1B
100
AcDbMlineStyle
  2
STANDARD
 70
     0
  3

 62
     0
 51
90.0
 52
90.0
 71
     2
 49
0.5
 62
   256
  6
BYLAYER
 49
-0.5
 62
   256
  6
BYLAYER
  0
ACDBPLACEHOLDER
  5
8502
102
{ACAD_REACTORS
330
8501
102
}
330
8501
  0
SCALE
  5
F427
102
{ACAD_REACTORS
330
F426
102
}
330
F426
100
AcDbScale
 70
     0
300
1:1
140
1.0
141
1.0
290
     1
  0
SCALE
  5
F428
102
{ACAD_REACTORS
330
F426
102
}
330
F426
100
AcDbScale
 70
     0
300
1:2
140
1.0
141
2.0
290
     0
  0
SCALE
  5
F429
102
{ACAD_REACTORS
330
F426
102
}
330
F426
100
AcDbScale
 70
     0
300
1:4
140
1.0
141
4.0
290
     0
  0
SCALE
  5
F42A
102
{ACAD_REACTORS
330
F426
102
}
330
F426
100
AcDbScale
 70
     0
300
1:5
140
1.0
141
5.0
290
     0
  0
SCALE
  5
F42B
102
{ACAD_REACTORS
330
F426
102
}
330
F426
100
AcDbScale
 70
     0
300
1:8
140
1.0
141
8.0
290
     0
  0
SCALE
  5
F42C
102
{ACAD_REACTORS
330
F426
102
}
330
F426
100
AcDbScale
 70
     0
300
1:10
140
1.0
141
10.0
290
     0
  0
SCALE
  5
F42D
102
{ACAD_REACTORS
330
F426
102
}
330
F426
100
AcDbScale
 70
     0
300
1:16
140
1.0
141
16.0
290
     0
  0
SCALE
  5
F42E
102
{ACAD_REACTORS
330
F426
102
}
330
F426
100
AcDbScale
 70
     0
300
1:20
140
1.0
141
20.0
290
     0
  0
SCALE
  5
F42F
102
{ACAD_REACTORS
330
F426
102
}
330
F426
100
AcDbScale
 70
     0
300
1:30
140
1.0
141
30.0
290
     0
  0
SCALE
  5
F430
102
{ACAD_REACTORS
330
F426
102
}
330
F426
100
AcDbScale
 70
     0
300
1:40
140
1.0
141
40.0
290
     0
  0
SCALE
  5
F431
102
{ACAD_REACTORS
330
F426
102
}
330
F426
100
AcDbScale
 70
     0
300
1:50
140
1.0
141
50.0
290
     0
  0
SCALE
  5
F432
102
{ACAD_REACTORS
330
F426
102
}
330
F426
100
AcDbScale
 70
     0
300
1:100
140
1.0
141
100.0
290
     0
  0
SCALE
  5
F433
102
{ACAD_REACTORS
330
F426
102
}
330
F426
100
AcDbScale
 70
     0
300
2:1
140
2.0
141
1.0
290
     0
  0
SCALE
  5
F434
102
{ACAD_REACTORS
330
F426
102
}
330
F426
100
AcDbScale
 70
     0
300
4:1
140
4.0
141
1.0
290
     0
  0
SCALE
  5
F435
102
{ACAD_REACTORS
330
F426
102
}
330
F426
100
AcDbScale
 70
     0
300
8:1
140
8.0
141
1.0
290
     0
  0
SCALE
  5
F436
102
{ACAD_REACTORS
330
F426
102
}
330
F426
100
AcDbScale
 70
     0
300
10:1
140
10.0
141
1.0
290
     0
  0
SCALE
  5
F437
102
{ACAD_REACTORS
330
F426
102
}
330
F426
100
AcDbScale
 70
     0
300
100:1
140
100.0
141
1.0
290
     0
  0
TABLESTYLE
  5
F9A4
102
{ACAD_XDICTIONARY
360
FC4B
102
}
102
{ACAD_REACTORS
330
F9A3
102
}
330
F9A3
100
AcDbTableStyle
  3
Standard
 70
     0
 71
     0
 40
1.5
 41
1.5
280
     0
281
     0
  7
STANDARD
140
4.5
170
     2
 62
     0
 63
     7
283
     0
274
    -2
284
     1
 64
     0
275
    -2
285
     1
 65
     0
276
    -2
286
     1
 66
     0
277
    -2
287
     1
 67
     0
278
    -2
288
     1
 68
     0
279
    -2
289
     1
 69
     0
  7
STANDARD
140
6.0
170
     5
 62
     0
 63
     7
283
     0
274
    -2
284
     1
 64
     0
275
    -2
285
     1
 65
     0
276
    -2
286
     1
 66
     0
277
    -2
287
     1
 67
     0
278
    -2
288
     1
 68
     0
279
    -2
289
     1
 69
     0
  7
STANDARD
140
4.5
170
     5
 62
     0
 63
     7
283
     0
274
    -2
284
     1
 64
     0
275
    -2
285
     1
 65
     0
276
    -2
286
     1
 66
     0
277
    -2
287
     1
 67
     0
278
    -2
288
     1
 68
     0
279
    -2
289
     1
 69
     0
  0
VISUALSTYLE
  5
F994
102
{ACAD_XDICTIONARY
360
109FF
102
}
102
{ACAD_REACTORS
330
F98E
102
}
330
F98E
100
AcDbVisualStyle
  2
2dWireframe
 70
     4
 71
     0
 72
     2
 73
     0
 90
        0
 40
-0.6
 41
-30.0
 62
     5
 63
     7
 74
     1
 91
        4
 64
     7
 65
   257
 75
     1
175
     1
 42
1.0
 92
        0
 66
   257
 43
1.0
 76
     1
 77
     6
 78
     2
 67
     7
 79
     5
170
     0
171
     0
290
     0
174
     0
 93
        1
 44
0.0
173
     0
291
     0
 45
0.0
1001
ACAD
1000
AcDbSavedByObjectVersion
1070
     0
  0
VISUALSTYLE
  5
F996
102
{ACAD_XDICTIONARY
360
10A03
102
}
102
{ACAD_REACTORS
330
F98E
102
}
330
F98E
100
AcDbVisualStyle
  2
3D Hidden
 70
     6
 71
     1
 72
     2
 73
     2
 90
        0
 40
-0.6
 41
-30.0
 62
     5
 63
     7
 74
     2
 91
        2
 64
     7
 65
   257
 75
     2
175
     1
 42
179.0
 92
        0
 66
   257
 43
1.0
 76
     1
 77
     6
 78
     2
 67
     7
 79
     3
170
     0
171
     0
290
     0
174
     0
 93
        1
 44
0.0
173
     0
291
     0
 45
0.0
1001
ACAD
1000
AcDbSavedByObjectVersion
1070
     0
  0
VISUALSTYLE
  5
F995
102
{ACAD_XDICTIONARY
360
10A01
102
}
102
{ACAD_REACTORS
330
F98E
102
}
330
F98E
100
AcDbVisualStyle
  2
3dWireframe
 70
     5
 71
     0
 72
     2
 73
     0
 90
        0
 40
-0.6
 41
-30.0
 62
     5
 63
     7
 74
     1
 91
        4
 64
     7
 65
   257
 75
     1
175
     1
 42
1.0
 92
        0
 66
   257
 43
1.0
 76
     1
 77
     6
 78
     2
 67
     7
 79
     5
170
     0
171
     0
290
     0
174
     0
 93
        1
 44
0.0
173
     0
291
     0
 45
0.0
1001
ACAD
1000
AcDbSavedByObjectVersion
1070
     0
  0
VISUALSTYLE
  5
F993
102
{ACAD_XDICTIONARY
360
109FD
102
}
102
{ACAD_REACTORS
330
F98E
102
}
330
F98E
100
AcDbVisualStyle
  2
Basic
 70
     7
 71
     1
 72
     0
 73
     1
 90
        0
 40
-0.6
 41
-30.0
 62
     5
 63
     7
 74
     0
 91
        4
 64
     7
 65
   257
 75
     1
175
     1
 42
1.0
 92
        8
 66
     7
 43
1.0
 76
     1
 77
     6
 78
     2
 67
     7
 79
     5
170
     0
171
     0
290
     0
174
     0
 93
        1
 44
0.0
173
     0
291
     1
 45
0.0
1001
ACAD
1000
AcDbSavedByObjectVersion
1070
     0
  0
VISUALSTYLE
  5
F99A
102
{ACAD_XDICTIONARY
360
10A0B
102
}
102
{ACAD_REACTORS
330
F98E
102
}
330
F98E
100
AcDbVisualStyle
  2
Brighten
 70
    12
 71
     2
 72
     2
 73
     0
 90
        0
 40
-0.6
 41
-30.0
 62
     5
 63
     7
 74
     1
 91
        4
 64
     7
 65
   257
 75
     1
175
     1
 42
1.0
 92
        8
 66
     7
 43
1.0
 76
     1
 77
     6
 78
     2
 67
     7
 79
     5
170
     0
171
     0
290
     0
174
     0
 93
        1
 44
50.0
173
     0
291
     1
 45
0.0
1001
ACAD
1000
AcDbSavedByObjectVersion
1070
     0
  0
VISUALSTYLE
  5
F99E
102
{ACAD_XDICTIONARY
360
10A13
102
}
102
{ACAD_REACTORS
330
F98E
102
}
330
F98E
100
AcDbVisualStyle
  2
ColorChange
 70
    16
 71
     2
 72
     2
 73
     3
 90
        0
 40
-0.6
 41
-30.0
 62
     5
 63
     8
 74
     1
 91
        4
 64
     7
 65
   257
 75
     1
175
     1
 42
1.0
 92
        8
 66
     8
 43
1.0
 76
     1
 77
     6
 78
     2
 67
     7
 79
     5
170
     0
171
     0
290
     0
174
     0
 93
        1
 44
0.0
173
     0
291
     1
 45
0.0
1001
ACAD
1000
AcDbSavedByObjectVersion
1070
     0
  0
VISUALSTYLE
  5
F997
102
{ACAD_XDICTIONARY
360
10A05
102
}
102
{ACAD_REACTORS
330
F98E
102
}
330
F98E
100
AcDbVisualStyle
  2
Conceptual
 70
     9
 71
     3
 72
     2
 73
     0
 90
        0
 40
-0.6
 41
-30.0
 62
     5
 63
     7
 74
     2
 91
        2
 64
     7
 65
   257
 75
     1
175
     1
 42
179.0
 92
        8
 66
     7
 43
1.0
 76
     1
 77
     6
 78
     2
 67
     7
 79
     3
170
     0
171
     0
290
     0
174
     0
 93
        1
 44
0.0
173
     0
291
     0
 45
0.0
1001
ACAD
1000
AcDbSavedByObjectVersion
1070
     0
  0
VISUALSTYLE
  5
F999
102
{ACAD_XDICTIONARY
360
10A09
102
}
102
{ACAD_REACTORS
330
F98E
102
}
330
F98E
100
AcDbVisualStyle
  2
Dim
 70
    11
 71
     2
 72
     2
 73
     0
 90
        0
 40
-0.6
 41
-30.0
 62
     5
 63
     7
 74
     1
 91
        4
 64
     7
 65
   257
 75
     1
175
     1
 42
1.0
 92
        8
 66
     7
 43
1.0
 76
     1
 77
     6
 78
     2
 67
     7
 79
     5
170
     0
171
     0
290
     0
174
     0
 93
        1
 44
-50.0
173
     0
291
     1
 45
0.0
1001
ACAD
1000
AcDbSavedByObjectVersion
1070
     0
  0
VISUALSTYLE
  5
F9A1
102
{ACAD_XDICTIONARY
360
10A19
102
}
102
{ACAD_REACTORS
330
F98E
102
}
330
F98E
100
AcDbVisualStyle
  2
EdgeColorOff
 70
    22
 71
     2
 72
     2
 73
     0
 90
        0
 40
-0.6
 41
-30.0
 62
     5
 63
     7
 74
     1
 91
        4
 64
     7
 65
   257
 75
     1
175
     1
 42
1.0
 92
        8
 66
     7
 43
1.0
 76
     1
 77
     6
 78
     2
 67
     7
 79
     5
170
     0
171
     0
290
     0
174
     0
 93
        1
 44
0.0
173
     0
291
     1
 45
0.0
1001
ACAD
1000
AcDbSavedByObjectVersion
1070
     0
  0
VISUALSTYLE
  5
F99D
102
{ACAD_XDICTIONARY
360
10A11
102
}
102
{ACAD_REACTORS
330
F98E
102
}
330
F98E
100
AcDbVisualStyle
  2
Facepattern
 70
    15
 71
     2
 72
     2
 73
     0
 90
        0
 40
-0.6
 41
-30.0
 62
     5
 63
     7
 74
     1
 91
        4
 64
     7
 65
   257
 75
     1
175
     1
 42
1.0
 92
        8
 66
     7
 43
1.0
 76
     1
 77
     6
 78
     2
 67
     7
 79
     5
170
     0
171
     0
290
     0
174
     0
 93
        1
 44
0.0
173
     0
291
     1
 45
0.0
1001
ACAD
1000
AcDbSavedByObjectVersion
1070
     0
  0
VISUALSTYLE
  5
F98F
102
{ACAD_XDICTIONARY
360
109F5
102
}
102
{ACAD_REACTORS
330
F98E
102
}
330
F98E
100
AcDbVisualStyle
  2
Flat
 70
     0
 71
     2
 72
     1
 73
     1
 90
        2
 40
-0.6
 41
30.0
 62
     5
 63
     7
 74
     0
 91
        4
 64
     7
 65
   257
 75
     1
175
     1
 42
1.0
 92
        8
 66
     7
 43
1.0
 76
     1
 77
     6
 78
     2
 67
     7
 79
     5
170
     0
171
     0
290
     0
174
     0
 93
       13
 44
0.0
173
     0
291
     1
 45
0.0
1001
ACAD
1000
AcDbSavedByObjectVersion
1070
     0
  0
VISUALSTYLE
  5
F990
102
{ACAD_XDICTIONARY
360
109F7
102
}
102
{ACAD_REACTORS
330
F98E
102
}
330
F98E
100
AcDbVisualStyle
  2
FlatWithEdges
 70
     1
 71
     2
 72
     1
 73
     1
 90
        2
 40
-0.6
 41
30.0
 62
     5
 63
     7
 74
     1
 91
        4
 64
     7
 65
   257
 75
     1
175
     1
 42
1.0
 92
        0
 66
   257
 43
1.0
 76
     1
 77
     6
 78
     2
 67
     7
 79
     5
170
     0
171
     0
290
     0
174
     0
 93
       13
 44
0.0
173
     0
291
     1
 45
0.0
1001
ACAD
1000
AcDbSavedByObjectVersion
1070
     0
  0
VISUALSTYLE
  5
F991
102
{ACAD_XDICTIONARY
360
109F9
102
}
102
{ACAD_REACTORS
330
F98E
102
}
330
F98E
100
AcDbVisualStyle
  2
Gouraud
 70
     2
 71
     2
 72
     2
 73
     1
 90
        2
 40
-0.6
 41
30.0
 62
     5
 63
     7
 74
     0
 91
        4
 64
     7
 65
   257
 75
     1
175
     1
 42
1.0
 92
        0
 66
     7
 43
1.0
 76
     1
 77
     6
 78
     2
 67
     7
 79
     5
170
     0
171
     0
290
     0
174
     0
 93
       13
 44
0.0
173
     0
291
     1
 45
0.0
1001
ACAD
1000
AcDbSavedByObjectVersion
1070
     0
  0
VISUALSTYLE
  5
F992
102
{ACAD_XDICTIONARY
360
109FB
102
}
102
{ACAD_REACTORS
330
F98E
102
}
330
F98E
100
AcDbVisualStyle
  2
GouraudWithEdges
 70
     3
 71
     2
 72
     2
 73
     1
 90
        2
 40
-0.6
 41
30.0
 62
     5
 63
     7
 74
     1
 91
        4
 64
     7
 65
   257
 75
     1
175
     1
 42
1.0
 92
        0
 66
   257
 43
1.0
 76
     1
 77
     6
 78
     2
 67
     7
 79
     5
170
     0
171
     0
290
     0
174
     0
 93
       13
 44
0.0
173
     0
291
     1
 45
0.0
1001
ACAD
1000
AcDbSavedByObjectVersion
1070
     0
  0
VISUALSTYLE
  5
F99F
102
{ACAD_XDICTIONARY
360
10A15
102
}
102
{ACAD_REACTORS
330
F98E
102
}
330
F98E
100
AcDbVisualStyle
  2
JitterOff
 70
    20
 71
     2
 72
     2
 73
     0
 90
        0
 40
-0.6
 41
-30.0
 62
     5
 63
     7
 74
     1
 91
        4
 64
     7
 65
   257
 75
     1
175
     1
 42
1.0
 92
       10
 66
     7
 43
1.0
 76
     1
 77
     6
 78
     2
 67
     7
 79
     5
170
     0
171
     0
290
     0
174
     0
 93
        1
 44
0.0
173
     0
291
     1
 45
0.0
1001
ACAD
1000
AcDbSavedByObjectVersion
1070
     0
  0
VISUALSTYLE
  5
F99C
102
{ACAD_XDICTIONARY
360
10A0F
102
}
102
{ACAD_REACTORS
330
F98E
102
}
330
F98E
100
AcDbVisualStyle
  2
Linepattern
 70
    14
 71
     2
 72
     2
 73
     0
 90
        0
 40
-0.6
 41
-30.0
 62
     5
 63
     7
 74
     1
 91
        4
 64
     7
 65
   257
 75
     7
175
     7
 42
1.0
 92
        8
 66
     7
 43
1.0
 76
     1
 77
     6
 78
     2
 67
     7
 79
     5
170
     0
171
     0
290
     0
174
     0
 93
        1
 44
0.0
173
     0
291
     1
 45
0.0
1001
ACAD
1000
AcDbSavedByObjectVersion
1070
     0
  0
VISUALSTYLE
  5
F9A0
102
{ACAD_XDICTIONARY
360
10A17
102
}
102
{ACAD_REACTORS
330
F98E
102
}
330
F98E
100
AcDbVisualStyle
  2
OverhangOff
 70
    21
 71
     2
 72
     2
 73
     0
 90
        0
 40
-0.6
 41
-30.0
 62
     5
 63
     7
 74
     1
 91
        4
 64
     7
 65
   257
 75
     1
175
     1
 42
1.0
 92
        9
 66
     7
 43
1.0
 76
     1
 77
     6
 78
     2
 67
     7
 79
     5
170
     0
171
     0
290
     0
174
     0
 93
        1
 44
0.0
173
     0
291
     1
 45
0.0
1001
ACAD
1000
AcDbSavedByObjectVersion
1070
     0
  0
VISUALSTYLE
  5
F998
102
{ACAD_XDICTIONARY
360
10A07
102
}
102
{ACAD_REACTORS
330
F98E
102
}
330
F98E
100
AcDbVisualStyle
  2
Realistic
 70
     8
 71
     2
 72
     2
 73
     0
 90
        0
 40
-0.6
 41
-30.0
 62
     5
 63
     7
 74
     1
 91
        0
 64
     7
 65
   257
 75
     1
175
     1
 42
1.0
 92
        8
 66
     8
 43
1.0
 76
     1
 77
     6
 78
     2
 67
     7
 79
     5
170
     0
171
     0
290
     0
174
     0
 93
       13
 44
0.0
173
     0
291
     0
 45
0.0
1001
ACAD
1000
AcDbSavedByObjectVersion
1070
     0
  0
VISUALSTYLE
  5
F99B
102
{ACAD_XDICTIONARY
360
10A0D
102
}
102
{ACAD_REACTORS
330
F98E
102
}
330
F98E
100
AcDbVisualStyle
  2
Thicken
 70
    13
 71
     2
 72
     2
 73
     0
 90
        0
 40
-0.6
 41
-30.0
 62
     5
 63
     7
 74
     1
 91
        4
 64
     7
 65
   257
 75
     1
175
     1
 42
1.0
 92
       12
 66
     7
 43
1.0
 76
     1
 77
     6
 78
     2
 67
     7
 79
     5
170
     0
171
     0
290
     0
174
     0
 93
        1
 44
0.0
173
     0
291
     1
 45
0.0
1001
ACAD
1000
AcDbSavedByObjectVersion
1070
     0
  0
DICTIONARYVAR
  5
FC83
102
{ACAD_REACTORS
330
8541
102
}
330
8541
100
DictionaryVariables
280
     0
  1
1:1
  0
DICTIONARYVAR
  5
FC82
102
{ACAD_REACTORS
330
8541
102
}
330
8541
100
DictionaryVariables
280
     0
  1
STANDARD
  0
DICTIONARYVAR
  5
FC81
102
{ACAD_REACTORS
330
8541
102
}
330
8541
100
DictionaryVariables
280
     0
  1
STANDARD
  0
DICTIONARYVAR
  5
8543
102
{ACAD_REACTORS
330
8541
102
}
330
8541
100
DictionaryVariables
280
     0
  1
1
  0
DICTIONARYVAR
  5
F956
102
{ACAD_REACTORS
330
8541
102
}
330
8541
100
DictionaryVariables
280
     0
  1
ByLayer
  0
DICTIONARYVAR
  5
F764
102
{ACAD_REACTORS
330
8541
102
}
330
8541
100
DictionaryVariables
280
     0
  1
0
  0
DICTIONARYVAR
  5
8544
102
{ACAD_REACTORS
330
8541
102
}
330
8541
100
DictionaryVariables
280
     0
  1

  0
DICTIONARYVAR
  5
F763
102
{ACAD_REACTORS
330
8541
102
}
330
8541
100
DictionaryVariables
280
     0
  1
127
  0
DICTIONARYVAR
  5
109E8
102
{ACAD_REACTORS
330
8541
102
}
330
8541
100
DictionaryVariables
280
     0
  1
2
  0
XRECORD
  5
F9AB
102
{ACAD_REACTORS
330
F9AA
102
}
330
F9AA
100
AcDbXrecord
280
     1
  0
DICTIONARY
  5
109EE
330
8509
100
AcDbDictionary
280
     1
281
     1
  3
ACAD_XREC_ROUNDTRIP
360
109EF
  0
DICTIONARY
  5
109F0
330
850A
100
AcDbDictionary
280
     1
281
     1
  3
ACAD_XREC_ROUNDTRIP
360
109F1
  0
DICTIONARY
  5
F97F
330
F97E
100
AcDbDictionary
280
     1
281
     1
  3
ACAD_XREC_ROUNDTRIP
360
109F3
  3
BUMPTILE
360
F981
  3
DIFFUSETILE
360
F980
  3
OPACITYTILE
360
F984
  3
REFLECTIONTILE
360
F983
  3
REFRACTIONTILE
360
F985
  3
SPECULARTILE
360
F982
  0
DICTIONARY
  5
F977
330
F976
100
AcDbDictionary
280
     1
281
     1
  3
ACAD_XREC_ROUNDTRIP
360
109F2
  3
BUMPTILE
360
F979
  3
DIFFUSETILE
360
F978
  3
OPACITYTILE
360
F97C
  3
REFLECTIONTILE
360
F97B
  3
REFRACTIONTILE
360
F97D
  3
SPECULARTILE
360
F97A
  0
DICTIONARY
  5
F987
330
F986
100
AcDbDictionary
280
     1
281
     1
  3
ACAD_XREC_ROUNDTRIP
360
109F4
  3
BUMPTILE
360
F989
  3
DIFFUSETILE
360
F988
  3
OPACITYTILE
360
F98C
  3
REFLECTIONTILE
360
F98B
  3
REFRACTIONTILE
360
F98D
  3
SPECULARTILE
360
F98A
  0
DICTIONARY
  5
FC4B
330
F9A4
100
AcDbDictionary
280
     1
281
     1
  3
ACAD_ROUNDTRIP_2008_TABLESTYLE_CELLSTYLEMAP
360
109E9
  3
ACAD_XREC_ROUNDTRIP
360
10A1B
  0
DICTIONARY
  5
109FF
330
F994
100
AcDbDictionary
280
     1
281
     1
  3
ACAD_XREC_ROUNDTRIP
360
10A00
  0
DICTIONARY
  5
10A03
330
F996
100
AcDbDictionary
280
     1
281
     1
  3
ACAD_XREC_ROUNDTRIP
360
10A04
  0
DICTIONARY
  5
10A01
330
F995
100
AcDbDictionary
280
     1
281
     1
  3
ACAD_XREC_ROUNDTRIP
360
10A02
  0
DICTIONARY
  5
109FD
330
F993
100
AcDbDictionary
280
     1
281
     1
  3
ACAD_XREC_ROUNDTRIP
360
109FE
  0
DICTIONARY
  5
10A0B
330
F99A
100
AcDbDictionary
280
     1
281
     1
  3
ACAD_XREC_ROUNDTRIP
360
10A0C
  0
DICTIONARY
  5
10A13
330
F99E
100
AcDbDictionary
280
     1
281
     1
  3
ACAD_XREC_ROUNDTRIP
360
10A14
  0
DICTIONARY
  5
10A05
330
F997
100
AcDbDictionary
280
     1
281
     1
  3
ACAD_XREC_ROUNDTRIP
360
10A06
  0
DICTIONARY
  5
10A09
330
F999
100
AcDbDictionary
280
     1
281
     1
  3
ACAD_XREC_ROUNDTRIP
360
10A0A
  0
DICTIONARY
  5
10A19
330
F9A1
100
AcDbDictionary
280
     1
281
     1
  3
ACAD_XREC_ROUNDTRIP
360
10A1A
  0
DICTIONARY
  5
10A11
330
F99D
100
AcDbDictionary
280
     1
281
     1
  3
ACAD_XREC_ROUNDTRIP
360
10A12
  0
DICTIONARY
  5
109F5
330
F98F
100
AcDbDictionary
280
     1
281
     1
  3
ACAD_XREC_ROUNDTRIP
360
109F6
  0
DICTIONARY
  5
109F7
330
F990
100
AcDbDictionary
280
     1
281
     1
  3
ACAD_XREC_ROUNDTRIP
360
109F8
  0
DICTIONARY
  5
109F9
330
F991
100
AcDbDictionary
280
     1
281
     1
  3
ACAD_XREC_ROUNDTRIP
360
109FA
  0
DICTIONARY
  5
109FB
330
F992
100
AcDbDictionary
280
     1
281
     1
  3
ACAD_XREC_ROUNDTRIP
360
109FC
  0
DICTIONARY
  5
10A15
330
F99F
100
AcDbDictionary
280
     1
281
     1
  3
ACAD_XREC_ROUNDTRIP
360
10A16
  0
DICTIONARY
  5
10A0F
330
F99C
100
AcDbDictionary
280
     1
281
     1
  3
ACAD_XREC_ROUNDTRIP
360
10A10
  0
DICTIONARY
  5
10A17
330
F9A0
100
AcDbDictionary
280
     1
281
     1
  3
ACAD_XREC_ROUNDTRIP
360
10A18
  0
DICTIONARY
  5
10A07
330
F998
100
AcDbDictionary
280
     1
281
     1
  3
ACAD_XREC_ROUNDTRIP
360
10A08
  0
DICTIONARY
  5
10A0D
330
F99B
100
AcDbDictionary
280
     1
281
     1
  3
ACAD_XREC_ROUNDTRIP
360
10A0E
  0
XRECORD
  5
109EF
102
{ACAD_REACTORS
330
109EE
102
}
330
109EE
100
AcDbXrecord
280
     1
102
SHADEPLOT
 70
     0
102
SHADEPLOTRESLEVEL
 70
     2
102
SHADEPLOTCUSTOMDPI
 70
   300
  0
XRECORD
  5
109F1
102
{ACAD_REACTORS
330
109F0
102
}
330
109F0
100
AcDbXrecord
280
     1
102
SHADEPLOT
 70
     0
102
SHADEPLOTRESLEVEL
 70
     2
102
SHADEPLOTCUSTOMDPI
 70
   300
  0
XRECORD
  5
109F3
102
{ACAD_REACTORS
330
F97F
102
}
330
F97F
100
AcDbXrecord
280
     1
102
MATERIAL
148
0.0
149
0.0
149
0.0
 93
        0
 94
      127
282
     0
 72
     0
 77
     0
171
     0
175
     0
179
     0
273
     0
  0
XRECORD
  5
F981
102
{ACAD_REACTORS
330
F97F
102
}
330
F97F
100
AcDbXrecord
280
     1
270
     1
271
     1
  0
XRECORD
  5
F980
102
{ACAD_REACTORS
330
F97F
102
}
330
F97F
100
AcDbXrecord
280
     1
270
     1
271
     1
  0
XRECORD
  5
F984
102
{ACAD_REACTORS
330
F97F
102
}
330
F97F
100
AcDbXrecord
280
     1
270
     1
271
     1
  0
XRECORD
  5
F983
102
{ACAD_REACTORS
330
F97F
102
}
330
F97F
100
AcDbXrecord
280
     1
270
     1
271
     1
  0
XRECORD
  5
F985
102
{ACAD_REACTORS
330
F97F
102
}
330
F97F
100
AcDbXrecord
280
     1
270
     1
271
     1
  0
XRECORD
  5
F982
102
{ACAD_REACTORS
330
F97F
102
}
330
F97F
100
AcDbXrecord
280
     1
270
     1
271
     1
  0
XRECORD
  5
109F2
102
{ACAD_REACTORS
330
F977
102
}
330
F977
100
AcDbXrecord
280
     1
102
MATERIAL
148
0.0
149
0.0
149
0.0
 93
        0
 94
      127
282
     0
 72
     0
 77
     0
171
     0
175
     0
179
     0
273
     0
  0
XRECORD
  5
F979
102
{ACAD_REACTORS
330
F977
102
}
330
F977
100
AcDbXrecord
280
     1
270
     1
271
     1
  0
XRECORD
  5
F978
102
{ACAD_REACTORS
330
F977
102
}
330
F977
100
AcDbXrecord
280
     1
270
     1
271
     1
  0
XRECORD
  5
F97C
102
{ACAD_REACTORS
330
F977
102
}
330
F977
100
AcDbXrecord
280
     1
270
     1
271
     1
  0
XRECORD
  5
F97B
102
{ACAD_REACTORS
330
F977
102
}
330
F977
100
AcDbXrecord
280
     1
270
     1
271
     1
  0
XRECORD
  5
F97D
102
{ACAD_REACTORS
330
F977
102
}
330
F977
100
AcDbXrecord
280
     1
270
     1
271
     1
  0
XRECORD
  5
F97A
102
{ACAD_REACTORS
330
F977
102
}
330
F977
100
AcDbXrecord
280
     1
270
     1
271
     1
  0
XRECORD
  5
109F4
102
{ACAD_REACTORS
330
F987
102
}
330
F987
100
AcDbXrecord
280
     1
102
MATERIAL
148
0.0
149
0.0
149
0.0
 93
        0
 94
      127
282
     0
 72
     0
 77
     0
171
     0
175
     0
179
     0
273
     0
  0
XRECORD
  5
F989
102
{ACAD_REACTORS
330
F987
102
}
330
F987
100
AcDbXrecord
280
     1
270
     1
271
     1
  0
XRECORD
  5
F988
102
{ACAD_REACTORS
330
F987
102
}
330
F987
100
AcDbXrecord
280
     1
270
     1
271
     1
  0
XRECORD
  5
F98C
102
{ACAD_REACTORS
330
F987
102
}
330
F987
100
AcDbXrecord
280
     1
270
     1
271
     1
  0
XRECORD
  5
F98B
102
{ACAD_REACTORS
330
F987
102
}
330
F987
100
AcDbXrecord
280
     1
270
     1
271
     1
  0
XRECORD
  5
F98D
102
{ACAD_REACTORS
330
F987
102
}
330
F987
100
AcDbXrecord
280
     1
270
     1
271
     1
  0
XRECORD
  5
F98A
102
{ACAD_REACTORS
330
F987
102
}
330
F987
100
AcDbXrecord
280
     1
270
     1
271
     1
  0
CELLSTYLEMAP
  5
109E9
102
{ACAD_REACTORS
330
FC4B
102
}
330
FC4B
100
AcDbCellStyleMap
 90
        3
300
CELLSTYLE
  1
TABLEFORMAT_BEGIN
 90
        5
170
     1
 91
        0
 92
    32768
 62
   257
 93
        1
300
CONTENTFORMAT
  1
CONTENTFORMAT_BEGIN
 90
        0
 91
        0
 92
      512
 93
        0
300

 40
0.0
140
1.0
 94
        5
 62
     0
340
17
144
6.0
309
CONTENTFORMAT_END
171
     1
301
MARGIN
  1
CELLMARGIN_BEGIN
 40
1.5
 40
1.5
 40
1.5
 40
1.5
 40
4.5
 40
4.5
309
CELLMARGIN_END
 94
        6
 95
        1
302
GRIDFORMAT
  1
GRIDFORMAT_BEGIN
 90
        0
 91
        1
 62
     0
 92
       -2
340
0
 93
        0
 40
1.125
309
GRIDFORMAT_END
 95
        2
302
GRIDFORMAT
  1
GRIDFORMAT_BEGIN
 90
        0
 91
        1
 62
     0
 92
       -2
340
0
 93
        0
 40
1.125
309
GRIDFORMAT_END
 95
        4
302
GRIDFORMAT
  1
GRIDFORMAT_BEGIN
 90
        0
 91
        1
 62
     0
 92
       -2
340
0
 93
        0
 40
1.125
309
GRIDFORMAT_END
 95
        8
302
GRIDFORMAT
  1
GRIDFORMAT_BEGIN
 90
        0
 91
        1
 62
     0
 92
       -2
340
0
 93
        0
 40
1.125
309
GRIDFORMAT_END
 95
       16
302
GRIDFORMAT
  1
GRIDFORMAT_BEGIN
 90
        0
 91
        1
 62
     0
 92
       -2
340
0
 93
        0
 40
1.125
309
GRIDFORMAT_END
 95
       32
302
GRIDFORMAT
  1
GRIDFORMAT_BEGIN
 90
        0
 91
        1
 62
     0
 92
       -2
340
0
 93
        0
 40
1.125
309
GRIDFORMAT_END
309
TABLEFORMAT_END
  1
CELLSTYLE_BEGIN
 90
        1
 91
        1
300
_TITLE
309
CELLSTYLE_END
300
CELLSTYLE
  1
TABLEFORMAT_BEGIN
 90
        5
170
     1
 91
        0
 92
        0
 62
   257
 93
        1
300
CONTENTFORMAT
  1
CONTENTFORMAT_BEGIN
 90
        0
 91
        0
 92
      512
 93
        0
300

 40
0.0
140
1.0
 94
        5
 62
     0
340
17
144
4.5
309
CONTENTFORMAT_END
171
     1
301
MARGIN
  1
CELLMARGIN_BEGIN
 40
1.5
 40
1.5
 40
1.5
 40
1.5
 40
4.5
 40
4.5
309
CELLMARGIN_END
 94
        6
 95
        1
302
GRIDFORMAT
  1
GRIDFORMAT_BEGIN
 90
        0
 91
        1
 62
     0
 92
       -2
340
0
 93
        0
 40
1.125
309
GRIDFORMAT_END
 95
        2
302
GRIDFORMAT
  1
GRIDFORMAT_BEGIN
 90
        0
 91
        1
 62
     0
 92
       -2
340
0
 93
        0
 40
1.125
309
GRIDFORMAT_END
 95
        4
302
GRIDFORMAT
  1
GRIDFORMAT_BEGIN
 90
        0
 91
        1
 62
     0
 92
       -2
340
0
 93
        0
 40
1.125
309
GRIDFORMAT_END
 95
        8
302
GRIDFORMAT
  1
GRIDFORMAT_BEGIN
 90
        0
 91
        1
 62
     0
 92
       -2
340
0
 93
        0
 40
1.125
309
GRIDFORMAT_END
 95
       16
302
GRIDFORMAT
  1
GRIDFORMAT_BEGIN
 90
        0
 91
        1
 62
     0
 92
       -2
340
0
 93
        0
 40
1.125
309
GRIDFORMAT_END
 95
       32
302
GRIDFORMAT
  1
GRIDFORMAT_BEGIN
 90
        0
 91
        1
 62
     0
 92
       -2
340
0
 93
        0
 40
1.125
309
GRIDFORMAT_END
309
TABLEFORMAT_END
  1
CELLSTYLE_BEGIN
 90
        2
 91
        1
300
_HEADER
309
CELLSTYLE_END
300
CELLSTYLE
  1
TABLEFORMAT_BEGIN
 90
        5
170
     1
 91
        0
 92
        0
 62
   257
 93
        1
300
CONTENTFORMAT
  1
CONTENTFORMAT_BEGIN
 90
        0
 91
        0
 92
      512
 93
        0
300

 40
0.0
140
1.0
 94
        2
 62
     0
340
17
144
4.5
309
CONTENTFORMAT_END
171
     1
301
MARGIN
  1
CELLMARGIN_BEGIN
 40
1.5
 40
1.5
 40
1.5
 40
1.5
 40
4.5
 40
4.5
309
CELLMARGIN_END
 94
        6
 95
        1
302
GRIDFORMAT
  1
GRIDFORMAT_BEGIN
 90
        0
 91
        1
 62
     0
 92
       -2
340
0
 93
        0
 40
1.125
309
GRIDFORMAT_END
 95
        2
302
GRIDFORMAT
  1
GRIDFORMAT_BEGIN
 90
        0
 91
        1
 62
     0
 92
       -2
340
0
 93
        0
 40
1.125
309
GRIDFORMAT_END
 95
        4
302
GRIDFORMAT
  1
GRIDFORMAT_BEGIN
 90
        0
 91
        1
 62
     0
 92
       -2
340
0
 93
        0
 40
1.125
309
GRIDFORMAT_END
 95
        8
302
GRIDFORMAT
  1
GRIDFORMAT_BEGIN
 90
        0
 91
        1
 62
     0
 92
       -2
340
0
 93
        0
 40
1.125
309
GRIDFORMAT_END
 95
       16
302
GRIDFORMAT
  1
GRIDFORMAT_BEGIN
 90
        0
 91
        1
 62
     0
 92
       -2
340
0
 93
        0
 40
1.125
309
GRIDFORMAT_END
 95
       32
302
GRIDFORMAT
  1
GRIDFORMAT_BEGIN
 90
        0
 91
        1
 62
     0
 92
       -2
340
0
 93
        0
 40
1.125
309
GRIDFORMAT_END
309
TABLEFORMAT_END
  1
CELLSTYLE_BEGIN
 90
        3
 91
        2
300
_DATA
309
CELLSTYLE_END
  0
XRECORD
  5
10A1B
102
{ACAD_REACTORS
330
FC4B
102
}
330
FC4B
100
AcDbXrecord
280
     1
102
ACAD_ROUNDTRIP_PRE2007_TABLESTYLE
 90
      512
 91
        0
  1

 92
      512
 93
        0
  2

 94
      512
 95
        0
  3

  0
XRECORD
  5
10A00
102
{ACAD_REACTORS
330
109FF
102
}
330
109FF
100
AcDbXrecord
280
     1
102
RTVSPropertyOp0
 70
     1
102
RTVSPropertyOp1
 70
     1
102
RTVSPropertyOp2
 70
     1
102
RTVSPropertyOp3
 70
     1
102
RTVSPropertyOp4
 70
     1
102
RTVSPropertyOp5
 70
     1
102
RTVSPropertyOp6
 70
     1
102
RTVSPropertyOp7
 70
     1
102
RTVSPropertyOp8
 70
     1
102
RTVSPropertyOp9
 70
     1
102
RTVSPropertyOp10
 70
     1
102
RTVSPropertyOp11
 70
     1
102
RTVSPropertyOp12
 70
     1
102
RTVSPropertyOp13
 70
     1
102
RTVSPropertyOp14
 70
     1
102
RTVSPropertyOp15
 70
     1
102
RTVSPropertyOp16
 70
     1
102
RTVSPropertyOp17
 70
     1
102
RTVSPropertyOp18
 70
     1
102
RTVSPropertyOp19
 70
     1
102
RTVSPropertyOp20
 70
     1
102
RTVSPropertyOp21
 70
     1
102
RTVSPropertyOp22
 70
     1
102
RTVSPropertyOp23
 70
     1
102
RTVSPropertyOp24
 70
     1
102
RTVSPropertyOp25
 70
     1
102
RTVSPropertyOp26
 70
     1
102
RTVSPropertyOp27
 70
     1
  0
XRECORD
  5
10A04
102
{ACAD_REACTORS
330
10A03
102
}
330
10A03
100
AcDbXrecord
280
     1
102
RTVSPropertyOp0
 70
     1
102
RTVSPropertyOp1
 70
     1
102
RTVSPropertyOp2
 70
     1
102
RTVSPropertyOp3
 70
     1
102
RTVSPropertyOp4
 70
     1
102
RTVSPropertyOp5
 70
     1
102
RTVSPropertyOp6
 70
     1
102
RTVSPropertyOp7
 70
     1
102
RTVSPropertyOp8
 70
     1
102
RTVSPropertyOp9
 70
     1
102
RTVSPropertyOp10
 70
     1
102
RTVSPropertyOp11
 70
     1
102
RTVSPropertyOp12
 70
     1
102
RTVSPropertyOp13
 70
     1
102
RTVSPropertyOp14
 70
     1
102
RTVSPropertyOp15
 70
     1
102
RTVSPropertyOp16
 70
     1
102
RTVSPropertyOp17
 70
     1
102
RTVSPropertyOp18
 70
     1
102
RTVSPropertyOp19
 70
     1
102
RTVSPropertyOp20
 70
     1
102
RTVSPropertyOp21
 70
     1
102
RTVSPropertyOp22
 70
     1
102
RTVSPropertyOp23
 70
     1
102
RTVSPropertyOp24
 70
     1
102
RTVSPropertyOp25
 70
     1
102
RTVSPropertyOp26
 70
     1
102
RTVSPropertyOp27
 70
     1
  0
XRECORD
  5
10A02
102
{ACAD_REACTORS
330
10A01
102
}
330
10A01
100
AcDbXrecord
280
     1
102
RTVSPropertyOp0
 70
     1
102
RTVSPropertyOp1
 70
     1
102
RTVSPropertyOp2
 70
     1
102
RTVSPropertyOp3
 70
     1
102
RTVSPropertyOp4
 70
     1
102
RTVSPropertyOp5
 70
     1
102
RTVSPropertyOp6
 70
     1
102
RTVSPropertyOp7
 70
     1
102
RTVSPropertyOp8
 70
     1
102
RTVSPropertyOp9
 70
     1
102
RTVSPropertyOp10
 70
     1
102
RTVSPropertyOp11
 70
     1
102
RTVSPropertyOp12
 70
     1
102
RTVSPropertyOp13
 70
     1
102
RTVSPropertyOp14
 70
     1
102
RTVSPropertyOp15
 70
     1
102
RTVSPropertyOp16
 70
     1
102
RTVSPropertyOp17
 70
     1
102
RTVSPropertyOp18
 70
     1
102
RTVSPropertyOp19
 70
     1
102
RTVSPropertyOp20
 70
     1
102
RTVSPropertyOp21
 70
     1
102
RTVSPropertyOp22
 70
     1
102
RTVSPropertyOp23
 70
     1
102
RTVSPropertyOp24
 70
     1
102
RTVSPropertyOp25
 70
     1
102
RTVSPropertyOp26
 70
     1
102
RTVSPropertyOp27
 70
     1
  0
XRECORD
  5
109FE
102
{ACAD_REACTORS
330
109FD
102
}
330
109FD
100
AcDbXrecord
280
     1
102
RTVSPropertyOp0
 70
     1
102
RTVSPropertyOp1
 70
     1
102
RTVSPropertyOp2
 70
     1
102
RTVSPropertyOp3
 70
     1
102
RTVSPropertyOp4
 70
     1
102
RTVSPropertyOp5
 70
     1
102
RTVSPropertyOp6
 70
     1
102
RTVSPropertyOp7
 70
     1
102
RTVSPropertyOp8
 70
     1
102
RTVSPropertyOp9
 70
     1
102
RTVSPropertyOp10
 70
     1
102
RTVSPropertyOp11
 70
     1
102
RTVSPropertyOp12
 70
     1
102
RTVSPropertyOp13
 70
     1
102
RTVSPropertyOp14
 70
     1
102
RTVSPropertyOp15
 70
     1
102
RTVSPropertyOp16
 70
     1
102
RTVSPropertyOp17
 70
     1
102
RTVSPropertyOp18
 70
     1
102
RTVSPropertyOp19
 70
     1
102
RTVSPropertyOp20
 70
     1
102
RTVSPropertyOp21
 70
     1
102
RTVSPropertyOp22
 70
     1
102
RTVSPropertyOp23
 70
     1
102
RTVSPropertyOp24
 70
     1
102
RTVSPropertyOp25
 70
     1
102
RTVSPropertyOp26
 70
     1
102
RTVSPropertyOp27
 70
     1
  0
XRECORD
  5
10A0C
102
{ACAD_REACTORS
330
10A0B
102
}
330
10A0B
100
AcDbXrecord
280
     1
102
RTVSPropertyOp0
 70
     1
102
RTVSPropertyOp1
 70
     1
102
RTVSPropertyOp2
 70
     1
102
RTVSPropertyOp3
 70
     1
102
RTVSPropertyOp4
 70
     1
102
RTVSPropertyOp5
 70
     1
102
RTVSPropertyOp6
 70
     1
102
RTVSPropertyOp7
 70
     1
102
RTVSPropertyOp8
 70
     1
102
RTVSPropertyOp9
 70
     1
102
RTVSPropertyOp10
 70
     1
102
RTVSPropertyOp11
 70
     1
102
RTVSPropertyOp12
 70
     1
102
RTVSPropertyOp13
 70
     1
102
RTVSPropertyOp14
 70
     1
102
RTVSPropertyOp15
 70
     1
102
RTVSPropertyOp16
 70
     1
102
RTVSPropertyOp17
 70
     1
102
RTVSPropertyOp18
 70
     1
102
RTVSPropertyOp19
 70
     1
102
RTVSPropertyOp20
 70
     1
102
RTVSPropertyOp21
 70
     1
102
RTVSPropertyOp22
 70
     1
102
RTVSPropertyOp23
 70
     1
102
RTVSPropertyOp24
 70
     1
102
RTVSPropertyOp25
 70
     1
102
RTVSPropertyOp26
 70
     1
102
RTVSPropertyOp27
 70
     1
  0
XRECORD
  5
10A14
102
{ACAD_REACTORS
330
10A13
102
}
330
10A13
100
AcDbXrecord
280
     1
102
RTVSPropertyOp0
 70
     1
102
RTVSPropertyOp1
 70
     1
102
RTVSPropertyOp2
 70
     1
102
RTVSPropertyOp3
 70
     1
102
RTVSPropertyOp4
 70
     1
102
RTVSPropertyOp5
 70
     1
102
RTVSPropertyOp6
 70
     1
102
RTVSPropertyOp7
 70
     1
102
RTVSPropertyOp8
 70
     1
102
RTVSPropertyOp9
 70
     1
102
RTVSPropertyOp10
 70
     1
102
RTVSPropertyOp11
 70
     1
102
RTVSPropertyOp12
 70
     1
102
RTVSPropertyOp13
 70
     1
102
RTVSPropertyOp14
 70
     1
102
RTVSPropertyOp15
 70
     1
102
RTVSPropertyOp16
 70
     1
102
RTVSPropertyOp17
 70
     1
102
RTVSPropertyOp18
 70
     1
102
RTVSPropertyOp19
 70
     1
102
RTVSPropertyOp20
 70
     1
102
RTVSPropertyOp21
 70
     1
102
RTVSPropertyOp22
 70
     1
102
RTVSPropertyOp23
 70
     1
102
RTVSPropertyOp24
 70
     1
102
RTVSPropertyOp25
 70
     1
102
RTVSPropertyOp26
 70
     1
102
RTVSPropertyOp27
 70
     1
  0
XRECORD
  5
10A06
102
{ACAD_REACTORS
330
10A05
102
}
330
10A05
100
AcDbXrecord
280
     1
102
RTVSPropertyOp0
 70
     1
102
RTVSPropertyOp1
 70
     1
102
RTVSPropertyOp2
 70
     1
102
RTVSPropertyOp3
 70
     1
102
RTVSPropertyOp4
 70
     1
102
RTVSPropertyOp5
 70
     1
102
RTVSPropertyOp6
 70
     1
102
RTVSPropertyOp7
 70
     1
102
RTVSPropertyOp8
 70
     1
102
RTVSPropertyOp9
 70
     1
102
RTVSPropertyOp10
 70
     1
102
RTVSPropertyOp11
 70
     1
102
RTVSPropertyOp12
 70
     1
102
RTVSPropertyOp13
 70
     1
102
RTVSPropertyOp14
 70
     1
102
RTVSPropertyOp15
 70
     1
102
RTVSPropertyOp16
 70
     1
102
RTVSPropertyOp17
 70
     1
102
RTVSPropertyOp18
 70
     1
102
RTVSPropertyOp19
 70
     1
102
RTVSPropertyOp20
 70
     1
102
RTVSPropertyOp21
 70
     1
102
RTVSPropertyOp22
 70
     1
102
RTVSPropertyOp23
 70
     1
102
RTVSPropertyOp24
 70
     1
102
RTVSPropertyOp25
 70
     1
102
RTVSPropertyOp26
 70
     1
102
RTVSPropertyOp27
 70
     1
  0
XRECORD
  5
10A0A
102
{ACAD_REACTORS
330
10A09
102
}
330
10A09
100
AcDbXrecord
280
     1
102
RTVSPropertyOp0
 70
     1
102
RTVSPropertyOp1
 70
     1
102
RTVSPropertyOp2
 70
     1
102
RTVSPropertyOp3
 70
     1
102
RTVSPropertyOp4
 70
     1
102
RTVSPropertyOp5
 70
     1
102
RTVSPropertyOp6
 70
     1
102
RTVSPropertyOp7
 70
     1
102
RTVSPropertyOp8
 70
     1
102
RTVSPropertyOp9
 70
     1
102
RTVSPropertyOp10
 70
     1
102
RTVSPropertyOp11
 70
     1
102
RTVSPropertyOp12
 70
     1
102
RTVSPropertyOp13
 70
     1
102
RTVSPropertyOp14
 70
     1
102
RTVSPropertyOp15
 70
     1
102
RTVSPropertyOp16
 70
     1
102
RTVSPropertyOp17
 70
     1
102
RTVSPropertyOp18
 70
     1
102
RTVSPropertyOp19
 70
     1
102
RTVSPropertyOp20
 70
     1
102
RTVSPropertyOp21
 70
     1
102
RTVSPropertyOp22
 70
     1
102
RTVSPropertyOp23
 70
     1
102
RTVSPropertyOp24
 70
     1
102
RTVSPropertyOp25
 70
     1
102
RTVSPropertyOp26
 70
     1
102
RTVSPropertyOp27
 70
     1
  0
XRECORD
  5
10A1A
102
{ACAD_REACTORS
330
10A19
102
}
330
10A19
100
AcDbXrecord
280
     1
102
RTVSPropertyOp0
 70
     0
102
RTVSPropertyOp1
 70
     0
102
RTVSPropertyOp2
 70
     0
102
RTVSPropertyOp3
 70
     0
102
RTVSPropertyOp4
 70
     0
102
RTVSPropertyOp5
 70
     0
102
RTVSPropertyOp6
 70
     0
102
RTVSPropertyOp7
 70
     0
102
RTVSPropertyOp8
 70
     0
102
RTVSPropertyOp9
 70
     0
102
RTVSPropertyOp10
 70
     0
102
RTVSPropertyOp11
 70
     0
102
RTVSPropertyOp12
 70
     0
102
RTVSPropertyOp13
 70
     0
102
RTVSPropertyOp14
 70
     2
102
RTVSPropertyOp15
 70
     0
102
RTVSPropertyOp16
 70
     0
102
RTVSPropertyOp17
 70
     0
102
RTVSPropertyOp18
 70
     0
102
RTVSPropertyOp19
 70
     0
102
RTVSPropertyOp20
 70
     0
102
RTVSPropertyOp21
 70
     0
102
RTVSPropertyOp22
 70
     0
102
RTVSPropertyOp23
 70
     0
102
RTVSPropertyOp24
 70
     0
102
RTVSPropertyOp25
 70
     0
102
RTVSPropertyOp26
 70
     0
102
RTVSPropertyOp27
 70
     0
  0
XRECORD
  5
10A12
102
{ACAD_REACTORS
330
10A11
102
}
330
10A11
100
AcDbXrecord
280
     1
102
RTVSPropertyOp0
 70
     1
102
RTVSPropertyOp1
 70
     1
102
RTVSPropertyOp2
 70
     1
102
RTVSPropertyOp3
 70
     1
102
RTVSPropertyOp4
 70
     1
102
RTVSPropertyOp5
 70
     1
102
RTVSPropertyOp6
 70
     1
102
RTVSPropertyOp7
 70
     1
102
RTVSPropertyOp8
 70
     1
102
RTVSPropertyOp9
 70
     1
102
RTVSPropertyOp10
 70
     1
102
RTVSPropertyOp11
 70
     1
102
RTVSPropertyOp12
 70
     1
102
RTVSPropertyOp13
 70
     1
102
RTVSPropertyOp14
 70
     1
102
RTVSPropertyOp15
 70
     1
102
RTVSPropertyOp16
 70
     1
102
RTVSPropertyOp17
 70
     1
102
RTVSPropertyOp18
 70
     1
102
RTVSPropertyOp19
 70
     1
102
RTVSPropertyOp20
 70
     1
102
RTVSPropertyOp21
 70
     1
102
RTVSPropertyOp22
 70
     1
102
RTVSPropertyOp23
 70
     1
102
RTVSPropertyOp24
 70
     1
102
RTVSPropertyOp25
 70
     1
102
RTVSPropertyOp26
 70
     1
102
RTVSPropertyOp27
 70
     1
  0
XRECORD
  5
109F6
102
{ACAD_REACTORS
330
109F5
102
}
330
109F5
100
AcDbXrecord
280
     1
102
RTVSPropertyOp0
 70
     1
102
RTVSPropertyOp1
 70
     1
102
RTVSPropertyOp2
 70
     1
102
RTVSPropertyOp3
 70
     1
102
RTVSPropertyOp4
 70
     1
102
RTVSPropertyOp5
 70
     1
102
RTVSPropertyOp6
 70
     1
102
RTVSPropertyOp7
 70
     1
102
RTVSPropertyOp8
 70
     1
102
RTVSPropertyOp9
 70
     1
102
RTVSPropertyOp10
 70
     1
102
RTVSPropertyOp11
 70
     1
102
RTVSPropertyOp12
 70
     1
102
RTVSPropertyOp13
 70
     1
102
RTVSPropertyOp14
 70
     1
102
RTVSPropertyOp15
 70
     1
102
RTVSPropertyOp16
 70
     1
102
RTVSPropertyOp17
 70
     1
102
RTVSPropertyOp18
 70
     1
102
RTVSPropertyOp19
 70
     1
102
RTVSPropertyOp20
 70
     1
102
RTVSPropertyOp21
 70
     1
102
RTVSPropertyOp22
 70
     1
102
RTVSPropertyOp23
 70
     1
102
RTVSPropertyOp24
 70
     1
102
RTVSPropertyOp25
 70
     1
102
RTVSPropertyOp26
 70
     1
102
RTVSPropertyOp27
 70
     1
  0
XRECORD
  5
109F8
102
{ACAD_REACTORS
330
109F7
102
}
330
109F7
100
AcDbXrecord
280
     1
102
RTVSPropertyOp0
 70
     1
102
RTVSPropertyOp1
 70
     1
102
RTVSPropertyOp2
 70
     1
102
RTVSPropertyOp3
 70
     1
102
RTVSPropertyOp4
 70
     1
102
RTVSPropertyOp5
 70
     1
102
RTVSPropertyOp6
 70
     1
102
RTVSPropertyOp7
 70
     1
102
RTVSPropertyOp8
 70
     1
102
RTVSPropertyOp9
 70
     1
102
RTVSPropertyOp10
 70
     1
102
RTVSPropertyOp11
 70
     1
102
RTVSPropertyOp12
 70
     1
102
RTVSPropertyOp13
 70
     1
102
RTVSPropertyOp14
 70
     1
102
RTVSPropertyOp15
 70
     1
102
RTVSPropertyOp16
 70
     1
102
RTVSPropertyOp17
 70
     1
102
RTVSPropertyOp18
 70
     1
102
RTVSPropertyOp19
 70
     1
102
RTVSPropertyOp20
 70
     1
102
RTVSPropertyOp21
 70
     1
102
RTVSPropertyOp22
 70
     1
102
RTVSPropertyOp23
 70
     1
102
RTVSPropertyOp24
 70
     1
102
RTVSPropertyOp25
 70
     1
102
RTVSPropertyOp26
 70
     1
102
RTVSPropertyOp27
 70
     1
  0
XRECORD
  5
109FA
102
{ACAD_REACTORS
330
109F9
102
}
330
109F9
100
AcDbXrecord
280
     1
102
RTVSPropertyOp0
 70
     1
102
RTVSPropertyOp1
 70
     1
102
RTVSPropertyOp2
 70
     1
102
RTVSPropertyOp3
 70
     1
102
RTVSPropertyOp4
 70
     1
102
RTVSPropertyOp5
 70
     1
102
RTVSPropertyOp6
 70
     1
102
RTVSPropertyOp7
 70
     1
102
RTVSPropertyOp8
 70
     1
102
RTVSPropertyOp9
 70
     1
102
RTVSPropertyOp10
 70
     1
102
RTVSPropertyOp11
 70
     1
102
RTVSPropertyOp12
 70
     1
102
RTVSPropertyOp13
 70
     1
102
RTVSPropertyOp14
 70
     1
102
RTVSPropertyOp15
 70
     1
102
RTVSPropertyOp16
 70
     1
102
RTVSPropertyOp17
 70
     1
102
RTVSPropertyOp18
 70
     1
102
RTVSPropertyOp19
 70
     1
102
RTVSPropertyOp20
 70
     1
102
RTVSPropertyOp21
 70
     1
102
RTVSPropertyOp22
 70
     1
102
RTVSPropertyOp23
 70
     1
102
RTVSPropertyOp24
 70
     1
102
RTVSPropertyOp25
 70
     1
102
RTVSPropertyOp26
 70
     1
102
RTVSPropertyOp27
 70
     1
  0
XRECORD
  5
109FC
102
{ACAD_REACTORS
330
109FB
102
}
330
109FB
100
AcDbXrecord
280
     1
102
RTVSPropertyOp0
 70
     1
102
RTVSPropertyOp1
 70
     1
102
RTVSPropertyOp2
 70
     1
102
RTVSPropertyOp3
 70
     1
102
RTVSPropertyOp4
 70
     1
102
RTVSPropertyOp5
 70
     1
102
RTVSPropertyOp6
 70
     1
102
RTVSPropertyOp7
 70
     1
102
RTVSPropertyOp8
 70
     1
102
RTVSPropertyOp9
 70
     1
102
RTVSPropertyOp10
 70
     1
102
RTVSPropertyOp11
 70
     1
102
RTVSPropertyOp12
 70
     1
102
RTVSPropertyOp13
 70
     1
102
RTVSPropertyOp14
 70
     1
102
RTVSPropertyOp15
 70
     1
102
RTVSPropertyOp16
 70
     1
102
RTVSPropertyOp17
 70
     1
102
RTVSPropertyOp18
 70
     1
102
RTVSPropertyOp19
 70
     1
102
RTVSPropertyOp20
 70
     1
102
RTVSPropertyOp21
 70
     1
102
RTVSPropertyOp22
 70
     1
102
RTVSPropertyOp23
 70
     1
102
RTVSPropertyOp24
 70
     1
102
RTVSPropertyOp25
 70
     1
102
RTVSPropertyOp26
 70
     1
102
RTVSPropertyOp27
 70
     1
  0
XRECORD
  5
10A16
102
{ACAD_REACTORS
330
10A15
102
}
330
10A15
100
AcDbXrecord
280
     1
102
RTVSPropertyOp0
 70
     0
102
RTVSPropertyOp1
 70
     0
102
RTVSPropertyOp2
 70
     0
102
RTVSPropertyOp3
 70
     0
102
RTVSPropertyOp4
 70
     0
102
RTVSPropertyOp5
 70
     0
102
RTVSPropertyOp6
 70
     0
102
RTVSPropertyOp7
 70
     0
102
RTVSPropertyOp8
 70
     0
102
RTVSPropertyOp9
 70
     0
102
RTVSPropertyOp10
 70
     0
102
RTVSPropertyOp11
 70
     0
102
RTVSPropertyOp12
 70
     0
102
RTVSPropertyOp13
 70
     0
102
RTVSPropertyOp14
 70
     2
102
RTVSPropertyOp15
 70
     0
102
RTVSPropertyOp16
 70
     0
102
RTVSPropertyOp17
 70
     0
102
RTVSPropertyOp18
 70
     0
102
RTVSPropertyOp19
 70
     0
102
RTVSPropertyOp20
 70
     0
102
RTVSPropertyOp21
 70
     0
102
RTVSPropertyOp22
 70
     0
102
RTVSPropertyOp23
 70
     0
102
RTVSPropertyOp24
 70
     0
102
RTVSPropertyOp25
 70
     0
102
RTVSPropertyOp26
 70
     0
102
RTVSPropertyOp27
 70
     0
  0
XRECORD
  5
10A10
102
{ACAD_REACTORS
330
10A0F
102
}
330
10A0F
100
AcDbXrecord
280
     1
102
RTVSPropertyOp0
 70
     1
102
RTVSPropertyOp1
 70
     1
102
RTVSPropertyOp2
 70
     1
102
RTVSPropertyOp3
 70
     1
102
RTVSPropertyOp4
 70
     1
102
RTVSPropertyOp5
 70
     1
102
RTVSPropertyOp6
 70
     1
102
RTVSPropertyOp7
 70
     1
102
RTVSPropertyOp8
 70
     1
102
RTVSPropertyOp9
 70
     1
102
RTVSPropertyOp10
 70
     1
102
RTVSPropertyOp11
 70
     1
102
RTVSPropertyOp12
 70
     1
102
RTVSPropertyOp13
 70
     1
102
RTVSPropertyOp14
 70
     1
102
RTVSPropertyOp15
 70
     1
102
RTVSPropertyOp16
 70
     1
102
RTVSPropertyOp17
 70
     1
102
RTVSPropertyOp18
 70
     1
102
RTVSPropertyOp19
 70
     1
102
RTVSPropertyOp20
 70
     1
102
RTVSPropertyOp21
 70
     1
102
RTVSPropertyOp22
 70
     1
102
RTVSPropertyOp23
 70
     1
102
RTVSPropertyOp24
 70
     1
102
RTVSPropertyOp25
 70
     1
102
RTVSPropertyOp26
 70
     1
102
RTVSPropertyOp27
 70
     1
  0
XRECORD
  5
10A18
102
{ACAD_REACTORS
330
10A17
102
}
330
10A17
100
AcDbXrecord
280
     1
102
RTVSPropertyOp0
 70
     0
102
RTVSPropertyOp1
 70
     0
102
RTVSPropertyOp2
 70
     0
102
RTVSPropertyOp3
 70
     0
102
RTVSPropertyOp4
 70
     0
102
RTVSPropertyOp5
 70
     0
102
RTVSPropertyOp6
 70
     0
102
RTVSPropertyOp7
 70
     0
102
RTVSPropertyOp8
 70
     0
102
RTVSPropertyOp9
 70
     0
102
RTVSPropertyOp10
 70
     0
102
RTVSPropertyOp11
 70
     0
102
RTVSPropertyOp12
 70
     0
102
RTVSPropertyOp13
 70
     0
102
RTVSPropertyOp14
 70
     2
102
RTVSPropertyOp15
 70
     0
102
RTVSPropertyOp16
 70
     0
102
RTVSPropertyOp17
 70
     0
102
RTVSPropertyOp18
 70
     0
102
RTVSPropertyOp19
 70
     0
102
RTVSPropertyOp20
 70
     0
102
RTVSPropertyOp21
 70
     0
102
RTVSPropertyOp22
 70
     0
102
RTVSPropertyOp23
 70
     0
102
RTVSPropertyOp24
 70
     0
102
RTVSPropertyOp25
 70
     0
102
RTVSPropertyOp26
 70
     0
102
RTVSPropertyOp27
 70
     0
  0
XRECORD
  5
10A08
102
{ACAD_REACTORS
330
10A07
102
}
330
10A07
100
AcDbXrecord
280
     1
102
RTVSPropertyOp0
 70
     1
102
RTVSPropertyOp1
 70
     1
102
RTVSPropertyOp2
 70
     1
102
RTVSPropertyOp3
 70
     1
102
RTVSPropertyOp4
 70
     1
102
RTVSPropertyOp5
 70
     1
102
RTVSPropertyOp6
 70
     1
102
RTVSPropertyOp7
 70
     1
102
RTVSPropertyOp8
 70
     1
102
RTVSPropertyOp9
 70
     1
102
RTVSPropertyOp10
 70
     1
102
RTVSPropertyOp11
 70
     1
102
RTVSPropertyOp12
 70
     1
102
RTVSPropertyOp13
 70
     1
102
RTVSPropertyOp14
 70
     1
102
RTVSPropertyOp15
 70
     1
102
RTVSPropertyOp16
 70
     1
102
RTVSPropertyOp17
 70
     1
102
RTVSPropertyOp18
 70
     1
102
RTVSPropertyOp19
 70
     1
102
RTVSPropertyOp20
 70
     1
102
RTVSPropertyOp21
 70
     1
102
RTVSPropertyOp22
 70
     1
102
RTVSPropertyOp23
 70
     1
102
RTVSPropertyOp24
 70
     1
102
RTVSPropertyOp25
 70
     1
102
RTVSPropertyOp26
 70
     1
102
RTVSPropertyOp27
 70
     1
  0
XRECORD
  5
10A0E
102
{ACAD_REACTORS
330
10A0D
102
}
330
10A0D
100
AcDbXrecord
280
     1
102
RTVSPropertyOp0
 70
     1
102
RTVSPropertyOp1
 70
     1
102
RTVSPropertyOp2
 70
     1
102
RTVSPropertyOp3
 70
     1
102
RTVSPropertyOp4
 70
     1
102
RTVSPropertyOp5
 70
     1
102
RTVSPropertyOp6
 70
     1
102
RTVSPropertyOp7
 70
     1
102
RTVSPropertyOp8
 70
     1
102
RTVSPropertyOp9
 70
     1
102
RTVSPropertyOp10
 70
     1
102
RTVSPropertyOp11
 70
     1
102
RTVSPropertyOp12
 70
     1
102
RTVSPropertyOp13
 70
     1
102
RTVSPropertyOp14
 70
     1
102
RTVSPropertyOp15
 70
     1
102
RTVSPropertyOp16
 70
     1
102
RTVSPropertyOp17
 70
     1
102
RTVSPropertyOp18
 70
     1
102
RTVSPropertyOp19
 70
     1
102
RTVSPropertyOp20
 70
     1
102
RTVSPropertyOp21
 70
     1
102
RTVSPropertyOp22
 70
     1
102
RTVSPropertyOp23
 70
     1
102
RTVSPropertyOp24
 70
     1
102
RTVSPropertyOp25
 70
     1
102
RTVSPropertyOp26
 70
     1
102
RTVSPropertyOp27
 70
     1
  0
ENDSEC
  0
EOF
