  0
SECTION
  2
HEADER
  9
$ACADVER
  1
AC1015
  9
$ACADMAINTVER
 70
    20
  9
$DWGCODEPAGE
  3
ANSI_949
  9
$INSBASE
 10
0.0
 20
0.0
 30
0.0
  9
$EXTMIN
 10
0.0
 20
-386.9041096574014
 30
0.0
  9
$EXTMAX
 10
1736.658569128964
 20
841.0
 30
0.0
  9
$LIMMIN
 10
0.0
 20
0.0
  9
$LIMMAX
 10
594.0
 20
420.0
  9
$ORTHOMODE
 70
     1
  9
$REGENMODE
 70
     1
  9
$FILLMODE
 70
     1
  9
$QTEXTMODE
 70
     0
  9
$MIRRTEXT
 70
     1
  9
$LTSCALE
 40
1.0
  9
$ATTMODE
 70
     1
  9
$TEXTSIZE
 40
62.50587047096201
  9
$TRACEWID
 40
1.0
  9
$TEXTSTYLE
  7
STANDARD
  9
$CLAYER
  8
0
  9
$CELTYPE
  6
BYLAYER
  9
$CECOLOR
 62
   256
  9
$CELTSCALE
 40
1.0
  9
$DISPSILH
 70
     0
  9
$DIMSCALE
 40
1.0
  9
$DIMASZ
 40
2.5
  9
$DIMEXO
 40
0.625
  9
$DIMDLI
 40
5.0
  9
$DIMRND
 40
0.0
  9
$DIMDLE
 40
0.0
  9
$DIMEXE
 40
0.8
  9
$DIMTP
 40
0.0
  9
$DIMTM
 40
0.0
  9
$DIMTXT
 40
3.0
  9
$DIMCEN
 40
2.5
  9
$DIMTSZ
 40
0.0
  9
$DIMTOL
 70
     0
  9
$DIMLIM
 70
     0
  9
$DIMTIH
 70
     0
  9
$DIMTOH
 70
     0
  9
$DIMSE1
 70
     0
  9
$DIMSE2
 70
     0
  9
$DIMTAD
 70
     1
  9
$DIMZIN
 70
     8
  9
$DIMBLK
  1

  9
$DIMASO
 70
     1
  9
$DIMSHO
 70
     1
  9
$DIMPOST
  1

  9
$DIMAPOST
  1

  9
$DIMALT
 70
     0
  9
$DIMALTD
 70
     3
  9
$DIMALTF
 40
0.03937007874016
  9
$DIMLFAC
 40
1.0
  9
$DIMTOFL
 70
     1
  9
$DIMTVP
 40
0.0
  9
$DIMTIX
 70
     0
  9
$DIMSOXD
 70
     0
  9
$DIMSAH
 70
     0
  9
$DIMBLK1
  1

  9
$DIMBLK2
  1

  9
$DIMSTYLE
  2
STANDARD
  9
$DIMCLRD
 70
     4
  9
$DIMCLRE
 70
     4
  9
$DIMCLRT
 70
     4
  9
$DIMTFAC
 40
1.0
  9
$DIMGAP
 40
0.5
  9
$DIMJUST
 70
     0
  9
$DIMSD1
 70
     0
  9
$DIMSD2
 70
     0
  9
$DIMTOLJ
 70
     0
  9
$DIMTZIN
 70
     8
  9
$DIMALTZ
 70
     0
  9
$DIMALTTZ
 70
     0
  9
$DIMUPT
 70
     0
  9
$DIMDEC
 70
     1
  9
$DIMTDEC
 70
     1
  9
$DIMALTU
 70
     2
  9
$DIMALTTD
 70
     3
  9
$DIMTXSTY
  7
STANDARD
  9
$DIMAUNIT
 70
     0
  9
$DIMADEC
 70
     0
  9
$DIMALTRND
 40
0.0
  9
$DIMAZIN
 70
     0
  9
$DIMDSEP
 70
    46
  9
$DIMATFIT
 70
     0
  9
$DIMFRAC
 70
     0
  9
$DIMLDRBLK
  1

  9
$DIMLUNIT
 70
     2
  9
$DIMLWD
 70
    -2
  9
$DIMLWE
 70
    -2
  9
$DIMTMOVE
 70
     0
  9
$LUNITS
 70
     2
  9
$LUPREC
 70
     4
  9
$SKETCHINC
 40
1.0
  9
$FILLETRAD
 40
2.5
  9
$AUNITS
 70
     0
  9
$AUPREC
 70
     0
  9
$MENU
  1
.
  9
$ELEVATION
 40
0.0
  9
$PELEVATION
 40
0.0
  9
$THICKNESS
 40
0.0
  9
$LIMCHECK
 70
     0
  9
$CHAMFERA
 40
2.5
  9
$CHAMFERB
 40
2.5
  9
$CHAMFERC
 40
0.0
  9
$CHAMFERD
 40
0.0
  9
$SKPOLY
 70
     0
  9
$TDCREATE
 40
2454480.819145324
  9
$TDUCREATE
 40
2454480.444145324
  9
$TDUPDATE
 40
2457290.620426562
  9
$TDUUPDATE
 40
2457290.245426563
  9
$TDINDWG
 40
0.1094337500
  9
$TDUSRTIMER
 40
2457281.657492940
  9
$USRTIMER
 70
     1
  9
$ANGBASE
 50
0.0
  9
$ANGDIR
 70
     0
  9
$PDMODE
 70
     0
  9
$PDSIZE
 40
0.0
  9
$PLINEWID
 40
0.2
  9
$SPLFRAME
 70
     0
  9
$SPLINETYPE
 70
     6
  9
$SPLINESEGS
 70
     8
  9
$HANDSEED
  5
10169
  9
$SURFTAB1
 70
     6
  9
$SURFTAB2
 70
     6
  9
$SURFTYPE
 70
     6
  9
$SURFU
 70
     6
  9
$SURFV
 70
     6
  9
$UCSBASE
  2

  9
$UCSNAME
  2

  9
$UCSORG
 10
0.0
 20
0.0
 30
0.0
  9
$UCSXDIR
 10
1.0
 20
0.0
 30
0.0
  9
$UCSYDIR
 10
0.0
 20
1.0
 30
0.0
  9
$UCSORTHOREF
  2

  9
$UCSORTHOVIEW
 70
     0
  9
$UCSORGTOP
 10
0.0
 20
0.0
 30
0.0
  9
$UCSORGBOTTOM
 10
0.0
 20
0.0
 30
0.0
  9
$UCSORGLEFT
 10
0.0
 20
0.0
 30
0.0
  9
$UCSORGRIGHT
 10
0.0
 20
0.0
 30
0.0
  9
$UCSORGFRONT
 10
0.0
 20
0.0
 30
0.0
  9
$UCSORGBACK
 10
0.0
 20
0.0
 30
0.0
  9
$PUCSBASE
  2

  9
$PUCSNAME
  2

  9
$PUCSORG
 10
0.0
 20
0.0
 30
0.0
  9
$PUCSXDIR
 10
1.0
 20
0.0
 30
0.0
  9
$PUCSYDIR
 10
0.0
 20
1.0
 30
0.0
  9
$PUCSORTHOREF
  2

  9
$PUCSORTHOVIEW
 70
     0
  9
$PUCSORGTOP
 10
0.0
 20
0.0
 30
0.0
  9
$PUCSORGBOTTOM
 10
0.0
 20
0.0
 30
0.0
  9
$PUCSORGLEFT
 10
0.0
 20
0.0
 30
0.0
  9
$PUCSORGRIGHT
 10
0.0
 20
0.0
 30
0.0
  9
$PUCSORGFRONT
 10
0.0
 20
0.0
 30
0.0
  9
$PUCSORGBACK
 10
0.0
 20
0.0
 30
0.0
  9
$USERI1
 70
     0
  9
$USERI2
 70
     0
  9
$USERI3
 70
     0
  9
$USERI4
 70
     0
  9
$USERI5
 70
     0
  9
$USERR1
 40
0.0
  9
$USERR2
 40
0.0
  9
$USERR3
 40
0.0
  9
$USERR4
 40
0.0
  9
$USERR5
 40
0.0
  9
$WORLDVIEW
 70
     1
  9
$SHADEDGE
 70
     3
  9
$SHADEDIF
 70
    70
  9
$TILEMODE
 70
     1
  9
$MAXACTVP
 70
    48
  9
$PINSBASE
 10
0.0
 20
0.0
 30
0.0
  9
$PLIMCHECK
 70
     0
  9
$PEXTMIN
 10
0.0
 20
0.0
 30
0.0
  9
$PEXTMAX
 10
1182.7314453125
 20
831.0
 30
2.0
  9
$PLIMMIN
 10
0.0
 20
0.0
  9
$PLIMMAX
 10
420.0
 20
297.0
  9
$UNITMODE
 70
     0
  9
$VISRETAIN
 70
     0
  9
$PLINEGEN
 70
     0
  9
$PSLTSCALE
 70
     1
  9
$TREEDEPTH
 70
  3020
  9
$CMLSTYLE
  2
STANDARD
  9
$CMLJUST
 70
     0
  9
$CMLSCALE
 40
20.0
  9
$PROXYGRAPHICS
 70
     1
  9
$MEASUREMENT
 70
     1
  9
$CELWEIGHT
370
    -1
  9
$ENDCAPS
280
     0
  9
$JOINSTYLE
280
     0
  9
$LWDISPLAY
290
     0
  9
$INSUNITS
 70
     0
  9
$HYPERLINKBASE
  1

  9
$STYLESHEET
  1

  9
$XEDIT
290
     1
  9
$CEPSNTYPE
380
     0
  9
$PSTYLEMODE
290
     1
  9
$FINGERPRINTGUID
  2
{C848B05F-CEC4-4C36-A148-ADB50220BA8F}
  9
$VERSIONGUID
  2
{4DBCA207-0FAE-4117-946A-C5BF4A31D367}
  9
$EXTNAMES
290
     1
  9
$PSVPSCALE
 40
0.0
  9
$OLESTARTUP
290
     0
  0
ENDSEC
  0
SECTION
  2
CLASSES
  0
CLASS
  1
IMAGE
  2
AcDbRasterImage
  3
ISM
 90
    34943
280
     0
281
     1
  0
CLASS
  1
DICTIONARYVAR
  2
AcDbDictionaryVar
  3
ObjectDBX Classes
 90
        0
280
     0
281
     0
  0
CLASS
  1
RASTERVARIABLES
  2
AcDbRasterVariables
  3
ISM
 90
        0
280
     0
281
     0
  0
CLASS
  1
IMAGEDEF
  2
AcDbRasterImageDef
  3
ISM
 90
    32768
280
     0
281
     0
  0
CLASS
  1
IMAGEDEF_REACTOR
  2
AcDbRasterImageDefReactor
  3
ISM
 90
    32769
280
     0
281
     0
  0
CLASS
  1
IDBUFFER
  2
AcDbIdBuffer
  3
ObjectDBX Classes
 90
    32768
280
     0
281
     0
  0
CLASS
  1
SPATIAL_FILTER
  2
AcDbSpatialFilter
  3
ObjectDBX Classes
 90
    32768
280
     0
281
     0
  0
CLASS
  1
SORTENTSTABLE
  2
AcDbSortentsTable
  3
ObjectDBX Classes
 90
        0
280
     0
281
     0
  0
CLASS
  1
LAYER_INDEX
  2
AcDbLayerIndex
  3
ObjectDBX Classes
 90
    32768
280
     0
281
     0
  0
CLASS
  1
SPATIAL_INDEX
  2
AcDbSpatialIndex
  3
ObjectDBX Classes
 90
    32768
280
     0
281
     0
  0
CLASS
  1
OBJECT_PTR
  2
CAseDLPNTableRecord
  3
ASE-LPNTableRecord
 90
    32769
280
     0
281
     0
  0
CLASS
  1
LAYOUT
  2
AcDbLayout
  3
ObjectDBX Classes
 90
        0
280
     0
281
     0
  0
CLASS
  1
PLOTSETTINGS
  2
AcDbPlotSettings
  3
ObjectDBX Classes
 90
    32768
280
     0
281
     0
  0
CLASS
  1
ACDBDICTIONARYWDFLT
  2
AcDbDictionaryWithDefault
  3
ObjectDBX Classes
 90
        0
280
     0
281
     0
  0
CLASS
  1
ACDBPLACEHOLDER
  2
AcDbPlaceHolder
  3
ObjectDBX Classes
 90
        0
280
     0
281
     0
  0
CLASS
  1
VBA_PROJECT
  2
AcDbVbaProject
  3
acad
 90
    32768
280
     0
281
     0
  0
CLASS
  1
WIPEOUT
  2
AcDbWipeout
  3
"WipeOut|Product Desc: Object Enabler for WipeOut entity                        |Company: Autodesk, Inc.                        |WEB Address: www.autodesk.com"
 90
    34943
280
     0
281
     1
  0
CLASS
  1
WIPEOUTVARIABLES
  2
AcDbWipeoutVariables
  3
"WipeOut|Product Desc:     WipeOut Dbx Application|Company:          Autodesk, Inc.|WEB Address:      www.autodesk.com"
 90
    32768
280
     0
281
     0
  0
CLASS
  1
RTEXT
  2
RText
  3
RText|AutoCAD Express Tool|expresstools@autodesk.com
 90
    35839
280
     0
281
     1
  0
CLASS
  1
ARCALIGNEDTEXT
  2
AcDbArcAlignedText
  3
ATEXT|AutoCAD Express Tool|expresstools@autodesk.com
 90
    32768
280
     0
281
     1
  0
CLASS
  1
TABLESTYLE
  2
AcDbTableStyle
  3
ObjectDBX Classes
 90
     4095
280
     0
281
     0
  0
CLASS
  1
MATERIAL
  2
AcDbMaterial
  3
ObjectDBX Classes
 90
     1153
280
     0
281
     0
  0
CLASS
  1
VISUALSTYLE
  2
AcDbVisualStyle
  3
ObjectDBX Classes
 90
     4095
280
     0
281
     0
  0
CLASS
  1
SCALE
  2
AcDbScale
  3
ObjectDBX Classes
 90
     1153
280
     0
281
     0
  0
CLASS
  1
MLEADERSTYLE
  2
AcDbMLeaderStyle
  3
ACDB_MLEADERSTYLE_CLASS
 90
     4095
280
     0
281
     0
  0
CLASS
  1
CELLSTYLEMAP
  2
AcDbCellStyleMap
  3
ObjectDBX Classes
 90
     1152
280
     0
281
     0
  0
CLASS
  1
SUN
  2
AcDbSun
  3
SCENEOE
 90
    33921
280
     0
281
     0
  0
ENDSEC
  0
SECTION
  2
TABLES
  0
TABLE
  2
VPORT
  5
7
102
{ACAD_XDICTIONARY
360
FC4F
102
}
330
0
100
AcDbSymbolTable
 70
     1
  0
VPORT
  5
F3F1
330
7
100
AcDbSymbolTableRecord
100
AcDbViewportTableRecord
  2
*Active
 70
     0
 10
0.0
 20
0.0
 11
1.0
 21
1.0
 12
734.9801943889217
 22
427.9350457424989
 13
0.0
 23
0.0
 14
1.0
 24
1.0
 15
0.0
 25
0.0
 16
0.0
 26
0.0
 36
1.0
 17
0.0
 27
0.0
 37
0.0
 40
1365.829315465104
 41
1.717213114754098
 42
50.0
 43
0.0
 44
0.0
 50
0.0
 51
0.0
 71
    16
 72
   100
 73
     1
 74
     1
 75
     0
 76
     0
 77
     0
 78
     0
281
     0
 65
     1
110
0.0
120
0.0
130
0.0
111
1.0
121
0.0
131
0.0
112
0.0
122
1.0
132
0.0
 79
     0
146
0.0
  0
ENDTAB
  0
TABLE
  2
LTYPE
  5
4
330
0
100
AcDbSymbolTable
 70
     2
  0
LTYPE
  5
11
330
4
100
AcDbSymbolTableRecord
100
AcDbLinetypeTableRecord
  2
BYBLOCK
 70
     0
  3

 72
    65
 73
     0
 40
0.0
  0
LTYPE
  5
12
330
4
100
AcDbSymbolTableRecord
100
AcDbLinetypeTableRecord
  2
BYLAYER
 70
     0
  3

 72
    65
 73
     0
 40
0.0
  0
LTYPE
  5
13
330
4
100
AcDbSymbolTableRecord
100
AcDbLinetypeTableRecord
  2
CONTINUOUS
 70
     0
  3
Solid line
 72
    65
 73
     0
 40
0.0
  0
ENDTAB
  0
TABLE
  2
LAYER
  5
2
102
{ACAD_XDICTIONARY
360
A84F
102
}
330
0
100
AcDbSymbolTable
 70
     2
  0
LAYER
  5
14
102
{ACAD_XDICTIONARY
360
F43F
102
}
330
2
100
AcDbSymbolTableRecord
100
AcDbLayerTableRecord
  2
0
 70
     0
 62
     7
  6
CONTINUOUS
370
    -3
390
8502
  0
LAYER
  5
DFEF
330
2
100
AcDbSymbolTableRecord
100
AcDbLayerTableRecord
  2
Defpoints
 70
     0
 62
     7
  6
CONTINUOUS
290
     0
370
    -3
390
8502
  0
ENDTAB
  0
TABLE
  2
STYLE
  5
3
330
0
100
AcDbSymbolTable
 70
     2
  0
STYLE
  5
17
330
3
100
AcDbSymbolTableRecord
100
AcDbTextStyleTableRecord
  2
STANDARD
 70
     0
 40
0.0
 41
0.8
 50
0.0
 71
     0
 42
62.50587047096201
  3
ARIALUNI.TTF
  4

1001
ACAD
1000
Arial Unicode MS
1071
    33074
  0
ENDTAB
  0
TABLE
  2
VIEW
  5
5
330
0
100
AcDbSymbolTable
 70
     0
  0
ENDTAB
  0
TABLE
  2
UCS
  5
6
330
0
100
AcDbSymbolTable
 70
     0
  0
ENDTAB
  0
TABLE
  2
APPID
  5
8
330
0
100
AcDbSymbolTable
 70
    11
  0
APPID
  5
16
330
8
100
AcDbSymbolTableRecord
100
AcDbRegAppTableRecord
  2
ACAD
 70
     0
  0
APPID
  5
851E
330
8
100
AcDbSymbolTableRecord
100
AcDbRegAppTableRecord
  2
DCO15
 70
     0
  0
APPID
  5
8879
330
8
100
AcDbSymbolTableRecord
100
AcDbRegAppTableRecord
  2
ACAD_DSTYLE_DIMTEXT_FILL
 70
     0
  0
APPID
  5
A84D
330
8
100
AcDbSymbolTableRecord
100
AcDbRegAppTableRecord
  2
AcAecLayerStandard
 70
     0
  0
APPID
  5
A84E
330
8
100
AcDbSymbolTableRecord
100
AcDbRegAppTableRecord
  2
ACAD_PSEXT
 70
     0
  0
APPID
  5
F43E
330
8
100
AcDbSymbolTableRecord
100
AcDbRegAppTableRecord
  2
AcadAnnoPO
 70
     0
  0
APPID
  5
F71E
330
8
100
AcDbSymbolTableRecord
100
AcDbRegAppTableRecord
  2
ACAD_EXEMPT_FROM_CAD_STANDARDS
 70
     0
  0
APPID
  5
F79A
330
8
100
AcDbSymbolTableRecord
100
AcDbRegAppTableRecord
  2
ACAD_MLEADERVER
 70
     0
  0
APPID
  5
F9B5
330
8
100
AcDbSymbolTableRecord
100
AcDbRegAppTableRecord
  2
AcadAnnotative
 70
     0
  0
APPID
  5
F9B6
330
8
100
AcDbSymbolTableRecord
100
AcDbRegAppTableRecord
  2
ACAD_DSTYLE_DIMJAG
 70
     0
  0
APPID
  5
F9B7
330
8
100
AcDbSymbolTableRecord
100
AcDbRegAppTableRecord
  2
ACAD_DSTYLE_DIMTALN
 70
     0
  0
ENDTAB
  0
TABLE
  2
DIMSTYLE
  5
9
330
0
100
AcDbSymbolTable
 70
     2
100
AcDbDimStyleTable
 71
     1
340
18
  0
DIMSTYLE
105
18
330
9
100
AcDbSymbolTableRecord
100
AcDbDimStyleTableRecord
  2
STANDARD
 70
     0
340
17
  0
ENDTAB
  0
TABLE
  2
BLOCK_RECORD
  5
1
330
0
100
AcDbSymbolTable
 70
     2
  0
BLOCK_RECORD
  5
A
102
{ACAD_XDICTIONARY
360
D699
102
}
330
1
100
AcDbSymbolTableRecord
100
AcDbBlockTableRecord
  2
*MODEL_SPACE
340
8509
  0
BLOCK_RECORD
  5
B
330
1
100
AcDbSymbolTableRecord
100
AcDbBlockTableRecord
  2
*PAPER_SPACE
340
850A
  0
ENDTAB
  0
ENDSEC
  0
SECTION
  2
BLOCKS
  0
BLOCK
  5
D
330
A
100
AcDbEntity
  8
0
100
AcDbBlockBegin
  2
*MODEL_SPACE
 70
     0
 10
0.0
 20
0.0
 30
0.0
  3
*MODEL_SPACE
  1

  0
ENDBLK
  5
E
330
A
100
AcDbEntity
  8
0
100
AcDbBlockEnd
  0
BLOCK
  5
F
330
B
100
AcDbEntity
 67
     1
  8
0
100
AcDbBlockBegin
  2
*PAPER_SPACE
 70
     0
 10
0.0
 20
0.0
 30
0.0
  3
*PAPER_SPACE
  1

  0
ENDBLK
  5
10
330
B
100
AcDbEntity
 67
     1
  8
0
100
AcDbBlockEnd
  0
ENDSEC
  0
SECTION
  2
ENTITIES
  0
LINE
  5
FE2B
330
A
100
AcDbEntity
  8
0
100
AcDbLine
 10
10.0
 20
831.0
 30
0.0
 11
1179.0
 21
831.0
 31
0.0
  0
LINE
  5
FE2C
330
A
100
AcDbEntity
  8
0
100
AcDbLine
 10
10.0
 20
10.0
 30
0.0
 11
1179.0
 21
10.0
 31
0.0
  0
LINE
  5
FE2D
330
A
100
AcDbEntity
  8
0
100
AcDbLine
 10
1179.0
 20
10.0
 30
0.0
 11
1179.0
 21
831.0
 31
0.0
  0
LINE
  5
FE2E
330
A
100
AcDbEntity
  8
0
100
AcDbLine
 10
602.0
 20
828.5000000000001
 30
0.0
 11
603.5
 21
828.5000000000001
 31
0.0
  0
LINE
  5
FE2F
330
A
100
AcDbEntity
  8
0
100
AcDbLine
 10
604.4999999999999
 20
826.0000000000001
 30
0.0
 11
607.0
 21
828.5000000000001
 31
0.0
  0
LINE
  5
FE30
330
A
100
AcDbEntity
  8
0
100
AcDbLine
 10
602.0
 20
828.5000000000001
 30
0.0
 11
604.4999999999999
 21
826.0000000000001
 31
0.0
  0
LINE
  5
FE31
330
A
100
AcDbEntity
  8
0
100
AcDbLine
 10
605.4999999999999
 20
828.5000000000001
 30
0.0
 11
607.0
 21
828.5000000000001
 31
0.0
  0
LINE
  5
FE32
330
A
100
AcDbEntity
  8
0
100
AcDbLine
 10
604.4999999999999
 20
15.0
 30
0.0
 11
607.0
 21
12.5
 31
0.0
  0
LINE
  5
FE33
330
A
100
AcDbEntity
  8
0
100
AcDbLine
 10
605.4999999999999
 20
12.5
 30
0.0
 11
607.0
 21
12.5
 31
0.0
  0
LINE
  5
FE34
330
A
100
AcDbEntity
  8
0
100
AcDbLine
 10
602.0
 20
12.5
 30
0.0
 11
604.4999999999999
 21
15.0
 31
0.0
  0
LINE
  5
FE35
330
A
100
AcDbEntity
  8
0
100
AcDbLine
 10
602.0
 20
12.5
 30
0.0
 11
603.5
 21
12.5
 31
0.0
  0
LINE
  5
FE36
330
A
100
AcDbEntity
  8
0
100
AcDbLine
 10
30.0
 20
419.5
 30
0.0
 11
32.5
 21
419.5
 31
0.0
  0
LINE
  5
FE37
330
A
100
AcDbEntity
  8
0
100
AcDbLine
 10
32.5
 20
418.0
 30
0.0
 11
32.5
 21
419.5
 31
0.0
  0
LINE
  5
FE38
330
A
100
AcDbEntity
  8
0
100
AcDbLine
 10
32.5
 20
418.0
 30
0.0
 11
35.0
 21
420.5
 31
0.0
  0
LINE
  5
FE39
330
A
100
AcDbEntity
  8
0
100
AcDbLine
 10
32.5
 20
423.0
 30
0.0
 11
35.0
 21
420.5
 31
0.0
  0
LINE
  5
FE3A
330
A
100
AcDbEntity
  8
0
100
AcDbLine
 10
32.5
 20
421.4999999999999
 30
0.0
 11
32.5
 21
423.0
 31
0.0
  0
LINE
  5
FE3B
330
A
100
AcDbEntity
  8
0
100
AcDbLine
 10
30.0
 20
421.4999999999999
 30
0.0
 11
32.5
 21
421.4999999999999
 31
0.0
  0
LINE
  5
FE3C
330
A
100
AcDbEntity
  8
0
100
AcDbLine
 10
30.0
 20
419.5
 30
0.0
 11
30.0
 21
421.4999999999999
 31
0.0
  0
LINE
  5
FE3D
330
A
100
AcDbEntity
  8
0
100
AcDbLine
 10
1176.5
 20
421.4999999999999
 30
0.0
 11
1176.5
 21
423.0
 31
0.0
  0
LINE
  5
FE3E
330
A
100
AcDbEntity
  8
0
100
AcDbLine
 10
1174.0
 20
420.5
 30
0.0
 11
1176.5
 21
423.0
 31
0.0
  0
LINE
  5
FE3F
330
A
100
AcDbEntity
  8
0
100
AcDbLine
 10
1174.0
 20
420.5
 30
0.0
 11
1176.5
 21
418.0
 31
0.0
  0
LINE
  5
FE40
330
A
100
AcDbEntity
  8
0
100
AcDbLine
 10
1176.5
 20
418.0
 30
0.0
 11
1176.5
 21
419.5
 31
0.0
  0
LINE
  5
FE41
330
A
100
AcDbEntity
  8
0
100
AcDbLine
 10
35.0
 20
15.0
 30
0.0
 11
1174.0
 21
15.0
 31
0.0
  0
LINE
  5
FE42
330
A
100
AcDbEntity
  8
0
100
AcDbLine
 10
1174.0
 20
15.0
 30
0.0
 11
1174.0
 21
826.0000000000001
 31
0.0
  0
LINE
  5
FE43
330
A
100
AcDbEntity
  8
0
100
AcDbLine
 10
35.0
 20
826.0000000000001
 30
0.0
 11
1174.0
 21
826.0000000000001
 31
0.0
  0
LINE
  5
FE44
330
A
100
AcDbEntity
  8
0
100
AcDbLine
 10
35.0
 20
15.0
 30
0.0
 11
35.0
 21
826.0000000000001
 31
0.0
  0
LINE
  5
FE45
330
A
100
AcDbEntity
  8
0
100
AcDbLine
 10
603.2999999999993
 20
12.5
 30
0.0
 11
603.2999999999993
 21
13.79999999999973
 31
0.0
  0
LINE
  5
FE46
330
A
100
AcDbEntity
  8
0
100
AcDbLine
 10
603.0999999999985
 20
12.5
 30
0.0
 11
603.0999999999985
 21
13.59999999999991
 31
0.0
  0
LINE
  5
FE47
330
A
100
AcDbEntity
  8
0
100
AcDbLine
 10
602.9000000000015
 20
12.5
 30
0.0
 11
602.9000000000015
 21
13.40000000000009
 31
0.0
  0
LINE
  5
FE48
330
A
100
AcDbEntity
  8
0
100
AcDbLine
 10
602.7000000000007
 20
12.5
 30
0.0
 11
602.7000000000007
 21
13.19999999999982
 31
0.0
  0
LINE
  5
FE49
330
A
100
AcDbEntity
  8
0
100
AcDbLine
 10
602.5
 20
12.5
 30
0.0
 11
602.5
 21
13.0
 31
0.0
  0
LINE
  5
FE4A
330
A
100
AcDbEntity
  8
0
100
AcDbLine
 10
602.2999999999992
 20
12.5
 30
0.0
 11
602.2999999999992
 21
12.79999999999972
 31
0.0
  0
LINE
  5
FE4B
330
A
100
AcDbEntity
  8
0
100
AcDbLine
 10
602.0999999999985
 20
12.5
 30
0.0
 11
602.0999999999985
 21
12.59999999999991
 31
0.0
  0
LINE
  5
FE4C
330
A
100
AcDbEntity
  8
0
100
AcDbLine
 10
603.5
 20
10.0
 30
0.0
 11
603.5
 21
14.0
 31
0.0
  0
LINE
  5
FE4D
330
A
100
AcDbEntity
  8
0
100
AcDbLine
 10
603.7000000000007
 20
10.0
 30
0.0
 11
603.7000000000007
 21
14.19999999999982
 31
0.0
  0
LINE
  5
FE4E
330
A
100
AcDbEntity
  8
0
100
AcDbLine
 10
603.9000000000014
 20
10.0
 30
0.0
 11
603.9000000000014
 21
14.40000000000009
 31
0.0
  0
LINE
  5
FE4F
330
A
100
AcDbEntity
  8
0
100
AcDbLine
 10
604.0999999999985
 20
10.0
 30
0.0
 11
604.0999999999985
 21
14.59999999999991
 31
0.0
  0
LINE
  5
FE50
330
A
100
AcDbEntity
  8
0
100
AcDbLine
 10
604.2999999999993
 20
10.0
 30
0.0
 11
604.2999999999993
 21
14.79999999999973
 31
0.0
  0
LINE
  5
FE51
330
A
100
AcDbEntity
  8
0
100
AcDbLine
 10
604.7000000000007
 20
10.0
 30
0.0
 11
604.7000000000007
 21
14.79999999999973
 31
0.0
  0
LINE
  5
FE52
330
A
100
AcDbEntity
  8
0
100
AcDbLine
 10
604.9000000000014
 20
10.0
 30
0.0
 11
604.9000000000014
 21
14.59999999999991
 31
0.0
  0
LINE
  5
FE53
330
A
100
AcDbEntity
  8
0
100
AcDbLine
 10
605.0999999999985
 20
10.0
 30
0.0
 11
605.0999999999985
 21
14.40000000000009
 31
0.0
  0
LINE
  5
FE54
330
A
100
AcDbEntity
  8
0
100
AcDbLine
 10
605.2999999999992
 20
10.0
 30
0.0
 11
605.2999999999992
 21
14.19999999999982
 31
0.0
  0
LINE
  5
FE55
330
A
100
AcDbEntity
  8
0
100
AcDbLine
 10
605.4999999999999
 20
10.0
 30
0.0
 11
605.4999999999999
 21
14.0
 31
0.0
  0
LINE
  5
FE56
330
A
100
AcDbEntity
  8
0
100
AcDbLine
 10
605.7000000000007
 20
12.5
 30
0.0
 11
605.7000000000007
 21
13.79999999999973
 31
0.0
  0
LINE
  5
FE57
330
A
100
AcDbEntity
  8
0
100
AcDbLine
 10
605.9000000000014
 20
12.5
 30
0.0
 11
605.9000000000014
 21
13.59999999999991
 31
0.0
  0
LINE
  5
FE58
330
A
100
AcDbEntity
  8
0
100
AcDbLine
 10
606.0999999999985
 20
12.5
 30
0.0
 11
606.0999999999985
 21
13.40000000000009
 31
0.0
  0
LINE
  5
FE59
330
A
100
AcDbEntity
  8
0
100
AcDbLine
 10
606.2999999999992
 20
12.5
 30
0.0
 11
606.2999999999992
 21
13.19999999999982
 31
0.0
  0
LINE
  5
FE5A
330
A
100
AcDbEntity
  8
0
100
AcDbLine
 10
606.5
 20
12.5
 30
0.0
 11
606.5
 21
13.0
 31
0.0
  0
LINE
  5
FE5B
330
A
100
AcDbEntity
  8
0
100
AcDbLine
 10
606.7000000000007
 20
12.5
 30
0.0
 11
606.7000000000007
 21
12.79999999999972
 31
0.0
  0
LINE
  5
FE5C
330
A
100
AcDbEntity
  8
0
100
AcDbLine
 10
606.9000000000015
 20
12.5
 30
0.0
 11
606.9000000000015
 21
12.59999999999991
 31
0.0
  0
LINE
  5
FE5D
330
A
100
AcDbEntity
  8
0
100
AcDbLine
 10
32.5
 20
419.2999999999999
 30
0.0
 11
33.79999999999927
 21
419.2999999999999
 31
0.0
  0
LINE
  5
FE5E
330
A
100
AcDbEntity
  8
0
100
AcDbLine
 10
32.5
 20
419.0999999999998
 30
0.0
 11
33.59999999999855
 21
419.0999999999998
 31
0.0
  0
LINE
  5
FE5F
330
A
100
AcDbEntity
  8
0
100
AcDbLine
 10
32.5
 20
418.9
 30
0.0
 11
33.40000000000145
 21
418.9
 31
0.0
  0
LINE
  5
FE60
330
A
100
AcDbEntity
  8
0
100
AcDbLine
 10
32.5
 20
418.6999999999998
 30
0.0
 11
33.20000000000073
 21
418.6999999999998
 31
0.0
  0
LINE
  5
FE61
330
A
100
AcDbEntity
  8
0
100
AcDbLine
 10
32.5
 20
418.5
 30
0.0
 11
33.0
 21
418.5
 31
0.0
  0
LINE
  5
FE62
330
A
100
AcDbEntity
  8
0
100
AcDbLine
 10
32.5
 20
418.2999999999999
 30
0.0
 11
32.79999999999927
 21
418.2999999999999
 31
0.0
  0
LINE
  5
FE63
330
A
100
AcDbEntity
  8
0
100
AcDbLine
 10
32.5
 20
418.0999999999999
 30
0.0
 11
32.59999999999855
 21
418.0999999999999
 31
0.0
  0
LINE
  5
FE64
330
A
100
AcDbEntity
  8
0
100
AcDbLine
 10
30.0
 20
419.5
 30
0.0
 11
34.0
 21
419.5
 31
0.0
  0
LINE
  5
FE65
330
A
100
AcDbEntity
  8
0
100
AcDbLine
 10
30.0
 20
419.6999999999998
 30
0.0
 11
34.20000000000073
 21
419.6999999999998
 31
0.0
  0
LINE
  5
FE66
330
A
100
AcDbEntity
  8
0
100
AcDbLine
 10
30.0
 20
419.9
 30
0.0
 11
34.40000000000146
 21
419.9
 31
0.0
  0
LINE
  5
FE67
330
A
100
AcDbEntity
  8
0
100
AcDbLine
 10
30.0
 20
420.0999999999998
 30
0.0
 11
34.59999999999855
 21
420.0999999999998
 31
0.0
  0
LINE
  5
FE68
330
A
100
AcDbEntity
  8
0
100
AcDbLine
 10
30.0
 20
420.2999999999999
 30
0.0
 11
34.79999999999928
 21
420.2999999999999
 31
0.0
  0
LINE
  5
FE69
330
A
100
AcDbEntity
  8
0
100
AcDbLine
 10
30.0
 20
420.5
 30
0.0
 11
35.0
 21
420.5
 31
0.0
  0
LINE
  5
FE6A
330
A
100
AcDbEntity
  8
0
100
AcDbLine
 10
30.0
 20
420.6999999999998
 30
0.0
 11
34.79999999999928
 21
420.6999999999998
 31
0.0
  0
LINE
  5
FE6B
330
A
100
AcDbEntity
  8
0
100
AcDbLine
 10
30.0
 20
420.9000000000001
 30
0.0
 11
34.59999999999855
 21
420.9000000000001
 31
0.0
  0
LINE
  5
FE6C
330
A
100
AcDbEntity
  8
0
100
AcDbLine
 10
30.0
 20
421.0999999999999
 30
0.0
 11
34.40000000000146
 21
421.0999999999999
 31
0.0
  0
LINE
  5
FE6D
330
A
100
AcDbEntity
  8
0
100
AcDbLine
 10
30.0
 20
421.2999999999999
 30
0.0
 11
34.20000000000073
 21
421.2999999999999
 31
0.0
  0
LINE
  5
FE6E
330
A
100
AcDbEntity
  8
0
100
AcDbLine
 10
30.0
 20
421.4999999999999
 30
0.0
 11
34.0
 21
421.4999999999999
 31
0.0
  0
LINE
  5
FE6F
330
A
100
AcDbEntity
  8
0
100
AcDbLine
 10
32.5
 20
421.6999999999997
 30
0.0
 11
33.79999999999927
 21
421.6999999999997
 31
0.0
  0
LINE
  5
FE70
330
A
100
AcDbEntity
  8
0
100
AcDbLine
 10
32.5
 20
421.9000000000001
 30
0.0
 11
33.59999999999855
 21
421.9000000000001
 31
0.0
  0
LINE
  5
FE71
330
A
100
AcDbEntity
  8
0
100
AcDbLine
 10
32.5
 20
422.0999999999999
 30
0.0
 11
33.40000000000145
 21
422.0999999999999
 31
0.0
  0
LINE
  5
FE72
330
A
100
AcDbEntity
  8
0
100
AcDbLine
 10
32.5
 20
422.2999999999999
 30
0.0
 11
33.20000000000073
 21
422.2999999999999
 31
0.0
  0
LINE
  5
FE73
330
A
100
AcDbEntity
  8
0
100
AcDbLine
 10
32.5
 20
422.4999999999999
 30
0.0
 11
33.0
 21
422.4999999999999
 31
0.0
  0
LINE
  5
FE74
330
A
100
AcDbEntity
  8
0
100
AcDbLine
 10
32.5
 20
422.6999999999998
 30
0.0
 11
32.79999999999927
 21
422.6999999999998
 31
0.0
  0
LINE
  5
FE75
330
A
100
AcDbEntity
  8
0
100
AcDbLine
 10
32.5
 20
422.9
 30
0.0
 11
32.59999999999855
 21
422.9
 31
0.0
  0
LINE
  5
FE76
330
A
100
AcDbEntity
  8
0
100
AcDbLine
 10
1175.200000000001
 20
419.2999999999999
 30
0.0
 11
1176.5
 21
419.2999999999999
 31
0.0
  0
LINE
  5
FE77
330
A
100
AcDbEntity
  8
0
100
AcDbLine
 10
1175.400000000002
 20
419.0999999999998
 30
0.0
 11
1176.5
 21
419.0999999999998
 31
0.0
  0
LINE
  5
FE78
330
A
100
AcDbEntity
  8
0
100
AcDbLine
 10
1175.599999999999
 20
418.9
 30
0.0
 11
1176.5
 21
418.9
 31
0.0
  0
LINE
  5
FE79
330
A
100
AcDbEntity
  8
0
100
AcDbLine
 10
1175.799999999999
 20
418.6999999999998
 30
0.0
 11
1176.5
 21
418.6999999999998
 31
0.0
  0
LINE
  5
FE7A
330
A
100
AcDbEntity
  8
0
100
AcDbLine
 10
1176.0
 20
418.5
 30
0.0
 11
1176.5
 21
418.5
 31
0.0
  0
LINE
  5
FE7B
330
A
100
AcDbEntity
  8
0
100
AcDbLine
 10
1176.200000000001
 20
418.2999999999999
 30
0.0
 11
1176.5
 21
418.2999999999999
 31
0.0
  0
LINE
  5
FE7C
330
A
100
AcDbEntity
  8
0
100
AcDbLine
 10
1176.400000000002
 20
418.0999999999999
 30
0.0
 11
1176.5
 21
418.0999999999999
 31
0.0
  0
LINE
  5
FE7D
330
A
100
AcDbEntity
  8
0
100
AcDbLine
 10
1175.0
 20
419.5
 30
0.0
 11
1179.0
 21
419.5
 31
0.0
  0
LINE
  5
FE7E
330
A
100
AcDbEntity
  8
0
100
AcDbLine
 10
1174.8
 20
419.6999999999998
 30
0.0
 11
1179.0
 21
419.6999999999998
 31
0.0
  0
LINE
  5
FE7F
330
A
100
AcDbEntity
  8
0
100
AcDbLine
 10
1174.599999999999
 20
419.9
 30
0.0
 11
1179.0
 21
419.9
 31
0.0
  0
LINE
  5
FE80
330
A
100
AcDbEntity
  8
0
100
AcDbLine
 10
1174.400000000002
 20
420.0999999999998
 30
0.0
 11
1179.0
 21
420.0999999999998
 31
0.0
  0
LINE
  5
FE81
330
A
100
AcDbEntity
  8
0
100
AcDbLine
 10
1174.200000000001
 20
420.2999999999999
 30
0.0
 11
1179.0
 21
420.2999999999999
 31
0.0
  0
LINE
  5
FE82
330
A
100
AcDbEntity
  8
0
100
AcDbLine
 10
1174.0
 20
420.5
 30
0.0
 11
1179.0
 21
420.5
 31
0.0
  0
LINE
  5
FE83
330
A
100
AcDbEntity
  8
0
100
AcDbLine
 10
1174.200000000001
 20
420.6999999999998
 30
0.0
 11
1179.0
 21
420.6999999999998
 31
0.0
  0
LINE
  5
FE84
330
A
100
AcDbEntity
  8
0
100
AcDbLine
 10
1174.400000000002
 20
420.9000000000001
 30
0.0
 11
1179.0
 21
420.9000000000001
 31
0.0
  0
LINE
  5
FE85
330
A
100
AcDbEntity
  8
0
100
AcDbLine
 10
1174.599999999999
 20
421.0999999999999
 30
0.0
 11
1179.0
 21
421.0999999999999
 31
0.0
  0
LINE
  5
FE86
330
A
100
AcDbEntity
  8
0
100
AcDbLine
 10
1174.8
 20
421.2999999999999
 30
0.0
 11
1179.0
 21
421.2999999999999
 31
0.0
  0
LINE
  5
FE87
330
A
100
AcDbEntity
  8
0
100
AcDbLine
 10
1175.0
 20
421.4999999999999
 30
0.0
 11
1179.0
 21
421.4999999999999
 31
0.0
  0
LINE
  5
FE88
330
A
100
AcDbEntity
  8
0
100
AcDbLine
 10
1175.200000000001
 20
421.6999999999997
 30
0.0
 11
1176.5
 21
421.6999999999997
 31
0.0
  0
LINE
  5
FE89
330
A
100
AcDbEntity
  8
0
100
AcDbLine
 10
1175.400000000002
 20
421.9000000000001
 30
0.0
 11
1176.5
 21
421.9000000000001
 31
0.0
  0
LINE
  5
FE8A
330
A
100
AcDbEntity
  8
0
100
AcDbLine
 10
1175.599999999999
 20
422.0999999999999
 30
0.0
 11
1176.5
 21
422.0999999999999
 31
0.0
  0
LINE
  5
FE8B
330
A
100
AcDbEntity
  8
0
100
AcDbLine
 10
1175.799999999999
 20
422.2999999999999
 30
0.0
 11
1176.5
 21
422.2999999999999
 31
0.0
  0
LINE
  5
FE8C
330
A
100
AcDbEntity
  8
0
100
AcDbLine
 10
1176.0
 20
422.4999999999999
 30
0.0
 11
1176.5
 21
422.4999999999999
 31
0.0
  0
LINE
  5
FE8D
330
A
100
AcDbEntity
  8
0
100
AcDbLine
 10
1176.200000000001
 20
422.6999999999998
 30
0.0
 11
1176.5
 21
422.6999999999998
 31
0.0
  0
LINE
  5
FE8E
330
A
100
AcDbEntity
  8
0
100
AcDbLine
 10
1176.400000000002
 20
422.9
 30
0.0
 11
1176.5
 21
422.9
 31
0.0
  0
LINE
  5
FE8F
330
A
100
AcDbEntity
  8
0
100
AcDbLine
 10
603.2999999999993
 20
827.2
 30
0.0
 11
603.2999999999993
 21
828.5000000000001
 31
0.0
  0
LINE
  5
FE90
330
A
100
AcDbEntity
  8
0
100
AcDbLine
 10
603.0999999999985
 20
827.4000000000002
 30
0.0
 11
603.0999999999985
 21
828.5000000000001
 31
0.0
  0
LINE
  5
FE91
330
A
100
AcDbEntity
  8
0
100
AcDbLine
 10
602.9000000000015
 20
827.5999999999999
 30
0.0
 11
602.9000000000015
 21
828.5000000000001
 31
0.0
  0
LINE
  5
FE92
330
A
100
AcDbEntity
  8
0
100
AcDbLine
 10
602.7000000000007
 20
827.7999999999998
 30
0.0
 11
602.7000000000007
 21
828.5000000000001
 31
0.0
  0
LINE
  5
FE93
330
A
100
AcDbEntity
  8
0
100
AcDbLine
 10
602.5
 20
828.0000000000001
 30
0.0
 11
602.5
 21
828.5000000000001
 31
0.0
  0
LINE
  5
FE94
330
A
100
AcDbEntity
  8
0
100
AcDbLine
 10
602.2999999999992
 20
828.2
 30
0.0
 11
602.2999999999992
 21
828.5000000000001
 31
0.0
  0
LINE
  5
FE95
330
A
100
AcDbEntity
  8
0
100
AcDbLine
 10
602.0999999999985
 20
828.4000000000002
 30
0.0
 11
602.0999999999985
 21
828.5000000000001
 31
0.0
  0
LINE
  5
FE96
330
A
100
AcDbEntity
  8
0
100
AcDbLine
 10
603.5
 20
827.0000000000001
 30
0.0
 11
603.5
 21
831.0
 31
0.0
  0
LINE
  5
FE97
330
A
100
AcDbEntity
  8
0
100
AcDbLine
 10
603.7000000000007
 20
826.7999999999998
 30
0.0
 11
603.7000000000007
 21
831.0
 31
0.0
  0
LINE
  5
FE98
330
A
100
AcDbEntity
  8
0
100
AcDbLine
 10
603.9000000000014
 20
826.6
 30
0.0
 11
603.9000000000014
 21
831.0
 31
0.0
  0
LINE
  5
FE99
330
A
100
AcDbEntity
  8
0
100
AcDbLine
 10
604.0999999999985
 20
826.4000000000002
 30
0.0
 11
604.0999999999985
 21
831.0
 31
0.0
  0
LINE
  5
FE9A
330
A
100
AcDbEntity
  8
0
100
AcDbLine
 10
604.2999999999993
 20
826.1999999999998
 30
0.0
 11
604.2999999999993
 21
831.0
 31
0.0
  0
LINE
  5
FE9B
330
A
100
AcDbEntity
  8
0
100
AcDbLine
 10
604.4999999999999
 20
826.0000000000001
 30
0.0
 11
604.4999999999999
 21
831.0
 31
0.0
  0
LINE
  5
FE9C
330
A
100
AcDbEntity
  8
0
100
AcDbLine
 10
604.7000000000007
 20
826.1999999999998
 30
0.0
 11
604.7000000000007
 21
831.0
 31
0.0
  0
LINE
  5
FE9D
330
A
100
AcDbEntity
  8
0
100
AcDbLine
 10
604.9000000000014
 20
826.4000000000002
 30
0.0
 11
604.9000000000014
 21
831.0
 31
0.0
  0
LINE
  5
FE9E
330
A
100
AcDbEntity
  8
0
100
AcDbLine
 10
605.0999999999985
 20
826.6
 30
0.0
 11
605.0999999999985
 21
831.0
 31
0.0
  0
LINE
  5
FE9F
330
A
100
AcDbEntity
  8
0
100
AcDbLine
 10
605.2999999999992
 20
826.7999999999998
 30
0.0
 11
605.2999999999992
 21
831.0
 31
0.0
  0
LINE
  5
FEA0
330
A
100
AcDbEntity
  8
0
100
AcDbLine
 10
605.4999999999999
 20
827.0000000000001
 30
0.0
 11
605.4999999999999
 21
831.0
 31
0.0
  0
LINE
  5
FEA1
330
A
100
AcDbEntity
  8
0
100
AcDbLine
 10
605.7000000000007
 20
827.2
 30
0.0
 11
605.7000000000007
 21
828.5000000000001
 31
0.0
  0
LINE
  5
FEA2
330
A
100
AcDbEntity
  8
0
100
AcDbLine
 10
605.9000000000014
 20
827.4000000000002
 30
0.0
 11
605.9000000000014
 21
828.5000000000001
 31
0.0
  0
LINE
  5
FEA3
330
A
100
AcDbEntity
  8
0
100
AcDbLine
 10
606.0999999999985
 20
827.5999999999999
 30
0.0
 11
606.0999999999985
 21
828.5000000000001
 31
0.0
  0
LINE
  5
FEA4
330
A
100
AcDbEntity
  8
0
100
AcDbLine
 10
606.2999999999992
 20
827.7999999999998
 30
0.0
 11
606.2999999999992
 21
828.5000000000001
 31
0.0
  0
LINE
  5
FEA5
330
A
100
AcDbEntity
  8
0
100
AcDbLine
 10
606.5
 20
828.0000000000001
 30
0.0
 11
606.5
 21
828.5000000000001
 31
0.0
  0
LINE
  5
FEA6
330
A
100
AcDbEntity
  8
0
100
AcDbLine
 10
606.7000000000007
 20
828.2
 30
0.0
 11
606.7000000000007
 21
828.5000000000001
 31
0.0
  0
LINE
  5
FEA7
330
A
100
AcDbEntity
  8
0
100
AcDbLine
 10
606.9000000000015
 20
828.4000000000002
 30
0.0
 11
606.9000000000015
 21
828.5000000000001
 31
0.0
  0
LINE
  5
FEA8
330
A
100
AcDbEntity
  8
0
100
AcDbLine
 10
804.5000000000005
 20
826.0000000000001
 30
0.0
 11
804.5000000000005
 21
831.0
 31
0.0
  0
LINE
  5
FEA9
330
A
100
AcDbEntity
  8
0
100
AcDbLine
 10
1174.0
 20
220.5
 30
0.0
 11
1179.0
 21
220.5
 31
0.0
  0
LINE
  5
FEAA
330
A
100
AcDbEntity
  8
0
100
AcDbLine
 10
604.4999999999999
 20
10.0
 30
0.0
 11
604.4999999999999
 21
15.0
 31
0.0
  0
LINE
  5
FEAB
330
A
100
AcDbEntity
  8
0
100
AcDbLine
 10
804.5000000000005
 20
10.0
 30
0.0
 11
804.5000000000005
 21
15.0
 31
0.0
  0
LINE
  5
FEAC
330
A
100
AcDbEntity
  8
0
100
AcDbLine
 10
1174.0
 20
320.5
 30
0.0
 11
1179.0
 21
320.5
 31
0.0
  0
LINE
  5
FEAD
330
A
100
AcDbEntity
  8
0
100
AcDbLine
 10
1174.0
 20
520.5
 30
0.0
 11
1179.0
 21
520.5
 31
0.0
  0
LINE
  5
FEAE
330
A
100
AcDbEntity
  8
0
100
AcDbLine
 10
1174.0
 20
620.5
 30
0.0
 11
1179.0
 21
620.5
 31
0.0
  0
LINE
  5
FEAF
330
A
100
AcDbEntity
  8
0
100
AcDbLine
 10
1174.0
 20
720.5
 30
0.0
 11
1179.0
 21
720.5
 31
0.0
  0
LINE
  5
FEB0
330
A
100
AcDbEntity
  8
0
100
AcDbLine
 10
1174.0
 20
120.5
 30
0.0
 11
1179.0
 21
120.5
 31
0.0
  0
LINE
  5
FEB1
330
A
100
AcDbEntity
  8
0
100
AcDbLine
 10
504.4999999999999
 20
826.0000000000001
 30
0.0
 11
504.4999999999999
 21
831.0
 31
0.0
  0
LINE
  5
FEB2
330
A
100
AcDbEntity
  8
0
100
AcDbLine
 10
404.4999999999999
 20
826.0000000000001
 30
0.0
 11
404.4999999999999
 21
831.0
 31
0.0
  0
LINE
  5
FEB3
330
A
100
AcDbEntity
  8
0
100
AcDbLine
 10
304.5
 20
826.0000000000001
 30
0.0
 11
304.5
 21
831.0
 31
0.0
  0
LINE
  5
FEB4
330
A
100
AcDbEntity
  8
0
100
AcDbLine
 10
204.5
 20
826.0000000000001
 30
0.0
 11
204.5
 21
831.0
 31
0.0
  0
LINE
  5
FEB5
330
A
100
AcDbEntity
  8
0
100
AcDbLine
 10
104.5
 20
826.0000000000001
 30
0.0
 11
104.5
 21
831.0
 31
0.0
  0
LINE
  5
FEB6
330
A
100
AcDbEntity
  8
0
100
AcDbLine
 10
904.5000000000005
 20
826.0000000000001
 30
0.0
 11
904.5000000000005
 21
831.0
 31
0.0
  0
LINE
  5
FEB7
330
A
100
AcDbEntity
  8
0
100
AcDbLine
 10
1004.5
 20
826.0000000000001
 30
0.0
 11
1004.5
 21
831.0
 31
0.0
  0
LINE
  5
FEB8
330
A
100
AcDbEntity
  8
0
100
AcDbLine
 10
1104.5
 20
826.0000000000001
 30
0.0
 11
1104.5
 21
831.0
 31
0.0
  0
LINE
  5
FEB9
330
A
100
AcDbEntity
  8
0
100
AcDbLine
 10
704.4999999999999
 20
10.0
 30
0.0
 11
704.4999999999999
 21
15.0
 31
0.0
  0
LINE
  5
FEBA
330
A
100
AcDbEntity
  8
0
100
AcDbLine
 10
904.5000000000005
 20
10.0
 30
0.0
 11
904.5000000000005
 21
15.0
 31
0.0
  0
LINE
  5
FEBB
330
A
100
AcDbEntity
  8
0
100
AcDbLine
 10
1004.5
 20
10.0
 30
0.0
 11
1004.5
 21
15.0
 31
0.0
  0
LINE
  5
FEBC
330
A
100
AcDbEntity
  8
0
100
AcDbLine
 10
1104.5
 20
10.0
 30
0.0
 11
1104.5
 21
15.0
 31
0.0
  0
LINE
  5
FEBD
330
A
100
AcDbEntity
  8
0
100
AcDbLine
 10
504.4999999999999
 20
10.0
 30
0.0
 11
504.4999999999999
 21
15.0
 31
0.0
  0
LINE
  5
FEBE
330
A
100
AcDbEntity
  8
0
100
AcDbLine
 10
404.4999999999999
 20
10.0
 30
0.0
 11
404.4999999999999
 21
15.0
 31
0.0
  0
LINE
  5
FEBF
330
A
100
AcDbEntity
  8
0
100
AcDbLine
 10
304.5
 20
10.0
 30
0.0
 11
304.5
 21
15.0
 31
0.0
  0
LINE
  5
FEC0
330
A
100
AcDbEntity
  8
0
100
AcDbLine
 10
204.5
 20
10.0
 30
0.0
 11
204.5
 21
15.0
 31
0.0
  0
LINE
  5
FEC1
330
A
100
AcDbEntity
  8
0
100
AcDbLine
 10
104.5
 20
10.0
 30
0.0
 11
104.5
 21
15.0
 31
0.0
  0
LINE
  5
FEC2
330
A
100
AcDbEntity
  8
0
100
AcDbLine
 10
704.4999999999999
 20
826.0000000000001
 30
0.0
 11
704.4999999999999
 21
831.0
 31
0.0
  0
LINE
  5
FEC3
330
A
100
AcDbEntity
  8
0
100
AcDbLine
 10
10.0
 20
10.0
 30
0.0
 11
10.0
 21
831.0
 31
0.0
  0
LINE
  5
FEC4
330
A
100
AcDbEntity
  8
0
100
AcDbLine
 10
35.30000000000018
 20
825.6999999999999
 30
0.0
 11
1173.699999999999
 21
825.6999999999999
 31
0.0
  0
LINE
  5
FEC5
330
A
100
AcDbEntity
  8
0
100
AcDbLine
 10
35.60000000000036
 20
825.4000000000001
 30
0.0
 11
1173.4
 21
825.4000000000001
 31
0.0
  0
LINE
  5
FEC6
330
A
100
AcDbEntity
  8
0
100
AcDbLine
 10
35.90000000000055
 20
825.1000000000001
 30
0.0
 11
1173.100000000001
 21
825.1000000000001
 31
0.0
  0
LINE
  5
FEC7
330
A
100
AcDbEntity
  8
0
100
AcDbLine
 10
36.19999999999982
 20
824.7999999999999
 30
0.0
 11
1172.8
 21
824.7999999999999
 31
0.0
  0
LINE
  5
FEC8
330
A
100
AcDbEntity
  8
0
100
AcDbLine
 10
36.5
 20
824.5
 30
0.0
 11
1172.5
 21
824.5
 31
0.0
  0
LINE
  5
FEC9
330
A
100
AcDbEntity
  8
0
100
AcDbLine
 10
36.80000000000018
 20
824.1999999999999
 30
0.0
 11
1172.199999999999
 21
824.1999999999999
 31
0.0
  0
LINE
  5
FECA
330
A
100
AcDbEntity
  8
0
100
AcDbLine
 10
37.10000000000036
 20
823.9000000000002
 30
0.0
 11
1171.9
 21
823.9000000000002
 31
0.0
  0
LINE
  5
FECB
330
A
100
AcDbEntity
  8
0
100
AcDbLine
 10
37.40000000000055
 20
823.6
 30
0.0
 11
1171.600000000001
 21
823.6
 31
0.0
  0
LINE
  5
FECC
330
A
100
AcDbEntity
  8
0
100
AcDbLine
 10
35.30000000000018
 20
15.29999999999972
 30
0.0
 11
35.30000000000018
 21
825.6999999999999
 31
0.0
  0
LINE
  5
FECD
330
A
100
AcDbEntity
  8
0
100
AcDbLine
 10
35.60000000000036
 20
15.59999999999991
 30
0.0
 11
35.60000000000036
 21
825.4000000000001
 31
0.0
  0
LINE
  5
FECE
330
A
100
AcDbEntity
  8
0
100
AcDbLine
 10
35.90000000000055
 20
15.89999999999986
 30
0.0
 11
35.90000000000055
 21
825.1000000000001
 31
0.0
  0
LINE
  5
FECF
330
A
100
AcDbEntity
  8
0
100
AcDbLine
 10
36.19999999999982
 20
16.19999999999982
 30
0.0
 11
36.19999999999982
 21
824.7999999999999
 31
0.0
  0
LINE
  5
FED0
330
A
100
AcDbEntity
  8
0
100
AcDbLine
 10
36.5
 20
16.5
 30
0.0
 11
36.5
 21
824.5
 31
0.0
  0
LINE
  5
FED1
330
A
100
AcDbEntity
  8
0
100
AcDbLine
 10
36.80000000000018
 20
16.79999999999973
 30
0.0
 11
36.80000000000018
 21
824.1999999999999
 31
0.0
  0
LINE
  5
FED2
330
A
100
AcDbEntity
  8
0
100
AcDbLine
 10
37.10000000000036
 20
17.09999999999991
 30
0.0
 11
37.10000000000036
 21
823.9000000000002
 31
0.0
  0
LINE
  5
FED3
330
A
100
AcDbEntity
  8
0
100
AcDbLine
 10
37.40000000000055
 20
17.39999999999986
 30
0.0
 11
37.40000000000055
 21
823.6
 31
0.0
  0
LINE
  5
FED4
330
A
100
AcDbEntity
  8
0
100
AcDbLine
 10
35.30000000000018
 20
15.29999999999972
 30
0.0
 11
1173.699999999999
 21
15.29999999999972
 31
0.0
  0
LINE
  5
FED5
330
A
100
AcDbEntity
  8
0
100
AcDbLine
 10
35.60000000000036
 20
15.59999999999991
 30
0.0
 11
1173.4
 21
15.59999999999991
 31
0.0
  0
LINE
  5
FED6
330
A
100
AcDbEntity
  8
0
100
AcDbLine
 10
35.90000000000055
 20
15.89999999999986
 30
0.0
 11
1173.100000000001
 21
15.89999999999986
 31
0.0
  0
LINE
  5
FED7
330
A
100
AcDbEntity
  8
0
100
AcDbLine
 10
36.19999999999982
 20
16.19999999999982
 30
0.0
 11
1172.8
 21
16.19999999999982
 31
0.0
  0
LINE
  5
FED8
330
A
100
AcDbEntity
  8
0
100
AcDbLine
 10
36.5
 20
16.5
 30
0.0
 11
1172.5
 21
16.5
 31
0.0
  0
LINE
  5
FED9
330
A
100
AcDbEntity
  8
0
100
AcDbLine
 10
36.80000000000018
 20
16.79999999999973
 30
0.0
 11
1172.199999999999
 21
16.79999999999973
 31
0.0
  0
LINE
  5
FEDA
330
A
100
AcDbEntity
  8
0
100
AcDbLine
 10
37.10000000000036
 20
17.09999999999991
 30
0.0
 11
1171.9
 21
17.09999999999991
 31
0.0
  0
LINE
  5
FEDB
330
A
100
AcDbEntity
  8
0
100
AcDbLine
 10
37.40000000000055
 20
17.39999999999986
 30
0.0
 11
1171.600000000001
 21
17.39999999999986
 31
0.0
  0
LINE
  5
FEDC
330
A
100
AcDbEntity
  8
0
100
AcDbLine
 10
1173.699999999999
 20
15.29999999999972
 30
0.0
 11
1173.699999999999
 21
825.6999999999999
 31
0.0
  0
LINE
  5
FEDD
330
A
100
AcDbEntity
  8
0
100
AcDbLine
 10
1173.4
 20
15.59999999999991
 30
0.0
 11
1173.4
 21
825.4000000000001
 31
0.0
  0
LINE
  5
FEDE
330
A
100
AcDbEntity
  8
0
100
AcDbLine
 10
1173.100000000001
 20
15.89999999999986
 30
0.0
 11
1173.100000000001
 21
825.1000000000001
 31
0.0
  0
LINE
  5
FEDF
330
A
100
AcDbEntity
  8
0
100
AcDbLine
 10
1172.8
 20
16.19999999999982
 30
0.0
 11
1172.8
 21
824.7999999999999
 31
0.0
  0
LINE
  5
FEE0
330
A
100
AcDbEntity
  8
0
100
AcDbLine
 10
1172.5
 20
16.5
 30
0.0
 11
1172.5
 21
824.5
 31
0.0
  0
LINE
  5
FEE1
330
A
100
AcDbEntity
  8
0
100
AcDbLine
 10
1172.199999999999
 20
16.79999999999973
 30
0.0
 11
1172.199999999999
 21
824.1999999999999
 31
0.0
  0
LINE
  5
FEE2
330
A
100
AcDbEntity
  8
0
100
AcDbLine
 10
1171.9
 20
17.09999999999991
 30
0.0
 11
1171.9
 21
823.9000000000002
 31
0.0
  0
LINE
  5
FEE3
330
A
100
AcDbEntity
  8
0
100
AcDbLine
 10
1171.600000000001
 20
17.39999999999986
 30
0.0
 11
1171.600000000001
 21
823.6
 31
0.0
  0
TEXT
  5
FEE4
330
A
100
AcDbEntity
  8
0
100
AcDbText
 10
153.2568894952251
 20
826.9000000000001
 30
0.0
 40
3.2
  1
2
 72
     1
 11
154.5
 21
828.5000000000001
 31
0.0
100
AcDbText
 73
     2
  0
TEXT
  5
FEE5
330
A
100
AcDbEntity
  8
0
100
AcDbText
 10
253.2568894952251
 20
826.9000000000001
 30
0.0
 40
3.2
  1
3
 72
     1
 11
254.5
 21
828.5000000000001
 31
0.0
100
AcDbText
 73
     2
  0
TEXT
  5
FEE6
330
A
100
AcDbEntity
  8
0
100
AcDbText
 10
353.2568894952251
 20
826.9000000000001
 30
0.0
 40
3.2
  1
4
 72
     1
 11
354.5
 21
828.5000000000001
 31
0.0
100
AcDbText
 73
     2
  0
TEXT
  5
FEE7
330
A
100
AcDbEntity
  8
0
100
AcDbText
 10
453.2568894952251
 20
826.9000000000001
 30
0.0
 40
3.2
  1
5
 72
     1
 11
454.4999999999999
 21
828.5000000000001
 31
0.0
100
AcDbText
 73
     2
  0
TEXT
  5
FEE8
330
A
100
AcDbEntity
  8
0
100
AcDbText
 10
653.2568894952251
 20
826.9000000000001
 30
0.0
 40
3.2
  1
7
 72
     1
 11
654.4999999999999
 21
828.5000000000001
 31
0.0
100
AcDbText
 73
     2
  0
TEXT
  5
FEE9
330
A
100
AcDbEntity
  8
0
100
AcDbText
 10
753.2568894952255
 20
826.9000000000001
 30
0.0
 40
3.2
  1
8
 72
     1
 11
754.5000000000004
 21
828.5000000000001
 31
0.0
100
AcDbText
 73
     2
  0
TEXT
  5
FEEA
330
A
100
AcDbEntity
  8
0
100
AcDbText
 10
853.2568894952255
 20
826.9000000000001
 30
0.0
 40
3.2
  1
9
 72
     1
 11
854.5000000000005
 21
828.5000000000001
 31
0.0
100
AcDbText
 73
     2
  0
TEXT
  5
FEEB
330
A
100
AcDbEntity
  8
0
100
AcDbText
 10
952.0137789904506
 20
826.9000000000001
 30
0.0
 40
3.2
  1
10
 72
     1
 11
954.5000000000005
 21
828.5000000000001
 31
0.0
100
AcDbText
 73
     2
  0
TEXT
  5
FEEC
330
A
100
AcDbEntity
  8
0
100
AcDbText
 10
553.2568894952251
 20
826.9000000000001
 30
0.0
 40
3.2
  1
6
 72
     1
 11
554.4999999999999
 21
828.5000000000001
 31
0.0
100
AcDbText
 73
     2
  0
TEXT
  5
FEED
330
A
100
AcDbEntity
  8
0
100
AcDbText
 10
1052.01377899045
 20
826.9000000000001
 30
0.0
 40
3.2
  1
11
 72
     1
 11
1054.5
 21
828.5000000000001
 31
0.0
100
AcDbText
 73
     2
  0
TEXT
  5
FEEE
330
A
100
AcDbEntity
  8
0
100
AcDbText
 10
1141.76377899045
 20
826.9000000000001
 30
0.0
 40
3.2
  1
12
 72
     1
 11
1144.25
 21
828.5000000000001
 31
0.0
100
AcDbText
 73
     2
  0
TEXT
  5
FEEF
330
A
100
AcDbEntity
  8
0
100
AcDbText
 10
73.5068894952251
 20
826.9000000000001
 30
0.0
 40
3.2
  1
1
 72
     1
 11
74.75
 21
828.5000000000001
 31
0.0
100
AcDbText
 73
     2
  0
TEXT
  5
FEF0
330
A
100
AcDbEntity
  8
0
100
AcDbText
 10
153.2568894952251
 20
10.9
 30
0.0
 40
3.2
  1
2
 72
     1
 11
154.5
 21
12.5
 31
0.0
100
AcDbText
 73
     2
  0
TEXT
  5
FEF1
330
A
100
AcDbEntity
  8
0
100
AcDbText
 10
253.2568894952251
 20
10.9
 30
0.0
 40
3.2
  1
3
 72
     1
 11
254.5
 21
12.5
 31
0.0
100
AcDbText
 73
     2
  0
TEXT
  5
FEF2
330
A
100
AcDbEntity
  8
0
100
AcDbText
 10
353.2568894952251
 20
10.9
 30
0.0
 40
3.2
  1
4
 72
     1
 11
354.5
 21
12.5
 31
0.0
100
AcDbText
 73
     2
  0
TEXT
  5
FEF3
330
A
100
AcDbEntity
  8
0
100
AcDbText
 10
453.2568894952251
 20
10.9
 30
0.0
 40
3.2
  1
5
 72
     1
 11
454.4999999999999
 21
12.5
 31
0.0
100
AcDbText
 73
     2
  0
TEXT
  5
FEF4
330
A
100
AcDbEntity
  8
0
100
AcDbText
 10
653.2568894952251
 20
10.9
 30
0.0
 40
3.2
  1
7
 72
     1
 11
654.4999999999999
 21
12.5
 31
0.0
100
AcDbText
 73
     2
  0
TEXT
  5
FEF5
330
A
100
AcDbEntity
  8
0
100
AcDbText
 10
753.2568894952255
 20
10.9
 30
0.0
 40
3.2
  1
8
 72
     1
 11
754.5000000000004
 21
12.5
 31
0.0
100
AcDbText
 73
     2
  0
TEXT
  5
FEF6
330
A
100
AcDbEntity
  8
0
100
AcDbText
 10
853.2568894952255
 20
10.9
 30
0.0
 40
3.2
  1
9
 72
     1
 11
854.5000000000005
 21
12.5
 31
0.0
100
AcDbText
 73
     2
  0
TEXT
  5
FEF7
330
A
100
AcDbEntity
  8
0
100
AcDbText
 10
952.0137789904506
 20
10.9
 30
0.0
 40
3.2
  1
10
 72
     1
 11
954.5000000000005
 21
12.5
 31
0.0
100
AcDbText
 73
     2
  0
TEXT
  5
FEF8
330
A
100
AcDbEntity
  8
0
100
AcDbText
 10
553.2568894952251
 20
10.9
 30
0.0
 40
3.2
  1
6
 72
     1
 11
554.4999999999999
 21
12.5
 31
0.0
100
AcDbText
 73
     2
  0
TEXT
  5
FEF9
330
A
100
AcDbEntity
  8
0
100
AcDbText
 10
1052.01377899045
 20
10.9
 30
0.0
 40
3.2
  1
11
 72
     1
 11
1054.5
 21
12.5
 31
0.0
100
AcDbText
 73
     2
  0
TEXT
  5
FEFA
330
A
100
AcDbEntity
  8
0
100
AcDbText
 10
1141.76377899045
 20
10.9
 30
0.0
 40
3.2
  1
12
 72
     1
 11
1144.25
 21
12.5
 31
0.0
100
AcDbText
 73
     2
  0
TEXT
  5
FEFB
330
A
100
AcDbEntity
  8
0
100
AcDbText
 10
73.5068894952251
 20
10.9
 30
0.0
 40
3.2
  1
1
 72
     1
 11
74.75
 21
12.5
 31
0.0
100
AcDbText
 73
     2
  0
TEXT
  5
FEFC
330
A
100
AcDbEntity
  8
0
100
AcDbText
 10
1174.885811732606
 20
771.65
 30
0.0
 40
3.2
  1
H
 72
     1
 11
1176.5
 21
773.2500000000001
 31
0.0
100
AcDbText
 73
     2
  0
TEXT
  5
FEFD
330
A
100
AcDbEntity
  8
0
100
AcDbText
 10
1174.76139154161
 20
668.9
 30
0.0
 40
3.2
  1
G
 72
     1
 11
1176.5
 21
670.5
 31
0.0
100
AcDbText
 73
     2
  0
TEXT
  5
FEFE
330
A
100
AcDbEntity
  8
0
100
AcDbText
 10
1175.134652114598
 20
568.9
 30
0.0
 40
3.2
  1
F
 72
     1
 11
1176.5
 21
570.5
 31
0.0
100
AcDbText
 73
     2
  0
TEXT
  5
FEFF
330
A
100
AcDbEntity
  8
0
100
AcDbText
 10
1175.009140518418
 20
468.9
 30
0.0
 40
3.2
  1
E
 72
     1
 11
1176.5
 21
470.5
 31
0.0
100
AcDbText
 73
     2
  0
TEXT
  5
FF00
330
A
100
AcDbEntity
  8
0
100
AcDbText
 10
1174.885811732606
 20
368.9
 30
0.0
 40
3.2
  1
D
 72
     1
 11
1176.5
 21
370.5
 31
0.0
100
AcDbText
 73
     2
  0
TEXT
  5
FF01
330
A
100
AcDbEntity
  8
0
100
AcDbText
 10
1174.885811732606
 20
268.9
 30
0.0
 40
3.2
  1
C
 72
     1
 11
1176.5
 21
270.5
 31
0.0
100
AcDbText
 73
     2
  0
TEXT
  5
FF02
330
A
100
AcDbEntity
  8
0
100
AcDbText
 10
1175.009140518418
 20
168.9
 30
0.0
 40
3.2
  1
B
 72
     1
 11
1176.5
 21
170.5
 31
0.0
100
AcDbText
 73
     2
  0
TEXT
  5
FF03
330
A
100
AcDbEntity
  8
0
100
AcDbText
 10
1175.009140518418
 20
66.15000000000001
 30
0.0
 40
3.2
  1
A
 72
     1
 11
1176.5
 21
67.75
 31
0.0
100
AcDbText
 73
     2
  0
LINE
  5
FF04
330
A
100
AcDbEntity
  8
0
100
AcDbLine
 10
30.0
 20
220.5
 30
0.0
 11
35.0
 21
220.5
 31
0.0
  0
LINE
  5
FF05
330
A
100
AcDbEntity
  8
0
100
AcDbLine
 10
30.0
 20
320.5
 30
0.0
 11
35.0
 21
320.5
 31
0.0
  0
LINE
  5
FF06
330
A
100
AcDbEntity
  8
0
100
AcDbLine
 10
30.0
 20
520.5
 30
0.0
 11
35.0
 21
520.5
 31
0.0
  0
LINE
  5
FF07
330
A
100
AcDbEntity
  8
0
100
AcDbLine
 10
30.0
 20
620.5
 30
0.0
 11
35.0
 21
620.5
 31
0.0
  0
LINE
  5
FF08
330
A
100
AcDbEntity
  8
0
100
AcDbLine
 10
30.0
 20
720.5
 30
0.0
 11
35.0
 21
720.5
 31
0.0
  0
LINE
  5
FF09
330
A
100
AcDbEntity
  8
0
100
AcDbLine
 10
30.0
 20
120.5
 30
0.0
 11
35.0
 21
120.5
 31
0.0
  0
TEXT
  5
FF0A
330
A
100
AcDbEntity
  8
0
100
AcDbText
 10
30.88581173260573
 20
771.65
 30
0.0
 40
3.2
  1
H
 72
     1
 11
32.5
 21
773.2500000000001
 31
0.0
100
AcDbText
 73
     2
  0
TEXT
  5
FF0B
330
A
100
AcDbEntity
  8
0
100
AcDbText
 10
30.76139154160982
 20
668.9
 30
0.0
 40
3.2
  1
G
 72
     1
 11
32.5
 21
670.5
 31
0.0
100
AcDbText
 73
     2
  0
TEXT
  5
FF0C
330
A
100
AcDbEntity
  8
0
100
AcDbText
 10
31.13465211459754
 20
568.9
 30
0.0
 40
3.2
  1
F
 72
     1
 11
32.5
 21
570.5
 31
0.0
100
AcDbText
 73
     2
  0
TEXT
  5
FF0D
330
A
100
AcDbEntity
  8
0
100
AcDbText
 10
31.00914051841746
 20
468.9
 30
0.0
 40
3.2
  1
E
 72
     1
 11
32.5
 21
470.5
 31
0.0
100
AcDbText
 73
     2
  0
TEXT
  5
FF0E
330
A
100
AcDbEntity
  8
0
100
AcDbText
 10
30.88581173260573
 20
368.9
 30
0.0
 40
3.2
  1
D
 72
     1
 11
32.5
 21
370.5
 31
0.0
100
AcDbText
 73
     2
  0
TEXT
  5
FF0F
330
A
100
AcDbEntity
  8
0
100
AcDbText
 10
30.88581173260573
 20
268.9
 30
0.0
 40
3.2
  1
C
 72
     1
 11
32.5
 21
270.5
 31
0.0
100
AcDbText
 73
     2
  0
TEXT
  5
FF10
330
A
100
AcDbEntity
  8
0
100
AcDbText
 10
31.00914051841746
 20
168.9
 30
0.0
 40
3.2
  1
B
 72
     1
 11
32.5
 21
170.5
 31
0.0
100
AcDbText
 73
     2
  0
TEXT
  5
FF11
330
A
100
AcDbEntity
  8
0
100
AcDbText
 10
31.00914051841746
 20
66.15000000000001
 30
0.0
 40
3.2
  1
A
 72
     1
 11
32.5
 21
67.75
 31
0.0
100
AcDbText
 73
     2
  0
LWPOLYLINE
  5
FF8B
330
A
100
AcDbEntity
  8
0
100
AcDbPolyline
 90
        4
 70
     1
 43
0.0
 10
0.0
 20
0.0
 10
1189.0
 20
0.0
 10
1189.0
 20
841.0
 10
0.0
 20
841.0
  0
LINE
  5
FFC1
330
A
100
AcDbEntity
  8
0
  6
Continuous
 62
     7
370
     9
100
AcDbLine
 10
1094.662149383496
 20
63.77364445820262
 30
0.0
 11
1094.776334705951
 21
63.88782978065797
 31
0.0
1001
ACAD
1010
0.0
1020
0.0
1030
0.0
  0
LINE
  5
FFC2
330
A
100
AcDbEntity
  8
0
  6
Continuous
 62
     7
370
     9
100
AcDbLine
 10
1094.828732033862
 20
63.49121430251535
 30
0.0
 11
1095.225347512005
 21
63.88782978065819
 31
0.0
1001
ACAD
1010
0.0
1020
0.0
1030
0.0
  0
LINE
  5
FFC3
330
A
100
AcDbEntity
  8
0
  6
Continuous
 62
     7
370
     9
100
AcDbLine
 10
1094.995314684228
 20
63.20878414682806
 30
0.0
 11
1095.674360318058
 21
63.88782978065819
 31
0.0
1001
ACAD
1010
0.0
1020
0.0
1030
0.0
  0
LINE
  5
FFC4
330
A
100
AcDbEntity
  8
0
  6
Continuous
 62
     7
370
     9
100
AcDbLine
 10
1095.161897334594
 20
62.92635399114056
 30
0.0
 11
1096.123373124112
 21
63.88782978065842
 31
0.0
1001
ACAD
1010
0.0
1020
0.0
1030
0.0
  0
LINE
  5
FFC5
330
A
100
AcDbEntity
  8
0
  6
Continuous
 62
     7
370
     9
100
AcDbLine
 10
1095.422731962625
 20
62.73817581311845
 30
0.0
 11
1096.572385930165
 21
63.88782978065842
 31
0.0
1001
ACAD
1010
0.0
1020
0.0
1030
0.0
  0
LINE
  5
FFC6
330
A
100
AcDbEntity
  8
0
  6
Continuous
 62
     7
370
     9
100
AcDbLine
 10
1095.871744768679
 20
62.73817581311823
 30
0.0
 11
1097.021398736219
 21
63.88782978065819
 31
0.0
1001
ACAD
1010
0.0
1020
0.0
1030
0.0
  0
LINE
  5
FFC7
330
A
100
AcDbEntity
  8
0
  6
Continuous
 62
     7
370
     9
100
AcDbLine
 10
1095.272888384964
 20
61.69030662335035
 30
0.0
 11
1095.384992717432
 21
61.80241095581823
 31
0.0
1001
ACAD
1010
0.0
1020
0.0
1030
0.0
  0
LINE
  5
FFC8
330
A
100
AcDbEntity
  8
0
  6
Continuous
 62
     7
370
     9
100
AcDbLine
 10
1096.320757574732
 20
62.73817581311845
 30
0.0
 11
1097.448584735208
 21
63.86600297359405
 31
0.0
1001
ACAD
1010
0.0
1020
0.0
1030
0.0
  0
LINE
  5
FFC9
330
A
100
AcDbEntity
  8
0
  6
Continuous
 62
     7
370
     9
100
AcDbLine
 10
1095.272888384965
 20
61.24129381729722
 30
0.0
 11
1095.834005523486
 21
61.80241095581846
 31
0.0
1001
ACAD
1010
0.0
1020
0.0
1030
0.0
  0
LINE
  5
FFCA
330
A
100
AcDbEntity
  8
0
  6
Continuous
 62
     7
370
     9
100
AcDbLine
 10
1096.769770380786
 20
62.73817581311869
 30
0.0
 11
1097.82217667006
 21
63.79058210239236
 31
0.0
1001
ACAD
1010
0.0
1020
0.0
1030
0.0
  0
LINE
  5
FFCB
330
A
100
AcDbEntity
  8
0
  6
Continuous
 62
     7
370
     9
100
AcDbLine
 10
1095.272888384964
 20
60.7922810112434
 30
0.0
 11
1096.283018329539
 21
61.802410955818
 31
0.0
1001
ACAD
1010
0.0
1020
0.0
1030
0.0
  0
LINE
  5
FFCC
330
A
100
AcDbEntity
  8
0
  6
Continuous
 62
     7
370
     9
100
AcDbLine
 10
1097.214997700021
 20
62.73439032630062
 30
0.0
 11
1098.154828876513
 21
63.67422150279231
 31
0.0
1001
ACAD
1010
0.0
1020
0.0
1030
0.0
  0
LINE
  5
FFCD
330
A
100
AcDbEntity
  8
0
  6
Continuous
 62
     7
370
     9
100
AcDbLine
 10
1095.272888384964
 20
60.34326820519004
 30
0.0
 11
1096.422552074377
 21
61.49293189460308
 31
0.0
1001
ACAD
1010
0.0
1020
0.0
1030
0.0
  0
LINE
  5
FFCE
330
A
100
AcDbEntity
  8
0
  6
Continuous
 62
     7
370
     9
100
AcDbLine
 10
1097.589585654726
 20
62.6599654749516
 30
0.0
 11
1098.453821610854
 21
63.52420143107974
 31
0.0
1001
ACAD
1010
0.0
1020
0.0
1030
0.0
  0
LINE
  5
FFCF
330
A
100
AcDbEntity
  8
0
  6
Continuous
 62
     7
370
     9
100
AcDbLine
 10
1095.272888384964
 20
59.89425539913646
 30
0.0
 11
1096.422552074378
 21
61.04391908854973
 31
0.0
1001
ACAD
1010
0.0
1020
0.0
1030
0.0
  0
LINE
  5
FFD0
330
A
100
AcDbEntity
  8
0
  6
Continuous
 62
     7
370
     9
100
AcDbLine
 10
1097.896658471351
 20
62.51802548552359
 30
0.0
 11
1098.723175103596
 21
63.34454211776847
 31
0.0
1001
ACAD
1010
0.0
1020
0.0
1030
0.0
  0
LINE
  5
FFD1
330
A
100
AcDbEntity
  8
0
  6
Continuous
 62
     7
370
     9
100
AcDbLine
 10
1095.272888384964
 20
59.44524259308287
 30
0.0
 11
1096.422552074377
 21
60.59490628249637
 31
0.0
1001
ACAD
1010
0.0
1020
0.0
1030
0.0
  0
LINE
  5
FFD2
330
A
100
AcDbEntity
  8
0
  6
Continuous
 62
     7
370
     9
100
AcDbLine
 10
1098.151856061187
 20
62.32421026930547
 30
0.0
 11
1098.965000155389
 21
63.13735436350725
 31
0.0
1001
ACAD
1010
0.0
1020
0.0
1030
0.0
  0
LINE
  5
FFD3
330
A
100
AcDbEntity
  8
0
  6
Continuous
 62
     7
370
     9
100
AcDbLine
 10
1095.272888384964
 20
58.99622978702973
 30
0.0
 11
1096.422552074377
 21
60.14589347644278
 31
0.0
1001
ACAD
1010
0.0
1020
0.0
1030
0.0
  0
LINE
  5
FFD4
330
A
100
AcDbEntity
  8
0
  6
Continuous
 62
     7
370
     9
100
AcDbLine
 10
1098.359692181975
 20
62.08303358404055
 30
0.0
 11
1099.180057378293
 21
62.90339878035888
 31
0.0
1001
ACAD
1010
0.0
1020
0.0
1030
0.0
  0
LINE
  5
FFD5
330
A
100
AcDbEntity
  8
0
  6
Continuous
 62
     7
370
     9
100
AcDbLine
 10
1095.272888384964
 20
58.54721698097614
 30
0.0
 11
1096.422552074377
 21
59.69688067038919
 31
0.0
1001
ACAD
1010
0.0
1020
0.0
1030
0.0
  0
LINE
  5
FFD6
330
A
100
AcDbEntity
  8
0
  6
Continuous
 62
     7
370
     9
100
AcDbLine
 10
1098.522206748568
 20
61.79653534457952
 30
0.0
 11
1099.367935357511
 21
62.64226395352284
 31
0.0
1001
ACAD
1010
0.0
1020
0.0
1030
0.0
  0
LINE
  5
FFD7
330
A
100
AcDbEntity
  8
0
  6
Continuous
 62
     7
370
     9
100
AcDbLine
 10
1095.272888384964
 20
58.09820417492256
 30
0.0
 11
1096.422552074377
 21
59.24786786433561
 31
0.0
1001
ACAD
1010
0.0
1020
0.0
1030
0.0
  0
LINE
  5
FFD8
330
A
100
AcDbEntity
  8
0
  6
Continuous
 62
     7
370
     9
100
AcDbLine
 10
1098.643710845706
 20
61.46902663566447
 30
0.0
 11
1099.52933809401
 21
62.35465388396824
 31
0.0
1001
ACAD
1010
0.0
1020
0.0
1030
0.0
  0
LINE
  5
FFD9
330
A
100
AcDbEntity
  8
0
  6
Continuous
 62
     7
370
     9
100
AcDbLine
 10
1095.511526797935
 20
57.88782978183963
 30
0.0
 11
1096.661180765475
 21
59.03748374937982
 31
0.0
1001
ACAD
1010
0.0
1020
0.0
1030
0.0
  0
LINE
  5
FFDA
330
A
100
AcDbEntity
  8
0
  6
Continuous
 62
     7
370
     9
100
AcDbLine
 10
1098.713953064581
 20
61.09025604848557
 30
0.0
 11
1099.665168542061
 21
62.04147152596624
 31
0.0
1001
ACAD
1010
0.0
1020
0.0
1030
0.0
  0
LINE
  5
FFDB
330
A
100
AcDbEntity
  8
0
  6
Continuous
 62
     7
370
     9
100
AcDbLine
 10
1095.960539603988
 20
57.88782978183985
 30
0.0
 11
1097.110208306719
 21
59.03749848457073
 31
0.0
1001
ACAD
1010
0.0
1020
0.0
1030
0.0
  0
LINE
  5
FFDC
330
A
100
AcDbEntity
  8
0
  6
Continuous
 62
     7
370
     9
100
AcDbLine
 10
1098.707869495721
 20
60.63515967357239
 30
0.0
 11
1099.772048787245
 21
61.6993389650961
 31
0.0
1001
ACAD
1010
0.0
1020
0.0
1030
0.0
  0
LINE
  5
FFDD
330
A
100
AcDbEntity
  8
0
  6
Continuous
 62
     7
370
     9
100
AcDbLine
 10
1096.409552410042
 20
57.88782978183985
 30
0.0
 11
1097.667350712456
 21
59.14562808425398
 31
0.0
1001
ACAD
1010
0.0
1020
0.0
1030
0.0
  0
LINE
  5
FFDE
330
A
100
AcDbEntity
  8
0
  6
Continuous
 62
     7
370
     9
100
AcDbLine
 10
1098.534690735536
 20
60.01296810733402
 30
0.0
 11
1099.844453234374
 21
61.3227306061724
 31
0.0
1001
ACAD
1010
0.0
1020
0.0
1030
0.0
  0
LINE
  5
FFDF
330
A
100
AcDbEntity
  8
0
  6
Continuous
 62
     7
370
     9
100
AcDbLine
 10
1096.858565216095
 20
57.88782978183985
 30
0.0
 11
1099.872874941265
 21
60.90213950700922
 31
0.0
1001
ACAD
1010
0.0
1020
0.0
1030
0.0
  0
LINE
  5
FFE0
330
A
100
AcDbEntity
  8
0
  6
Continuous
 62
     7
370
     9
100
AcDbLine
 10
1097.316038753102
 20
57.89629051279326
 30
0.0
 11
1099.838842177186
 21
60.41909393687752
 31
0.0
1001
ACAD
1010
0.0
1020
0.0
1030
0.0
  0
LINE
  5
FFE1
330
A
100
AcDbEntity
  8
0
  6
Continuous
 62
     7
370
     9
100
AcDbLine
 10
1100.799314564424
 20
61.37956632411533
 30
0.0
 11
1102.08447697441
 21
62.66472873410112
 31
0.0
1001
ACAD
1010
0.0
1020
0.0
1030
0.0
  0
LINE
  5
FFE2
330
A
100
AcDbEntity
  8
0
  6
Continuous
 62
     7
370
     9
100
AcDbLine
 10
1097.868314840308
 20
57.99955379394532
 30
0.0
 11
1099.696103117383
 21
59.82734207102089
 31
0.0
1001
ACAD
1010
0.0
1020
0.0
1030
0.0
  0
LINE
  5
FFE3
330
A
100
AcDbEntity
  8
0
  6
Continuous
 62
     7
370
     9
100
AcDbLine
 10
1100.622989537739
 20
60.7542284913768
 30
0.0
 11
1102.669079624744
 21
62.80031857838139
 31
0.0
1001
ACAD
1010
0.0
1020
0.0
1030
0.0
  0
LINE
  5
FFE4
330
A
100
AcDbEntity
  8
0
  6
Continuous
 62
     7
370
     9
100
AcDbLine
 10
1098.890825749483
 20
58.57305189706744
 30
0.0
 11
1099.091898467884
 21
58.77412461546828
 31
0.0
1001
ACAD
1010
0.0
1020
0.0
1030
0.0
  0
LINE
  5
FFE5
330
A
100
AcDbEntity
  8
0
  6
Continuous
 62
     7
370
     9
100
AcDbLine
 10
1100.593051623069
 20
60.27527777065301
 30
0.0
 11
1103.107295163063
 21
62.78952131064693
 31
0.0
1001
ACAD
1010
0.0
1020
0.0
1030
0.0
  0
LINE
  5
FFE6
330
A
100
AcDbEntity
  8
0
  6
Continuous
 62
     7
370
     9
100
AcDbLine
 10
1100.635117871576
 20
59.86833121310723
 30
0.0
 11
1103.473506538204
 21
62.70671987973469
 31
0.0
1001
ACAD
1010
0.0
1020
0.0
1030
0.0
  0
LINE
  5
FFE7
330
A
100
AcDbEntity
  8
0
  6
Continuous
 62
     7
370
     9
100
AcDbLine
 10
1100.72616729809
 20
59.51036783356698
 30
0.0
 11
1101.753669763649
 21
60.53787029912609
 31
0.0
1001
ACAD
1010
0.0
1020
0.0
1030
0.0
  0
LINE
  5
FFE8
330
A
100
AcDbEntity
  8
0
  6
Continuous
 62
     7
370
     9
100
AcDbLine
 10
1102.872759935208
 20
61.65696047068536
 30
0.0
 11
1103.790734735339
 21
62.57493527081624
 31
0.0
1001
ACAD
1010
0.0
1020
0.0
1030
0.0
  0
LINE
  5
FFE9
330
A
100
AcDbEntity
  8
0
  6
Continuous
 62
     7
370
     9
100
AcDbLine
 10
1100.855823616373
 20
59.19101134579705
 30
0.0
 11
1101.762320076533
 21
60.09750780595664
 31
0.0
1001
ACAD
1010
0.0
1020
0.0
1030
0.0
  0
LINE
  5
FFEA
330
A
100
AcDbEntity
  8
0
  6
Continuous
 62
     7
370
     9
100
AcDbLine
 10
1105.426250245667
 20
63.76143797509053
 30
0.0
 11
1105.552642051234
 21
63.88782978065797
 31
0.0
1001
ACAD
1010
0.0
1020
0.0
1030
0.0
  0
LINE
  5
FFEB
330
A
100
AcDbEntity
  8
0
  6
Continuous
 62
     7
370
     9
100
AcDbLine
 10
1103.233009956359
 20
61.56819768578316
 30
0.0
 11
1104.069356040704
 21
62.40454377012816
 31
0.0
1001
ACAD
1010
0.0
1020
0.0
1030
0.0
  0
LINE
  5
FFEC
330
A
100
AcDbEntity
  8
0
  6
Continuous
 62
     7
370
     9
100
AcDbLine
 10
1101.018843524739
 20
58.90501844810955
 30
0.0
 11
1101.863870487668
 21
59.75004541103863
 31
0.0
1001
ACAD
1010
0.0
1020
0.0
1030
0.0
  0
LINE
  5
FFED
330
A
100
AcDbEntity
  8
0
  6
Continuous
 62
     7
370
     9
100
AcDbLine
 10
1105.592832896033
 20
63.47900781940325
 30
0.0
 11
1106.001654857288
 21
63.88782978065819
 31
0.0
1001
ACAD
1010
0.0
1020
0.0
1030
0.0
  0
LINE
  5
FFEE
330
A
100
AcDbEntity
  8
0
  6
Continuous
 62
     7
370
     9
100
AcDbLine
 10
1103.501261503276
 20
61.38743642664599
 30
0.0
 11
1104.314613755987
 21
62.20078867935717
 31
0.0
1001
ACAD
1010
0.0
1020
0.0
1030
0.0
  0
LINE
  5
FFEF
330
A
100
AcDbEntity
  8
0
  6
Continuous
 62
     7
370
     9
100
AcDbLine
 10
1101.212743067355
 20
58.6499051846722
 30
0.0
 11
1102.029469529382
 21
59.46663164669939
 31
0.0
1001
ACAD
1010
0.0
1020
0.0
1030
0.0
  0
LINE
  5
FFF0
330
A
100
AcDbEntity
  8
0
  6
Continuous
 62
     7
370
     9
100
AcDbLine
 10
1105.759415546399
 20
63.19657766371574
 30
0.0
 11
1106.450667663341
 21
63.88782978065819
 31
0.0
1001
ACAD
1010
0.0
1020
0.0
1030
0.0
  0
LINE
  5
FFF1
330
A
100
AcDbEntity
  8
0
  6
Continuous
 62
     7
370
     9
100
AcDbLine
 10
1103.706144213792
 20
61.14330633110921
 30
0.0
 11
1104.52899183702
 21
61.9661539543365
 31
0.0
1001
ACAD
1010
0.0
1020
0.0
1030
0.0
  0
LINE
  5
FFF2
330
A
100
AcDbEntity
  8
0
  6
Continuous
 62
     7
370
     9
100
AcDbLine
 10
1101.43694307097
 20
58.42509238223306
 30
0.0
 11
1102.253608720038
 21
59.24175803130196
 31
0.0
1001
ACAD
1010
0.0
1020
0.0
1030
0.0
  0
LINE
  5
FFF3
330
A
100
AcDbEntity
  8
0
  6
Continuous
 62
     7
370
     9
100
AcDbLine
 10
1105.925998196765
 20
62.91414750802847
 30
0.0
 11
1106.899680469395
 21
63.88782978065842
 31
0.0
1001
ACAD
1010
0.0
1020
0.0
1030
0.0
  0
LINE
  5
FFF4
330
A
100
AcDbEntity
  8
0
  6
Continuous
 62
     7
370
     9
100
AcDbLine
 10
1103.852457059258
 20
60.84060637052175
 30
0.0
 11
1104.713069457053
 21
61.70121876831695
 31
0.0
1001
ACAD
1010
0.0
1020
0.0
1030
0.0
  0
LINE
  5
FFF5
330
A
100
AcDbEntity
  8
0
  6
Continuous
 62
     7
370
     9
100
AcDbLine
 10
1101.692592523676
 20
58.23172902888609
 30
0.0
 11
1102.546313635736
 21
59.08545014094534
 31
0.0
1001
ACAD
1010
0.0
1020
0.0
1030
0.0
  0
LINE
  5
FFF6
330
A
100
AcDbEntity
  8
0
  6
Continuous
 62
     7
370
     9
100
AcDbLine
 10
1106.199039307908
 20
62.73817581311823
 30
0.0
 11
1107.348693275448
 21
63.88782978065819
 31
0.0
1001
ACAD
1010
0.0
1020
0.0
1030
0.0
  0
LINE
  5
FFF7
330
A
100
AcDbEntity
  8
0
  6
Continuous
 62
     7
370
     9
100
AcDbLine
 10
1103.929288394789
 20
60.46842489999881
 30
0.0
 11
1104.865697627996
 21
61.40483413320566
 31
0.0
1001
ACAD
1010
0.0
1020
0.0
1030
0.0
  0
LINE
  5
FFF8
330
A
100
AcDbEntity
  8
0
  6
Continuous
 62
     7
370
     9
100
AcDbLine
 10
1101.982927128528
 20
58.07305082768448
 30
0.0
 11
1102.954937853823
 21
59.04506155297895
 31
0.0
1001
ACAD
1010
0.0
1020
0.0
1030
0.0
  0
LINE
  5
FFF9
330
A
100
AcDbEntity
  8
0
  6
Continuous
 62
     7
370
     9
100
AcDbLine
 10
1106.648052113962
 20
62.73817581311823
 30
0.0
 11
1107.797706081502
 21
63.88782978065842
 31
0.0
1001
ACAD
1010
0.0
1020
0.0
1030
0.0
  0
LINE
  5
FFFA
330
A
100
AcDbEntity
  8
0
  6
Continuous
 62
     7
370
     9
100
AcDbLine
 10
1103.889191959122
 20
59.97931565827821
 30
0.0
 11
1104.983640646793
 21
61.07376434594903
 31
0.0
1001
ACAD
1010
0.0
1020
0.0
1030
0.0
  0
LINE
  5
FFFB
330
A
100
AcDbEntity
  8
0
  6
Continuous
 62
     7
370
     9
100
AcDbLine
 10
1102.314464129052
 20
57.95557502215501
 30
0.0
 11
1105.060381269917
 21
60.70149216302048
 31
0.0
1001
ACAD
1010
0.0
1020
0.0
1030
0.0
  0
LINE
  5
FFFC
330
A
100
AcDbEntity
  8
0
  6
Continuous
 62
     7
370
     9
100
AcDbLine
 10
1107.097064920015
 20
62.73817581311845
 30
0.0
 11
1108.222631345748
 21
63.86374223885127
 31
0.0
1001
ACAD
1010
0.0
1020
0.0
1030
0.0
  0
LINE
  5
FFFD
330
A
100
AcDbEntity
  8
0
  6
Continuous
 62
     7
370
     9
100
AcDbLine
 10
1106.029789632407
 20
61.67090052551021
 30
0.0
 11
1106.161300062715
 21
61.80241095581823
 31
0.0
1001
ACAD
1010
0.0
1020
0.0
1030
0.0
  0
LINE
  5
FFFE
330
A
100
AcDbEntity
  8
0
  6
Continuous
 62
     7
370
     9
100
AcDbLine
 10
1102.700350574858
 20
57.89244866190802
 30
0.0
 11
1105.08277244776
 21
60.27487053480922
 31
0.0
1001
ACAD
1010
0.0
1020
0.0
1030
0.0
  0
LINE
  5
FFFF
330
A
100
AcDbEntity
  8
0
  6
Continuous
 62
     7
370
     9
100
AcDbLine
 10
1107.546077726069
 20
62.73817581311845
 30
0.0
 11
1108.594232875117
 21
63.78633096216709
 31
0.0
1001
ACAD
1010
0.0
1020
0.0
1030
0.0
  0
LINE
  5
10000
330
A
100
AcDbEntity
  8
0
  6
Continuous
 62
     7
370
     9
100
AcDbLine
 10
1106.029789632407
 20
61.22188771945684
 30
0.0
 11
1106.610312868769
 21
61.80241095581846
 31
0.0
1001
ACAD
1010
0.0
1020
0.0
1030
0.0
  0
LINE
  5
10001
330
A
100
AcDbEntity
  8
0
  6
Continuous
 62
     7
370
     9
100
AcDbLine
 10
1103.172133768056
 20
57.91521904905244
 30
0.0
 11
1105.01926687821
 21
59.7623521592061
 31
0.0
1001
ACAD
1010
0.0
1020
0.0
1030
0.0
  0
LINE
  5
10002
330
A
100
AcDbEntity
  8
0
  6
Continuous
 62
     7
370
     9
100
AcDbLine
 10
1107.989924654905
 20
62.73300993590078
 30
0.0
 11
1108.925310796558
 21
63.66839607755423
 31
0.0
1001
ACAD
1010
0.0
1020
0.0
1030
0.0
  0
LINE
  5
10003
330
A
100
AcDbEntity
  8
0
  6
Continuous
 62
     7
370
     9
100
AcDbLine
 10
1106.029789632407
 20
60.77287491340325
 30
0.0
 11
1107.059325674822
 21
61.80241095581846
 31
0.0
1001
ACAD
1010
0.0
1020
0.0
1030
0.0
  0
LINE
  5
10004
330
A
100
AcDbEntity
  8
0
  6
Continuous
 62
     7
370
     9
100
AcDbLine
 10
1103.867415389383
 20
58.16148786432609
 30
0.0
 11
1104.732262880532
 21
59.0263353554742
 31
0.0
1001
ACAD
1010
0.0
1020
0.0
1030
0.0
  0
LINE
  5
10005
330
A
100
AcDbEntity
  8
0
  6
Continuous
 62
     7
370
     9
100
AcDbLine
 10
1108.360980584963
 20
62.65505305990519
 30
0.0
 11
1109.222956263895
 21
63.51702873883755
 31
0.0
1001
ACAD
1010
0.0
1020
0.0
1030
0.0
  0
LINE
  5
10006
330
A
100
AcDbEntity
  8
0
  6
Continuous
 62
     7
370
     9
100
AcDbLine
 10
1106.029789632407
 20
60.32386210734944
 30
0.0
 11
1107.17945332182
 21
61.47352579676294
 31
0.0
1001
ACAD
1010
0.0
1020
0.0
1030
0.0
  0
LINE
  5
10007
330
A
100
AcDbEntity
  8
0
  6
Continuous
 62
     7
370
     9
100
AcDbLine
 10
1106.029789632407
 20
59.87484930129631
 30
0.0
 11
1107.17945332182
 21
61.02451299070935
 31
0.0
1001
ACAD
1010
0.0
1020
0.0
1030
0.0
  0
LINE
  5
10008
330
A
100
AcDbEntity
  8
0
  6
Continuous
 62
     7
370
     9
100
AcDbLine
 10
1108.665601967365
 20
62.51066163625409
 30
0.0
 11
1109.491087321723
 21
63.33614699061263
 31
0.0
1001
ACAD
1010
0.0
1020
0.0
1030
0.0
  0
LINE
  5
10009
330
A
100
AcDbEntity
  8
0
  6
Continuous
 62
     7
370
     9
100
AcDbLine
 10
1106.029789632407
 20
59.42583649524294
 30
0.0
 11
1107.17945332182
 21
60.57550018465599
 31
0.0
1001
ACAD
1010
0.0
1020
0.0
1030
0.0
  0
LINE
  5
1000A
330
A
100
AcDbEntity
  8
0
  6
Continuous
 62
     7
370
     9
100
AcDbLine
 10
1108.918712949695
 20
62.31475981253061
 30
0.0
 11
1109.731748395364
 21
63.12779525820019
 31
0.0
1001
ACAD
1010
0.0
1020
0.0
1030
0.0
  0
LINE
  5
1000B
330
A
100
AcDbEntity
  8
0
  6
Continuous
 62
     7
370
     9
100
AcDbLine
 10
1106.029789632407
 20
58.97682368918935
 30
0.0
 11
1107.17945332182
 21
60.1264873786024
 31
0.0
1001
ACAD
1010
0.0
1020
0.0
1030
0.0
  0
LINE
  5
1000C
330
A
100
AcDbEntity
  8
0
  6
Continuous
 62
     7
370
     9
100
AcDbLine
 10
1109.124497287146
 20
62.07153134392797
 30
0.0
 11
1109.945647841969
 21
62.89268189875087
 31
0.0
1001
ACAD
1010
0.0
1020
0.0
1030
0.0
  0
LINE
  5
1000D
330
A
100
AcDbEntity
  8
0
  6
Continuous
 62
     7
370
     9
100
AcDbLine
 10
1106.029789632407
 20
58.527810883136
 30
0.0
 11
1107.17945332182
 21
59.67747457254905
 31
0.0
1001
ACAD
1010
0.0
1020
0.0
1030
0.0
  0
LINE
  5
1000E
330
A
100
AcDbEntity
  8
0
  6
Continuous
 62
     7
370
     9
100
AcDbLine
 10
1109.285249059278
 20
61.78327031000685
 30
0.0
 11
1110.13232339536
 21
62.63034464608904
 31
0.0
1001
ACAD
1010
0.0
1020
0.0
1030
0.0
  0
LINE
  5
1000F
330
A
100
AcDbEntity
  8
0
  6
Continuous
 62
     7
370
     9
100
AcDbLine
 10
1106.029789632407
 20
58.07879807708264
 30
0.0
 11
1107.17945332182
 21
59.22846176649568
 31
0.0
1001
ACAD
1010
0.0
1020
0.0
1030
0.0
  0
LINE
  5
10010
330
A
100
AcDbEntity
  8
0
  6
Continuous
 62
     7
370
     9
100
AcDbLine
 10
1111.803359270524
 20
63.85236771519908
 30
0.0
 11
1111.838821335983
 21
63.88782978065819
 31
0.0
1001
ACAD
1010
0.0
1020
0.0
1030
0.0
  0
LINE
  5
10011
330
A
100
AcDbEntity
  8
0
  6
Continuous
 62
     7
370
     9
100
AcDbLine
 10
1109.404816569118
 20
61.45382501379344
 30
0.0
 11
1110.292657228045
 21
62.34166567271995
 31
0.0
1001
ACAD
1010
0.0
1020
0.0
1030
0.0
  0
LINE
  5
10012
330
A
100
AcDbEntity
  8
0
  6
Continuous
 62
     7
370
     9
100
AcDbLine
 10
1106.287834143218
 20
57.88782978183985
 30
0.0
 11
1107.437488110758
 21
59.03748374937959
 31
0.0
1001
ACAD
1010
0.0
1020
0.0
1030
0.0
  0
LINE
  5
10013
330
A
100
AcDbEntity
  8
0
  6
Continuous
 62
     7
370
     9
100
AcDbLine
 10
1111.96994192089
 20
63.56993755951157
 30
0.0
 11
1112.287834142036
 21
63.88782978065819
 31
0.0
1001
ACAD
1010
0.0
1020
0.0
1030
0.0
  0
LINE
  5
10014
330
A
100
AcDbEntity
  8
0
  6
Continuous
 62
     7
370
     9
100
AcDbLine
 10
1109.472444615579
 20
61.07244025420072
 30
0.0
 11
1110.427318265561
 21
62.0273139041833
 31
0.0
1001
ACAD
1010
0.0
1020
0.0
1030
0.0
  0
LINE
  5
10015
330
A
100
AcDbEntity
  8
0
  6
Continuous
 62
     7
370
     9
100
AcDbLine
 10
1106.736846949271
 20
57.88782978183963
 30
0.0
 11
1107.886728222087
 21
59.03771105465557
 31
0.0
1001
ACAD
1010
0.0
1020
0.0
1030
0.0
  0
LINE
  5
10016
330
A
100
AcDbEntity
  8
0
  6
Continuous
 62
     7
370
     9
100
AcDbLine
 10
1112.136524571256
 20
63.28750740382429
 30
0.0
 11
1112.736846948089
 21
63.88782978065797
 31
0.0
1001
ACAD
1010
0.0
1020
0.0
1030
0.0
  0
LINE
  5
10017
330
A
100
AcDbEntity
  8
0
  6
Continuous
 62
     7
370
     9
100
AcDbLine
 10
1109.461977410171
 20
60.61296024273997
 30
0.0
 11
1110.532842606581
 21
61.68382543914958
 31
0.0
1001
ACAD
1010
0.0
1020
0.0
1030
0.0
  0
LINE
  5
10018
330
A
100
AcDbEntity
  8
0
  6
Continuous
 62
     7
370
     9
100
AcDbLine
 10
1107.185859755325
 20
57.88782978183985
 30
0.0
 11
1108.457248596173
 21
59.15921862268828
 31
0.0
1001
ACAD
1010
0.0
1020
0.0
1030
0.0
  0
LINE
  5
10019
330
A
100
AcDbEntity
  8
0
  6
Continuous
 62
     7
370
     9
100
AcDbLine
 10
1112.303107221622
 20
63.00507724813702
 30
0.0
 11
1113.185859754143
 21
63.88782978065797
 31
0.0
1001
ACAD
1010
0.0
1020
0.0
1030
0.0
  0
LINE
  5
1001A
330
A
100
AcDbEntity
  8
0
  6
Continuous
 62
     7
370
     9
100
AcDbLine
 10
1109.274969935361
 20
59.97693996187649
 30
0.0
 11
1110.603582306622
 21
61.30555233313657
 31
0.0
1001
ACAD
1010
0.0
1020
0.0
1030
0.0
  0
LINE
  5
1001B
330
A
100
AcDbEntity
  8
0
  6
Continuous
 62
     7
370
     9
100
AcDbLine
 10
1107.634872561378
 20
57.88782978183963
 30
0.0
 11
1110.629783852098
 21
60.88274107256006
 31
0.0
1001
ACAD
1010
0.0
1020
0.0
1030
0.0
  0
LINE
  5
1001C
330
A
100
AcDbEntity
  8
0
  6
Continuous
 62
     7
370
     9
100
AcDbLine
 10
1112.446517713519
 20
62.69947493398081
 30
0.0
 11
1113.634872560196
 21
63.88782978065797
 31
0.0
1001
ACAD
1010
0.0
1020
0.0
1030
0.0
  0
LINE
  5
1001D
330
A
100
AcDbEntity
  8
0
  6
Continuous
 62
     7
370
     9
100
AcDbLine
 10
1108.094119826619
 20
57.89806424102676
 30
0.0
 11
1110.592356268219
 21
60.39630068262681
 31
0.0
1001
ACAD
1010
0.0
1020
0.0
1030
0.0
  0
LINE
  5
1001E
330
A
100
AcDbEntity
  8
0
  6
Continuous
 62
     7
370
     9
100
AcDbLine
 10
1112.191654421002
 20
61.99559883541019
 30
0.0
 11
1113.930446190947
 21
63.73439060535474
 31
0.0
1001
ACAD
1010
0.0
1020
0.0
1030
0.0
  0
LINE
  5
1001F
330
A
100
AcDbEntity
  8
0
  6
Continuous
 62
     7
370
     9
100
AcDbLine
 10
1108.653117782143
 20
58.00804939049772
 30
0.0
 11
1110.442684489993
 21
59.79761609834759
 31
0.0
1001
ACAD
1010
0.0
1020
0.0
1030
0.0
  0
LINE
  5
10020
330
A
100
AcDbEntity
  8
0
  6
Continuous
 62
     7
370
     9
100
AcDbLine
 10
1111.936791128485
 20
61.2917227368398
 30
0.0
 11
1114.049808014605
 21
63.40473962295937
 31
0.0
1001
ACAD
1010
0.0
1020
0.0
1030
0.0
  0
LINE
  5
10021
330
A
100
AcDbEntity
  8
0
  6
Continuous
 62
     7
370
     9
100
AcDbLine
 10
1111.681927835968
 20
60.58784663826941
 30
0.0
 11
1114.169169838263
 21
63.07508864056444
 31
0.0
1001
ACAD
1010
0.0
1020
0.0
1030
0.0
  0
LINE
  5
10022
330
A
100
AcDbEntity
  8
0
  6
Continuous
 62
     7
370
     9
100
AcDbLine
 10
1111.427064543451
 20
59.88397053969833
 30
0.0
 11
1113.343773894195
 21
61.80067989044278
 31
0.0
1001
ACAD
1010
0.0
1020
0.0
1030
0.0
  0
LINE
  5
10023
330
A
100
AcDbEntity
  8
0
  6
Continuous
 62
     7
370
     9
100
AcDbLine
 10
1113.390866402762
 20
61.84777239900973
 30
0.0
 11
1114.288531661921
 21
62.74543765816884
 31
0.0
1001
ACAD
1010
0.0
1020
0.0
1030
0.0
  0
LINE
  5
10024
330
A
100
AcDbEntity
  8
0
  6
Continuous
 62
     7
370
     9
100
AcDbLine
 10
1111.172201250934
 20
59.18009444112818
 30
0.0
 11
1113.088910601678
 21
61.09680379187262
 31
0.0
1001
ACAD
1010
0.0
1020
0.0
1030
0.0
  0
LINE
  5
10025
330
A
100
AcDbEntity
  8
0
  6
Continuous
 62
     7
370
     9
100
AcDbLine
 10
1113.51022822642
 20
61.51812141661435
 30
0.0
 11
1114.407893485579
 21
62.41578667577323
 31
0.0
1001
ACAD
1010
0.0
1020
0.0
1030
0.0
  0
LINE
  5
10026
330
A
100
AcDbEntity
  8
0
  6
Continuous
 62
     7
370
     9
100
AcDbLine
 10
1110.917337958416
 20
58.47621834255733
 30
0.0
 11
1112.834047309162
 21
60.392927693302
 31
0.0
1001
ACAD
1010
0.0
1020
0.0
1030
0.0
  0
LINE
  5
10027
330
A
100
AcDbEntity
  8
0
  6
Continuous
 62
     7
370
     9
100
AcDbLine
 10
1113.629590050078
 20
61.18847043421897
 30
0.0
 11
1114.527255309238
 21
62.08613569337831
 31
0.0
1001
ACAD
1010
0.0
1020
0.0
1030
0.0
  0
LINE
  5
10028
330
A
100
AcDbEntity
  8
0
  6
Continuous
 62
     7
370
     9
100
AcDbLine
 10
1110.777962203752
 20
57.88782978183963
 30
0.0
 11
1112.579184016644
 21
59.68905159473184
 31
0.0
1001
ACAD
1010
0.0
1020
0.0
1030
0.0
  0
LINE
  5
10029
330
A
100
AcDbEntity
  8
0
  6
Continuous
 62
     7
370
     9
100
AcDbLine
 10
1113.748951873736
 20
60.85881945182382
 30
0.0
 11
1114.646617132895
 21
61.75648471098293
 31
0.0
1001
ACAD
1010
0.0
1020
0.0
1030
0.0
  0
LINE
  5
1002A
330
A
100
AcDbEntity
  8
0
  6
Continuous
 62
     7
370
     9
100
AcDbLine
 10
1111.226975009806
 20
57.88782978183985
 30
0.0
 11
1112.324320724127
 21
58.98517549616122
 31
0.0
1001
ACAD
1010
0.0
1020
0.0
1030
0.0
  0
LINE
  5
1002B
330
A
100
AcDbEntity
  8
0
  6
Continuous
 62
     7
370
     9
100
AcDbLine
 10
1113.868313697394
 20
60.52916846942821
 30
0.0
 11
1114.765978956554
 21
61.42683372858778
 31
0.0
1001
ACAD
1010
0.0
1020
0.0
1030
0.0
  0
LINE
  5
1002C
330
A
100
AcDbEntity
  8
0
  6
Continuous
 62
     7
370
     9
100
AcDbLine
 10
1111.736886936299
 20
57.9487289022793
 30
0.0
 11
1112.065641103454
 21
58.27748306943454
 31
0.0
1001
ACAD
1010
0.0
1020
0.0
1030
0.0
  0
LINE
  5
1002D
330
A
100
AcDbEntity
  8
0
  6
Continuous
 62
     7
370
     9
100
AcDbLine
 10
1117.619585284412
 20
63.83142725039238
 30
0.0
 11
1117.675987814678
 21
63.88782978065842
 31
0.0
1001
ACAD
1010
0.0
1020
0.0
1030
0.0
  0
LINE
  5
1002E
330
A
100
AcDbEntity
  8
0
  6
Continuous
 62
     7
370
     9
100
AcDbLine
 10
1113.987675521052
 20
60.19951748703284
 30
0.0
 11
1114.885340780212
 21
61.0971827461924
 31
0.0
1001
ACAD
1010
0.0
1020
0.0
1030
0.0
  0
LINE
  5
1002F
330
A
100
AcDbEntity
  8
0
  6
Continuous
 62
     7
370
     9
100
AcDbLine
 10
1114.107037344711
 20
59.86986650463745
 30
0.0
 11
1115.00470260387
 21
60.76753176379679
 31
0.0
1001
ACAD
1010
0.0
1020
0.0
1030
0.0
  0
LINE
  5
10030
330
A
100
AcDbEntity
  8
0
  6
Continuous
 62
     7
370
     9
100
AcDbLine
 10
1117.786167934778
 20
63.54899709470487
 30
0.0
 11
1118.125000620731
 21
63.88782978065819
 31
0.0
1001
ACAD
1010
0.0
1020
0.0
1030
0.0
  0
LINE
  5
10031
330
A
100
AcDbEntity
  8
0
  6
Continuous
 62
     7
370
     9
100
AcDbLine
 10
1114.226399168369
 20
59.54021552224253
 30
0.0
 11
1115.124064427528
 21
60.43788078140164
 31
0.0
1001
ACAD
1010
0.0
1020
0.0
1030
0.0
  0
LINE
  5
10032
330
A
100
AcDbEntity
  8
0
  6
Continuous
 62
     7
370
     9
100
AcDbLine
 10
1117.952750585144
 20
63.26656693901759
 30
0.0
 11
1118.574013426785
 21
63.88782978065842
 31
0.0
1001
ACAD
1010
0.0
1020
0.0
1030
0.0
  0
LINE
  5
10033
330
A
100
AcDbEntity
  8
0
  6
Continuous
 62
     7
370
     9
100
AcDbLine
 10
1114.345760992027
 20
59.21056453984693
 30
0.0
 11
1115.243426251186
 21
60.10822979900627
 31
0.0
1001
ACAD
1010
0.0
1020
0.0
1030
0.0
  0
LINE
  5
10034
330
A
100
AcDbEntity
  8
0
  6
Continuous
 62
     7
370
     9
100
AcDbLine
 10
1118.11933323551
 20
62.98413678333009
 30
0.0
 11
1119.023026232838
 21
63.88782978065842
 31
0.0
1001
ACAD
1010
0.0
1020
0.0
1030
0.0
  0
LINE
  5
10035
330
A
100
AcDbEntity
  8
0
  6
Continuous
 62
     7
370
     9
100
AcDbLine
 10
1114.465122815685
 20
58.88091355745178
 30
0.0
 11
1115.362788074844
 21
59.77857881661089
 31
0.0
1001
ACAD
1010
0.0
1020
0.0
1030
0.0
  0
LINE
  5
10036
330
A
100
AcDbEntity
  8
0
  6
Continuous
 62
     7
370
     9
100
AcDbLine
 10
1118.231496094117
 20
62.64728683588396
 30
0.0
 11
1119.472039038891
 21
63.88782978065797
 31
0.0
1001
ACAD
1010
0.0
1020
0.0
1030
0.0
  0
LINE
  5
10037
330
A
100
AcDbEntity
  8
0
  6
Continuous
 62
     7
370
     9
100
AcDbLine
 10
1114.584484639343
 20
58.55126257505617
 30
0.0
 11
1115.482149898502
 21
59.44892783421528
 31
0.0
1001
ACAD
1010
0.0
1020
0.0
1030
0.0
  0
LINE
  5
10038
330
A
100
AcDbEntity
  8
0
  6
Continuous
 62
     7
370
     9
100
AcDbLine
 10
1117.9766328016
 20
61.94341073731357
 30
0.0
 11
1119.743171069988
 21
63.70994900570122
 31
0.0
1001
ACAD
1010
0.0
1020
0.0
1030
0.0
  0
LINE
  5
10039
330
A
100
AcDbEntity
  8
0
  6
Continuous
 62
     7
370
     9
100
AcDbLine
 10
1114.703846463001
 20
58.22161159266079
 30
0.0
 11
1115.60151172216
 21
59.11927685182013
 31
0.0
1001
ACAD
1010
0.0
1020
0.0
1030
0.0
  0
LINE
  5
1003A
330
A
100
AcDbEntity
  8
0
  6
Continuous
 62
     7
370
     9
100
AcDbLine
 10
1117.721769509083
 20
61.23953463874295
 30
0.0
 11
1119.862532893646
 21
63.38029802330584
 31
0.0
1001
ACAD
1010
0.0
1020
0.0
1030
0.0
  0
LINE
  5
1003B
330
A
100
AcDbEntity
  8
0
  6
Continuous
 62
     7
370
     9
100
AcDbLine
 10
1114.82320828666
 20
57.89196061026586
 30
0.0
 11
1115.720873545819
 21
58.78962586942498
 31
0.0
1001
ACAD
1010
0.0
1020
0.0
1030
0.0
  0
LINE
  5
1003C
330
A
100
AcDbEntity
  8
0
  6
Continuous
 62
     7
370
     9
100
AcDbLine
 10
1117.466906216566
 20
60.53565854017233
 30
0.0
 11
1119.981894717304
 21
63.05064704091046
 31
0.0
1001
ACAD
1010
0.0
1020
0.0
1030
0.0
  0
LINE
  5
1003D
330
A
100
AcDbEntity
  8
0
  6
Continuous
 62
     7
370
     9
100
AcDbLine
 10
1115.268090264287
 20
57.88782978183985
 30
0.0
 11
1115.840235369476
 21
58.45997488702938
 31
0.0
1001
ACAD
1010
0.0
1020
0.0
1030
0.0
  0
LINE
  5
1003E
330
A
100
AcDbEntity
  8
0
  6
Continuous
 62
     7
370
     9
100
AcDbLine
 10
1119.203591281803
 20
61.8233307993562
 30
0.0
 11
1120.101256540963
 21
62.72099605851554
 31
0.0
1001
ACAD
1010
0.0
1020
0.0
1030
0.0
  0
LINE
  5
1003F
330
A
100
AcDbEntity
  8
0
  6
Continuous
 62
     7
370
     9
100
AcDbLine
 10
1117.212042924049
 20
59.83178244160217
 30
0.0
 11
1119.128752274794
 21
61.74849179234684
 31
0.0
1001
ACAD
1010
0.0
1020
0.0
1030
0.0
  0
LINE
  5
10040
330
A
100
AcDbEntity
  8
0
  6
Continuous
 62
     7
370
     9
100
AcDbLine
 10
1115.71710307034
 20
57.8878297818394
 30
0.0
 11
1115.959597193135
 21
58.130323904634
 31
0.0
1001
ACAD
1010
0.0
1020
0.0
1030
0.0
  0
LINE
  5
10041
330
A
100
AcDbEntity
  8
0
  6
Continuous
 62
     7
370
     9
100
AcDbLine
 10
1119.322953105462
 20
61.49367981696082
 30
0.0
 11
1120.22061836462
 21
62.39134507611993
 31
0.0
1001
ACAD
1010
0.0
1020
0.0
1030
0.0
  0
LINE
  5
10042
330
A
100
AcDbEntity
  8
0
  6
Continuous
 62
     7
370
     9
100
AcDbLine
 10
1116.957179631532
 20
59.12790634303178
 30
0.0
 11
1118.873888982277
 21
61.04461569377622
 31
0.0
1001
ACAD
1010
0.0
1020
0.0
1030
0.0
  0
LINE
  5
10043
330
A
100
AcDbEntity
  8
0
  6
Continuous
 62
     7
370
     9
100
AcDbLine
 10
1116.702316339015
 20
58.42403024446094
 30
0.0
 11
1118.61902568976
 21
60.34073959520561
 31
0.0
1001
ACAD
1010
0.0
1020
0.0
1030
0.0
  0
LINE
  5
10044
330
A
100
AcDbEntity
  8
0
  6
Continuous
 62
     7
370
     9
100
AcDbLine
 10
1122.007413436405
 20
63.7291273418507
 30
0.0
 11
1122.166115875212
 21
63.88782978065819
 31
0.0
1001
ACAD
1010
0.0
1020
0.0
1030
0.0
  0
LINE
  5
10045
330
A
100
AcDbEntity
  8
0
  6
Continuous
 62
     7
370
     9
100
AcDbLine
 10
1119.442314929119
 20
61.16402883456544
 30
0.0
 11
1120.339980188279
 21
62.06169409372432
 31
0.0
1001
ACAD
1010
0.0
1020
0.0
1030
0.0
  0
LINE
  5
10046
330
A
100
AcDbEntity
  8
0
  6
Continuous
 62
     7
370
     9
100
AcDbLine
 10
1116.615128682447
 20
57.88782978183963
 30
0.0
 11
1118.364162397243
 21
59.63686349663544
 31
0.0
1001
ACAD
1010
0.0
1020
0.0
1030
0.0
  0
LINE
  5
10047
330
A
100
AcDbEntity
  8
0
  6
Continuous
 62
     7
370
     9
100
AcDbLine
 10
1122.173996086771
 20
63.44669718616342
 30
0.0
 11
1122.615128681266
 21
63.88782978065842
 31
0.0
1001
ACAD
1010
0.0
1020
0.0
1030
0.0
  0
LINE
  5
10048
330
A
100
AcDbEntity
  8
0
  6
Continuous
 62
     7
370
     9
100
AcDbLine
 10
1119.561676752778
 20
60.83437785217006
 30
0.0
 11
1120.459342011937
 21
61.7320431113294
 31
0.0
1001
ACAD
1010
0.0
1020
0.0
1030
0.0
  0
LINE
  5
10049
330
A
100
AcDbEntity
  8
0
  6
Continuous
 62
     7
370
     9
100
AcDbLine
 10
1117.064141488501
 20
57.88782978183985
 30
0.0
 11
1118.109299104726
 21
58.93298739806482
 31
0.0
1001
ACAD
1010
0.0
1020
0.0
1030
0.0
  0
LINE
  5
1004A
330
A
100
AcDbEntity
  8
0
  6
Continuous
 62
     7
370
     9
100
AcDbLine
 10
1122.338725086634
 20
63.16241337997258
 30
0.0
 11
1123.064141487319
 21
63.88782978065842
 31
0.0
1001
ACAD
1010
0.0
1020
0.0
1030
0.0
  0
LINE
  5
1004B
330
A
100
AcDbEntity
  8
0
  6
Continuous
 62
     7
370
     9
100
AcDbLine
 10
1119.681038576436
 20
60.50472686977491
 30
0.0
 11
1120.578703835595
 21
61.4023921289338
 31
0.0
1001
ACAD
1010
0.0
1020
0.0
1030
0.0
  0
LINE
  5
1004C
330
A
100
AcDbEntity
  8
0
  6
Continuous
 62
     7
370
     9
100
AcDbLine
 10
1117.612284261288
 20
57.98695974857333
 30
0.0
 11
1117.83128518864
 21
58.20596067592555
 31
0.0
1001
ACAD
1010
0.0
1020
0.0
1030
0.0
  0
LINE
  5
1004D
330
A
100
AcDbEntity
  8
0
  6
Continuous
 62
     7
370
     9
100
AcDbLine
 10
1122.338725086633
 20
62.71340057391876
 30
0.0
 11
1123.513154293373
 21
63.88782978065797
 31
0.0
1001
ACAD
1010
0.0
1020
0.0
1030
0.0
  0
LINE
  5
1004E
330
A
100
AcDbEntity
  8
0
  6
Continuous
 62
     7
370
     9
100
AcDbLine
 10
1119.800400400094
 20
60.17507588737931
 30
0.0
 11
1120.698065659253
 21
61.07274114653887
 31
0.0
1001
ACAD
1010
0.0
1020
0.0
1030
0.0
  0
LINE
  5
1004F
330
A
100
AcDbEntity
  8
0
  6
Continuous
 62
     7
370
     9
100
AcDbLine
 10
1119.919762223752
 20
59.84542490498393
 30
0.0
 11
1120.817427482911
 21
60.7430901641435
 31
0.0
1001
ACAD
1010
0.0
1020
0.0
1030
0.0
  0
LINE
  5
10050
330
A
100
AcDbEntity
  8
0
  6
Continuous
 62
     7
370
     9
100
AcDbLine
 10
1122.338725086633
 20
62.2643877678654
 30
0.0
 11
1123.962167099426
 21
63.88782978065842
 31
0.0
1001
ACAD
1010
0.0
1020
0.0
1030
0.0
  0
LINE
  5
10051
330
A
100
AcDbEntity
  8
0
  6
Continuous
 62
     7
370
     9
100
AcDbLine
 10
1120.039124047411
 20
59.51577392258901
 30
0.0
 11
1120.936789306569
 21
60.41343918174788
 31
0.0
1001
ACAD
1010
0.0
1020
0.0
1030
0.0
  0
LINE
  5
10052
330
A
100
AcDbEntity
  8
0
  6
Continuous
 62
     7
370
     9
100
AcDbLine
 10
1122.338725086633
 20
61.81537496181181
 30
0.0
 11
1124.129942621769
 21
63.60659249694709
 31
0.0
1001
ACAD
1010
0.0
1020
0.0
1030
0.0
  0
LINE
  5
10053
330
A
100
AcDbEntity
  8
0
  6
Continuous
 62
     7
370
     9
100
AcDbLine
 10
1120.158485871068
 20
59.18612294019339
 30
0.0
 11
1121.056151130228
 21
60.08378819935273
 31
0.0
1001
ACAD
1010
0.0
1020
0.0
1030
0.0
  0
LINE
  5
10054
330
A
100
AcDbEntity
  8
0
  6
Continuous
 62
     7
370
     9
100
AcDbLine
 10
1122.338725086634
 20
61.36636215575868
 30
0.0
 11
1124.240965203253
 21
63.26860227237784
 31
0.0
1001
ACAD
1010
0.0
1020
0.0
1030
0.0
  0
LINE
  5
10055
330
A
100
AcDbEntity
  8
0
  6
Continuous
 62
     7
370
     9
100
AcDbLine
 10
1120.277847694726
 20
58.85647195779802
 30
0.0
 11
1121.175512953886
 21
59.75413721695736
 31
0.0
1001
ACAD
1010
0.0
1020
0.0
1030
0.0
  0
LINE
  5
10056
330
A
100
AcDbEntity
  8
0
  6
Continuous
 62
     7
370
     9
100
AcDbLine
 10
1122.338725086633
 20
60.91734934970509
 30
0.0
 11
1124.351987784737
 21
62.93061204780861
 31
0.0
1001
ACAD
1010
0.0
1020
0.0
1030
0.0
  0
LINE
  5
10057
330
A
100
AcDbEntity
  8
0
  6
Continuous
 62
     7
370
     9
100
AcDbLine
 10
1120.397209518384
 20
58.52682097540242
 30
0.0
 11
1121.294874777544
 21
59.42448623456198
 31
0.0
1001
ACAD
1010
0.0
1020
0.0
1030
0.0
  0
LINE
  5
10058
330
A
100
AcDbEntity
  8
0
  6
Continuous
 62
     7
370
     9
100
AcDbLine
 10
1123.594494228966
 20
61.72410568598457
 30
0.0
 11
1124.463010366221
 21
62.5926218232396
 31
0.0
1001
ACAD
1010
0.0
1020
0.0
1030
0.0
  0
LINE
  5
10059
330
A
100
AcDbEntity
  8
0
  6
Continuous
 62
     7
370
     9
100
AcDbLine
 10
1122.338725086633
 20
60.4683365436515
 30
0.0
 11
1123.488379054174
 21
61.61799051119192
 31
0.0
1001
ACAD
1010
0.0
1020
0.0
1030
0.0
  0
LINE
  5
1005A
330
A
100
AcDbEntity
  8
0
  6
Continuous
 62
     7
370
     9
100
AcDbLine
 10
1120.516571342043
 20
58.19716999300749
 30
0.0
 11
1121.414236601202
 21
59.09483525216638
 31
0.0
1001
ACAD
1010
0.0
1020
0.0
1030
0.0
  0
LINE
  5
1005B
330
A
100
AcDbEntity
  8
0
  6
Continuous
 62
     7
370
     9
100
AcDbLine
 10
1123.705516810451
 20
61.38611546141532
 30
0.0
 11
1124.574032947705
 21
62.25463159867013
 31
0.0
1001
ACAD
1010
0.0
1020
0.0
1030
0.0
  0
LINE
  5
1005C
330
A
100
AcDbEntity
  8
0
  6
Continuous
 62
     7
370
     9
100
AcDbLine
 10
1122.338725086634
 20
60.01932373759837
 30
0.0
 11
1123.488379054174
 21
61.16897770513833
 31
0.0
1001
ACAD
1010
0.0
1020
0.0
1030
0.0
  0
LINE
  5
1005D
330
A
100
AcDbEntity
  8
0
  6
Continuous
 62
     7
370
     9
100
AcDbLine
 10
1120.656243936929
 20
57.88782978183985
 30
0.0
 11
1121.53359842486
 21
58.76518426977145
 31
0.0
1001
ACAD
1010
0.0
1020
0.0
1030
0.0
  0
LINE
  5
1005E
330
A
100
AcDbEntity
  8
0
  6
Continuous
 62
     7
370
     9
100
AcDbLine
 10
1126.526712195028
 20
63.75829803993884
 30
0.0
 11
1126.656243935747
 21
63.88782978065819
 31
0.0
1001
ACAD
1010
0.0
1020
0.0
1030
0.0
  0
LINE
  5
1005F
330
A
100
AcDbEntity
  8
0
  6
Continuous
 62
     7
370
     9
100
AcDbLine
 10
1122.338725086634
 20
59.57031093154478
 30
0.0
 11
1123.488379054174
 21
60.71996489908497
 31
0.0
1001
ACAD
1010
0.0
1020
0.0
1030
0.0
  0
LINE
  5
10060
330
A
100
AcDbEntity
  8
0
  6
Continuous
 62
     7
370
     9
100
AcDbLine
 10
1123.816539391935
 20
61.04812523684632
 30
0.0
 11
1124.68505552919
 21
61.91664137410112
 31
0.0
1001
ACAD
1010
0.0
1020
0.0
1030
0.0
  0
LINE
  5
10061
330
A
100
AcDbEntity
  8
0
  6
Continuous
 62
     7
370
     9
100
AcDbLine
 10
1121.105256742982
 20
57.88782978183985
 30
0.0
 11
1121.652960248518
 21
58.43553328737584
 31
0.0
1001
ACAD
1010
0.0
1020
0.0
1030
0.0
  0
LINE
  5
10062
330
A
100
AcDbEntity
  8
0
  6
Continuous
 62
     7
370
     9
100
AcDbLine
 10
1126.307074892679
 20
63.08964793153723
 30
0.0
 11
1127.1052567418
 21
63.88782978065819
 31
0.0
1001
ACAD
1010
0.0
1020
0.0
1030
0.0
  0
LINE
  5
10063
330
A
100
AcDbEntity
  8
0
  6
Continuous
 62
     7
370
     9
100
AcDbLine
 10
1122.338725086634
 20
59.12129812549119
 30
0.0
 11
1123.488379054173
 21
60.27095209303138
 31
0.0
1001
ACAD
1010
0.0
1020
0.0
1030
0.0
  0
LINE
  5
10064
330
A
100
AcDbEntity
  8
0
  6
Continuous
 62
     7
370
     9
100
AcDbLine
 10
1123.927561973419
 20
60.71013501227707
 30
0.0
 11
1124.796078110674
 21
61.57865114953188
 31
0.0
1001
ACAD
1010
0.0
1020
0.0
1030
0.0
  0
LINE
  5
10065
330
A
100
AcDbEntity
  8
0
  6
Continuous
 62
     7
370
     9
100
AcDbLine
 10
1121.554269549036
 20
57.88782978184008
 30
0.0
 11
1121.772322072176
 21
58.10588230498092
 31
0.0
1001
ACAD
1010
0.0
1020
0.0
1030
0.0
  0
LINE
  5
10066
330
A
100
AcDbEntity
  8
0
  6
Continuous
 62
     7
370
     9
100
AcDbLine
 10
1126.087437590331
 20
62.42099782313516
 30
0.0
 11
1127.554269547854
 21
63.88782978065842
 31
0.0
1001
ACAD
1010
0.0
1020
0.0
1030
0.0
  0
LINE
  5
10067
330
A
100
AcDbEntity
  8
0
  6
Continuous
 62
     7
370
     9
100
AcDbLine
 10
1122.338725086633
 20
58.67228531943784
 30
0.0
 11
1123.488379054173
 21
59.82193928697802
 31
0.0
1001
ACAD
1010
0.0
1020
0.0
1030
0.0
  0
LINE
  5
10068
330
A
100
AcDbEntity
  8
0
  6
Continuous
 62
     7
370
     9
100
AcDbLine
 10
1124.038584554903
 20
60.37214478770784
 30
0.0
 11
1124.907100692158
 21
61.24066092496263
 31
0.0
1001
ACAD
1010
0.0
1020
0.0
1030
0.0
  0
LINE
  5
10069
330
A
100
AcDbEntity
  8
0
  6
Continuous
 62
     7
370
     9
100
AcDbLine
 10
1122.338725086633
 20
58.22327251338425
 30
0.0
 11
1123.488379054173
 21
59.3729264809242
 31
0.0
1001
ACAD
1010
0.0
1020
0.0
1030
0.0
  0
LINE
  5
1006A
330
A
100
AcDbEntity
  8
0
  6
Continuous
 62
     7
370
     9
100
AcDbLine
 10
1125.867800287982
 20
61.7523477147331
 30
0.0
 11
1128.003282353907
 21
63.88782978065842
 31
0.0
1001
ACAD
1010
0.0
1020
0.0
1030
0.0
  0
LINE
  5
1006B
330
A
100
AcDbEntity
  8
0
  6
Continuous
 62
     7
370
     9
100
AcDbLine
 10
1124.149607136388
 20
60.03415456313883
 30
0.0
 11
1125.018123273642
 21
60.9026707003934
 31
0.0
1001
ACAD
1010
0.0
1020
0.0
1030
0.0
  0
LINE
  5
1006C
330
A
100
AcDbEntity
  8
0
  6
Continuous
 62
     7
370
     9
100
AcDbLine
 10
1122.452295161142
 20
57.88782978183963
 30
0.0
 11
1123.488379054173
 21
58.92391367487062
 31
0.0
1001
ACAD
1010
0.0
1020
0.0
1030
0.0
  0
LINE
  5
1006D
330
A
100
AcDbEntity
  8
0
  6
Continuous
 62
     7
370
     9
100
AcDbLine
 10
1125.648162985634
 20
61.08369760633104
 30
0.0
 11
1128.043999096168
 21
63.47953371686526
 31
0.0
1001
ACAD
1010
0.0
1020
0.0
1030
0.0
  0
LINE
  5
1006E
330
A
100
AcDbEntity
  8
0
  6
Continuous
 62
     7
370
     9
100
AcDbLine
 10
1124.260629717872
 20
59.69616433856936
 30
0.0
 11
1125.129145855127
 21
60.56468047582416
 31
0.0
1001
ACAD
1010
0.0
1020
0.0
1030
0.0
  0
LINE
  5
1006F
330
A
100
AcDbEntity
  8
0
  6
Continuous
 62
     7
370
     9
100
AcDbLine
 10
1122.906996959432
 20
57.89351877407625
 30
0.0
 11
1123.482690061937
 21
58.46921187658063
 31
0.0
1001
ACAD
1010
0.0
1020
0.0
1030
0.0
  0
LINE
  5
10070
330
A
100
AcDbEntity
  8
0
  6
Continuous
 62
     7
370
     9
100
AcDbLine
 10
1125.428525683285
 20
60.41504749792943
 30
0.0
 11
1128.043999096168
 21
63.03052091081167
 31
0.0
1001
ACAD
1010
0.0
1020
0.0
1030
0.0
  0
LINE
  5
10071
330
A
100
AcDbEntity
  8
0
  6
Continuous
 62
     7
370
     9
100
AcDbLine
 10
1124.371652299356
 20
59.35817411400058
 30
0.0
 11
1125.240168436611
 21
60.22669025125515
 31
0.0
1001
ACAD
1010
0.0
1020
0.0
1030
0.0
  0
LINE
  5
10072
330
A
100
AcDbEntity
  8
0
  6
Continuous
 62
     7
370
     9
100
AcDbLine
 10
1124.48267488084
 20
59.02018388943111
 30
0.0
 11
1128.043999096168
 21
62.58150810475831
 31
0.0
1001
ACAD
1010
0.0
1020
0.0
1030
0.0
  0
LINE
  5
10073
330
A
100
AcDbEntity
  8
0
  6
Continuous
 62
     7
370
     9
100
AcDbLine
 10
1124.593697462325
 20
58.68219366486187
 30
0.0
 11
1126.707446952639
 21
60.79594315517602
 31
0.0
1001
ACAD
1010
0.0
1020
0.0
1030
0.0
  0
LINE
  5
10074
330
A
100
AcDbEntity
  8
0
  6
Continuous
 62
     7
370
     9
100
AcDbLine
 10
1126.894345128628
 20
60.98284133116499
 30
0.0
 11
1128.043999096167
 21
62.13249529870473
 31
0.0
1001
ACAD
1010
0.0
1020
0.0
1030
0.0
  0
LINE
  5
10075
330
A
100
AcDbEntity
  8
0
  6
Continuous
 62
     7
370
     9
100
AcDbLine
 10
1124.712163062472
 20
58.35164645895543
 30
0.0
 11
1126.487809650291
 21
60.12729304677418
 31
0.0
1001
ACAD
1010
0.0
1020
0.0
1030
0.0
  0
LINE
  5
10076
330
A
100
AcDbEntity
  8
0
  6
Continuous
 62
     7
370
     9
100
AcDbLine
 10
1126.894345128628
 20
60.53382852511163
 30
0.0
 11
1128.043999096168
 21
61.68348249265159
 31
0.0
1001
ACAD
1010
0.0
1020
0.0
1030
0.0
  0
LINE
  5
10077
330
A
100
AcDbEntity
  8
0
  6
Continuous
 62
     7
370
     9
100
AcDbLine
 10
1124.923198389211
 20
58.11366897964103
 30
0.0
 11
1126.268172347943
 21
59.45864293837257
 31
0.0
1001
ACAD
1010
0.0
1020
0.0
1030
0.0
  0
LINE
  5
10078
330
A
100
AcDbEntity
  8
0
  6
Continuous
 62
     7
370
     9
100
AcDbLine
 10
1126.894345128628
 20
60.08481571905804
 30
0.0
 11
1128.043999096168
 21
61.234469686598
 31
0.0
1001
ACAD
1010
0.0
1020
0.0
1030
0.0
  0
LINE
  5
10079
330
A
100
AcDbEntity
  8
0
  6
Continuous
 62
     7
370
     9
100
AcDbLine
 10
1125.255271884217
 20
57.99672966859339
 30
0.0
 11
1126.048535045594
 21
58.78999282997051
 31
0.0
1001
ACAD
1010
0.0
1020
0.0
1030
0.0
  0
LINE
  5
1007A
330
A
100
AcDbEntity
  8
0
  6
Continuous
 62
     7
370
     9
100
AcDbLine
 10
1126.894345128628
 20
59.63580291300468
 30
0.0
 11
1128.043999096168
 21
60.78545688054441
 31
0.0
1001
ACAD
1010
0.0
1020
0.0
1030
0.0
  0
LINE
  5
1007B
330
A
100
AcDbEntity
  8
0
  6
Continuous
 62
     7
370
     9
100
AcDbLine
 10
1126.894345128628
 20
59.18679010695109
 30
0.0
 11
1128.043999096168
 21
60.33644407449083
 31
0.0
1001
ACAD
1010
0.0
1020
0.0
1030
0.0
  0
LINE
  5
1007C
330
A
100
AcDbEntity
  8
0
  6
Continuous
 62
     7
370
     9
100
AcDbLine
 10
1126.894345128628
 20
58.73777730089773
 30
0.0
 11
1128.043999096168
 21
59.88743126843769
 31
0.0
1001
ACAD
1010
0.0
1020
0.0
1030
0.0
  0
LINE
  5
1007D
330
A
100
AcDbEntity
  8
0
  6
Continuous
 62
     7
370
     9
100
AcDbLine
 10
1126.894345128628
 20
58.28876449484437
 30
0.0
 11
1128.043999096168
 21
59.4384184623841
 31
0.0
1001
ACAD
1010
0.0
1020
0.0
1030
0.0
  0
LINE
  5
1007E
330
A
100
AcDbEntity
  8
0
  6
Continuous
 62
     7
370
     9
100
AcDbLine
 10
1126.942423221677
 20
57.88782978183963
 30
0.0
 11
1128.043999096168
 21
58.98940565633052
 31
0.0
1001
ACAD
1010
0.0
1020
0.0
1030
0.0
  0
LINE
  5
1007F
330
A
100
AcDbEntity
  8
0
  6
Continuous
 62
     7
370
     9
100
AcDbLine
 10
1127.391628340387
 20
57.88802209449636
 30
0.0
 11
1128.043806783511
 21
58.54020053762065
 31
0.0
1001
ACAD
1010
0.0
1020
0.0
1030
0.0
  0
LINE
  5
10080
330
A
100
AcDbEntity
  8
0
  6
Continuous
 62
     7
370
     9
100
AcDbLine
 10
1095.272888384964
 20
57.88782978183985
 30
0.0
 11
1095.272888384964
 21
61.80241095581846
 31
0.0
  0
LINE
  5
10081
330
A
100
AcDbEntity
  8
0
  6
Continuous
 62
     7
370
     9
100
AcDbLine
 10
1094.594800719536
 20
63.88782978065842
 30
0.0
 11
1097.107649992108
 21
63.88782978065842
 31
0.0
  0
LINE
  5
10082
330
A
100
AcDbEntity
  8
0
  6
Continuous
 62
     7
370
     9
100
AcDbLine
 10
1121.913807734805
 20
63.88782978065842
 30
0.0
 11
1124.037562171159
 21
63.88782978065842
 31
0.0
  0
LINE
  5
10083
330
A
100
AcDbEntity
  8
0
  6
Continuous
 62
     7
370
     9
100
AcDbLine
 10
1126.569260609725
 20
63.88782978065842
 30
0.0
 11
1128.043999096168
 21
63.88782978065842
 31
0.0
  0
LINE
  5
10084
330
A
100
AcDbEntity
  8
0
  6
Continuous
 62
     7
370
     9
100
AcDbLine
 10
1095.272888384964
 20
62.73817581311845
 30
0.0
 11
1097.107649992108
 21
62.73817581311845
 31
0.0
  0
LINE
  5
10085
330
A
100
AcDbEntity
  8
0
  6
Continuous
 62
     7
370
     9
100
AcDbLine
 10
1095.272888384964
 20
61.80241095581846
 30
0.0
 11
1096.422552074377
 21
61.80241095581846
 31
0.0
  0
LINE
  5
10086
330
A
100
AcDbEntity
  8
0
  6
Continuous
 62
     7
370
     9
100
AcDbLine
 10
1096.422552074377
 20
61.80241095581846
 30
0.0
 11
1096.422552074377
 21
59.03748374937982
 31
0.0
  0
LINE
  5
10087
330
A
100
AcDbEntity
  8
0
  6
Continuous
 62
     7
370
     9
100
AcDbLine
 10
1095.272888384964
 20
57.88782978183985
 30
0.0
 11
1097.103506705112
 21
57.88782978183985
 31
0.0
  0
LINE
  5
10088
330
A
100
AcDbEntity
  8
0
  6
Continuous
 62
     7
370
     9
100
AcDbLine
 10
1110.704291022786
 20
57.88782978183985
 30
0.0
 11
1111.458136754393
 21
57.88782978183985
 31
0.0
  0
ARC
  5
10089
330
A
100
AcDbEntity
  8
0
  6
Continuous
 62
     7
370
     9
100
AcDbCircle
 10
1111.458136754393
 20
58.55623325133979
 30
0.0
 40
0.6684034695
100
AcDbArc
 50
270.0
 51
340.0954155416547
  0
LINE
  5
1008A
330
A
100
AcDbEntity
  8
0
  6
Continuous
 62
     7
370
     9
100
AcDbLine
 10
1114.824703999521
 20
57.88782978183985
 30
0.0
 11
1116.047400786234
 21
57.88782978183985
 31
0.0
  0
LINE
  5
1008B
330
A
100
AcDbEntity
  8
0
  6
Continuous
 62
     7
370
     9
100
AcDbLine
 10
1122.338725086633
 20
57.88782978183985
 30
0.0
 11
1122.819975584673
 21
57.88782978183985
 31
0.0
  0
LINE
  5
1008C
330
A
100
AcDbEntity
  8
0
  6
Continuous
 62
     7
370
     9
100
AcDbLine
 10
1126.894345128628
 20
57.88782978183985
 30
0.0
 11
1127.375595626668
 21
57.88782978183985
 31
0.0
  0
LINE
  5
1008D
330
A
100
AcDbEntity
  8
0
  6
Continuous
 62
     7
370
     9
100
AcDbLine
 10
1096.422552074377
 20
59.03748374937982
 30
0.0
 11
1097.103506705112
 21
59.03748374938004
 31
0.0
  0
LINE
  5
1008E
330
A
100
AcDbEntity
  8
0
  6
Continuous
 62
     7
370
     9
100
AcDbLine
 10
1110.704291022786
 20
57.88782978183985
 30
0.0
 11
1112.460530738681
 21
62.73817581311823
 31
0.0
  0
LINE
  5
1008F
330
A
100
AcDbEntity
  8
0
  6
Continuous
 62
     7
370
     9
100
AcDbLine
 10
1112.086610394774
 20
58.32867209167966
 30
0.0
 11
1113.37584590451
 21
61.88925569620528
 31
0.0
  0
LINE
  5
10090
330
A
100
AcDbEntity
  8
0
  6
Continuous
 62
     7
370
     9
100
AcDbLine
 10
1116.047400786234
 20
57.88782978183985
 30
0.0
 11
1113.87488809841
 21
63.88782978065842
 31
0.0
  0
LINE
  5
10091
330
A
100
AcDbEntity
  8
0
  6
Continuous
 62
     7
370
     9
100
AcDbLine
 10
1114.824703999521
 20
57.88782978183985
 30
0.0
 11
1113.375845904511
 21
61.88925569620528
 31
0.0
  0
LINE
  5
10092
330
A
100
AcDbEntity
  8
0
  6
Continuous
 62
     7
370
     9
100
AcDbLine
 10
1095.272888384964
 20
62.73817581311845
 30
0.0
 11
1094.594800719536
 21
63.88782978065842
 31
0.0
  0
LINE
  5
10093
330
A
100
AcDbEntity
  8
0
  6
Continuous
 62
     7
370
     9
100
AcDbLine
 10
1112.460530738681
 20
62.73817581311845
 30
0.0
 11
1111.782443073253
 21
63.88782978065842
 31
0.0
  0
LINE
  5
10094
330
A
100
AcDbEntity
  8
0
  6
Continuous
 62
     7
370
     9
100
AcDbLine
 10
1122.338725086633
 20
57.88782978183985
 30
0.0
 11
1122.338725086633
 21
63.16740977552922
 31
0.0
  0
LINE
  5
10095
330
A
100
AcDbEntity
  8
0
  6
Continuous
 62
     7
370
     9
100
AcDbLine
 10
1123.488379054173
 20
58.55623325133979
 30
0.0
 11
1123.488379054174
 21
62.04715610761059
 31
0.0
  0
ARC
  5
10096
330
A
100
AcDbEntity
  8
0
  6
Continuous
 62
     7
370
     9
100
AcDbCircle
 10
1122.819975584673
 20
58.55623325133979
 30
0.0
 40
0.6684034695
100
AcDbArc
 50
270.0
 51
0.0
  0
LINE
  5
10097
330
A
100
AcDbEntity
  8
0
  6
Continuous
 62
     7
370
     9
100
AcDbLine
 10
1128.043999096168
 20
63.88782978065842
 30
0.0
 11
1128.043999096168
 21
58.55623325133979
 31
0.0
  0
ARC
  5
10098
330
A
100
AcDbEntity
  8
0
  6
Continuous
 62
     7
370
     9
100
AcDbCircle
 10
1127.375595626668
 20
58.55623325133979
 30
0.0
 40
0.6684034695
100
AcDbArc
 50
270.0
 51
0.0
  0
LINE
  5
10099
330
A
100
AcDbEntity
  8
0
  6
Continuous
 62
     7
370
     9
100
AcDbLine
 10
1126.894345128628
 20
61.36492430864496
 30
0.0
 11
1126.894345128628
 21
57.88782978183985
 31
0.0
  0
LINE
  5
1009A
330
A
100
AcDbEntity
  8
0
  6
Continuous
 62
     7
370
     9
100
AcDbLine
 10
1124.037562171159
 20
63.88782978065842
 30
0.0
 11
1125.303411390442
 21
60.03415734594796
 31
0.0
  0
LINE
  5
1009B
330
A
100
AcDbEntity
  8
0
  6
Continuous
 62
     7
370
     9
100
AcDbLine
 10
1123.488379054173
 20
62.04715610761059
 30
0.0
 11
1124.668389408385
 21
58.45480616148211
 31
0.0
  0
LINE
  5
1009C
330
A
100
AcDbEntity
  8
0
  6
Continuous
 62
     7
370
     9
100
AcDbLine
 10
1126.569260609725
 20
63.88782978065842
 30
0.0
 11
1125.303411390442
 21
60.03415734594796
 31
0.0
  0
LINE
  5
1009D
330
A
100
AcDbEntity
  8
0
  6
Continuous
 62
     7
370
     9
100
AcDbLine
 10
1126.894345128627
 20
61.36492430864473
 30
0.0
 11
1125.938433372499
 21
58.45480616148211
 31
0.0
  0
ARC
  5
1009E
330
A
100
AcDbEntity
  8
0
  6
Continuous
 62
     7
370
     9
100
AcDbCircle
 10
1125.303411390442
 20
58.6633973414107
 30
0.0
 40
0.6684034695
100
AcDbArc
 50
198.1842490661051
 51
341.8157509338948
  0
LINE
  5
1009F
330
A
100
AcDbEntity
  8
0
  6
Continuous
 62
     7
370
     9
100
AcDbLine
 10
1122.338725086633
 20
63.16740977552922
 30
0.0
 11
1121.913807734805
 21
63.88782978065842
 31
0.0
  0
ARC
  5
100A0
330
A
100
AcDbEntity
  8
0
  6
Continuous
 62
     7
370
     9
100
AcDbCircle
 10
1096.583902219787
 20
60.89114097277843
 30
0.0
 40
3.288991111325908
100
AcDbArc
 50
327.6042231132135
 51
31.66844917657496
  0
ARC
  5
100A1
330
A
100
AcDbEntity
  8
0
  6
Continuous
 62
     7
370
     9
100
AcDbCircle
 10
1096.583902219787
 20
60.89114097277843
 30
0.0
 40
2.139337143785908
100
AcDbArc
 50
327.6042231132135
 51
31.66844917657496
  0
ARC
  5
100A2
330
A
100
AcDbEntity
  8
0
  6
Continuous
 62
     7
370
     9
100
AcDbCircle
 10
1097.103506705112
 20
60.56144365983982
 30
0.0
 40
2.673613877999999
100
AcDbArc
 50
270.0
 51
327.6042231132135
  0
ARC
  5
100A3
330
A
100
AcDbEntity
  8
0
  6
Continuous
 62
     7
370
     9
100
AcDbCircle
 10
1097.103506705112
 20
60.56144365983982
 30
0.0
 40
1.52395991046
100
AcDbArc
 50
270.0
 51
327.6042231132135
  0
ARC
  5
100A4
330
A
100
AcDbEntity
  8
0
  6
Continuous
 62
     7
370
     9
100
AcDbCircle
 10
1097.107649992108
 20
61.21421590265845
 30
0.0
 40
2.673613877999999
100
AcDbArc
 50
31.66844917657496
 51
90.0
  0
ARC
  5
100A5
330
A
100
AcDbEntity
  8
0
  6
Continuous
 62
     7
370
     9
100
AcDbCircle
 10
1097.107649992108
 20
61.21421590265845
 30
0.0
 40
1.52395991046
100
AcDbArc
 50
31.66844917657496
 51
90.0
  0
LINE
  5
100A6
330
A
100
AcDbEntity
  8
0
  6
Continuous
 62
     7
370
     9
100
AcDbLine
 10
1106.029789632407
 20
57.88782978183985
 30
0.0
 11
1106.029789632407
 21
61.80241095581846
 31
0.0
  0
LINE
  5
100A7
330
A
100
AcDbEntity
  8
0
  6
Continuous
 62
     7
370
     9
100
AcDbLine
 10
1105.351701966979
 20
63.88782978065842
 30
0.0
 11
1107.864551239551
 21
63.88782978065842
 31
0.0
  0
LINE
  5
100A8
330
A
100
AcDbEntity
  8
0
  6
Continuous
 62
     7
370
     9
100
AcDbLine
 10
1106.029789632407
 20
62.73817581311845
 30
0.0
 11
1107.864551239551
 21
62.73817581311845
 31
0.0
  0
LINE
  5
100A9
330
A
100
AcDbEntity
  8
0
  6
Continuous
 62
     7
370
     9
100
AcDbLine
 10
1106.029789632407
 20
61.80241095581846
 30
0.0
 11
1107.17945332182
 21
61.80241095581846
 31
0.0
  0
LINE
  5
100AA
330
A
100
AcDbEntity
  8
0
  6
Continuous
 62
     7
370
     9
100
AcDbLine
 10
1107.17945332182
 20
61.80241095581846
 30
0.0
 11
1107.17945332182
 21
59.03748374937982
 31
0.0
  0
LINE
  5
100AB
330
A
100
AcDbEntity
  8
0
  6
Continuous
 62
     7
370
     9
100
AcDbLine
 10
1106.029789632407
 20
57.88782978183985
 30
0.0
 11
1107.860407952554
 21
57.88782978183985
 31
0.0
  0
LINE
  5
100AC
330
A
100
AcDbEntity
  8
0
  6
Continuous
 62
     7
370
     9
100
AcDbLine
 10
1107.17945332182
 20
59.03748374937982
 30
0.0
 11
1107.860407952554
 21
59.03748374938004
 31
0.0
  0
LINE
  5
100AD
330
A
100
AcDbEntity
  8
0
  6
Continuous
 62
     7
370
     9
100
AcDbLine
 10
1106.029789632407
 20
62.73817581311845
 30
0.0
 11
1105.351701966979
 21
63.88782978065842
 31
0.0
  0
ARC
  5
100AE
330
A
100
AcDbEntity
  8
0
  6
Continuous
 62
     7
370
     9
100
AcDbCircle
 10
1107.340803467229
 20
60.89114097277843
 30
0.0
 40
3.288991111325908
100
AcDbArc
 50
327.6042231132135
 51
31.66844917657496
  0
ARC
  5
100AF
330
A
100
AcDbEntity
  8
0
  6
Continuous
 62
     7
370
     9
100
AcDbCircle
 10
1107.340803467229
 20
60.89114097277843
 30
0.0
 40
2.139337143785908
100
AcDbArc
 50
327.6042231132135
 51
31.66844917657496
  0
ARC
  5
100B0
330
A
100
AcDbEntity
  8
0
  6
Continuous
 62
     7
370
     9
100
AcDbCircle
 10
1107.860407952554
 20
60.56144365983982
 30
0.0
 40
2.673613877999999
100
AcDbArc
 50
270.0
 51
327.6042231132135
  0
ARC
  5
100B1
330
A
100
AcDbEntity
  8
0
  6
Continuous
 62
     7
370
     9
100
AcDbCircle
 10
1107.860407952554
 20
60.56144365983982
 30
0.0
 40
1.52395991046
100
AcDbArc
 50
270.0
 51
327.6042231132135
  0
ARC
  5
100B2
330
A
100
AcDbEntity
  8
0
  6
Continuous
 62
     7
370
     9
100
AcDbCircle
 10
1107.864551239551
 20
61.21421590265845
 30
0.0
 40
2.673613877999999
100
AcDbArc
 50
31.66844917657496
 51
90.0
  0
ARC
  5
100B3
330
A
100
AcDbEntity
  8
0
  6
Continuous
 62
     7
370
     9
100
AcDbCircle
 10
1107.864551239551
 20
61.21421590265845
 30
0.0
 40
1.52395991046
100
AcDbArc
 50
31.66844917657496
 51
90.0
  0
LINE
  5
100B4
330
A
100
AcDbEntity
  8
0
  6
Continuous
 62
     7
370
     9
100
AcDbLine
 10
1113.87488809841
 20
63.88782978065842
 30
0.0
 11
1111.782443073253
 21
63.88782978065842
 31
0.0
  0
LINE
  5
100B5
330
A
100
AcDbEntity
  8
0
  6
Continuous
 62
     7
370
     9
100
AcDbLine
 10
1116.508165954266
 20
57.88782978183985
 30
0.0
 11
1117.262011685873
 21
57.88782978183985
 31
0.0
  0
ARC
  5
100B6
330
A
100
AcDbEntity
  8
0
  6
Continuous
 62
     7
370
     9
100
AcDbCircle
 10
1117.262011685873
 20
58.55623325133979
 30
0.0
 40
0.6684034695
100
AcDbArc
 50
270.0
 51
340.0954155416547
  0
LINE
  5
100B7
330
A
100
AcDbEntity
  8
0
  6
Continuous
 62
     7
370
     9
100
AcDbLine
 10
1120.628578931001
 20
57.88782978183985
 30
0.0
 11
1121.851275717714
 21
57.88782978183985
 31
0.0
  0
LINE
  5
100B8
330
A
100
AcDbEntity
  8
0
  6
Continuous
 62
     7
370
     9
100
AcDbLine
 10
1116.508165954266
 20
57.88782978183985
 30
0.0
 11
1118.264405670161
 21
62.73817581311823
 31
0.0
  0
LINE
  5
100B9
330
A
100
AcDbEntity
  8
0
  6
Continuous
 62
     7
370
     9
100
AcDbLine
 10
1117.890485326255
 20
58.32867209167966
 30
0.0
 11
1119.179720835991
 21
61.88925569620528
 31
0.0
  0
LINE
  5
100BA
330
A
100
AcDbEntity
  8
0
  6
Continuous
 62
     7
370
     9
100
AcDbLine
 10
1121.851275717714
 20
57.88782978183985
 30
0.0
 11
1119.67876302989
 21
63.88782978065842
 31
0.0
  0
LINE
  5
100BB
330
A
100
AcDbEntity
  8
0
  6
Continuous
 62
     7
370
     9
100
AcDbLine
 10
1120.628578931001
 20
57.88782978183985
 30
0.0
 11
1119.179720835991
 21
61.88925569620528
 31
0.0
  0
LINE
  5
100BC
330
A
100
AcDbEntity
  8
0
  6
Continuous
 62
     7
370
     9
100
AcDbLine
 10
1118.264405670161
 20
62.73817581311845
 30
0.0
 11
1117.586318004733
 21
63.88782978065842
 31
0.0
  0
LINE
  5
100BD
330
A
100
AcDbEntity
  8
0
  6
Continuous
 62
     7
370
     9
100
AcDbLine
 10
1119.67876302989
 20
63.88782978065842
 30
0.0
 11
1117.586318004733
 21
63.88782978065842
 31
0.0
  0
ELLIPSE
  5
100BE
330
A
100
AcDbEntity
  8
0
  6
Continuous
 62
     7
370
     9
100
AcDbEllipse
 10
1102.83791751604
 20
60.34755454959986
 30
0.0
 11
0.0
 21
-2.459724767760012
 31
0.0
210
0.0
220
0.0
230
1.0
 40
0.9130434782608746
 41
0.0
 42
6.283185307179586
  0
SPLINE
  5
100BF
330
A
100
AcDbEntity
  8
0
  6
Continuous
 62
     7
370
     9
100
AcDbSpline
210
0.0
220
0.0
230
1.0
 70
    11
 71
     3
 72
    38
 73
    34
 74
     0
 42
0.0000000001
 43
0.0000000001
 40
0.0
 40
0.0
 40
0.0
 40
0.0
 40
0.3937162255416505
 40
0.3937162255416505
 40
0.787432451083301
 40
0.787432451083301
 40
1.181148676624951
 40
1.181148676624951
 40
1.574864902166601
 40
1.574864902166601
 40
1.968581127708252
 40
1.968581127708252
 40
2.362297353249902
 40
2.362297353249902
 40
2.756013578791553
 40
2.756013578791553
 40
3.149729804333204
 40
3.149729804333204
 40
3.543446029874854
 40
3.543446029874854
 40
3.937162255416505
 40
3.937162255416505
 40
4.330878480958156
 40
4.330878480958156
 40
4.724594706499806
 40
4.724594706499806
 40
5.118310932041457
 40
5.118310932041457
 40
5.512027157583108
 40
5.512027157583108
 40
5.905743383124758
 40
5.905743383124758
 40
6.283185307179586
 40
6.283185307179586
 40
6.283185307179586
 40
6.283185307179586
 10
1102.83791751604
 20
59.03748374938004
 30
0.0
 10
1102.967409579939
 20
59.03748374937982
 30
0.0
 10
1103.097306580908
 20
59.06510646979086
 30
0.0
 10
1103.349443118938
 20
59.17982056985079
 30
0.0
 10
1103.471681911062
 20
59.26766417633757
 30
0.0
 10
1103.685556524338
 20
59.50286278226712
 30
0.0
 10
1103.776526095857
 20
59.65035538996085
 30
0.0
 10
1103.901342756526
 20
59.98325752588858
 30
0.0
 10
1103.934775974944
 20
60.16824151662627
 30
0.0
 10
1103.933401125961
 20
60.53834125297385
 30
0.0
 10
1103.898597271259
 20
60.72290469868699
 30
0.0
 10
1103.77146060601
 20
61.0542946590715
 30
0.0
 10
1103.679550314923
 20
61.20070194601431
 30
0.0
 10
1103.464387263297
 20
61.43349779138976
 30
0.0
 10
1103.341798834963
 20
61.52004050398886
 30
0.0
 10
1103.089306634866
 20
61.63228670404191
 30
0.0
 10
1102.959379736582
 20
61.65874363746548
 30
0.0
 10
1102.700397633195
 20
61.65643550759137
 30
0.0
 10
1102.570533021186
 20
61.62764404571158
 30
0.0
 10
1102.318765580056
 20
61.51045791894285
 30
0.0
 10
1102.196887199208
 20
61.42131298773825
 30
0.0
 10
1101.984324176504
 20
61.18372106774995
 30
0.0
 10
1101.894307256566
 20
61.03515291030817
 30
0.0
 10
1101.77182734715
 20
60.70076536653823
 30
0.0
 10
1101.739769546699
 20
60.51537762877228
 30
0.0
 10
1101.743893901157
 20
60.14531150115704
 30
0.0
 10
1101.780063417421
 20
59.96118532141895
 30
0.0
 10
1101.909503064724
 20
59.63133402556218
 30
0.0
 10
1102.002342064911
 20
59.486021625396
 30
0.0
 10
1102.218770448217
 20
59.25563759833676
 30
0.0
 10
1102.341697870822
 20
59.17039517664694
 30
0.0
 10
1102.589307121773
 20
59.06288158639881
 30
0.0
 10
1102.713778020186
 20
59.03748374937982
 30
0.0
 10
1102.83791751604
 20
59.03748374938004
 30
0.0
  0
VIEWPORT
  5
84FD
102
{ACAD_XDICTIONARY
360
10139
102
}
330
B
100
AcDbEntity
 67
     1
  8
0
 62
     0
 48
0.0
100
AcDbViewport
 10
0.0
 20
0.0
 30
0.0
 40
1000.0
 41
1000.0
 68
     1
 69
     1
 12
0.0
 22
0.0
 13
0.0
 23
0.0
 14
1.0
 24
1.0
 15
1.0
 25
1.0
 16
0.0
 26
0.0
 36
1.0
 17
0.0
 27
0.0
 37
0.0
 42
50.0
 43
0.0
 44
0.0
 45
1000.0
 50
0.0
 51
0.0
 72
   100
 90
    32800
  1

281
     0
 71
     1
 74
     0
110
0.0
120
0.0
130
0.0
111
1.0
121
0.0
131
0.0
112
0.0
122
1.0
132
0.0
 79
     0
146
0.0
  0
ENDSEC
  0
SECTION
  2
OBJECTS
  0
DICTIONARY
  5
19
330
0
100
AcDbDictionary
281
     1
  3
ACAD_COLOR
350
F9A2
  3
ACAD_GROUP
350
1A
  3
ACAD_IMAGE_VARS
350
F7A4
  3
ACAD_LAYOUT
350
8507
  3
ACAD_MATERIAL
350
F975
  3
ACAD_MLEADERSTYLE
350
F9A5
  3
ACAD_MLINESTYLE
350
1B
  3
ACAD_PLOTSETTINGS
350
8508
  3
ACAD_PLOTSTYLENAME
350
8501
  3
ACAD_SCALELIST
350
F426
  3
ACAD_TABLESTYLE
350
F9A3
  3
ACAD_VISUALSTYLE
350
F98E
  3
ACDB_RECOMPOSE_DATA
350
10137
  3
AcDbVariableDictionary
350
8541
  3
APPDATA
350
F7A2
  3
ASE_INDEX_DICTIONARY
350
F9AA
  3
DWGPROPS
350
10138
  0
DICTIONARY
  5
FC4F
330
7
100
AcDbDictionary
280
     1
281
     1
  0
DICTIONARY
  5
A84F
330
2
100
AcDbDictionary
280
     1
281
     1
  3
ACAD_LAYERSTATES
360
A850
  0
DICTIONARY
  5
F43F
330
14
100
AcDbDictionary
280
     1
281
     1
  3
ADSK_XREC_LAYER_RECONCILED
360
F440
  0
DICTIONARY
  5
D699
330
A
100
AcDbDictionary
280
     1
281
     1
  3
ACAD_SORTENTS
360
D69A
  0
DICTIONARY
  5
10139
330
84FD
100
AcDbDictionary
280
     1
281
     1
  3
ACAD_XREC_ROUNDTRIP
360
1013A
  0
DICTIONARY
  5
F9A2
102
{ACAD_REACTORS
330
19
102
}
330
19
100
AcDbDictionary
281
     1
  0
DICTIONARY
  5
1A
102
{ACAD_REACTORS
330
19
102
}
330
19
100
AcDbDictionary
281
     1
  0
RASTERVARIABLES
  5
F7A4
102
{ACAD_REACTORS
330
19
102
}
330
19
100
AcDbRasterVariables
 90
        0
 70
     1
 71
     1
 72
     0
  0
DICTIONARY
  5
8507
102
{ACAD_REACTORS
330
19
102
}
330
19
100
AcDbDictionary
281
     1
  3
Model
350
8509
  3
1
350
850A
  0
DICTIONARY
  5
F975
102
{ACAD_REACTORS
330
19
102
}
330
19
100
AcDbDictionary
281
     1
  3
ByBlock
350
F97E
  3
ByLayer
350
F976
  3
Global
350
F986
  0
DICTIONARY
  5
F9A5
102
{ACAD_REACTORS
330
19
102
}
330
19
100
AcDbDictionary
281
     1
  3
Standard
350
F9A6
  0
DICTIONARY
  5
1B
102
{ACAD_REACTORS
330
19
102
}
330
19
100
AcDbDictionary
281
     1
  3
STANDARD
350
1C
  0
DICTIONARY
  5
8508
102
{ACAD_REACTORS
330
19
102
}
330
19
100
AcDbDictionary
281
     1
  0
ACDBDICTIONARYWDFLT
  5
8501
102
{ACAD_REACTORS
330
19
102
}
330
19
100
AcDbDictionary
281
     1
  3
Normal
350
8502
100
AcDbDictionaryWithDefault
340
8502
  0
DICTIONARY
  5
F426
102
{ACAD_REACTORS
330
19
102
}
330
19
100
AcDbDictionary
281
     1
  3
A0
350
F427
  3
A1
350
F428
  3
A2
350
F429
  3
A3
350
F42A
  3
A4
350
F42B
  3
A5
350
F42C
  3
A6
350
F42D
  3
A7
350
F42E
  3
A8
350
F42F
  3
A9
350
F430
  3
B0
350
F431
  3
B1
350
F432
  3
B2
350
F433
  3
B3
350
F434
  3
B4
350
F435
  3
B5
350
F436
  3
B6
350
F437
  0
DICTIONARY
  5
F9A3
102
{ACAD_REACTORS
330
19
102
}
330
19
100
AcDbDictionary
281
     1
  3
Standard
350
F9A4
  0
DICTIONARY
  5
F98E
102
{ACAD_REACTORS
330
19
102
}
330
19
100
AcDbDictionary
281
     1
  3
2dWireframe
350
F994
  3
3D Hidden
350
F996
  3
3dWireframe
350
F995
  3
Basic
350
F993
  3
Brighten
350
F99A
  3
ColorChange
350
F99E
  3
Conceptual
350
F997
  3
Dim
350
F999
  3
EdgeColorOff
350
F9A1
  3
Facepattern
350
F99D
  3
Flat
350
F98F
  3
FlatWithEdges
350
F990
  3
Gouraud
350
F991
  3
GouraudWithEdges
350
F992
  3
JitterOff
350
F99F
  3
Linepattern
350
F99C
  3
OverhangOff
350
F9A0
  3
Realistic
350
F998
  3
Thicken
350
F99B
  0
XRECORD
  5
10137
102
{ACAD_REACTORS
330
19
102
}
330
19
100
AcDbXrecord
280
     1
 90
        1
330
F9A4
  0
DICTIONARY
  5
8541
102
{ACAD_REACTORS
330
19
102
}
330
19
100
AcDbDictionary
281
     1
  3
CANNOSCALE
350
FC83
  3
CMLEADERSTYLE
350
FC82
  3
CTABLESTYLE
350
FC81
  3
DIMASSOC
350
8543
  3
HPTRANSPARENCY
350
F956
  3
INDEXCTL
350
F764
  3
PROJECTNAME
350
8544
  3
SORTENTS
350
F763
  3
XCLIPFRAME
350
10135
  0
DICTIONARY
  5
F7A2
102
{ACAD_REACTORS
330
19
102
}
330
19
100
AcDbDictionary
281
     1
  0
DICTIONARY
  5
F9AA
102
{ACAD_REACTORS
330
19
102
}
330
19
100
AcDbDictionary
281
     1
  3
ASEBlockHierarchyIndexRecord
350
F9AB
1001
DCO15
1040
1856497581.357
  0
XRECORD
  5
10138
102
{ACAD_REACTORS
330
19
102
}
330
19
100
AcDbXrecord
280
     1
  1
DWGPROPS COOKIE
  2

  3

  4

  6

  7

  8
dhkim
  9

300
=
301
=
302
=
303
=
304
=
305
=
306
=
307
=
308
=
309
=
 40
0.1094336226851852
 41
2454480.819145324
 42
2457290.620426562
  1

 90
        0
  0
DICTIONARY
  5
A850
102
{ACAD_REACTORS
330
A84F
102
}
330
A84F
100
AcDbDictionary
281
     1
  0
XRECORD
  5
F440
102
{ACAD_REACTORS
330
F43F
102
}
330
F43F
100
AcDbXrecord
280
     1
290
     1
  0
SORTENTSTABLE
  5
D69A
102
{ACAD_REACTORS
330
D699
102
}
330
D699
100
AcDbSortentsTable
330
A
  0
XRECORD
  5
1013A
102
{ACAD_REACTORS
330
10139
102
}
330
10139
100
AcDbXrecord
280
     1
102
SHADEPLOT
 70
     0
  0
LAYOUT
  5
8509
102
{ACAD_XDICTIONARY
360
1013B
102
}
102
{ACAD_REACTORS
330
8507
102
}
330
8507
100
AcDbPlotSettings
  1

  2
HP LaserJet 5100 PCL 6
  4

  6

 40
0.0
 41
0.0
 42
0.0
 43
0.0
 44
0.0
 45
0.0
 46
0.0
 47
0.0
 48
0.0
 49
0.0
140
0.0
141
0.0
142
1.0
143
1.0
 70
  1712
 72
     0
 73
     0
 74
     0
  7

 75
     0
147
1.0
148
0.0
149
0.0
100
AcDbLayout
  1
Model
 70
     1
 71
     0
 10
0.0
 20
0.0
 11
12.0
 21
9.0
 12
0.0
 22
0.0
 32
0.0
 14
1.000000000000000E+20
 24
1.000000000000000E+20
 34
1.000000000000000E+20
 15
-1.000000000000000E+20
 25
-1.000000000000000E+20
 35
-1.000000000000000E+20
146
0.0
 13
0.0
 23
0.0
 33
0.0
 16
1.0
 26
0.0
 36
0.0
 17
0.0
 27
1.0
 37
0.0
 76
     0
330
A
331
F3F1
  0
LAYOUT
  5
850A
102
{ACAD_XDICTIONARY
360
1013D
102
}
102
{ACAD_REACTORS
330
8507
102
}
330
8507
100
AcDbPlotSettings
  1

  2
HP LaserJet 5100 PCL 6
  4

  6

 40
0.0
 41
0.0
 42
0.0
 43
0.0
 44
0.0
 45
0.0
 46
0.0
 47
0.0
 48
0.0
 49
0.0
140
0.0
141
0.0
142
1.0
143
1.0
 70
   688
 72
     0
 73
     0
 74
     5
  7

 75
    16
147
1.0
148
0.0
149
0.0
100
AcDbLayout
  1
1
 70
     1
 71
     1
 10
0.0
 20
0.0
 11
420.0
 21
297.0
 12
0.0
 22
0.0
 32
0.0
 14
0.0
 24
0.0
 34
0.0
 15
1182.7314453125
 25
831.0
 35
2.0
146
0.0
 13
0.0
 23
0.0
 33
0.0
 16
1.0
 26
0.0
 36
0.0
 17
0.0
 27
1.0
 37
0.0
 76
     0
330
B
331
84FD
  0
MATERIAL
  5
F97E
102
{ACAD_XDICTIONARY
360
F97F
102
}
102
{ACAD_REACTORS
330
F975
102
}
330
F975
100
AcDbMaterial
  1
ByBlock
 72
     0
 43
0.0208333333333333
 43
0.0
 43
0.0
 43
0.0
 43
0.0
 43
0.0208333333333333
 43
0.0
 43
0.0
 43
0.0
 43
0.0
 43
1.0
 43
0.0
 43
0.0
 43
0.0
 43
0.0
 43
1.0
 77
     0
 47
0.0208333333333333
 47
0.0
 47
0.0
 47
0.0
 47
0.0
 47
0.0208333333333333
 47
0.0
 47
0.0
 47
0.0
 47
0.0
 47
1.0
 47
0.0
 47
0.0
 47
0.0
 47
0.0
 47
1.0
171
     0
 49
0.0208333333333333
 49
0.0
 49
0.0
 49
0.0
 49
0.0
 49
0.0208333333333333
 49
0.0
 49
0.0
 49
0.0
 49
0.0
 49
1.0
 49
0.0
 49
0.0
 49
0.0
 49
0.0
 49
1.0
175
     0
142
0.0208333333333333
142
0.0
142
0.0
142
0.0
142
0.0
142
0.0208333333333333
142
0.0
142
0.0
142
0.0
142
0.0
142
1.0
142
0.0
142
0.0
142
0.0
142
0.0
142
1.0
179
     0
144
0.0208333333333333
144
0.0
144
0.0
144
0.0
144
0.0
144
0.0208333333333333
144
0.0
144
0.0
144
0.0
144
0.0
144
1.0
144
0.0
144
0.0
144
0.0
144
0.0
144
1.0
147
0.0208333333333333
147
0.0
147
0.0
147
0.0
147
0.0
147
0.0208333333333333
147
0.0
147
0.0
147
0.0
147
0.0
147
1.0
147
0.0
147
0.0
147
0.0
147
0.0
147
1.0
  0
MATERIAL
  5
F976
102
{ACAD_XDICTIONARY
360
F977
102
}
102
{ACAD_REACTORS
330
F975
102
}
330
F975
100
AcDbMaterial
  1
ByLayer
 72
     0
 43
0.0208333333333333
 43
0.0
 43
0.0
 43
0.0
 43
0.0
 43
0.0208333333333333
 43
0.0
 43
0.0
 43
0.0
 43
0.0
 43
1.0
 43
0.0
 43
0.0
 43
0.0
 43
0.0
 43
1.0
 77
     0
 47
0.0208333333333333
 47
0.0
 47
0.0
 47
0.0
 47
0.0
 47
0.0208333333333333
 47
0.0
 47
0.0
 47
0.0
 47
0.0
 47
1.0
 47
0.0
 47
0.0
 47
0.0
 47
0.0
 47
1.0
171
     0
 49
0.0208333333333333
 49
0.0
 49
0.0
 49
0.0
 49
0.0
 49
0.0208333333333333
 49
0.0
 49
0.0
 49
0.0
 49
0.0
 49
1.0
 49
0.0
 49
0.0
 49
0.0
 49
0.0
 49
1.0
175
     0
142
0.0208333333333333
142
0.0
142
0.0
142
0.0
142
0.0
142
0.0208333333333333
142
0.0
142
0.0
142
0.0
142
0.0
142
1.0
142
0.0
142
0.0
142
0.0
142
0.0
142
1.0
179
     0
144
0.0208333333333333
144
0.0
144
0.0
144
0.0
144
0.0
144
0.0208333333333333
144
0.0
144
0.0
144
0.0
144
0.0
144
1.0
144
0.0
144
0.0
144
0.0
144
0.0
144
1.0
147
0.0208333333333333
147
0.0
147
0.0
147
0.0
147
0.0
147
0.0208333333333333
147
0.0
147
0.0
147
0.0
147
0.0
147
1.0
147
0.0
147
0.0
147
0.0
147
0.0
147
1.0
  0
MATERIAL
  5
F986
102
{ACAD_XDICTIONARY
360
F987
102
}
102
{ACAD_REACTORS
330
F975
102
}
330
F975
100
AcDbMaterial
  1
Global
 72
     0
 43
0.0208333333333333
 43
0.0
 43
0.0
 43
0.0
 43
0.0
 43
0.0208333333333333
 43
0.0
 43
0.0
 43
0.0
 43
0.0
 43
1.0
 43
0.0
 43
0.0
 43
0.0
 43
0.0
 43
1.0
 77
     0
 47
0.0208333333333333
 47
0.0
 47
0.0
 47
0.0
 47
0.0
 47
0.0208333333333333
 47
0.0
 47
0.0
 47
0.0
 47
0.0
 47
1.0
 47
0.0
 47
0.0
 47
0.0
 47
0.0
 47
1.0
171
     0
 49
0.0208333333333333
 49
0.0
 49
0.0
 49
0.0
 49
0.0
 49
0.0208333333333333
 49
0.0
 49
0.0
 49
0.0
 49
0.0
 49
1.0
 49
0.0
 49
0.0
 49
0.0
 49
0.0
 49
1.0
175
     0
142
0.0208333333333333
142
0.0
142
0.0
142
0.0
142
0.0
142
0.0208333333333333
142
0.0
142
0.0
142
0.0
142
0.0
142
1.0
142
0.0
142
0.0
142
0.0
142
0.0
142
1.0
179
     0
144
0.0208333333333333
144
0.0
144
0.0
144
0.0
144
0.0
144
0.0208333333333333
144
0.0
144
0.0
144
0.0
144
0.0
144
1.0
144
0.0
144
0.0
144
0.0
144
0.0
144
1.0
147
0.0208333333333333
147
0.0
147
0.0
147
0.0
147
0.0
147
0.0208333333333333
147
0.0
147
0.0
147
0.0
147
0.0
147
1.0
147
0.0
147
0.0
147
0.0
147
0.0
147
1.0
  0
MLEADERSTYLE
  5
F9A6
102
{ACAD_REACTORS
330
F9A5
102
}
330
F9A5
100
AcDbMLeaderStyle
170
     2
171
     1
172
     0
 90
        2
 40
0.0
 41
0.0
173
     1
 91
-1056964608
340
11
 92
       -2
290
     1
 42
2.0
291
     1
 43
0.36
  3
Standard
 44
4.0
300

342
17
174
     1
178
     6
175
     1
176
     0
 93
-1056964608
 45
4.0
292
     0
297
     0
 46
4.0
 94
-1056964608
 47
1.0
 49
1.0
140
1.0
293
     1
141
0.0
294
     1
177
     0
142
1.0
295
     0
296
     0
143
0.125
1001
ACAD_MLEADERVER
1070
     2
  0
MLINESTYLE
  5
1C
102
{ACAD_REACTORS
330
1B
102
}
330
1B
100
AcDbMlineStyle
  2
STANDARD
 70
     0
  3

 62
     0
 51
90.0
 52
90.0
 71
     2
 49
0.5
 62
   256
  6
BYLAYER
 49
-0.5
 62
   256
  6
BYLAYER
  0
ACDBPLACEHOLDER
  5
8502
102
{ACAD_REACTORS
330
8501
102
}
330
8501
  0
SCALE
  5
F427
102
{ACAD_REACTORS
330
F426
102
}
330
F426
100
AcDbScale
 70
     0
300
1:1
140
1.0
141
1.0
290
     1
  0
SCALE
  5
F428
102
{ACAD_REACTORS
330
F426
102
}
330
F426
100
AcDbScale
 70
     0
300
1:2
140
1.0
141
2.0
290
     0
  0
SCALE
  5
F429
102
{ACAD_REACTORS
330
F426
102
}
330
F426
100
AcDbScale
 70
     0
300
1:4
140
1.0
141
4.0
290
     0
  0
SCALE
  5
F42A
102
{ACAD_REACTORS
330
F426
102
}
330
F426
100
AcDbScale
 70
     0
300
1:5
140
1.0
141
5.0
290
     0
  0
SCALE
  5
F42B
102
{ACAD_REACTORS
330
F426
102
}
330
F426
100
AcDbScale
 70
     0
300
1:8
140
1.0
141
8.0
290
     0
  0
SCALE
  5
F42C
102
{ACAD_REACTORS
330
F426
102
}
330
F426
100
AcDbScale
 70
     0
300
1:10
140
1.0
141
10.0
290
     0
  0
SCALE
  5
F42D
102
{ACAD_REACTORS
330
F426
102
}
330
F426
100
AcDbScale
 70
     0
300
1:16
140
1.0
141
16.0
290
     0
  0
SCALE
  5
F42E
102
{ACAD_REACTORS
330
F426
102
}
330
F426
100
AcDbScale
 70
     0
300
1:20
140
1.0
141
20.0
290
     0
  0
SCALE
  5
F42F
102
{ACAD_REACTORS
330
F426
102
}
330
F426
100
AcDbScale
 70
     0
300
1:30
140
1.0
141
30.0
290
     0
  0
SCALE
  5
F430
102
{ACAD_REACTORS
330
F426
102
}
330
F426
100
AcDbScale
 70
     0
300
1:40
140
1.0
141
40.0
290
     0
  0
SCALE
  5
F431
102
{ACAD_REACTORS
330
F426
102
}
330
F426
100
AcDbScale
 70
     0
300
1:50
140
1.0
141
50.0
290
     0
  0
SCALE
  5
F432
102
{ACAD_REACTORS
330
F426
102
}
330
F426
100
AcDbScale
 70
     0
300
1:100
140
1.0
141
100.0
290
     0
  0
SCALE
  5
F433
102
{ACAD_REACTORS
330
F426
102
}
330
F426
100
AcDbScale
 70
     0
300
2:1
140
2.0
141
1.0
290
     0
  0
SCALE
  5
F434
102
{ACAD_REACTORS
330
F426
102
}
330
F426
100
AcDbScale
 70
     0
300
4:1
140
4.0
141
1.0
290
     0
  0
SCALE
  5
F435
102
{ACAD_REACTORS
330
F426
102
}
330
F426
100
AcDbScale
 70
     0
300
8:1
140
8.0
141
1.0
290
     0
  0
SCALE
  5
F436
102
{ACAD_REACTORS
330
F426
102
}
330
F426
100
AcDbScale
 70
     0
300
10:1
140
10.0
141
1.0
290
     0
  0
SCALE
  5
F437
102
{ACAD_REACTORS
330
F426
102
}
330
F426
100
AcDbScale
 70
     0
300
100:1
140
100.0
141
1.0
290
     0
  0
TABLESTYLE
  5
F9A4
102
{ACAD_XDICTIONARY
360
FC4B
102
}
102
{ACAD_REACTORS
330
F9A3
102
}
330
F9A3
100
AcDbTableStyle
  3
Standard
 70
     0
 71
     0
 40
1.5
 41
1.5
280
     0
281
     0
  7
STANDARD
140
4.5
170
     2
 62
     0
 63
     7
283
     0
274
    -2
284
     1
 64
     0
275
    -2
285
     1
 65
     0
276
    -2
286
     1
 66
     0
277
    -2
287
     1
 67
     0
278
    -2
288
     1
 68
     0
279
    -2
289
     1
 69
     0
  7
STANDARD
140
6.0
170
     5
 62
     0
 63
     7
283
     0
274
    -2
284
     1
 64
     0
275
    -2
285
     1
 65
     0
276
    -2
286
     1
 66
     0
277
    -2
287
     1
 67
     0
278
    -2
288
     1
 68
     0
279
    -2
289
     1
 69
     0
  7
STANDARD
140
4.5
170
     5
 62
     0
 63
     7
283
     0
274
    -2
284
     1
 64
     0
275
    -2
285
     1
 65
     0
276
    -2
286
     1
 66
     0
277
    -2
287
     1
 67
     0
278
    -2
288
     1
 68
     0
279
    -2
289
     1
 69
     0
  0
VISUALSTYLE
  5
F994
102
{ACAD_XDICTIONARY
360
1014C
102
}
102
{ACAD_REACTORS
330
F98E
102
}
330
F98E
100
AcDbVisualStyle
  2
2dWireframe
 70
     4
 71
     0
 72
     2
 73
     0
 90
        0
 40
-0.6
 41
-30.0
 62
     5
 63
     7
 74
     1
 91
        4
 64
     7
 65
   257
 75
     1
175
     1
 42
1.0
 92
        0
 66
   257
 43
1.0
 76
     1
 77
     6
 78
     2
 67
     7
 79
     5
170
     0
171
     0
290
     0
174
     0
 93
        1
 44
0.0
173
     0
291
     0
 45
0.0
1001
ACAD
1000
AcDbSavedByObjectVersion
1070
     0
  0
VISUALSTYLE
  5
F996
102
{ACAD_XDICTIONARY
360
10150
102
}
102
{ACAD_REACTORS
330
F98E
102
}
330
F98E
100
AcDbVisualStyle
  2
3D Hidden
 70
     6
 71
     1
 72
     2
 73
     2
 90
        0
 40
-0.6
 41
-30.0
 62
     5
 63
     7
 74
     2
 91
        2
 64
     7
 65
   257
 75
     2
175
     1
 42
179.0
 92
        0
 66
   257
 43
1.0
 76
     1
 77
     6
 78
     2
 67
     7
 79
     3
170
     0
171
     0
290
     0
174
     0
 93
        1
 44
0.0
173
     0
291
     0
 45
0.0
1001
ACAD
1000
AcDbSavedByObjectVersion
1070
     0
  0
VISUALSTYLE
  5
F995
102
{ACAD_XDICTIONARY
360
1014E
102
}
102
{ACAD_REACTORS
330
F98E
102
}
330
F98E
100
AcDbVisualStyle
  2
3dWireframe
 70
     5
 71
     0
 72
     2
 73
     0
 90
        0
 40
-0.6
 41
-30.0
 62
     5
 63
     7
 74
     1
 91
        4
 64
     7
 65
   257
 75
     1
175
     1
 42
1.0
 92
        0
 66
   257
 43
1.0
 76
     1
 77
     6
 78
     2
 67
     7
 79
     5
170
     0
171
     0
290
     0
174
     0
 93
        1
 44
0.0
173
     0
291
     0
 45
0.0
1001
ACAD
1000
AcDbSavedByObjectVersion
1070
     0
  0
VISUALSTYLE
  5
F993
102
{ACAD_XDICTIONARY
360
1014A
102
}
102
{ACAD_REACTORS
330
F98E
102
}
330
F98E
100
AcDbVisualStyle
  2
Basic
 70
     7
 71
     1
 72
     0
 73
     1
 90
        0
 40
-0.6
 41
-30.0
 62
     5
 63
     7
 74
     0
 91
        4
 64
     7
 65
   257
 75
     1
175
     1
 42
1.0
 92
        8
 66
     7
 43
1.0
 76
     1
 77
     6
 78
     2
 67
     7
 79
     5
170
     0
171
     0
290
     0
174
     0
 93
        1
 44
0.0
173
     0
291
     1
 45
0.0
1001
ACAD
1000
AcDbSavedByObjectVersion
1070
     0
  0
VISUALSTYLE
  5
F99A
102
{ACAD_XDICTIONARY
360
10158
102
}
102
{ACAD_REACTORS
330
F98E
102
}
330
F98E
100
AcDbVisualStyle
  2
Brighten
 70
    12
 71
     2
 72
     2
 73
     0
 90
        0
 40
-0.6
 41
-30.0
 62
     5
 63
     7
 74
     1
 91
        4
 64
     7
 65
   257
 75
     1
175
     1
 42
1.0
 92
        8
 66
     7
 43
1.0
 76
     1
 77
     6
 78
     2
 67
     7
 79
     5
170
     0
171
     0
290
     0
174
     0
 93
        1
 44
50.0
173
     0
291
     1
 45
0.0
1001
ACAD
1000
AcDbSavedByObjectVersion
1070
     0
  0
VISUALSTYLE
  5
F99E
102
{ACAD_XDICTIONARY
360
10160
102
}
102
{ACAD_REACTORS
330
F98E
102
}
330
F98E
100
AcDbVisualStyle
  2
ColorChange
 70
    16
 71
     2
 72
     2
 73
     3
 90
        0
 40
-0.6
 41
-30.0
 62
     5
 63
     8
 74
     1
 91
        4
 64
     7
 65
   257
 75
     1
175
     1
 42
1.0
 92
        8
 66
     8
 43
1.0
 76
     1
 77
     6
 78
     2
 67
     7
 79
     5
170
     0
171
     0
290
     0
174
     0
 93
        1
 44
0.0
173
     0
291
     1
 45
0.0
1001
ACAD
1000
AcDbSavedByObjectVersion
1070
     0
  0
VISUALSTYLE
  5
F997
102
{ACAD_XDICTIONARY
360
10152
102
}
102
{ACAD_REACTORS
330
F98E
102
}
330
F98E
100
AcDbVisualStyle
  2
Conceptual
 70
     9
 71
     3
 72
     2
 73
     0
 90
        0
 40
-0.6
 41
-30.0
 62
     5
 63
     7
 74
     2
 91
        2
 64
     7
 65
   257
 75
     1
175
     1
 42
179.0
 92
        8
 66
     7
 43
1.0
 76
     1
 77
     6
 78
     2
 67
     7
 79
     3
170
     0
171
     0
290
     0
174
     0
 93
        1
 44
0.0
173
     0
291
     0
 45
0.0
1001
ACAD
1000
AcDbSavedByObjectVersion
1070
     0
  0
VISUALSTYLE
  5
F999
102
{ACAD_XDICTIONARY
360
10156
102
}
102
{ACAD_REACTORS
330
F98E
102
}
330
F98E
100
AcDbVisualStyle
  2
Dim
 70
    11
 71
     2
 72
     2
 73
     0
 90
        0
 40
-0.6
 41
-30.0
 62
     5
 63
     7
 74
     1
 91
        4
 64
     7
 65
   257
 75
     1
175
     1
 42
1.0
 92
        8
 66
     7
 43
1.0
 76
     1
 77
     6
 78
     2
 67
     7
 79
     5
170
     0
171
     0
290
     0
174
     0
 93
        1
 44
-50.0
173
     0
291
     1
 45
0.0
1001
ACAD
1000
AcDbSavedByObjectVersion
1070
     0
  0
VISUALSTYLE
  5
F9A1
102
{ACAD_XDICTIONARY
360
10166
102
}
102
{ACAD_REACTORS
330
F98E
102
}
330
F98E
100
AcDbVisualStyle
  2
EdgeColorOff
 70
    22
 71
     2
 72
     2
 73
     0
 90
        0
 40
-0.6
 41
-30.0
 62
     5
 63
     7
 74
     1
 91
        4
 64
     7
 65
   257
 75
     1
175
     1
 42
1.0
 92
        8
 66
     7
 43
1.0
 76
     1
 77
     6
 78
     2
 67
     7
 79
     5
170
     0
171
     0
290
     0
174
     0
 93
        1
 44
0.0
173
     0
291
     1
 45
0.0
1001
ACAD
1000
AcDbSavedByObjectVersion
1070
     0
  0
VISUALSTYLE
  5
F99D
102
{ACAD_XDICTIONARY
360
1015E
102
}
102
{ACAD_REACTORS
330
F98E
102
}
330
F98E
100
AcDbVisualStyle
  2
Facepattern
 70
    15
 71
     2
 72
     2
 73
     0
 90
        0
 40
-0.6
 41
-30.0
 62
     5
 63
     7
 74
     1
 91
        4
 64
     7
 65
   257
 75
     1
175
     1
 42
1.0
 92
        8
 66
     7
 43
1.0
 76
     1
 77
     6
 78
     2
 67
     7
 79
     5
170
     0
171
     0
290
     0
174
     0
 93
        1
 44
0.0
173
     0
291
     1
 45
0.0
1001
ACAD
1000
AcDbSavedByObjectVersion
1070
     0
  0
VISUALSTYLE
  5
F98F
102
{ACAD_XDICTIONARY
360
10142
102
}
102
{ACAD_REACTORS
330
F98E
102
}
330
F98E
100
AcDbVisualStyle
  2
Flat
 70
     0
 71
     2
 72
     1
 73
     1
 90
        2
 40
-0.6
 41
30.0
 62
     5
 63
     7
 74
     0
 91
        4
 64
     7
 65
   257
 75
     1
175
     1
 42
1.0
 92
        8
 66
     7
 43
1.0
 76
     1
 77
     6
 78
     2
 67
     7
 79
     5
170
     0
171
     0
290
     0
174
     0
 93
       13
 44
0.0
173
     0
291
     1
 45
0.0
1001
ACAD
1000
AcDbSavedByObjectVersion
1070
     0
  0
VISUALSTYLE
  5
F990
102
{ACAD_XDICTIONARY
360
10144
102
}
102
{ACAD_REACTORS
330
F98E
102
}
330
F98E
100
AcDbVisualStyle
  2
FlatWithEdges
 70
     1
 71
     2
 72
     1
 73
     1
 90
        2
 40
-0.6
 41
30.0
 62
     5
 63
     7
 74
     1
 91
        4
 64
     7
 65
   257
 75
     1
175
     1
 42
1.0
 92
        0
 66
   257
 43
1.0
 76
     1
 77
     6
 78
     2
 67
     7
 79
     5
170
     0
171
     0
290
     0
174
     0
 93
       13
 44
0.0
173
     0
291
     1
 45
0.0
1001
ACAD
1000
AcDbSavedByObjectVersion
1070
     0
  0
VISUALSTYLE
  5
F991
102
{ACAD_XDICTIONARY
360
10146
102
}
102
{ACAD_REACTORS
330
F98E
102
}
330
F98E
100
AcDbVisualStyle
  2
Gouraud
 70
     2
 71
     2
 72
     2
 73
     1
 90
        2
 40
-0.6
 41
30.0
 62
     5
 63
     7
 74
     0
 91
        4
 64
     7
 65
   257
 75
     1
175
     1
 42
1.0
 92
        0
 66
     7
 43
1.0
 76
     1
 77
     6
 78
     2
 67
     7
 79
     5
170
     0
171
     0
290
     0
174
     0
 93
       13
 44
0.0
173
     0
291
     1
 45
0.0
1001
ACAD
1000
AcDbSavedByObjectVersion
1070
     0
  0
VISUALSTYLE
  5
F992
102
{ACAD_XDICTIONARY
360
10148
102
}
102
{ACAD_REACTORS
330
F98E
102
}
330
F98E
100
AcDbVisualStyle
  2
GouraudWithEdges
 70
     3
 71
     2
 72
     2
 73
     1
 90
        2
 40
-0.6
 41
30.0
 62
     5
 63
     7
 74
     1
 91
        4
 64
     7
 65
   257
 75
     1
175
     1
 42
1.0
 92
        0
 66
   257
 43
1.0
 76
     1
 77
     6
 78
     2
 67
     7
 79
     5
170
     0
171
     0
290
     0
174
     0
 93
       13
 44
0.0
173
     0
291
     1
 45
0.0
1001
ACAD
1000
AcDbSavedByObjectVersion
1070
     0
  0
VISUALSTYLE
  5
F99F
102
{ACAD_XDICTIONARY
360
10162
102
}
102
{ACAD_REACTORS
330
F98E
102
}
330
F98E
100
AcDbVisualStyle
  2
JitterOff
 70
    20
 71
     2
 72
     2
 73
     0
 90
        0
 40
-0.6
 41
-30.0
 62
     5
 63
     7
 74
     1
 91
        4
 64
     7
 65
   257
 75
     1
175
     1
 42
1.0
 92
       10
 66
     7
 43
1.0
 76
     1
 77
     6
 78
     2
 67
     7
 79
     5
170
     0
171
     0
290
     0
174
     0
 93
        1
 44
0.0
173
     0
291
     1
 45
0.0
1001
ACAD
1000
AcDbSavedByObjectVersion
1070
     0
  0
VISUALSTYLE
  5
F99C
102
{ACAD_XDICTIONARY
360
1015C
102
}
102
{ACAD_REACTORS
330
F98E
102
}
330
F98E
100
AcDbVisualStyle
  2
Linepattern
 70
    14
 71
     2
 72
     2
 73
     0
 90
        0
 40
-0.6
 41
-30.0
 62
     5
 63
     7
 74
     1
 91
        4
 64
     7
 65
   257
 75
     7
175
     7
 42
1.0
 92
        8
 66
     7
 43
1.0
 76
     1
 77
     6
 78
     2
 67
     7
 79
     5
170
     0
171
     0
290
     0
174
     0
 93
        1
 44
0.0
173
     0
291
     1
 45
0.0
1001
ACAD
1000
AcDbSavedByObjectVersion
1070
     0
  0
VISUALSTYLE
  5
F9A0
102
{ACAD_XDICTIONARY
360
10164
102
}
102
{ACAD_REACTORS
330
F98E
102
}
330
F98E
100
AcDbVisualStyle
  2
OverhangOff
 70
    21
 71
     2
 72
     2
 73
     0
 90
        0
 40
-0.6
 41
-30.0
 62
     5
 63
     7
 74
     1
 91
        4
 64
     7
 65
   257
 75
     1
175
     1
 42
1.0
 92
        9
 66
     7
 43
1.0
 76
     1
 77
     6
 78
     2
 67
     7
 79
     5
170
     0
171
     0
290
     0
174
     0
 93
        1
 44
0.0
173
     0
291
     1
 45
0.0
1001
ACAD
1000
AcDbSavedByObjectVersion
1070
     0
  0
VISUALSTYLE
  5
F998
102
{ACAD_XDICTIONARY
360
10154
102
}
102
{ACAD_REACTORS
330
F98E
102
}
330
F98E
100
AcDbVisualStyle
  2
Realistic
 70
     8
 71
     2
 72
     2
 73
     0
 90
        0
 40
-0.6
 41
-30.0
 62
     5
 63
     7
 74
     1
 91
        0
 64
     7
 65
   257
 75
     1
175
     1
 42
1.0
 92
        8
 66
     8
 43
1.0
 76
     1
 77
     6
 78
     2
 67
     7
 79
     5
170
     0
171
     0
290
     0
174
     0
 93
       13
 44
0.0
173
     0
291
     0
 45
0.0
1001
ACAD
1000
AcDbSavedByObjectVersion
1070
     0
  0
VISUALSTYLE
  5
F99B
102
{ACAD_XDICTIONARY
360
1015A
102
}
102
{ACAD_REACTORS
330
F98E
102
}
330
F98E
100
AcDbVisualStyle
  2
Thicken
 70
    13
 71
     2
 72
     2
 73
     0
 90
        0
 40
-0.6
 41
-30.0
 62
     5
 63
     7
 74
     1
 91
        4
 64
     7
 65
   257
 75
     1
175
     1
 42
1.0
 92
       12
 66
     7
 43
1.0
 76
     1
 77
     6
 78
     2
 67
     7
 79
     5
170
     0
171
     0
290
     0
174
     0
 93
        1
 44
0.0
173
     0
291
     1
 45
0.0
1001
ACAD
1000
AcDbSavedByObjectVersion
1070
     0
  0
DICTIONARYVAR
  5
FC83
102
{ACAD_REACTORS
330
8541
102
}
330
8541
100
DictionaryVariables
280
     0
  1
1:1
  0
DICTIONARYVAR
  5
FC82
102
{ACAD_REACTORS
330
8541
102
}
330
8541
100
DictionaryVariables
280
     0
  1
STANDARD
  0
DICTIONARYVAR
  5
FC81
102
{ACAD_REACTORS
330
8541
102
}
330
8541
100
DictionaryVariables
280
     0
  1
STANDARD
  0
DICTIONARYVAR
  5
8543
102
{ACAD_REACTORS
330
8541
102
}
330
8541
100
DictionaryVariables
280
     0
  1
1
  0
DICTIONARYVAR
  5
F956
102
{ACAD_REACTORS
330
8541
102
}
330
8541
100
DictionaryVariables
280
     0
  1
ByLayer
  0
DICTIONARYVAR
  5
F764
102
{ACAD_REACTORS
330
8541
102
}
330
8541
100
DictionaryVariables
280
     0
  1
0
  0
DICTIONARYVAR
  5
8544
102
{ACAD_REACTORS
330
8541
102
}
330
8541
100
DictionaryVariables
280
     0
  1

  0
DICTIONARYVAR
  5
F763
102
{ACAD_REACTORS
330
8541
102
}
330
8541
100
DictionaryVariables
280
     0
  1
127
  0
DICTIONARYVAR
  5
10135
102
{ACAD_REACTORS
330
8541
102
}
330
8541
100
DictionaryVariables
280
     0
  1
2
  0
XRECORD
  5
F9AB
102
{ACAD_REACTORS
330
F9AA
102
}
330
F9AA
100
AcDbXrecord
280
     1
  0
DICTIONARY
  5
1013B
330
8509
100
AcDbDictionary
280
     1
281
     1
  3
ACAD_XREC_ROUNDTRIP
360
1013C
  0
DICTIONARY
  5
1013D
330
850A
100
AcDbDictionary
280
     1
281
     1
  3
ACAD_XREC_ROUNDTRIP
360
1013E
  0
DICTIONARY
  5
F97F
330
F97E
100
AcDbDictionary
280
     1
281
     1
  3
ACAD_XREC_ROUNDTRIP
360
10140
  3
BUMPTILE
360
F981
  3
DIFFUSETILE
360
F980
  3
OPACITYTILE
360
F984
  3
REFLECTIONTILE
360
F983
  3
REFRACTIONTILE
360
F985
  3
SPECULARTILE
360
F982
  0
DICTIONARY
  5
F977
330
F976
100
AcDbDictionary
280
     1
281
     1
  3
ACAD_XREC_ROUNDTRIP
360
1013F
  3
BUMPTILE
360
F979
  3
DIFFUSETILE
360
F978
  3
OPACITYTILE
360
F97C
  3
REFLECTIONTILE
360
F97B
  3
REFRACTIONTILE
360
F97D
  3
SPECULARTILE
360
F97A
  0
DICTIONARY
  5
F987
330
F986
100
AcDbDictionary
280
     1
281
     1
  3
ACAD_XREC_ROUNDTRIP
360
10141
  3
BUMPTILE
360
F989
  3
DIFFUSETILE
360
F988
  3
OPACITYTILE
360
F98C
  3
REFLECTIONTILE
360
F98B
  3
REFRACTIONTILE
360
F98D
  3
SPECULARTILE
360
F98A
  0
DICTIONARY
  5
FC4B
330
F9A4
100
AcDbDictionary
280
     1
281
     1
  3
ACAD_ROUNDTRIP_2008_TABLESTYLE_CELLSTYLEMAP
360
10136
  3
ACAD_XREC_ROUNDTRIP
360
10168
  0
DICTIONARY
  5
1014C
330
F994
100
AcDbDictionary
280
     1
281
     1
  3
ACAD_XREC_ROUNDTRIP
360
1014D
  0
DICTIONARY
  5
10150
330
F996
100
AcDbDictionary
280
     1
281
     1
  3
ACAD_XREC_ROUNDTRIP
360
10151
  0
DICTIONARY
  5
1014E
330
F995
100
AcDbDictionary
280
     1
281
     1
  3
ACAD_XREC_ROUNDTRIP
360
1014F
  0
DICTIONARY
  5
1014A
330
F993
100
AcDbDictionary
280
     1
281
     1
  3
ACAD_XREC_ROUNDTRIP
360
1014B
  0
DICTIONARY
  5
10158
330
F99A
100
AcDbDictionary
280
     1
281
     1
  3
ACAD_XREC_ROUNDTRIP
360
10159
  0
DICTIONARY
  5
10160
330
F99E
100
AcDbDictionary
280
     1
281
     1
  3
ACAD_XREC_ROUNDTRIP
360
10161
  0
DICTIONARY
  5
10152
330
F997
100
AcDbDictionary
280
     1
281
     1
  3
ACAD_XREC_ROUNDTRIP
360
10153
  0
DICTIONARY
  5
10156
330
F999
100
AcDbDictionary
280
     1
281
     1
  3
ACAD_XREC_ROUNDTRIP
360
10157
  0
DICTIONARY
  5
10166
330
F9A1
100
AcDbDictionary
280
     1
281
     1
  3
ACAD_XREC_ROUNDTRIP
360
10167
  0
DICTIONARY
  5
1015E
330
F99D
100
AcDbDictionary
280
     1
281
     1
  3
ACAD_XREC_ROUNDTRIP
360
1015F
  0
DICTIONARY
  5
10142
330
F98F
100
AcDbDictionary
280
     1
281
     1
  3
ACAD_XREC_ROUNDTRIP
360
10143
  0
DICTIONARY
  5
10144
330
F990
100
AcDbDictionary
280
     1
281
     1
  3
ACAD_XREC_ROUNDTRIP
360
10145
  0
DICTIONARY
  5
10146
330
F991
100
AcDbDictionary
280
     1
281
     1
  3
ACAD_XREC_ROUNDTRIP
360
10147
  0
DICTIONARY
  5
10148
330
F992
100
AcDbDictionary
280
     1
281
     1
  3
ACAD_XREC_ROUNDTRIP
360
10149
  0
DICTIONARY
  5
10162
330
F99F
100
AcDbDictionary
280
     1
281
     1
  3
ACAD_XREC_ROUNDTRIP
360
10163
  0
DICTIONARY
  5
1015C
330
F99C
100
AcDbDictionary
280
     1
281
     1
  3
ACAD_XREC_ROUNDTRIP
360
1015D
  0
DICTIONARY
  5
10164
330
F9A0
100
AcDbDictionary
280
     1
281
     1
  3
ACAD_XREC_ROUNDTRIP
360
10165
  0
DICTIONARY
  5
10154
330
F998
100
AcDbDictionary
280
     1
281
     1
  3
ACAD_XREC_ROUNDTRIP
360
10155
  0
DICTIONARY
  5
1015A
330
F99B
100
AcDbDictionary
280
     1
281
     1
  3
ACAD_XREC_ROUNDTRIP
360
1015B
  0
XRECORD
  5
1013C
102
{ACAD_REACTORS
330
1013B
102
}
330
1013B
100
AcDbXrecord
280
     1
102
SHADEPLOT
 70
     0
102
SHADEPLOTRESLEVEL
 70
     2
102
SHADEPLOTCUSTOMDPI
 70
   300
  0
XRECORD
  5
1013E
102
{ACAD_REACTORS
330
1013D
102
}
330
1013D
100
AcDbXrecord
280
     1
102
SHADEPLOT
 70
     0
102
SHADEPLOTRESLEVEL
 70
     2
102
SHADEPLOTCUSTOMDPI
 70
   300
  0
XRECORD
  5
10140
102
{ACAD_REACTORS
330
F97F
102
}
330
F97F
100
AcDbXrecord
280
     1
102
MATERIAL
148
0.0
149
0.0
149
0.0
 93
        0
 94
      127
282
     0
 72
     0
 77
     0
171
     0
175
     0
179
     0
273
     0
  0
XRECORD
  5
F981
102
{ACAD_REACTORS
330
F97F
102
}
330
F97F
100
AcDbXrecord
280
     1
270
     1
271
     1
  0
XRECORD
  5
F980
102
{ACAD_REACTORS
330
F97F
102
}
330
F97F
100
AcDbXrecord
280
     1
270
     1
271
     1
  0
XRECORD
  5
F984
102
{ACAD_REACTORS
330
F97F
102
}
330
F97F
100
AcDbXrecord
280
     1
270
     1
271
     1
  0
XRECORD
  5
F983
102
{ACAD_REACTORS
330
F97F
102
}
330
F97F
100
AcDbXrecord
280
     1
270
     1
271
     1
  0
XRECORD
  5
F985
102
{ACAD_REACTORS
330
F97F
102
}
330
F97F
100
AcDbXrecord
280
     1
270
     1
271
     1
  0
XRECORD
  5
F982
102
{ACAD_REACTORS
330
F97F
102
}
330
F97F
100
AcDbXrecord
280
     1
270
     1
271
     1
  0
XRECORD
  5
1013F
102
{ACAD_REACTORS
330
F977
102
}
330
F977
100
AcDbXrecord
280
     1
102
MATERIAL
148
0.0
149
0.0
149
0.0
 93
        0
 94
      127
282
     0
 72
     0
 77
     0
171
     0
175
     0
179
     0
273
     0
  0
XRECORD
  5
F979
102
{ACAD_REACTORS
330
F977
102
}
330
F977
100
AcDbXrecord
280
     1
270
     1
271
     1
  0
XRECORD
  5
F978
102
{ACAD_REACTORS
330
F977
102
}
330
F977
100
AcDbXrecord
280
     1
270
     1
271
     1
  0
XRECORD
  5
F97C
102
{ACAD_REACTORS
330
F977
102
}
330
F977
100
AcDbXrecord
280
     1
270
     1
271
     1
  0
XRECORD
  5
F97B
102
{ACAD_REACTORS
330
F977
102
}
330
F977
100
AcDbXrecord
280
     1
270
     1
271
     1
  0
XRECORD
  5
F97D
102
{ACAD_REACTORS
330
F977
102
}
330
F977
100
AcDbXrecord
280
     1
270
     1
271
     1
  0
XRECORD
  5
F97A
102
{ACAD_REACTORS
330
F977
102
}
330
F977
100
AcDbXrecord
280
     1
270
     1
271
     1
  0
XRECORD
  5
10141
102
{ACAD_REACTORS
330
F987
102
}
330
F987
100
AcDbXrecord
280
     1
102
MATERIAL
148
0.0
149
0.0
149
0.0
 93
        0
 94
      127
282
     0
 72
     0
 77
     0
171
     0
175
     0
179
     0
273
     0
  0
XRECORD
  5
F989
102
{ACAD_REACTORS
330
F987
102
}
330
F987
100
AcDbXrecord
280
     1
270
     1
271
     1
  0
XRECORD
  5
F988
102
{ACAD_REACTORS
330
F987
102
}
330
F987
100
AcDbXrecord
280
     1
270
     1
271
     1
  0
XRECORD
  5
F98C
102
{ACAD_REACTORS
330
F987
102
}
330
F987
100
AcDbXrecord
280
     1
270
     1
271
     1
  0
XRECORD
  5
F98B
102
{ACAD_REACTORS
330
F987
102
}
330
F987
100
AcDbXrecord
280
     1
270
     1
271
     1
  0
XRECORD
  5
F98D
102
{ACAD_REACTORS
330
F987
102
}
330
F987
100
AcDbXrecord
280
     1
270
     1
271
     1
  0
XRECORD
  5
F98A
102
{ACAD_REACTORS
330
F987
102
}
330
F987
100
AcDbXrecord
280
     1
270
     1
271
     1
  0
CELLSTYLEMAP
  5
10136
102
{ACAD_REACTORS
330
FC4B
102
}
330
FC4B
100
AcDbCellStyleMap
 90
        3
300
CELLSTYLE
  1
TABLEFORMAT_BEGIN
 90
        5
170
     1
 91
        0
 92
    32768
 62
   257
 93
        1
300
CONTENTFORMAT
  1
CONTENTFORMAT_BEGIN
 90
        0
 91
        0
 92
      512
 93
        0
300

 40
0.0
140
1.0
 94
        5
 62
     0
340
17
144
6.0
309
CONTENTFORMAT_END
171
     1
301
MARGIN
  1
CELLMARGIN_BEGIN
 40
1.5
 40
1.5
 40
1.5
 40
1.5
 40
4.5
 40
4.5
309
CELLMARGIN_END
 94
        6
 95
        1
302
GRIDFORMAT
  1
GRIDFORMAT_BEGIN
 90
        0
 91
        1
 62
     0
 92
       -2
340
0
 93
        0
 40
1.125
309
GRIDFORMAT_END
 95
        2
302
GRIDFORMAT
  1
GRIDFORMAT_BEGIN
 90
        0
 91
        1
 62
     0
 92
       -2
340
0
 93
        0
 40
1.125
309
GRIDFORMAT_END
 95
        4
302
GRIDFORMAT
  1
GRIDFORMAT_BEGIN
 90
        0
 91
        1
 62
     0
 92
       -2
340
0
 93
        0
 40
1.125
309
GRIDFORMAT_END
 95
        8
302
GRIDFORMAT
  1
GRIDFORMAT_BEGIN
 90
        0
 91
        1
 62
     0
 92
       -2
340
0
 93
        0
 40
1.125
309
GRIDFORMAT_END
 95
       16
302
GRIDFORMAT
  1
GRIDFORMAT_BEGIN
 90
        0
 91
        1
 62
     0
 92
       -2
340
0
 93
        0
 40
1.125
309
GRIDFORMAT_END
 95
       32
302
GRIDFORMAT
  1
GRIDFORMAT_BEGIN
 90
        0
 91
        1
 62
     0
 92
       -2
340
0
 93
        0
 40
1.125
309
GRIDFORMAT_END
309
TABLEFORMAT_END
  1
CELLSTYLE_BEGIN
 90
        1
 91
        1
300
_TITLE
309
CELLSTYLE_END
300
CELLSTYLE
  1
TABLEFORMAT_BEGIN
 90
        5
170
     1
 91
        0
 92
        0
 62
   257
 93
        1
300
CONTENTFORMAT
  1
CONTENTFORMAT_BEGIN
 90
        0
 91
        0
 92
      512
 93
        0
300

 40
0.0
140
1.0
 94
        5
 62
     0
340
17
144
4.5
309
CONTENTFORMAT_END
171
     1
301
MARGIN
  1
CELLMARGIN_BEGIN
 40
1.5
 40
1.5
 40
1.5
 40
1.5
 40
4.5
 40
4.5
309
CELLMARGIN_END
 94
        6
 95
        1
302
GRIDFORMAT
  1
GRIDFORMAT_BEGIN
 90
        0
 91
        1
 62
     0
 92
       -2
340
0
 93
        0
 40
1.125
309
GRIDFORMAT_END
 95
        2
302
GRIDFORMAT
  1
GRIDFORMAT_BEGIN
 90
        0
 91
        1
 62
     0
 92
       -2
340
0
 93
        0
 40
1.125
309
GRIDFORMAT_END
 95
        4
302
GRIDFORMAT
  1
GRIDFORMAT_BEGIN
 90
        0
 91
        1
 62
     0
 92
       -2
340
0
 93
        0
 40
1.125
309
GRIDFORMAT_END
 95
        8
302
GRIDFORMAT
  1
GRIDFORMAT_BEGIN
 90
        0
 91
        1
 62
     0
 92
       -2
340
0
 93
        0
 40
1.125
309
GRIDFORMAT_END
 95
       16
302
GRIDFORMAT
  1
GRIDFORMAT_BEGIN
 90
        0
 91
        1
 62
     0
 92
       -2
340
0
 93
        0
 40
1.125
309
GRIDFORMAT_END
 95
       32
302
GRIDFORMAT
  1
GRIDFORMAT_BEGIN
 90
        0
 91
        1
 62
     0
 92
       -2
340
0
 93
        0
 40
1.125
309
GRIDFORMAT_END
309
TABLEFORMAT_END
  1
CELLSTYLE_BEGIN
 90
        2
 91
        1
300
_HEADER
309
CELLSTYLE_END
300
CELLSTYLE
  1
TABLEFORMAT_BEGIN
 90
        5
170
     1
 91
        0
 92
        0
 62
   257
 93
        1
300
CONTENTFORMAT
  1
CONTENTFORMAT_BEGIN
 90
        0
 91
        0
 92
      512
 93
        0
300

 40
0.0
140
1.0
 94
        2
 62
     0
340
17
144
4.5
309
CONTENTFORMAT_END
171
     1
301
MARGIN
  1
CELLMARGIN_BEGIN
 40
1.5
 40
1.5
 40
1.5
 40
1.5
 40
4.5
 40
4.5
309
CELLMARGIN_END
 94
        6
 95
        1
302
GRIDFORMAT
  1
GRIDFORMAT_BEGIN
 90
        0
 91
        1
 62
     0
 92
       -2
340
0
 93
        0
 40
1.125
309
GRIDFORMAT_END
 95
        2
302
GRIDFORMAT
  1
GRIDFORMAT_BEGIN
 90
        0
 91
        1
 62
     0
 92
       -2
340
0
 93
        0
 40
1.125
309
GRIDFORMAT_END
 95
        4
302
GRIDFORMAT
  1
GRIDFORMAT_BEGIN
 90
        0
 91
        1
 62
     0
 92
       -2
340
0
 93
        0
 40
1.125
309
GRIDFORMAT_END
 95
        8
302
GRIDFORMAT
  1
GRIDFORMAT_BEGIN
 90
        0
 91
        1
 62
     0
 92
       -2
340
0
 93
        0
 40
1.125
309
GRIDFORMAT_END
 95
       16
302
GRIDFORMAT
  1
GRIDFORMAT_BEGIN
 90
        0
 91
        1
 62
     0
 92
       -2
340
0
 93
        0
 40
1.125
309
GRIDFORMAT_END
 95
       32
302
GRIDFORMAT
  1
GRIDFORMAT_BEGIN
 90
        0
 91
        1
 62
     0
 92
       -2
340
0
 93
        0
 40
1.125
309
GRIDFORMAT_END
309
TABLEFORMAT_END
  1
CELLSTYLE_BEGIN
 90
        3
 91
        2
300
_DATA
309
CELLSTYLE_END
  0
XRECORD
  5
10168
102
{ACAD_REACTORS
330
FC4B
102
}
330
FC4B
100
AcDbXrecord
280
     1
102
ACAD_ROUNDTRIP_PRE2007_TABLESTYLE
 90
      512
 91
        0
  1

 92
      512
 93
        0
  2

 94
      512
 95
        0
  3

  0
XRECORD
  5
1014D
102
{ACAD_REACTORS
330
1014C
102
}
330
1014C
100
AcDbXrecord
280
     1
102
RTVSPropertyOp0
 70
     1
102
RTVSPropertyOp1
 70
     1
102
RTVSPropertyOp2
 70
     1
102
RTVSPropertyOp3
 70
     1
102
RTVSPropertyOp4
 70
     1
102
RTVSPropertyOp5
 70
     1
102
RTVSPropertyOp6
 70
     1
102
RTVSPropertyOp7
 70
     1
102
RTVSPropertyOp8
 70
     1
102
RTVSPropertyOp9
 70
     1
102
RTVSPropertyOp10
 70
     1
102
RTVSPropertyOp11
 70
     1
102
RTVSPropertyOp12
 70
     1
102
RTVSPropertyOp13
 70
     1
102
RTVSPropertyOp14
 70
     1
102
RTVSPropertyOp15
 70
     1
102
RTVSPropertyOp16
 70
     1
102
RTVSPropertyOp17
 70
     1
102
RTVSPropertyOp18
 70
     1
102
RTVSPropertyOp19
 70
     1
102
RTVSPropertyOp20
 70
     1
102
RTVSPropertyOp21
 70
     1
102
RTVSPropertyOp22
 70
     1
102
RTVSPropertyOp23
 70
     1
102
RTVSPropertyOp24
 70
     1
102
RTVSPropertyOp25
 70
     1
102
RTVSPropertyOp26
 70
     1
102
RTVSPropertyOp27
 70
     1
  0
XRECORD
  5
10151
102
{ACAD_REACTORS
330
10150
102
}
330
10150
100
AcDbXrecord
280
     1
102
RTVSPropertyOp0
 70
     1
102
RTVSPropertyOp1
 70
     1
102
RTVSPropertyOp2
 70
     1
102
RTVSPropertyOp3
 70
     1
102
RTVSPropertyOp4
 70
     1
102
RTVSPropertyOp5
 70
     1
102
RTVSPropertyOp6
 70
     1
102
RTVSPropertyOp7
 70
     1
102
RTVSPropertyOp8
 70
     1
102
RTVSPropertyOp9
 70
     1
102
RTVSPropertyOp10
 70
     1
102
RTVSPropertyOp11
 70
     1
102
RTVSPropertyOp12
 70
     1
102
RTVSPropertyOp13
 70
     1
102
RTVSPropertyOp14
 70
     1
102
RTVSPropertyOp15
 70
     1
102
RTVSPropertyOp16
 70
     1
102
RTVSPropertyOp17
 70
     1
102
RTVSPropertyOp18
 70
     1
102
RTVSPropertyOp19
 70
     1
102
RTVSPropertyOp20
 70
     1
102
RTVSPropertyOp21
 70
     1
102
RTVSPropertyOp22
 70
     1
102
RTVSPropertyOp23
 70
     1
102
RTVSPropertyOp24
 70
     1
102
RTVSPropertyOp25
 70
     1
102
RTVSPropertyOp26
 70
     1
102
RTVSPropertyOp27
 70
     1
  0
XRECORD
  5
1014F
102
{ACAD_REACTORS
330
1014E
102
}
330
1014E
100
AcDbXrecord
280
     1
102
RTVSPropertyOp0
 70
     1
102
RTVSPropertyOp1
 70
     1
102
RTVSPropertyOp2
 70
     1
102
RTVSPropertyOp3
 70
     1
102
RTVSPropertyOp4
 70
     1
102
RTVSPropertyOp5
 70
     1
102
RTVSPropertyOp6
 70
     1
102
RTVSPropertyOp7
 70
     1
102
RTVSPropertyOp8
 70
     1
102
RTVSPropertyOp9
 70
     1
102
RTVSPropertyOp10
 70
     1
102
RTVSPropertyOp11
 70
     1
102
RTVSPropertyOp12
 70
     1
102
RTVSPropertyOp13
 70
     1
102
RTVSPropertyOp14
 70
     1
102
RTVSPropertyOp15
 70
     1
102
RTVSPropertyOp16
 70
     1
102
RTVSPropertyOp17
 70
     1
102
RTVSPropertyOp18
 70
     1
102
RTVSPropertyOp19
 70
     1
102
RTVSPropertyOp20
 70
     1
102
RTVSPropertyOp21
 70
     1
102
RTVSPropertyOp22
 70
     1
102
RTVSPropertyOp23
 70
     1
102
RTVSPropertyOp24
 70
     1
102
RTVSPropertyOp25
 70
     1
102
RTVSPropertyOp26
 70
     1
102
RTVSPropertyOp27
 70
     1
  0
XRECORD
  5
1014B
102
{ACAD_REACTORS
330
1014A
102
}
330
1014A
100
AcDbXrecord
280
     1
102
RTVSPropertyOp0
 70
     1
102
RTVSPropertyOp1
 70
     1
102
RTVSPropertyOp2
 70
     1
102
RTVSPropertyOp3
 70
     1
102
RTVSPropertyOp4
 70
     1
102
RTVSPropertyOp5
 70
     1
102
RTVSPropertyOp6
 70
     1
102
RTVSPropertyOp7
 70
     1
102
RTVSPropertyOp8
 70
     1
102
RTVSPropertyOp9
 70
     1
102
RTVSPropertyOp10
 70
     1
102
RTVSPropertyOp11
 70
     1
102
RTVSPropertyOp12
 70
     1
102
RTVSPropertyOp13
 70
     1
102
RTVSPropertyOp14
 70
     1
102
RTVSPropertyOp15
 70
     1
102
RTVSPropertyOp16
 70
     1
102
RTVSPropertyOp17
 70
     1
102
RTVSPropertyOp18
 70
     1
102
RTVSPropertyOp19
 70
     1
102
RTVSPropertyOp20
 70
     1
102
RTVSPropertyOp21
 70
     1
102
RTVSPropertyOp22
 70
     1
102
RTVSPropertyOp23
 70
     1
102
RTVSPropertyOp24
 70
     1
102
RTVSPropertyOp25
 70
     1
102
RTVSPropertyOp26
 70
     1
102
RTVSPropertyOp27
 70
     1
  0
XRECORD
  5
10159
102
{ACAD_REACTORS
330
10158
102
}
330
10158
100
AcDbXrecord
280
     1
102
RTVSPropertyOp0
 70
     1
102
RTVSPropertyOp1
 70
     1
102
RTVSPropertyOp2
 70
     1
102
RTVSPropertyOp3
 70
     1
102
RTVSPropertyOp4
 70
     1
102
RTVSPropertyOp5
 70
     1
102
RTVSPropertyOp6
 70
     1
102
RTVSPropertyOp7
 70
     1
102
RTVSPropertyOp8
 70
     1
102
RTVSPropertyOp9
 70
     1
102
RTVSPropertyOp10
 70
     1
102
RTVSPropertyOp11
 70
     1
102
RTVSPropertyOp12
 70
     1
102
RTVSPropertyOp13
 70
     1
102
RTVSPropertyOp14
 70
     1
102
RTVSPropertyOp15
 70
     1
102
RTVSPropertyOp16
 70
     1
102
RTVSPropertyOp17
 70
     1
102
RTVSPropertyOp18
 70
     1
102
RTVSPropertyOp19
 70
     1
102
RTVSPropertyOp20
 70
     1
102
RTVSPropertyOp21
 70
     1
102
RTVSPropertyOp22
 70
     1
102
RTVSPropertyOp23
 70
     1
102
RTVSPropertyOp24
 70
     1
102
RTVSPropertyOp25
 70
     1
102
RTVSPropertyOp26
 70
     1
102
RTVSPropertyOp27
 70
     1
  0
XRECORD
  5
10161
102
{ACAD_REACTORS
330
10160
102
}
330
10160
100
AcDbXrecord
280
     1
102
RTVSPropertyOp0
 70
     1
102
RTVSPropertyOp1
 70
     1
102
RTVSPropertyOp2
 70
     1
102
RTVSPropertyOp3
 70
     1
102
RTVSPropertyOp4
 70
     1
102
RTVSPropertyOp5
 70
     1
102
RTVSPropertyOp6
 70
     1
102
RTVSPropertyOp7
 70
     1
102
RTVSPropertyOp8
 70
     1
102
RTVSPropertyOp9
 70
     1
102
RTVSPropertyOp10
 70
     1
102
RTVSPropertyOp11
 70
     1
102
RTVSPropertyOp12
 70
     1
102
RTVSPropertyOp13
 70
     1
102
RTVSPropertyOp14
 70
     1
102
RTVSPropertyOp15
 70
     1
102
RTVSPropertyOp16
 70
     1
102
RTVSPropertyOp17
 70
     1
102
RTVSPropertyOp18
 70
     1
102
RTVSPropertyOp19
 70
     1
102
RTVSPropertyOp20
 70
     1
102
RTVSPropertyOp21
 70
     1
102
RTVSPropertyOp22
 70
     1
102
RTVSPropertyOp23
 70
     1
102
RTVSPropertyOp24
 70
     1
102
RTVSPropertyOp25
 70
     1
102
RTVSPropertyOp26
 70
     1
102
RTVSPropertyOp27
 70
     1
  0
XRECORD
  5
10153
102
{ACAD_REACTORS
330
10152
102
}
330
10152
100
AcDbXrecord
280
     1
102
RTVSPropertyOp0
 70
     1
102
RTVSPropertyOp1
 70
     1
102
RTVSPropertyOp2
 70
     1
102
RTVSPropertyOp3
 70
     1
102
RTVSPropertyOp4
 70
     1
102
RTVSPropertyOp5
 70
     1
102
RTVSPropertyOp6
 70
     1
102
RTVSPropertyOp7
 70
     1
102
RTVSPropertyOp8
 70
     1
102
RTVSPropertyOp9
 70
     1
102
RTVSPropertyOp10
 70
     1
102
RTVSPropertyOp11
 70
     1
102
RTVSPropertyOp12
 70
     1
102
RTVSPropertyOp13
 70
     1
102
RTVSPropertyOp14
 70
     1
102
RTVSPropertyOp15
 70
     1
102
RTVSPropertyOp16
 70
     1
102
RTVSPropertyOp17
 70
     1
102
RTVSPropertyOp18
 70
     1
102
RTVSPropertyOp19
 70
     1
102
RTVSPropertyOp20
 70
     1
102
RTVSPropertyOp21
 70
     1
102
RTVSPropertyOp22
 70
     1
102
RTVSPropertyOp23
 70
     1
102
RTVSPropertyOp24
 70
     1
102
RTVSPropertyOp25
 70
     1
102
RTVSPropertyOp26
 70
     1
102
RTVSPropertyOp27
 70
     1
  0
XRECORD
  5
10157
102
{ACAD_REACTORS
330
10156
102
}
330
10156
100
AcDbXrecord
280
     1
102
RTVSPropertyOp0
 70
     1
102
RTVSPropertyOp1
 70
     1
102
RTVSPropertyOp2
 70
     1
102
RTVSPropertyOp3
 70
     1
102
RTVSPropertyOp4
 70
     1
102
RTVSPropertyOp5
 70
     1
102
RTVSPropertyOp6
 70
     1
102
RTVSPropertyOp7
 70
     1
102
RTVSPropertyOp8
 70
     1
102
RTVSPropertyOp9
 70
     1
102
RTVSPropertyOp10
 70
     1
102
RTVSPropertyOp11
 70
     1
102
RTVSPropertyOp12
 70
     1
102
RTVSPropertyOp13
 70
     1
102
RTVSPropertyOp14
 70
     1
102
RTVSPropertyOp15
 70
     1
102
RTVSPropertyOp16
 70
     1
102
RTVSPropertyOp17
 70
     1
102
RTVSPropertyOp18
 70
     1
102
RTVSPropertyOp19
 70
     1
102
RTVSPropertyOp20
 70
     1
102
RTVSPropertyOp21
 70
     1
102
RTVSPropertyOp22
 70
     1
102
RTVSPropertyOp23
 70
     1
102
RTVSPropertyOp24
 70
     1
102
RTVSPropertyOp25
 70
     1
102
RTVSPropertyOp26
 70
     1
102
RTVSPropertyOp27
 70
     1
  0
XRECORD
  5
10167
102
{ACAD_REACTORS
330
10166
102
}
330
10166
100
AcDbXrecord
280
     1
102
RTVSPropertyOp0
 70
     0
102
RTVSPropertyOp1
 70
     0
102
RTVSPropertyOp2
 70
     0
102
RTVSPropertyOp3
 70
     0
102
RTVSPropertyOp4
 70
     0
102
RTVSPropertyOp5
 70
     0
102
RTVSPropertyOp6
 70
     0
102
RTVSPropertyOp7
 70
     0
102
RTVSPropertyOp8
 70
     0
102
RTVSPropertyOp9
 70
     0
102
RTVSPropertyOp10
 70
     0
102
RTVSPropertyOp11
 70
     0
102
RTVSPropertyOp12
 70
     0
102
RTVSPropertyOp13
 70
     0
102
RTVSPropertyOp14
 70
     2
102
RTVSPropertyOp15
 70
     0
102
RTVSPropertyOp16
 70
     0
102
RTVSPropertyOp17
 70
     0
102
RTVSPropertyOp18
 70
     0
102
RTVSPropertyOp19
 70
     0
102
RTVSPropertyOp20
 70
     0
102
RTVSPropertyOp21
 70
     0
102
RTVSPropertyOp22
 70
     0
102
RTVSPropertyOp23
 70
     0
102
RTVSPropertyOp24
 70
     0
102
RTVSPropertyOp25
 70
     0
102
RTVSPropertyOp26
 70
     0
102
RTVSPropertyOp27
 70
     0
  0
XRECORD
  5
1015F
102
{ACAD_REACTORS
330
1015E
102
}
330
1015E
100
AcDbXrecord
280
     1
102
RTVSPropertyOp0
 70
     1
102
RTVSPropertyOp1
 70
     1
102
RTVSPropertyOp2
 70
     1
102
RTVSPropertyOp3
 70
     1
102
RTVSPropertyOp4
 70
     1
102
RTVSPropertyOp5
 70
     1
102
RTVSPropertyOp6
 70
     1
102
RTVSPropertyOp7
 70
     1
102
RTVSPropertyOp8
 70
     1
102
RTVSPropertyOp9
 70
     1
102
RTVSPropertyOp10
 70
     1
102
RTVSPropertyOp11
 70
     1
102
RTVSPropertyOp12
 70
     1
102
RTVSPropertyOp13
 70
     1
102
RTVSPropertyOp14
 70
     1
102
RTVSPropertyOp15
 70
     1
102
RTVSPropertyOp16
 70
     1
102
RTVSPropertyOp17
 70
     1
102
RTVSPropertyOp18
 70
     1
102
RTVSPropertyOp19
 70
     1
102
RTVSPropertyOp20
 70
     1
102
RTVSPropertyOp21
 70
     1
102
RTVSPropertyOp22
 70
     1
102
RTVSPropertyOp23
 70
     1
102
RTVSPropertyOp24
 70
     1
102
RTVSPropertyOp25
 70
     1
102
RTVSPropertyOp26
 70
     1
102
RTVSPropertyOp27
 70
     1
  0
XRECORD
  5
10143
102
{ACAD_REACTORS
330
10142
102
}
330
10142
100
AcDbXrecord
280
     1
102
RTVSPropertyOp0
 70
     1
102
RTVSPropertyOp1
 70
     1
102
RTVSPropertyOp2
 70
     1
102
RTVSPropertyOp3
 70
     1
102
RTVSPropertyOp4
 70
     1
102
RTVSPropertyOp5
 70
     1
102
RTVSPropertyOp6
 70
     1
102
RTVSPropertyOp7
 70
     1
102
RTVSPropertyOp8
 70
     1
102
RTVSPropertyOp9
 70
     1
102
RTVSPropertyOp10
 70
     1
102
RTVSPropertyOp11
 70
     1
102
RTVSPropertyOp12
 70
     1
102
RTVSPropertyOp13
 70
     1
102
RTVSPropertyOp14
 70
     1
102
RTVSPropertyOp15
 70
     1
102
RTVSPropertyOp16
 70
     1
102
RTVSPropertyOp17
 70
     1
102
RTVSPropertyOp18
 70
     1
102
RTVSPropertyOp19
 70
     1
102
RTVSPropertyOp20
 70
     1
102
RTVSPropertyOp21
 70
     1
102
RTVSPropertyOp22
 70
     1
102
RTVSPropertyOp23
 70
     1
102
RTVSPropertyOp24
 70
     1
102
RTVSPropertyOp25
 70
     1
102
RTVSPropertyOp26
 70
     1
102
RTVSPropertyOp27
 70
     1
  0
XRECORD
  5
10145
102
{ACAD_REACTORS
330
10144
102
}
330
10144
100
AcDbXrecord
280
     1
102
RTVSPropertyOp0
 70
     1
102
RTVSPropertyOp1
 70
     1
102
RTVSPropertyOp2
 70
     1
102
RTVSPropertyOp3
 70
     1
102
RTVSPropertyOp4
 70
     1
102
RTVSPropertyOp5
 70
     1
102
RTVSPropertyOp6
 70
     1
102
RTVSPropertyOp7
 70
     1
102
RTVSPropertyOp8
 70
     1
102
RTVSPropertyOp9
 70
     1
102
RTVSPropertyOp10
 70
     1
102
RTVSPropertyOp11
 70
     1
102
RTVSPropertyOp12
 70
     1
102
RTVSPropertyOp13
 70
     1
102
RTVSPropertyOp14
 70
     1
102
RTVSPropertyOp15
 70
     1
102
RTVSPropertyOp16
 70
     1
102
RTVSPropertyOp17
 70
     1
102
RTVSPropertyOp18
 70
     1
102
RTVSPropertyOp19
 70
     1
102
RTVSPropertyOp20
 70
     1
102
RTVSPropertyOp21
 70
     1
102
RTVSPropertyOp22
 70
     1
102
RTVSPropertyOp23
 70
     1
102
RTVSPropertyOp24
 70
     1
102
RTVSPropertyOp25
 70
     1
102
RTVSPropertyOp26
 70
     1
102
RTVSPropertyOp27
 70
     1
  0
XRECORD
  5
10147
102
{ACAD_REACTORS
330
10146
102
}
330
10146
100
AcDbXrecord
280
     1
102
RTVSPropertyOp0
 70
     1
102
RTVSPropertyOp1
 70
     1
102
RTVSPropertyOp2
 70
     1
102
RTVSPropertyOp3
 70
     1
102
RTVSPropertyOp4
 70
     1
102
RTVSPropertyOp5
 70
     1
102
RTVSPropertyOp6
 70
     1
102
RTVSPropertyOp7
 70
     1
102
RTVSPropertyOp8
 70
     1
102
RTVSPropertyOp9
 70
     1
102
RTVSPropertyOp10
 70
     1
102
RTVSPropertyOp11
 70
     1
102
RTVSPropertyOp12
 70
     1
102
RTVSPropertyOp13
 70
     1
102
RTVSPropertyOp14
 70
     1
102
RTVSPropertyOp15
 70
     1
102
RTVSPropertyOp16
 70
     1
102
RTVSPropertyOp17
 70
     1
102
RTVSPropertyOp18
 70
     1
102
RTVSPropertyOp19
 70
     1
102
RTVSPropertyOp20
 70
     1
102
RTVSPropertyOp21
 70
     1
102
RTVSPropertyOp22
 70
     1
102
RTVSPropertyOp23
 70
     1
102
RTVSPropertyOp24
 70
     1
102
RTVSPropertyOp25
 70
     1
102
RTVSPropertyOp26
 70
     1
102
RTVSPropertyOp27
 70
     1
  0
XRECORD
  5
10149
102
{ACAD_REACTORS
330
10148
102
}
330
10148
100
AcDbXrecord
280
     1
102
RTVSPropertyOp0
 70
     1
102
RTVSPropertyOp1
 70
     1
102
RTVSPropertyOp2
 70
     1
102
RTVSPropertyOp3
 70
     1
102
RTVSPropertyOp4
 70
     1
102
RTVSPropertyOp5
 70
     1
102
RTVSPropertyOp6
 70
     1
102
RTVSPropertyOp7
 70
     1
102
RTVSPropertyOp8
 70
     1
102
RTVSPropertyOp9
 70
     1
102
RTVSPropertyOp10
 70
     1
102
RTVSPropertyOp11
 70
     1
102
RTVSPropertyOp12
 70
     1
102
RTVSPropertyOp13
 70
     1
102
RTVSPropertyOp14
 70
     1
102
RTVSPropertyOp15
 70
     1
102
RTVSPropertyOp16
 70
     1
102
RTVSPropertyOp17
 70
     1
102
RTVSPropertyOp18
 70
     1
102
RTVSPropertyOp19
 70
     1
102
RTVSPropertyOp20
 70
     1
102
RTVSPropertyOp21
 70
     1
102
RTVSPropertyOp22
 70
     1
102
RTVSPropertyOp23
 70
     1
102
RTVSPropertyOp24
 70
     1
102
RTVSPropertyOp25
 70
     1
102
RTVSPropertyOp26
 70
     1
102
RTVSPropertyOp27
 70
     1
  0
XRECORD
  5
10163
102
{ACAD_REACTORS
330
10162
102
}
330
10162
100
AcDbXrecord
280
     1
102
RTVSPropertyOp0
 70
     0
102
RTVSPropertyOp1
 70
     0
102
RTVSPropertyOp2
 70
     0
102
RTVSPropertyOp3
 70
     0
102
RTVSPropertyOp4
 70
     0
102
RTVSPropertyOp5
 70
     0
102
RTVSPropertyOp6
 70
     0
102
RTVSPropertyOp7
 70
     0
102
RTVSPropertyOp8
 70
     0
102
RTVSPropertyOp9
 70
     0
102
RTVSPropertyOp10
 70
     0
102
RTVSPropertyOp11
 70
     0
102
RTVSPropertyOp12
 70
     0
102
RTVSPropertyOp13
 70
     0
102
RTVSPropertyOp14
 70
     2
102
RTVSPropertyOp15
 70
     0
102
RTVSPropertyOp16
 70
     0
102
RTVSPropertyOp17
 70
     0
102
RTVSPropertyOp18
 70
     0
102
RTVSPropertyOp19
 70
     0
102
RTVSPropertyOp20
 70
     0
102
RTVSPropertyOp21
 70
     0
102
RTVSPropertyOp22
 70
     0
102
RTVSPropertyOp23
 70
     0
102
RTVSPropertyOp24
 70
     0
102
RTVSPropertyOp25
 70
     0
102
RTVSPropertyOp26
 70
     0
102
RTVSPropertyOp27
 70
     0
  0
XRECORD
  5
1015D
102
{ACAD_REACTORS
330
1015C
102
}
330
1015C
100
AcDbXrecord
280
     1
102
RTVSPropertyOp0
 70
     1
102
RTVSPropertyOp1
 70
     1
102
RTVSPropertyOp2
 70
     1
102
RTVSPropertyOp3
 70
     1
102
RTVSPropertyOp4
 70
     1
102
RTVSPropertyOp5
 70
     1
102
RTVSPropertyOp6
 70
     1
102
RTVSPropertyOp7
 70
     1
102
RTVSPropertyOp8
 70
     1
102
RTVSPropertyOp9
 70
     1
102
RTVSPropertyOp10
 70
     1
102
RTVSPropertyOp11
 70
     1
102
RTVSPropertyOp12
 70
     1
102
RTVSPropertyOp13
 70
     1
102
RTVSPropertyOp14
 70
     1
102
RTVSPropertyOp15
 70
     1
102
RTVSPropertyOp16
 70
     1
102
RTVSPropertyOp17
 70
     1
102
RTVSPropertyOp18
 70
     1
102
RTVSPropertyOp19
 70
     1
102
RTVSPropertyOp20
 70
     1
102
RTVSPropertyOp21
 70
     1
102
RTVSPropertyOp22
 70
     1
102
RTVSPropertyOp23
 70
     1
102
RTVSPropertyOp24
 70
     1
102
RTVSPropertyOp25
 70
     1
102
RTVSPropertyOp26
 70
     1
102
RTVSPropertyOp27
 70
     1
  0
XRECORD
  5
10165
102
{ACAD_REACTORS
330
10164
102
}
330
10164
100
AcDbXrecord
280
     1
102
RTVSPropertyOp0
 70
     0
102
RTVSPropertyOp1
 70
     0
102
RTVSPropertyOp2
 70
     0
102
RTVSPropertyOp3
 70
     0
102
RTVSPropertyOp4
 70
     0
102
RTVSPropertyOp5
 70
     0
102
RTVSPropertyOp6
 70
     0
102
RTVSPropertyOp7
 70
     0
102
RTVSPropertyOp8
 70
     0
102
RTVSPropertyOp9
 70
     0
102
RTVSPropertyOp10
 70
     0
102
RTVSPropertyOp11
 70
     0
102
RTVSPropertyOp12
 70
     0
102
RTVSPropertyOp13
 70
     0
102
RTVSPropertyOp14
 70
     2
102
RTVSPropertyOp15
 70
     0
102
RTVSPropertyOp16
 70
     0
102
RTVSPropertyOp17
 70
     0
102
RTVSPropertyOp18
 70
     0
102
RTVSPropertyOp19
 70
     0
102
RTVSPropertyOp20
 70
     0
102
RTVSPropertyOp21
 70
     0
102
RTVSPropertyOp22
 70
     0
102
RTVSPropertyOp23
 70
     0
102
RTVSPropertyOp24
 70
     0
102
RTVSPropertyOp25
 70
     0
102
RTVSPropertyOp26
 70
     0
102
RTVSPropertyOp27
 70
     0
  0
XRECORD
  5
10155
102
{ACAD_REACTORS
330
10154
102
}
330
10154
100
AcDbXrecord
280
     1
102
RTVSPropertyOp0
 70
     1
102
RTVSPropertyOp1
 70
     1
102
RTVSPropertyOp2
 70
     1
102
RTVSPropertyOp3
 70
     1
102
RTVSPropertyOp4
 70
     1
102
RTVSPropertyOp5
 70
     1
102
RTVSPropertyOp6
 70
     1
102
RTVSPropertyOp7
 70
     1
102
RTVSPropertyOp8
 70
     1
102
RTVSPropertyOp9
 70
     1
102
RTVSPropertyOp10
 70
     1
102
RTVSPropertyOp11
 70
     1
102
RTVSPropertyOp12
 70
     1
102
RTVSPropertyOp13
 70
     1
102
RTVSPropertyOp14
 70
     1
102
RTVSPropertyOp15
 70
     1
102
RTVSPropertyOp16
 70
     1
102
RTVSPropertyOp17
 70
     1
102
RTVSPropertyOp18
 70
     1
102
RTVSPropertyOp19
 70
     1
102
RTVSPropertyOp20
 70
     1
102
RTVSPropertyOp21
 70
     1
102
RTVSPropertyOp22
 70
     1
102
RTVSPropertyOp23
 70
     1
102
RTVSPropertyOp24
 70
     1
102
RTVSPropertyOp25
 70
     1
102
RTVSPropertyOp26
 70
     1
102
RTVSPropertyOp27
 70
     1
  0
XRECORD
  5
1015B
102
{ACAD_REACTORS
330
1015A
102
}
330
1015A
100
AcDbXrecord
280
     1
102
RTVSPropertyOp0
 70
     1
102
RTVSPropertyOp1
 70
     1
102
RTVSPropertyOp2
 70
     1
102
RTVSPropertyOp3
 70
     1
102
RTVSPropertyOp4
 70
     1
102
RTVSPropertyOp5
 70
     1
102
RTVSPropertyOp6
 70
     1
102
RTVSPropertyOp7
 70
     1
102
RTVSPropertyOp8
 70
     1
102
RTVSPropertyOp9
 70
     1
102
RTVSPropertyOp10
 70
     1
102
RTVSPropertyOp11
 70
     1
102
RTVSPropertyOp12
 70
     1
102
RTVSPropertyOp13
 70
     1
102
RTVSPropertyOp14
 70
     1
102
RTVSPropertyOp15
 70
     1
102
RTVSPropertyOp16
 70
     1
102
RTVSPropertyOp17
 70
     1
102
RTVSPropertyOp18
 70
     1
102
RTVSPropertyOp19
 70
     1
102
RTVSPropertyOp20
 70
     1
102
RTVSPropertyOp21
 70
     1
102
RTVSPropertyOp22
 70
     1
102
RTVSPropertyOp23
 70
     1
102
RTVSPropertyOp24
 70
     1
102
RTVSPropertyOp25
 70
     1
102
RTVSPropertyOp26
 70
     1
102
RTVSPropertyOp27
 70
     1
  0
ENDSEC
  0
EOF
