999
DXF file: D:\PTC\wf5_pro_stds_KDH\format\Output_dxf\dodaam_a2.dxf
999
Pro/ENGINEER 2010370 by Parametric Technology Corporation
  0
SECTION
  2
HEADER
  9
$ACADVER
  1
AC1015
  9
$DWGCODEPAGE
  3
ANSI_949
  9
$EXTMAX
 10
594.0
 20
420.0
 30
0.0
  9
$EXTMIN
 10
0.0
 20
0.0
 30
0.0
  9
$LIMMIN
 10
0.0
 20
0.0
  9
$LIMMAX
 10
594.0
 20
420.0
  9
$VIEWCTR
 10
297.0
 20
210.0
  9
$VIEWSIZE
 40
420.0
  9
$CLAYER
  8
0
  9
$LTSCALE
 40
32.67
  9
$CELTYPE
  6
BYLAYER
  9
$DIMSCALE
 40
1.0
  9
$DIMASZ
 40
3.5
  9
$DIMEXO
 40
3.7125
  9
$DIMDLI
 40
22.572
  9
$DIMEXE
 40
10.692
  9
$DIMCEN
 40
5.346
  9
$DIMLFAC
 40
1.0
  9
$DIMBLK
  1
_FILLED
  9
$DIMTXT
 40
3.2
  9
$DIMTOL
 70
0
  9
$DIMLIM
 70
0
  9
$DIMTFAC
 40
1.0
  9
$PDMODE
 70
3
  9
$PDSIZE
 40
0.3125
  9
$HANDSEED
  5
4A3
  9
$TILEMODE
 70
1
  9
$MEASUREMENT
 70
1
  9
$INSUNITS
 70
4
  0
ENDSEC
  0
SECTION
  2
CLASSES
  0
CLASS
  1
ACDBDICTIONARYWDFLT
  2
AcDbDictionaryWithDefault
  3
AutoCAD 2000
 90
0
280
0
281
0
  0
CLASS
  1
ACDBPLACEHOLDER
  2
AcDbPlaceHolder
  3
AutoCAD 2000
 90
0
280
0
281
0
  0
CLASS
  1
LAYOUT
  2
AcDbLayout
  3
AutoCAD 2000
 90
0
280
0
281
0
  0
ENDSEC
  0
SECTION
  2
TABLES
  0
TABLE
  2
VPORT
  5
8
100
AcDbSymbolTable
 70
2
  0
VPORT
  5
1F4
100
AcDbSymbolTableRecord
100
AcDbViewportTableRecord
  2
*ACTIVE
 70
0
 10
0.0
 20
0.0
 11
1.0
 21
1.0
 12
297.0
 22
210.0
 13
0.0
 23
0.0
 14
1.0
 24
1.0
 15
0.0
 25
0.0
 16
0.0
 26
0.0
 36
1.0
 17
0.0
 27
0.0
 37
0.0
 40
420.0
 41
1.4142857143
 42
50.0
 43
0.0
 44
0.0
 50
0.0
 51
0.0
 71
0
 72
100
 73
1
 74
1
 75
0
 76
0
 77
0
 78
0
  0
ENDTAB
  0
TABLE
  2
LTYPE
  5
5
100
AcDbSymbolTable
 70
6
  0
LTYPE
  5
14
100
AcDbSymbolTableRecord
100
AcDbLinetypeTableRecord
  2
BYBLOCK
 70
0
  3

 72
65
 73
0
 40
0.0
  0
LTYPE
  5
15
100
AcDbSymbolTableRecord
100
AcDbLinetypeTableRecord
  2
BYLAYER
 70
0
  3

 72
65
 73
0
 40
0.0
  0
LTYPE
  5
16
100
AcDbSymbolTableRecord
100
AcDbLinetypeTableRecord
  2
CONTINUOUS
 70
64
  3
Solid line
 72
65
 73
0
 40
0.0
  0
LTYPE
  5
1F5
100
AcDbSymbolTableRecord
100
AcDbLinetypeTableRecord
  2
CENTER
 70
64
  3
____ _ ____ _ ____ _ ____ _ ____ _ ____ _ ____
 72
65
 73
4
 40
0.6
 49
0.375
 74
0
 49
-0.075
 74
0
 49
0.075
 74
0
 49
-0.075
 74
0
  0
LTYPE
  5
1F6
100
AcDbSymbolTableRecord
100
AcDbLinetypeTableRecord
  2
HIDDEN
 70
64
  3
- - - - - - - - - - - - - - - - - - - -
 72
65
 73
2
 40
0.2
 49
0.1
 74
0
 49
-0.1
 74
0
  0
LTYPE
  5
1F7
100
AcDbSymbolTableRecord
100
AcDbLinetypeTableRecord
  2
PHANTOM
 70
64
  3
_____ _ _ _____ _ _ _____ _ _ _____
 72
65
 73
6
 40
0.8
 49
0.45
 74
0
 49
-0.05
 74
0
 49
0.1
 74
0
 49
-0.05
 74
0
 49
0.1
 74
0
 49
-0.05
 74
0
  0
LTYPE
  5
1F8
100
AcDbSymbolTableRecord
100
AcDbLinetypeTableRecord
  2
DOT
 70
64
  3
. . . . . . . . . . . . . . . . . . . .
 72
65
 73
2
 40
0.2
 49
0.1
 74
0
 49
-0.1
 74
0
  0
LTYPE
  5
1F9
100
AcDbSymbolTableRecord
100
AcDbLinetypeTableRecord
  2
DASHED
 70
64
  3
- - - - - - - - - - - - - - - - - - - -
 72
65
 73
2
 40
0.2
 49
0.1
 74
0
 49
-0.1
 74
0
  0
ENDTAB
  0
TABLE
  2
LAYER
  5
2
100
AcDbSymbolTable
 70
36
  0
LAYER
  5
10
100
AcDbSymbolTableRecord
100
AcDbLayerTableRecord
  2
0
 70
0
 62
7
  6
CONTINUOUS
370
-3
390
F
  0
LAYER
  5
1FA
100
AcDbSymbolTableRecord
100
AcDbLayerTableRecord
  2
DEFAULT_1
 70
0
 62
7
  6
CENTER
370
-3
390
F
  0
LAYER
  5
1FB
100
AcDbSymbolTableRecord
100
AcDbLayerTableRecord
  2
DEFAULT_2
 70
0
 62
7
  6
HIDDEN
370
-3
390
F
  0
LAYER
  5
1FC
100
AcDbSymbolTableRecord
100
AcDbLayerTableRecord
  2
DEFAULT_3
 70
0
 62
7
  6
PHANTOM
370
-3
390
F
  0
LAYER
  5
1FD
100
AcDbSymbolTableRecord
100
AcDbLayerTableRecord
  2
FRAME
 70
0
 62
7
  6
CONTINUOUS
370
-3
390
F
  0
ENDTAB
  0
TABLE
  2
STYLE
  5
3
100
AcDbSymbolTable
 70
1
  0
STYLE
  5
11
100
AcDbSymbolTableRecord
100
AcDbTextStyleTableRecord
  2
STANDARD
 70
0
 40
0.0
 41
1.0
 50
0.0
 71
0
 42
0.2
  3
arialuni.ttf
  4

  0
STYLE
  5
1FE
100
AcDbSymbolTableRecord
100
AcDbTextStyleTableRecord
  2
TEXTSTYLE_1
 70
0
 40
0.0
 41
0.8
 50
0.0
 71
0
 42
0.2
  3
gdt
  4

  0
STYLE
  5
1FF
100
AcDbSymbolTableRecord
100
AcDbTextStyleTableRecord
  2
TEXTSTYLE_2
 70
0
 40
0.0
 41
1.0
 50
0.0
 71
0
 42
0.2
  3
arialuni.ttf
  4

  0
ENDTAB
  0
TABLE
  2
VIEW
  5
6
100
AcDbSymbolTable
 70
0
  0
ENDTAB
  0
TABLE
  2
UCS
  5
7
100
AcDbSymbolTable
 70
0
  0
ENDTAB
  0
TABLE
  2
APPID
  5
9
100
AcDbSymbolTable
 70
1
  0
APPID
  5
200
100
AcDbSymbolTableRecord
100
AcDbRegAppTableRecord
  2
ACAD
 70
0
  0
ENDTAB
  0
TABLE
  2
BLOCK_RECORD
  5
1
100
AcDbSymbolTable
 70
0
  0
BLOCK_RECORD
  5
201
100
AcDbSymbolTableRecord
100
AcDbBlockTableRecord
  2
*Model_Space
  0
BLOCK_RECORD
  5
202
100
AcDbSymbolTableRecord
100
AcDbBlockTableRecord
  2
*Paper_Space
  0
ENDTAB
  0
TABLE
  2
DIMSTYLE
  5
A
100
AcDbSymbolTable
 70
1
100
AcDbDimStyleTable
 71
0
  0
DIMSTYLE
105
203
100
AcDbSymbolTableRecord
100
AcDbDimStyleTableRecord
  2
STANDARD
 70
0
  3

  4

 40
1.0
 41
3.5
 42
0.0625
 43
0.38
 44
0.18
 45
0.0
 46
0.0
 47
0.01
 48
0.01
140
3.2
141
0.09
142
0.0
143
25.4
144
1.0
145
0.0
146
1.0
147
0.09
 71
0.0
 72
0.0
 73
1
 74
1
 75
0
 76
0
 77
0
 78
8
170
0
171
2
172
0
173
0
174
0
175
0
176
0
177
0
178
0
270
2
271
2
272
2
273
2
274
2
275
0
280
0
281
0
282
0
283
1
284
8
285
0
286
0
287
3
288
0
340
11
  0
ENDTAB
  0
ENDSEC
  0
SECTION
  2
BLOCKS
  0
BLOCK
  5
20
100
AcDbEntity
  8
0
100
AcDbBlockBegin
  2
*Model_Space
 70
0
 10
0.0
 20
0.0
 30
0.0
  3
*Model_Space
  1

  0
ENDBLK
  5
21
100
AcDbEntity
  8
0
100
AcDbBlockEnd
  0
BLOCK
  5
1C
100
AcDbEntity
  8
0
100
AcDbBlockBegin
  2
*Paper_Space
 70
0
 10
0.0
 20
0.0
 30
0.0
  3
*Paper_Space
  1

  0
ENDBLK
  5
1D
100
AcDbEntity
  8
0
100
AcDbBlockEnd
  0
ENDSEC
  0
SECTION
  2
ENTITIES
  0
SPLINE
  5
204
100
AcDbEntity
  8
FRAME
100
AcDbSpline
 62
7
  6
BYLAYER
 70
2
 71
3
 72
38
 73
34
 74
0
 42
0.0000001
 43
0.0000001
 44
0.0000000001
 40
0.0
 40
0.0
 40
0.0
 40
0.0
 40
0.3937162255
 40
0.3937162255
 40
0.7874324511
 40
0.7874324511
 40
1.1811486766
 40
1.1811486766
 40
1.5748649022
 40
1.5748649022
 40
1.9685811277
 40
1.9685811277
 40
2.3622973532
 40
2.3622973532
 40
2.7560135788
 40
2.7560135788
 40
3.1497298043
 40
3.1497298043
 40
3.5434460299
 40
3.5434460299
 40
3.9371622554
 40
3.9371622554
 40
4.330878481
 40
4.330878481
 40
4.7245947065
 40
4.7245947065
 40
5.118310932
 40
5.118310932
 40
5.5120271576
 40
5.5120271576
 40
5.9057433831
 40
5.9057433831
 40
6.2831853072
 40
6.2831853072
 40
6.2831853072
 40
6.2831853072
 10
507.8379175886
 20
59.0374840988
 30
0.0
 10
507.9674096525
 20
59.0374840988
 30
0.0
 10
508.0973066535
 20
59.0651068192
 30
0.0
 10
508.3494431915
 20
59.1798209193
 30
0.0
 10
508.4716819836
 20
59.2676645258
 30
0.0
 10
508.6855565969
 20
59.5028631317
 30
0.0
 10
508.7765261684
 20
59.6503557394
 30
0.0
 10
508.9013428291
 20
59.9832578753
 30
0.0
 10
508.9347760475
 20
60.1682418661
 30
0.0
 10
508.9334011985
 20
60.5383416024
 30
0.0
 10
508.8985973438
 20
60.7229050481
 30
0.0
 10
508.7714606786
 20
61.0542950085
 30
0.0
 10
508.6795503875
 20
61.2007022955
 30
0.0
 10
508.4643873359
 20
61.4334981408
 30
0.0
 10
508.3417989075
 20
61.5200408534
 30
0.0
 10
508.0893067074
 20
61.6322870535
 30
0.0
 10
507.9593798092
 20
61.6587439869
 30
0.0
 10
507.7003977058
 20
61.656435857
 30
0.0
 10
507.5705330938
 20
61.6276443952
 30
0.0
 10
507.3187656526
 20
61.5104582684
 30
0.0
 10
507.1968872718
 20
61.4213133372
 30
0.0
 10
506.9843242491
 20
61.1837214172
 30
0.0
 10
506.8943073291
 20
61.0351532598
 30
0.0
 10
506.7718274197
 20
60.700765716
 30
0.0
 10
506.7397696193
 20
60.5153779782
 30
0.0
 10
506.7438939737
 20
60.1453118506
 30
0.0
 10
506.78006349
 20
59.9611856709
 30
0.0
 10
506.9095031373
 20
59.631334375
 30
0.0
 10
507.0023421375
 20
59.4860219749
 30
0.0
 10
507.2187705208
 20
59.2556379478
 30
0.0
 10
507.3416979434
 20
59.1703955261
 30
0.0
 10
507.5893071943
 20
59.0628819359
 30
0.0
 10
507.7137780928
 20
59.0374840988
 30
0.0
 10
507.8379175886
 20
59.0374840988
 30
0.0
  0
LINE
  5
205
100
AcDbEntity
  8
0
100
AcDbLine
 62
7
  6
BYLAYER
 10
576.6000000726
 20
17.4000003495
 11
496.6000000726
 21
17.4000003495
  0
LINE
  5
206
100
AcDbEntity
  8
0
100
AcDbLine
 62
7
  6
BYLAYER
 10
576.6000000726
 20
17.4000003495
 11
576.6000000726
 21
67.4000003495
  0
LINE
  5
207
100
AcDbEntity
  8
0
100
AcDbLine
 62
7
  6
BYLAYER
 10
576.6000000726
 20
24.4000003495
 11
511.6000000726
 21
24.4000003495
  0
LINE
  5
208
100
AcDbEntity
  8
0
100
AcDbLine
 62
7
  6
BYLAYER
 10
576.6000000726
 20
34.4000003495
 11
496.6000000726
 21
34.4000003495
  0
LINE
  5
209
100
AcDbEntity
  8
0
100
AcDbLine
 62
7
  6
BYLAYER
 10
576.6000000726
 20
54.4000003495
 11
496.6000000726
 21
54.4000003495
  0
LINE
  5
20A
100
AcDbEntity
  8
0
100
AcDbLine
 62
7
  6
BYLAYER
 10
576.6000000726
 20
67.4000003495
 11
496.6000000726
 21
67.4000003495
  0
LINE
  5
20B
100
AcDbEntity
  8
0
100
AcDbLine
 62
7
  6
BYLAYER
 10
511.6000000726
 20
17.4000003495
 11
511.6000000726
 21
34.4000003495
  0
LINE
  5
20C
100
AcDbEntity
  8
0
100
AcDbLine
 62
7
  6
BYLAYER
 10
496.6000000726
 20
17.4000003495
 11
496.6000000726
 21
67.4000003495
  0
MTEXT
  5
20D
100
AcDbEntity
  8
0
100
AcDbMText
 62
7
  6
BYLAYER
  7
TEXTSTYLE_2
 71
2
 72
1
 10
544.1000000726
 20
22.1500003495
 30
0.0
 11
1.0
 21
0.0
 31
0.0
 44
0.9
  1
&total_sheets 장중 &current_sheet 번째
 40
2.5
 41
61.4925373134
  0
MTEXT
  5
20E
100
AcDbEntity
  8
0
100
AcDbMText
 62
7
  6
BYLAYER
  7
TEXTSTYLE_2
 71
2
 72
1
 10
504.1000000726
 20
28.4000003495
 30
0.0
 11
1.0
 21
0.0
 31
0.0
 44
0.9
  1
&format
 40
5.0
 41
24.4962686567
  0
MTEXT
  5
20F
100
AcDbEntity
  8
0
100
AcDbMText
 62
7
  6
BYLAYER
  7
TEXTSTYLE_2
 71
2
 72
1
 10
544.1000000726
 20
31.1500003495
 30
0.0
 11
1.0
 21
0.0
 31
0.0
 44
0.9
  1
&NUMBER
 40
3.5
 41
24.4869402985
  0
MTEXT
  5
210
100
AcDbEntity
  8
0
100
AcDbMText
 62
7
  6
BYLAYER
  7
TEXTSTYLE_2
 71
2
 72
1
 10
536.6000000726
 20
46.1500003495
 30
0.0
 11
1.0
 21
0.0
 31
0.0
 44
0.9
  1
&NAME
 40
3.5
 41
17.4085820896
  0
MTEXT
  5
211
100
AcDbEntity
  8
0
100
AcDbMText
 62
7
  6
BYLAYER
  7
TEXTSTYLE_2
 71
3
 72
1
 10
576.5375000726
 20
62.6500003495
 30
0.0
 11
1.0
 21
0.0
 31
0.0
 44
0.9
  1
(주)도담시스템스  
 40
3.5
 41
40.2630597015
  0
LINE
  5
212
100
AcDbEntity
  8
0
100
AcDbLine
 62
7
  6
BYLAYER
 10
496.6000000726
 20
17.4000003495
 11
436.6000000726
 21
17.4000003495
  0
LINE
  5
213
100
AcDbEntity
  8
0
100
AcDbLine
 62
7
  6
BYLAYER
 10
496.6000000726
 20
17.4000003495
 11
496.6000000726
 21
67.4000003495
  0
LINE
  5
214
100
AcDbEntity
  8
0
100
AcDbLine
 62
7
  6
BYLAYER
 10
496.6000000726
 20
24.4000003495
 11
436.6000000726
 21
24.4000003495
  0
LINE
  5
215
100
AcDbEntity
  8
0
100
AcDbLine
 62
7
  6
BYLAYER
 10
496.6000000726
 20
34.4000003495
 11
436.6000000726
 21
34.4000003495
  0
LINE
  5
216
100
AcDbEntity
  8
0
100
AcDbLine
 62
7
  6
BYLAYER
 10
496.6000000726
 20
39.4000003495
 11
436.6000000726
 21
39.4000003495
  0
LINE
  5
217
100
AcDbEntity
  8
0
100
AcDbLine
 62
7
  6
BYLAYER
 10
496.6000000726
 20
44.4000003495
 11
436.6000000726
 21
44.4000003495
  0
LINE
  5
218
100
AcDbEntity
  8
0
100
AcDbLine
 62
7
  6
BYLAYER
 10
496.6000000726
 20
49.4000003495
 11
436.6000000726
 21
49.4000003495
  0
LINE
  5
219
100
AcDbEntity
  8
0
100
AcDbLine
 62
7
  6
BYLAYER
 10
496.6000000726
 20
60.9000003495
 11
436.6000000726
 21
60.9000003495
  0
LINE
  5
21A
100
AcDbEntity
  8
0
100
AcDbLine
 62
7
  6
BYLAYER
 10
496.6000000726
 20
67.4000003495
 11
436.6000000726
 21
67.4000003495
  0
LINE
  5
21B
100
AcDbEntity
  8
0
100
AcDbLine
 62
7
  6
BYLAYER
 10
476.6000000726
 20
17.4000003495
 11
476.6000000726
 21
24.4000003495
  0
LINE
  5
21C
100
AcDbEntity
  8
0
100
AcDbLine
 62
7
  6
BYLAYER
 10
466.6000000726
 20
34.4000003495
 11
466.6000000726
 21
49.4000003495
  0
LINE
  5
21D
100
AcDbEntity
  8
0
100
AcDbLine
 62
7
  6
BYLAYER
 10
456.6000000726
 20
17.4000003495
 11
456.6000000726
 21
24.4000003495
  0
LINE
  5
21E
100
AcDbEntity
  8
0
100
AcDbLine
 62
7
  6
BYLAYER
 10
436.6000000726
 20
17.4000003495
 11
436.6000000726
 21
67.4000003495
  0
MTEXT
  5
21F
100
AcDbEntity
  8
0
100
AcDbMText
 62
7
  6
BYLAYER
  7
TEXTSTYLE_2
 71
3
 72
1
 10
496.5375000726
 20
22.1500003495
 30
0.0
 11
1.0
 21
0.0
 31
0.0
 44
0.9
  1
kg
 40
2.5
 41
3.703358209
  0
MTEXT
  5
220
100
AcDbEntity
  8
0
100
AcDbMText
 62
7
  6
BYLAYER
  7
TEXTSTYLE_2
 71
3
 72
1
 10
476.5375000726
 20
22.1500003495
 30
0.0
 11
1.0
 21
0.0
 31
0.0
 44
0.9
  1
mm
 40
2.5
 41
5.8208955224
  0
MTEXT
  5
221
100
AcDbEntity
  8
0
100
AcDbMText
 62
7
  6
BYLAYER
  7
TEXTSTYLE_2
 71
3
 72
1
 10
456.5375000726
 20
22.1500003495
 30
0.0
 11
1.0
 21
0.0
 31
0.0
 44
0.9
  1
&scale
 40
2.5
 41
10.5130597015
  0
MTEXT
  5
222
100
AcDbEntity
  8
0
100
AcDbMText
 62
7
  6
BYLAYER
  7
TEXTSTYLE_2
 71
2
 72
1
 10
466.6000000726
 20
30.6500003495
 30
0.0
 11
1.0
 21
0.0
 31
0.0
 44
0.9
  1
로봇경계사업부
 40
2.5
 41
24.4869402985
  0
MTEXT
  5
223
100
AcDbEntity
  8
0
100
AcDbMText
 62
7
  6
BYLAYER
  7
TEXTSTYLE_2
 71
3
 72
1
 10
496.5375000726
 20
38.1500003495
 30
0.0
 11
1.0
 21
0.0
 31
0.0
 44
0.9
  1
-
 40
2.5
 41
1.1660447761
  0
MTEXT
  5
224
100
AcDbEntity
  8
0
100
AcDbMText
 62
7
  6
BYLAYER
  7
TEXTSTYLE_2
 71
3
 72
1
 10
466.5375000726
 20
38.1500003495
 30
0.0
 11
1.0
 21
0.0
 31
0.0
 44
0.9
  1
&DESIGNER
 40
2.5
 41
20.6063432836
  0
MTEXT
  5
225
100
AcDbEntity
  8
0
100
AcDbMText
 62
7
  6
BYLAYER
  7
TEXTSTYLE_2
 71
3
 72
1
 10
496.5375000726
 20
43.1500003495
 30
0.0
 11
1.0
 21
0.0
 31
0.0
 44
0.9
  1
-
 40
2.5
 41
1.1660447761
  0
MTEXT
  5
226
100
AcDbEntity
  8
0
100
AcDbMText
 62
7
  6
BYLAYER
  7
TEXTSTYLE_2
 71
3
 72
1
 10
466.5375000726
 20
43.1500003495
 30
0.0
 11
1.0
 21
0.0
 31
0.0
 44
0.9
  1
&DESIGNER
 40
2.5
 41
20.6063432836
  0
MTEXT
  5
227
100
AcDbEntity
  8
0
100
AcDbMText
 62
7
  6
BYLAYER
  7
TEXTSTYLE_2
 71
3
 72
1
 10
496.5375000726
 20
48.1500003495
 30
0.0
 11
1.0
 21
0.0
 31
0.0
 44
0.9
  1
-
 40
2.5
 41
1.1660447761
  0
MTEXT
  5
228
100
AcDbEntity
  8
0
100
AcDbMText
 62
7
  6
BYLAYER
  7
TEXTSTYLE_2
 71
3
 72
1
 10
466.5375000726
 20
48.1500003495
 30
0.0
 11
1.0
 21
0.0
 31
0.0
 44
0.9
  1
&CHECKER
 40
2.5
 41
19.4402985075
  0
MTEXT
  5
229
100
AcDbEntity
  8
0
100
AcDbMText
 62
7
  6
BYLAYER
  7
TEXTSTYLE_2
 71
2
 72
1
 10
466.6000000726
 20
56.4000003495
 30
0.0
 11
1.0
 21
0.0
 31
0.0
 44
0.9
  1
-
 40
2.5
 41
1.1660447761
  0
MTEXT
  5
22A
100
AcDbEntity
  8
0
100
AcDbMText
 62
7
  6
BYLAYER
  7
TEXTSTYLE_2
 71
2
 72
1
 10
466.6000000726
 20
65.4000003495
 30
0.0
 11
1.0
 21
0.0
 31
0.0
 44
0.9
  1
&todays_date
 40
2.5
 41
21.2313432836
  0
LINE
  5
22B
100
AcDbEntity
  8
0
100
AcDbLine
 62
7
  6
BYLAYER
 10
436.6000000726
 20
17.4000003495
 11
381.6000000726
 21
17.4000003495
  0
LINE
  5
22C
100
AcDbEntity
  8
0
100
AcDbLine
 62
7
  6
BYLAYER
 10
436.6000000726
 20
17.4000003495
 11
436.6000000726
 21
81.4000003495
  0
LINE
  5
22D
100
AcDbEntity
  8
0
100
AcDbLine
 62
7
  6
BYLAYER
 10
436.6000000726
 20
27.4000003495
 11
381.6000000726
 21
27.4000003495
  0
LINE
  5
22E
100
AcDbEntity
  8
0
100
AcDbLine
 62
7
  6
BYLAYER
 10
436.6000000726
 20
37.4000003495
 11
381.6000000726
 21
37.4000003495
  0
LINE
  5
22F
100
AcDbEntity
  8
0
100
AcDbLine
 62
7
  6
BYLAYER
 10
436.6000000726
 20
47.4000003495
 11
381.6000000726
 21
47.4000003495
  0
LINE
  5
230
100
AcDbEntity
  8
0
100
AcDbLine
 62
7
  6
BYLAYER
 10
436.6000000726
 20
67.4000003495
 11
381.6000000726
 21
67.4000003495
  0
LINE
  5
231
100
AcDbEntity
  8
0
100
AcDbLine
 62
7
  6
BYLAYER
 10
436.6000000726
 20
81.4000003495
 11
381.6000000726
 21
81.4000003495
  0
LINE
  5
232
100
AcDbEntity
  8
0
100
AcDbLine
 62
7
  6
BYLAYER
 10
381.6000000726
 20
17.4000003495
 11
381.6000000726
 21
81.4000003495
  0
MTEXT
  5
233
100
AcDbEntity
  8
0
100
AcDbMText
 62
7
  6
BYLAYER
  7
TEXTSTYLE_2
 71
2
 72
1
 10
409.1000000726
 20
23.6500003495
 30
0.0
 11
1.0
 21
0.0
 31
0.0
 44
0.9
  1
-
 40
2.5
 41
1.1660447761
  0
MTEXT
  5
234
100
AcDbEntity
  8
0
100
AcDbMText
 62
7
  6
BYLAYER
  7
TEXTSTYLE_2
 71
2
 72
1
 10
409.1000000726
 20
33.6500003495
 30
0.0
 11
1.0
 21
0.0
 31
0.0
 44
0.9
  1
-
 40
2.5
 41
1.1660447761
  0
MTEXT
  5
235
100
AcDbEntity
  8
0
100
AcDbMText
 62
7
  6
BYLAYER
  7
TEXTSTYLE_2
 71
2
 72
1
 10
409.1000000726
 20
43.6500003495
 30
0.0
 11
1.0
 21
0.0
 31
0.0
 44
0.9
  1
&MATERIAL
 40
2.5
 41
19.822761194
  0
MTEXT
  5
236
100
AcDbEntity
  8
0
100
AcDbMText
 62
7
  6
BYLAYER
  7
TEXTSTYLE_2
 71
2
 72
1
 10
409.1000000726
 20
75.6500003495
 30
0.0
 11
1.0
 21
0.0
 31
0.0
 44
0.9
  1
-
 40
2.5
 41
1.1660447761
  0
LINE
  5
237
100
AcDbEntity
  8
0
100
AcDbLine
 62
7
  6
BYLAYER
 10
576.6000000726
 20
67.4000003495
 11
436.6000000726
 21
67.4000003495
  0
LINE
  5
238
100
AcDbEntity
  8
0
100
AcDbLine
 62
7
  6
BYLAYER
 10
576.6000000726
 20
67.4000003495
 11
576.6000000726
 21
86.4000003495
  0
LINE
  5
239
100
AcDbEntity
  8
0
100
AcDbLine
 62
7
  6
BYLAYER
 10
576.6000000726
 20
76.4000003495
 11
436.6000000726
 21
76.4000003495
  0
LINE
  5
23A
100
AcDbEntity
  8
0
100
AcDbLine
 62
7
  6
BYLAYER
 10
576.6000000726
 20
81.4000003495
 11
436.6000000726
 21
81.4000003495
  0
LINE
  5
23B
100
AcDbEntity
  8
0
100
AcDbLine
 62
7
  6
BYLAYER
 10
576.6000000726
 20
86.4000003495
 11
436.6000000726
 21
86.4000003495
  0
LINE
  5
23C
100
AcDbEntity
  8
0
100
AcDbLine
 62
7
  6
BYLAYER
 10
548.1000000726
 20
76.4000003495
 11
548.1000000726
 21
86.4000003495
  0
LINE
  5
23D
100
AcDbEntity
  8
0
100
AcDbLine
 62
7
  6
BYLAYER
 10
519.6000000726
 20
76.4000003495
 11
519.6000000726
 21
86.4000003495
  0
LINE
  5
23E
100
AcDbEntity
  8
0
100
AcDbLine
 62
7
  6
BYLAYER
 10
509.6000000726
 20
76.4000003495
 11
509.6000000726
 21
86.4000003495
  0
LINE
  5
23F
100
AcDbEntity
  8
0
100
AcDbLine
 62
7
  6
BYLAYER
 10
446.6000000726
 20
76.4000003495
 11
446.6000000726
 21
86.4000003495
  0
LINE
  5
240
100
AcDbEntity
  8
0
100
AcDbLine
 62
7
  6
BYLAYER
 10
436.6000000726
 20
67.4000003495
 11
436.6000000726
 21
86.4000003495
  0
LINE
  5
241
100
AcDbEntity
  8
0
100
AcDbLine
 62
7
  6
BYLAYER
 10
437.4910000726
 20
82.2910003495
 11
437.4910000726
 21
85.5090003495
  0
LINE
  5
242
100
AcDbEntity
  8
0
100
AcDbLine
 62
7
  6
BYLAYER
 10
437.4910000726
 20
85.5090003495
 11
575.7090000726
 21
85.5090003495
  0
LINE
  5
243
100
AcDbEntity
  8
0
100
AcDbLine
 62
7
  6
BYLAYER
 10
575.7090000726
 20
85.5090003495
 11
575.7090000726
 21
82.2910003495
  0
LINE
  5
244
100
AcDbEntity
  8
0
100
AcDbLine
 62
7
  6
BYLAYER
 10
575.7090000726
 20
82.2910003495
 11
437.4910000726
 21
82.2910003495
  0
MTEXT
  5
245
100
AcDbEntity
  8
0
100
AcDbMText
 62
7
  6
BYLAYER
  7
TEXTSTYLE_2
 71
2
 72
1
 10
506.6000000726
 20
73.6500003495
 30
0.0
 11
1.0
 21
0.0
 31
0.0
 44
0.9
  1
부    품    목    록
 40
3.5
 41
35.8880597015
  0
MTEXT
  5
246
100
AcDbEntity
  8
0
100
AcDbMText
 62
7
  6
BYLAYER
  7
TEXTSTYLE_2
 71
2
 72
1
 10
562.3500000726
 20
80.1500003495
 30
0.0
 11
1.0
 21
0.0
 31
0.0
 44
0.9
  1
도면번호
 40
2.5
 41
13.9925373134
  0
MTEXT
  5
247
100
AcDbEntity
  8
0
100
AcDbMText
 62
7
  6
BYLAYER
  7
TEXTSTYLE_2
 71
2
 72
1
 10
533.8500000726
 20
80.1500003495
 30
0.0
 11
1.0
 21
0.0
 31
0.0
 44
0.9
  1
부품번호
 40
2.5
 41
13.9925373134
  0
MTEXT
  5
248
100
AcDbEntity
  8
0
100
AcDbMText
 62
7
  6
BYLAYER
  7
TEXTSTYLE_2
 71
2
 72
1
 10
514.6000000726
 20
80.1500003495
 30
0.0
 11
1.0
 21
0.0
 31
0.0
 44
0.9
  1
수량
 40
2.5
 41
6.9962686567
  0
MTEXT
  5
249
100
AcDbEntity
  8
0
100
AcDbMText
 62
7
  6
BYLAYER
  7
TEXTSTYLE_2
 71
2
 72
1
 10
478.1000000726
 20
80.1500003495
 30
0.0
 11
1.0
 21
0.0
 31
0.0
 44
0.9
  1
품명
 40
2.5
 41
6.9962686567
  0
MTEXT
  5
24A
100
AcDbEntity
  8
0
100
AcDbMText
 62
7
  6
BYLAYER
  7
TEXTSTYLE_2
 71
2
 72
1
 10
441.6000000726
 20
80.1500003495
 30
0.0
 11
1.0
 21
0.0
 31
0.0
 44
0.9
  1
번호
 40
2.5
 41
6.9962686567
  0
MTEXT
  5
24B
100
AcDbEntity
  8
0
100
AcDbMText
 62
7
  6
BYLAYER
  7
TEXTSTYLE_2
 71
2
 72
1
 10
562.3500000726
 20
85.6500003495
 30
0.0
 11
1.0
 21
0.0
 31
0.0
 44
0.9
  1
&asm.mbr.NUMBER
 40
3.5
 41
44.8992537313
  0
MTEXT
  5
24C
100
AcDbEntity
  8
0
100
AcDbMText
 62
7
  6
BYLAYER
  7
TEXTSTYLE_2
 71
2
 72
1
 10
533.8500000726
 20
85.6500003495
 30
0.0
 11
1.0
 21
0.0
 31
0.0
 44
0.9
  1
&asm.mbr.NOMENCLATURE
 40
3.5
 41
64.776119403
  0
MTEXT
  5
24D
100
AcDbEntity
  8
0
100
AcDbMText
 62
7
  6
BYLAYER
  7
TEXTSTYLE_2
 71
2
 72
1
 10
514.6000000726
 20
85.6500003495
 30
0.0
 11
1.0
 21
0.0
 31
0.0
 44
0.9
  1
&prt.qty
 40
3.5
 41
16.8861940299
  0
MTEXT
  5
24E
100
AcDbEntity
  8
0
100
AcDbMText
 62
7
  6
BYLAYER
  7
TEXTSTYLE_2
 71
2
 72
1
 10
478.1000000726
 20
85.6500003495
 30
0.0
 11
1.0
 21
0.0
 31
0.0
 44
0.9
  1
&asm.mbr.NAME
 40
3.5
 41
37.8208955224
  0
MTEXT
  5
24F
100
AcDbEntity
  8
0
100
AcDbMText
 62
7
  6
BYLAYER
  7
TEXTSTYLE_2
 71
2
 72
1
 10
441.6000000726
 20
85.6500003495
 30
0.0
 11
1.0
 21
0.0
 31
0.0
 44
0.9
  1
&rpt.index
 40
3.5
 41
22.0708955224
  0
LINE
  5
250
100
AcDbEntity
  8
0
100
AcDbLine
 62
7
  6
BYLAYER
 10
381.6000000726
 20
17.4000003495
 11
311.6000000726
 21
17.4000003495
  0
LINE
  5
251
100
AcDbEntity
  8
0
100
AcDbLine
 62
7
  6
BYLAYER
 10
381.6000000726
 20
17.4000003495
 11
381.6000000726
 21
67.4000003495
  0
LINE
  5
252
100
AcDbEntity
  8
0
100
AcDbLine
 62
7
  6
BYLAYER
 10
381.6000000726
 20
23.4000003495
 11
311.6000000726
 21
23.4000003495
  0
LINE
  5
253
100
AcDbEntity
  8
0
100
AcDbLine
 62
7
  6
BYLAYER
 10
381.6000000726
 20
28.4000003495
 11
311.6000000726
 21
28.4000003495
  0
LINE
  5
254
100
AcDbEntity
  8
0
100
AcDbLine
 62
7
  6
BYLAYER
 10
381.6000000726
 20
33.4000003495
 11
311.6000000726
 21
33.4000003495
  0
LINE
  5
255
100
AcDbEntity
  8
0
100
AcDbLine
 62
7
  6
BYLAYER
 10
381.6000000726
 20
38.4000003495
 11
311.6000000726
 21
38.4000003495
  0
LINE
  5
256
100
AcDbEntity
  8
0
100
AcDbLine
 62
7
  6
BYLAYER
 10
381.6000000726
 20
43.4000003495
 11
311.6000000726
 21
43.4000003495
  0
LINE
  5
257
100
AcDbEntity
  8
0
100
AcDbLine
 62
7
  6
BYLAYER
 10
381.6000000726
 20
67.4000003495
 11
311.6000000726
 21
67.4000003495
  0
LINE
  5
258
100
AcDbEntity
  8
0
100
AcDbLine
 62
7
  6
BYLAYER
 10
346.6000000726
 20
17.4000003495
 11
346.6000000726
 21
43.4000003495
  0
LINE
  5
259
100
AcDbEntity
  8
0
100
AcDbLine
 62
7
  6
BYLAYER
 10
311.6000000726
 20
17.4000003495
 11
311.6000000726
 21
67.4000003495
  0
MTEXT
  5
25A
100
AcDbEntity
  8
0
100
AcDbMText
 62
7
  6
BYLAYER
  7
TEXTSTYLE_2
 71
3
 72
1
 10
381.5375000726
 20
21.6500003495
 30
0.0
 11
1.0
 21
0.0
 31
0.0
 44
0.9
  1
-
 40
2.5
 41
1.1660447761
  0
MTEXT
  5
25B
100
AcDbEntity
  8
0
100
AcDbMText
 62
7
  6
BYLAYER
  7
TEXTSTYLE_2
 71
3
 72
1
 10
346.5375000726
 20
21.6500003495
 30
0.0
 11
1.0
 21
0.0
 31
0.0
 44
0.9
  1
-
 40
2.5
 41
1.1660447761
  0
MTEXT
  5
25C
100
AcDbEntity
  8
0
100
AcDbMText
 62
7
  6
BYLAYER
  7
TEXTSTYLE_2
 71
2
 72
1
 10
364.1000000726
 20
27.1500003495
 30
0.0
 11
1.0
 21
0.0
 31
0.0
 44
0.9
  1
적용품목
 40
2.5
 41
13.9925373134
  0
MTEXT
  5
25D
100
AcDbEntity
  8
0
100
AcDbMText
 62
7
  6
BYLAYER
  7
TEXTSTYLE_2
 71
2
 72
1
 10
329.1000000726
 20
27.1500003495
 30
0.0
 11
1.0
 21
0.0
 31
0.0
 44
0.9
  1
관련도면
 40
2.5
 41
13.9925373134
  0
MTEXT
  5
25E
100
AcDbEntity
  8
0
100
AcDbMText
 62
7
  6
BYLAYER
  7
TEXTSTYLE_2
 71
2
 72
1
 10
364.1000000726
 20
32.1500003495
 30
0.0
 11
1.0
 21
0.0
 31
0.0
 44
0.9
  1
-
 40
2.5
 41
1.1660447761
  0
MTEXT
  5
25F
100
AcDbEntity
  8
0
100
AcDbMText
 62
7
  6
BYLAYER
  7
TEXTSTYLE_2
 71
2
 72
1
 10
329.1000000726
 20
32.1500003495
 30
0.0
 11
1.0
 21
0.0
 31
0.0
 44
0.9
  1
-
 40
2.5
 41
1.1660447761
  0
MTEXT
  5
260
100
AcDbEntity
  8
0
100
AcDbMText
 62
7
  6
BYLAYER
  7
TEXTSTYLE_2
 71
2
 72
1
 10
364.1000000726
 20
37.1500003495
 30
0.0
 11
1.0
 21
0.0
 31
0.0
 44
0.9
  1
-
 40
2.5
 41
1.1660447761
  0
MTEXT
  5
261
100
AcDbEntity
  8
0
100
AcDbMText
 62
7
  6
BYLAYER
  7
TEXTSTYLE_2
 71
2
 72
1
 10
329.1000000726
 20
37.1500003495
 30
0.0
 11
1.0
 21
0.0
 31
0.0
 44
0.9
  1
-
 40
2.5
 41
1.1660447761
  0
MTEXT
  5
262
100
AcDbEntity
  8
0
100
AcDbMText
 62
7
  6
BYLAYER
  7
TEXTSTYLE_2
 71
2
 72
1
 10
364.1000000726
 20
42.1500003495
 30
0.0
 11
1.0
 21
0.0
 31
0.0
 44
0.9
  1
-
 40
2.5
 41
1.1660447761
  0
MTEXT
  5
263
100
AcDbEntity
  8
0
100
AcDbMText
 62
7
  6
BYLAYER
  7
TEXTSTYLE_2
 71
2
 72
1
 10
329.1000000726
 20
42.1500003495
 30
0.0
 11
1.0
 21
0.0
 31
0.0
 44
0.9
  1
-
 40
2.5
 41
1.1660447761
  0
MTEXT
  5
264
100
AcDbEntity
  8
0
100
AcDbMText
 62
7
  6
BYLAYER
  7
TEXTSTYLE_2
 71
2
 72
1
 10
346.6000000726
 20
56.6500003495
 30
0.0
 11
1.0
 21
0.0
 31
0.0
 44
0.9
  1
-
 40
2.5
 41
1.1660447761
  0
LINE
  5
265
100
AcDbEntity
  8
0
100
AcDbLine
 62
7
  6
BYLAYER
 10
382.6000000726
 20
62.4000003495
 11
397.6000000726
 21
62.4000003495
  0
LINE
  5
266
100
AcDbEntity
  8
0
100
AcDbLine
 62
7
  6
BYLAYER
 10
382.6000000726
 20
62.4000003495
 11
382.6000000726
 21
48.5000003495
  0
LINE
  5
267
100
AcDbEntity
  8
0
100
AcDbLine
 62
7
  6
BYLAYER
 10
382.6000000726
 20
60.4000003495
 11
397.6000000726
 21
60.4000003495
  0
LINE
  5
268
100
AcDbEntity
  8
0
100
AcDbLine
 62
7
  6
BYLAYER
 10
382.6000000726
 20
58.7000003495
 11
397.6000000726
 21
58.7000003495
  0
LINE
  5
269
100
AcDbEntity
  8
0
100
AcDbLine
 62
7
  6
BYLAYER
 10
382.6000000726
 20
57.0000003495
 11
397.6000000726
 21
57.0000003495
  0
LINE
  5
26A
100
AcDbEntity
  8
0
100
AcDbLine
 62
7
  6
BYLAYER
 10
382.6000000726
 20
55.3000003495
 11
397.6000000726
 21
55.3000003495
  0
LINE
  5
26B
100
AcDbEntity
  8
0
100
AcDbLine
 62
7
  6
BYLAYER
 10
382.6000000726
 20
53.6000003495
 11
397.6000000726
 21
53.6000003495
  0
LINE
  5
26C
100
AcDbEntity
  8
0
100
AcDbLine
 62
7
  6
BYLAYER
 10
382.6000000726
 20
51.9000003495
 11
397.6000000726
 21
51.9000003495
  0
LINE
  5
26D
100
AcDbEntity
  8
0
100
AcDbLine
 62
7
  6
BYLAYER
 10
382.6000000726
 20
50.2000003495
 11
397.6000000726
 21
50.2000003495
  0
LINE
  5
26E
100
AcDbEntity
  8
0
100
AcDbLine
 62
7
  6
BYLAYER
 10
382.6000000726
 20
48.5000003495
 11
397.6000000726
 21
48.5000003495
  0
LINE
  5
26F
100
AcDbEntity
  8
0
100
AcDbLine
 62
7
  6
BYLAYER
 10
387.6000000726
 20
60.4000003495
 11
387.6000000726
 21
48.5000003495
  0
LINE
  5
270
100
AcDbEntity
  8
0
100
AcDbLine
 62
7
  6
BYLAYER
 10
392.6000000726
 20
60.4000003495
 11
392.6000000726
 21
48.5000003495
  0
LINE
  5
271
100
AcDbEntity
  8
0
100
AcDbLine
 62
7
  6
BYLAYER
 10
397.6000000726
 20
62.4000003495
 11
397.6000000726
 21
48.5000003495
  0
MTEXT
  5
272
100
AcDbEntity
  8
0
100
AcDbMText
 62
7
  6
BYLAYER
  7
TEXTSTYLE_2
 71
2
 72
1
 10
390.1000000726
 20
62.0000003495
 30
0.0
 11
1.0
 21
0.0
 31
0.0
 44
0.9
  1
길이치수 (보통급)
 40
1.2
 41
13.3388059701
  0
MTEXT
  5
273
100
AcDbEntity
  8
0
100
AcDbMText
 62
7
  6
BYLAYER
  7
TEXTSTYLE_2
 71
2
 72
1
 10
385.1000000726
 20
60.1500003495
 30
0.0
 11
1.0
 21
0.0
 31
0.0
 44
0.9
  1
Over
 40
1.2
 41
3.6671641791
  0
MTEXT
  5
274
100
AcDbEntity
  8
0
100
AcDbMText
 62
7
  6
BYLAYER
  7
TEXTSTYLE_2
 71
2
 72
1
 10
390.1000000726
 20
60.1500003495
 30
0.0
 11
1.0
 21
0.0
 31
0.0
 44
0.9
  1
Less
 40
1.2
 41
3.5552238806
  0
MTEXT
  5
275
100
AcDbEntity
  8
0
100
AcDbMText
 62
7
  6
BYLAYER
  7
TEXTSTYLE_2
 71
2
 72
1
 10
395.1000000726
 20
60.1500003495
 30
0.0
 11
1.0
 21
0.0
 31
0.0
 44
0.9
  1
Tol.
 40
1.2
 41
2.7985074627
  0
MTEXT
  5
276
100
AcDbEntity
  8
0
100
AcDbMText
 62
7
  6
BYLAYER
  7
TEXTSTYLE_2
 71
3
 72
1
 10
387.5375000726
 20
58.4500003495
 30
0.0
 11
1.0
 21
0.0
 31
0.0
 44
0.9
  1
0.5
 40
1.2
 41
2.3373134328
  0
MTEXT
  5
277
100
AcDbEntity
  8
0
100
AcDbMText
 62
7
  6
BYLAYER
  7
TEXTSTYLE_2
 71
3
 72
1
 10
392.5375000726
 20
58.4500003495
 30
0.0
 11
1.0
 21
0.0
 31
0.0
 44
0.9
  1
6
 40
1.2
 41
0.9358208955
  0
MTEXT
  5
278
100
AcDbEntity
  8
0
100
AcDbMText
 62
7
  6
BYLAYER
  7
TEXTSTYLE_1
 71
1
 72
1
 10
392.6625000726
 20
58.4500003495
 30
0.0
 11
1.0
 21
0.0
 31
0.0
 44
0.9
  1
{\Fgdt;`}\Farialuni.ttf;0.1
 40
1.2
 41
3.9373134328
  0
MTEXT
  5
279
100
AcDbEntity
  8
0
100
AcDbMText
 62
7
  6
BYLAYER
  7
TEXTSTYLE_2
 71
3
 72
1
 10
387.5375000726
 20
56.7500003495
 30
0.0
 11
1.0
 21
0.0
 31
0.0
 44
0.9
  1
6
 40
1.2
 41
0.9358208955
  0
MTEXT
  5
27A
100
AcDbEntity
  8
0
100
AcDbMText
 62
7
  6
BYLAYER
  7
TEXTSTYLE_2
 71
3
 72
1
 10
392.5375000726
 20
56.7500003495
 30
0.0
 11
1.0
 21
0.0
 31
0.0
 44
0.9
  1
30
 40
1.2
 41
1.871641791
  0
MTEXT
  5
27B
100
AcDbEntity
  8
0
100
AcDbMText
 62
7
  6
BYLAYER
  7
TEXTSTYLE_1
 71
1
 72
1
 10
392.6625000726
 20
56.7500003495
 30
0.0
 11
1.0
 21
0.0
 31
0.0
 44
0.9
  1
{\Fgdt;`}\Farialuni.ttf;0.2
 40
1.2
 41
3.9373134328
  0
MTEXT
  5
27C
100
AcDbEntity
  8
0
100
AcDbMText
 62
7
  6
BYLAYER
  7
TEXTSTYLE_2
 71
3
 72
1
 10
387.5375000726
 20
55.0500003495
 30
0.0
 11
1.0
 21
0.0
 31
0.0
 44
0.9
  1
30
 40
1.2
 41
1.871641791
  0
MTEXT
  5
27D
100
AcDbEntity
  8
0
100
AcDbMText
 62
7
  6
BYLAYER
  7
TEXTSTYLE_2
 71
3
 72
1
 10
392.5375000726
 20
55.0500003495
 30
0.0
 11
1.0
 21
0.0
 31
0.0
 44
0.9
  1
120
 40
1.2
 41
2.8074626866
  0
MTEXT
  5
27E
100
AcDbEntity
  8
0
100
AcDbMText
 62
7
  6
BYLAYER
  7
TEXTSTYLE_1
 71
1
 72
1
 10
392.6625000726
 20
55.0500003495
 30
0.0
 11
1.0
 21
0.0
 31
0.0
 44
0.9
  1
{\Fgdt;`}\Farialuni.ttf;0.3
 40
1.2
 41
3.9373134328
  0
MTEXT
  5
27F
100
AcDbEntity
  8
0
100
AcDbMText
 62
7
  6
BYLAYER
  7
TEXTSTYLE_2
 71
3
 72
1
 10
387.5375000726
 20
53.3500003495
 30
0.0
 11
1.0
 21
0.0
 31
0.0
 44
0.9
  1
120
 40
1.2
 41
2.8074626866
  0
MTEXT
  5
280
100
AcDbEntity
  8
0
100
AcDbMText
 62
7
  6
BYLAYER
  7
TEXTSTYLE_2
 71
3
 72
1
 10
392.5375000726
 20
53.3500003495
 30
0.0
 11
1.0
 21
0.0
 31
0.0
 44
0.9
  1
400
 40
1.2
 41
2.8074626866
  0
MTEXT
  5
281
100
AcDbEntity
  8
0
100
AcDbMText
 62
7
  6
BYLAYER
  7
TEXTSTYLE_1
 71
1
 72
1
 10
392.6625000726
 20
53.3500003495
 30
0.0
 11
1.0
 21
0.0
 31
0.0
 44
0.9
  1
{\Fgdt;`}\Farialuni.ttf;0.5
 40
1.2
 41
3.9373134328
  0
MTEXT
  5
282
100
AcDbEntity
  8
0
100
AcDbMText
 62
7
  6
BYLAYER
  7
TEXTSTYLE_2
 71
3
 72
1
 10
387.5375000726
 20
51.6500003495
 30
0.0
 11
1.0
 21
0.0
 31
0.0
 44
0.9
  1
400
 40
1.2
 41
2.8074626866
  0
MTEXT
  5
283
100
AcDbEntity
  8
0
100
AcDbMText
 62
7
  6
BYLAYER
  7
TEXTSTYLE_2
 71
3
 72
1
 10
392.5375000726
 20
51.6500003495
 30
0.0
 11
1.0
 21
0.0
 31
0.0
 44
0.9
  1
1000
 40
1.2
 41
3.7432835821
  0
MTEXT
  5
284
100
AcDbEntity
  8
0
100
AcDbMText
 62
7
  6
BYLAYER
  7
TEXTSTYLE_1
 71
1
 72
1
 10
392.6625000726
 20
51.6500003495
 30
0.0
 11
1.0
 21
0.0
 31
0.0
 44
0.9
  1
{\Fgdt;`}\Farialuni.ttf;0.8
 40
1.2
 41
3.9373134328
  0
MTEXT
  5
285
100
AcDbEntity
  8
0
100
AcDbMText
 62
7
  6
BYLAYER
  7
TEXTSTYLE_2
 71
3
 72
1
 10
387.5375000726
 20
49.9500003495
 30
0.0
 11
1.0
 21
0.0
 31
0.0
 44
0.9
  1
1000
 40
1.2
 41
3.7432835821
  0
MTEXT
  5
286
100
AcDbEntity
  8
0
100
AcDbMText
 62
7
  6
BYLAYER
  7
TEXTSTYLE_2
 71
3
 72
1
 10
392.5375000726
 20
49.9500003495
 30
0.0
 11
1.0
 21
0.0
 31
0.0
 44
0.9
  1
2000
 40
1.2
 41
3.7432835821
  0
MTEXT
  5
287
100
AcDbEntity
  8
0
100
AcDbMText
 62
7
  6
BYLAYER
  7
TEXTSTYLE_1
 71
1
 72
1
 10
392.6625000726
 20
49.9500003495
 30
0.0
 11
1.0
 21
0.0
 31
0.0
 44
0.9
  1
{\Fgdt;`}\Farialuni.ttf;1.2
 40
1.2
 41
3.9373134328
  0
LINE
  5
288
100
AcDbEntity
  8
0
100
AcDbLine
 62
7
  6
BYLAYER
 10
398.6000000726
 20
62.4000003495
 11
415.6000000726
 21
62.4000003495
  0
LINE
  5
289
100
AcDbEntity
  8
0
100
AcDbLine
 62
7
  6
BYLAYER
 10
398.6000000726
 20
62.4000003495
 11
398.6000000726
 21
48.5000003495
  0
LINE
  5
28A
100
AcDbEntity
  8
0
100
AcDbLine
 62
7
  6
BYLAYER
 10
398.6000000726
 20
60.4000003495
 11
415.6000000726
 21
60.4000003495
  0
LINE
  5
28B
100
AcDbEntity
  8
0
100
AcDbLine
 62
7
  6
BYLAYER
 10
398.6000000726
 20
58.7000003495
 11
415.6000000726
 21
58.7000003495
  0
LINE
  5
28C
100
AcDbEntity
  8
0
100
AcDbLine
 62
7
  6
BYLAYER
 10
398.6000000726
 20
57.0000003495
 11
415.6000000726
 21
57.0000003495
  0
LINE
  5
28D
100
AcDbEntity
  8
0
100
AcDbLine
 62
7
  6
BYLAYER
 10
398.6000000726
 20
55.3000003495
 11
415.6000000726
 21
55.3000003495
  0
LINE
  5
28E
100
AcDbEntity
  8
0
100
AcDbLine
 62
7
  6
BYLAYER
 10
398.6000000726
 20
53.6000003495
 11
415.6000000726
 21
53.6000003495
  0
LINE
  5
28F
100
AcDbEntity
  8
0
100
AcDbLine
 62
7
  6
BYLAYER
 10
398.6000000726
 20
51.9000003495
 11
415.6000000726
 21
51.9000003495
  0
LINE
  5
290
100
AcDbEntity
  8
0
100
AcDbLine
 62
7
  6
BYLAYER
 10
398.6000000726
 20
50.2000003495
 11
415.6000000726
 21
50.2000003495
  0
LINE
  5
291
100
AcDbEntity
  8
0
100
AcDbLine
 62
7
  6
BYLAYER
 10
398.6000000726
 20
48.5000003495
 11
415.6000000726
 21
48.5000003495
  0
LINE
  5
292
100
AcDbEntity
  8
0
100
AcDbLine
 62
7
  6
BYLAYER
 10
403.6000000726
 20
60.4000003495
 11
403.6000000726
 21
48.5000003495
  0
LINE
  5
293
100
AcDbEntity
  8
0
100
AcDbLine
 62
7
  6
BYLAYER
 10
408.6000000726
 20
60.4000003495
 11
408.6000000726
 21
48.5000003495
  0
LINE
  5
294
100
AcDbEntity
  8
0
100
AcDbLine
 62
7
  6
BYLAYER
 10
415.6000000726
 20
62.4000003495
 11
415.6000000726
 21
48.5000003495
  0
MTEXT
  5
295
100
AcDbEntity
  8
0
100
AcDbMText
 62
7
  6
BYLAYER
  7
TEXTSTYLE_2
 71
2
 72
1
 10
407.1000000726
 20
62.0000003495
 30
0.0
 11
1.0
 21
0.0
 31
0.0
 44
0.9
  1
각도치수 (보통급)
 40
1.2
 41
13.3388059701
  0
MTEXT
  5
296
100
AcDbEntity
  8
0
100
AcDbMText
 62
7
  6
BYLAYER
  7
TEXTSTYLE_2
 71
2
 72
1
 10
401.1000000726
 20
60.1500003495
 30
0.0
 11
1.0
 21
0.0
 31
0.0
 44
0.9
  1
Over
 40
1.2
 41
3.6671641791
  0
MTEXT
  5
297
100
AcDbEntity
  8
0
100
AcDbMText
 62
7
  6
BYLAYER
  7
TEXTSTYLE_2
 71
2
 72
1
 10
406.1000000726
 20
60.1500003495
 30
0.0
 11
1.0
 21
0.0
 31
0.0
 44
0.9
  1
Less
 40
1.2
 41
3.5552238806
  0
MTEXT
  5
298
100
AcDbEntity
  8
0
100
AcDbMText
 62
7
  6
BYLAYER
  7
TEXTSTYLE_2
 71
2
 72
1
 10
412.1000000726
 20
60.1500003495
 30
0.0
 11
1.0
 21
0.0
 31
0.0
 44
0.9
  1
Tol.
 40
1.2
 41
2.7985074627
  0
MTEXT
  5
299
100
AcDbEntity
  8
0
100
AcDbMText
 62
7
  6
BYLAYER
  7
TEXTSTYLE_2
 71
3
 72
1
 10
403.5375000726
 20
58.4500003495
 30
0.0
 11
1.0
 21
0.0
 31
0.0
 44
0.9
  1
0
 40
1.2
 41
0.9358208955
  0
MTEXT
  5
29A
100
AcDbEntity
  8
0
100
AcDbMText
 62
7
  6
BYLAYER
  7
TEXTSTYLE_2
 71
3
 72
1
 10
408.5375000726
 20
58.4500003495
 30
0.0
 11
1.0
 21
0.0
 31
0.0
 44
0.9
  1
10
 40
1.2
 41
1.871641791
  0
MTEXT
  5
29B
100
AcDbEntity
  8
0
100
AcDbMText
 62
7
  6
BYLAYER
  7
TEXTSTYLE_1
 71
1
 72
1
 10
408.6625000726
 20
58.4500003495
 30
0.0
 11
1.0
 21
0.0
 31
0.0
 44
0.9
  1
{\Fgdt;`}\Farialuni.ttf;{\Ftxt.shx;\W0.166667;\H1.200000; }1\Fgdt;{\Ftxt.shx;\W0.166667;\H1.200000; }{\Fgdt;~}
 40
1.2
 41
3.1358208955
  0
MTEXT
  5
29C
100
AcDbEntity
  8
0
100
AcDbMText
 62
7
  6
BYLAYER
  7
TEXTSTYLE_2
 71
3
 72
1
 10
403.5375000726
 20
56.7500003495
 30
0.0
 11
1.0
 21
0.0
 31
0.0
 44
0.9
  1
10
 40
1.2
 41
1.871641791
  0
MTEXT
  5
29D
100
AcDbEntity
  8
0
100
AcDbMText
 62
7
  6
BYLAYER
  7
TEXTSTYLE_2
 71
3
 72
1
 10
408.5375000726
 20
56.7500003495
 30
0.0
 11
1.0
 21
0.0
 31
0.0
 44
0.9
  1
50
 40
1.2
 41
1.871641791
  0
MTEXT
  5
29E
100
AcDbEntity
  8
0
100
AcDbMText
 62
7
  6
BYLAYER
  7
TEXTSTYLE_1
 71
1
 72
1
 10
408.6625000726
 20
56.7500003495
 30
0.0
 11
1.0
 21
0.0
 31
0.0
 44
0.9
  1
{\Fgdt;`}\Farialuni.ttf;0\Fgdt;{\Fgdt;~}\Farialuni.ttf;30'
 40
1.2
 41
5.3298507463
  0
MTEXT
  5
29F
100
AcDbEntity
  8
0
100
AcDbMText
 62
7
  6
BYLAYER
  7
TEXTSTYLE_2
 71
3
 72
1
 10
403.5375000726
 20
55.0500003495
 30
0.0
 11
1.0
 21
0.0
 31
0.0
 44
0.9
  1
50
 40
1.2
 41
1.871641791
  0
MTEXT
  5
2A0
100
AcDbEntity
  8
0
100
AcDbMText
 62
7
  6
BYLAYER
  7
TEXTSTYLE_2
 71
3
 72
1
 10
408.5375000726
 20
55.0500003495
 30
0.0
 11
1.0
 21
0.0
 31
0.0
 44
0.9
  1
120
 40
1.2
 41
2.8074626866
  0
MTEXT
  5
2A1
100
AcDbEntity
  8
0
100
AcDbMText
 62
7
  6
BYLAYER
  7
TEXTSTYLE_1
 71
1
 72
1
 10
408.6625000726
 20
55.0500003495
 30
0.0
 11
1.0
 21
0.0
 31
0.0
 44
0.9
  1
{\Fgdt;`}\Farialuni.ttf;0\Fgdt;{\Fgdt;~}\Farialuni.ttf;20'
 40
1.2
 41
5.3298507463
  0
MTEXT
  5
2A2
100
AcDbEntity
  8
0
100
AcDbMText
 62
7
  6
BYLAYER
  7
TEXTSTYLE_2
 71
3
 72
1
 10
403.5375000726
 20
53.3500003495
 30
0.0
 11
1.0
 21
0.0
 31
0.0
 44
0.9
  1
120
 40
1.2
 41
2.8074626866
  0
MTEXT
  5
2A3
100
AcDbEntity
  8
0
100
AcDbMText
 62
7
  6
BYLAYER
  7
TEXTSTYLE_2
 71
3
 72
1
 10
408.5375000726
 20
53.3500003495
 30
0.0
 11
1.0
 21
0.0
 31
0.0
 44
0.9
  1
400
 40
1.2
 41
2.8074626866
  0
MTEXT
  5
2A4
100
AcDbEntity
  8
0
100
AcDbMText
 62
7
  6
BYLAYER
  7
TEXTSTYLE_1
 71
1
 72
1
 10
408.6625000726
 20
53.3500003495
 30
0.0
 11
1.0
 21
0.0
 31
0.0
 44
0.9
  1
{\Fgdt;`}\Farialuni.ttf;0\Fgdt;{\Fgdt;~}\Farialuni.ttf;10'
 40
1.2
 41
5.3298507463
  0
MTEXT
  5
2A5
100
AcDbEntity
  8
0
100
AcDbMText
 62
7
  6
BYLAYER
  7
TEXTSTYLE_2
 71
3
 72
1
 10
403.5375000726
 20
51.6500003495
 30
0.0
 11
1.0
 21
0.0
 31
0.0
 44
0.9
  1
400
 40
1.2
 41
2.8074626866
  0
MTEXT
  5
2A6
100
AcDbEntity
  8
0
100
AcDbMText
 62
7
  6
BYLAYER
  7
TEXTSTYLE_2
 71
3
 72
1
 10
408.5375000726
 20
51.6500003495
 30
0.0
 11
1.0
 21
0.0
 31
0.0
 44
0.9
  1
Inf
 40
1.2
 41
1.9208955224
  0
MTEXT
  5
2A7
100
AcDbEntity
  8
0
100
AcDbMText
 62
7
  6
BYLAYER
  7
TEXTSTYLE_1
 71
1
 72
1
 10
408.6625000726
 20
51.6500003495
 30
0.0
 11
1.0
 21
0.0
 31
0.0
 44
0.9
  1
{\Fgdt;`}\Farialuni.ttf;0\Fgdt;{\Fgdt;~}\Farialuni.ttf;5'
 40
1.2
 41
4.3940298507
  0
MTEXT
  5
2A8
100
AcDbEntity
  8
0
100
AcDbMText
 62
7
  6
BYLAYER
  7
TEXTSTYLE_2
 71
3
 72
1
 10
403.5375000726
 20
49.9500003495
 30
0.0
 11
1.0
 21
0.0
 31
0.0
 44
0.9
  1
mm 
 40
1.2
 41
3.2597014925
  0
MTEXT
  5
2A9
100
AcDbEntity
  8
0
100
AcDbMText
 62
7
  6
BYLAYER
  7
TEXTSTYLE_2
 71
3
 72
1
 10
408.5375000726
 20
49.9500003495
 30
0.0
 11
1.0
 21
0.0
 31
0.0
 44
0.9
  1
mm 
 40
1.2
 41
3.2597014925
  0
LINE
  5
2AA
100
AcDbEntity
  8
0
100
AcDbLine
 62
7
  6
BYLAYER
 10
576.6000000726
 20
402.6000003495
 11
436.6000000726
 21
402.6000003495
  0
LINE
  5
2AB
100
AcDbEntity
  8
0
100
AcDbLine
 62
7
  6
BYLAYER
 10
576.6000000726
 20
402.6000003495
 11
576.6000000726
 21
383.6000003495
  0
LINE
  5
2AC
100
AcDbEntity
  8
0
100
AcDbLine
 62
7
  6
BYLAYER
 10
576.6000000726
 20
393.6000003495
 11
436.6000000726
 21
393.6000003495
  0
LINE
  5
2AD
100
AcDbEntity
  8
0
100
AcDbLine
 62
7
  6
BYLAYER
 10
576.6000000726
 20
388.6000003495
 11
436.6000000726
 21
388.6000003495
  0
LINE
  5
2AE
100
AcDbEntity
  8
0
100
AcDbLine
 62
7
  6
BYLAYER
 10
576.6000000726
 20
383.6000003495
 11
436.6000000726
 21
383.6000003495
  0
LINE
  5
2AF
100
AcDbEntity
  8
0
100
AcDbLine
 62
7
  6
BYLAYER
 10
556.6000000726
 20
393.6000003495
 11
556.6000000726
 21
383.6000003495
  0
LINE
  5
2B0
100
AcDbEntity
  8
0
100
AcDbLine
 62
7
  6
BYLAYER
 10
536.6000000726
 20
393.6000003495
 11
536.6000000726
 21
383.6000003495
  0
LINE
  5
2B1
100
AcDbEntity
  8
0
100
AcDbLine
 62
7
  6
BYLAYER
 10
516.6000000726
 20
393.6000003495
 11
516.6000000726
 21
383.6000003495
  0
LINE
  5
2B2
100
AcDbEntity
  8
0
100
AcDbLine
 62
7
  6
BYLAYER
 10
456.6000000726
 20
393.6000003495
 11
456.6000000726
 21
383.6000003495
  0
LINE
  5
2B3
100
AcDbEntity
  8
0
100
AcDbLine
 62
7
  6
BYLAYER
 10
446.6000000726
 20
393.6000003495
 11
446.6000000726
 21
383.6000003495
  0
LINE
  5
2B4
100
AcDbEntity
  8
0
100
AcDbLine
 62
7
  6
BYLAYER
 10
436.6000000726
 20
402.6000003495
 11
436.6000000726
 21
383.6000003495
  0
MTEXT
  5
2B5
100
AcDbEntity
  8
0
100
AcDbMText
 62
7
  6
BYLAYER
  7
TEXTSTYLE_2
 71
2
 72
1
 10
506.6000000726
 20
399.8500003495
 30
0.0
 11
1.0
 21
0.0
 31
0.0
 44
0.9
  1
수    정    내    용
 40
3.5
 41
35.8880597015
  0
MTEXT
  5
2B6
100
AcDbEntity
  8
0
100
AcDbMText
 62
7
  6
BYLAYER
  7
TEXTSTYLE_2
 71
2
 72
1
 10
566.6000000726
 20
392.3500003495
 30
0.0
 11
1.0
 21
0.0
 31
0.0
 44
0.9
  1
년월일
 40
2.5
 41
10.4944029851
  0
MTEXT
  5
2B7
100
AcDbEntity
  8
0
100
AcDbMText
 62
7
  6
BYLAYER
  7
TEXTSTYLE_2
 71
2
 72
1
 10
546.6000000726
 20
392.3500003495
 30
0.0
 11
1.0
 21
0.0
 31
0.0
 44
0.9
  1
승인자
 40
2.5
 41
10.4944029851
  0
MTEXT
  5
2B8
100
AcDbEntity
  8
0
100
AcDbMText
 62
7
  6
BYLAYER
  7
TEXTSTYLE_2
 71
2
 72
1
 10
526.6000000726
 20
392.3500003495
 30
0.0
 11
1.0
 21
0.0
 31
0.0
 44
0.9
  1
수정자
 40
2.5
 41
10.4944029851
  0
MTEXT
  5
2B9
100
AcDbEntity
  8
0
100
AcDbMText
 62
7
  6
BYLAYER
  7
TEXTSTYLE_2
 71
2
 72
1
 10
486.6000000726
 20
392.3500003495
 30
0.0
 11
1.0
 21
0.0
 31
0.0
 44
0.9
  1
내용
 40
2.5
 41
6.9962686567
  0
MTEXT
  5
2BA
100
AcDbEntity
  8
0
100
AcDbMText
 62
7
  6
BYLAYER
  7
TEXTSTYLE_2
 71
2
 72
1
 10
451.6000000726
 20
392.3500003495
 30
0.0
 11
1.0
 21
0.0
 31
0.0
 44
0.9
  1
위치
 40
2.5
 41
6.9962686567
  0
MTEXT
  5
2BB
100
AcDbEntity
  8
0
100
AcDbMText
 62
7
  6
BYLAYER
  7
TEXTSTYLE_2
 71
2
 72
1
 10
441.6000000726
 20
392.3500003495
 30
0.0
 11
1.0
 21
0.0
 31
0.0
 44
0.9
  1
부호
 40
2.5
 41
6.9962686567
  0
MTEXT
  5
2BC
100
AcDbEntity
  8
0
100
AcDbMText
 62
7
  6
BYLAYER
  7
TEXTSTYLE_2
 71
2
 72
1
 10
566.6000000726
 20
387.3500003495
 30
0.0
 11
1.0
 21
0.0
 31
0.0
 44
0.9
  1
-
 40
2.5
 41
1.1660447761
  0
MTEXT
  5
2BD
100
AcDbEntity
  8
0
100
AcDbMText
 62
7
  6
BYLAYER
  7
TEXTSTYLE_2
 71
2
 72
1
 10
546.6000000726
 20
387.3500003495
 30
0.0
 11
1.0
 21
0.0
 31
0.0
 44
0.9
  1
-
 40
2.5
 41
1.1660447761
  0
MTEXT
  5
2BE
100
AcDbEntity
  8
0
100
AcDbMText
 62
7
  6
BYLAYER
  7
TEXTSTYLE_2
 71
2
 72
1
 10
526.6000000726
 20
387.3500003495
 30
0.0
 11
1.0
 21
0.0
 31
0.0
 44
0.9
  1
-
 40
2.5
 41
1.1660447761
  0
MTEXT
  5
2BF
100
AcDbEntity
  8
0
100
AcDbMText
 62
7
  6
BYLAYER
  7
TEXTSTYLE_2
 71
2
 72
1
 10
486.6000000726
 20
387.3500003495
 30
0.0
 11
1.0
 21
0.0
 31
0.0
 44
0.9
  1
-
 40
2.5
 41
1.1660447761
  0
MTEXT
  5
2C0
100
AcDbEntity
  8
0
100
AcDbMText
 62
7
  6
BYLAYER
  7
TEXTSTYLE_2
 71
2
 72
1
 10
451.6000000726
 20
387.3500003495
 30
0.0
 11
1.0
 21
0.0
 31
0.0
 44
0.9
  1
1A
 40
2.5
 41
4.2910447761
  0
MTEXT
  5
2C1
100
AcDbEntity
  8
0
100
AcDbMText
 62
7
  6
BYLAYER
  7
TEXTSTYLE_2
 71
2
 72
1
 10
441.6000000726
 20
387.3500003495
 30
0.0
 11
1.0
 21
0.0
 31
0.0
 44
0.9
  1
V02
 40
2.5
 41
6.2313432836
  0
LINE
  5
2C2
100
AcDbEntity
  8
0
100
AcDbLine
 62
7
  6
BYLAYER
 10
32.4000000726
 20
402.6000003495
 11
102.4000000726
 21
402.6000003495
  0
LINE
  5
2C3
100
AcDbEntity
  8
0
100
AcDbLine
 62
7
  6
BYLAYER
 10
32.4000000726
 20
402.6000003495
 11
32.4000000726
 21
392.6000003495
  0
LINE
  5
2C4
100
AcDbEntity
  8
0
100
AcDbLine
 62
7
  6
BYLAYER
 10
32.4000000726
 20
392.6000003495
 11
102.4000000726
 21
392.6000003495
  0
LINE
  5
2C5
100
AcDbEntity
  8
0
100
AcDbLine
 62
7
  6
BYLAYER
 10
92.4000000726
 20
402.6000003495
 11
92.4000000726
 21
392.6000003495
  0
LINE
  5
2C6
100
AcDbEntity
  8
0
100
AcDbLine
 62
7
  6
BYLAYER
 10
102.4000000726
 20
402.6000003495
 11
102.4000000726
 21
392.6000003495
  0
MTEXT
  5
2C7
100
AcDbEntity
  8
0
100
AcDbMText
 62
7
  6
BYLAYER
  7
TEXTSTYLE_2
 71
2
 72
1
 10
62.4000000726
 20
395.8500003495
 30
0.0
 11
-1.0
 21
0.0
 31
0.0
 44
0.9
  1
&NUMBER
 40
3.5
 41
24.4869402985
  0
MTEXT
  5
2C8
100
AcDbEntity
  8
0
100
AcDbMText
 62
7
  6
BYLAYER
  7
TEXTSTYLE_2
 71
2
 72
1
 10
97.4000000726
 20
396.3500003495
 30
0.0
 11
-1.0
 21
0.0
 31
0.0
 44
0.9
  1
도번
 40
2.5
 41
6.9962686567
  0
MTEXT
  5
2C9
100
AcDbEntity
  8
FRAME
100
AcDbMText
 62
7
  6
BYLAYER
  7
TEXTSTYLE_2
 71
2
 72
1
 10
27.5000000726
 20
61.6000003495
 30
0.0
 11
1.0
 21
0.0
 31
0.0
 44
0.9
  1
B
 40
3.2
 41
2.9850746269
  0
MTEXT
  5
2CA
100
AcDbEntity
  8
FRAME
100
AcDbMText
 62
7
  6
BYLAYER
  7
TEXTSTYLE_2
 71
2
 72
1
 10
27.5000000726
 20
261.6000003495
 30
0.0
 11
1.0
 21
0.0
 31
0.0
 44
0.9
  1
D
 40
3.2
 41
3.2358208955
  0
MTEXT
  5
2CB
100
AcDbEntity
  8
FRAME
100
AcDbMText
 62
7
  6
BYLAYER
  7
TEXTSTYLE_2
 71
2
 72
1
 10
27.5000000726
 20
361.6000003495
 30
0.0
 11
1.0
 21
0.0
 31
0.0
 44
0.9
  1
E
 40
3.2
 41
2.9850746269
  0
MTEXT
  5
2CC
100
AcDbEntity
  8
FRAME
100
AcDbMText
 62
7
  6
BYLAYER
  7
TEXTSTYLE_2
 71
2
 72
1
 10
27.5000000726
 20
161.6000003495
 30
0.0
 11
1.0
 21
0.0
 31
0.0
 44
0.9
  1
C
 40
3.2
 41
3.2358208955
  0
MTEXT
  5
2CD
100
AcDbEntity
  8
FRAME
100
AcDbMText
 62
7
  6
BYLAYER
  7
TEXTSTYLE_2
 71
2
 72
1
 10
581.5000000726
 20
61.6000003495
 30
0.0
 11
1.0
 21
0.0
 31
0.0
 44
0.9
  1
B
 40
3.2
 41
2.9850746269
  0
MTEXT
  5
2CE
100
AcDbEntity
  8
FRAME
100
AcDbMText
 62
7
  6
BYLAYER
  7
TEXTSTYLE_2
 71
2
 72
1
 10
581.5000000726
 20
261.6000003495
 30
0.0
 11
1.0
 21
0.0
 31
0.0
 44
0.9
  1
D
 40
3.2
 41
3.2358208955
  0
MTEXT
  5
2CF
100
AcDbEntity
  8
FRAME
100
AcDbMText
 62
7
  6
BYLAYER
  7
TEXTSTYLE_2
 71
2
 72
1
 10
581.5000000726
 20
361.6000003495
 30
0.0
 11
1.0
 21
0.0
 31
0.0
 44
0.9
  1
E
 40
3.2
 41
2.9850746269
  0
MTEXT
  5
2D0
100
AcDbEntity
  8
FRAME
100
AcDbMText
 62
7
  6
BYLAYER
  7
TEXTSTYLE_2
 71
2
 72
1
 10
581.5000000726
 20
161.6000003495
 30
0.0
 11
1.0
 21
0.0
 31
0.0
 44
0.9
  1
C
 40
3.2
 41
3.2358208955
  0
MTEXT
  5
2D1
100
AcDbEntity
  8
FRAME
100
AcDbMText
 62
7
  6
BYLAYER
  7
TEXTSTYLE_2
 71
2
 72
1
 10
54.5000000726
 20
409.1000003495
 30
0.0
 11
1.0
 21
0.0
 31
0.0
 44
0.9
  1
2
 40
3.2
 41
2.4955223881
  0
MTEXT
  5
2D2
100
AcDbEntity
  8
FRAME
100
AcDbMText
 62
7
  6
BYLAYER
  7
TEXTSTYLE_2
 71
2
 72
1
 10
154.5000000726
 20
409.1000003495
 30
0.0
 11
1.0
 21
0.0
 31
0.0
 44
0.9
  1
3
 40
3.2
 41
2.4955223881
  0
MTEXT
  5
2D3
100
AcDbEntity
  8
FRAME
100
AcDbMText
 62
7
  6
BYLAYER
  7
TEXTSTYLE_2
 71
2
 72
1
 10
254.5000000726
 20
409.1000003495
 30
0.0
 11
1.0
 21
0.0
 31
0.0
 44
0.9
  1
4
 40
3.2
 41
2.4955223881
  0
MTEXT
  5
2D4
100
AcDbEntity
  8
FRAME
100
AcDbMText
 62
7
  6
BYLAYER
  7
TEXTSTYLE_2
 71
2
 72
1
 10
354.5000000726
 20
409.1000003495
 30
0.0
 11
1.0
 21
0.0
 31
0.0
 44
0.9
  1
5
 40
3.2
 41
2.4955223881
  0
MTEXT
  5
2D5
100
AcDbEntity
  8
FRAME
100
AcDbMText
 62
7
  6
BYLAYER
  7
TEXTSTYLE_2
 71
2
 72
1
 10
454.5000000726
 20
409.1000003495
 30
0.0
 11
1.0
 21
0.0
 31
0.0
 44
0.9
  1
6
 40
3.2
 41
2.4955223881
  0
MTEXT
  5
2D6
100
AcDbEntity
  8
FRAME
100
AcDbMText
 62
7
  6
BYLAYER
  7
TEXTSTYLE_2
 71
2
 72
1
 10
554.5000000726
 20
409.1000003495
 30
0.0
 11
1.0
 21
0.0
 31
0.0
 44
0.9
  1
7
 40
3.2
 41
2.4955223881
  0
MTEXT
  5
2D7
100
AcDbEntity
  8
FRAME
100
AcDbMText
 62
7
  6
BYLAYER
  7
TEXTSTYLE_2
 71
2
 72
1
 10
54.5000000726
 20
14.1000003495
 30
0.0
 11
1.0
 21
0.0
 31
0.0
 44
0.9
  1
2
 40
3.2
 41
2.4955223881
  0
MTEXT
  5
2D8
100
AcDbEntity
  8
FRAME
100
AcDbMText
 62
7
  6
BYLAYER
  7
TEXTSTYLE_2
 71
2
 72
1
 10
154.5000000726
 20
14.1000003495
 30
0.0
 11
1.0
 21
0.0
 31
0.0
 44
0.9
  1
3
 40
3.2
 41
2.4955223881
  0
MTEXT
  5
2D9
100
AcDbEntity
  8
FRAME
100
AcDbMText
 62
7
  6
BYLAYER
  7
TEXTSTYLE_2
 71
2
 72
1
 10
254.5000000726
 20
14.1000003495
 30
0.0
 11
1.0
 21
0.0
 31
0.0
 44
0.9
  1
4
 40
3.2
 41
2.4955223881
  0
MTEXT
  5
2DA
100
AcDbEntity
  8
FRAME
100
AcDbMText
 62
7
  6
BYLAYER
  7
TEXTSTYLE_2
 71
2
 72
1
 10
354.5000000726
 20
14.1000003495
 30
0.0
 11
1.0
 21
0.0
 31
0.0
 44
0.9
  1
5
 40
3.2
 41
2.4955223881
  0
MTEXT
  5
2DB
100
AcDbEntity
  8
FRAME
100
AcDbMText
 62
7
  6
BYLAYER
  7
TEXTSTYLE_2
 71
2
 72
1
 10
454.5000000726
 20
14.1000003495
 30
0.0
 11
1.0
 21
0.0
 31
0.0
 44
0.9
  1
6
 40
3.2
 41
2.4955223881
  0
MTEXT
  5
2DC
100
AcDbEntity
  8
FRAME
100
AcDbMText
 62
7
  6
BYLAYER
  7
TEXTSTYLE_2
 71
2
 72
1
 10
554.5000000726
 20
14.1000003495
 30
0.0
 11
1.0
 21
0.0
 31
0.0
 44
0.9
  1
7
 40
3.2
 41
2.4955223881
  0
MTEXT
  5
2DD
100
AcDbEntity
  8
0
100
AcDbMText
 62
7
  6
BYLAYER
  7
TEXTSTYLE_2
 71
1
 72
1
 10
497.73254006
 20
53.1751864516
 30
0.0
 11
1.0
 21
0.0
 31
0.0
 44
0.9
  1
도명
 40
2.2
 41
6.1567164179
  0
MTEXT
  5
2DE
100
AcDbEntity
  8
0
100
AcDbMText
 62
7
  6
BYLAYER
  7
TEXTSTYLE_2
 71
1
 72
1
 10
512.6606901246
 20
33.1345642318
 30
0.0
 11
1.0
 21
0.0
 31
0.0
 44
0.9
  1
도번
 40
2.2
 41
6.1567164179
  0
MTEXT
  5
2DF
100
AcDbEntity
  8
0
100
AcDbMText
 62
7
  6
BYLAYER
  7
TEXTSTYLE_2
 71
2
 72
1
 10
504.1417299862
 20
33.1335256886
 30
0.0
 11
1.0
 21
0.0
 31
0.0
 44
0.9
  1
도면크기
 40
2.2
 41
12.3134328358
  0
MTEXT
  5
2E0
100
AcDbEntity
  8
0
100
AcDbMText
 62
7
  6
BYLAYER
  7
TEXTSTYLE_2
 71
2
 72
1
 10
504.0512635446
 20
20.9189076908
 30
0.0
 11
1.0
 21
0.0
 31
0.0
 44
0.9
  1
3각법
 40
2.2
 41
7.8723880597
  0
MTEXT
  5
2E1
100
AcDbEntity
  8
0
100
AcDbMText
 62
7
  6
BYLAYER
  7
TEXTSTYLE_2
 71
1
 72
1
 10
437.7148386484
 20
66.2227536455
 30
0.0
 11
1.0
 21
0.0
 31
0.0
 44
0.9
  1
년월일
 40
2.2
 41
9.2350746269
  0
MTEXT
  5
2E2
100
AcDbEntity
  8
0
100
AcDbMText
 62
7
  6
BYLAYER
  7
TEXTSTYLE_2
 71
1
 72
1
 10
437.7229221024
 20
59.7396626031
 30
0.0
 11
1.0
 21
0.0
 31
0.0
 44
0.9
  1
승인부서
 40
2.2
 41
12.3134328358
  0
MTEXT
  5
2E3
100
AcDbEntity
  8
0
100
AcDbMText
 62
7
  6
BYLAYER
  7
TEXTSTYLE_2
 71
1
 72
1
 10
437.7758508487
 20
48.0173717675
 30
0.0
 11
1.0
 21
0.0
 31
0.0
 44
0.9
  1
검도
 40
2.2
 41
6.1567164179
  0
MTEXT
  5
2E4
100
AcDbEntity
  8
0
100
AcDbMText
 62
7
  6
BYLAYER
  7
TEXTSTYLE_2
 71
1
 72
1
 10
437.6850937193
 20
42.9855384645
 30
0.0
 11
1.0
 21
0.0
 31
0.0
 44
0.9
  1
제도
 40
2.2
 41
6.1567164179
  0
MTEXT
  5
2E5
100
AcDbEntity
  8
0
100
AcDbMText
 62
7
  6
BYLAYER
  7
TEXTSTYLE_2
 71
1
 72
1
 10
437.7242666192
 20
37.9633352034
 30
0.0
 11
1.0
 21
0.0
 31
0.0
 44
0.9
  1
설계
 40
2.2
 41
6.1567164179
  0
MTEXT
  5
2E6
100
AcDbEntity
  8
0
100
AcDbMText
 62
7
  6
BYLAYER
  7
TEXTSTYLE_2
 71
1
 72
1
 10
467.6950867804
 20
38.0158453841
 30
0.0
 11
1.0
 21
0.0
 31
0.0
 44
0.9
  1
승인
 40
2.2
 41
6.1567164179
  0
MTEXT
  5
2E7
100
AcDbEntity
  8
0
100
AcDbMText
 62
7
  6
BYLAYER
  7
TEXTSTYLE_2
 71
1
 72
1
 10
467.6583440391
 20
43.0164444256
 30
0.0
 11
1.0
 21
0.0
 31
0.0
 44
0.9
  1
검도
 40
2.2
 41
6.1567164179
  0
MTEXT
  5
2E8
100
AcDbEntity
  8
0
100
AcDbMText
 62
7
  6
BYLAYER
  7
TEXTSTYLE_2
 71
1
 72
1
 10
467.707362567
 20
47.9717420354
 30
0.0
 11
1.0
 21
0.0
 31
0.0
 44
0.9
  1
승인
 40
2.2
 41
6.1567164179
  0
MTEXT
  5
2E9
100
AcDbEntity
  8
0
100
AcDbMText
 62
7
  6
BYLAYER
  7
TEXTSTYLE_2
 71
1
 72
1
 10
437.7569256031
 20
33.2662309303
 30
0.0
 11
1.0
 21
0.0
 31
0.0
 44
0.9
  1
작성부서
 40
2.2
 41
12.3134328358
  0
MTEXT
  5
2EA
100
AcDbEntity
  8
0
100
AcDbMText
 62
7
  6
BYLAYER
  7
TEXTSTYLE_2
 71
1
 72
1
 10
437.7022550012
 20
23.3405639598
 30
0.0
 11
1.0
 21
0.0
 31
0.0
 44
0.9
  1
척도
 40
2.2
 41
6.1567164179
  0
MTEXT
  5
2EB
100
AcDbEntity
  8
0
100
AcDbMText
 62
7
  6
BYLAYER
  7
TEXTSTYLE_2
 71
1
 72
1
 10
457.6607253557
 20
23.3002068631
 30
0.0
 11
1.0
 21
0.0
 31
0.0
 44
0.9
  1
단위
 40
2.2
 41
6.1567164179
  0
MTEXT
  5
2EC
100
AcDbEntity
  8
0
100
AcDbMText
 62
7
  6
BYLAYER
  7
TEXTSTYLE_2
 71
1
 72
1
 10
477.6824653854
 20
23.3197008993
 30
0.0
 11
1.0
 21
0.0
 31
0.0
 44
0.9
  1
중량
 40
2.2
 41
6.1567164179
  0
MTEXT
  5
2ED
100
AcDbEntity
  8
0
100
AcDbMText
 62
7
  6
BYLAYER
  7
TEXTSTYLE_2
 71
1
 72
1
 10
382.7564655225
 20
66.2767541285
 30
0.0
 11
1.0
 21
0.0
 31
0.0
 44
0.9
  1
공통공차
 40
2.2
 41
12.3134328358
  0
MTEXT
  5
2EE
100
AcDbEntity
  8
0
100
AcDbMText
 62
7
  6
BYLAYER
  7
TEXTSTYLE_2
 71
1
 72
1
 10
395.6018238748
 20
65.3072587559
 30
0.0
 11
1.0
 21
0.0
 31
0.0
 44
0.9
  1
KS B ISO 2768-1
 40
1.3
 41
13.9604477612
  0
MTEXT
  5
2EF
100
AcDbEntity
  8
0
100
AcDbMText
 62
7
  6
BYLAYER
  7
TEXTSTYLE_2
 71
1
 72
1
 10
382.6825266912
 20
80.3286780545
 30
0.0
 11
1.0
 21
0.0
 31
0.0
 44
0.9
  1
대체가능재질
 40
2.2
 41
18.4701492537
  0
MTEXT
  5
2F0
100
AcDbEntity
  8
0
100
AcDbMText
 62
7
  6
BYLAYER
  7
TEXTSTYLE_2
 71
1
 72
1
 10
382.6866396164
 20
46.3146763613
 30
0.0
 11
1.0
 21
0.0
 31
0.0
 44
0.9
  1
재질
 40
2.2
 41
6.1567164179
  0
MTEXT
  5
2F1
100
AcDbEntity
  8
0
100
AcDbMText
 62
7
  6
BYLAYER
  7
TEXTSTYLE_2
 71
1
 72
1
 10
382.7021582345
 20
36.3087010938
 30
0.0
 11
1.0
 21
0.0
 31
0.0
 44
0.9
  1
열처리
 40
2.2
 41
9.2350746269
  0
MTEXT
  5
2F2
100
AcDbEntity
  8
0
100
AcDbMText
 62
7
  6
BYLAYER
  7
TEXTSTYLE_2
 71
1
 72
1
 10
382.6921409352
 20
26.3134056481
 30
0.0
 11
1.0
 21
0.0
 31
0.0
 44
0.9
  1
보호피막처리
 40
2.2
 41
18.4701492537
  0
MTEXT
  5
2F3
100
AcDbEntity
  8
0
100
AcDbMText
 62
7
  6
BYLAYER
  7
TEXTSTYLE_2
 71
1
 72
1
 10
312.6656929126
 20
66.3069529069
 30
0.0
 11
1.0
 21
0.0
 31
0.0
 44
0.9
  1
원도
 40
2.2
 41
6.1567164179
  0
MTEXT
  5
2F4
100
AcDbEntity
  8
0
100
AcDbMText
 62
7
  6
BYLAYER
  7
TEXTSTYLE_2
 71
1
 72
1
 10
312.6905867429
 20
22.3120682113
 30
0.0
 11
1.0
 21
0.0
 31
0.0
 44
0.9
  1
부품번호
 40
2.2
 41
12.3134328358
  0
MTEXT
  5
2F5
100
AcDbEntity
  8
0
100
AcDbMText
 62
7
  6
BYLAYER
  7
TEXTSTYLE_2
 71
1
 72
1
 10
347.6870208514
 20
22.2956955483
 30
0.0
 11
1.0
 21
0.0
 31
0.0
 44
0.9
  1
재고번호
 40
2.2
 41
12.3134328358
  0
LINE
  5
2F6
100
AcDbEntity
  8
FRAME
100
AcDbLine
 62
7
  6
BYLAYER
 10
0.0
 20
420.0
 11
0.0
 21
0.0
  0
LINE
  5
2F7
100
AcDbEntity
  8
FRAME
100
AcDbLine
 62
7
  6
BYLAYER
 10
10.0
 20
410.0
 11
10.0
 21
10.0
  0
LINE
  5
2F8
100
AcDbEntity
  8
FRAME
100
AcDbLine
 62
7
  6
BYLAYER
 10
25.0000000726
 20
208.8000003495
 11
25.0000000726
 21
211.2000003495
  0
LINE
  5
2F9
100
AcDbEntity
  8
FRAME
100
AcDbLine
 62
7
  6
BYLAYER
 10
27.5000000726
 20
207.5000003495
 11
27.5000000726
 21
208.8000003495
  0
LINE
  5
2FA
100
AcDbEntity
  8
FRAME
100
AcDbLine
 62
7
  6
BYLAYER
 10
27.5000000726
 20
211.2000003495
 11
27.5000000726
 21
212.5000003495
  0
LINE
  5
2FB
100
AcDbEntity
  8
FRAME
100
AcDbLine
 62
7
  6
BYLAYER
 10
30.0000000726
 20
15.0000003495
 11
30.0000000726
 21
405.0000003495
  0
LINE
  5
2FC
100
AcDbEntity
  8
FRAME
100
AcDbLine
 62
7
  6
BYLAYER
 10
30.3000000726
 20
15.3000003495
 11
30.3000000726
 21
404.7000003495
  0
LINE
  5
2FD
100
AcDbEntity
  8
FRAME
100
AcDbLine
 62
7
  6
BYLAYER
 10
30.6000000726
 20
15.6000003495
 11
30.6000000726
 21
404.4000003495
  0
LINE
  5
2FE
100
AcDbEntity
  8
FRAME
100
AcDbLine
 62
7
  6
BYLAYER
 10
30.9000000726
 20
15.9000003495
 11
30.9000000726
 21
404.1000003495
  0
LINE
  5
2FF
100
AcDbEntity
  8
FRAME
100
AcDbLine
 62
7
  6
BYLAYER
 10
31.2000000726
 20
16.2000003495
 11
31.2000000726
 21
403.8000003495
  0
LINE
  5
300
100
AcDbEntity
  8
FRAME
100
AcDbLine
 62
7
  6
BYLAYER
 10
31.5000000726
 20
16.5000003495
 11
31.5000000726
 21
403.5000003495
  0
LINE
  5
301
100
AcDbEntity
  8
FRAME
100
AcDbLine
 62
7
  6
BYLAYER
 10
31.8000000726
 20
16.8000003495
 11
31.8000000726
 21
403.2000003495
  0
LINE
  5
302
100
AcDbEntity
  8
FRAME
100
AcDbLine
 62
7
  6
BYLAYER
 10
32.1000000726
 20
17.1000003495
 11
32.1000000726
 21
402.9000003495
  0
LINE
  5
303
100
AcDbEntity
  8
FRAME
100
AcDbLine
 62
7
  6
BYLAYER
 10
32.4000000726
 20
17.4000003495
 11
32.4000000726
 21
402.6000003495
  0
LINE
  5
304
100
AcDbEntity
  8
FRAME
100
AcDbLine
 62
7
  6
BYLAYER
 10
0.0
 20
0.0
 11
594.0
 21
0.0
  0
LINE
  5
305
100
AcDbEntity
  8
FRAME
100
AcDbLine
 62
7
  6
BYLAYER
 10
104.5000000726
 20
10.0000003495
 11
104.5000000726
 21
15.0000003495
  0
LINE
  5
306
100
AcDbEntity
  8
FRAME
100
AcDbLine
 62
7
  6
BYLAYER
 10
104.5000000726
 20
405.0000003495
 11
104.5000000726
 21
410.0000003495
  0
LINE
  5
307
100
AcDbEntity
  8
FRAME
100
AcDbLine
 62
7
  6
BYLAYER
 10
27.5000000726
 20
207.5000003495
 11
30.0000000726
 21
210.0000003495
  0
LINE
  5
308
100
AcDbEntity
  8
FRAME
100
AcDbLine
 62
7
  6
BYLAYER
 10
10.0
 20
10.0
 11
584.0
 21
10.0
  0
LINE
  5
309
100
AcDbEntity
  8
FRAME
100
AcDbLine
 62
7
  6
BYLAYER
 10
302.0000000726
 20
12.5000003495
 11
303.5000000726
 21
12.5000003495
  0
LINE
  5
30A
100
AcDbEntity
  8
FRAME
100
AcDbLine
 62
7
  6
BYLAYER
 10
305.5000000726
 20
12.5000003495
 11
307.0000000726
 21
12.5000003495
  0
LINE
  5
30B
100
AcDbEntity
  8
FRAME
100
AcDbLine
 62
7
  6
BYLAYER
 10
30.0000000726
 20
15.0000003495
 11
579.0000000726
 21
15.0000003495
  0
LINE
  5
30C
100
AcDbEntity
  8
FRAME
100
AcDbLine
 62
7
  6
BYLAYER
 10
30.3000000726
 20
15.3000003495
 11
578.7000000726
 21
15.3000003495
  0
LINE
  5
30D
100
AcDbEntity
  8
FRAME
100
AcDbLine
 62
7
  6
BYLAYER
 10
30.6000000726
 20
15.6000003495
 11
578.4000000726
 21
15.6000003495
  0
LINE
  5
30E
100
AcDbEntity
  8
FRAME
100
AcDbLine
 62
7
  6
BYLAYER
 10
30.9000000726
 20
15.9000003495
 11
578.1000000726
 21
15.9000003495
  0
LINE
  5
30F
100
AcDbEntity
  8
FRAME
100
AcDbLine
 62
7
  6
BYLAYER
 10
31.2000000726
 20
16.2000003495
 11
577.8000000726
 21
16.2000003495
  0
LINE
  5
310
100
AcDbEntity
  8
FRAME
100
AcDbLine
 62
7
  6
BYLAYER
 10
31.5000000726
 20
16.5000003495
 11
577.5000000726
 21
16.5000003495
  0
LINE
  5
311
100
AcDbEntity
  8
FRAME
100
AcDbLine
 62
7
  6
BYLAYER
 10
31.8000000726
 20
16.8000003495
 11
577.2000000726
 21
16.8000003495
  0
LINE
  5
312
100
AcDbEntity
  8
FRAME
100
AcDbLine
 62
7
  6
BYLAYER
 10
32.1000000726
 20
17.1000003495
 11
576.9000000726
 21
17.1000003495
  0
LINE
  5
313
100
AcDbEntity
  8
FRAME
100
AcDbLine
 62
7
  6
BYLAYER
 10
32.4000000726
 20
17.4000003495
 11
576.6000000726
 21
17.4000003495
  0
LINE
  5
314
100
AcDbEntity
  8
FRAME
100
AcDbLine
 62
7
  6
BYLAYER
 10
27.5000000726
 20
212.5000003495
 11
30.0000000726
 21
210.0000003495
  0
LINE
  5
315
100
AcDbEntity
  8
FRAME
100
AcDbLine
 62
7
  6
BYLAYER
 10
500.2728884575
 20
57.8878301313
 11
502.1035067777
 21
57.8878301313
  0
LINE
  5
316
100
AcDbEntity
  8
FRAME
100
AcDbLine
 62
7
  6
BYLAYER
 10
511.029789705
 20
57.8878301313
 11
512.8604080251
 21
57.8878301313
  0
LINE
  5
317
100
AcDbEntity
  8
FRAME
100
AcDbLine
 62
7
  6
BYLAYER
 10
515.7042910954
 20
57.8878301313
 11
516.458136827
 21
57.8878301313
  0
LINE
  5
318
100
AcDbEntity
  8
FRAME
100
AcDbLine
 62
7
  6
BYLAYER
 10
519.8247040721
 20
57.8878301313
 11
521.0474008588
 21
57.8878301313
  0
LINE
  5
319
100
AcDbEntity
  8
FRAME
100
AcDbLine
 62
7
  6
BYLAYER
 10
521.5081660268
 20
57.8878301313
 11
522.2620117584
 21
57.8878301313
  0
LINE
  5
31A
100
AcDbEntity
  8
FRAME
100
AcDbLine
 62
7
  6
BYLAYER
 10
525.6285790036
 20
57.8878301313
 11
526.8512757903
 21
57.8878301313
  0
LINE
  5
31B
100
AcDbEntity
  8
FRAME
100
AcDbLine
 62
7
  6
BYLAYER
 10
527.3387251592
 20
57.8878301313
 11
527.8199756572
 21
57.8878301313
  0
LINE
  5
31C
100
AcDbEntity
  8
FRAME
100
AcDbLine
 62
7
  6
BYLAYER
 10
531.8943452012
 20
57.8878301313
 11
532.3755956992
 21
57.8878301313
  0
LINE
  5
31D
100
AcDbEntity
  8
FRAME
100
AcDbLine
 62
7
  6
BYLAYER
 10
501.422552147
 20
59.0374840988
 11
502.1035067777
 21
59.0374840988
  0
LINE
  5
31E
100
AcDbEntity
  8
FRAME
100
AcDbLine
 62
7
  6
BYLAYER
 10
512.1794533944
 20
59.0374840988
 11
512.8604080251
 21
59.0374840988
  0
LINE
  5
31F
100
AcDbEntity
  8
FRAME
100
AcDbLine
 62
7
  6
BYLAYER
 10
500.2728884575
 20
61.8024113053
 11
501.422552147
 21
61.8024113053
  0
LINE
  5
320
100
AcDbEntity
  8
FRAME
100
AcDbLine
 62
7
  6
BYLAYER
 10
511.029789705
 20
61.8024113053
 11
512.1794533944
 21
61.8024113053
  0
LINE
  5
321
100
AcDbEntity
  8
FRAME
100
AcDbLine
 62
7
  6
BYLAYER
 10
500.2728884575
 20
62.7381761626
 11
502.1076500647
 21
62.7381761626
  0
LINE
  5
322
100
AcDbEntity
  8
FRAME
100
AcDbLine
 62
7
  6
BYLAYER
 10
511.029789705
 20
62.7381761626
 11
512.8645513121
 21
62.7381761626
  0
LINE
  5
323
100
AcDbEntity
  8
FRAME
100
AcDbLine
 62
7
  6
BYLAYER
 10
524.6787631025
 20
63.8878301301
 11
522.5863180773
 21
63.8878301301
  0
LINE
  5
324
100
AcDbEntity
  8
FRAME
100
AcDbLine
 62
7
  6
BYLAYER
 10
518.874888171
 20
63.8878301301
 11
516.7824431458
 21
63.8878301301
  0
LINE
  5
325
100
AcDbEntity
  8
FRAME
100
AcDbLine
 62
7
  6
BYLAYER
 10
499.5948007921
 20
63.8878301301
 11
502.1076500647
 21
63.8878301301
  0
LINE
  5
326
100
AcDbEntity
  8
FRAME
100
AcDbLine
 62
7
  6
BYLAYER
 10
510.3517020396
 20
63.8878301301
 11
512.8645513121
 21
63.8878301301
  0
LINE
  5
327
100
AcDbEntity
  8
FRAME
100
AcDbLine
 62
7
  6
BYLAYER
 10
526.9138078074
 20
63.8878301301
 11
529.0375622437
 21
63.8878301301
  0
LINE
  5
328
100
AcDbEntity
  8
FRAME
100
AcDbLine
 62
7
  6
BYLAYER
 10
531.5692606823
 20
63.8878301301
 11
533.0439991687
 21
63.8878301301
  0
LINE
  5
329
100
AcDbEntity
  8
FRAME
100
AcDbLine
 62
7
  6
BYLAYER
 10
304.5000000726
 20
405.0000003495
 11
307.0000000726
 21
407.5000003495
  0
LINE
  5
32A
100
AcDbEntity
  8
FRAME
100
AcDbLine
 62
7
  6
BYLAYER
 10
304.5000000726
 20
15.0000003495
 11
307.0000000726
 21
12.5000003495
  0
LINE
  5
32B
100
AcDbEntity
  8
FRAME
100
AcDbLine
 62
7
  6
BYLAYER
 10
204.5000000726
 20
10.0000003495
 11
204.5000000726
 21
15.0000003495
  0
LINE
  5
32C
100
AcDbEntity
  8
FRAME
100
AcDbLine
 62
7
  6
BYLAYER
 10
204.5000000726
 20
405.0000003495
 11
204.5000000726
 21
410.0000003495
  0
LINE
  5
32D
100
AcDbEntity
  8
FRAME
100
AcDbLine
 62
7
  6
BYLAYER
 10
25.0000000726
 20
110.0000003495
 11
30.0000000726
 21
110.0000003495
  0
LINE
  5
32E
100
AcDbEntity
  8
FRAME
100
AcDbLine
 62
7
  6
BYLAYER
 10
579.0000000726
 20
110.0000003495
 11
584.0000000726
 21
110.0000003495
  0
LINE
  5
32F
100
AcDbEntity
  8
FRAME
100
AcDbLine
 62
7
  6
BYLAYER
 10
27.5000000726
 20
207.6000003495
 11
27.6000000726
 21
207.6000003495
  0
LINE
  5
330
100
AcDbEntity
  8
FRAME
100
AcDbLine
 62
7
  6
BYLAYER
 10
581.4000000726
 20
207.6000003495
 11
581.5000000726
 21
207.6000003495
  0
LINE
  5
331
100
AcDbEntity
  8
FRAME
100
AcDbLine
 62
7
  6
BYLAYER
 10
27.5000000726
 20
207.8000003495
 11
27.8000000726
 21
207.8000003495
  0
LINE
  5
332
100
AcDbEntity
  8
FRAME
100
AcDbLine
 62
7
  6
BYLAYER
 10
581.2000000726
 20
207.8000003495
 11
581.5000000726
 21
207.8000003495
  0
LINE
  5
333
100
AcDbEntity
  8
FRAME
100
AcDbLine
 62
7
  6
BYLAYER
 10
27.5000000726
 20
208.0000003495
 11
28.0000000726
 21
208.0000003495
  0
LINE
  5
334
100
AcDbEntity
  8
FRAME
100
AcDbLine
 62
7
  6
BYLAYER
 10
581.0000000726
 20
208.0000003495
 11
581.5000000726
 21
208.0000003495
  0
LINE
  5
335
100
AcDbEntity
  8
FRAME
100
AcDbLine
 62
7
  6
BYLAYER
 10
27.5000000726
 20
208.2000003495
 11
28.2000000726
 21
208.2000003495
  0
LINE
  5
336
100
AcDbEntity
  8
FRAME
100
AcDbLine
 62
7
  6
BYLAYER
 10
580.8000000726
 20
208.2000003495
 11
581.5000000726
 21
208.2000003495
  0
LINE
  5
337
100
AcDbEntity
  8
FRAME
100
AcDbLine
 62
7
  6
BYLAYER
 10
27.5000000726
 20
208.4000003495
 11
28.4000000726
 21
208.4000003495
  0
LINE
  5
338
100
AcDbEntity
  8
FRAME
100
AcDbLine
 62
7
  6
BYLAYER
 10
580.6000000726
 20
208.4000003495
 11
581.5000000726
 21
208.4000003495
  0
LINE
  5
339
100
AcDbEntity
  8
FRAME
100
AcDbLine
 62
7
  6
BYLAYER
 10
27.5000000726
 20
208.6000003495
 11
28.6000000726
 21
208.6000003495
  0
LINE
  5
33A
100
AcDbEntity
  8
FRAME
100
AcDbLine
 62
7
  6
BYLAYER
 10
580.4000000726
 20
208.6000003495
 11
581.5000000726
 21
208.6000003495
  0
LINE
  5
33B
100
AcDbEntity
  8
FRAME
100
AcDbLine
 62
7
  6
BYLAYER
 10
25.0000000726
 20
208.8000003495
 11
28.8000000726
 21
208.8000003495
  0
LINE
  5
33C
100
AcDbEntity
  8
FRAME
100
AcDbLine
 62
7
  6
BYLAYER
 10
580.2000000726
 20
208.8000003495
 11
584.0000000726
 21
208.8000003495
  0
LINE
  5
33D
100
AcDbEntity
  8
FRAME
100
AcDbLine
 62
7
  6
BYLAYER
 10
25.0000000726
 20
209.0000003495
 11
29.0000000726
 21
209.0000003495
  0
LINE
  5
33E
100
AcDbEntity
  8
FRAME
100
AcDbLine
 62
7
  6
BYLAYER
 10
580.0000000726
 20
209.0000003495
 11
584.0000000726
 21
209.0000003495
  0
LINE
  5
33F
100
AcDbEntity
  8
FRAME
100
AcDbLine
 62
7
  6
BYLAYER
 10
25.0000000726
 20
209.2000003495
 11
29.2000000726
 21
209.2000003495
  0
LINE
  5
340
100
AcDbEntity
  8
FRAME
100
AcDbLine
 62
7
  6
BYLAYER
 10
579.8000000726
 20
209.2000003495
 11
584.0000000726
 21
209.2000003495
  0
LINE
  5
341
100
AcDbEntity
  8
FRAME
100
AcDbLine
 62
7
  6
BYLAYER
 10
25.0000000726
 20
209.4000003495
 11
29.4000000726
 21
209.4000003495
  0
LINE
  5
342
100
AcDbEntity
  8
FRAME
100
AcDbLine
 62
7
  6
BYLAYER
 10
579.6000000726
 20
209.4000003495
 11
584.0000000726
 21
209.4000003495
  0
LINE
  5
343
100
AcDbEntity
  8
FRAME
100
AcDbLine
 62
7
  6
BYLAYER
 10
25.0000000726
 20
209.6000003495
 11
29.6000000726
 21
209.6000003495
  0
LINE
  5
344
100
AcDbEntity
  8
FRAME
100
AcDbLine
 62
7
  6
BYLAYER
 10
579.4000000726
 20
209.6000003495
 11
584.0000000726
 21
209.6000003495
  0
LINE
  5
345
100
AcDbEntity
  8
FRAME
100
AcDbLine
 62
7
  6
BYLAYER
 10
25.0000000726
 20
209.8000003495
 11
29.8000000726
 21
209.8000003495
  0
LINE
  5
346
100
AcDbEntity
  8
FRAME
100
AcDbLine
 62
7
  6
BYLAYER
 10
579.2000000726
 20
209.8000003495
 11
584.0000000726
 21
209.8000003495
  0
LINE
  5
347
100
AcDbEntity
  8
FRAME
100
AcDbLine
 62
7
  6
BYLAYER
 10
25.0000000726
 20
210.0000003495
 11
30.0000000726
 21
210.0000003495
  0
LINE
  5
348
100
AcDbEntity
  8
FRAME
100
AcDbLine
 62
7
  6
BYLAYER
 10
579.0000000726
 20
210.0000003495
 11
584.0000000726
 21
210.0000003495
  0
LINE
  5
349
100
AcDbEntity
  8
FRAME
100
AcDbLine
 62
7
  6
BYLAYER
 10
25.0000000726
 20
210.2000003495
 11
29.8000000726
 21
210.2000003495
  0
LINE
  5
34A
100
AcDbEntity
  8
FRAME
100
AcDbLine
 62
7
  6
BYLAYER
 10
579.2000000726
 20
210.2000003495
 11
584.0000000726
 21
210.2000003495
  0
LINE
  5
34B
100
AcDbEntity
  8
FRAME
100
AcDbLine
 62
7
  6
BYLAYER
 10
25.0000000726
 20
210.4000003495
 11
29.6000000726
 21
210.4000003495
  0
LINE
  5
34C
100
AcDbEntity
  8
FRAME
100
AcDbLine
 62
7
  6
BYLAYER
 10
579.4000000726
 20
210.4000003495
 11
584.0000000726
 21
210.4000003495
  0
LINE
  5
34D
100
AcDbEntity
  8
FRAME
100
AcDbLine
 62
7
  6
BYLAYER
 10
25.0000000726
 20
210.6000003495
 11
29.4000000726
 21
210.6000003495
  0
LINE
  5
34E
100
AcDbEntity
  8
FRAME
100
AcDbLine
 62
7
  6
BYLAYER
 10
579.6000000726
 20
210.6000003495
 11
584.0000000726
 21
210.6000003495
  0
LINE
  5
34F
100
AcDbEntity
  8
FRAME
100
AcDbLine
 62
7
  6
BYLAYER
 10
25.0000000726
 20
210.8000003495
 11
29.2000000726
 21
210.8000003495
  0
LINE
  5
350
100
AcDbEntity
  8
FRAME
100
AcDbLine
 62
7
  6
BYLAYER
 10
579.8000000726
 20
210.8000003495
 11
584.0000000726
 21
210.8000003495
  0
LINE
  5
351
100
AcDbEntity
  8
FRAME
100
AcDbLine
 62
7
  6
BYLAYER
 10
25.0000000726
 20
211.0000003495
 11
29.0000000726
 21
211.0000003495
  0
LINE
  5
352
100
AcDbEntity
  8
FRAME
100
AcDbLine
 62
7
  6
BYLAYER
 10
580.0000000726
 20
211.0000003495
 11
584.0000000726
 21
211.0000003495
  0
LINE
  5
353
100
AcDbEntity
  8
FRAME
100
AcDbLine
 62
7
  6
BYLAYER
 10
25.0000000726
 20
211.2000003495
 11
28.8000000726
 21
211.2000003495
  0
LINE
  5
354
100
AcDbEntity
  8
FRAME
100
AcDbLine
 62
7
  6
BYLAYER
 10
580.2000000726
 20
211.2000003495
 11
584.0000000726
 21
211.2000003495
  0
LINE
  5
355
100
AcDbEntity
  8
FRAME
100
AcDbLine
 62
7
  6
BYLAYER
 10
27.5000000726
 20
211.4000003495
 11
28.6000000726
 21
211.4000003495
  0
LINE
  5
356
100
AcDbEntity
  8
FRAME
100
AcDbLine
 62
7
  6
BYLAYER
 10
580.4000000726
 20
211.4000003495
 11
581.5000000726
 21
211.4000003495
  0
LINE
  5
357
100
AcDbEntity
  8
FRAME
100
AcDbLine
 62
7
  6
BYLAYER
 10
27.5000000726
 20
211.6000003495
 11
28.4000000726
 21
211.6000003495
  0
LINE
  5
358
100
AcDbEntity
  8
FRAME
100
AcDbLine
 62
7
  6
BYLAYER
 10
580.6000000726
 20
211.6000003495
 11
581.5000000726
 21
211.6000003495
  0
LINE
  5
359
100
AcDbEntity
  8
FRAME
100
AcDbLine
 62
7
  6
BYLAYER
 10
27.5000000726
 20
211.8000003495
 11
28.2000000726
 21
211.8000003495
  0
LINE
  5
35A
100
AcDbEntity
  8
FRAME
100
AcDbLine
 62
7
  6
BYLAYER
 10
580.8000000726
 20
211.8000003495
 11
581.5000000726
 21
211.8000003495
  0
LINE
  5
35B
100
AcDbEntity
  8
FRAME
100
AcDbLine
 62
7
  6
BYLAYER
 10
27.5000000726
 20
212.0000003495
 11
28.0000000726
 21
212.0000003495
  0
LINE
  5
35C
100
AcDbEntity
  8
FRAME
100
AcDbLine
 62
7
  6
BYLAYER
 10
581.0000000726
 20
212.0000003495
 11
581.5000000726
 21
212.0000003495
  0
LINE
  5
35D
100
AcDbEntity
  8
FRAME
100
AcDbLine
 62
7
  6
BYLAYER
 10
27.5000000726
 20
212.2000003495
 11
27.8000000726
 21
212.2000003495
  0
LINE
  5
35E
100
AcDbEntity
  8
FRAME
100
AcDbLine
 62
7
  6
BYLAYER
 10
581.2000000726
 20
212.2000003495
 11
581.5000000726
 21
212.2000003495
  0
LINE
  5
35F
100
AcDbEntity
  8
FRAME
100
AcDbLine
 62
7
  6
BYLAYER
 10
27.5000000726
 20
212.4000003495
 11
27.6000000726
 21
212.4000003495
  0
LINE
  5
360
100
AcDbEntity
  8
FRAME
100
AcDbLine
 62
7
  6
BYLAYER
 10
581.4000000726
 20
212.4000003495
 11
581.5000000726
 21
212.4000003495
  0
LINE
  5
361
100
AcDbEntity
  8
FRAME
100
AcDbLine
 62
7
  6
BYLAYER
 10
302.1000000726
 20
12.5000003495
 11
302.1000000726
 21
12.6000003495
  0
LINE
  5
362
100
AcDbEntity
  8
FRAME
100
AcDbLine
 62
7
  6
BYLAYER
 10
302.1000000726
 20
407.4000003495
 11
302.1000000726
 21
407.5000003495
  0
LINE
  5
363
100
AcDbEntity
  8
FRAME
100
AcDbLine
 62
7
  6
BYLAYER
 10
302.3000000726
 20
12.5000003495
 11
302.3000000726
 21
12.8000003495
  0
LINE
  5
364
100
AcDbEntity
  8
FRAME
100
AcDbLine
 62
7
  6
BYLAYER
 10
302.3000000726
 20
407.2000003495
 11
302.3000000726
 21
407.5000003495
  0
LINE
  5
365
100
AcDbEntity
  8
FRAME
100
AcDbLine
 62
7
  6
BYLAYER
 10
302.5000000726
 20
12.5000003495
 11
302.5000000726
 21
13.0000003495
  0
LINE
  5
366
100
AcDbEntity
  8
FRAME
100
AcDbLine
 62
7
  6
BYLAYER
 10
302.5000000726
 20
407.0000003495
 11
302.5000000726
 21
407.5000003495
  0
LINE
  5
367
100
AcDbEntity
  8
FRAME
100
AcDbLine
 62
7
  6
BYLAYER
 10
302.7000000726
 20
12.5000003495
 11
302.7000000726
 21
13.2000003495
  0
LINE
  5
368
100
AcDbEntity
  8
FRAME
100
AcDbLine
 62
7
  6
BYLAYER
 10
302.7000000726
 20
406.8000003495
 11
302.7000000726
 21
407.5000003495
  0
LINE
  5
369
100
AcDbEntity
  8
FRAME
100
AcDbLine
 62
7
  6
BYLAYER
 10
302.9000000726
 20
12.5000003495
 11
302.9000000726
 21
13.4000003495
  0
LINE
  5
36A
100
AcDbEntity
  8
FRAME
100
AcDbLine
 62
7
  6
BYLAYER
 10
302.9000000726
 20
406.6000003495
 11
302.9000000726
 21
407.5000003495
  0
LINE
  5
36B
100
AcDbEntity
  8
FRAME
100
AcDbLine
 62
7
  6
BYLAYER
 10
303.1000000726
 20
12.5000003495
 11
303.1000000726
 21
13.6000003495
  0
LINE
  5
36C
100
AcDbEntity
  8
FRAME
100
AcDbLine
 62
7
  6
BYLAYER
 10
303.1000000726
 20
406.4000003495
 11
303.1000000726
 21
407.5000003495
  0
LINE
  5
36D
100
AcDbEntity
  8
FRAME
100
AcDbLine
 62
7
  6
BYLAYER
 10
303.3000000726
 20
10.0000003495
 11
303.3000000726
 21
13.8000003495
  0
LINE
  5
36E
100
AcDbEntity
  8
FRAME
100
AcDbLine
 62
7
  6
BYLAYER
 10
303.3000000726
 20
406.2000003495
 11
303.3000000726
 21
410.0000003495
  0
LINE
  5
36F
100
AcDbEntity
  8
FRAME
100
AcDbLine
 62
7
  6
BYLAYER
 10
303.5000000726
 20
10.0000003495
 11
303.5000000726
 21
14.0000003495
  0
LINE
  5
370
100
AcDbEntity
  8
FRAME
100
AcDbLine
 62
7
  6
BYLAYER
 10
303.5000000726
 20
406.0000003495
 11
303.5000000726
 21
410.0000003495
  0
LINE
  5
371
100
AcDbEntity
  8
FRAME
100
AcDbLine
 62
7
  6
BYLAYER
 10
303.7000000726
 20
10.0000003495
 11
303.7000000726
 21
14.2000003495
  0
LINE
  5
372
100
AcDbEntity
  8
FRAME
100
AcDbLine
 62
7
  6
BYLAYER
 10
303.7000000726
 20
405.8000003495
 11
303.7000000726
 21
410.0000003495
  0
LINE
  5
373
100
AcDbEntity
  8
FRAME
100
AcDbLine
 62
7
  6
BYLAYER
 10
303.9000000726
 20
10.0000003495
 11
303.9000000726
 21
14.4000003495
  0
LINE
  5
374
100
AcDbEntity
  8
FRAME
100
AcDbLine
 62
7
  6
BYLAYER
 10
303.9000000726
 20
405.6000003495
 11
303.9000000726
 21
410.0000003495
  0
LINE
  5
375
100
AcDbEntity
  8
FRAME
100
AcDbLine
 62
7
  6
BYLAYER
 10
304.1000000726
 20
10.0000003495
 11
304.1000000726
 21
14.6000003495
  0
LINE
  5
376
100
AcDbEntity
  8
FRAME
100
AcDbLine
 62
7
  6
BYLAYER
 10
304.1000000726
 20
405.4000003495
 11
304.1000000726
 21
410.0000003495
  0
LINE
  5
377
100
AcDbEntity
  8
FRAME
100
AcDbLine
 62
7
  6
BYLAYER
 10
304.3000000726
 20
10.0000003495
 11
304.3000000726
 21
14.8000003495
  0
LINE
  5
378
100
AcDbEntity
  8
FRAME
100
AcDbLine
 62
7
  6
BYLAYER
 10
304.3000000726
 20
405.2000003495
 11
304.3000000726
 21
410.0000003495
  0
LINE
  5
379
100
AcDbEntity
  8
FRAME
100
AcDbLine
 62
7
  6
BYLAYER
 10
304.5000000726
 20
10.0000003495
 11
304.5000000726
 21
15.0000003495
  0
LINE
  5
37A
100
AcDbEntity
  8
FRAME
100
AcDbLine
 62
7
  6
BYLAYER
 10
304.5000000726
 20
405.0000003495
 11
304.5000000726
 21
410.0000003495
  0
LINE
  5
37B
100
AcDbEntity
  8
FRAME
100
AcDbLine
 62
7
  6
BYLAYER
 10
304.7000000726
 20
10.0000003495
 11
304.7000000726
 21
14.8000003495
  0
LINE
  5
37C
100
AcDbEntity
  8
FRAME
100
AcDbLine
 62
7
  6
BYLAYER
 10
304.7000000726
 20
405.2000003495
 11
304.7000000726
 21
410.0000003495
  0
LINE
  5
37D
100
AcDbEntity
  8
FRAME
100
AcDbLine
 62
7
  6
BYLAYER
 10
304.9000000726
 20
10.0000003495
 11
304.9000000726
 21
14.6000003495
  0
LINE
  5
37E
100
AcDbEntity
  8
FRAME
100
AcDbLine
 62
7
  6
BYLAYER
 10
304.9000000726
 20
405.4000003495
 11
304.9000000726
 21
410.0000003495
  0
LINE
  5
37F
100
AcDbEntity
  8
FRAME
100
AcDbLine
 62
7
  6
BYLAYER
 10
305.1000000726
 20
10.0000003495
 11
305.1000000726
 21
14.4000003495
  0
LINE
  5
380
100
AcDbEntity
  8
FRAME
100
AcDbLine
 62
7
  6
BYLAYER
 10
305.1000000726
 20
405.6000003495
 11
305.1000000726
 21
410.0000003495
  0
LINE
  5
381
100
AcDbEntity
  8
FRAME
100
AcDbLine
 62
7
  6
BYLAYER
 10
305.3000000726
 20
10.0000003495
 11
305.3000000726
 21
14.2000003495
  0
LINE
  5
382
100
AcDbEntity
  8
FRAME
100
AcDbLine
 62
7
  6
BYLAYER
 10
305.3000000726
 20
405.8000003495
 11
305.3000000726
 21
410.0000003495
  0
LINE
  5
383
100
AcDbEntity
  8
FRAME
100
AcDbLine
 62
7
  6
BYLAYER
 10
305.5000000726
 20
10.0000003495
 11
305.5000000726
 21
14.0000003495
  0
LINE
  5
384
100
AcDbEntity
  8
FRAME
100
AcDbLine
 62
7
  6
BYLAYER
 10
305.5000000726
 20
406.0000003495
 11
305.5000000726
 21
410.0000003495
  0
LINE
  5
385
100
AcDbEntity
  8
FRAME
100
AcDbLine
 62
7
  6
BYLAYER
 10
305.7000000726
 20
10.0000003495
 11
305.7000000726
 21
13.8000003495
  0
LINE
  5
386
100
AcDbEntity
  8
FRAME
100
AcDbLine
 62
7
  6
BYLAYER
 10
305.7000000726
 20
406.2000003495
 11
305.7000000726
 21
410.0000003495
  0
LINE
  5
387
100
AcDbEntity
  8
FRAME
100
AcDbLine
 62
7
  6
BYLAYER
 10
305.9000000726
 20
12.5000003495
 11
305.9000000726
 21
13.6000003495
  0
LINE
  5
388
100
AcDbEntity
  8
FRAME
100
AcDbLine
 62
7
  6
BYLAYER
 10
305.9000000726
 20
406.4000003495
 11
305.9000000726
 21
407.5000003495
  0
LINE
  5
389
100
AcDbEntity
  8
FRAME
100
AcDbLine
 62
7
  6
BYLAYER
 10
306.1000000726
 20
12.5000003495
 11
306.1000000726
 21
13.4000003495
  0
LINE
  5
38A
100
AcDbEntity
  8
FRAME
100
AcDbLine
 62
7
  6
BYLAYER
 10
306.1000000726
 20
406.6000003495
 11
306.1000000726
 21
407.5000003495
  0
LINE
  5
38B
100
AcDbEntity
  8
FRAME
100
AcDbLine
 62
7
  6
BYLAYER
 10
306.3000000726
 20
12.5000003495
 11
306.3000000726
 21
13.2000003495
  0
LINE
  5
38C
100
AcDbEntity
  8
FRAME
100
AcDbLine
 62
7
  6
BYLAYER
 10
306.3000000726
 20
406.8000003495
 11
306.3000000726
 21
407.5000003495
  0
LINE
  5
38D
100
AcDbEntity
  8
FRAME
100
AcDbLine
 62
7
  6
BYLAYER
 10
306.5000000726
 20
12.5000003495
 11
306.5000000726
 21
13.0000003495
  0
LINE
  5
38E
100
AcDbEntity
  8
FRAME
100
AcDbLine
 62
7
  6
BYLAYER
 10
306.5000000726
 20
407.0000003495
 11
306.5000000726
 21
407.5000003495
  0
LINE
  5
38F
100
AcDbEntity
  8
FRAME
100
AcDbLine
 62
7
  6
BYLAYER
 10
306.7000000726
 20
12.5000003495
 11
306.7000000726
 21
12.8000003495
  0
LINE
  5
390
100
AcDbEntity
  8
FRAME
100
AcDbLine
 62
7
  6
BYLAYER
 10
306.7000000726
 20
407.2000003495
 11
306.7000000726
 21
407.5000003495
  0
LINE
  5
391
100
AcDbEntity
  8
FRAME
100
AcDbLine
 62
7
  6
BYLAYER
 10
306.9000000726
 20
12.5000003495
 11
306.9000000726
 21
12.6000003495
  0
LINE
  5
392
100
AcDbEntity
  8
FRAME
100
AcDbLine
 62
7
  6
BYLAYER
 10
306.9000000726
 20
407.4000003495
 11
306.9000000726
 21
407.5000003495
  0
LINE
  5
393
100
AcDbEntity
  8
FRAME
100
AcDbLine
 62
7
  6
BYLAYER
 10
25.0000000726
 20
310.0000003495
 11
30.0000000726
 21
310.0000003495
  0
LINE
  5
394
100
AcDbEntity
  8
FRAME
100
AcDbLine
 62
7
  6
BYLAYER
 10
579.0000000726
 20
310.0000003495
 11
584.0000000726
 21
310.0000003495
  0
LINE
  5
395
100
AcDbEntity
  8
FRAME
100
AcDbLine
 62
7
  6
BYLAYER
 10
500.2728884575
 20
62.7381761626
 11
499.5948007921
 21
63.8878301301
  0
LINE
  5
396
100
AcDbEntity
  8
FRAME
100
AcDbLine
 62
7
  6
BYLAYER
 10
404.5000000726
 20
10.0000003495
 11
404.5000000726
 21
15.0000003495
  0
LINE
  5
397
100
AcDbEntity
  8
FRAME
100
AcDbLine
 62
7
  6
BYLAYER
 10
404.5000000726
 20
405.0000003495
 11
404.5000000726
 21
410.0000003495
  0
LINE
  5
398
100
AcDbEntity
  8
FRAME
100
AcDbLine
 62
7
  6
BYLAYER
 10
511.029789705
 20
62.7381761626
 11
510.3517020396
 21
63.8878301301
  0
LINE
  5
399
100
AcDbEntity
  8
FRAME
100
AcDbLine
 62
7
  6
BYLAYER
 10
517.4605308113
 20
62.7381761626
 11
516.7824431458
 21
63.8878301301
  0
LINE
  5
39A
100
AcDbEntity
  8
FRAME
100
AcDbLine
 62
7
  6
BYLAYER
 10
523.2644057427
 20
62.7381761626
 11
522.5863180773
 21
63.8878301301
  0
LINE
  5
39B
100
AcDbEntity
  8
FRAME
100
AcDbLine
 62
7
  6
BYLAYER
 10
527.3387251592
 20
63.167410125
 11
526.9138078074
 21
63.8878301301
  0
LINE
  5
39C
100
AcDbEntity
  8
FRAME
100
AcDbLine
 62
7
  6
BYLAYER
 10
302.0000000726
 20
12.5000003495
 11
304.5000000726
 21
15.0000003495
  0
LINE
  5
39D
100
AcDbEntity
  8
FRAME
100
AcDbLine
 62
7
  6
BYLAYER
 10
302.0000000726
 20
407.5000003495
 11
304.5000000726
 21
405.0000003495
  0
LINE
  5
39E
100
AcDbEntity
  8
FRAME
100
AcDbLine
 62
7
  6
BYLAYER
 10
519.8247040721
 20
57.8878301313
 11
518.3758459771
 21
61.8892560457
  0
LINE
  5
39F
100
AcDbEntity
  8
FRAME
100
AcDbLine
 62
7
  6
BYLAYER
 10
521.0474008588
 20
57.8878301313
 11
518.874888171
 21
63.8878301301
  0
LINE
  5
3A0
100
AcDbEntity
  8
FRAME
100
AcDbLine
 62
7
  6
BYLAYER
 10
525.6285790036
 20
57.8878301313
 11
524.1797209086
 21
61.8892560457
  0
LINE
  5
3A1
100
AcDbEntity
  8
FRAME
100
AcDbLine
 62
7
  6
BYLAYER
 10
526.8512757903
 20
57.8878301313
 11
524.6787631025
 21
63.8878301301
  0
LINE
  5
3A2
100
AcDbEntity
  8
FRAME
100
AcDbLine
 62
7
  6
BYLAYER
 10
528.4883791267
 20
62.0471564571
 11
529.668389481
 21
58.4548065109
  0
LINE
  5
3A3
100
AcDbEntity
  8
FRAME
100
AcDbLine
 62
7
  6
BYLAYER
 10
529.0375622437
 20
63.8878301301
 11
530.303411463
 21
60.0341576954
  0
LINE
  5
3A4
100
AcDbEntity
  8
FRAME
100
AcDbLine
 62
7
  6
BYLAYER
 10
500.2728884575
 20
57.8878301313
 11
500.2728884575
 21
61.8024113053
  0
LINE
  5
3A5
100
AcDbEntity
  8
FRAME
100
AcDbLine
 62
7
  6
BYLAYER
 10
501.422552147
 20
61.8024113053
 11
501.422552147
 21
59.0374840988
  0
LINE
  5
3A6
100
AcDbEntity
  8
FRAME
100
AcDbLine
 62
7
  6
BYLAYER
 10
504.5000000726
 20
10.0000003495
 11
504.5000000726
 21
15.0000003495
  0
LINE
  5
3A7
100
AcDbEntity
  8
FRAME
100
AcDbLine
 62
7
  6
BYLAYER
 10
504.5000000726
 20
405.0000003495
 11
504.5000000726
 21
410.0000003495
  0
LINE
  5
3A8
100
AcDbEntity
  8
FRAME
100
AcDbLine
 62
7
  6
BYLAYER
 10
579.0000000726
 20
210.0000003495
 11
581.5000000726
 21
212.5000003495
  0
LINE
  5
3A9
100
AcDbEntity
  8
FRAME
100
AcDbLine
 62
7
  6
BYLAYER
 10
32.4000000726
 20
402.6000003495
 11
576.6000000726
 21
402.6000003495
  0
LINE
  5
3AA
100
AcDbEntity
  8
FRAME
100
AcDbLine
 62
7
  6
BYLAYER
 10
32.1000000726
 20
402.9000003495
 11
576.9000000726
 21
402.9000003495
  0
LINE
  5
3AB
100
AcDbEntity
  8
FRAME
100
AcDbLine
 62
7
  6
BYLAYER
 10
31.8000000726
 20
403.2000003495
 11
577.2000000726
 21
403.2000003495
  0
LINE
  5
3AC
100
AcDbEntity
  8
FRAME
100
AcDbLine
 62
7
  6
BYLAYER
 10
31.5000000726
 20
403.5000003495
 11
577.5000000726
 21
403.5000003495
  0
LINE
  5
3AD
100
AcDbEntity
  8
FRAME
100
AcDbLine
 62
7
  6
BYLAYER
 10
31.2000000726
 20
403.8000003495
 11
577.8000000726
 21
403.8000003495
  0
LINE
  5
3AE
100
AcDbEntity
  8
FRAME
100
AcDbLine
 62
7
  6
BYLAYER
 10
30.9000000726
 20
404.1000003495
 11
578.1000000726
 21
404.1000003495
  0
LINE
  5
3AF
100
AcDbEntity
  8
FRAME
100
AcDbLine
 62
7
  6
BYLAYER
 10
30.6000000726
 20
404.4000003495
 11
578.4000000726
 21
404.4000003495
  0
LINE
  5
3B0
100
AcDbEntity
  8
FRAME
100
AcDbLine
 62
7
  6
BYLAYER
 10
30.3000000726
 20
404.7000003495
 11
578.7000000726
 21
404.7000003495
  0
LINE
  5
3B1
100
AcDbEntity
  8
FRAME
100
AcDbLine
 62
7
  6
BYLAYER
 10
30.0000000726
 20
405.0000003495
 11
579.0000000726
 21
405.0000003495
  0
LINE
  5
3B2
100
AcDbEntity
  8
FRAME
100
AcDbLine
 62
7
  6
BYLAYER
 10
302.0000000726
 20
407.5000003495
 11
303.3000000726
 21
407.5000003495
  0
LINE
  5
3B3
100
AcDbEntity
  8
FRAME
100
AcDbLine
 62
7
  6
BYLAYER
 10
305.7000000726
 20
407.5000003495
 11
307.0000000726
 21
407.5000003495
  0
LINE
  5
3B4
100
AcDbEntity
  8
FRAME
100
AcDbLine
 62
7
  6
BYLAYER
 10
584.0
 20
410.0
 11
10.0
 21
410.0
  0
LINE
  5
3B5
100
AcDbEntity
  8
FRAME
100
AcDbLine
 62
7
  6
BYLAYER
 10
594.0
 20
420.0
 11
0.0
 21
420.0
  0
LINE
  5
3B6
100
AcDbEntity
  8
FRAME
100
AcDbLine
 62
7
  6
BYLAYER
 10
579.0000000726
 20
210.0000003495
 11
581.5000000726
 21
207.5000003495
  0
LINE
  5
3B7
100
AcDbEntity
  8
FRAME
100
AcDbLine
 62
7
  6
BYLAYER
 10
511.029789705
 20
57.8878301313
 11
511.029789705
 21
61.8024113053
  0
LINE
  5
3B8
100
AcDbEntity
  8
FRAME
100
AcDbLine
 62
7
  6
BYLAYER
 10
512.1794533944
 20
61.8024113053
 11
512.1794533944
 21
59.0374840988
  0
LINE
  5
3B9
100
AcDbEntity
  8
FRAME
100
AcDbLine
 62
7
  6
BYLAYER
 10
527.3387251592
 20
57.8878301313
 11
527.3387251592
 21
63.167410125
  0
LINE
  5
3BA
100
AcDbEntity
  8
FRAME
100
AcDbLine
 62
7
  6
BYLAYER
 10
528.4883791267
 20
58.5562336008
 11
528.4883791267
 21
62.0471564571
  0
LINE
  5
3BB
100
AcDbEntity
  8
FRAME
100
AcDbLine
 62
7
  6
BYLAYER
 10
531.8943452012
 20
61.3649246581
 11
531.8943452012
 21
57.8878301313
  0
LINE
  5
3BC
100
AcDbEntity
  8
FRAME
100
AcDbLine
 62
7
  6
BYLAYER
 10
533.0439991687
 20
63.8878301301
 11
533.0439991687
 21
58.5562336008
  0
LINE
  5
3BD
100
AcDbEntity
  8
FRAME
100
AcDbLine
 62
7
  6
BYLAYER
 10
499.6621494561
 20
63.7736448077
 11
499.7763347785
 21
63.8878301301
  0
LINE
  5
3BE
100
AcDbEntity
  8
FRAME
100
AcDbLine
 62
7
  6
BYLAYER
 10
499.8287321064
 20
63.491214652
 11
500.2253475846
 21
63.8878301301
  0
LINE
  5
3BF
100
AcDbEntity
  8
FRAME
100
AcDbLine
 62
7
  6
BYLAYER
 10
499.9953147568
 20
63.2087844963
 11
500.6743603906
 21
63.8878301301
  0
LINE
  5
3C0
100
AcDbEntity
  8
FRAME
100
AcDbLine
 62
7
  6
BYLAYER
 10
500.1618974072
 20
62.9263543406
 11
501.1233731967
 21
63.8878301301
  0
LINE
  5
3C1
100
AcDbEntity
  8
FRAME
100
AcDbLine
 62
7
  6
BYLAYER
 10
500.4227320352
 20
62.7381761626
 11
501.5723860027
 21
63.8878301301
  0
LINE
  5
3C2
100
AcDbEntity
  8
FRAME
100
AcDbLine
 62
7
  6
BYLAYER
 10
500.8717448413
 20
62.7381761626
 11
502.0213988088
 21
63.8878301301
  0
LINE
  5
3C3
100
AcDbEntity
  8
FRAME
100
AcDbLine
 62
7
  6
BYLAYER
 10
500.2728884575
 20
61.6903069728
 11
500.38499279
 21
61.8024113053
  0
LINE
  5
3C4
100
AcDbEntity
  8
FRAME
100
AcDbLine
 62
7
  6
BYLAYER
 10
501.3207576473
 20
62.7381761626
 11
502.4485848078
 21
63.866003323
  0
LINE
  5
3C5
100
AcDbEntity
  8
FRAME
100
AcDbLine
 62
7
  6
BYLAYER
 10
500.2728884575
 20
61.2412941668
 11
500.8340055961
 21
61.8024113053
  0
LINE
  5
3C6
100
AcDbEntity
  8
FRAME
100
AcDbLine
 62
7
  6
BYLAYER
 10
501.7697704534
 20
62.7381761626
 11
502.8221767426
 21
63.7905824518
  0
LINE
  5
3C7
100
AcDbEntity
  8
FRAME
100
AcDbLine
 62
7
  6
BYLAYER
 10
500.2728884575
 20
60.7922813607
 11
501.2830184021
 21
61.8024113053
  0
LINE
  5
3C8
100
AcDbEntity
  8
FRAME
100
AcDbLine
 62
7
  6
BYLAYER
 10
502.2149977726
 20
62.7343906758
 11
503.1548289491
 21
63.6742218522
  0
LINE
  5
3C9
100
AcDbEntity
  8
FRAME
100
AcDbLine
 62
7
  6
BYLAYER
 10
500.2728884575
 20
60.3432685546
 11
501.422552147
 21
61.4929322441
  0
LINE
  5
3CA
100
AcDbEntity
  8
FRAME
100
AcDbLine
 62
7
  6
BYLAYER
 10
502.5895857273
 20
62.6599658244
 11
503.4538216834
 21
63.5242017805
  0
LINE
  5
3CB
100
AcDbEntity
  8
FRAME
100
AcDbLine
 62
7
  6
BYLAYER
 10
500.2728884575
 20
59.8942557486
 11
501.422552147
 21
61.043919438
  0
LINE
  5
3CC
100
AcDbEntity
  8
FRAME
100
AcDbLine
 62
7
  6
BYLAYER
 10
502.8966585439
 20
62.518025835
 11
503.7231751762
 21
63.3445424672
  0
LINE
  5
3CD
100
AcDbEntity
  8
FRAME
100
AcDbLine
 62
7
  6
BYLAYER
 10
500.2728884575
 20
59.4452429425
 11
501.422552147
 21
60.594906632
  0
LINE
  5
3CE
100
AcDbEntity
  8
FRAME
100
AcDbLine
 62
7
  6
BYLAYER
 10
503.1518561338
 20
62.3242106188
 11
503.965000228
 21
63.137354713
  0
LINE
  5
3CF
100
AcDbEntity
  8
FRAME
100
AcDbLine
 62
7
  6
BYLAYER
 10
500.2728884575
 20
58.9962301365
 11
501.422552147
 21
60.1458938259
  0
LINE
  5
3D0
100
AcDbEntity
  8
FRAME
100
AcDbLine
 62
7
  6
BYLAYER
 10
503.3596922545
 20
62.0830339335
 11
504.1800574509
 21
62.9033991298
  0
LINE
  5
3D1
100
AcDbEntity
  8
FRAME
100
AcDbLine
 62
7
  6
BYLAYER
 10
500.2728884575
 20
58.5472173304
 11
501.422552147
 21
59.6968810198
  0
LINE
  5
3D2
100
AcDbEntity
  8
FRAME
100
AcDbLine
 62
7
  6
BYLAYER
 10
503.5222068211
 20
61.796535694
 11
504.3679354301
 21
62.642264303
  0
LINE
  5
3D3
100
AcDbEntity
  8
FRAME
100
AcDbLine
 62
7
  6
BYLAYER
 10
500.2728884575
 20
58.0982045244
 11
501.422552147
 21
59.2478682138
  0
LINE
  5
3D4
100
AcDbEntity
  8
FRAME
100
AcDbLine
 62
7
  6
BYLAYER
 10
503.6437109183
 20
61.4690269851
 11
504.5293381666
 21
62.3546542334
  0
LINE
  5
3D5
100
AcDbEntity
  8
FRAME
100
AcDbLine
 62
7
  6
BYLAYER
 10
500.5115268705
 20
57.8878301313
 11
501.661180838
 21
59.0374840988
  0
LINE
  5
3D6
100
AcDbEntity
  8
FRAME
100
AcDbLine
 62
7
  6
BYLAYER
 10
503.7139531372
 20
61.0902563979
 11
504.6651686146
 21
62.0414718754
  0
LINE
  5
3D7
100
AcDbEntity
  8
FRAME
100
AcDbLine
 62
7
  6
BYLAYER
 10
531.5692606823
 20
63.8878301301
 11
530.303411463
 21
60.0341576954
  0
LINE
  5
3D8
100
AcDbEntity
  8
FRAME
100
AcDbLine
 62
7
  6
BYLAYER
 10
531.8943452012
 20
61.3649246581
 11
530.9384334451
 21
58.4548065109
  0
LINE
  5
3D9
100
AcDbEntity
  8
FRAME
100
AcDbLine
 62
7
  6
BYLAYER
 10
515.7042910954
 20
57.8878301313
 11
517.4605308113
 21
62.7381761626
  0
LINE
  5
3DA
100
AcDbEntity
  8
FRAME
100
AcDbLine
 62
7
  6
BYLAYER
 10
517.0866104673
 20
58.3286724411
 11
518.3758459771
 21
61.8892560457
  0
LINE
  5
3DB
100
AcDbEntity
  8
FRAME
100
AcDbLine
 62
7
  6
BYLAYER
 10
521.5081660268
 20
57.8878301313
 11
523.2644057427
 21
62.7381761626
  0
LINE
  5
3DC
100
AcDbEntity
  8
FRAME
100
AcDbLine
 62
7
  6
BYLAYER
 10
522.8904853988
 20
58.3286724411
 11
524.1797209086
 21
61.8892560457
  0
LINE
  5
3DD
100
AcDbEntity
  8
FRAME
100
AcDbLine
 62
7
  6
BYLAYER
 10
500.9605396766
 20
57.8878301313
 11
502.1102083793
 21
59.037498834
  0
LINE
  5
3DE
100
AcDbEntity
  8
FRAME
100
AcDbLine
 62
7
  6
BYLAYER
 10
503.7078695683
 20
60.635160023
 11
504.7720488598
 21
61.6993393146
  0
LINE
  5
3DF
100
AcDbEntity
  8
FRAME
100
AcDbLine
 62
7
  6
BYLAYER
 10
501.4095524826
 20
57.8878301313
 11
502.667350785
 21
59.1456284337
  0
LINE
  5
3E0
100
AcDbEntity
  8
FRAME
100
AcDbLine
 62
7
  6
BYLAYER
 10
503.5346908081
 20
60.0129684568
 11
504.8444533069
 21
61.3227309556
  0
LINE
  5
3E1
100
AcDbEntity
  8
FRAME
100
AcDbLine
 62
7
  6
BYLAYER
 10
501.8585652887
 20
57.8878301313
 11
504.8728750138
 21
60.9021398565
  0
LINE
  5
3E2
100
AcDbEntity
  8
FRAME
100
AcDbLine
 62
7
  6
BYLAYER
 10
502.3160388257
 20
57.8962908622
 11
504.8388422498
 21
60.4190942863
  0
LINE
  5
3E3
100
AcDbEntity
  8
FRAME
100
AcDbLine
 62
7
  6
BYLAYER
 10
505.799314637
 20
61.3795666736
 11
507.084477047
 21
62.6647290836
  0
LINE
  5
3E4
100
AcDbEntity
  8
FRAME
100
AcDbLine
 62
7
  6
BYLAYER
 10
502.8683149129
 20
57.9995541434
 11
504.69610319
 21
59.8273424205
  0
LINE
  5
3E5
100
AcDbEntity
  8
FRAME
100
AcDbLine
 62
7
  6
BYLAYER
 10
505.6229896103
 20
60.7542288408
 11
507.6690796973
 21
62.8003189278
  0
LINE
  5
3E6
100
AcDbEntity
  8
FRAME
100
AcDbLine
 62
7
  6
BYLAYER
 10
503.8908258221
 20
58.5730522465
 11
504.0918985405
 21
58.7741249649
  0
LINE
  5
3E7
100
AcDbEntity
  8
FRAME
100
AcDbLine
 62
7
  6
BYLAYER
 10
505.5930516956
 20
60.2752781201
 11
508.1072952356
 21
62.7895216601
  0
LINE
  5
3E8
100
AcDbEntity
  8
FRAME
100
AcDbLine
 62
7
  6
BYLAYER
 10
505.6351179442
 20
59.8683315626
 11
508.4735066108
 21
62.7067202292
  0
LINE
  5
3E9
100
AcDbEntity
  8
FRAME
100
AcDbLine
 62
7
  6
BYLAYER
 10
505.7261673707
 20
59.510368183
 11
506.7536698362
 21
60.5378706486
  0
LINE
  5
3EA
100
AcDbEntity
  8
FRAME
100
AcDbLine
 62
7
  6
BYLAYER
 10
507.8727600078
 20
61.6569608201
 11
508.7907348079
 21
62.5749356203
  0
LINE
  5
3EB
100
AcDbEntity
  8
FRAME
100
AcDbLine
 62
7
  6
BYLAYER
 10
505.8558236889
 20
59.1910116953
 11
506.7623201491
 21
60.0975081554
  0
LINE
  5
3EC
100
AcDbEntity
  8
FRAME
100
AcDbLine
 62
7
  6
BYLAYER
 10
508.2330100289
 20
61.5681980352
 11
509.0693561133
 21
62.4045441196
  0
LINE
  5
3ED
100
AcDbEntity
  8
FRAME
100
AcDbLine
 62
7
  6
BYLAYER
 10
510.4262503182
 20
63.7614383245
 11
510.5526421238
 21
63.8878301301
  0
LINE
  5
3EE
100
AcDbEntity
  8
FRAME
100
AcDbLine
 62
7
  6
BYLAYER
 10
506.0188435973
 20
58.9050187976
 11
506.8638705602
 21
59.7500457605
  0
LINE
  5
3EF
100
AcDbEntity
  8
FRAME
100
AcDbLine
 62
7
  6
BYLAYER
 10
508.5012615758
 20
61.3874367761
 11
509.3146138286
 21
62.2007890288
  0
LINE
  5
3F0
100
AcDbEntity
  8
FRAME
100
AcDbLine
 62
7
  6
BYLAYER
 10
510.5928329686
 20
63.4790081689
 11
511.0016549299
 21
63.8878301301
  0
LINE
  5
3F1
100
AcDbEntity
  8
FRAME
100
AcDbLine
 62
7
  6
BYLAYER
 10
506.2127431399
 20
58.6499055341
 11
507.029469602
 21
59.4666319962
  0
LINE
  5
3F2
100
AcDbEntity
  8
FRAME
100
AcDbLine
 62
7
  6
BYLAYER
 10
508.7061442864
 20
61.1433066806
 11
509.5289919096
 21
61.9661543038
  0
LINE
  5
3F3
100
AcDbEntity
  8
FRAME
100
AcDbLine
 62
7
  6
BYLAYER
 10
510.759415619
 20
63.1965780132
 11
511.4506677359
 21
63.8878301301
  0
LINE
  5
3F4
100
AcDbEntity
  8
FRAME
100
AcDbLine
 62
7
  6
BYLAYER
 10
506.4369431435
 20
58.4250927317
 11
507.2536087926
 21
59.2417583808
  0
LINE
  5
3F5
100
AcDbEntity
  8
FRAME
100
AcDbLine
 62
7
  6
BYLAYER
 10
508.8524571318
 20
60.84060672
 11
509.7130695296
 21
61.7012191178
  0
LINE
  5
3F6
100
AcDbEntity
  8
FRAME
100
AcDbLine
 62
7
  6
BYLAYER
 10
510.9259982693
 20
62.9141478575
 11
511.899680542
 21
63.8878301301
  0
LINE
  5
3F7
100
AcDbEntity
  8
FRAME
100
AcDbLine
 62
7
  6
BYLAYER
 10
506.6925925963
 20
58.2317293783
 11
507.5463137083
 21
59.0854504904
  0
LINE
  5
3F8
100
AcDbEntity
  8
FRAME
100
AcDbLine
 62
7
  6
BYLAYER
 10
508.9292884674
 20
60.4684252495
 11
509.8656977006
 21
61.4048344827
  0
LINE
  5
3F9
100
AcDbEntity
  8
FRAME
100
AcDbLine
 62
7
  6
BYLAYER
 10
511.1990393805
 20
62.7381761626
 11
512.348693348
 21
63.8878301301
  0
LINE
  5
3FA
100
AcDbEntity
  8
FRAME
100
AcDbLine
 62
7
  6
BYLAYER
 10
506.9829272011
 20
58.0730511771
 11
507.9549379264
 21
59.0450619024
  0
LINE
  5
3FB
100
AcDbEntity
  8
FRAME
100
AcDbLine
 62
7
  6
BYLAYER
 10
508.8891920317
 20
59.9793160077
 11
509.9836407194
 21
61.0737646954
  0
LINE
  5
3FC
100
AcDbEntity
  8
FRAME
100
AcDbLine
 62
7
  6
BYLAYER
 10
511.6480521865
 20
62.7381761626
 11
512.7977061541
 21
63.8878301301
  0
LINE
  5
3FD
100
AcDbEntity
  8
FRAME
100
AcDbLine
 62
7
  6
BYLAYER
 10
507.3144642016
 20
57.9555753716
 11
510.0603813425
 21
60.7014925125
  0
LINE
  5
3FE
100
AcDbEntity
  8
FRAME
100
AcDbLine
 62
7
  6
BYLAYER
 10
511.029789705
 20
61.670900875
 11
511.1613001353
 21
61.8024113053
  0
LINE
  5
3FF
100
AcDbEntity
  8
FRAME
100
AcDbLine
 62
7
  6
BYLAYER
 10
512.0970649926
 20
62.7381761626
 11
513.2226314183
 21
63.8637425883
  0
LINE
  5
400
100
AcDbEntity
  8
FRAME
100
AcDbLine
 62
7
  6
BYLAYER
 10
507.7003506474
 20
57.8924490114
 11
510.0827725203
 21
60.2748708843
  0
LINE
  5
401
100
AcDbEntity
  8
FRAME
100
AcDbLine
 62
7
  6
BYLAYER
 10
511.029789705
 20
61.2218880689
 11
511.6103129413
 21
61.8024113053
  0
LINE
  5
402
100
AcDbEntity
  8
FRAME
100
AcDbLine
 62
7
  6
BYLAYER
 10
512.5460777986
 20
62.7381761626
 11
513.5942329477
 21
63.7863313116
  0
LINE
  5
403
100
AcDbEntity
  8
FRAME
100
AcDbLine
 62
7
  6
BYLAYER
 10
508.1721338406
 20
57.9152193985
 11
510.0192669508
 21
59.7623525087
  0
LINE
  5
404
100
AcDbEntity
  8
FRAME
100
AcDbLine
 62
7
  6
BYLAYER
 10
511.029789705
 20
60.7728752629
 11
512.0593257474
 21
61.8024113053
  0
LINE
  5
405
100
AcDbEntity
  8
FRAME
100
AcDbLine
 62
7
  6
BYLAYER
 10
512.9899247275
 20
62.7330102854
 11
513.9253108691
 21
63.668396427
  0
LINE
  5
406
100
AcDbEntity
  8
FRAME
100
AcDbLine
 62
7
  6
BYLAYER
 10
508.867415462
 20
58.1614882138
 11
509.7322629531
 21
59.0263357049
  0
LINE
  5
407
100
AcDbEntity
  8
FRAME
100
AcDbLine
 62
7
  6
BYLAYER
 10
511.029789705
 20
60.3238624568
 11
512.1794533944
 21
61.4735261462
  0
LINE
  5
408
100
AcDbEntity
  8
FRAME
100
AcDbLine
 62
7
  6
BYLAYER
 10
513.3609806575
 20
62.6550534094
 11
514.2229563365
 21
63.5170290883
  0
LINE
  5
409
100
AcDbEntity
  8
FRAME
100
AcDbLine
 62
7
  6
BYLAYER
 10
511.029789705
 20
59.8748496508
 11
512.1794533944
 21
61.0245133402
  0
LINE
  5
40A
100
AcDbEntity
  8
FRAME
100
AcDbLine
 62
7
  6
BYLAYER
 10
513.6656020399
 20
62.5106619857
 11
514.4910873943
 21
63.3361473401
  0
LINE
  5
40B
100
AcDbEntity
  8
FRAME
100
AcDbLine
 62
7
  6
BYLAYER
 10
511.029789705
 20
59.4258368447
 11
512.1794533944
 21
60.5755005341
  0
LINE
  5
40C
100
AcDbEntity
  8
FRAME
100
AcDbLine
 62
7
  6
BYLAYER
 10
513.9187130223
 20
62.314760162
 11
514.7317484679
 21
63.1277956077
  0
LINE
  5
40D
100
AcDbEntity
  8
FRAME
100
AcDbLine
 62
7
  6
BYLAYER
 10
511.029789705
 20
58.9768240386
 11
512.1794533944
 21
60.1264877281
  0
LINE
  5
40E
100
AcDbEntity
  8
FRAME
100
AcDbLine
 62
7
  6
BYLAYER
 10
514.1244973597
 20
62.0715316934
 11
514.9456479145
 21
62.8926822482
  0
LINE
  5
40F
100
AcDbEntity
  8
FRAME
100
AcDbLine
 62
7
  6
BYLAYER
 10
511.029789705
 20
58.5278112326
 11
512.1794533944
 21
59.677474922
  0
LINE
  5
410
100
AcDbEntity
  8
FRAME
100
AcDbLine
 62
7
  6
BYLAYER
 10
514.2852491319
 20
61.7832706595
 11
515.1323234679
 21
62.6303449955
  0
LINE
  5
411
100
AcDbEntity
  8
FRAME
100
AcDbLine
 62
7
  6
BYLAYER
 10
511.029789705
 20
58.0787984265
 11
512.1794533944
 21
59.2284621159
  0
LINE
  5
412
100
AcDbEntity
  8
FRAME
100
AcDbLine
 62
7
  6
BYLAYER
 10
514.4048166417
 20
61.4538253632
 11
515.2926573006
 21
62.3416660222
  0
LINE
  5
413
100
AcDbEntity
  8
FRAME
100
AcDbLine
 62
7
  6
BYLAYER
 10
516.8033593431
 20
63.8523680647
 11
516.8388214086
 21
63.8878301301
  0
LINE
  5
414
100
AcDbEntity
  8
FRAME
100
AcDbLine
 62
7
  6
BYLAYER
 10
511.2878342158
 20
57.8878301313
 11
512.4374881833
 21
59.0374840988
  0
LINE
  5
415
100
AcDbEntity
  8
FRAME
100
AcDbLine
 62
7
  6
BYLAYER
 10
514.4724446882
 20
61.0724406037
 11
515.4273183381
 21
62.0273142536
  0
LINE
  5
416
100
AcDbEntity
  8
FRAME
100
AcDbLine
 62
7
  6
BYLAYER
 10
516.9699419935
 20
63.569937909
 11
517.2878342146
 21
63.8878301301
  0
LINE
  5
417
100
AcDbEntity
  8
FRAME
100
AcDbLine
 62
7
  6
BYLAYER
 10
511.7368470218
 20
57.8878301313
 11
512.8867282947
 21
59.0377114041
  0
LINE
  5
418
100
AcDbEntity
  8
FRAME
100
AcDbLine
 62
7
  6
BYLAYER
 10
514.4619774827
 20
60.6129605922
 11
515.5328426792
 21
61.6838257886
  0
LINE
  5
419
100
AcDbEntity
  8
FRAME
100
AcDbLine
 62
7
  6
BYLAYER
 10
517.1365246438
 20
63.2875077533
 11
517.7368470207
 21
63.8878301301
  0
LINE
  5
41A
100
AcDbEntity
  8
FRAME
100
AcDbLine
 62
7
  6
BYLAYER
 10
512.1858598279
 20
57.8878301313
 11
513.4572486687
 21
59.1592189721
  0
LINE
  5
41B
100
AcDbEntity
  8
FRAME
100
AcDbLine
 62
7
  6
BYLAYER
 10
514.2749700079
 20
59.9769403113
 11
515.6035823792
 21
61.3055526826
  0
LINE
  5
41C
100
AcDbEntity
  8
FRAME
100
AcDbLine
 62
7
  6
BYLAYER
 10
517.3031072942
 20
63.0050775976
 11
518.1858598267
 21
63.8878301301
  0
LINE
  5
41D
100
AcDbEntity
  8
FRAME
100
AcDbLine
 62
7
  6
BYLAYER
 10
512.634872634
 20
57.8878301313
 11
515.6297839247
 21
60.882741422
  0
LINE
  5
41E
100
AcDbEntity
  8
FRAME
100
AcDbLine
 62
7
  6
BYLAYER
 10
517.4465177861
 20
62.6994752834
 11
518.6348726328
 21
63.8878301301
  0
LINE
  5
41F
100
AcDbEntity
  8
FRAME
100
AcDbLine
 62
7
  6
BYLAYER
 10
513.0941198992
 20
57.8980645905
 11
515.5923563408
 21
60.3963010321
  0
LINE
  5
420
100
AcDbEntity
  8
FRAME
100
AcDbLine
 62
7
  6
BYLAYER
 10
517.1916544936
 20
61.9955991849
 11
518.9304462635
 21
63.7343909548
  0
LINE
  5
421
100
AcDbEntity
  8
FRAME
100
AcDbLine
 62
7
  6
BYLAYER
 10
513.6531178547
 20
58.00804974
 11
515.4426845626
 21
59.7976164478
  0
LINE
  5
422
100
AcDbEntity
  8
FRAME
100
AcDbLine
 62
7
  6
BYLAYER
 10
516.9367912011
 20
61.2917230863
 11
519.0498080872
 21
63.4047399724
  0
LINE
  5
423
100
AcDbEntity
  8
FRAME
100
AcDbLine
 62
7
  6
BYLAYER
 10
516.6819279085
 20
60.5878469877
 11
519.1691699108
 21
63.07508899
  0
LINE
  5
424
100
AcDbEntity
  8
FRAME
100
AcDbLine
 62
7
  6
BYLAYER
 10
516.427064616
 20
59.8839708892
 11
518.3437739668
 21
61.8006802399
  0
LINE
  5
425
100
AcDbEntity
  8
FRAME
100
AcDbLine
 62
7
  6
BYLAYER
 10
518.3908664753
 20
61.8477727485
 11
519.2885317345
 21
62.7454380076
  0
LINE
  5
426
100
AcDbEntity
  8
FRAME
100
AcDbLine
 62
7
  6
BYLAYER
 10
516.1722013235
 20
59.1800947906
 11
518.0889106743
 21
61.0968041413
  0
LINE
  5
427
100
AcDbEntity
  8
FRAME
100
AcDbLine
 62
7
  6
BYLAYER
 10
518.510228299
 20
61.5181217661
 11
519.4078935582
 21
62.4157870252
  0
LINE
  5
428
100
AcDbEntity
  8
FRAME
100
AcDbLine
 62
7
  6
BYLAYER
 10
515.917338031
 20
58.476218692
 11
517.8340473817
 21
60.3929280428
  0
LINE
  5
429
100
AcDbEntity
  8
FRAME
100
AcDbLine
 62
7
  6
BYLAYER
 10
518.6295901227
 20
61.1884707837
 11
519.5272553818
 21
62.0861360428
  0
LINE
  5
42A
100
AcDbEntity
  8
FRAME
100
AcDbLine
 62
7
  6
BYLAYER
 10
515.7779622763
 20
57.8878301313
 11
517.5791840892
 21
59.6890519442
  0
LINE
  5
42B
100
AcDbEntity
  8
FRAME
100
AcDbLine
 62
7
  6
BYLAYER
 10
518.7489519463
 20
60.8588198013
 11
519.6466172055
 21
61.7564850604
  0
LINE
  5
42C
100
AcDbEntity
  8
FRAME
100
AcDbLine
 62
7
  6
BYLAYER
 10
516.2269750824
 20
57.8878301313
 11
517.3243207967
 21
58.9851758456
  0
LINE
  5
42D
100
AcDbEntity
  8
FRAME
100
AcDbLine
 62
7
  6
BYLAYER
 10
518.86831377
 20
60.5291688189
 11
519.7659790291
 21
61.426834078
  0
LINE
  5
42E
100
AcDbEntity
  8
FRAME
100
AcDbLine
 62
7
  6
BYLAYER
 10
516.7368870089
 20
57.9487292517
 11
517.065641176
 21
58.2774834189
  0
LINE
  5
42F
100
AcDbEntity
  8
FRAME
100
AcDbLine
 62
7
  6
BYLAYER
 10
518.9876755936
 20
60.1995178365
 11
519.8853408528
 21
61.0971830956
  0
LINE
  5
430
100
AcDbEntity
  8
FRAME
100
AcDbLine
 62
7
  6
BYLAYER
 10
522.619585357
 20
63.8314275998
 11
522.6759878873
 21
63.8878301301
  0
LINE
  5
431
100
AcDbEntity
  8
FRAME
100
AcDbLine
 62
7
  6
BYLAYER
 10
519.1070374173
 20
59.8698668541
 11
520.0047026764
 21
60.7675321133
  0
LINE
  5
432
100
AcDbEntity
  8
FRAME
100
AcDbLine
 62
7
  6
BYLAYER
 10
522.7861680074
 20
63.5489974442
 11
523.1250006933
 21
63.8878301301
  0
LINE
  5
433
100
AcDbEntity
  8
FRAME
100
AcDbLine
 62
7
  6
BYLAYER
 10
519.2263992409
 20
59.5402158717
 11
520.1240645001
 21
60.4378811309
  0
LINE
  5
434
100
AcDbEntity
  8
FRAME
100
AcDbLine
 62
7
  6
BYLAYER
 10
522.9527506577
 20
63.2665672885
 11
523.5740134994
 21
63.8878301301
  0
LINE
  5
435
100
AcDbEntity
  8
FRAME
100
AcDbLine
 62
7
  6
BYLAYER
 10
519.3457610646
 20
59.2105648893
 11
520.2434263238
 21
60.1082301485
  0
LINE
  5
436
100
AcDbEntity
  8
FRAME
100
AcDbLine
 62
7
  6
BYLAYER
 10
523.1193333081
 20
62.9841371328
 11
524.0230263054
 21
63.8878301301
  0
LINE
  5
437
100
AcDbEntity
  8
FRAME
100
AcDbLine
 62
7
  6
BYLAYER
 10
519.4651228883
 20
58.8809139069
 11
520.3627881474
 21
59.7785791661
  0
LINE
  5
438
100
AcDbEntity
  8
FRAME
100
AcDbLine
 62
7
  6
BYLAYER
 10
523.2314961667
 20
62.6472871853
 11
524.4720391115
 21
63.8878301301
  0
LINE
  5
439
100
AcDbEntity
  8
FRAME
100
AcDbLine
 62
7
  6
BYLAYER
 10
519.5844847119
 20
58.5512629245
 11
520.4821499711
 21
59.4489281837
  0
LINE
  5
43A
100
AcDbEntity
  8
FRAME
100
AcDbLine
 62
7
  6
BYLAYER
 10
522.9766328742
 20
61.9434110868
 11
524.7431711426
 21
63.7099493552
  0
LINE
  5
43B
100
AcDbEntity
  8
FRAME
100
AcDbLine
 62
7
  6
BYLAYER
 10
519.7038465356
 20
58.2216119421
 11
520.6015117947
 21
59.1192772013
  0
LINE
  5
43C
100
AcDbEntity
  8
FRAME
100
AcDbLine
 62
7
  6
BYLAYER
 10
522.7217695817
 20
61.2395349882
 11
524.8625329662
 21
63.3802983728
  0
LINE
  5
43D
100
AcDbEntity
  8
FRAME
100
AcDbLine
 62
7
  6
BYLAYER
 10
519.8232083592
 20
57.8919609597
 11
520.7208736184
 21
58.7896262189
  0
LINE
  5
43E
100
AcDbEntity
  8
FRAME
100
AcDbLine
 62
7
  6
BYLAYER
 10
522.4669062891
 20
60.5356588896
 11
524.9818947899
 21
63.0506473904
  0
LINE
  5
43F
100
AcDbEntity
  8
FRAME
100
AcDbLine
 62
7
  6
BYLAYER
 10
520.2680903369
 20
57.8878301313
 11
520.8402354421
 21
58.4599752365
  0
LINE
  5
440
100
AcDbEntity
  8
FRAME
100
AcDbLine
 62
7
  6
BYLAYER
 10
522.2120429966
 20
59.8317827911
 11
524.1287523474
 21
61.7484921418
  0
LINE
  5
441
100
AcDbEntity
  8
FRAME
100
AcDbLine
 62
7
  6
BYLAYER
 10
524.2035913544
 20
61.8233311488
 11
525.1012566135
 21
62.720996408
  0
LINE
  5
442
100
AcDbEntity
  8
FRAME
100
AcDbLine
 62
7
  6
BYLAYER
 10
520.7171031429
 20
57.8878301313
 11
520.9595972657
 21
58.1303242541
  0
LINE
  5
443
100
AcDbEntity
  8
FRAME
100
AcDbLine
 62
7
  6
BYLAYER
 10
521.9571797041
 20
59.1279066925
 11
523.8738890549
 21
61.0446160432
  0
LINE
  5
444
100
AcDbEntity
  8
FRAME
100
AcDbLine
 62
7
  6
BYLAYER
 10
524.322953178
 20
61.4936801664
 11
525.2206184372
 21
62.3913454256
  0
LINE
  5
445
100
AcDbEntity
  8
FRAME
100
AcDbLine
 62
7
  6
BYLAYER
 10
521.7023164116
 20
58.4240305939
 11
523.6190257623
 21
60.3407399447
  0
LINE
  5
446
100
AcDbEntity
  8
FRAME
100
AcDbLine
 62
7
  6
BYLAYER
 10
524.4423150017
 20
61.164029184
 11
525.3399802609
 21
62.0616944432
  0
LINE
  5
447
100
AcDbEntity
  8
FRAME
100
AcDbLine
 62
7
  6
BYLAYER
 10
527.007413509
 20
63.7291276913
 11
527.1661159478
 21
63.8878301301
  0
LINE
  5
448
100
AcDbEntity
  8
FRAME
100
AcDbLine
 62
7
  6
BYLAYER
 10
521.615128755
 20
57.8878301313
 11
523.3641624698
 21
59.6368638461
  0
LINE
  5
449
100
AcDbEntity
  8
FRAME
100
AcDbLine
 62
7
  6
BYLAYER
 10
524.5616768254
 20
60.8343782016
 11
525.4593420845
 21
61.7320434608
  0
LINE
  5
44A
100
AcDbEntity
  8
FRAME
100
AcDbLine
 62
7
  6
BYLAYER
 10
527.1739961593
 20
63.4466975356
 11
527.6151287538
 21
63.8878301301
  0
LINE
  5
44B
100
AcDbEntity
  8
FRAME
100
AcDbLine
 62
7
  6
BYLAYER
 10
522.0641415611
 20
57.8878301313
 11
523.1092991773
 21
58.9329877475
  0
LINE
  5
44C
100
AcDbEntity
  8
FRAME
100
AcDbLine
 62
7
  6
BYLAYER
 10
524.681038649
 20
60.5047272192
 11
525.5787039082
 21
61.4023924784
  0
LINE
  5
44D
100
AcDbEntity
  8
FRAME
100
AcDbLine
 62
7
  6
BYLAYER
 10
527.3387251592
 20
63.1624137294
 11
528.0641415599
 21
63.8878301301
  0
LINE
  5
44E
100
AcDbEntity
  8
FRAME
100
AcDbLine
 62
7
  6
BYLAYER
 10
522.6122843339
 20
57.986960098
 11
522.8312852612
 21
58.2059610254
  0
LINE
  5
44F
100
AcDbEntity
  8
FRAME
100
AcDbLine
 62
7
  6
BYLAYER
 10
524.8004004727
 20
60.1750762368
 11
525.6980657318
 21
61.072741496
  0
LINE
  5
450
100
AcDbEntity
  8
FRAME
100
AcDbLine
 62
7
  6
BYLAYER
 10
527.3387251592
 20
62.7134009234
 11
528.5131543659
 21
63.8878301301
  0
LINE
  5
451
100
AcDbEntity
  8
FRAME
100
AcDbLine
 62
7
  6
BYLAYER
 10
524.9197622963
 20
59.8454252544
 11
525.8174275555
 21
60.7430905136
  0
LINE
  5
452
100
AcDbEntity
  8
FRAME
100
AcDbLine
 62
7
  6
BYLAYER
 10
527.3387251592
 20
62.2643881173
 11
528.962167172
 21
63.8878301301
  0
LINE
  5
453
100
AcDbEntity
  8
FRAME
100
AcDbLine
 62
7
  6
BYLAYER
 10
525.03912412
 20
59.515774272
 11
525.9367893791
 21
60.4134395312
  0
LINE
  5
454
100
AcDbEntity
  8
FRAME
100
AcDbLine
 62
7
  6
BYLAYER
 10
527.3387251592
 20
61.8153753113
 11
529.1299426943
 21
63.6065928464
  0
LINE
  5
455
100
AcDbEntity
  8
FRAME
100
AcDbLine
 62
7
  6
BYLAYER
 10
525.1584859436
 20
59.1861232896
 11
526.0561512028
 21
60.0837885488
  0
LINE
  5
456
100
AcDbEntity
  8
FRAME
100
AcDbLine
 62
7
  6
BYLAYER
 10
527.3387251592
 20
61.3663625052
 11
529.2409652758
 21
63.2686026218
  0
LINE
  5
457
100
AcDbEntity
  8
FRAME
100
AcDbLine
 62
7
  6
BYLAYER
 10
525.2778477673
 20
58.8564723073
 11
526.1755130265
 21
59.7541375664
  0
LINE
  5
458
100
AcDbEntity
  8
FRAME
100
AcDbLine
 62
7
  6
BYLAYER
 10
527.3387251592
 20
60.9173496992
 11
529.3519878573
 21
62.9306123973
  0
LINE
  5
459
100
AcDbEntity
  8
FRAME
100
AcDbLine
 62
7
  6
BYLAYER
 10
525.397209591
 20
58.5268213249
 11
526.2948748501
 21
59.424486584
  0
LINE
  5
45A
100
AcDbEntity
  8
FRAME
100
AcDbLine
 62
7
  6
BYLAYER
 10
527.3387251592
 20
60.4683368931
 11
528.4883791267
 21
61.6179908606
  0
LINE
  5
45B
100
AcDbEntity
  8
FRAME
100
AcDbLine
 62
7
  6
BYLAYER
 10
528.5944943015
 20
61.7241060354
 11
529.4630104388
 21
62.5926221727
  0
LINE
  5
45C
100
AcDbEntity
  8
FRAME
100
AcDbLine
 62
7
  6
BYLAYER
 10
525.5165714146
 20
58.1971703425
 11
526.4142366738
 21
59.0948356016
  0
LINE
  5
45D
100
AcDbEntity
  8
FRAME
100
AcDbLine
 62
7
  6
BYLAYER
 10
527.3387251592
 20
60.0193240871
 11
528.4883791267
 21
61.1689780546
  0
LINE
  5
45E
100
AcDbEntity
  8
FRAME
100
AcDbLine
 62
7
  6
BYLAYER
 10
528.705516883
 20
61.3861158109
 11
529.5740330203
 21
62.2546319481
  0
LINE
  5
45F
100
AcDbEntity
  8
FRAME
100
AcDbLine
 62
7
  6
BYLAYER
 10
525.6562440095
 20
57.8878301313
 11
526.5335984974
 21
58.7651846192
  0
LINE
  5
460
100
AcDbEntity
  8
FRAME
100
AcDbLine
 62
7
  6
BYLAYER
 10
527.3387251592
 20
59.570311281
 11
528.4883791267
 21
60.7199652485
  0
LINE
  5
461
100
AcDbEntity
  8
FRAME
100
AcDbLine
 62
7
  6
BYLAYER
 10
528.8165394645
 20
61.0481255863
 11
529.6850556018
 21
61.9166417236
  0
LINE
  5
462
100
AcDbEntity
  8
FRAME
100
AcDbLine
 62
7
  6
BYLAYER
 10
531.5267122676
 20
63.7582983894
 11
531.6562440083
 21
63.8878301301
  0
LINE
  5
463
100
AcDbEntity
  8
FRAME
100
AcDbLine
 62
7
  6
BYLAYER
 10
526.1052568156
 20
57.8878301313
 11
526.6529603211
 21
58.4355336368
  0
LINE
  5
464
100
AcDbEntity
  8
FRAME
100
AcDbLine
 62
7
  6
BYLAYER
 10
527.3387251592
 20
59.1212984749
 11
528.4883791267
 21
60.2709524425
  0
LINE
  5
465
100
AcDbEntity
  8
FRAME
100
AcDbLine
 62
7
  6
BYLAYER
 10
528.927562046
 20
60.7101353617
 11
529.7960781832
 21
61.578651499
  0
LINE
  5
466
100
AcDbEntity
  8
FRAME
100
AcDbLine
 62
7
  6
BYLAYER
 10
531.3070749653
 20
63.089648281
 11
532.1052568144
 21
63.8878301301
  0
LINE
  5
467
100
AcDbEntity
  8
FRAME
100
AcDbLine
 62
7
  6
BYLAYER
 10
526.5542696216
 20
57.8878301313
 11
526.7723221448
 21
58.1058826544
  0
LINE
  5
468
100
AcDbEntity
  8
FRAME
100
AcDbLine
 62
7
  6
BYLAYER
 10
527.3387251592
 20
58.6722856689
 11
528.4883791267
 21
59.8219396364
  0
LINE
  5
469
100
AcDbEntity
  8
FRAME
100
AcDbLine
 62
7
  6
BYLAYER
 10
529.0385846275
 20
60.3721451372
 11
529.9071007647
 21
61.2406612744
  0
LINE
  5
46A
100
AcDbEntity
  8
FRAME
100
AcDbLine
 62
7
  6
BYLAYER
 10
531.0874376629
 20
62.4209981726
 11
532.5542696204
 21
63.8878301301
  0
LINE
  5
46B
100
AcDbEntity
  8
FRAME
100
AcDbLine
 62
7
  6
BYLAYER
 10
527.3387251592
 20
58.2232728628
 11
528.4883791267
 21
59.3729268304
  0
LINE
  5
46C
100
AcDbEntity
  8
FRAME
100
AcDbLine
 62
7
  6
BYLAYER
 10
529.149607209
 20
60.0341549126
 11
530.0181233462
 21
60.9026710498
  0
LINE
  5
46D
100
AcDbEntity
  8
FRAME
100
AcDbLine
 62
7
  6
BYLAYER
 10
530.8678003606
 20
61.7523480642
 11
533.0032824265
 21
63.8878301301
  0
LINE
  5
46E
100
AcDbEntity
  8
FRAME
100
AcDbLine
 62
7
  6
BYLAYER
 10
527.4522952337
 20
57.8878301313
 11
528.4883791267
 21
58.9239140243
  0
LINE
  5
46F
100
AcDbEntity
  8
FRAME
100
AcDbLine
 62
7
  6
BYLAYER
 10
529.2606297904
 20
59.696164688
 11
530.1291459277
 21
60.5646808253
  0
LINE
  5
470
100
AcDbEntity
  8
FRAME
100
AcDbLine
 62
7
  6
BYLAYER
 10
530.6481630582
 20
61.0836979558
 11
533.0439991687
 21
63.4795340663
  0
LINE
  5
471
100
AcDbEntity
  8
FRAME
100
AcDbLine
 62
7
  6
BYLAYER
 10
527.906997032
 20
57.8935191235
 11
528.4826901345
 21
58.469212226
  0
LINE
  5
472
100
AcDbEntity
  8
FRAME
100
AcDbLine
 62
7
  6
BYLAYER
 10
529.3716523719
 20
59.3581744635
 11
530.2401685092
 21
60.2266906007
  0
LINE
  5
473
100
AcDbEntity
  8
FRAME
100
AcDbLine
 62
7
  6
BYLAYER
 10
530.4285257559
 20
60.4150478474
 11
533.0439991687
 21
63.0305212603
  0
LINE
  5
474
100
AcDbEntity
  8
FRAME
100
AcDbLine
 62
7
  6
BYLAYER
 10
529.4826749534
 20
59.0201842389
 11
533.0439991687
 21
62.5815084542
  0
LINE
  5
475
100
AcDbEntity
  8
FRAME
100
AcDbLine
 62
7
  6
BYLAYER
 10
529.5936975349
 20
58.6821940143
 11
531.7074470252
 21
60.7959435046
  0
LINE
  5
476
100
AcDbEntity
  8
FRAME
100
AcDbLine
 62
7
  6
BYLAYER
 10
531.8943452012
 20
60.9828416806
 11
533.0439991687
 21
62.1324956482
  0
LINE
  5
477
100
AcDbEntity
  8
FRAME
100
AcDbLine
 62
7
  6
BYLAYER
 10
529.712163135
 20
58.3516468084
 11
531.4878097229
 21
60.1272933962
  0
LINE
  5
478
100
AcDbEntity
  8
FRAME
100
AcDbLine
 62
7
  6
BYLAYER
 10
531.8943452012
 20
60.5338288746
 11
533.0439991687
 21
61.6834828421
  0
LINE
  5
479
100
AcDbEntity
  8
FRAME
100
AcDbLine
 62
7
  6
BYLAYER
 10
529.9231984618
 20
58.1136693291
 11
531.2681724205
 21
59.4586432878
  0
LINE
  5
47A
100
AcDbEntity
  8
FRAME
100
AcDbLine
 62
7
  6
BYLAYER
 10
531.8943452012
 20
60.0848160685
 11
533.0439991687
 21
61.2344700361
  0
LINE
  5
47B
100
AcDbEntity
  8
FRAME
100
AcDbLine
 62
7
  6
BYLAYER
 10
576.6000000726
 20
17.4000003495
 11
576.6000000726
 21
402.6000003495
  0
LINE
  5
47C
100
AcDbEntity
  8
FRAME
100
AcDbLine
 62
7
  6
BYLAYER
 10
576.9000000726
 20
17.1000003495
 11
576.9000000726
 21
402.9000003495
  0
LINE
  5
47D
100
AcDbEntity
  8
FRAME
100
AcDbLine
 62
7
  6
BYLAYER
 10
577.2000000726
 20
16.8000003495
 11
577.2000000726
 21
403.2000003495
  0
LINE
  5
47E
100
AcDbEntity
  8
FRAME
100
AcDbLine
 62
7
  6
BYLAYER
 10
577.5000000726
 20
16.5000003495
 11
577.5000000726
 21
403.5000003495
  0
LINE
  5
47F
100
AcDbEntity
  8
FRAME
100
AcDbLine
 62
7
  6
BYLAYER
 10
577.8000000726
 20
16.2000003495
 11
577.8000000726
 21
403.8000003495
  0
LINE
  5
480
100
AcDbEntity
  8
FRAME
100
AcDbLine
 62
7
  6
BYLAYER
 10
578.1000000726
 20
15.9000003495
 11
578.1000000726
 21
404.1000003495
  0
LINE
  5
481
100
AcDbEntity
  8
FRAME
100
AcDbLine
 62
7
  6
BYLAYER
 10
578.4000000726
 20
15.6000003495
 11
578.4000000726
 21
404.4000003495
  0
LINE
  5
482
100
AcDbEntity
  8
FRAME
100
AcDbLine
 62
7
  6
BYLAYER
 10
578.7000000726
 20
15.3000003495
 11
578.7000000726
 21
404.7000003495
  0
LINE
  5
483
100
AcDbEntity
  8
FRAME
100
AcDbLine
 62
7
  6
BYLAYER
 10
579.0000000726
 20
15.0000003495
 11
579.0000000726
 21
405.0000003495
  0
LINE
  5
484
100
AcDbEntity
  8
FRAME
100
AcDbLine
 62
7
  6
BYLAYER
 10
581.5000000726
 20
207.5000003495
 11
581.5000000726
 21
208.8000003495
  0
LINE
  5
485
100
AcDbEntity
  8
FRAME
100
AcDbLine
 62
7
  6
BYLAYER
 10
581.5000000726
 20
211.2000003495
 11
581.5000000726
 21
212.5000003495
  0
LINE
  5
486
100
AcDbEntity
  8
FRAME
100
AcDbLine
 62
7
  6
BYLAYER
 10
584.0
 20
10.0
 11
584.0
 21
410.0
  0
LINE
  5
487
100
AcDbEntity
  8
FRAME
100
AcDbLine
 62
7
  6
BYLAYER
 10
594.0
 20
0.0
 11
594.0
 21
420.0
  0
LINE
  5
488
100
AcDbEntity
  8
FRAME
100
AcDbLine
 62
7
  6
BYLAYER
 10
530.2552719568
 20
57.996730018
 11
531.0485351182
 21
58.7899931794
  0
LINE
  5
489
100
AcDbEntity
  8
FRAME
100
AcDbLine
 62
7
  6
BYLAYER
 10
531.8943452012
 20
59.6358032625
 11
533.0439991687
 21
60.78545723
  0
LINE
  5
48A
100
AcDbEntity
  8
FRAME
100
AcDbLine
 62
7
  6
BYLAYER
 10
531.8943452012
 20
59.1867904564
 11
533.0439991687
 21
60.3364444239
  0
LINE
  5
48B
100
AcDbEntity
  8
FRAME
100
AcDbLine
 62
7
  6
BYLAYER
 10
531.8943452012
 20
58.7377776504
 11
533.0439991687
 21
59.8874316179
  0
LINE
  5
48C
100
AcDbEntity
  8
FRAME
100
AcDbLine
 62
7
  6
BYLAYER
 10
531.8943452012
 20
58.2887648443
 11
533.0439991687
 21
59.4384188118
  0
LINE
  5
48D
100
AcDbEntity
  8
FRAME
100
AcDbLine
 62
7
  6
BYLAYER
 10
531.9424232943
 20
57.8878301313
 11
533.0439991687
 21
58.9894060058
  0
LINE
  5
48E
100
AcDbEntity
  8
FRAME
100
AcDbLine
 62
7
  6
BYLAYER
 10
532.391628413
 20
57.888022444
 11
533.0438068561
 21
58.5402008871
  0
ARC
  5
48F
100
AcDbEntity
  8
FRAME
100
AcDbCircle
 62
7
  6
BYLAYER
 10
501.5839022924
 20
60.8911413222
 40
3.2889911113
100
AcDbArc
 50
327.6042231132
 51
31.6684491766
  0
ARC
  5
490
100
AcDbEntity
  8
FRAME
100
AcDbCircle
 62
7
  6
BYLAYER
 10
512.3408035398
 20
60.8911413222
 40
3.2889911113
100
AcDbArc
 50
327.6042231132
 51
31.6684491766
  0
ARC
  5
491
100
AcDbEntity
  8
FRAME
100
AcDbCircle
 62
7
  6
BYLAYER
 10
502.1035067777
 20
60.5614440093
 40
2.673613878
100
AcDbArc
 50
270.0
 51
327.6042231132
  0
ARC
  5
492
100
AcDbEntity
  8
FRAME
100
AcDbCircle
 62
7
  6
BYLAYER
 10
502.1076500647
 20
61.2142162521
 40
2.673613878
100
AcDbArc
 50
31.6684491766
 51
90.0
  0
ARC
  5
493
100
AcDbEntity
  8
FRAME
100
AcDbCircle
 62
7
  6
BYLAYER
 10
512.8604080251
 20
60.5614440093
 40
2.673613878
100
AcDbArc
 50
270.0
 51
327.6042231132
  0
ARC
  5
494
100
AcDbEntity
  8
FRAME
100
AcDbCircle
 62
7
  6
BYLAYER
 10
512.8645513121
 20
61.2142162521
 40
2.673613878
100
AcDbArc
 50
31.6684491766
 51
90.0
  0
ARC
  5
495
100
AcDbEntity
  8
FRAME
100
AcDbCircle
 62
7
  6
BYLAYER
 10
501.5839022924
 20
60.8911413222
 40
2.1393371438
100
AcDbArc
 50
327.6042231132
 51
31.6684491766
  0
ARC
  5
496
100
AcDbEntity
  8
FRAME
100
AcDbCircle
 62
7
  6
BYLAYER
 10
512.3408035398
 20
60.8911413222
 40
2.1393371438
100
AcDbArc
 50
327.6042231132
 51
31.6684491766
  0
ARC
  5
497
100
AcDbEntity
  8
FRAME
100
AcDbCircle
 62
7
  6
BYLAYER
 10
502.1035067777
 20
60.5614440093
 40
1.5239599105
100
AcDbArc
 50
270.0
 51
327.6042231132
  0
ARC
  5
498
100
AcDbEntity
  8
FRAME
100
AcDbCircle
 62
7
  6
BYLAYER
 10
502.1076500647
 20
61.2142162521
 40
1.5239599105
100
AcDbArc
 50
31.6684491766
 51
90.0
  0
ARC
  5
499
100
AcDbEntity
  8
FRAME
100
AcDbCircle
 62
7
  6
BYLAYER
 10
512.8604080251
 20
60.5614440093
 40
1.5239599105
100
AcDbArc
 50
270.0
 51
327.6042231132
  0
ARC
  5
49A
100
AcDbEntity
  8
FRAME
100
AcDbCircle
 62
7
  6
BYLAYER
 10
512.8645513121
 20
61.2142162521
 40
1.5239599105
100
AcDbArc
 50
31.6684491766
 51
90.0
  0
ARC
  5
49B
100
AcDbEntity
  8
FRAME
100
AcDbCircle
 62
7
  6
BYLAYER
 10
516.458136827
 20
58.5562336008
 40
0.6684034695
100
AcDbArc
 50
270.0
 51
340.0954155417
  0
ARC
  5
49C
100
AcDbEntity
  8
FRAME
100
AcDbCircle
 62
7
  6
BYLAYER
 10
527.8199756572
 20
58.5562336008
 40
0.6684034695
100
AcDbArc
 50
270.0
 51
360.0
  0
ARC
  5
49D
100
AcDbEntity
  8
FRAME
100
AcDbCircle
 62
7
  6
BYLAYER
 10
532.3755956992
 20
58.5562336008
 40
0.6684034695
100
AcDbArc
 50
270.0
 51
360.0
  0
ARC
  5
49E
100
AcDbEntity
  8
FRAME
100
AcDbCircle
 62
7
  6
BYLAYER
 10
530.303411463
 20
58.6633976909
 40
0.6684034695
100
AcDbArc
 50
198.1842490661
 51
341.8157509339
  0
ARC
  5
49F
100
AcDbEntity
  8
FRAME
100
AcDbCircle
 62
7
  6
BYLAYER
 10
522.2620117584
 20
58.5562336008
 40
0.6684034695
100
AcDbArc
 50
270.0
 51
340.0954155417
  0
ELLIPSE
  5
4A0
100
AcDbEntity
  8
FRAME
100
AcDbEllipse
 62
7
  6
BYLAYER
 10
507.8379175886
 20
60.3475548991
 30
0.0
 11
0.0
 21
-2.4597247678
 31
0.0
 40
0.9130434783
 41
0.0
 42
6.2831853072
  0
ENDSEC
  0
SECTION
  2
OBJECTS
  0
DICTIONARY
  5
C
100
AcDbDictionary
280
0
281
1
  3
ACAD_GROUP
350
D
  3
ACAD_MLINESTYLE
350
17
  3
ACAD_LAYOUT
350
1A
  3
ACAD_PLOTSETTINGS
350
19
  3
ACAD_PLOTSTYLENAME
350
E
  0
DICTIONARY
  5
D
102
{ACAD_REACTORS
330
C
102
}
100
AcDbDictionary
280
0
281
1
  0
ACDBDICTIONARYWDFLT
  5
E
102
{ACAD_REACTORS
330
C
102
}
100
AcDbDictionary
281
1
  3
Normal
350
F
100
AcDbDictionaryWithDefault
340
F
  0
DICTIONARY
  5
17
102
{ACAD_REACTORS
330
C
102
}
100
AcDbDictionary
280
0
281
1
  3
Standard
350
18
  0
DICTIONARY
  5
19
102
{ACAD_REACTORS
330
C
102
}
100
AcDbDictionary
281
1
  0
DICTIONARY
  5
1A
102
{ACAD_REACTORS
330
C
102
}
100
AcDbDictionary
281
1
  3
Model
350
4A1
  3
Layout1
350
4A2
  0
ACDBPLACEHOLDER
  5
F
102
{ACAD_REACTORS
330
E
102
}
  0
MLINESTYLE
  5
18
102
{ACAD_REACTORS
330
17
102
}
100
AcDbMlineStyle
  2
STANDARD
 70
0
  3

 62
256
 51
90.0
 52
90.0
 71
2
 49
0.5
 62
256
  6
BYLAYER
 49
-0.5
 62
256
  6
BYLAYER
  0
LAYOUT
  5
4A1
102
{ACAD_REACTORS
330
1A
102
}
100
AcDbPlotSettings
  1

  2
none_device
  4
ISO_A2_(594.00_x_420.00_MM)
  6

 40
0.0
 41
0.0
 42
0.0
 43
0.0
 44
594.0
 45
420.0
 46
0.0
 47
0.0
 48
0.0
 49
0.0
140
0.0
141
0.0
142
1.0
143
1.0
 70
1024
 72
1
 73
0
 74
0
  7

 75
0
147
1.0
148
0.0
149
0.0
100
AcDbLayout
  1
Model
 70
0
 71
0
 10
0.0
 20
0.0
 11
594.0
 21
420.0
 12
0.0
 22
0.0
 32
0.0
 14
0.0
 24
0.0
 34
0.0
 15
0.0
 25
0.0
 35
0.0
146
0.0
 13
0.0
 23
0.0
 33
0.0
 16
1.0
 26
0.0
 36
0.0
 17
0.0
 27
1.0
 37
0.0
 76
0
330
201
345
0
346
0
  0
LAYOUT
  5
4A2
102
{ACAD_REACTORS
330
1A
102
}
100
AcDbPlotSettings
  1

  2
none_device
  4
ISO_A2_(594.00_x_420.00_MM)
  6

 40
0.0
 41
0.0
 42
0.0
 43
0.0
 44
594.0
 45
420.0
 46
0.0
 47
0.0
 48
0.0
 49
0.0
140
0.0
141
0.0
142
1.0
143
1.0
 70
0
 72
1
 73
0
 74
0
  7

 75
0
147
1.0
148
0.0
149
0.0
100
AcDbLayout
  1
Layout1
 70
0
 71
1
 10
0.0
 20
0.0
 11
594.0
 21
420.0
 12
0.0
 22
0.0
 32
0.0
 14
0.0
 24
0.0
 34
0.0
 15
0.0
 25
0.0
 35
0.0
146
0.0
 13
0.0
 23
0.0
 33
0.0
 16
1.0
 26
0.0
 36
0.0
 17
0.0
 27
1.0
 37
0.0
 76
0
330
202
345
0
346
0
  0
ENDSEC
  0
EOF
