999
DXF file: D:\PTC\wf5_pro_stds_KDH\format\Output_dxf\dodaam_a0.dxf
999
Pro/ENGINEER 2010370 by Parametric Technology Corporation
  0
SECTION
  2
HEADER
  9
$ACADVER
  1
AC1015
  9
$DWGCODEPAGE
  3
ANSI_949
  9
$EXTMAX
 10
1189.0
 20
841.0
 30
0.0
  9
$EXTMIN
 10
0.0
 20
0.0
 30
0.0
  9
$LIMMIN
 10
0.0
 20
0.0
  9
$LIMMAX
 10
1189.0
 20
841.0
  9
$VIEWCTR
 10
594.5
 20
420.5
  9
$VIEWSIZE
 40
841.0
  9
$CLAYER
  8
0
  9
$LTSCALE
 40
65.395
  9
$CELTYPE
  6
BYLAYER
  9
$DIMSCALE
 40
1.0
  9
$DIMASZ
 40
3.5
  9
$DIMEXO
 40
7.43125
  9
$DIMDLI
 40
45.182
  9
$DIMEXE
 40
21.402
  9
$DIMCEN
 40
10.701
  9
$DIMLFAC
 40
1.0
  9
$DIMBLK
  1
_FILLED
  9
$DIMTXT
 40
3.2
  9
$DIMTOL
 70
0
  9
$DIMLIM
 70
0
  9
$DIMTFAC
 40
1.0
  9
$PDMODE
 70
3
  9
$PDSIZE
 40
0.3125
  9
$HANDSEED
  5
4CB
  9
$TILEMODE
 70
1
  9
$MEASUREMENT
 70
1
  9
$INSUNITS
 70
4
  0
ENDSEC
  0
SECTION
  2
CLASSES
  0
CLASS
  1
ACDBDICTIONARYWDFLT
  2
AcDbDictionaryWithDefault
  3
AutoCAD 2000
 90
0
280
0
281
0
  0
CLASS
  1
ACDBPLACEHOLDER
  2
AcDbPlaceHolder
  3
AutoCAD 2000
 90
0
280
0
281
0
  0
CLASS
  1
LAYOUT
  2
AcDbLayout
  3
AutoCAD 2000
 90
0
280
0
281
0
  0
ENDSEC
  0
SECTION
  2
TABLES
  0
TABLE
  2
VPORT
  5
8
100
AcDbSymbolTable
 70
2
  0
VPORT
  5
1F4
100
AcDbSymbolTableRecord
100
AcDbViewportTableRecord
  2
*ACTIVE
 70
0
 10
0.0
 20
0.0
 11
1.0
 21
1.0
 12
594.5
 22
420.5
 13
0.0
 23
0.0
 14
1.0
 24
1.0
 15
0.0
 25
0.0
 16
0.0
 26
0.0
 36
1.0
 17
0.0
 27
0.0
 37
0.0
 40
841.0
 41
1.4137931034
 42
50.0
 43
0.0
 44
0.0
 50
0.0
 51
0.0
 71
0
 72
100
 73
1
 74
1
 75
0
 76
0
 77
0
 78
0
  0
ENDTAB
  0
TABLE
  2
LTYPE
  5
5
100
AcDbSymbolTable
 70
6
  0
LTYPE
  5
14
100
AcDbSymbolTableRecord
100
AcDbLinetypeTableRecord
  2
BYBLOCK
 70
0
  3

 72
65
 73
0
 40
0.0
  0
LTYPE
  5
15
100
AcDbSymbolTableRecord
100
AcDbLinetypeTableRecord
  2
BYLAYER
 70
0
  3

 72
65
 73
0
 40
0.0
  0
LTYPE
  5
16
100
AcDbSymbolTableRecord
100
AcDbLinetypeTableRecord
  2
CONTINUOUS
 70
64
  3
Solid line
 72
65
 73
0
 40
0.0
  0
LTYPE
  5
1F5
100
AcDbSymbolTableRecord
100
AcDbLinetypeTableRecord
  2
CENTER
 70
64
  3
____ _ ____ _ ____ _ ____ _ ____ _ ____ _ ____
 72
65
 73
4
 40
0.6
 49
0.375
 74
0
 49
-0.075
 74
0
 49
0.075
 74
0
 49
-0.075
 74
0
  0
LTYPE
  5
1F6
100
AcDbSymbolTableRecord
100
AcDbLinetypeTableRecord
  2
HIDDEN
 70
64
  3
- - - - - - - - - - - - - - - - - - - -
 72
65
 73
2
 40
0.2
 49
0.1
 74
0
 49
-0.1
 74
0
  0
LTYPE
  5
1F7
100
AcDbSymbolTableRecord
100
AcDbLinetypeTableRecord
  2
PHANTOM
 70
64
  3
_____ _ _ _____ _ _ _____ _ _ _____
 72
65
 73
6
 40
0.8
 49
0.45
 74
0
 49
-0.05
 74
0
 49
0.1
 74
0
 49
-0.05
 74
0
 49
0.1
 74
0
 49
-0.05
 74
0
  0
LTYPE
  5
1F8
100
AcDbSymbolTableRecord
100
AcDbLinetypeTableRecord
  2
DOT
 70
64
  3
. . . . . . . . . . . . . . . . . . . .
 72
65
 73
2
 40
0.2
 49
0.1
 74
0
 49
-0.1
 74
0
  0
LTYPE
  5
1F9
100
AcDbSymbolTableRecord
100
AcDbLinetypeTableRecord
  2
DASHED
 70
64
  3
- - - - - - - - - - - - - - - - - - - -
 72
65
 73
2
 40
0.2
 49
0.1
 74
0
 49
-0.1
 74
0
  0
ENDTAB
  0
TABLE
  2
LAYER
  5
2
100
AcDbSymbolTable
 70
36
  0
LAYER
  5
10
100
AcDbSymbolTableRecord
100
AcDbLayerTableRecord
  2
0
 70
0
 62
7
  6
CONTINUOUS
370
-3
390
F
  0
LAYER
  5
1FA
100
AcDbSymbolTableRecord
100
AcDbLayerTableRecord
  2
DEFAULT_1
 70
0
 62
7
  6
CENTER
370
-3
390
F
  0
LAYER
  5
1FB
100
AcDbSymbolTableRecord
100
AcDbLayerTableRecord
  2
DEFAULT_2
 70
0
 62
7
  6
HIDDEN
370
-3
390
F
  0
LAYER
  5
1FC
100
AcDbSymbolTableRecord
100
AcDbLayerTableRecord
  2
DEFAULT_3
 70
0
 62
7
  6
PHANTOM
370
-3
390
F
  0
LAYER
  5
1FD
100
AcDbSymbolTableRecord
100
AcDbLayerTableRecord
  2
FRAME
 70
0
 62
7
  6
CONTINUOUS
370
-3
390
F
  0
ENDTAB
  0
TABLE
  2
STYLE
  5
3
100
AcDbSymbolTable
 70
1
  0
STYLE
  5
11
100
AcDbSymbolTableRecord
100
AcDbTextStyleTableRecord
  2
STANDARD
 70
0
 40
0.0
 41
1.0
 50
0.0
 71
0
 42
0.2
  3
arialuni.ttf
  4

  0
STYLE
  5
1FE
100
AcDbSymbolTableRecord
100
AcDbTextStyleTableRecord
  2
TEXTSTYLE_1
 70
0
 40
0.0
 41
0.8
 50
0.0
 71
0
 42
0.2
  3
gdt
  4

  0
STYLE
  5
1FF
100
AcDbSymbolTableRecord
100
AcDbTextStyleTableRecord
  2
TEXTSTYLE_2
 70
0
 40
0.0
 41
1.0
 50
0.0
 71
0
 42
0.2
  3
arialuni.ttf
  4

  0
ENDTAB
  0
TABLE
  2
VIEW
  5
6
100
AcDbSymbolTable
 70
0
  0
ENDTAB
  0
TABLE
  2
UCS
  5
7
100
AcDbSymbolTable
 70
0
  0
ENDTAB
  0
TABLE
  2
APPID
  5
9
100
AcDbSymbolTable
 70
1
  0
APPID
  5
200
100
AcDbSymbolTableRecord
100
AcDbRegAppTableRecord
  2
ACAD
 70
0
  0
ENDTAB
  0
TABLE
  2
BLOCK_RECORD
  5
1
100
AcDbSymbolTable
 70
0
  0
BLOCK_RECORD
  5
201
100
AcDbSymbolTableRecord
100
AcDbBlockTableRecord
  2
*Model_Space
  0
BLOCK_RECORD
  5
202
100
AcDbSymbolTableRecord
100
AcDbBlockTableRecord
  2
*Paper_Space
  0
ENDTAB
  0
TABLE
  2
DIMSTYLE
  5
A
100
AcDbSymbolTable
 70
1
100
AcDbDimStyleTable
 71
0
  0
DIMSTYLE
105
203
100
AcDbSymbolTableRecord
100
AcDbDimStyleTableRecord
  2
STANDARD
 70
0
  3

  4

 40
1.0
 41
3.5
 42
0.0625
 43
0.38
 44
0.18
 45
0.0
 46
0.0
 47
0.01
 48
0.01
140
3.2
141
0.09
142
0.0
143
25.4
144
1.0
145
0.0
146
1.0
147
0.09
 71
0.0
 72
0.0
 73
1
 74
1
 75
0
 76
0
 77
0
 78
8
170
0
171
2
172
0
173
0
174
0
175
0
176
0
177
0
178
0
270
2
271
2
272
2
273
2
274
2
275
0
280
0
281
0
282
0
283
1
284
8
285
0
286
0
287
3
288
0
340
11
  0
ENDTAB
  0
ENDSEC
  0
SECTION
  2
BLOCKS
  0
BLOCK
  5
20
100
AcDbEntity
  8
0
100
AcDbBlockBegin
  2
*Model_Space
 70
0
 10
0.0
 20
0.0
 30
0.0
  3
*Model_Space
  1

  0
ENDBLK
  5
21
100
AcDbEntity
  8
0
100
AcDbBlockEnd
  0
BLOCK
  5
1C
100
AcDbEntity
  8
0
100
AcDbBlockBegin
  2
*Paper_Space
 70
0
 10
0.0
 20
0.0
 30
0.0
  3
*Paper_Space
  1

  0
ENDBLK
  5
1D
100
AcDbEntity
  8
0
100
AcDbBlockEnd
  0
ENDSEC
  0
SECTION
  2
ENTITIES
  0
SPLINE
  5
204
100
AcDbEntity
  8
FRAME
100
AcDbSpline
 62
7
  6
BYLAYER
 70
2
 71
3
 72
38
 73
34
 74
0
 42
0.0000001
 43
0.0000001
 44
0.0000000001
 40
0.0
 40
0.0
 40
0.0
 40
0.0
 40
0.3937162255
 40
0.3937162255
 40
0.7874324511
 40
0.7874324511
 40
1.1811486766
 40
1.1811486766
 40
1.5748649022
 40
1.5748649022
 40
1.9685811277
 40
1.9685811277
 40
2.3622973532
 40
2.3622973532
 40
2.7560135788
 40
2.7560135788
 40
3.1497298043
 40
3.1497298043
 40
3.5434460299
 40
3.5434460299
 40
3.9371622554
 40
3.9371622554
 40
4.330878481
 40
4.330878481
 40
4.7245947065
 40
4.7245947065
 40
5.118310932
 40
5.118310932
 40
5.5120271576
 40
5.5120271576
 40
5.9057433831
 40
5.9057433831
 40
6.2831853072
 40
6.2831853072
 40
6.2831853072
 40
6.2831853072
 10
1102.837917516
 20
59.0374837494
 30
0.0
 10
1102.9674095799
 20
59.0374837494
 30
0.0
 10
1103.0973065809
 20
59.0651064698
 30
0.0
 10
1103.3494431189
 20
59.1798205699
 30
0.0
 10
1103.4716819111
 20
59.2676641763
 30
0.0
 10
1103.6855565243
 20
59.5028627823
 30
0.0
 10
1103.7765260959
 20
59.65035539
 30
0.0
 10
1103.9013427565
 20
59.9832575259
 30
0.0
 10
1103.9347759749
 20
60.1682415166
 30
0.0
 10
1103.933401126
 20
60.538341253
 30
0.0
 10
1103.8985972713
 20
60.7229046987
 30
0.0
 10
1103.771460606
 20
61.0542946591
 30
0.0
 10
1103.6795503149
 20
61.200701946
 30
0.0
 10
1103.4643872633
 20
61.4334977914
 30
0.0
 10
1103.341798835
 20
61.520040504
 30
0.0
 10
1103.0893066349
 20
61.632286704
 30
0.0
 10
1102.9593797366
 20
61.6587436375
 30
0.0
 10
1102.7003976332
 20
61.6564355076
 30
0.0
 10
1102.5705330212
 20
61.6276440457
 30
0.0
 10
1102.3187655801
 20
61.5104579189
 30
0.0
 10
1102.1968871992
 20
61.4213129877
 30
0.0
 10
1101.9843241765
 20
61.1837210677
 30
0.0
 10
1101.8943072566
 20
61.0351529103
 30
0.0
 10
1101.7718273472
 20
60.7007653665
 30
0.0
 10
1101.7397695467
 20
60.5153776288
 30
0.0
 10
1101.7438939012
 20
60.1453115012
 30
0.0
 10
1101.7800634174
 20
59.9611853214
 30
0.0
 10
1101.9095030647
 20
59.6313340256
 30
0.0
 10
1102.0023420649
 20
59.4860216254
 30
0.0
 10
1102.2187704482
 20
59.2556375983
 30
0.0
 10
1102.3416978708
 20
59.1703951766
 30
0.0
 10
1102.5893071218
 20
59.0628815864
 30
0.0
 10
1102.7137780202
 20
59.0374837494
 30
0.0
 10
1102.837917516
 20
59.0374837494
 30
0.0
  0
LINE
  5
205
100
AcDbEntity
  8
0
100
AcDbLine
 62
7
  6
BYLAYER
 10
1171.6000000726
 20
17.4000003495
 11
1091.6000000726
 21
17.4000003495
  0
LINE
  5
206
100
AcDbEntity
  8
0
100
AcDbLine
 62
7
  6
BYLAYER
 10
1171.6000000726
 20
17.4000003495
 11
1171.6000000726
 21
67.4000003495
  0
LINE
  5
207
100
AcDbEntity
  8
0
100
AcDbLine
 62
7
  6
BYLAYER
 10
1171.6000000726
 20
24.4000003495
 11
1106.6000000726
 21
24.4000003495
  0
LINE
  5
208
100
AcDbEntity
  8
0
100
AcDbLine
 62
7
  6
BYLAYER
 10
1171.6000000726
 20
34.4000003495
 11
1091.6000000726
 21
34.4000003495
  0
LINE
  5
209
100
AcDbEntity
  8
0
100
AcDbLine
 62
7
  6
BYLAYER
 10
1171.6000000726
 20
54.4000003495
 11
1091.6000000726
 21
54.4000003495
  0
LINE
  5
20A
100
AcDbEntity
  8
0
100
AcDbLine
 62
7
  6
BYLAYER
 10
1171.6000000726
 20
67.4000003495
 11
1091.6000000726
 21
67.4000003495
  0
LINE
  5
20B
100
AcDbEntity
  8
0
100
AcDbLine
 62
7
  6
BYLAYER
 10
1106.6000000726
 20
17.4000003495
 11
1106.6000000726
 21
34.4000003495
  0
LINE
  5
20C
100
AcDbEntity
  8
0
100
AcDbLine
 62
7
  6
BYLAYER
 10
1091.6000000726
 20
17.4000003495
 11
1091.6000000726
 21
67.4000003495
  0
MTEXT
  5
20D
100
AcDbEntity
  8
0
100
AcDbMText
 62
7
  6
BYLAYER
  7
TEXTSTYLE_2
 71
2
 72
1
 10
1139.1000000726
 20
22.1500003495
 30
0.0
 11
1.0
 21
0.0
 31
0.0
 44
0.9
  1
&total_sheets 장중 &current_sheet 번째
 40
2.5
 41
61.4925373134
  0
MTEXT
  5
20E
100
AcDbEntity
  8
0
100
AcDbMText
 62
7
  6
BYLAYER
  7
TEXTSTYLE_2
 71
2
 72
1
 10
1099.1000000726
 20
28.4000003495
 30
0.0
 11
1.0
 21
0.0
 31
0.0
 44
0.9
  1
&format
 40
5.0
 41
24.4962686567
  0
MTEXT
  5
20F
100
AcDbEntity
  8
0
100
AcDbMText
 62
7
  6
BYLAYER
  7
TEXTSTYLE_2
 71
2
 72
1
 10
1139.1000000726
 20
31.1500003495
 30
0.0
 11
1.0
 21
0.0
 31
0.0
 44
0.9
  1
&NUMBER
 40
3.5
 41
24.4869402985
  0
MTEXT
  5
210
100
AcDbEntity
  8
0
100
AcDbMText
 62
7
  6
BYLAYER
  7
TEXTSTYLE_2
 71
2
 72
1
 10
1131.6000000726
 20
46.1500003495
 30
0.0
 11
1.0
 21
0.0
 31
0.0
 44
0.9
  1
&NAME
 40
3.5
 41
17.4085820896
  0
MTEXT
  5
211
100
AcDbEntity
  8
0
100
AcDbMText
 62
7
  6
BYLAYER
  7
TEXTSTYLE_2
 71
3
 72
1
 10
1171.5375000726
 20
62.6500003495
 30
0.0
 11
1.0
 21
0.0
 31
0.0
 44
0.9
  1
(주)도담시스템스  
 40
3.5
 41
40.2630597015
  0
LINE
  5
212
100
AcDbEntity
  8
0
100
AcDbLine
 62
7
  6
BYLAYER
 10
1091.6000000726
 20
17.4000003495
 11
1031.6000000726
 21
17.4000003495
  0
LINE
  5
213
100
AcDbEntity
  8
0
100
AcDbLine
 62
7
  6
BYLAYER
 10
1091.6000000726
 20
17.4000003495
 11
1091.6000000726
 21
67.4000003495
  0
LINE
  5
214
100
AcDbEntity
  8
0
100
AcDbLine
 62
7
  6
BYLAYER
 10
1091.6000000726
 20
24.4000003495
 11
1031.6000000726
 21
24.4000003495
  0
LINE
  5
215
100
AcDbEntity
  8
0
100
AcDbLine
 62
7
  6
BYLAYER
 10
1091.6000000726
 20
34.4000003495
 11
1031.6000000726
 21
34.4000003495
  0
LINE
  5
216
100
AcDbEntity
  8
0
100
AcDbLine
 62
7
  6
BYLAYER
 10
1091.6000000726
 20
39.4000003495
 11
1031.6000000726
 21
39.4000003495
  0
LINE
  5
217
100
AcDbEntity
  8
0
100
AcDbLine
 62
7
  6
BYLAYER
 10
1091.6000000726
 20
44.4000003495
 11
1031.6000000726
 21
44.4000003495
  0
LINE
  5
218
100
AcDbEntity
  8
0
100
AcDbLine
 62
7
  6
BYLAYER
 10
1091.6000000726
 20
49.4000003495
 11
1031.6000000726
 21
49.4000003495
  0
LINE
  5
219
100
AcDbEntity
  8
0
100
AcDbLine
 62
7
  6
BYLAYER
 10
1091.6000000726
 20
60.9000003495
 11
1031.6000000726
 21
60.9000003495
  0
LINE
  5
21A
100
AcDbEntity
  8
0
100
AcDbLine
 62
7
  6
BYLAYER
 10
1091.6000000726
 20
67.4000003495
 11
1031.6000000726
 21
67.4000003495
  0
LINE
  5
21B
100
AcDbEntity
  8
0
100
AcDbLine
 62
7
  6
BYLAYER
 10
1071.6000000726
 20
17.4000003495
 11
1071.6000000726
 21
24.4000003495
  0
LINE
  5
21C
100
AcDbEntity
  8
0
100
AcDbLine
 62
7
  6
BYLAYER
 10
1061.6000000726
 20
34.4000003495
 11
1061.6000000726
 21
49.4000003495
  0
LINE
  5
21D
100
AcDbEntity
  8
0
100
AcDbLine
 62
7
  6
BYLAYER
 10
1051.6000000726
 20
17.4000003495
 11
1051.6000000726
 21
24.4000003495
  0
LINE
  5
21E
100
AcDbEntity
  8
0
100
AcDbLine
 62
7
  6
BYLAYER
 10
1031.6000000726
 20
17.4000003495
 11
1031.6000000726
 21
67.4000003495
  0
MTEXT
  5
21F
100
AcDbEntity
  8
0
100
AcDbMText
 62
7
  6
BYLAYER
  7
TEXTSTYLE_2
 71
3
 72
1
 10
1091.5375000726
 20
22.1500003495
 30
0.0
 11
1.0
 21
0.0
 31
0.0
 44
0.9
  1
kg
 40
2.5
 41
3.703358209
  0
MTEXT
  5
220
100
AcDbEntity
  8
0
100
AcDbMText
 62
7
  6
BYLAYER
  7
TEXTSTYLE_2
 71
3
 72
1
 10
1071.5375000726
 20
22.1500003495
 30
0.0
 11
1.0
 21
0.0
 31
0.0
 44
0.9
  1
mm
 40
2.5
 41
5.8208955224
  0
MTEXT
  5
221
100
AcDbEntity
  8
0
100
AcDbMText
 62
7
  6
BYLAYER
  7
TEXTSTYLE_2
 71
3
 72
1
 10
1051.5375000726
 20
22.1500003495
 30
0.0
 11
1.0
 21
0.0
 31
0.0
 44
0.9
  1
&scale
 40
2.5
 41
10.5130597015
  0
MTEXT
  5
222
100
AcDbEntity
  8
0
100
AcDbMText
 62
7
  6
BYLAYER
  7
TEXTSTYLE_2
 71
2
 72
1
 10
1061.6000000726
 20
30.6500003495
 30
0.0
 11
1.0
 21
0.0
 31
0.0
 44
0.9
  1
로봇경계사업부
 40
2.5
 41
24.4869402985
  0
MTEXT
  5
223
100
AcDbEntity
  8
0
100
AcDbMText
 62
7
  6
BYLAYER
  7
TEXTSTYLE_2
 71
3
 72
1
 10
1091.5375000726
 20
38.1500003495
 30
0.0
 11
1.0
 21
0.0
 31
0.0
 44
0.9
  1
-
 40
2.5
 41
1.1660447761
  0
MTEXT
  5
224
100
AcDbEntity
  8
0
100
AcDbMText
 62
7
  6
BYLAYER
  7
TEXTSTYLE_2
 71
3
 72
1
 10
1061.5375000726
 20
38.1500003495
 30
0.0
 11
1.0
 21
0.0
 31
0.0
 44
0.9
  1
&DESIGNER
 40
2.5
 41
20.6063432836
  0
MTEXT
  5
225
100
AcDbEntity
  8
0
100
AcDbMText
 62
7
  6
BYLAYER
  7
TEXTSTYLE_2
 71
3
 72
1
 10
1091.5375000726
 20
43.1500003495
 30
0.0
 11
1.0
 21
0.0
 31
0.0
 44
0.9
  1
-
 40
2.5
 41
1.1660447761
  0
MTEXT
  5
226
100
AcDbEntity
  8
0
100
AcDbMText
 62
7
  6
BYLAYER
  7
TEXTSTYLE_2
 71
3
 72
1
 10
1061.5375000726
 20
43.1500003495
 30
0.0
 11
1.0
 21
0.0
 31
0.0
 44
0.9
  1
&DESIGNER
 40
2.5
 41
20.6063432836
  0
MTEXT
  5
227
100
AcDbEntity
  8
0
100
AcDbMText
 62
7
  6
BYLAYER
  7
TEXTSTYLE_2
 71
3
 72
1
 10
1091.5375000726
 20
48.1500003495
 30
0.0
 11
1.0
 21
0.0
 31
0.0
 44
0.9
  1
-
 40
2.5
 41
1.1660447761
  0
MTEXT
  5
228
100
AcDbEntity
  8
0
100
AcDbMText
 62
7
  6
BYLAYER
  7
TEXTSTYLE_2
 71
3
 72
1
 10
1061.5375000726
 20
48.1500003495
 30
0.0
 11
1.0
 21
0.0
 31
0.0
 44
0.9
  1
&CHECKER
 40
2.5
 41
19.4402985075
  0
MTEXT
  5
229
100
AcDbEntity
  8
0
100
AcDbMText
 62
7
  6
BYLAYER
  7
TEXTSTYLE_2
 71
2
 72
1
 10
1061.6000000726
 20
56.4000003495
 30
0.0
 11
1.0
 21
0.0
 31
0.0
 44
0.9
  1
-
 40
2.5
 41
1.1660447761
  0
MTEXT
  5
22A
100
AcDbEntity
  8
0
100
AcDbMText
 62
7
  6
BYLAYER
  7
TEXTSTYLE_2
 71
2
 72
1
 10
1061.6000000726
 20
65.4000003495
 30
0.0
 11
1.0
 21
0.0
 31
0.0
 44
0.9
  1
&todays_date
 40
2.5
 41
21.2313432836
  0
LINE
  5
22B
100
AcDbEntity
  8
0
100
AcDbLine
 62
7
  6
BYLAYER
 10
1031.6000000726
 20
17.4000003495
 11
976.6000000726
 21
17.4000003495
  0
LINE
  5
22C
100
AcDbEntity
  8
0
100
AcDbLine
 62
7
  6
BYLAYER
 10
1031.6000000726
 20
17.4000003495
 11
1031.6000000726
 21
81.4000003495
  0
LINE
  5
22D
100
AcDbEntity
  8
0
100
AcDbLine
 62
7
  6
BYLAYER
 10
1031.6000000726
 20
27.4000003495
 11
976.6000000726
 21
27.4000003495
  0
LINE
  5
22E
100
AcDbEntity
  8
0
100
AcDbLine
 62
7
  6
BYLAYER
 10
1031.6000000726
 20
37.4000003495
 11
976.6000000726
 21
37.4000003495
  0
LINE
  5
22F
100
AcDbEntity
  8
0
100
AcDbLine
 62
7
  6
BYLAYER
 10
1031.6000000726
 20
47.4000003495
 11
976.6000000726
 21
47.4000003495
  0
LINE
  5
230
100
AcDbEntity
  8
0
100
AcDbLine
 62
7
  6
BYLAYER
 10
1031.6000000726
 20
67.4000003495
 11
976.6000000726
 21
67.4000003495
  0
LINE
  5
231
100
AcDbEntity
  8
0
100
AcDbLine
 62
7
  6
BYLAYER
 10
1031.6000000726
 20
81.4000003495
 11
976.6000000726
 21
81.4000003495
  0
LINE
  5
232
100
AcDbEntity
  8
0
100
AcDbLine
 62
7
  6
BYLAYER
 10
976.6000000726
 20
17.4000003495
 11
976.6000000726
 21
81.4000003495
  0
MTEXT
  5
233
100
AcDbEntity
  8
0
100
AcDbMText
 62
7
  6
BYLAYER
  7
TEXTSTYLE_2
 71
2
 72
1
 10
1004.1000000726
 20
23.6500003495
 30
0.0
 11
1.0
 21
0.0
 31
0.0
 44
0.9
  1
-
 40
2.5
 41
1.1660447761
  0
MTEXT
  5
234
100
AcDbEntity
  8
0
100
AcDbMText
 62
7
  6
BYLAYER
  7
TEXTSTYLE_2
 71
2
 72
1
 10
1004.1000000726
 20
33.6500003495
 30
0.0
 11
1.0
 21
0.0
 31
0.0
 44
0.9
  1
-
 40
2.5
 41
1.1660447761
  0
MTEXT
  5
235
100
AcDbEntity
  8
0
100
AcDbMText
 62
7
  6
BYLAYER
  7
TEXTSTYLE_2
 71
2
 72
1
 10
1004.1000000726
 20
43.6500003495
 30
0.0
 11
1.0
 21
0.0
 31
0.0
 44
0.9
  1
&MATERIAL
 40
2.5
 41
19.822761194
  0
MTEXT
  5
236
100
AcDbEntity
  8
0
100
AcDbMText
 62
7
  6
BYLAYER
  7
TEXTSTYLE_2
 71
2
 72
1
 10
1004.1000000726
 20
75.6500003495
 30
0.0
 11
1.0
 21
0.0
 31
0.0
 44
0.9
  1
-
 40
2.5
 41
1.1660447761
  0
LINE
  5
237
100
AcDbEntity
  8
0
100
AcDbLine
 62
7
  6
BYLAYER
 10
1171.6000000726
 20
67.4000003495
 11
1031.6000000726
 21
67.4000003495
  0
LINE
  5
238
100
AcDbEntity
  8
0
100
AcDbLine
 62
7
  6
BYLAYER
 10
1171.6000000726
 20
67.4000003495
 11
1171.6000000726
 21
86.4000003495
  0
LINE
  5
239
100
AcDbEntity
  8
0
100
AcDbLine
 62
7
  6
BYLAYER
 10
1171.6000000726
 20
76.4000003495
 11
1031.6000000726
 21
76.4000003495
  0
LINE
  5
23A
100
AcDbEntity
  8
0
100
AcDbLine
 62
7
  6
BYLAYER
 10
1171.6000000726
 20
81.4000003495
 11
1031.6000000726
 21
81.4000003495
  0
LINE
  5
23B
100
AcDbEntity
  8
0
100
AcDbLine
 62
7
  6
BYLAYER
 10
1171.6000000726
 20
86.4000003495
 11
1031.6000000726
 21
86.4000003495
  0
LINE
  5
23C
100
AcDbEntity
  8
0
100
AcDbLine
 62
7
  6
BYLAYER
 10
1143.1000000726
 20
76.4000003495
 11
1143.1000000726
 21
86.4000003495
  0
LINE
  5
23D
100
AcDbEntity
  8
0
100
AcDbLine
 62
7
  6
BYLAYER
 10
1114.6000000726
 20
76.4000003495
 11
1114.6000000726
 21
86.4000003495
  0
LINE
  5
23E
100
AcDbEntity
  8
0
100
AcDbLine
 62
7
  6
BYLAYER
 10
1104.6000000726
 20
76.4000003495
 11
1104.6000000726
 21
86.4000003495
  0
LINE
  5
23F
100
AcDbEntity
  8
0
100
AcDbLine
 62
7
  6
BYLAYER
 10
1041.6000000726
 20
76.4000003495
 11
1041.6000000726
 21
86.4000003495
  0
LINE
  5
240
100
AcDbEntity
  8
0
100
AcDbLine
 62
7
  6
BYLAYER
 10
1031.6000000726
 20
67.4000003495
 11
1031.6000000726
 21
86.4000003495
  0
LINE
  5
241
100
AcDbEntity
  8
0
100
AcDbLine
 62
7
  6
BYLAYER
 10
1033.3835000726
 20
83.1835003495
 11
1033.3835000726
 21
84.6165003495
  0
LINE
  5
242
100
AcDbEntity
  8
0
100
AcDbLine
 62
7
  6
BYLAYER
 10
1033.3835000726
 20
84.6165003495
 11
1169.8165000726
 21
84.6165003495
  0
LINE
  5
243
100
AcDbEntity
  8
0
100
AcDbLine
 62
7
  6
BYLAYER
 10
1169.8165000726
 20
84.6165003495
 11
1169.8165000726
 21
83.1835003495
  0
LINE
  5
244
100
AcDbEntity
  8
0
100
AcDbLine
 62
7
  6
BYLAYER
 10
1169.8165000726
 20
83.1835003495
 11
1033.3835000726
 21
83.1835003495
  0
MTEXT
  5
245
100
AcDbEntity
  8
0
100
AcDbMText
 62
7
  6
BYLAYER
  7
TEXTSTYLE_2
 71
2
 72
1
 10
1101.6000000726
 20
73.6500003495
 30
0.0
 11
1.0
 21
0.0
 31
0.0
 44
0.9
  1
부    품    목    록
 40
3.5
 41
35.8880597015
  0
MTEXT
  5
246
100
AcDbEntity
  8
0
100
AcDbMText
 62
7
  6
BYLAYER
  7
TEXTSTYLE_2
 71
2
 72
1
 10
1157.3500000726
 20
80.1500003495
 30
0.0
 11
1.0
 21
0.0
 31
0.0
 44
0.9
  1
도면번호
 40
2.5
 41
13.9925373134
  0
MTEXT
  5
247
100
AcDbEntity
  8
0
100
AcDbMText
 62
7
  6
BYLAYER
  7
TEXTSTYLE_2
 71
2
 72
1
 10
1128.8500000726
 20
80.1500003495
 30
0.0
 11
1.0
 21
0.0
 31
0.0
 44
0.9
  1
부품번호
 40
2.5
 41
13.9925373134
  0
MTEXT
  5
248
100
AcDbEntity
  8
0
100
AcDbMText
 62
7
  6
BYLAYER
  7
TEXTSTYLE_2
 71
2
 72
1
 10
1109.6000000726
 20
80.1500003495
 30
0.0
 11
1.0
 21
0.0
 31
0.0
 44
0.9
  1
수량
 40
2.5
 41
6.9962686567
  0
MTEXT
  5
249
100
AcDbEntity
  8
0
100
AcDbMText
 62
7
  6
BYLAYER
  7
TEXTSTYLE_2
 71
2
 72
1
 10
1073.1000000726
 20
80.1500003495
 30
0.0
 11
1.0
 21
0.0
 31
0.0
 44
0.9
  1
품명
 40
2.5
 41
6.9962686567
  0
MTEXT
  5
24A
100
AcDbEntity
  8
0
100
AcDbMText
 62
7
  6
BYLAYER
  7
TEXTSTYLE_2
 71
2
 72
1
 10
1036.6000000726
 20
80.1500003495
 30
0.0
 11
1.0
 21
0.0
 31
0.0
 44
0.9
  1
번호
 40
2.5
 41
6.9962686567
  0
MTEXT
  5
24B
100
AcDbEntity
  8
0
100
AcDbMText
 62
7
  6
BYLAYER
  7
TEXTSTYLE_2
 71
2
 72
1
 10
1157.3500000726
 20
85.6500003495
 30
0.0
 11
1.0
 21
0.0
 31
0.0
 44
0.9
  1
&asm.mbr.NUMBER
 40
3.5
 41
44.8992537313
  0
MTEXT
  5
24C
100
AcDbEntity
  8
0
100
AcDbMText
 62
7
  6
BYLAYER
  7
TEXTSTYLE_2
 71
2
 72
1
 10
1128.8500000726
 20
85.6500003495
 30
0.0
 11
1.0
 21
0.0
 31
0.0
 44
0.9
  1
&asm.mbr.NOMENCLATURE
 40
3.5
 41
64.776119403
  0
MTEXT
  5
24D
100
AcDbEntity
  8
0
100
AcDbMText
 62
7
  6
BYLAYER
  7
TEXTSTYLE_2
 71
2
 72
1
 10
1109.6000000726
 20
85.6500003495
 30
0.0
 11
1.0
 21
0.0
 31
0.0
 44
0.9
  1
&prt.qty
 40
3.5
 41
16.8861940299
  0
MTEXT
  5
24E
100
AcDbEntity
  8
0
100
AcDbMText
 62
7
  6
BYLAYER
  7
TEXTSTYLE_2
 71
2
 72
1
 10
1073.1000000726
 20
85.6500003495
 30
0.0
 11
1.0
 21
0.0
 31
0.0
 44
0.9
  1
&asm.mbr.NAME
 40
3.5
 41
37.8208955224
  0
MTEXT
  5
24F
100
AcDbEntity
  8
0
100
AcDbMText
 62
7
  6
BYLAYER
  7
TEXTSTYLE_2
 71
2
 72
1
 10
1036.6000000726
 20
85.6500003495
 30
0.0
 11
1.0
 21
0.0
 31
0.0
 44
0.9
  1
&rpt.index
 40
3.5
 41
22.0708955224
  0
LINE
  5
250
100
AcDbEntity
  8
0
100
AcDbLine
 62
7
  6
BYLAYER
 10
976.6000000726
 20
17.4000003495
 11
906.6000000726
 21
17.4000003495
  0
LINE
  5
251
100
AcDbEntity
  8
0
100
AcDbLine
 62
7
  6
BYLAYER
 10
976.6000000726
 20
17.4000003495
 11
976.6000000726
 21
67.4000003495
  0
LINE
  5
252
100
AcDbEntity
  8
0
100
AcDbLine
 62
7
  6
BYLAYER
 10
976.6000000726
 20
23.4000003495
 11
906.6000000726
 21
23.4000003495
  0
LINE
  5
253
100
AcDbEntity
  8
0
100
AcDbLine
 62
7
  6
BYLAYER
 10
976.6000000726
 20
28.4000003495
 11
906.6000000726
 21
28.4000003495
  0
LINE
  5
254
100
AcDbEntity
  8
0
100
AcDbLine
 62
7
  6
BYLAYER
 10
976.6000000726
 20
33.4000003495
 11
906.6000000726
 21
33.4000003495
  0
LINE
  5
255
100
AcDbEntity
  8
0
100
AcDbLine
 62
7
  6
BYLAYER
 10
976.6000000726
 20
38.4000003495
 11
906.6000000726
 21
38.4000003495
  0
LINE
  5
256
100
AcDbEntity
  8
0
100
AcDbLine
 62
7
  6
BYLAYER
 10
976.6000000726
 20
43.4000003495
 11
906.6000000726
 21
43.4000003495
  0
LINE
  5
257
100
AcDbEntity
  8
0
100
AcDbLine
 62
7
  6
BYLAYER
 10
976.6000000726
 20
67.4000003495
 11
906.6000000726
 21
67.4000003495
  0
LINE
  5
258
100
AcDbEntity
  8
0
100
AcDbLine
 62
7
  6
BYLAYER
 10
941.6000000726
 20
17.4000003495
 11
941.6000000726
 21
43.4000003495
  0
LINE
  5
259
100
AcDbEntity
  8
0
100
AcDbLine
 62
7
  6
BYLAYER
 10
906.6000000726
 20
17.4000003495
 11
906.6000000726
 21
67.4000003495
  0
MTEXT
  5
25A
100
AcDbEntity
  8
0
100
AcDbMText
 62
7
  6
BYLAYER
  7
TEXTSTYLE_2
 71
3
 72
1
 10
976.5375000726
 20
21.6500003495
 30
0.0
 11
1.0
 21
0.0
 31
0.0
 44
0.9
  1
-
 40
2.5
 41
1.1660447761
  0
MTEXT
  5
25B
100
AcDbEntity
  8
0
100
AcDbMText
 62
7
  6
BYLAYER
  7
TEXTSTYLE_2
 71
3
 72
1
 10
941.5375000726
 20
21.6500003495
 30
0.0
 11
1.0
 21
0.0
 31
0.0
 44
0.9
  1
-
 40
2.5
 41
1.1660447761
  0
MTEXT
  5
25C
100
AcDbEntity
  8
0
100
AcDbMText
 62
7
  6
BYLAYER
  7
TEXTSTYLE_2
 71
2
 72
1
 10
959.1000000726
 20
27.1500003495
 30
0.0
 11
1.0
 21
0.0
 31
0.0
 44
0.9
  1
적용품목
 40
2.5
 41
13.9925373134
  0
MTEXT
  5
25D
100
AcDbEntity
  8
0
100
AcDbMText
 62
7
  6
BYLAYER
  7
TEXTSTYLE_2
 71
2
 72
1
 10
924.1000000726
 20
27.1500003495
 30
0.0
 11
1.0
 21
0.0
 31
0.0
 44
0.9
  1
관련도면
 40
2.5
 41
13.9925373134
  0
MTEXT
  5
25E
100
AcDbEntity
  8
0
100
AcDbMText
 62
7
  6
BYLAYER
  7
TEXTSTYLE_2
 71
2
 72
1
 10
959.1000000726
 20
32.1500003495
 30
0.0
 11
1.0
 21
0.0
 31
0.0
 44
0.9
  1
-
 40
2.5
 41
1.1660447761
  0
MTEXT
  5
25F
100
AcDbEntity
  8
0
100
AcDbMText
 62
7
  6
BYLAYER
  7
TEXTSTYLE_2
 71
2
 72
1
 10
924.1000000726
 20
32.1500003495
 30
0.0
 11
1.0
 21
0.0
 31
0.0
 44
0.9
  1
-
 40
2.5
 41
1.1660447761
  0
MTEXT
  5
260
100
AcDbEntity
  8
0
100
AcDbMText
 62
7
  6
BYLAYER
  7
TEXTSTYLE_2
 71
2
 72
1
 10
959.1000000726
 20
37.1500003495
 30
0.0
 11
1.0
 21
0.0
 31
0.0
 44
0.9
  1
-
 40
2.5
 41
1.1660447761
  0
MTEXT
  5
261
100
AcDbEntity
  8
0
100
AcDbMText
 62
7
  6
BYLAYER
  7
TEXTSTYLE_2
 71
2
 72
1
 10
924.1000000726
 20
37.1500003495
 30
0.0
 11
1.0
 21
0.0
 31
0.0
 44
0.9
  1
-
 40
2.5
 41
1.1660447761
  0
MTEXT
  5
262
100
AcDbEntity
  8
0
100
AcDbMText
 62
7
  6
BYLAYER
  7
TEXTSTYLE_2
 71
2
 72
1
 10
959.1000000726
 20
42.1500003495
 30
0.0
 11
1.0
 21
0.0
 31
0.0
 44
0.9
  1
-
 40
2.5
 41
1.1660447761
  0
MTEXT
  5
263
100
AcDbEntity
  8
0
100
AcDbMText
 62
7
  6
BYLAYER
  7
TEXTSTYLE_2
 71
2
 72
1
 10
924.1000000726
 20
42.1500003495
 30
0.0
 11
1.0
 21
0.0
 31
0.0
 44
0.9
  1
-
 40
2.5
 41
1.1660447761
  0
MTEXT
  5
264
100
AcDbEntity
  8
0
100
AcDbMText
 62
7
  6
BYLAYER
  7
TEXTSTYLE_2
 71
2
 72
1
 10
941.6000000726
 20
56.6500003495
 30
0.0
 11
1.0
 21
0.0
 31
0.0
 44
0.9
  1
-
 40
2.5
 41
1.1660447761
  0
LINE
  5
265
100
AcDbEntity
  8
0
100
AcDbLine
 62
7
  6
BYLAYER
 10
977.6000000726
 20
62.4000003495
 11
992.6000000726
 21
62.4000003495
  0
LINE
  5
266
100
AcDbEntity
  8
0
100
AcDbLine
 62
7
  6
BYLAYER
 10
977.6000000726
 20
62.4000003495
 11
977.6000000726
 21
48.5000003495
  0
LINE
  5
267
100
AcDbEntity
  8
0
100
AcDbLine
 62
7
  6
BYLAYER
 10
977.6000000726
 20
60.4000003495
 11
992.6000000726
 21
60.4000003495
  0
LINE
  5
268
100
AcDbEntity
  8
0
100
AcDbLine
 62
7
  6
BYLAYER
 10
977.6000000726
 20
58.7000003495
 11
992.6000000726
 21
58.7000003495
  0
LINE
  5
269
100
AcDbEntity
  8
0
100
AcDbLine
 62
7
  6
BYLAYER
 10
977.6000000726
 20
57.0000003495
 11
992.6000000726
 21
57.0000003495
  0
LINE
  5
26A
100
AcDbEntity
  8
0
100
AcDbLine
 62
7
  6
BYLAYER
 10
977.6000000726
 20
55.3000003495
 11
992.6000000726
 21
55.3000003495
  0
LINE
  5
26B
100
AcDbEntity
  8
0
100
AcDbLine
 62
7
  6
BYLAYER
 10
977.6000000726
 20
53.6000003495
 11
992.6000000726
 21
53.6000003495
  0
LINE
  5
26C
100
AcDbEntity
  8
0
100
AcDbLine
 62
7
  6
BYLAYER
 10
977.6000000726
 20
51.9000003495
 11
992.6000000726
 21
51.9000003495
  0
LINE
  5
26D
100
AcDbEntity
  8
0
100
AcDbLine
 62
7
  6
BYLAYER
 10
977.6000000726
 20
50.2000003495
 11
992.6000000726
 21
50.2000003495
  0
LINE
  5
26E
100
AcDbEntity
  8
0
100
AcDbLine
 62
7
  6
BYLAYER
 10
977.6000000726
 20
48.5000003495
 11
992.6000000726
 21
48.5000003495
  0
LINE
  5
26F
100
AcDbEntity
  8
0
100
AcDbLine
 62
7
  6
BYLAYER
 10
982.6000000726
 20
60.4000003495
 11
982.6000000726
 21
48.5000003495
  0
LINE
  5
270
100
AcDbEntity
  8
0
100
AcDbLine
 62
7
  6
BYLAYER
 10
987.6000000726
 20
60.4000003495
 11
987.6000000726
 21
48.5000003495
  0
LINE
  5
271
100
AcDbEntity
  8
0
100
AcDbLine
 62
7
  6
BYLAYER
 10
992.6000000726
 20
62.4000003495
 11
992.6000000726
 21
48.5000003495
  0
MTEXT
  5
272
100
AcDbEntity
  8
0
100
AcDbMText
 62
7
  6
BYLAYER
  7
TEXTSTYLE_2
 71
2
 72
1
 10
985.1000000726
 20
62.0000003495
 30
0.0
 11
1.0
 21
0.0
 31
0.0
 44
0.9
  1
길이치수 (보통급)
 40
1.2
 41
13.3388059701
  0
MTEXT
  5
273
100
AcDbEntity
  8
0
100
AcDbMText
 62
7
  6
BYLAYER
  7
TEXTSTYLE_2
 71
2
 72
1
 10
980.1000000726
 20
60.1500003495
 30
0.0
 11
1.0
 21
0.0
 31
0.0
 44
0.9
  1
Over
 40
1.2
 41
3.6671641791
  0
MTEXT
  5
274
100
AcDbEntity
  8
0
100
AcDbMText
 62
7
  6
BYLAYER
  7
TEXTSTYLE_2
 71
2
 72
1
 10
985.1000000726
 20
60.1500003495
 30
0.0
 11
1.0
 21
0.0
 31
0.0
 44
0.9
  1
Less
 40
1.2
 41
3.5552238806
  0
MTEXT
  5
275
100
AcDbEntity
  8
0
100
AcDbMText
 62
7
  6
BYLAYER
  7
TEXTSTYLE_2
 71
2
 72
1
 10
990.1000000726
 20
60.1500003495
 30
0.0
 11
1.0
 21
0.0
 31
0.0
 44
0.9
  1
Tol.
 40
1.2
 41
2.7985074627
  0
MTEXT
  5
276
100
AcDbEntity
  8
0
100
AcDbMText
 62
7
  6
BYLAYER
  7
TEXTSTYLE_2
 71
3
 72
1
 10
982.5375000726
 20
58.4500003495
 30
0.0
 11
1.0
 21
0.0
 31
0.0
 44
0.9
  1
0.5
 40
1.2
 41
2.3373134328
  0
MTEXT
  5
277
100
AcDbEntity
  8
0
100
AcDbMText
 62
7
  6
BYLAYER
  7
TEXTSTYLE_2
 71
3
 72
1
 10
987.5375000726
 20
58.4500003495
 30
0.0
 11
1.0
 21
0.0
 31
0.0
 44
0.9
  1
6
 40
1.2
 41
0.9358208955
  0
MTEXT
  5
278
100
AcDbEntity
  8
0
100
AcDbMText
 62
7
  6
BYLAYER
  7
TEXTSTYLE_1
 71
1
 72
1
 10
987.6625000726
 20
58.4500003495
 30
0.0
 11
1.0
 21
0.0
 31
0.0
 44
0.9
  1
{\Fgdt;`}\Farialuni.ttf;0.1
 40
1.2
 41
3.9373134328
  0
MTEXT
  5
279
100
AcDbEntity
  8
0
100
AcDbMText
 62
7
  6
BYLAYER
  7
TEXTSTYLE_2
 71
3
 72
1
 10
982.5375000726
 20
56.7500003495
 30
0.0
 11
1.0
 21
0.0
 31
0.0
 44
0.9
  1
6
 40
1.2
 41
0.9358208955
  0
MTEXT
  5
27A
100
AcDbEntity
  8
0
100
AcDbMText
 62
7
  6
BYLAYER
  7
TEXTSTYLE_2
 71
3
 72
1
 10
987.5375000726
 20
56.7500003495
 30
0.0
 11
1.0
 21
0.0
 31
0.0
 44
0.9
  1
30
 40
1.2
 41
1.871641791
  0
MTEXT
  5
27B
100
AcDbEntity
  8
0
100
AcDbMText
 62
7
  6
BYLAYER
  7
TEXTSTYLE_1
 71
1
 72
1
 10
987.6625000726
 20
56.7500003495
 30
0.0
 11
1.0
 21
0.0
 31
0.0
 44
0.9
  1
{\Fgdt;`}\Farialuni.ttf;0.2
 40
1.2
 41
3.9373134328
  0
MTEXT
  5
27C
100
AcDbEntity
  8
0
100
AcDbMText
 62
7
  6
BYLAYER
  7
TEXTSTYLE_2
 71
3
 72
1
 10
982.5375000726
 20
55.0500003495
 30
0.0
 11
1.0
 21
0.0
 31
0.0
 44
0.9
  1
30
 40
1.2
 41
1.871641791
  0
MTEXT
  5
27D
100
AcDbEntity
  8
0
100
AcDbMText
 62
7
  6
BYLAYER
  7
TEXTSTYLE_2
 71
3
 72
1
 10
987.5375000726
 20
55.0500003495
 30
0.0
 11
1.0
 21
0.0
 31
0.0
 44
0.9
  1
120
 40
1.2
 41
2.8074626866
  0
MTEXT
  5
27E
100
AcDbEntity
  8
0
100
AcDbMText
 62
7
  6
BYLAYER
  7
TEXTSTYLE_1
 71
1
 72
1
 10
987.6625000726
 20
55.0500003495
 30
0.0
 11
1.0
 21
0.0
 31
0.0
 44
0.9
  1
{\Fgdt;`}\Farialuni.ttf;0.3
 40
1.2
 41
3.9373134328
  0
MTEXT
  5
27F
100
AcDbEntity
  8
0
100
AcDbMText
 62
7
  6
BYLAYER
  7
TEXTSTYLE_2
 71
3
 72
1
 10
982.5375000726
 20
53.3500003495
 30
0.0
 11
1.0
 21
0.0
 31
0.0
 44
0.9
  1
120
 40
1.2
 41
2.8074626866
  0
MTEXT
  5
280
100
AcDbEntity
  8
0
100
AcDbMText
 62
7
  6
BYLAYER
  7
TEXTSTYLE_2
 71
3
 72
1
 10
987.5375000726
 20
53.3500003495
 30
0.0
 11
1.0
 21
0.0
 31
0.0
 44
0.9
  1
400
 40
1.2
 41
2.8074626866
  0
MTEXT
  5
281
100
AcDbEntity
  8
0
100
AcDbMText
 62
7
  6
BYLAYER
  7
TEXTSTYLE_1
 71
1
 72
1
 10
987.6625000726
 20
53.3500003495
 30
0.0
 11
1.0
 21
0.0
 31
0.0
 44
0.9
  1
{\Fgdt;`}\Farialuni.ttf;0.5
 40
1.2
 41
3.9373134328
  0
MTEXT
  5
282
100
AcDbEntity
  8
0
100
AcDbMText
 62
7
  6
BYLAYER
  7
TEXTSTYLE_2
 71
3
 72
1
 10
982.5375000726
 20
51.6500003495
 30
0.0
 11
1.0
 21
0.0
 31
0.0
 44
0.9
  1
400
 40
1.2
 41
2.8074626866
  0
MTEXT
  5
283
100
AcDbEntity
  8
0
100
AcDbMText
 62
7
  6
BYLAYER
  7
TEXTSTYLE_2
 71
3
 72
1
 10
987.5375000726
 20
51.6500003495
 30
0.0
 11
1.0
 21
0.0
 31
0.0
 44
0.9
  1
1000
 40
1.2
 41
3.7432835821
  0
MTEXT
  5
284
100
AcDbEntity
  8
0
100
AcDbMText
 62
7
  6
BYLAYER
  7
TEXTSTYLE_1
 71
1
 72
1
 10
987.6625000726
 20
51.6500003495
 30
0.0
 11
1.0
 21
0.0
 31
0.0
 44
0.9
  1
{\Fgdt;`}\Farialuni.ttf;0.8
 40
1.2
 41
3.9373134328
  0
MTEXT
  5
285
100
AcDbEntity
  8
0
100
AcDbMText
 62
7
  6
BYLAYER
  7
TEXTSTYLE_2
 71
3
 72
1
 10
982.5375000726
 20
49.9500003495
 30
0.0
 11
1.0
 21
0.0
 31
0.0
 44
0.9
  1
1000
 40
1.2
 41
3.7432835821
  0
MTEXT
  5
286
100
AcDbEntity
  8
0
100
AcDbMText
 62
7
  6
BYLAYER
  7
TEXTSTYLE_2
 71
3
 72
1
 10
987.5375000726
 20
49.9500003495
 30
0.0
 11
1.0
 21
0.0
 31
0.0
 44
0.9
  1
2000
 40
1.2
 41
3.7432835821
  0
MTEXT
  5
287
100
AcDbEntity
  8
0
100
AcDbMText
 62
7
  6
BYLAYER
  7
TEXTSTYLE_1
 71
1
 72
1
 10
987.6625000726
 20
49.9500003495
 30
0.0
 11
1.0
 21
0.0
 31
0.0
 44
0.9
  1
{\Fgdt;`}\Farialuni.ttf;1.2
 40
1.2
 41
3.9373134328
  0
LINE
  5
288
100
AcDbEntity
  8
0
100
AcDbLine
 62
7
  6
BYLAYER
 10
993.6000000726
 20
62.4000003495
 11
1010.6000000726
 21
62.4000003495
  0
LINE
  5
289
100
AcDbEntity
  8
0
100
AcDbLine
 62
7
  6
BYLAYER
 10
993.6000000726
 20
62.4000003495
 11
993.6000000726
 21
48.5000003495
  0
LINE
  5
28A
100
AcDbEntity
  8
0
100
AcDbLine
 62
7
  6
BYLAYER
 10
993.6000000726
 20
60.4000003495
 11
1010.6000000726
 21
60.4000003495
  0
LINE
  5
28B
100
AcDbEntity
  8
0
100
AcDbLine
 62
7
  6
BYLAYER
 10
993.6000000726
 20
58.7000003495
 11
1010.6000000726
 21
58.7000003495
  0
LINE
  5
28C
100
AcDbEntity
  8
0
100
AcDbLine
 62
7
  6
BYLAYER
 10
993.6000000726
 20
57.0000003495
 11
1010.6000000726
 21
57.0000003495
  0
LINE
  5
28D
100
AcDbEntity
  8
0
100
AcDbLine
 62
7
  6
BYLAYER
 10
993.6000000726
 20
55.3000003495
 11
1010.6000000726
 21
55.3000003495
  0
LINE
  5
28E
100
AcDbEntity
  8
0
100
AcDbLine
 62
7
  6
BYLAYER
 10
993.6000000726
 20
53.6000003495
 11
1010.6000000726
 21
53.6000003495
  0
LINE
  5
28F
100
AcDbEntity
  8
0
100
AcDbLine
 62
7
  6
BYLAYER
 10
993.6000000726
 20
51.9000003495
 11
1010.6000000726
 21
51.9000003495
  0
LINE
  5
290
100
AcDbEntity
  8
0
100
AcDbLine
 62
7
  6
BYLAYER
 10
993.6000000726
 20
50.2000003495
 11
1010.6000000726
 21
50.2000003495
  0
LINE
  5
291
100
AcDbEntity
  8
0
100
AcDbLine
 62
7
  6
BYLAYER
 10
993.6000000726
 20
48.5000003495
 11
1010.6000000726
 21
48.5000003495
  0
LINE
  5
292
100
AcDbEntity
  8
0
100
AcDbLine
 62
7
  6
BYLAYER
 10
998.6000000726
 20
60.4000003495
 11
998.6000000726
 21
48.5000003495
  0
LINE
  5
293
100
AcDbEntity
  8
0
100
AcDbLine
 62
7
  6
BYLAYER
 10
1003.6000000726
 20
60.4000003495
 11
1003.6000000726
 21
48.5000003495
  0
LINE
  5
294
100
AcDbEntity
  8
0
100
AcDbLine
 62
7
  6
BYLAYER
 10
1010.6000000726
 20
62.4000003495
 11
1010.6000000726
 21
48.5000003495
  0
MTEXT
  5
295
100
AcDbEntity
  8
0
100
AcDbMText
 62
7
  6
BYLAYER
  7
TEXTSTYLE_2
 71
2
 72
1
 10
1002.1000000726
 20
62.0000003495
 30
0.0
 11
1.0
 21
0.0
 31
0.0
 44
0.9
  1
각도치수 (보통급)
 40
1.2
 41
13.3388059701
  0
MTEXT
  5
296
100
AcDbEntity
  8
0
100
AcDbMText
 62
7
  6
BYLAYER
  7
TEXTSTYLE_2
 71
2
 72
1
 10
996.1000000726
 20
60.1500003495
 30
0.0
 11
1.0
 21
0.0
 31
0.0
 44
0.9
  1
Over
 40
1.2
 41
3.6671641791
  0
MTEXT
  5
297
100
AcDbEntity
  8
0
100
AcDbMText
 62
7
  6
BYLAYER
  7
TEXTSTYLE_2
 71
2
 72
1
 10
1001.1000000726
 20
60.1500003495
 30
0.0
 11
1.0
 21
0.0
 31
0.0
 44
0.9
  1
Less
 40
1.2
 41
3.5552238806
  0
MTEXT
  5
298
100
AcDbEntity
  8
0
100
AcDbMText
 62
7
  6
BYLAYER
  7
TEXTSTYLE_2
 71
2
 72
1
 10
1007.1000000726
 20
60.1500003495
 30
0.0
 11
1.0
 21
0.0
 31
0.0
 44
0.9
  1
Tol.
 40
1.2
 41
2.7985074627
  0
MTEXT
  5
299
100
AcDbEntity
  8
0
100
AcDbMText
 62
7
  6
BYLAYER
  7
TEXTSTYLE_2
 71
3
 72
1
 10
998.5375000726
 20
58.4500003495
 30
0.0
 11
1.0
 21
0.0
 31
0.0
 44
0.9
  1
0
 40
1.2
 41
0.9358208955
  0
MTEXT
  5
29A
100
AcDbEntity
  8
0
100
AcDbMText
 62
7
  6
BYLAYER
  7
TEXTSTYLE_2
 71
3
 72
1
 10
1003.5375000726
 20
58.4500003495
 30
0.0
 11
1.0
 21
0.0
 31
0.0
 44
0.9
  1
10
 40
1.2
 41
1.871641791
  0
MTEXT
  5
29B
100
AcDbEntity
  8
0
100
AcDbMText
 62
7
  6
BYLAYER
  7
TEXTSTYLE_1
 71
1
 72
1
 10
1003.6625000726
 20
58.4500003495
 30
0.0
 11
1.0
 21
0.0
 31
0.0
 44
0.9
  1
{\Fgdt;`}\Farialuni.ttf;{\Ftxt.shx;\W0.166667;\H1.200000; }1\Fgdt;{\Ftxt.shx;\W0.166667;\H1.200000; }{\Fgdt;~}
 40
1.2
 41
3.1358208955
  0
MTEXT
  5
29C
100
AcDbEntity
  8
0
100
AcDbMText
 62
7
  6
BYLAYER
  7
TEXTSTYLE_2
 71
3
 72
1
 10
998.5375000726
 20
56.7500003495
 30
0.0
 11
1.0
 21
0.0
 31
0.0
 44
0.9
  1
10
 40
1.2
 41
1.871641791
  0
MTEXT
  5
29D
100
AcDbEntity
  8
0
100
AcDbMText
 62
7
  6
BYLAYER
  7
TEXTSTYLE_2
 71
3
 72
1
 10
1003.5375000726
 20
56.7500003495
 30
0.0
 11
1.0
 21
0.0
 31
0.0
 44
0.9
  1
50
 40
1.2
 41
1.871641791
  0
MTEXT
  5
29E
100
AcDbEntity
  8
0
100
AcDbMText
 62
7
  6
BYLAYER
  7
TEXTSTYLE_1
 71
1
 72
1
 10
1003.6625000726
 20
56.7500003495
 30
0.0
 11
1.0
 21
0.0
 31
0.0
 44
0.9
  1
{\Fgdt;`}\Farialuni.ttf;0\Fgdt;{\Fgdt;~}\Farialuni.ttf;30'
 40
1.2
 41
5.3298507463
  0
MTEXT
  5
29F
100
AcDbEntity
  8
0
100
AcDbMText
 62
7
  6
BYLAYER
  7
TEXTSTYLE_2
 71
3
 72
1
 10
998.5375000726
 20
55.0500003495
 30
0.0
 11
1.0
 21
0.0
 31
0.0
 44
0.9
  1
50
 40
1.2
 41
1.871641791
  0
MTEXT
  5
2A0
100
AcDbEntity
  8
0
100
AcDbMText
 62
7
  6
BYLAYER
  7
TEXTSTYLE_2
 71
3
 72
1
 10
1003.5375000726
 20
55.0500003495
 30
0.0
 11
1.0
 21
0.0
 31
0.0
 44
0.9
  1
120
 40
1.2
 41
2.8074626866
  0
MTEXT
  5
2A1
100
AcDbEntity
  8
0
100
AcDbMText
 62
7
  6
BYLAYER
  7
TEXTSTYLE_1
 71
1
 72
1
 10
1003.6625000726
 20
55.0500003495
 30
0.0
 11
1.0
 21
0.0
 31
0.0
 44
0.9
  1
{\Fgdt;`}\Farialuni.ttf;0\Fgdt;{\Fgdt;~}\Farialuni.ttf;20'
 40
1.2
 41
5.3298507463
  0
MTEXT
  5
2A2
100
AcDbEntity
  8
0
100
AcDbMText
 62
7
  6
BYLAYER
  7
TEXTSTYLE_2
 71
3
 72
1
 10
998.5375000726
 20
53.3500003495
 30
0.0
 11
1.0
 21
0.0
 31
0.0
 44
0.9
  1
120
 40
1.2
 41
2.8074626866
  0
MTEXT
  5
2A3
100
AcDbEntity
  8
0
100
AcDbMText
 62
7
  6
BYLAYER
  7
TEXTSTYLE_2
 71
3
 72
1
 10
1003.5375000726
 20
53.3500003495
 30
0.0
 11
1.0
 21
0.0
 31
0.0
 44
0.9
  1
400
 40
1.2
 41
2.8074626866
  0
MTEXT
  5
2A4
100
AcDbEntity
  8
0
100
AcDbMText
 62
7
  6
BYLAYER
  7
TEXTSTYLE_1
 71
1
 72
1
 10
1003.6625000726
 20
53.3500003495
 30
0.0
 11
1.0
 21
0.0
 31
0.0
 44
0.9
  1
{\Fgdt;`}\Farialuni.ttf;0\Fgdt;{\Fgdt;~}\Farialuni.ttf;10'
 40
1.2
 41
5.3298507463
  0
MTEXT
  5
2A5
100
AcDbEntity
  8
0
100
AcDbMText
 62
7
  6
BYLAYER
  7
TEXTSTYLE_2
 71
3
 72
1
 10
998.5375000726
 20
51.6500003495
 30
0.0
 11
1.0
 21
0.0
 31
0.0
 44
0.9
  1
400
 40
1.2
 41
2.8074626866
  0
MTEXT
  5
2A6
100
AcDbEntity
  8
0
100
AcDbMText
 62
7
  6
BYLAYER
  7
TEXTSTYLE_2
 71
3
 72
1
 10
1003.5375000726
 20
51.6500003495
 30
0.0
 11
1.0
 21
0.0
 31
0.0
 44
0.9
  1
Inf
 40
1.2
 41
1.9208955224
  0
MTEXT
  5
2A7
100
AcDbEntity
  8
0
100
AcDbMText
 62
7
  6
BYLAYER
  7
TEXTSTYLE_1
 71
1
 72
1
 10
1003.6625000726
 20
51.6500003495
 30
0.0
 11
1.0
 21
0.0
 31
0.0
 44
0.9
  1
{\Fgdt;`}\Farialuni.ttf;0\Fgdt;{\Fgdt;~}\Farialuni.ttf;5'
 40
1.2
 41
4.3940298507
  0
MTEXT
  5
2A8
100
AcDbEntity
  8
0
100
AcDbMText
 62
7
  6
BYLAYER
  7
TEXTSTYLE_2
 71
3
 72
1
 10
998.5375000726
 20
49.9500003495
 30
0.0
 11
1.0
 21
0.0
 31
0.0
 44
0.9
  1
mm 
 40
1.2
 41
3.2597014925
  0
MTEXT
  5
2A9
100
AcDbEntity
  8
0
100
AcDbMText
 62
7
  6
BYLAYER
  7
TEXTSTYLE_2
 71
3
 72
1
 10
1003.5375000726
 20
49.9500003495
 30
0.0
 11
1.0
 21
0.0
 31
0.0
 44
0.9
  1
mm 
 40
1.2
 41
3.2597014925
  0
LINE
  5
2AA
100
AcDbEntity
  8
0
100
AcDbLine
 62
7
  6
BYLAYER
 10
1171.6000000726
 20
823.6000003495
 11
1031.6000000726
 21
823.6000003495
  0
LINE
  5
2AB
100
AcDbEntity
  8
0
100
AcDbLine
 62
7
  6
BYLAYER
 10
1171.6000000726
 20
823.6000003495
 11
1171.6000000726
 21
804.6000003495
  0
LINE
  5
2AC
100
AcDbEntity
  8
0
100
AcDbLine
 62
7
  6
BYLAYER
 10
1171.6000000726
 20
814.6000003495
 11
1031.6000000726
 21
814.6000003495
  0
LINE
  5
2AD
100
AcDbEntity
  8
0
100
AcDbLine
 62
7
  6
BYLAYER
 10
1171.6000000726
 20
809.6000003495
 11
1031.6000000726
 21
809.6000003495
  0
LINE
  5
2AE
100
AcDbEntity
  8
0
100
AcDbLine
 62
7
  6
BYLAYER
 10
1171.6000000726
 20
804.6000003495
 11
1031.6000000726
 21
804.6000003495
  0
LINE
  5
2AF
100
AcDbEntity
  8
0
100
AcDbLine
 62
7
  6
BYLAYER
 10
1151.6000000726
 20
814.6000003495
 11
1151.6000000726
 21
804.6000003495
  0
LINE
  5
2B0
100
AcDbEntity
  8
0
100
AcDbLine
 62
7
  6
BYLAYER
 10
1131.6000000726
 20
814.6000003495
 11
1131.6000000726
 21
804.6000003495
  0
LINE
  5
2B1
100
AcDbEntity
  8
0
100
AcDbLine
 62
7
  6
BYLAYER
 10
1111.6000000726
 20
814.6000003495
 11
1111.6000000726
 21
804.6000003495
  0
LINE
  5
2B2
100
AcDbEntity
  8
0
100
AcDbLine
 62
7
  6
BYLAYER
 10
1051.6000000726
 20
814.6000003495
 11
1051.6000000726
 21
804.6000003495
  0
LINE
  5
2B3
100
AcDbEntity
  8
0
100
AcDbLine
 62
7
  6
BYLAYER
 10
1041.6000000726
 20
814.6000003495
 11
1041.6000000726
 21
804.6000003495
  0
LINE
  5
2B4
100
AcDbEntity
  8
0
100
AcDbLine
 62
7
  6
BYLAYER
 10
1031.6000000726
 20
823.6000003495
 11
1031.6000000726
 21
804.6000003495
  0
MTEXT
  5
2B5
100
AcDbEntity
  8
0
100
AcDbMText
 62
7
  6
BYLAYER
  7
TEXTSTYLE_2
 71
2
 72
1
 10
1101.6000000726
 20
820.8500003495
 30
0.0
 11
1.0
 21
0.0
 31
0.0
 44
0.9
  1
수    정    내    용
 40
3.5
 41
35.8880597015
  0
MTEXT
  5
2B6
100
AcDbEntity
  8
0
100
AcDbMText
 62
7
  6
BYLAYER
  7
TEXTSTYLE_2
 71
2
 72
1
 10
1161.6000000726
 20
813.3500003495
 30
0.0
 11
1.0
 21
0.0
 31
0.0
 44
0.9
  1
년월일
 40
2.5
 41
10.4944029851
  0
MTEXT
  5
2B7
100
AcDbEntity
  8
0
100
AcDbMText
 62
7
  6
BYLAYER
  7
TEXTSTYLE_2
 71
2
 72
1
 10
1141.6000000726
 20
813.3500003495
 30
0.0
 11
1.0
 21
0.0
 31
0.0
 44
0.9
  1
승인자
 40
2.5
 41
10.4944029851
  0
MTEXT
  5
2B8
100
AcDbEntity
  8
0
100
AcDbMText
 62
7
  6
BYLAYER
  7
TEXTSTYLE_2
 71
2
 72
1
 10
1121.6000000726
 20
813.3500003495
 30
0.0
 11
1.0
 21
0.0
 31
0.0
 44
0.9
  1
수정자
 40
2.5
 41
10.4944029851
  0
MTEXT
  5
2B9
100
AcDbEntity
  8
0
100
AcDbMText
 62
7
  6
BYLAYER
  7
TEXTSTYLE_2
 71
2
 72
1
 10
1081.6000000726
 20
813.3500003495
 30
0.0
 11
1.0
 21
0.0
 31
0.0
 44
0.9
  1
내용
 40
2.5
 41
6.9962686567
  0
MTEXT
  5
2BA
100
AcDbEntity
  8
0
100
AcDbMText
 62
7
  6
BYLAYER
  7
TEXTSTYLE_2
 71
2
 72
1
 10
1046.6000000726
 20
813.3500003495
 30
0.0
 11
1.0
 21
0.0
 31
0.0
 44
0.9
  1
위치
 40
2.5
 41
6.9962686567
  0
MTEXT
  5
2BB
100
AcDbEntity
  8
0
100
AcDbMText
 62
7
  6
BYLAYER
  7
TEXTSTYLE_2
 71
2
 72
1
 10
1036.6000000726
 20
813.3500003495
 30
0.0
 11
1.0
 21
0.0
 31
0.0
 44
0.9
  1
부호
 40
2.5
 41
6.9962686567
  0
MTEXT
  5
2BC
100
AcDbEntity
  8
0
100
AcDbMText
 62
7
  6
BYLAYER
  7
TEXTSTYLE_2
 71
2
 72
1
 10
1161.6000000726
 20
808.3500003495
 30
0.0
 11
1.0
 21
0.0
 31
0.0
 44
0.9
  1
-
 40
2.5
 41
1.1660447761
  0
MTEXT
  5
2BD
100
AcDbEntity
  8
0
100
AcDbMText
 62
7
  6
BYLAYER
  7
TEXTSTYLE_2
 71
2
 72
1
 10
1141.6000000726
 20
808.3500003495
 30
0.0
 11
1.0
 21
0.0
 31
0.0
 44
0.9
  1
-
 40
2.5
 41
1.1660447761
  0
MTEXT
  5
2BE
100
AcDbEntity
  8
0
100
AcDbMText
 62
7
  6
BYLAYER
  7
TEXTSTYLE_2
 71
2
 72
1
 10
1121.6000000726
 20
808.3500003495
 30
0.0
 11
1.0
 21
0.0
 31
0.0
 44
0.9
  1
-
 40
2.5
 41
1.1660447761
  0
MTEXT
  5
2BF
100
AcDbEntity
  8
0
100
AcDbMText
 62
7
  6
BYLAYER
  7
TEXTSTYLE_2
 71
2
 72
1
 10
1081.6000000726
 20
808.3500003495
 30
0.0
 11
1.0
 21
0.0
 31
0.0
 44
0.9
  1
-
 40
2.5
 41
1.1660447761
  0
MTEXT
  5
2C0
100
AcDbEntity
  8
0
100
AcDbMText
 62
7
  6
BYLAYER
  7
TEXTSTYLE_2
 71
2
 72
1
 10
1046.6000000726
 20
808.3500003495
 30
0.0
 11
1.0
 21
0.0
 31
0.0
 44
0.9
  1
1A
 40
2.5
 41
4.2910447761
  0
MTEXT
  5
2C1
100
AcDbEntity
  8
0
100
AcDbMText
 62
7
  6
BYLAYER
  7
TEXTSTYLE_2
 71
2
 72
1
 10
1036.6000000726
 20
808.3500003495
 30
0.0
 11
1.0
 21
0.0
 31
0.0
 44
0.9
  1
V02
 40
2.5
 41
6.2313432836
  0
LINE
  5
2C2
100
AcDbEntity
  8
0
100
AcDbLine
 62
7
  6
BYLAYER
 10
37.4000000726
 20
823.6000003495
 11
107.4000000726
 21
823.6000003495
  0
LINE
  5
2C3
100
AcDbEntity
  8
0
100
AcDbLine
 62
7
  6
BYLAYER
 10
37.4000000726
 20
823.6000003495
 11
37.4000000726
 21
813.6000003495
  0
LINE
  5
2C4
100
AcDbEntity
  8
0
100
AcDbLine
 62
7
  6
BYLAYER
 10
37.4000000726
 20
813.6000003495
 11
107.4000000726
 21
813.6000003495
  0
LINE
  5
2C5
100
AcDbEntity
  8
0
100
AcDbLine
 62
7
  6
BYLAYER
 10
97.4000000726
 20
823.6000003495
 11
97.4000000726
 21
813.6000003495
  0
LINE
  5
2C6
100
AcDbEntity
  8
0
100
AcDbLine
 62
7
  6
BYLAYER
 10
107.4000000726
 20
823.6000003495
 11
107.4000000726
 21
813.6000003495
  0
MTEXT
  5
2C7
100
AcDbEntity
  8
0
100
AcDbMText
 62
7
  6
BYLAYER
  7
TEXTSTYLE_2
 71
2
 72
1
 10
67.4000000726
 20
816.8500003495
 30
0.0
 11
-1.0
 21
0.0
 31
0.0
 44
0.9
  1
&NUMBER
 40
3.5
 41
24.4869402985
  0
MTEXT
  5
2C8
100
AcDbEntity
  8
0
100
AcDbMText
 62
7
  6
BYLAYER
  7
TEXTSTYLE_2
 71
2
 72
1
 10
102.4000000726
 20
817.3500003495
 30
0.0
 11
-1.0
 21
0.0
 31
0.0
 44
0.9
  1
도번
 40
2.5
 41
6.9962686567
  0
MTEXT
  5
2C9
100
AcDbEntity
  8
FRAME
100
AcDbMText
 62
7
  6
BYLAYER
  7
TEXTSTYLE_2
 71
2
 72
1
 10
154.5
 20
830.1
 30
0.0
 11
1.0
 21
0.0
 31
0.0
 44
0.9
  1
2
 40
3.2
 41
2.4955223881
  0
MTEXT
  5
2CA
100
AcDbEntity
  8
FRAME
100
AcDbMText
 62
7
  6
BYLAYER
  7
TEXTSTYLE_2
 71
2
 72
1
 10
254.5
 20
830.1
 30
0.0
 11
1.0
 21
0.0
 31
0.0
 44
0.9
  1
3
 40
3.2
 41
2.4955223881
  0
MTEXT
  5
2CB
100
AcDbEntity
  8
FRAME
100
AcDbMText
 62
7
  6
BYLAYER
  7
TEXTSTYLE_2
 71
2
 72
1
 10
354.5
 20
830.1
 30
0.0
 11
1.0
 21
0.0
 31
0.0
 44
0.9
  1
4
 40
3.2
 41
2.4955223881
  0
MTEXT
  5
2CC
100
AcDbEntity
  8
FRAME
100
AcDbMText
 62
7
  6
BYLAYER
  7
TEXTSTYLE_2
 71
2
 72
1
 10
454.5
 20
830.1
 30
0.0
 11
1.0
 21
0.0
 31
0.0
 44
0.9
  1
5
 40
3.2
 41
2.4955223881
  0
MTEXT
  5
2CD
100
AcDbEntity
  8
FRAME
100
AcDbMText
 62
7
  6
BYLAYER
  7
TEXTSTYLE_2
 71
2
 72
1
 10
654.5
 20
830.1
 30
0.0
 11
1.0
 21
0.0
 31
0.0
 44
0.9
  1
7
 40
3.2
 41
2.4955223881
  0
MTEXT
  5
2CE
100
AcDbEntity
  8
FRAME
100
AcDbMText
 62
7
  6
BYLAYER
  7
TEXTSTYLE_2
 71
2
 72
1
 10
754.5
 20
830.1
 30
0.0
 11
1.0
 21
0.0
 31
0.0
 44
0.9
  1
8
 40
3.2
 41
2.4955223881
  0
MTEXT
  5
2CF
100
AcDbEntity
  8
FRAME
100
AcDbMText
 62
7
  6
BYLAYER
  7
TEXTSTYLE_2
 71
2
 72
1
 10
854.5
 20
830.1
 30
0.0
 11
1.0
 21
0.0
 31
0.0
 44
0.9
  1
9
 40
3.2
 41
2.4955223881
  0
MTEXT
  5
2D0
100
AcDbEntity
  8
FRAME
100
AcDbMText
 62
7
  6
BYLAYER
  7
TEXTSTYLE_2
 71
2
 72
1
 10
954.5
 20
830.1
 30
0.0
 11
1.0
 21
0.0
 31
0.0
 44
0.9
  1
10
 40
3.2
 41
4.9910447761
  0
MTEXT
  5
2D1
100
AcDbEntity
  8
FRAME
100
AcDbMText
 62
7
  6
BYLAYER
  7
TEXTSTYLE_2
 71
2
 72
1
 10
554.5
 20
830.1
 30
0.0
 11
1.0
 21
0.0
 31
0.0
 44
0.9
  1
6
 40
3.2
 41
2.4955223881
  0
MTEXT
  5
2D2
100
AcDbEntity
  8
FRAME
100
AcDbMText
 62
7
  6
BYLAYER
  7
TEXTSTYLE_2
 71
2
 72
1
 10
1054.5
 20
830.1
 30
0.0
 11
1.0
 21
0.0
 31
0.0
 44
0.9
  1
11
 40
3.2
 41
4.9910447761
  0
MTEXT
  5
2D3
100
AcDbEntity
  8
FRAME
100
AcDbMText
 62
7
  6
BYLAYER
  7
TEXTSTYLE_2
 71
2
 72
1
 10
1144.25
 20
830.1
 30
0.0
 11
1.0
 21
0.0
 31
0.0
 44
0.9
  1
12
 40
3.2
 41
4.9910447761
  0
MTEXT
  5
2D4
100
AcDbEntity
  8
FRAME
100
AcDbMText
 62
7
  6
BYLAYER
  7
TEXTSTYLE_2
 71
2
 72
1
 10
74.75
 20
830.1
 30
0.0
 11
1.0
 21
0.0
 31
0.0
 44
0.9
  1
1
 40
3.2
 41
2.4955223881
  0
MTEXT
  5
2D5
100
AcDbEntity
  8
FRAME
100
AcDbMText
 62
7
  6
BYLAYER
  7
TEXTSTYLE_2
 71
2
 72
1
 10
154.5
 20
14.1
 30
0.0
 11
1.0
 21
0.0
 31
0.0
 44
0.9
  1
2
 40
3.2
 41
2.4955223881
  0
MTEXT
  5
2D6
100
AcDbEntity
  8
FRAME
100
AcDbMText
 62
7
  6
BYLAYER
  7
TEXTSTYLE_2
 71
2
 72
1
 10
254.5
 20
14.1
 30
0.0
 11
1.0
 21
0.0
 31
0.0
 44
0.9
  1
3
 40
3.2
 41
2.4955223881
  0
MTEXT
  5
2D7
100
AcDbEntity
  8
FRAME
100
AcDbMText
 62
7
  6
BYLAYER
  7
TEXTSTYLE_2
 71
2
 72
1
 10
354.5
 20
14.1
 30
0.0
 11
1.0
 21
0.0
 31
0.0
 44
0.9
  1
4
 40
3.2
 41
2.4955223881
  0
MTEXT
  5
2D8
100
AcDbEntity
  8
FRAME
100
AcDbMText
 62
7
  6
BYLAYER
  7
TEXTSTYLE_2
 71
2
 72
1
 10
454.5
 20
14.1
 30
0.0
 11
1.0
 21
0.0
 31
0.0
 44
0.9
  1
5
 40
3.2
 41
2.4955223881
  0
MTEXT
  5
2D9
100
AcDbEntity
  8
FRAME
100
AcDbMText
 62
7
  6
BYLAYER
  7
TEXTSTYLE_2
 71
2
 72
1
 10
654.5
 20
14.1
 30
0.0
 11
1.0
 21
0.0
 31
0.0
 44
0.9
  1
7
 40
3.2
 41
2.4955223881
  0
MTEXT
  5
2DA
100
AcDbEntity
  8
FRAME
100
AcDbMText
 62
7
  6
BYLAYER
  7
TEXTSTYLE_2
 71
2
 72
1
 10
754.5
 20
14.1
 30
0.0
 11
1.0
 21
0.0
 31
0.0
 44
0.9
  1
8
 40
3.2
 41
2.4955223881
  0
MTEXT
  5
2DB
100
AcDbEntity
  8
FRAME
100
AcDbMText
 62
7
  6
BYLAYER
  7
TEXTSTYLE_2
 71
2
 72
1
 10
854.5
 20
14.1
 30
0.0
 11
1.0
 21
0.0
 31
0.0
 44
0.9
  1
9
 40
3.2
 41
2.4955223881
  0
MTEXT
  5
2DC
100
AcDbEntity
  8
FRAME
100
AcDbMText
 62
7
  6
BYLAYER
  7
TEXTSTYLE_2
 71
2
 72
1
 10
954.5
 20
14.1
 30
0.0
 11
1.0
 21
0.0
 31
0.0
 44
0.9
  1
10
 40
3.2
 41
4.9910447761
  0
MTEXT
  5
2DD
100
AcDbEntity
  8
FRAME
100
AcDbMText
 62
7
  6
BYLAYER
  7
TEXTSTYLE_2
 71
2
 72
1
 10
554.5
 20
14.1
 30
0.0
 11
1.0
 21
0.0
 31
0.0
 44
0.9
  1
6
 40
3.2
 41
2.4955223881
  0
MTEXT
  5
2DE
100
AcDbEntity
  8
FRAME
100
AcDbMText
 62
7
  6
BYLAYER
  7
TEXTSTYLE_2
 71
2
 72
1
 10
1054.5
 20
14.1
 30
0.0
 11
1.0
 21
0.0
 31
0.0
 44
0.9
  1
11
 40
3.2
 41
4.9910447761
  0
MTEXT
  5
2DF
100
AcDbEntity
  8
FRAME
100
AcDbMText
 62
7
  6
BYLAYER
  7
TEXTSTYLE_2
 71
2
 72
1
 10
1144.25
 20
14.1
 30
0.0
 11
1.0
 21
0.0
 31
0.0
 44
0.9
  1
12
 40
3.2
 41
4.9910447761
  0
MTEXT
  5
2E0
100
AcDbEntity
  8
FRAME
100
AcDbMText
 62
7
  6
BYLAYER
  7
TEXTSTYLE_2
 71
2
 72
1
 10
74.75
 20
14.1
 30
0.0
 11
1.0
 21
0.0
 31
0.0
 44
0.9
  1
1
 40
3.2
 41
2.4955223881
  0
MTEXT
  5
2E1
100
AcDbEntity
  8
FRAME
100
AcDbMText
 62
7
  6
BYLAYER
  7
TEXTSTYLE_2
 71
2
 72
1
 10
1176.5
 20
774.85
 30
0.0
 11
1.0
 21
0.0
 31
0.0
 44
0.9
  1
H
 40
3.2
 41
3.2358208955
  0
MTEXT
  5
2E2
100
AcDbEntity
  8
FRAME
100
AcDbMText
 62
7
  6
BYLAYER
  7
TEXTSTYLE_2
 71
2
 72
1
 10
1176.5
 20
672.1
 30
0.0
 11
1.0
 21
0.0
 31
0.0
 44
0.9
  1
G
 40
3.2
 41
3.4865671642
  0
MTEXT
  5
2E3
100
AcDbEntity
  8
FRAME
100
AcDbMText
 62
7
  6
BYLAYER
  7
TEXTSTYLE_2
 71
2
 72
1
 10
1176.5
 20
572.1
 30
0.0
 11
1.0
 21
0.0
 31
0.0
 44
0.9
  1
F
 40
3.2
 41
2.7343283582
  0
MTEXT
  5
2E4
100
AcDbEntity
  8
FRAME
100
AcDbMText
 62
7
  6
BYLAYER
  7
TEXTSTYLE_2
 71
2
 72
1
 10
1176.5
 20
472.1
 30
0.0
 11
1.0
 21
0.0
 31
0.0
 44
0.9
  1
E
 40
3.2
 41
2.9850746269
  0
MTEXT
  5
2E5
100
AcDbEntity
  8
FRAME
100
AcDbMText
 62
7
  6
BYLAYER
  7
TEXTSTYLE_2
 71
2
 72
1
 10
1176.5
 20
372.1
 30
0.0
 11
1.0
 21
0.0
 31
0.0
 44
0.9
  1
D
 40
3.2
 41
3.2358208955
  0
MTEXT
  5
2E6
100
AcDbEntity
  8
FRAME
100
AcDbMText
 62
7
  6
BYLAYER
  7
TEXTSTYLE_2
 71
2
 72
1
 10
1176.5
 20
272.1
 30
0.0
 11
1.0
 21
0.0
 31
0.0
 44
0.9
  1
C
 40
3.2
 41
3.2358208955
  0
MTEXT
  5
2E7
100
AcDbEntity
  8
FRAME
100
AcDbMText
 62
7
  6
BYLAYER
  7
TEXTSTYLE_2
 71
2
 72
1
 10
1176.5
 20
172.1
 30
0.0
 11
1.0
 21
0.0
 31
0.0
 44
0.9
  1
B
 40
3.2
 41
2.9850746269
  0
MTEXT
  5
2E8
100
AcDbEntity
  8
FRAME
100
AcDbMText
 62
7
  6
BYLAYER
  7
TEXTSTYLE_2
 71
2
 72
1
 10
1176.5
 20
69.35
 30
0.0
 11
1.0
 21
0.0
 31
0.0
 44
0.9
  1
A
 40
3.2
 41
2.9970149254
  0
MTEXT
  5
2E9
100
AcDbEntity
  8
FRAME
100
AcDbMText
 62
7
  6
BYLAYER
  7
TEXTSTYLE_2
 71
2
 72
1
 10
32.5
 20
774.85
 30
0.0
 11
1.0
 21
0.0
 31
0.0
 44
0.9
  1
H
 40
3.2
 41
3.2358208955
  0
MTEXT
  5
2EA
100
AcDbEntity
  8
FRAME
100
AcDbMText
 62
7
  6
BYLAYER
  7
TEXTSTYLE_2
 71
2
 72
1
 10
32.5
 20
672.1
 30
0.0
 11
1.0
 21
0.0
 31
0.0
 44
0.9
  1
G
 40
3.2
 41
3.4865671642
  0
MTEXT
  5
2EB
100
AcDbEntity
  8
FRAME
100
AcDbMText
 62
7
  6
BYLAYER
  7
TEXTSTYLE_2
 71
2
 72
1
 10
32.5
 20
572.1
 30
0.0
 11
1.0
 21
0.0
 31
0.0
 44
0.9
  1
F
 40
3.2
 41
2.7343283582
  0
MTEXT
  5
2EC
100
AcDbEntity
  8
FRAME
100
AcDbMText
 62
7
  6
BYLAYER
  7
TEXTSTYLE_2
 71
2
 72
1
 10
32.5
 20
472.1
 30
0.0
 11
1.0
 21
0.0
 31
0.0
 44
0.9
  1
E
 40
3.2
 41
2.9850746269
  0
MTEXT
  5
2ED
100
AcDbEntity
  8
FRAME
100
AcDbMText
 62
7
  6
BYLAYER
  7
TEXTSTYLE_2
 71
2
 72
1
 10
32.5
 20
372.1
 30
0.0
 11
1.0
 21
0.0
 31
0.0
 44
0.9
  1
D
 40
3.2
 41
3.2358208955
  0
MTEXT
  5
2EE
100
AcDbEntity
  8
FRAME
100
AcDbMText
 62
7
  6
BYLAYER
  7
TEXTSTYLE_2
 71
2
 72
1
 10
32.5
 20
272.1
 30
0.0
 11
1.0
 21
0.0
 31
0.0
 44
0.9
  1
C
 40
3.2
 41
3.2358208955
  0
MTEXT
  5
2EF
100
AcDbEntity
  8
FRAME
100
AcDbMText
 62
7
  6
BYLAYER
  7
TEXTSTYLE_2
 71
2
 72
1
 10
32.5
 20
172.1
 30
0.0
 11
1.0
 21
0.0
 31
0.0
 44
0.9
  1
B
 40
3.2
 41
2.9850746269
  0
MTEXT
  5
2F0
100
AcDbEntity
  8
FRAME
100
AcDbMText
 62
7
  6
BYLAYER
  7
TEXTSTYLE_2
 71
2
 72
1
 10
32.5
 20
69.35
 30
0.0
 11
1.0
 21
0.0
 31
0.0
 44
0.9
  1
A
 40
3.2
 41
2.9970149254
  0
MTEXT
  5
2F1
100
AcDbEntity
  8
0
100
AcDbMText
 62
7
  6
BYLAYER
  7
TEXTSTYLE_2
 71
1
 72
1
 10
1092.73254006
 20
53.1751864516
 30
0.0
 11
1.0
 21
0.0
 31
0.0
 44
0.9
  1
도명
 40
2.2
 41
6.1567164179
  0
MTEXT
  5
2F2
100
AcDbEntity
  8
0
100
AcDbMText
 62
7
  6
BYLAYER
  7
TEXTSTYLE_2
 71
1
 72
1
 10
1107.6606901246
 20
33.1345642318
 30
0.0
 11
1.0
 21
0.0
 31
0.0
 44
0.9
  1
도번
 40
2.2
 41
6.1567164179
  0
MTEXT
  5
2F3
100
AcDbEntity
  8
0
100
AcDbMText
 62
7
  6
BYLAYER
  7
TEXTSTYLE_2
 71
2
 72
1
 10
1099.1417299862
 20
33.1335256886
 30
0.0
 11
1.0
 21
0.0
 31
0.0
 44
0.9
  1
도면크기
 40
2.2
 41
12.3134328358
  0
MTEXT
  5
2F4
100
AcDbEntity
  8
0
100
AcDbMText
 62
7
  6
BYLAYER
  7
TEXTSTYLE_2
 71
2
 72
1
 10
1099.0512635446
 20
20.9189076908
 30
0.0
 11
1.0
 21
0.0
 31
0.0
 44
0.9
  1
3각법
 40
2.2
 41
7.8723880597
  0
MTEXT
  5
2F5
100
AcDbEntity
  8
0
100
AcDbMText
 62
7
  6
BYLAYER
  7
TEXTSTYLE_2
 71
1
 72
1
 10
1032.7148386484
 20
66.2227536455
 30
0.0
 11
1.0
 21
0.0
 31
0.0
 44
0.9
  1
년월일
 40
2.2
 41
9.2350746269
  0
MTEXT
  5
2F6
100
AcDbEntity
  8
0
100
AcDbMText
 62
7
  6
BYLAYER
  7
TEXTSTYLE_2
 71
1
 72
1
 10
1032.7229221024
 20
59.7396626031
 30
0.0
 11
1.0
 21
0.0
 31
0.0
 44
0.9
  1
승인부서
 40
2.2
 41
12.3134328358
  0
MTEXT
  5
2F7
100
AcDbEntity
  8
0
100
AcDbMText
 62
7
  6
BYLAYER
  7
TEXTSTYLE_2
 71
1
 72
1
 10
1032.7758508487
 20
48.0173717675
 30
0.0
 11
1.0
 21
0.0
 31
0.0
 44
0.9
  1
검도
 40
2.2
 41
6.1567164179
  0
MTEXT
  5
2F8
100
AcDbEntity
  8
0
100
AcDbMText
 62
7
  6
BYLAYER
  7
TEXTSTYLE_2
 71
1
 72
1
 10
1032.6850937193
 20
42.9855384645
 30
0.0
 11
1.0
 21
0.0
 31
0.0
 44
0.9
  1
제도
 40
2.2
 41
6.1567164179
  0
MTEXT
  5
2F9
100
AcDbEntity
  8
0
100
AcDbMText
 62
7
  6
BYLAYER
  7
TEXTSTYLE_2
 71
1
 72
1
 10
1032.7242666192
 20
37.9633352034
 30
0.0
 11
1.0
 21
0.0
 31
0.0
 44
0.9
  1
설계
 40
2.2
 41
6.1567164179
  0
MTEXT
  5
2FA
100
AcDbEntity
  8
0
100
AcDbMText
 62
7
  6
BYLAYER
  7
TEXTSTYLE_2
 71
1
 72
1
 10
1062.6950867804
 20
38.0158453841
 30
0.0
 11
1.0
 21
0.0
 31
0.0
 44
0.9
  1
승인
 40
2.2
 41
6.1567164179
  0
MTEXT
  5
2FB
100
AcDbEntity
  8
0
100
AcDbMText
 62
7
  6
BYLAYER
  7
TEXTSTYLE_2
 71
1
 72
1
 10
1062.6583440391
 20
43.0164444256
 30
0.0
 11
1.0
 21
0.0
 31
0.0
 44
0.9
  1
검도
 40
2.2
 41
6.1567164179
  0
MTEXT
  5
2FC
100
AcDbEntity
  8
0
100
AcDbMText
 62
7
  6
BYLAYER
  7
TEXTSTYLE_2
 71
1
 72
1
 10
1062.707362567
 20
47.9717420354
 30
0.0
 11
1.0
 21
0.0
 31
0.0
 44
0.9
  1
승인
 40
2.2
 41
6.1567164179
  0
MTEXT
  5
2FD
100
AcDbEntity
  8
0
100
AcDbMText
 62
7
  6
BYLAYER
  7
TEXTSTYLE_2
 71
1
 72
1
 10
1032.7569256031
 20
33.2662309303
 30
0.0
 11
1.0
 21
0.0
 31
0.0
 44
0.9
  1
작성부서
 40
2.2
 41
12.3134328358
  0
MTEXT
  5
2FE
100
AcDbEntity
  8
0
100
AcDbMText
 62
7
  6
BYLAYER
  7
TEXTSTYLE_2
 71
1
 72
1
 10
1032.7022550012
 20
23.3405639598
 30
0.0
 11
1.0
 21
0.0
 31
0.0
 44
0.9
  1
척도
 40
2.2
 41
6.1567164179
  0
MTEXT
  5
2FF
100
AcDbEntity
  8
0
100
AcDbMText
 62
7
  6
BYLAYER
  7
TEXTSTYLE_2
 71
1
 72
1
 10
1052.6607253557
 20
23.3002068631
 30
0.0
 11
1.0
 21
0.0
 31
0.0
 44
0.9
  1
단위
 40
2.2
 41
6.1567164179
  0
MTEXT
  5
300
100
AcDbEntity
  8
0
100
AcDbMText
 62
7
  6
BYLAYER
  7
TEXTSTYLE_2
 71
1
 72
1
 10
1072.6824653854
 20
23.3197008993
 30
0.0
 11
1.0
 21
0.0
 31
0.0
 44
0.9
  1
중량
 40
2.2
 41
6.1567164179
  0
MTEXT
  5
301
100
AcDbEntity
  8
0
100
AcDbMText
 62
7
  6
BYLAYER
  7
TEXTSTYLE_2
 71
1
 72
1
 10
977.7564655225
 20
66.2767541285
 30
0.0
 11
1.0
 21
0.0
 31
0.0
 44
0.9
  1
공통공차
 40
2.2
 41
12.3134328358
  0
MTEXT
  5
302
100
AcDbEntity
  8
0
100
AcDbMText
 62
7
  6
BYLAYER
  7
TEXTSTYLE_2
 71
1
 72
1
 10
990.6018238748
 20
65.3072587559
 30
0.0
 11
1.0
 21
0.0
 31
0.0
 44
0.9
  1
KS B ISO 2768-1
 40
1.3
 41
13.9604477612
  0
MTEXT
  5
303
100
AcDbEntity
  8
0
100
AcDbMText
 62
7
  6
BYLAYER
  7
TEXTSTYLE_2
 71
1
 72
1
 10
977.6825266912
 20
80.3286780545
 30
0.0
 11
1.0
 21
0.0
 31
0.0
 44
0.9
  1
대체가능재질
 40
2.2
 41
18.4701492537
  0
MTEXT
  5
304
100
AcDbEntity
  8
0
100
AcDbMText
 62
7
  6
BYLAYER
  7
TEXTSTYLE_2
 71
1
 72
1
 10
977.6866396164
 20
46.3146763613
 30
0.0
 11
1.0
 21
0.0
 31
0.0
 44
0.9
  1
재질
 40
2.2
 41
6.1567164179
  0
MTEXT
  5
305
100
AcDbEntity
  8
0
100
AcDbMText
 62
7
  6
BYLAYER
  7
TEXTSTYLE_2
 71
1
 72
1
 10
977.7021582345
 20
36.3087010938
 30
0.0
 11
1.0
 21
0.0
 31
0.0
 44
0.9
  1
열처리
 40
2.2
 41
9.2350746269
  0
MTEXT
  5
306
100
AcDbEntity
  8
0
100
AcDbMText
 62
7
  6
BYLAYER
  7
TEXTSTYLE_2
 71
1
 72
1
 10
977.6921409352
 20
26.3134056481
 30
0.0
 11
1.0
 21
0.0
 31
0.0
 44
0.9
  1
보호피막처리
 40
2.2
 41
18.4701492537
  0
MTEXT
  5
307
100
AcDbEntity
  8
0
100
AcDbMText
 62
7
  6
BYLAYER
  7
TEXTSTYLE_2
 71
1
 72
1
 10
907.6656929126
 20
66.3069529069
 30
0.0
 11
1.0
 21
0.0
 31
0.0
 44
0.9
  1
원도
 40
2.2
 41
6.1567164179
  0
MTEXT
  5
308
100
AcDbEntity
  8
0
100
AcDbMText
 62
7
  6
BYLAYER
  7
TEXTSTYLE_2
 71
1
 72
1
 10
907.6905867429
 20
22.3120682113
 30
0.0
 11
1.0
 21
0.0
 31
0.0
 44
0.9
  1
부품번호
 40
2.2
 41
12.3134328358
  0
MTEXT
  5
309
100
AcDbEntity
  8
0
100
AcDbMText
 62
7
  6
BYLAYER
  7
TEXTSTYLE_2
 71
1
 72
1
 10
942.6870208514
 20
22.2956955483
 30
0.0
 11
1.0
 21
0.0
 31
0.0
 44
0.9
  1
재고번호
 40
2.2
 41
12.3134328358
  0
LINE
  5
30A
100
AcDbEntity
  8
FRAME
100
AcDbLine
 62
7
  6
BYLAYER
 10
0.0
 20
841.0
 11
0.0
 21
0.0
  0
LINE
  5
30B
100
AcDbEntity
  8
FRAME
100
AcDbLine
 62
7
  6
BYLAYER
 10
10.0
 20
10.0
 11
10.0
 21
831.0
  0
LINE
  5
30C
100
AcDbEntity
  8
FRAME
100
AcDbLine
 62
7
  6
BYLAYER
 10
30.0
 20
419.5
 11
30.0
 21
421.5
  0
LINE
  5
30D
100
AcDbEntity
  8
FRAME
100
AcDbLine
 62
7
  6
BYLAYER
 10
32.5
 20
418.0
 11
32.5
 21
419.5
  0
LINE
  5
30E
100
AcDbEntity
  8
FRAME
100
AcDbLine
 62
7
  6
BYLAYER
 10
32.5
 20
421.5
 11
32.5
 21
423.0
  0
LINE
  5
30F
100
AcDbEntity
  8
FRAME
100
AcDbLine
 62
7
  6
BYLAYER
 10
35.0
 20
15.0
 11
35.0
 21
826.0
  0
LINE
  5
310
100
AcDbEntity
  8
FRAME
100
AcDbLine
 62
7
  6
BYLAYER
 10
35.3
 20
15.3
 11
35.3
 21
825.7
  0
LINE
  5
311
100
AcDbEntity
  8
FRAME
100
AcDbLine
 62
7
  6
BYLAYER
 10
35.6
 20
15.6
 11
35.6
 21
825.4
  0
LINE
  5
312
100
AcDbEntity
  8
FRAME
100
AcDbLine
 62
7
  6
BYLAYER
 10
35.9
 20
15.9
 11
35.9
 21
825.1
  0
LINE
  5
313
100
AcDbEntity
  8
FRAME
100
AcDbLine
 62
7
  6
BYLAYER
 10
36.2
 20
16.2
 11
36.2
 21
824.8
  0
LINE
  5
314
100
AcDbEntity
  8
FRAME
100
AcDbLine
 62
7
  6
BYLAYER
 10
36.5
 20
16.5
 11
36.5
 21
824.5
  0
LINE
  5
315
100
AcDbEntity
  8
FRAME
100
AcDbLine
 62
7
  6
BYLAYER
 10
36.8
 20
16.8
 11
36.8
 21
824.2
  0
LINE
  5
316
100
AcDbEntity
  8
FRAME
100
AcDbLine
 62
7
  6
BYLAYER
 10
37.1
 20
17.1
 11
37.1
 21
823.9
  0
LINE
  5
317
100
AcDbEntity
  8
FRAME
100
AcDbLine
 62
7
  6
BYLAYER
 10
37.4
 20
17.4
 11
37.4
 21
823.6
  0
LINE
  5
318
100
AcDbEntity
  8
FRAME
100
AcDbLine
 62
7
  6
BYLAYER
 10
104.5
 20
10.0
 11
104.5
 21
15.0
  0
LINE
  5
319
100
AcDbEntity
  8
FRAME
100
AcDbLine
 62
7
  6
BYLAYER
 10
104.5
 20
826.0
 11
104.5
 21
831.0
  0
LINE
  5
31A
100
AcDbEntity
  8
FRAME
100
AcDbLine
 62
7
  6
BYLAYER
 10
0.0
 20
0.0
 11
1189.0
 21
0.0
  0
LINE
  5
31B
100
AcDbEntity
  8
FRAME
100
AcDbLine
 62
7
  6
BYLAYER
 10
10.0
 20
10.0
 11
1179.0
 21
10.0
  0
LINE
  5
31C
100
AcDbEntity
  8
FRAME
100
AcDbLine
 62
7
  6
BYLAYER
 10
204.5
 20
10.0
 11
204.5
 21
15.0
  0
LINE
  5
31D
100
AcDbEntity
  8
FRAME
100
AcDbLine
 62
7
  6
BYLAYER
 10
204.5
 20
826.0
 11
204.5
 21
831.0
  0
LINE
  5
31E
100
AcDbEntity
  8
FRAME
100
AcDbLine
 62
7
  6
BYLAYER
 10
32.5
 20
418.0
 11
35.0
 21
420.5
  0
LINE
  5
31F
100
AcDbEntity
  8
FRAME
100
AcDbLine
 62
7
  6
BYLAYER
 10
602.0
 20
12.5
 11
603.5
 21
12.5
  0
LINE
  5
320
100
AcDbEntity
  8
FRAME
100
AcDbLine
 62
7
  6
BYLAYER
 10
605.5
 20
12.5
 11
607.0
 21
12.5
  0
LINE
  5
321
100
AcDbEntity
  8
FRAME
100
AcDbLine
 62
7
  6
BYLAYER
 10
35.0
 20
15.0
 11
1174.0
 21
15.0
  0
LINE
  5
322
100
AcDbEntity
  8
FRAME
100
AcDbLine
 62
7
  6
BYLAYER
 10
35.3
 20
15.3
 11
1173.7
 21
15.3
  0
LINE
  5
323
100
AcDbEntity
  8
FRAME
100
AcDbLine
 62
7
  6
BYLAYER
 10
35.6
 20
15.6
 11
1173.4
 21
15.6
  0
LINE
  5
324
100
AcDbEntity
  8
FRAME
100
AcDbLine
 62
7
  6
BYLAYER
 10
35.9
 20
15.9
 11
1173.1
 21
15.9
  0
LINE
  5
325
100
AcDbEntity
  8
FRAME
100
AcDbLine
 62
7
  6
BYLAYER
 10
36.2
 20
16.2
 11
1172.8
 21
16.2
  0
LINE
  5
326
100
AcDbEntity
  8
FRAME
100
AcDbLine
 62
7
  6
BYLAYER
 10
36.5
 20
16.5
 11
1172.5
 21
16.5
  0
LINE
  5
327
100
AcDbEntity
  8
FRAME
100
AcDbLine
 62
7
  6
BYLAYER
 10
36.8
 20
16.8
 11
1172.2
 21
16.8
  0
LINE
  5
328
100
AcDbEntity
  8
FRAME
100
AcDbLine
 62
7
  6
BYLAYER
 10
37.1
 20
17.1
 11
1171.9
 21
17.1
  0
LINE
  5
329
100
AcDbEntity
  8
FRAME
100
AcDbLine
 62
7
  6
BYLAYER
 10
37.4
 20
17.4
 11
1171.6
 21
17.4
  0
LINE
  5
32A
100
AcDbEntity
  8
FRAME
100
AcDbLine
 62
7
  6
BYLAYER
 10
32.5
 20
423.0
 11
35.0
 21
420.5
  0
LINE
  5
32B
100
AcDbEntity
  8
FRAME
100
AcDbLine
 62
7
  6
BYLAYER
 10
1095.272888385
 20
57.8878297818
 11
1097.1035067051
 21
57.8878297818
  0
LINE
  5
32C
100
AcDbEntity
  8
FRAME
100
AcDbLine
 62
7
  6
BYLAYER
 10
1106.0297896324
 20
57.8878297818
 11
1107.8604079526
 21
57.8878297818
  0
LINE
  5
32D
100
AcDbEntity
  8
FRAME
100
AcDbLine
 62
7
  6
BYLAYER
 10
1110.7042910228
 20
57.8878297818
 11
1111.4581367544
 21
57.8878297818
  0
LINE
  5
32E
100
AcDbEntity
  8
FRAME
100
AcDbLine
 62
7
  6
BYLAYER
 10
1114.8247039995
 20
57.8878297818
 11
1116.0474007862
 21
57.8878297818
  0
LINE
  5
32F
100
AcDbEntity
  8
FRAME
100
AcDbLine
 62
7
  6
BYLAYER
 10
1116.5081659543
 20
57.8878297818
 11
1117.2620116859
 21
57.8878297818
  0
LINE
  5
330
100
AcDbEntity
  8
FRAME
100
AcDbLine
 62
7
  6
BYLAYER
 10
1120.628578931
 20
57.8878297818
 11
1121.8512757177
 21
57.8878297818
  0
LINE
  5
331
100
AcDbEntity
  8
FRAME
100
AcDbLine
 62
7
  6
BYLAYER
 10
1122.3387250866
 20
57.8878297818
 11
1122.8199755847
 21
57.8878297818
  0
LINE
  5
332
100
AcDbEntity
  8
FRAME
100
AcDbLine
 62
7
  6
BYLAYER
 10
1126.8943451286
 20
57.8878297818
 11
1127.3755956267
 21
57.8878297818
  0
LINE
  5
333
100
AcDbEntity
  8
FRAME
100
AcDbLine
 62
7
  6
BYLAYER
 10
1096.4225520744
 20
59.0374837494
 11
1097.1035067051
 21
59.0374837494
  0
LINE
  5
334
100
AcDbEntity
  8
FRAME
100
AcDbLine
 62
7
  6
BYLAYER
 10
1107.1794533218
 20
59.0374837494
 11
1107.8604079526
 21
59.0374837494
  0
LINE
  5
335
100
AcDbEntity
  8
FRAME
100
AcDbLine
 62
7
  6
BYLAYER
 10
1095.272888385
 20
61.8024109558
 11
1096.4225520744
 21
61.8024109558
  0
LINE
  5
336
100
AcDbEntity
  8
FRAME
100
AcDbLine
 62
7
  6
BYLAYER
 10
1106.0297896324
 20
61.8024109558
 11
1107.1794533218
 21
61.8024109558
  0
LINE
  5
337
100
AcDbEntity
  8
FRAME
100
AcDbLine
 62
7
  6
BYLAYER
 10
1095.272888385
 20
62.7381758131
 11
1097.1076499921
 21
62.7381758131
  0
LINE
  5
338
100
AcDbEntity
  8
FRAME
100
AcDbLine
 62
7
  6
BYLAYER
 10
1106.0297896324
 20
62.7381758131
 11
1107.8645512396
 21
62.7381758131
  0
LINE
  5
339
100
AcDbEntity
  8
FRAME
100
AcDbLine
 62
7
  6
BYLAYER
 10
1119.6787630299
 20
63.8878297807
 11
1117.5863180047
 21
63.8878297807
  0
LINE
  5
33A
100
AcDbEntity
  8
FRAME
100
AcDbLine
 62
7
  6
BYLAYER
 10
1113.8748880984
 20
63.8878297807
 11
1111.7824430733
 21
63.8878297807
  0
LINE
  5
33B
100
AcDbEntity
  8
FRAME
100
AcDbLine
 62
7
  6
BYLAYER
 10
1094.5948007195
 20
63.8878297807
 11
1097.1076499921
 21
63.8878297807
  0
LINE
  5
33C
100
AcDbEntity
  8
FRAME
100
AcDbLine
 62
7
  6
BYLAYER
 10
1105.351701967
 20
63.8878297807
 11
1107.8645512396
 21
63.8878297807
  0
LINE
  5
33D
100
AcDbEntity
  8
FRAME
100
AcDbLine
 62
7
  6
BYLAYER
 10
1121.9138077348
 20
63.8878297807
 11
1124.0375621712
 21
63.8878297807
  0
LINE
  5
33E
100
AcDbEntity
  8
FRAME
100
AcDbLine
 62
7
  6
BYLAYER
 10
1126.5692606097
 20
63.8878297807
 11
1128.0439990962
 21
63.8878297807
  0
LINE
  5
33F
100
AcDbEntity
  8
FRAME
100
AcDbLine
 62
7
  6
BYLAYER
 10
304.5
 20
10.0
 11
304.5
 21
15.0
  0
LINE
  5
340
100
AcDbEntity
  8
FRAME
100
AcDbLine
 62
7
  6
BYLAYER
 10
304.5
 20
826.0
 11
304.5
 21
831.0
  0
LINE
  5
341
100
AcDbEntity
  8
FRAME
100
AcDbLine
 62
7
  6
BYLAYER
 10
30.0
 20
120.5
 11
35.0
 21
120.5
  0
LINE
  5
342
100
AcDbEntity
  8
FRAME
100
AcDbLine
 62
7
  6
BYLAYER
 10
1174.0
 20
120.5
 11
1179.0
 21
120.5
  0
LINE
  5
343
100
AcDbEntity
  8
FRAME
100
AcDbLine
 62
7
  6
BYLAYER
 10
604.5
 20
826.0
 11
607.0
 21
828.5
  0
LINE
  5
344
100
AcDbEntity
  8
FRAME
100
AcDbLine
 62
7
  6
BYLAYER
 10
604.5
 20
15.0
 11
607.0
 21
12.5
  0
LINE
  5
345
100
AcDbEntity
  8
FRAME
100
AcDbLine
 62
7
  6
BYLAYER
 10
404.5
 20
10.0
 11
404.5
 21
15.0
  0
LINE
  5
346
100
AcDbEntity
  8
FRAME
100
AcDbLine
 62
7
  6
BYLAYER
 10
404.5
 20
826.0
 11
404.5
 21
831.0
  0
LINE
  5
347
100
AcDbEntity
  8
FRAME
100
AcDbLine
 62
7
  6
BYLAYER
 10
30.0
 20
220.5
 11
35.0
 21
220.5
  0
LINE
  5
348
100
AcDbEntity
  8
FRAME
100
AcDbLine
 62
7
  6
BYLAYER
 10
1174.0
 20
220.5
 11
1179.0
 21
220.5
  0
LINE
  5
349
100
AcDbEntity
  8
FRAME
100
AcDbLine
 62
7
  6
BYLAYER
 10
504.5
 20
10.0
 11
504.5
 21
15.0
  0
LINE
  5
34A
100
AcDbEntity
  8
FRAME
100
AcDbLine
 62
7
  6
BYLAYER
 10
504.5
 20
826.0
 11
504.5
 21
831.0
  0
LINE
  5
34B
100
AcDbEntity
  8
FRAME
100
AcDbLine
 62
7
  6
BYLAYER
 10
30.0
 20
320.5
 11
35.0
 21
320.5
  0
LINE
  5
34C
100
AcDbEntity
  8
FRAME
100
AcDbLine
 62
7
  6
BYLAYER
 10
1174.0
 20
320.5
 11
1179.0
 21
320.5
  0
LINE
  5
34D
100
AcDbEntity
  8
FRAME
100
AcDbLine
 62
7
  6
BYLAYER
 10
32.5
 20
418.1
 11
32.6
 21
418.1
  0
LINE
  5
34E
100
AcDbEntity
  8
FRAME
100
AcDbLine
 62
7
  6
BYLAYER
 10
1176.4
 20
418.1
 11
1176.5
 21
418.1
  0
LINE
  5
34F
100
AcDbEntity
  8
FRAME
100
AcDbLine
 62
7
  6
BYLAYER
 10
32.5
 20
418.3
 11
32.8
 21
418.3
  0
LINE
  5
350
100
AcDbEntity
  8
FRAME
100
AcDbLine
 62
7
  6
BYLAYER
 10
1176.2
 20
418.3
 11
1176.5
 21
418.3
  0
LINE
  5
351
100
AcDbEntity
  8
FRAME
100
AcDbLine
 62
7
  6
BYLAYER
 10
32.5
 20
418.5
 11
33.0
 21
418.5
  0
LINE
  5
352
100
AcDbEntity
  8
FRAME
100
AcDbLine
 62
7
  6
BYLAYER
 10
1176.0
 20
418.5
 11
1176.5
 21
418.5
  0
LINE
  5
353
100
AcDbEntity
  8
FRAME
100
AcDbLine
 62
7
  6
BYLAYER
 10
32.5
 20
418.7
 11
33.2
 21
418.7
  0
LINE
  5
354
100
AcDbEntity
  8
FRAME
100
AcDbLine
 62
7
  6
BYLAYER
 10
1175.8
 20
418.7
 11
1176.5
 21
418.7
  0
LINE
  5
355
100
AcDbEntity
  8
FRAME
100
AcDbLine
 62
7
  6
BYLAYER
 10
32.5
 20
418.9
 11
33.4
 21
418.9
  0
LINE
  5
356
100
AcDbEntity
  8
FRAME
100
AcDbLine
 62
7
  6
BYLAYER
 10
1175.6
 20
418.9
 11
1176.5
 21
418.9
  0
LINE
  5
357
100
AcDbEntity
  8
FRAME
100
AcDbLine
 62
7
  6
BYLAYER
 10
32.5
 20
419.1
 11
33.6
 21
419.1
  0
LINE
  5
358
100
AcDbEntity
  8
FRAME
100
AcDbLine
 62
7
  6
BYLAYER
 10
1175.4
 20
419.1
 11
1176.5
 21
419.1
  0
LINE
  5
359
100
AcDbEntity
  8
FRAME
100
AcDbLine
 62
7
  6
BYLAYER
 10
32.5
 20
419.3
 11
33.8
 21
419.3
  0
LINE
  5
35A
100
AcDbEntity
  8
FRAME
100
AcDbLine
 62
7
  6
BYLAYER
 10
1175.2
 20
419.3
 11
1176.5
 21
419.3
  0
LINE
  5
35B
100
AcDbEntity
  8
FRAME
100
AcDbLine
 62
7
  6
BYLAYER
 10
30.0
 20
419.5
 11
34.0
 21
419.5
  0
LINE
  5
35C
100
AcDbEntity
  8
FRAME
100
AcDbLine
 62
7
  6
BYLAYER
 10
1175.0
 20
419.5
 11
1179.0
 21
419.5
  0
LINE
  5
35D
100
AcDbEntity
  8
FRAME
100
AcDbLine
 62
7
  6
BYLAYER
 10
30.0
 20
419.7
 11
34.2
 21
419.7
  0
LINE
  5
35E
100
AcDbEntity
  8
FRAME
100
AcDbLine
 62
7
  6
BYLAYER
 10
1174.8
 20
419.7
 11
1179.0
 21
419.7
  0
LINE
  5
35F
100
AcDbEntity
  8
FRAME
100
AcDbLine
 62
7
  6
BYLAYER
 10
30.0
 20
419.9
 11
34.4
 21
419.9
  0
LINE
  5
360
100
AcDbEntity
  8
FRAME
100
AcDbLine
 62
7
  6
BYLAYER
 10
1174.6
 20
419.9
 11
1179.0
 21
419.9
  0
LINE
  5
361
100
AcDbEntity
  8
FRAME
100
AcDbLine
 62
7
  6
BYLAYER
 10
30.0
 20
420.1
 11
34.6
 21
420.1
  0
LINE
  5
362
100
AcDbEntity
  8
FRAME
100
AcDbLine
 62
7
  6
BYLAYER
 10
1174.4
 20
420.1
 11
1179.0
 21
420.1
  0
LINE
  5
363
100
AcDbEntity
  8
FRAME
100
AcDbLine
 62
7
  6
BYLAYER
 10
30.0
 20
420.3
 11
34.8
 21
420.3
  0
LINE
  5
364
100
AcDbEntity
  8
FRAME
100
AcDbLine
 62
7
  6
BYLAYER
 10
1174.2
 20
420.3
 11
1179.0
 21
420.3
  0
LINE
  5
365
100
AcDbEntity
  8
FRAME
100
AcDbLine
 62
7
  6
BYLAYER
 10
30.0
 20
420.5
 11
35.0
 21
420.5
  0
LINE
  5
366
100
AcDbEntity
  8
FRAME
100
AcDbLine
 62
7
  6
BYLAYER
 10
1174.0
 20
420.5
 11
1179.0
 21
420.5
  0
LINE
  5
367
100
AcDbEntity
  8
FRAME
100
AcDbLine
 62
7
  6
BYLAYER
 10
30.0
 20
420.7
 11
34.8
 21
420.7
  0
LINE
  5
368
100
AcDbEntity
  8
FRAME
100
AcDbLine
 62
7
  6
BYLAYER
 10
1174.2
 20
420.7
 11
1179.0
 21
420.7
  0
LINE
  5
369
100
AcDbEntity
  8
FRAME
100
AcDbLine
 62
7
  6
BYLAYER
 10
30.0
 20
420.9
 11
34.6
 21
420.9
  0
LINE
  5
36A
100
AcDbEntity
  8
FRAME
100
AcDbLine
 62
7
  6
BYLAYER
 10
1174.4
 20
420.9
 11
1179.0
 21
420.9
  0
LINE
  5
36B
100
AcDbEntity
  8
FRAME
100
AcDbLine
 62
7
  6
BYLAYER
 10
30.0
 20
421.1
 11
34.4
 21
421.1
  0
LINE
  5
36C
100
AcDbEntity
  8
FRAME
100
AcDbLine
 62
7
  6
BYLAYER
 10
1174.6
 20
421.1
 11
1179.0
 21
421.1
  0
LINE
  5
36D
100
AcDbEntity
  8
FRAME
100
AcDbLine
 62
7
  6
BYLAYER
 10
30.0
 20
421.3
 11
34.2
 21
421.3
  0
LINE
  5
36E
100
AcDbEntity
  8
FRAME
100
AcDbLine
 62
7
  6
BYLAYER
 10
1174.8
 20
421.3
 11
1179.0
 21
421.3
  0
LINE
  5
36F
100
AcDbEntity
  8
FRAME
100
AcDbLine
 62
7
  6
BYLAYER
 10
30.0
 20
421.5
 11
34.0
 21
421.5
  0
LINE
  5
370
100
AcDbEntity
  8
FRAME
100
AcDbLine
 62
7
  6
BYLAYER
 10
1175.0
 20
421.5
 11
1179.0
 21
421.5
  0
LINE
  5
371
100
AcDbEntity
  8
FRAME
100
AcDbLine
 62
7
  6
BYLAYER
 10
32.5
 20
421.7
 11
33.8
 21
421.7
  0
LINE
  5
372
100
AcDbEntity
  8
FRAME
100
AcDbLine
 62
7
  6
BYLAYER
 10
1175.2
 20
421.7
 11
1176.5
 21
421.7
  0
LINE
  5
373
100
AcDbEntity
  8
FRAME
100
AcDbLine
 62
7
  6
BYLAYER
 10
32.5
 20
421.9
 11
33.6
 21
421.9
  0
LINE
  5
374
100
AcDbEntity
  8
FRAME
100
AcDbLine
 62
7
  6
BYLAYER
 10
1175.4
 20
421.9
 11
1176.5
 21
421.9
  0
LINE
  5
375
100
AcDbEntity
  8
FRAME
100
AcDbLine
 62
7
  6
BYLAYER
 10
32.5
 20
422.1
 11
33.4
 21
422.1
  0
LINE
  5
376
100
AcDbEntity
  8
FRAME
100
AcDbLine
 62
7
  6
BYLAYER
 10
1175.6
 20
422.1
 11
1176.5
 21
422.1
  0
LINE
  5
377
100
AcDbEntity
  8
FRAME
100
AcDbLine
 62
7
  6
BYLAYER
 10
32.5
 20
422.3
 11
33.2
 21
422.3
  0
LINE
  5
378
100
AcDbEntity
  8
FRAME
100
AcDbLine
 62
7
  6
BYLAYER
 10
1175.8
 20
422.3
 11
1176.5
 21
422.3
  0
LINE
  5
379
100
AcDbEntity
  8
FRAME
100
AcDbLine
 62
7
  6
BYLAYER
 10
32.5
 20
422.5
 11
33.0
 21
422.5
  0
LINE
  5
37A
100
AcDbEntity
  8
FRAME
100
AcDbLine
 62
7
  6
BYLAYER
 10
1176.0
 20
422.5
 11
1176.5
 21
422.5
  0
LINE
  5
37B
100
AcDbEntity
  8
FRAME
100
AcDbLine
 62
7
  6
BYLAYER
 10
32.5
 20
422.7
 11
32.8
 21
422.7
  0
LINE
  5
37C
100
AcDbEntity
  8
FRAME
100
AcDbLine
 62
7
  6
BYLAYER
 10
1176.2
 20
422.7
 11
1176.5
 21
422.7
  0
LINE
  5
37D
100
AcDbEntity
  8
FRAME
100
AcDbLine
 62
7
  6
BYLAYER
 10
32.5
 20
422.9
 11
32.6
 21
422.9
  0
LINE
  5
37E
100
AcDbEntity
  8
FRAME
100
AcDbLine
 62
7
  6
BYLAYER
 10
1176.4
 20
422.9
 11
1176.5
 21
422.9
  0
LINE
  5
37F
100
AcDbEntity
  8
FRAME
100
AcDbLine
 62
7
  6
BYLAYER
 10
602.1
 20
12.5
 11
602.1
 21
12.6
  0
LINE
  5
380
100
AcDbEntity
  8
FRAME
100
AcDbLine
 62
7
  6
BYLAYER
 10
602.1
 20
828.4
 11
602.1
 21
828.5
  0
LINE
  5
381
100
AcDbEntity
  8
FRAME
100
AcDbLine
 62
7
  6
BYLAYER
 10
602.3
 20
12.5
 11
602.3
 21
12.8
  0
LINE
  5
382
100
AcDbEntity
  8
FRAME
100
AcDbLine
 62
7
  6
BYLAYER
 10
602.3
 20
828.2
 11
602.3
 21
828.5
  0
LINE
  5
383
100
AcDbEntity
  8
FRAME
100
AcDbLine
 62
7
  6
BYLAYER
 10
602.5
 20
12.5
 11
602.5
 21
13.0
  0
LINE
  5
384
100
AcDbEntity
  8
FRAME
100
AcDbLine
 62
7
  6
BYLAYER
 10
602.5
 20
828.0
 11
602.5
 21
828.5
  0
LINE
  5
385
100
AcDbEntity
  8
FRAME
100
AcDbLine
 62
7
  6
BYLAYER
 10
602.7
 20
12.5
 11
602.7
 21
13.2
  0
LINE
  5
386
100
AcDbEntity
  8
FRAME
100
AcDbLine
 62
7
  6
BYLAYER
 10
602.7
 20
827.8
 11
602.7
 21
828.5
  0
LINE
  5
387
100
AcDbEntity
  8
FRAME
100
AcDbLine
 62
7
  6
BYLAYER
 10
602.9
 20
12.5
 11
602.9
 21
13.4
  0
LINE
  5
388
100
AcDbEntity
  8
FRAME
100
AcDbLine
 62
7
  6
BYLAYER
 10
602.9
 20
827.6
 11
602.9
 21
828.5
  0
LINE
  5
389
100
AcDbEntity
  8
FRAME
100
AcDbLine
 62
7
  6
BYLAYER
 10
603.1
 20
12.5
 11
603.1
 21
13.6
  0
LINE
  5
38A
100
AcDbEntity
  8
FRAME
100
AcDbLine
 62
7
  6
BYLAYER
 10
603.1
 20
827.4
 11
603.1
 21
828.5
  0
LINE
  5
38B
100
AcDbEntity
  8
FRAME
100
AcDbLine
 62
7
  6
BYLAYER
 10
603.3
 20
12.5
 11
603.3
 21
13.8
  0
LINE
  5
38C
100
AcDbEntity
  8
FRAME
100
AcDbLine
 62
7
  6
BYLAYER
 10
603.3
 20
827.2
 11
603.3
 21
828.5
  0
LINE
  5
38D
100
AcDbEntity
  8
FRAME
100
AcDbLine
 62
7
  6
BYLAYER
 10
603.5
 20
10.0
 11
603.5
 21
14.0
  0
LINE
  5
38E
100
AcDbEntity
  8
FRAME
100
AcDbLine
 62
7
  6
BYLAYER
 10
603.5
 20
827.0
 11
603.5
 21
831.0
  0
LINE
  5
38F
100
AcDbEntity
  8
FRAME
100
AcDbLine
 62
7
  6
BYLAYER
 10
603.7
 20
10.0
 11
603.7
 21
14.2
  0
LINE
  5
390
100
AcDbEntity
  8
FRAME
100
AcDbLine
 62
7
  6
BYLAYER
 10
603.7
 20
826.8
 11
603.7
 21
831.0
  0
LINE
  5
391
100
AcDbEntity
  8
FRAME
100
AcDbLine
 62
7
  6
BYLAYER
 10
603.9
 20
10.0
 11
603.9
 21
14.4
  0
LINE
  5
392
100
AcDbEntity
  8
FRAME
100
AcDbLine
 62
7
  6
BYLAYER
 10
603.9
 20
826.6
 11
603.9
 21
831.0
  0
LINE
  5
393
100
AcDbEntity
  8
FRAME
100
AcDbLine
 62
7
  6
BYLAYER
 10
604.1
 20
10.0
 11
604.1
 21
14.6
  0
LINE
  5
394
100
AcDbEntity
  8
FRAME
100
AcDbLine
 62
7
  6
BYLAYER
 10
604.1
 20
826.4
 11
604.1
 21
831.0
  0
LINE
  5
395
100
AcDbEntity
  8
FRAME
100
AcDbLine
 62
7
  6
BYLAYER
 10
604.3
 20
10.0
 11
604.3
 21
14.8
  0
LINE
  5
396
100
AcDbEntity
  8
FRAME
100
AcDbLine
 62
7
  6
BYLAYER
 10
604.3
 20
826.2
 11
604.3
 21
831.0
  0
LINE
  5
397
100
AcDbEntity
  8
FRAME
100
AcDbLine
 62
7
  6
BYLAYER
 10
604.5
 20
10.0
 11
604.5
 21
15.0
  0
LINE
  5
398
100
AcDbEntity
  8
FRAME
100
AcDbLine
 62
7
  6
BYLAYER
 10
604.5
 20
826.0
 11
604.5
 21
831.0
  0
LINE
  5
399
100
AcDbEntity
  8
FRAME
100
AcDbLine
 62
7
  6
BYLAYER
 10
604.7
 20
10.0
 11
604.7
 21
14.8
  0
LINE
  5
39A
100
AcDbEntity
  8
FRAME
100
AcDbLine
 62
7
  6
BYLAYER
 10
604.7
 20
826.2
 11
604.7
 21
831.0
  0
LINE
  5
39B
100
AcDbEntity
  8
FRAME
100
AcDbLine
 62
7
  6
BYLAYER
 10
604.9
 20
10.0
 11
604.9
 21
14.6
  0
LINE
  5
39C
100
AcDbEntity
  8
FRAME
100
AcDbLine
 62
7
  6
BYLAYER
 10
604.9
 20
826.4
 11
604.9
 21
831.0
  0
LINE
  5
39D
100
AcDbEntity
  8
FRAME
100
AcDbLine
 62
7
  6
BYLAYER
 10
605.1
 20
10.0
 11
605.1
 21
14.4
  0
LINE
  5
39E
100
AcDbEntity
  8
FRAME
100
AcDbLine
 62
7
  6
BYLAYER
 10
605.1
 20
826.6
 11
605.1
 21
831.0
  0
LINE
  5
39F
100
AcDbEntity
  8
FRAME
100
AcDbLine
 62
7
  6
BYLAYER
 10
605.3
 20
10.0
 11
605.3
 21
14.2
  0
LINE
  5
3A0
100
AcDbEntity
  8
FRAME
100
AcDbLine
 62
7
  6
BYLAYER
 10
605.3
 20
826.8
 11
605.3
 21
831.0
  0
LINE
  5
3A1
100
AcDbEntity
  8
FRAME
100
AcDbLine
 62
7
  6
BYLAYER
 10
605.5
 20
10.0
 11
605.5
 21
14.0
  0
LINE
  5
3A2
100
AcDbEntity
  8
FRAME
100
AcDbLine
 62
7
  6
BYLAYER
 10
605.5
 20
827.0
 11
605.5
 21
831.0
  0
LINE
  5
3A3
100
AcDbEntity
  8
FRAME
100
AcDbLine
 62
7
  6
BYLAYER
 10
605.7
 20
12.5
 11
605.7
 21
13.8
  0
LINE
  5
3A4
100
AcDbEntity
  8
FRAME
100
AcDbLine
 62
7
  6
BYLAYER
 10
605.7
 20
827.2
 11
605.7
 21
828.5
  0
LINE
  5
3A5
100
AcDbEntity
  8
FRAME
100
AcDbLine
 62
7
  6
BYLAYER
 10
605.9
 20
12.5
 11
605.9
 21
13.6
  0
LINE
  5
3A6
100
AcDbEntity
  8
FRAME
100
AcDbLine
 62
7
  6
BYLAYER
 10
605.9
 20
827.4
 11
605.9
 21
828.5
  0
LINE
  5
3A7
100
AcDbEntity
  8
FRAME
100
AcDbLine
 62
7
  6
BYLAYER
 10
606.1
 20
12.5
 11
606.1
 21
13.4
  0
LINE
  5
3A8
100
AcDbEntity
  8
FRAME
100
AcDbLine
 62
7
  6
BYLAYER
 10
606.1
 20
827.6
 11
606.1
 21
828.5
  0
LINE
  5
3A9
100
AcDbEntity
  8
FRAME
100
AcDbLine
 62
7
  6
BYLAYER
 10
606.3
 20
12.5
 11
606.3
 21
13.2
  0
LINE
  5
3AA
100
AcDbEntity
  8
FRAME
100
AcDbLine
 62
7
  6
BYLAYER
 10
606.3
 20
827.8
 11
606.3
 21
828.5
  0
LINE
  5
3AB
100
AcDbEntity
  8
FRAME
100
AcDbLine
 62
7
  6
BYLAYER
 10
606.5
 20
12.5
 11
606.5
 21
13.0
  0
LINE
  5
3AC
100
AcDbEntity
  8
FRAME
100
AcDbLine
 62
7
  6
BYLAYER
 10
606.5
 20
828.0
 11
606.5
 21
828.5
  0
LINE
  5
3AD
100
AcDbEntity
  8
FRAME
100
AcDbLine
 62
7
  6
BYLAYER
 10
606.7
 20
12.5
 11
606.7
 21
12.8
  0
LINE
  5
3AE
100
AcDbEntity
  8
FRAME
100
AcDbLine
 62
7
  6
BYLAYER
 10
606.7
 20
828.2
 11
606.7
 21
828.5
  0
LINE
  5
3AF
100
AcDbEntity
  8
FRAME
100
AcDbLine
 62
7
  6
BYLAYER
 10
606.9
 20
12.5
 11
606.9
 21
12.6
  0
LINE
  5
3B0
100
AcDbEntity
  8
FRAME
100
AcDbLine
 62
7
  6
BYLAYER
 10
606.9
 20
828.4
 11
606.9
 21
828.5
  0
LINE
  5
3B1
100
AcDbEntity
  8
FRAME
100
AcDbLine
 62
7
  6
BYLAYER
 10
704.5
 20
10.0
 11
704.5
 21
15.0
  0
LINE
  5
3B2
100
AcDbEntity
  8
FRAME
100
AcDbLine
 62
7
  6
BYLAYER
 10
704.5
 20
826.0
 11
704.5
 21
831.0
  0
LINE
  5
3B3
100
AcDbEntity
  8
FRAME
100
AcDbLine
 62
7
  6
BYLAYER
 10
30.0
 20
520.5
 11
35.0
 21
520.5
  0
LINE
  5
3B4
100
AcDbEntity
  8
FRAME
100
AcDbLine
 62
7
  6
BYLAYER
 10
1174.0
 20
520.5
 11
1179.0
 21
520.5
  0
LINE
  5
3B5
100
AcDbEntity
  8
FRAME
100
AcDbLine
 62
7
  6
BYLAYER
 10
804.5
 20
10.0
 11
804.5
 21
15.0
  0
LINE
  5
3B6
100
AcDbEntity
  8
FRAME
100
AcDbLine
 62
7
  6
BYLAYER
 10
804.5
 20
826.0
 11
804.5
 21
831.0
  0
LINE
  5
3B7
100
AcDbEntity
  8
FRAME
100
AcDbLine
 62
7
  6
BYLAYER
 10
30.0
 20
620.5
 11
35.0
 21
620.5
  0
LINE
  5
3B8
100
AcDbEntity
  8
FRAME
100
AcDbLine
 62
7
  6
BYLAYER
 10
1174.0
 20
620.5
 11
1179.0
 21
620.5
  0
LINE
  5
3B9
100
AcDbEntity
  8
FRAME
100
AcDbLine
 62
7
  6
BYLAYER
 10
1095.272888385
 20
62.7381758131
 11
1094.5948007195
 21
63.8878297807
  0
LINE
  5
3BA
100
AcDbEntity
  8
FRAME
100
AcDbLine
 62
7
  6
BYLAYER
 10
602.0
 20
12.5
 11
604.5
 21
15.0
  0
LINE
  5
3BB
100
AcDbEntity
  8
FRAME
100
AcDbLine
 62
7
  6
BYLAYER
 10
602.0
 20
828.5
 11
604.5
 21
826.0
  0
LINE
  5
3BC
100
AcDbEntity
  8
FRAME
100
AcDbLine
 62
7
  6
BYLAYER
 10
1106.0297896324
 20
62.7381758131
 11
1105.351701967
 21
63.8878297807
  0
LINE
  5
3BD
100
AcDbEntity
  8
FRAME
100
AcDbLine
 62
7
  6
BYLAYER
 10
1112.4605307387
 20
62.7381758131
 11
1111.7824430733
 21
63.8878297807
  0
LINE
  5
3BE
100
AcDbEntity
  8
FRAME
100
AcDbLine
 62
7
  6
BYLAYER
 10
1118.2644056702
 20
62.7381758131
 11
1117.5863180047
 21
63.8878297807
  0
LINE
  5
3BF
100
AcDbEntity
  8
FRAME
100
AcDbLine
 62
7
  6
BYLAYER
 10
1122.3387250866
 20
63.1674097755
 11
1121.9138077348
 21
63.8878297807
  0
LINE
  5
3C0
100
AcDbEntity
  8
FRAME
100
AcDbLine
 62
7
  6
BYLAYER
 10
904.5
 20
10.0
 11
904.5
 21
15.0
  0
LINE
  5
3C1
100
AcDbEntity
  8
FRAME
100
AcDbLine
 62
7
  6
BYLAYER
 10
904.5
 20
826.0
 11
904.5
 21
831.0
  0
LINE
  5
3C2
100
AcDbEntity
  8
FRAME
100
AcDbLine
 62
7
  6
BYLAYER
 10
30.0
 20
720.5
 11
35.0
 21
720.5
  0
LINE
  5
3C3
100
AcDbEntity
  8
FRAME
100
AcDbLine
 62
7
  6
BYLAYER
 10
1174.0
 20
720.5
 11
1179.0
 21
720.5
  0
LINE
  5
3C4
100
AcDbEntity
  8
FRAME
100
AcDbLine
 62
7
  6
BYLAYER
 10
1114.8247039995
 20
57.8878297818
 11
1113.3758459045
 21
61.8892556962
  0
LINE
  5
3C5
100
AcDbEntity
  8
FRAME
100
AcDbLine
 62
7
  6
BYLAYER
 10
1116.0474007862
 20
57.8878297818
 11
1113.8748880984
 21
63.8878297807
  0
LINE
  5
3C6
100
AcDbEntity
  8
FRAME
100
AcDbLine
 62
7
  6
BYLAYER
 10
1120.628578931
 20
57.8878297818
 11
1119.179720836
 21
61.8892556962
  0
LINE
  5
3C7
100
AcDbEntity
  8
FRAME
100
AcDbLine
 62
7
  6
BYLAYER
 10
1121.8512757177
 20
57.8878297818
 11
1119.6787630299
 21
63.8878297807
  0
LINE
  5
3C8
100
AcDbEntity
  8
FRAME
100
AcDbLine
 62
7
  6
BYLAYER
 10
1004.5
 20
10.0
 11
1004.5
 21
15.0
  0
LINE
  5
3C9
100
AcDbEntity
  8
FRAME
100
AcDbLine
 62
7
  6
BYLAYER
 10
1004.5
 20
826.0
 11
1004.5
 21
831.0
  0
LINE
  5
3CA
100
AcDbEntity
  8
FRAME
100
AcDbLine
 62
7
  6
BYLAYER
 10
1174.0
 20
420.5
 11
1176.5
 21
423.0
  0
LINE
  5
3CB
100
AcDbEntity
  8
FRAME
100
AcDbLine
 62
7
  6
BYLAYER
 10
37.4
 20
823.6
 11
1171.6
 21
823.6
  0
LINE
  5
3CC
100
AcDbEntity
  8
FRAME
100
AcDbLine
 62
7
  6
BYLAYER
 10
37.1
 20
823.9
 11
1171.9
 21
823.9
  0
LINE
  5
3CD
100
AcDbEntity
  8
FRAME
100
AcDbLine
 62
7
  6
BYLAYER
 10
36.8
 20
824.2
 11
1172.2
 21
824.2
  0
LINE
  5
3CE
100
AcDbEntity
  8
FRAME
100
AcDbLine
 62
7
  6
BYLAYER
 10
36.5
 20
824.5
 11
1172.5
 21
824.5
  0
LINE
  5
3CF
100
AcDbEntity
  8
FRAME
100
AcDbLine
 62
7
  6
BYLAYER
 10
36.2
 20
824.8
 11
1172.8
 21
824.8
  0
LINE
  5
3D0
100
AcDbEntity
  8
FRAME
100
AcDbLine
 62
7
  6
BYLAYER
 10
35.9
 20
825.1
 11
1173.1
 21
825.1
  0
LINE
  5
3D1
100
AcDbEntity
  8
FRAME
100
AcDbLine
 62
7
  6
BYLAYER
 10
35.6
 20
825.4
 11
1173.4
 21
825.4
  0
LINE
  5
3D2
100
AcDbEntity
  8
FRAME
100
AcDbLine
 62
7
  6
BYLAYER
 10
35.3
 20
825.7
 11
1173.7
 21
825.7
  0
LINE
  5
3D3
100
AcDbEntity
  8
FRAME
100
AcDbLine
 62
7
  6
BYLAYER
 10
35.0
 20
826.0
 11
1174.0
 21
826.0
  0
LINE
  5
3D4
100
AcDbEntity
  8
FRAME
100
AcDbLine
 62
7
  6
BYLAYER
 10
602.0
 20
828.5
 11
603.5
 21
828.5
  0
LINE
  5
3D5
100
AcDbEntity
  8
FRAME
100
AcDbLine
 62
7
  6
BYLAYER
 10
605.5
 20
828.5
 11
607.0
 21
828.5
  0
LINE
  5
3D6
100
AcDbEntity
  8
FRAME
100
AcDbLine
 62
7
  6
BYLAYER
 10
10.0
 20
831.0
 11
1179.0
 21
831.0
  0
LINE
  5
3D7
100
AcDbEntity
  8
FRAME
100
AcDbLine
 62
7
  6
BYLAYER
 10
1174.0
 20
420.5
 11
1176.5
 21
418.0
  0
LINE
  5
3D8
100
AcDbEntity
  8
FRAME
100
AcDbLine
 62
7
  6
BYLAYER
 10
1123.4883790542
 20
62.0471561076
 11
1124.6683894084
 21
58.4548061615
  0
LINE
  5
3D9
100
AcDbEntity
  8
FRAME
100
AcDbLine
 62
7
  6
BYLAYER
 10
1124.0375621712
 20
63.8878297807
 11
1125.3034113904
 21
60.0341573459
  0
LINE
  5
3DA
100
AcDbEntity
  8
FRAME
100
AcDbLine
 62
7
  6
BYLAYER
 10
1189.0
 20
841.0
 11
0.0
 21
841.0
  0
LINE
  5
3DB
100
AcDbEntity
  8
FRAME
100
AcDbLine
 62
7
  6
BYLAYER
 10
1095.272888385
 20
57.8878297818
 11
1095.272888385
 21
61.8024109558
  0
LINE
  5
3DC
100
AcDbEntity
  8
FRAME
100
AcDbLine
 62
7
  6
BYLAYER
 10
1096.4225520744
 20
61.8024109558
 11
1096.4225520744
 21
59.0374837494
  0
LINE
  5
3DD
100
AcDbEntity
  8
FRAME
100
AcDbLine
 62
7
  6
BYLAYER
 10
1104.5
 20
10.0
 11
1104.5
 21
15.0
  0
LINE
  5
3DE
100
AcDbEntity
  8
FRAME
100
AcDbLine
 62
7
  6
BYLAYER
 10
1104.5
 20
826.0
 11
1104.5
 21
831.0
  0
LINE
  5
3DF
100
AcDbEntity
  8
FRAME
100
AcDbLine
 62
7
  6
BYLAYER
 10
1106.0297896324
 20
57.8878297818
 11
1106.0297896324
 21
61.8024109558
  0
LINE
  5
3E0
100
AcDbEntity
  8
FRAME
100
AcDbLine
 62
7
  6
BYLAYER
 10
1107.1794533218
 20
61.8024109558
 11
1107.1794533218
 21
59.0374837494
  0
LINE
  5
3E1
100
AcDbEntity
  8
FRAME
100
AcDbLine
 62
7
  6
BYLAYER
 10
1122.3387250866
 20
57.8878297818
 11
1122.3387250866
 21
63.1674097755
  0
LINE
  5
3E2
100
AcDbEntity
  8
FRAME
100
AcDbLine
 62
7
  6
BYLAYER
 10
1123.4883790542
 20
58.5562332513
 11
1123.4883790542
 21
62.0471561076
  0
LINE
  5
3E3
100
AcDbEntity
  8
FRAME
100
AcDbLine
 62
7
  6
BYLAYER
 10
1126.8943451286
 20
61.3649243086
 11
1126.8943451286
 21
57.8878297818
  0
LINE
  5
3E4
100
AcDbEntity
  8
FRAME
100
AcDbLine
 62
7
  6
BYLAYER
 10
1128.0439990962
 20
63.8878297807
 11
1128.0439990962
 21
58.5562332513
  0
LINE
  5
3E5
100
AcDbEntity
  8
FRAME
100
AcDbLine
 62
7
  6
BYLAYER
 10
1171.6
 20
17.4
 11
1171.6
 21
823.6
  0
LINE
  5
3E6
100
AcDbEntity
  8
FRAME
100
AcDbLine
 62
7
  6
BYLAYER
 10
1171.9
 20
17.1
 11
1171.9
 21
823.9
  0
LINE
  5
3E7
100
AcDbEntity
  8
FRAME
100
AcDbLine
 62
7
  6
BYLAYER
 10
1172.2
 20
16.8
 11
1172.2
 21
824.2
  0
LINE
  5
3E8
100
AcDbEntity
  8
FRAME
100
AcDbLine
 62
7
  6
BYLAYER
 10
1172.5
 20
16.5
 11
1172.5
 21
824.5
  0
LINE
  5
3E9
100
AcDbEntity
  8
FRAME
100
AcDbLine
 62
7
  6
BYLAYER
 10
1172.8
 20
16.2
 11
1172.8
 21
824.8
  0
LINE
  5
3EA
100
AcDbEntity
  8
FRAME
100
AcDbLine
 62
7
  6
BYLAYER
 10
1173.1
 20
15.9
 11
1173.1
 21
825.1
  0
LINE
  5
3EB
100
AcDbEntity
  8
FRAME
100
AcDbLine
 62
7
  6
BYLAYER
 10
1173.4
 20
15.6
 11
1173.4
 21
825.4
  0
LINE
  5
3EC
100
AcDbEntity
  8
FRAME
100
AcDbLine
 62
7
  6
BYLAYER
 10
1173.7
 20
15.3
 11
1173.7
 21
825.7
  0
LINE
  5
3ED
100
AcDbEntity
  8
FRAME
100
AcDbLine
 62
7
  6
BYLAYER
 10
1174.0
 20
15.0
 11
1174.0
 21
826.0
  0
LINE
  5
3EE
100
AcDbEntity
  8
FRAME
100
AcDbLine
 62
7
  6
BYLAYER
 10
1176.5
 20
418.0
 11
1176.5
 21
419.5
  0
LINE
  5
3EF
100
AcDbEntity
  8
FRAME
100
AcDbLine
 62
7
  6
BYLAYER
 10
1176.5
 20
421.5
 11
1176.5
 21
423.0
  0
LINE
  5
3F0
100
AcDbEntity
  8
FRAME
100
AcDbLine
 62
7
  6
BYLAYER
 10
1179.0
 20
10.0
 11
1179.0
 21
831.0
  0
LINE
  5
3F1
100
AcDbEntity
  8
FRAME
100
AcDbLine
 62
7
  6
BYLAYER
 10
1189.0
 20
0.0
 11
1189.0
 21
841.0
  0
LINE
  5
3F2
100
AcDbEntity
  8
FRAME
100
AcDbLine
 62
7
  6
BYLAYER
 10
1126.5692606097
 20
63.8878297807
 11
1125.3034113904
 21
60.0341573459
  0
LINE
  5
3F3
100
AcDbEntity
  8
FRAME
100
AcDbLine
 62
7
  6
BYLAYER
 10
1126.8943451286
 20
61.3649243086
 11
1125.9384333725
 21
58.4548061615
  0
LINE
  5
3F4
100
AcDbEntity
  8
FRAME
100
AcDbLine
 62
7
  6
BYLAYER
 10
1110.7042910228
 20
57.8878297818
 11
1112.4605307387
 21
62.7381758131
  0
LINE
  5
3F5
100
AcDbEntity
  8
FRAME
100
AcDbLine
 62
7
  6
BYLAYER
 10
1112.0866103948
 20
58.3286720917
 11
1113.3758459045
 21
61.8892556962
  0
LINE
  5
3F6
100
AcDbEntity
  8
FRAME
100
AcDbLine
 62
7
  6
BYLAYER
 10
1116.5081659543
 20
57.8878297818
 11
1118.2644056702
 21
62.7381758131
  0
LINE
  5
3F7
100
AcDbEntity
  8
FRAME
100
AcDbLine
 62
7
  6
BYLAYER
 10
1117.8904853263
 20
58.3286720917
 11
1119.179720836
 21
61.8892556962
  0
LINE
  5
3F8
100
AcDbEntity
  8
FRAME
100
AcDbLine
 62
7
  6
BYLAYER
 10
1094.6621493835
 20
63.7736444582
 11
1094.776334706
 21
63.8878297807
  0
LINE
  5
3F9
100
AcDbEntity
  8
FRAME
100
AcDbLine
 62
7
  6
BYLAYER
 10
1094.8287320339
 20
63.4912143025
 11
1095.225347512
 21
63.8878297807
  0
LINE
  5
3FA
100
AcDbEntity
  8
FRAME
100
AcDbLine
 62
7
  6
BYLAYER
 10
1094.9953146842
 20
63.2087841468
 11
1095.6743603181
 21
63.8878297807
  0
LINE
  5
3FB
100
AcDbEntity
  8
FRAME
100
AcDbLine
 62
7
  6
BYLAYER
 10
1095.1618973346
 20
62.9263539911
 11
1096.1233731241
 21
63.8878297807
  0
LINE
  5
3FC
100
AcDbEntity
  8
FRAME
100
AcDbLine
 62
7
  6
BYLAYER
 10
1095.4227319626
 20
62.7381758131
 11
1096.5723859302
 21
63.8878297807
  0
LINE
  5
3FD
100
AcDbEntity
  8
FRAME
100
AcDbLine
 62
7
  6
BYLAYER
 10
1095.8717447687
 20
62.7381758131
 11
1097.0213987362
 21
63.8878297807
  0
LINE
  5
3FE
100
AcDbEntity
  8
FRAME
100
AcDbLine
 62
7
  6
BYLAYER
 10
1095.272888385
 20
61.6903066234
 11
1095.3849927174
 21
61.8024109558
  0
LINE
  5
3FF
100
AcDbEntity
  8
FRAME
100
AcDbLine
 62
7
  6
BYLAYER
 10
1096.3207575747
 20
62.7381758131
 11
1097.4485847352
 21
63.8660029736
  0
LINE
  5
400
100
AcDbEntity
  8
FRAME
100
AcDbLine
 62
7
  6
BYLAYER
 10
1095.272888385
 20
61.2412938173
 11
1095.8340055235
 21
61.8024109558
  0
LINE
  5
401
100
AcDbEntity
  8
FRAME
100
AcDbLine
 62
7
  6
BYLAYER
 10
1096.7697703808
 20
62.7381758131
 11
1097.8221766701
 21
63.7905821024
  0
LINE
  5
402
100
AcDbEntity
  8
FRAME
100
AcDbLine
 62
7
  6
BYLAYER
 10
1095.272888385
 20
60.7922810112
 11
1096.2830183295
 21
61.8024109558
  0
LINE
  5
403
100
AcDbEntity
  8
FRAME
100
AcDbLine
 62
7
  6
BYLAYER
 10
1097.2149977
 20
62.7343903263
 11
1098.1548288765
 21
63.6742215028
  0
LINE
  5
404
100
AcDbEntity
  8
FRAME
100
AcDbLine
 62
7
  6
BYLAYER
 10
1095.272888385
 20
60.3432682052
 11
1096.4225520744
 21
61.4929318946
  0
LINE
  5
405
100
AcDbEntity
  8
FRAME
100
AcDbLine
 62
7
  6
BYLAYER
 10
1097.5895856547
 20
62.659965475
 11
1098.4538216109
 21
63.5242014311
  0
LINE
  5
406
100
AcDbEntity
  8
FRAME
100
AcDbLine
 62
7
  6
BYLAYER
 10
1095.272888385
 20
59.8942553991
 11
1096.4225520744
 21
61.0439190885
  0
LINE
  5
407
100
AcDbEntity
  8
FRAME
100
AcDbLine
 62
7
  6
BYLAYER
 10
1097.8966584714
 20
62.5180254855
 11
1098.7231751036
 21
63.3445421178
  0
LINE
  5
408
100
AcDbEntity
  8
FRAME
100
AcDbLine
 62
7
  6
BYLAYER
 10
1095.272888385
 20
59.4452425931
 11
1096.4225520744
 21
60.5949062825
  0
LINE
  5
409
100
AcDbEntity
  8
FRAME
100
AcDbLine
 62
7
  6
BYLAYER
 10
1098.1518560612
 20
62.3242102693
 11
1098.9650001554
 21
63.1373543635
  0
LINE
  5
40A
100
AcDbEntity
  8
FRAME
100
AcDbLine
 62
7
  6
BYLAYER
 10
1095.272888385
 20
58.996229787
 11
1096.4225520744
 21
60.1458934764
  0
LINE
  5
40B
100
AcDbEntity
  8
FRAME
100
AcDbLine
 62
7
  6
BYLAYER
 10
1098.359692182
 20
62.083033584
 11
1099.1800573783
 21
62.9033987804
  0
LINE
  5
40C
100
AcDbEntity
  8
FRAME
100
AcDbLine
 62
7
  6
BYLAYER
 10
1095.272888385
 20
58.547216981
 11
1096.4225520744
 21
59.6968806704
  0
LINE
  5
40D
100
AcDbEntity
  8
FRAME
100
AcDbLine
 62
7
  6
BYLAYER
 10
1098.5222067486
 20
61.7965353446
 11
1099.3679353575
 21
62.6422639535
  0
LINE
  5
40E
100
AcDbEntity
  8
FRAME
100
AcDbLine
 62
7
  6
BYLAYER
 10
1095.272888385
 20
58.0982041749
 11
1096.4225520744
 21
59.2478678643
  0
LINE
  5
40F
100
AcDbEntity
  8
FRAME
100
AcDbLine
 62
7
  6
BYLAYER
 10
1098.6437108457
 20
61.4690266357
 11
1099.529338094
 21
62.354653884
  0
LINE
  5
410
100
AcDbEntity
  8
FRAME
100
AcDbLine
 62
7
  6
BYLAYER
 10
1095.5115267979
 20
57.8878297818
 11
1096.6611807655
 21
59.0374837494
  0
LINE
  5
411
100
AcDbEntity
  8
FRAME
100
AcDbLine
 62
7
  6
BYLAYER
 10
1098.7139530646
 20
61.0902560485
 11
1099.6651685421
 21
62.041471526
  0
LINE
  5
412
100
AcDbEntity
  8
FRAME
100
AcDbLine
 62
7
  6
BYLAYER
 10
1095.960539604
 20
57.8878297818
 11
1097.1102083067
 21
59.0374984846
  0
LINE
  5
413
100
AcDbEntity
  8
FRAME
100
AcDbLine
 62
7
  6
BYLAYER
 10
1098.7078694957
 20
60.6351596736
 11
1099.7720487872
 21
61.6993389651
  0
LINE
  5
414
100
AcDbEntity
  8
FRAME
100
AcDbLine
 62
7
  6
BYLAYER
 10
1096.40955241
 20
57.8878297818
 11
1097.6673507125
 21
59.1456280843
  0
LINE
  5
415
100
AcDbEntity
  8
FRAME
100
AcDbLine
 62
7
  6
BYLAYER
 10
1098.5346907355
 20
60.0129681073
 11
1099.8444532344
 21
61.3227306062
  0
LINE
  5
416
100
AcDbEntity
  8
FRAME
100
AcDbLine
 62
7
  6
BYLAYER
 10
1096.8585652161
 20
57.8878297818
 11
1099.8728749413
 21
60.902139507
  0
LINE
  5
417
100
AcDbEntity
  8
FRAME
100
AcDbLine
 62
7
  6
BYLAYER
 10
1097.3160387531
 20
57.8962905128
 11
1099.8388421772
 21
60.4190939369
  0
LINE
  5
418
100
AcDbEntity
  8
FRAME
100
AcDbLine
 62
7
  6
BYLAYER
 10
1100.7993145644
 20
61.3795663241
 11
1102.0844769744
 21
62.6647287341
  0
LINE
  5
419
100
AcDbEntity
  8
FRAME
100
AcDbLine
 62
7
  6
BYLAYER
 10
1097.8683148403
 20
57.9995537939
 11
1099.6961031174
 21
59.827342071
  0
LINE
  5
41A
100
AcDbEntity
  8
FRAME
100
AcDbLine
 62
7
  6
BYLAYER
 10
1100.6229895377
 20
60.7542284914
 11
1102.6690796247
 21
62.8003185784
  0
LINE
  5
41B
100
AcDbEntity
  8
FRAME
100
AcDbLine
 62
7
  6
BYLAYER
 10
1098.8908257495
 20
58.5730518971
 11
1099.0918984679
 21
58.7741246155
  0
LINE
  5
41C
100
AcDbEntity
  8
FRAME
100
AcDbLine
 62
7
  6
BYLAYER
 10
1100.5930516231
 20
60.2752777707
 11
1103.1072951631
 21
62.7895213106
  0
LINE
  5
41D
100
AcDbEntity
  8
FRAME
100
AcDbLine
 62
7
  6
BYLAYER
 10
1100.6351178716
 20
59.8683312131
 11
1103.4735065382
 21
62.7067198797
  0
LINE
  5
41E
100
AcDbEntity
  8
FRAME
100
AcDbLine
 62
7
  6
BYLAYER
 10
1100.7261672981
 20
59.5103678336
 11
1101.7536697636
 21
60.5378702991
  0
LINE
  5
41F
100
AcDbEntity
  8
FRAME
100
AcDbLine
 62
7
  6
BYLAYER
 10
1102.8727599352
 20
61.6569604707
 11
1103.7907347353
 21
62.5749352708
  0
LINE
  5
420
100
AcDbEntity
  8
FRAME
100
AcDbLine
 62
7
  6
BYLAYER
 10
1100.8558236164
 20
59.1910113458
 11
1101.7623200765
 21
60.097507806
  0
LINE
  5
421
100
AcDbEntity
  8
FRAME
100
AcDbLine
 62
7
  6
BYLAYER
 10
1103.2330099564
 20
61.5681976858
 11
1104.0693560407
 21
62.4045437701
  0
LINE
  5
422
100
AcDbEntity
  8
FRAME
100
AcDbLine
 62
7
  6
BYLAYER
 10
1105.4262502457
 20
63.7614379751
 11
1105.5526420512
 21
63.8878297807
  0
LINE
  5
423
100
AcDbEntity
  8
FRAME
100
AcDbLine
 62
7
  6
BYLAYER
 10
1101.0188435247
 20
58.9050184481
 11
1101.8638704877
 21
59.750045411
  0
LINE
  5
424
100
AcDbEntity
  8
FRAME
100
AcDbLine
 62
7
  6
BYLAYER
 10
1103.5012615033
 20
61.3874364266
 11
1104.314613756
 21
62.2007886794
  0
LINE
  5
425
100
AcDbEntity
  8
FRAME
100
AcDbLine
 62
7
  6
BYLAYER
 10
1105.592832896
 20
63.4790078194
 11
1106.0016548573
 21
63.8878297807
  0
LINE
  5
426
100
AcDbEntity
  8
FRAME
100
AcDbLine
 62
7
  6
BYLAYER
 10
1101.2127430674
 20
58.6499051847
 11
1102.0294695294
 21
59.4666316467
  0
LINE
  5
427
100
AcDbEntity
  8
FRAME
100
AcDbLine
 62
7
  6
BYLAYER
 10
1103.7061442138
 20
61.1433063311
 11
1104.528991837
 21
61.9661539543
  0
LINE
  5
428
100
AcDbEntity
  8
FRAME
100
AcDbLine
 62
7
  6
BYLAYER
 10
1105.7594155464
 20
63.1965776637
 11
1106.4506676633
 21
63.8878297807
  0
LINE
  5
429
100
AcDbEntity
  8
FRAME
100
AcDbLine
 62
7
  6
BYLAYER
 10
1101.436943071
 20
58.4250923822
 11
1102.25360872
 21
59.2417580313
  0
LINE
  5
42A
100
AcDbEntity
  8
FRAME
100
AcDbLine
 62
7
  6
BYLAYER
 10
1103.8524570593
 20
60.8406063705
 11
1104.7130694571
 21
61.7012187683
  0
LINE
  5
42B
100
AcDbEntity
  8
FRAME
100
AcDbLine
 62
7
  6
BYLAYER
 10
1105.9259981968
 20
62.914147508
 11
1106.8996804694
 21
63.8878297807
  0
LINE
  5
42C
100
AcDbEntity
  8
FRAME
100
AcDbLine
 62
7
  6
BYLAYER
 10
1101.6925925237
 20
58.2317290289
 11
1102.5463136357
 21
59.0854501409
  0
LINE
  5
42D
100
AcDbEntity
  8
FRAME
100
AcDbLine
 62
7
  6
BYLAYER
 10
1103.9292883948
 20
60.4684249
 11
1104.865697628
 21
61.4048341332
  0
LINE
  5
42E
100
AcDbEntity
  8
FRAME
100
AcDbLine
 62
7
  6
BYLAYER
 10
1106.1990393079
 20
62.7381758131
 11
1107.3486932754
 21
63.8878297807
  0
LINE
  5
42F
100
AcDbEntity
  8
FRAME
100
AcDbLine
 62
7
  6
BYLAYER
 10
1101.9829271285
 20
58.0730508277
 11
1102.9549378538
 21
59.045061553
  0
LINE
  5
430
100
AcDbEntity
  8
FRAME
100
AcDbLine
 62
7
  6
BYLAYER
 10
1103.8891919591
 20
59.9793156583
 11
1104.9836406468
 21
61.0737643459
  0
LINE
  5
431
100
AcDbEntity
  8
FRAME
100
AcDbLine
 62
7
  6
BYLAYER
 10
1106.648052114
 20
62.7381758131
 11
1107.7977060815
 21
63.8878297807
  0
LINE
  5
432
100
AcDbEntity
  8
FRAME
100
AcDbLine
 62
7
  6
BYLAYER
 10
1102.3144641291
 20
57.9555750222
 11
1105.0603812699
 21
60.701492163
  0
LINE
  5
433
100
AcDbEntity
  8
FRAME
100
AcDbLine
 62
7
  6
BYLAYER
 10
1106.0297896324
 20
61.6709005255
 11
1106.1613000627
 21
61.8024109558
  0
LINE
  5
434
100
AcDbEntity
  8
FRAME
100
AcDbLine
 62
7
  6
BYLAYER
 10
1107.09706492
 20
62.7381758131
 11
1108.2226313457
 21
63.8637422389
  0
LINE
  5
435
100
AcDbEntity
  8
FRAME
100
AcDbLine
 62
7
  6
BYLAYER
 10
1102.7003505749
 20
57.8924486619
 11
1105.0827724478
 21
60.2748705348
  0
LINE
  5
436
100
AcDbEntity
  8
FRAME
100
AcDbLine
 62
7
  6
BYLAYER
 10
1106.0297896324
 20
61.2218877195
 11
1106.6103128688
 21
61.8024109558
  0
LINE
  5
437
100
AcDbEntity
  8
FRAME
100
AcDbLine
 62
7
  6
BYLAYER
 10
1107.5460777261
 20
62.7381758131
 11
1108.5942328751
 21
63.7863309622
  0
LINE
  5
438
100
AcDbEntity
  8
FRAME
100
AcDbLine
 62
7
  6
BYLAYER
 10
1103.1721337681
 20
57.9152190491
 11
1105.0192668782
 21
59.7623521592
  0
LINE
  5
439
100
AcDbEntity
  8
FRAME
100
AcDbLine
 62
7
  6
BYLAYER
 10
1106.0297896324
 20
60.7728749134
 11
1107.0593256748
 21
61.8024109558
  0
LINE
  5
43A
100
AcDbEntity
  8
FRAME
100
AcDbLine
 62
7
  6
BYLAYER
 10
1107.9899246549
 20
62.7330099359
 11
1108.9253107966
 21
63.6683960776
  0
LINE
  5
43B
100
AcDbEntity
  8
FRAME
100
AcDbLine
 62
7
  6
BYLAYER
 10
1103.8674153894
 20
58.1614878643
 11
1104.7322628805
 21
59.0263353555
  0
LINE
  5
43C
100
AcDbEntity
  8
FRAME
100
AcDbLine
 62
7
  6
BYLAYER
 10
1106.0297896324
 20
60.3238621073
 11
1107.1794533218
 21
61.4735257968
  0
LINE
  5
43D
100
AcDbEntity
  8
FRAME
100
AcDbLine
 62
7
  6
BYLAYER
 10
1108.360980585
 20
62.6550530599
 11
1109.2229562639
 21
63.5170287388
  0
LINE
  5
43E
100
AcDbEntity
  8
FRAME
100
AcDbLine
 62
7
  6
BYLAYER
 10
1106.0297896324
 20
59.8748493013
 11
1107.1794533218
 21
61.0245129907
  0
LINE
  5
43F
100
AcDbEntity
  8
FRAME
100
AcDbLine
 62
7
  6
BYLAYER
 10
1108.6656019674
 20
62.5106616363
 11
1109.4910873217
 21
63.3361469906
  0
LINE
  5
440
100
AcDbEntity
  8
FRAME
100
AcDbLine
 62
7
  6
BYLAYER
 10
1106.0297896324
 20
59.4258364952
 11
1107.1794533218
 21
60.5755001847
  0
LINE
  5
441
100
AcDbEntity
  8
FRAME
100
AcDbLine
 62
7
  6
BYLAYER
 10
1108.9187129497
 20
62.3147598125
 11
1109.7317483954
 21
63.1277952582
  0
LINE
  5
442
100
AcDbEntity
  8
FRAME
100
AcDbLine
 62
7
  6
BYLAYER
 10
1106.0297896324
 20
58.9768236892
 11
1107.1794533218
 21
60.1264873786
  0
LINE
  5
443
100
AcDbEntity
  8
FRAME
100
AcDbLine
 62
7
  6
BYLAYER
 10
1109.1244972871
 20
62.0715313439
 11
1109.945647842
 21
62.8926818988
  0
LINE
  5
444
100
AcDbEntity
  8
FRAME
100
AcDbLine
 62
7
  6
BYLAYER
 10
1106.0297896324
 20
58.5278108831
 11
1107.1794533218
 21
59.6774745725
  0
LINE
  5
445
100
AcDbEntity
  8
FRAME
100
AcDbLine
 62
7
  6
BYLAYER
 10
1109.2852490593
 20
61.78327031
 11
1110.1323233954
 21
62.6303446461
  0
LINE
  5
446
100
AcDbEntity
  8
FRAME
100
AcDbLine
 62
7
  6
BYLAYER
 10
1106.0297896324
 20
58.0787980771
 11
1107.1794533218
 21
59.2284617665
  0
LINE
  5
447
100
AcDbEntity
  8
FRAME
100
AcDbLine
 62
7
  6
BYLAYER
 10
1109.4048165691
 20
61.4538250138
 11
1110.292657228
 21
62.3416656727
  0
LINE
  5
448
100
AcDbEntity
  8
FRAME
100
AcDbLine
 62
7
  6
BYLAYER
 10
1111.8033592705
 20
63.8523677152
 11
1111.838821336
 21
63.8878297807
  0
LINE
  5
449
100
AcDbEntity
  8
FRAME
100
AcDbLine
 62
7
  6
BYLAYER
 10
1106.2878341432
 20
57.8878297818
 11
1107.4374881108
 21
59.0374837494
  0
LINE
  5
44A
100
AcDbEntity
  8
FRAME
100
AcDbLine
 62
7
  6
BYLAYER
 10
1109.4724446156
 20
61.0724402542
 11
1110.4273182656
 21
62.0273139042
  0
LINE
  5
44B
100
AcDbEntity
  8
FRAME
100
AcDbLine
 62
7
  6
BYLAYER
 10
1111.9699419209
 20
63.5699375595
 11
1112.287834142
 21
63.8878297807
  0
LINE
  5
44C
100
AcDbEntity
  8
FRAME
100
AcDbLine
 62
7
  6
BYLAYER
 10
1106.7368469493
 20
57.8878297818
 11
1107.8867282221
 21
59.0377110547
  0
LINE
  5
44D
100
AcDbEntity
  8
FRAME
100
AcDbLine
 62
7
  6
BYLAYER
 10
1109.4619774102
 20
60.6129602427
 11
1110.5328426066
 21
61.6838254391
  0
LINE
  5
44E
100
AcDbEntity
  8
FRAME
100
AcDbLine
 62
7
  6
BYLAYER
 10
1112.1365245713
 20
63.2875074038
 11
1112.7368469481
 21
63.8878297807
  0
LINE
  5
44F
100
AcDbEntity
  8
FRAME
100
AcDbLine
 62
7
  6
BYLAYER
 10
1107.1858597553
 20
57.8878297818
 11
1108.4572485962
 21
59.1592186227
  0
LINE
  5
450
100
AcDbEntity
  8
FRAME
100
AcDbLine
 62
7
  6
BYLAYER
 10
1109.2749699354
 20
59.9769399619
 11
1110.6035823066
 21
61.3055523331
  0
LINE
  5
451
100
AcDbEntity
  8
FRAME
100
AcDbLine
 62
7
  6
BYLAYER
 10
1112.3031072216
 20
63.0050772481
 11
1113.1858597541
 21
63.8878297807
  0
LINE
  5
452
100
AcDbEntity
  8
FRAME
100
AcDbLine
 62
7
  6
BYLAYER
 10
1107.6348725614
 20
57.8878297818
 11
1110.6297838521
 21
60.8827410726
  0
LINE
  5
453
100
AcDbEntity
  8
FRAME
100
AcDbLine
 62
7
  6
BYLAYER
 10
1112.4465177135
 20
62.699474934
 11
1113.6348725602
 21
63.8878297807
  0
LINE
  5
454
100
AcDbEntity
  8
FRAME
100
AcDbLine
 62
7
  6
BYLAYER
 10
1108.0941198266
 20
57.898064241
 11
1110.5923562682
 21
60.3963006826
  0
LINE
  5
455
100
AcDbEntity
  8
FRAME
100
AcDbLine
 62
7
  6
BYLAYER
 10
1112.191654421
 20
61.9955988354
 11
1113.9304461909
 21
63.7343906054
  0
LINE
  5
456
100
AcDbEntity
  8
FRAME
100
AcDbLine
 62
7
  6
BYLAYER
 10
1108.6531177821
 20
58.0080493905
 11
1110.44268449
 21
59.7976160983
  0
LINE
  5
457
100
AcDbEntity
  8
FRAME
100
AcDbLine
 62
7
  6
BYLAYER
 10
1111.9367911285
 20
61.2917227368
 11
1114.0498080146
 21
63.404739623
  0
LINE
  5
458
100
AcDbEntity
  8
FRAME
100
AcDbLine
 62
7
  6
BYLAYER
 10
1111.681927836
 20
60.5878466383
 11
1114.1691698383
 21
63.0750886406
  0
LINE
  5
459
100
AcDbEntity
  8
FRAME
100
AcDbLine
 62
7
  6
BYLAYER
 10
1111.4270645435
 20
59.8839705397
 11
1113.3437738942
 21
61.8006798904
  0
LINE
  5
45A
100
AcDbEntity
  8
FRAME
100
AcDbLine
 62
7
  6
BYLAYER
 10
1113.3908664028
 20
61.847772399
 11
1114.2885316619
 21
62.7454376582
  0
LINE
  5
45B
100
AcDbEntity
  8
FRAME
100
AcDbLine
 62
7
  6
BYLAYER
 10
1111.1722012509
 20
59.1800944411
 11
1113.0889106017
 21
61.0968037919
  0
LINE
  5
45C
100
AcDbEntity
  8
FRAME
100
AcDbLine
 62
7
  6
BYLAYER
 10
1113.5102282264
 20
61.5181214166
 11
1114.4078934856
 21
62.4157866758
  0
LINE
  5
45D
100
AcDbEntity
  8
FRAME
100
AcDbLine
 62
7
  6
BYLAYER
 10
1110.9173379584
 20
58.4762183426
 11
1112.8340473092
 21
60.3929276933
  0
LINE
  5
45E
100
AcDbEntity
  8
FRAME
100
AcDbLine
 62
7
  6
BYLAYER
 10
1113.6295900501
 20
61.1884704342
 11
1114.5272553092
 21
62.0861356934
  0
LINE
  5
45F
100
AcDbEntity
  8
FRAME
100
AcDbLine
 62
7
  6
BYLAYER
 10
1110.7779622038
 20
57.8878297818
 11
1112.5791840166
 21
59.6890515947
  0
LINE
  5
460
100
AcDbEntity
  8
FRAME
100
AcDbLine
 62
7
  6
BYLAYER
 10
1113.7489518737
 20
60.8588194518
 11
1114.6466171329
 21
61.756484711
  0
LINE
  5
461
100
AcDbEntity
  8
FRAME
100
AcDbLine
 62
7
  6
BYLAYER
 10
1111.2269750098
 20
57.8878297818
 11
1112.3243207241
 21
58.9851754962
  0
LINE
  5
462
100
AcDbEntity
  8
FRAME
100
AcDbLine
 62
7
  6
BYLAYER
 10
1113.8683136974
 20
60.5291684694
 11
1114.7659789566
 21
61.4268337286
  0
LINE
  5
463
100
AcDbEntity
  8
FRAME
100
AcDbLine
 62
7
  6
BYLAYER
 10
1111.7368869363
 20
57.9487289023
 11
1112.0656411035
 21
58.2774830694
  0
LINE
  5
464
100
AcDbEntity
  8
FRAME
100
AcDbLine
 62
7
  6
BYLAYER
 10
1113.9876755211
 20
60.199517487
 11
1114.8853407802
 21
61.0971827462
  0
LINE
  5
465
100
AcDbEntity
  8
FRAME
100
AcDbLine
 62
7
  6
BYLAYER
 10
1117.6195852844
 20
63.8314272504
 11
1117.6759878147
 21
63.8878297807
  0
LINE
  5
466
100
AcDbEntity
  8
FRAME
100
AcDbLine
 62
7
  6
BYLAYER
 10
1114.1070373447
 20
59.8698665046
 11
1115.0047026039
 21
60.7675317638
  0
LINE
  5
467
100
AcDbEntity
  8
FRAME
100
AcDbLine
 62
7
  6
BYLAYER
 10
1117.7861679348
 20
63.5489970947
 11
1118.1250006207
 21
63.8878297807
  0
LINE
  5
468
100
AcDbEntity
  8
FRAME
100
AcDbLine
 62
7
  6
BYLAYER
 10
1114.2263991684
 20
59.5402155222
 11
1115.1240644275
 21
60.4378807814
  0
LINE
  5
469
100
AcDbEntity
  8
FRAME
100
AcDbLine
 62
7
  6
BYLAYER
 10
1117.9527505851
 20
63.266566939
 11
1118.5740134268
 21
63.8878297807
  0
LINE
  5
46A
100
AcDbEntity
  8
FRAME
100
AcDbLine
 62
7
  6
BYLAYER
 10
1114.345760992
 20
59.2105645398
 11
1115.2434262512
 21
60.108229799
  0
LINE
  5
46B
100
AcDbEntity
  8
FRAME
100
AcDbLine
 62
7
  6
BYLAYER
 10
1118.1193332355
 20
62.9841367833
 11
1119.0230262328
 21
63.8878297807
  0
LINE
  5
46C
100
AcDbEntity
  8
FRAME
100
AcDbLine
 62
7
  6
BYLAYER
 10
1114.4651228157
 20
58.8809135575
 11
1115.3627880748
 21
59.7785788166
  0
LINE
  5
46D
100
AcDbEntity
  8
FRAME
100
AcDbLine
 62
7
  6
BYLAYER
 10
1118.2314960941
 20
62.6472868359
 11
1119.4720390389
 21
63.8878297807
  0
LINE
  5
46E
100
AcDbEntity
  8
FRAME
100
AcDbLine
 62
7
  6
BYLAYER
 10
1114.5844846393
 20
58.5512625751
 11
1115.4821498985
 21
59.4489278342
  0
LINE
  5
46F
100
AcDbEntity
  8
FRAME
100
AcDbLine
 62
7
  6
BYLAYER
 10
1117.9766328016
 20
61.9434107373
 11
1119.74317107
 21
63.7099490057
  0
LINE
  5
470
100
AcDbEntity
  8
FRAME
100
AcDbLine
 62
7
  6
BYLAYER
 10
1114.703846463
 20
58.2216115927
 11
1115.6015117222
 21
59.1192768518
  0
LINE
  5
471
100
AcDbEntity
  8
FRAME
100
AcDbLine
 62
7
  6
BYLAYER
 10
1117.7217695091
 20
61.2395346387
 11
1119.8625328936
 21
63.3802980233
  0
LINE
  5
472
100
AcDbEntity
  8
FRAME
100
AcDbLine
 62
7
  6
BYLAYER
 10
1114.8232082867
 20
57.8919606103
 11
1115.7208735458
 21
58.7896258694
  0
LINE
  5
473
100
AcDbEntity
  8
FRAME
100
AcDbLine
 62
7
  6
BYLAYER
 10
1117.4669062166
 20
60.5356585402
 11
1119.9818947173
 21
63.0506470409
  0
LINE
  5
474
100
AcDbEntity
  8
FRAME
100
AcDbLine
 62
7
  6
BYLAYER
 10
1115.2680902643
 20
57.8878297818
 11
1115.8402353695
 21
58.459974887
  0
LINE
  5
475
100
AcDbEntity
  8
FRAME
100
AcDbLine
 62
7
  6
BYLAYER
 10
1117.212042924
 20
59.8317824416
 11
1119.1287522748
 21
61.7484917923
  0
LINE
  5
476
100
AcDbEntity
  8
FRAME
100
AcDbLine
 62
7
  6
BYLAYER
 10
1119.2035912818
 20
61.8233307994
 11
1120.101256541
 21
62.7209960585
  0
LINE
  5
477
100
AcDbEntity
  8
FRAME
100
AcDbLine
 62
7
  6
BYLAYER
 10
1115.7171030703
 20
57.8878297818
 11
1115.9595971931
 21
58.1303239046
  0
LINE
  5
478
100
AcDbEntity
  8
FRAME
100
AcDbLine
 62
7
  6
BYLAYER
 10
1116.9571796315
 20
59.127906343
 11
1118.8738889823
 21
61.0446156938
  0
LINE
  5
479
100
AcDbEntity
  8
FRAME
100
AcDbLine
 62
7
  6
BYLAYER
 10
1119.3229531055
 20
61.493679817
 11
1120.2206183646
 21
62.3913450761
  0
LINE
  5
47A
100
AcDbEntity
  8
FRAME
100
AcDbLine
 62
7
  6
BYLAYER
 10
1116.702316339
 20
58.4240302445
 11
1118.6190256898
 21
60.3407395952
  0
LINE
  5
47B
100
AcDbEntity
  8
FRAME
100
AcDbLine
 62
7
  6
BYLAYER
 10
1119.4423149291
 20
61.1640288346
 11
1120.3399801883
 21
62.0616940937
  0
LINE
  5
47C
100
AcDbEntity
  8
FRAME
100
AcDbLine
 62
7
  6
BYLAYER
 10
1122.0074134364
 20
63.7291273419
 11
1122.1661158752
 21
63.8878297807
  0
LINE
  5
47D
100
AcDbEntity
  8
FRAME
100
AcDbLine
 62
7
  6
BYLAYER
 10
1116.6151286824
 20
57.8878297818
 11
1118.3641623972
 21
59.6368634966
  0
LINE
  5
47E
100
AcDbEntity
  8
FRAME
100
AcDbLine
 62
7
  6
BYLAYER
 10
1119.5616767528
 20
60.8343778522
 11
1120.4593420119
 21
61.7320431113
  0
LINE
  5
47F
100
AcDbEntity
  8
FRAME
100
AcDbLine
 62
7
  6
BYLAYER
 10
1122.1739960868
 20
63.4466971862
 11
1122.6151286813
 21
63.8878297807
  0
LINE
  5
480
100
AcDbEntity
  8
FRAME
100
AcDbLine
 62
7
  6
BYLAYER
 10
1117.0641414885
 20
57.8878297818
 11
1118.1092991047
 21
58.9329873981
  0
LINE
  5
481
100
AcDbEntity
  8
FRAME
100
AcDbLine
 62
7
  6
BYLAYER
 10
1119.6810385764
 20
60.5047268698
 11
1120.5787038356
 21
61.4023921289
  0
LINE
  5
482
100
AcDbEntity
  8
FRAME
100
AcDbLine
 62
7
  6
BYLAYER
 10
1122.3387250866
 20
63.16241338
 11
1123.0641414873
 21
63.8878297807
  0
LINE
  5
483
100
AcDbEntity
  8
FRAME
100
AcDbLine
 62
7
  6
BYLAYER
 10
1117.6122842613
 20
57.9869597486
 11
1117.8312851886
 21
58.2059606759
  0
LINE
  5
484
100
AcDbEntity
  8
FRAME
100
AcDbLine
 62
7
  6
BYLAYER
 10
1119.8004004001
 20
60.1750758874
 11
1120.6980656593
 21
61.0727411465
  0
LINE
  5
485
100
AcDbEntity
  8
FRAME
100
AcDbLine
 62
7
  6
BYLAYER
 10
1122.3387250866
 20
62.7134005739
 11
1123.5131542934
 21
63.8878297807
  0
LINE
  5
486
100
AcDbEntity
  8
FRAME
100
AcDbLine
 62
7
  6
BYLAYER
 10
1119.9197622238
 20
59.845424905
 11
1120.8174274829
 21
60.7430901641
  0
LINE
  5
487
100
AcDbEntity
  8
FRAME
100
AcDbLine
 62
7
  6
BYLAYER
 10
1122.3387250866
 20
62.2643877679
 11
1123.9621670994
 21
63.8878297807
  0
LINE
  5
488
100
AcDbEntity
  8
FRAME
100
AcDbLine
 62
7
  6
BYLAYER
 10
1120.0391240474
 20
59.5157739226
 11
1120.9367893066
 21
60.4134391817
  0
LINE
  5
489
100
AcDbEntity
  8
FRAME
100
AcDbLine
 62
7
  6
BYLAYER
 10
1122.3387250866
 20
61.8153749618
 11
1124.1299426218
 21
63.6065924969
  0
LINE
  5
48A
100
AcDbEntity
  8
FRAME
100
AcDbLine
 62
7
  6
BYLAYER
 10
1120.1584858711
 20
59.1861229402
 11
1121.0561511302
 21
60.0837881994
  0
LINE
  5
48B
100
AcDbEntity
  8
FRAME
100
AcDbLine
 62
7
  6
BYLAYER
 10
1122.3387250866
 20
61.3663621558
 11
1124.2409652033
 21
63.2686022724
  0
LINE
  5
48C
100
AcDbEntity
  8
FRAME
100
AcDbLine
 62
7
  6
BYLAYER
 10
1120.2778476947
 20
58.8564719578
 11
1121.1755129539
 21
59.754137217
  0
LINE
  5
48D
100
AcDbEntity
  8
FRAME
100
AcDbLine
 62
7
  6
BYLAYER
 10
1122.3387250866
 20
60.9173493497
 11
1124.3519877847
 21
62.9306120478
  0
LINE
  5
48E
100
AcDbEntity
  8
FRAME
100
AcDbLine
 62
7
  6
BYLAYER
 10
1120.3972095184
 20
58.5268209754
 11
1121.2948747775
 21
59.4244862346
  0
LINE
  5
48F
100
AcDbEntity
  8
FRAME
100
AcDbLine
 62
7
  6
BYLAYER
 10
1122.3387250866
 20
60.4683365437
 11
1123.4883790542
 21
61.6179905112
  0
LINE
  5
490
100
AcDbEntity
  8
FRAME
100
AcDbLine
 62
7
  6
BYLAYER
 10
1123.594494229
 20
61.724105686
 11
1124.4630103662
 21
62.5926218232
  0
LINE
  5
491
100
AcDbEntity
  8
FRAME
100
AcDbLine
 62
7
  6
BYLAYER
 10
1120.516571342
 20
58.197169993
 11
1121.4142366012
 21
59.0948352522
  0
LINE
  5
492
100
AcDbEntity
  8
FRAME
100
AcDbLine
 62
7
  6
BYLAYER
 10
1122.3387250866
 20
60.0193237376
 11
1123.4883790542
 21
61.1689777051
  0
LINE
  5
493
100
AcDbEntity
  8
FRAME
100
AcDbLine
 62
7
  6
BYLAYER
 10
1123.7055168105
 20
61.3861154614
 11
1124.5740329477
 21
62.2546315987
  0
LINE
  5
494
100
AcDbEntity
  8
FRAME
100
AcDbLine
 62
7
  6
BYLAYER
 10
1120.6562439369
 20
57.8878297818
 11
1121.5335984249
 21
58.7651842698
  0
LINE
  5
495
100
AcDbEntity
  8
FRAME
100
AcDbLine
 62
7
  6
BYLAYER
 10
1122.3387250866
 20
59.5703109315
 11
1123.4883790542
 21
60.7199648991
  0
LINE
  5
496
100
AcDbEntity
  8
FRAME
100
AcDbLine
 62
7
  6
BYLAYER
 10
1123.8165393919
 20
61.0481252368
 11
1124.6850555292
 21
61.9166413741
  0
LINE
  5
497
100
AcDbEntity
  8
FRAME
100
AcDbLine
 62
7
  6
BYLAYER
 10
1126.526712195
 20
63.7582980399
 11
1126.6562439357
 21
63.8878297807
  0
LINE
  5
498
100
AcDbEntity
  8
FRAME
100
AcDbLine
 62
7
  6
BYLAYER
 10
1121.105256743
 20
57.8878297818
 11
1121.6529602485
 21
58.4355332874
  0
LINE
  5
499
100
AcDbEntity
  8
FRAME
100
AcDbLine
 62
7
  6
BYLAYER
 10
1122.3387250866
 20
59.1212981255
 11
1123.4883790542
 21
60.270952093
  0
LINE
  5
49A
100
AcDbEntity
  8
FRAME
100
AcDbLine
 62
7
  6
BYLAYER
 10
1123.9275619734
 20
60.7101350123
 11
1124.7960781107
 21
61.5786511495
  0
LINE
  5
49B
100
AcDbEntity
  8
FRAME
100
AcDbLine
 62
7
  6
BYLAYER
 10
1126.3070748927
 20
63.0896479315
 11
1127.1052567418
 21
63.8878297807
  0
LINE
  5
49C
100
AcDbEntity
  8
FRAME
100
AcDbLine
 62
7
  6
BYLAYER
 10
1121.554269549
 20
57.8878297818
 11
1121.7723220722
 21
58.105882305
  0
LINE
  5
49D
100
AcDbEntity
  8
FRAME
100
AcDbLine
 62
7
  6
BYLAYER
 10
1122.3387250866
 20
58.6722853194
 11
1123.4883790542
 21
59.821939287
  0
LINE
  5
49E
100
AcDbEntity
  8
FRAME
100
AcDbLine
 62
7
  6
BYLAYER
 10
1124.0385845549
 20
60.3721447877
 11
1124.9071006922
 21
61.240660925
  0
LINE
  5
49F
100
AcDbEntity
  8
FRAME
100
AcDbLine
 62
7
  6
BYLAYER
 10
1126.0874375903
 20
62.4209978231
 11
1127.5542695479
 21
63.8878297807
  0
LINE
  5
4A0
100
AcDbEntity
  8
FRAME
100
AcDbLine
 62
7
  6
BYLAYER
 10
1122.3387250866
 20
58.2232725134
 11
1123.4883790542
 21
59.3729264809
  0
LINE
  5
4A1
100
AcDbEntity
  8
FRAME
100
AcDbLine
 62
7
  6
BYLAYER
 10
1124.1496071364
 20
60.0341545631
 11
1125.0181232736
 21
60.9026707004
  0
LINE
  5
4A2
100
AcDbEntity
  8
FRAME
100
AcDbLine
 62
7
  6
BYLAYER
 10
1125.867800288
 20
61.7523477147
 11
1128.0032823539
 21
63.8878297807
  0
LINE
  5
4A3
100
AcDbEntity
  8
FRAME
100
AcDbLine
 62
7
  6
BYLAYER
 10
1122.4522951611
 20
57.8878297818
 11
1123.4883790542
 21
58.9239136749
  0
LINE
  5
4A4
100
AcDbEntity
  8
FRAME
100
AcDbLine
 62
7
  6
BYLAYER
 10
1124.2606297179
 20
59.6961643386
 11
1125.1291458551
 21
60.5646804758
  0
LINE
  5
4A5
100
AcDbEntity
  8
FRAME
100
AcDbLine
 62
7
  6
BYLAYER
 10
1125.6481629856
 20
61.0836976063
 11
1128.0439990962
 21
63.4795337169
  0
LINE
  5
4A6
100
AcDbEntity
  8
FRAME
100
AcDbLine
 62
7
  6
BYLAYER
 10
1122.9069969594
 20
57.8935187741
 11
1123.4826900619
 21
58.4692118766
  0
LINE
  5
4A7
100
AcDbEntity
  8
FRAME
100
AcDbLine
 62
7
  6
BYLAYER
 10
1124.3716522994
 20
59.358174114
 11
1125.2401684366
 21
60.2266902513
  0
LINE
  5
4A8
100
AcDbEntity
  8
FRAME
100
AcDbLine
 62
7
  6
BYLAYER
 10
1125.4285256833
 20
60.4150474979
 11
1128.0439990962
 21
63.0305209108
  0
LINE
  5
4A9
100
AcDbEntity
  8
FRAME
100
AcDbLine
 62
7
  6
BYLAYER
 10
1124.4826748808
 20
59.0201838894
 11
1128.0439990962
 21
62.5815081048
  0
LINE
  5
4AA
100
AcDbEntity
  8
FRAME
100
AcDbLine
 62
7
  6
BYLAYER
 10
1124.5936974623
 20
58.6821936649
 11
1126.7074469526
 21
60.7959431552
  0
LINE
  5
4AB
100
AcDbEntity
  8
FRAME
100
AcDbLine
 62
7
  6
BYLAYER
 10
1126.8943451286
 20
60.9828413312
 11
1128.0439990962
 21
62.1324952987
  0
LINE
  5
4AC
100
AcDbEntity
  8
FRAME
100
AcDbLine
 62
7
  6
BYLAYER
 10
1124.7121630625
 20
58.351646459
 11
1126.4878096503
 21
60.1272930468
  0
LINE
  5
4AD
100
AcDbEntity
  8
FRAME
100
AcDbLine
 62
7
  6
BYLAYER
 10
1126.8943451286
 20
60.5338285251
 11
1128.0439990962
 21
61.6834824927
  0
LINE
  5
4AE
100
AcDbEntity
  8
FRAME
100
AcDbLine
 62
7
  6
BYLAYER
 10
1124.9231983892
 20
58.1136689796
 11
1126.2681723479
 21
59.4586429384
  0
LINE
  5
4AF
100
AcDbEntity
  8
FRAME
100
AcDbLine
 62
7
  6
BYLAYER
 10
1126.8943451286
 20
60.0848157191
 11
1128.0439990962
 21
61.2344696866
  0
LINE
  5
4B0
100
AcDbEntity
  8
FRAME
100
AcDbLine
 62
7
  6
BYLAYER
 10
1125.2552718842
 20
57.9967296686
 11
1126.0485350456
 21
58.78999283
  0
LINE
  5
4B1
100
AcDbEntity
  8
FRAME
100
AcDbLine
 62
7
  6
BYLAYER
 10
1126.8943451286
 20
59.635802913
 11
1128.0439990962
 21
60.7854568805
  0
LINE
  5
4B2
100
AcDbEntity
  8
FRAME
100
AcDbLine
 62
7
  6
BYLAYER
 10
1126.8943451286
 20
59.186790107
 11
1128.0439990962
 21
60.3364440745
  0
LINE
  5
4B3
100
AcDbEntity
  8
FRAME
100
AcDbLine
 62
7
  6
BYLAYER
 10
1126.8943451286
 20
58.7377773009
 11
1128.0439990962
 21
59.8874312684
  0
LINE
  5
4B4
100
AcDbEntity
  8
FRAME
100
AcDbLine
 62
7
  6
BYLAYER
 10
1126.8943451286
 20
58.2887644948
 11
1128.0439990962
 21
59.4384184624
  0
LINE
  5
4B5
100
AcDbEntity
  8
FRAME
100
AcDbLine
 62
7
  6
BYLAYER
 10
1126.9424232217
 20
57.8878297818
 11
1128.0439990962
 21
58.9894056563
  0
LINE
  5
4B6
100
AcDbEntity
  8
FRAME
100
AcDbLine
 62
7
  6
BYLAYER
 10
1127.3916283404
 20
57.8880220945
 11
1128.0438067835
 21
58.5402005376
  0
ARC
  5
4B7
100
AcDbEntity
  8
FRAME
100
AcDbCircle
 62
7
  6
BYLAYER
 10
1096.5839022198
 20
60.8911409728
 40
3.2889911113
100
AcDbArc
 50
327.6042231132
 51
31.6684491766
  0
ARC
  5
4B8
100
AcDbEntity
  8
FRAME
100
AcDbCircle
 62
7
  6
BYLAYER
 10
1107.3408034672
 20
60.8911409728
 40
3.2889911113
100
AcDbArc
 50
327.6042231132
 51
31.6684491766
  0
ARC
  5
4B9
100
AcDbEntity
  8
FRAME
100
AcDbCircle
 62
7
  6
BYLAYER
 10
1097.1035067051
 20
60.5614436598
 40
2.673613878
100
AcDbArc
 50
270.0
 51
327.6042231132
  0
ARC
  5
4BA
100
AcDbEntity
  8
FRAME
100
AcDbCircle
 62
7
  6
BYLAYER
 10
1097.1076499921
 20
61.2142159027
 40
2.673613878
100
AcDbArc
 50
31.6684491766
 51
90.0
  0
ARC
  5
4BB
100
AcDbEntity
  8
FRAME
100
AcDbCircle
 62
7
  6
BYLAYER
 10
1107.8604079526
 20
60.5614436598
 40
2.673613878
100
AcDbArc
 50
270.0
 51
327.6042231132
  0
ARC
  5
4BC
100
AcDbEntity
  8
FRAME
100
AcDbCircle
 62
7
  6
BYLAYER
 10
1107.8645512396
 20
61.2142159027
 40
2.673613878
100
AcDbArc
 50
31.6684491766
 51
90.0
  0
ARC
  5
4BD
100
AcDbEntity
  8
FRAME
100
AcDbCircle
 62
7
  6
BYLAYER
 10
1096.5839022198
 20
60.8911409728
 40
2.1393371438
100
AcDbArc
 50
327.6042231132
 51
31.6684491766
  0
ARC
  5
4BE
100
AcDbEntity
  8
FRAME
100
AcDbCircle
 62
7
  6
BYLAYER
 10
1107.3408034672
 20
60.8911409728
 40
2.1393371438
100
AcDbArc
 50
327.6042231132
 51
31.6684491766
  0
ARC
  5
4BF
100
AcDbEntity
  8
FRAME
100
AcDbCircle
 62
7
  6
BYLAYER
 10
1097.1035067051
 20
60.5614436598
 40
1.5239599105
100
AcDbArc
 50
270.0
 51
327.6042231132
  0
ARC
  5
4C0
100
AcDbEntity
  8
FRAME
100
AcDbCircle
 62
7
  6
BYLAYER
 10
1097.1076499921
 20
61.2142159027
 40
1.5239599105
100
AcDbArc
 50
31.6684491766
 51
90.0
  0
ARC
  5
4C1
100
AcDbEntity
  8
FRAME
100
AcDbCircle
 62
7
  6
BYLAYER
 10
1107.8604079526
 20
60.5614436598
 40
1.5239599105
100
AcDbArc
 50
270.0
 51
327.6042231132
  0
ARC
  5
4C2
100
AcDbEntity
  8
FRAME
100
AcDbCircle
 62
7
  6
BYLAYER
 10
1107.8645512396
 20
61.2142159027
 40
1.5239599105
100
AcDbArc
 50
31.6684491766
 51
90.0
  0
ARC
  5
4C3
100
AcDbEntity
  8
FRAME
100
AcDbCircle
 62
7
  6
BYLAYER
 10
1111.4581367544
 20
58.5562332513
 40
0.6684034695
100
AcDbArc
 50
270.0
 51
340.0954155417
  0
ARC
  5
4C4
100
AcDbEntity
  8
FRAME
100
AcDbCircle
 62
7
  6
BYLAYER
 10
1122.8199755847
 20
58.5562332513
 40
0.6684034695
100
AcDbArc
 50
270.0
 51
360.0
  0
ARC
  5
4C5
100
AcDbEntity
  8
FRAME
100
AcDbCircle
 62
7
  6
BYLAYER
 10
1127.3755956267
 20
58.5562332513
 40
0.6684034695
100
AcDbArc
 50
270.0
 51
360.0
  0
ARC
  5
4C6
100
AcDbEntity
  8
FRAME
100
AcDbCircle
 62
7
  6
BYLAYER
 10
1125.3034113904
 20
58.6633973414
 40
0.6684034695
100
AcDbArc
 50
198.1842490661
 51
341.8157509339
  0
ARC
  5
4C7
100
AcDbEntity
  8
FRAME
100
AcDbCircle
 62
7
  6
BYLAYER
 10
1117.2620116859
 20
58.5562332513
 40
0.6684034695
100
AcDbArc
 50
270.0
 51
340.0954155417
  0
ELLIPSE
  5
4C8
100
AcDbEntity
  8
FRAME
100
AcDbEllipse
 62
7
  6
BYLAYER
 10
1102.837917516
 20
60.3475545496
 30
0.0
 11
0.0
 21
-2.4597247678
 31
0.0
 40
0.9130434783
 41
0.0
 42
6.2831853072
  0
ENDSEC
  0
SECTION
  2
OBJECTS
  0
DICTIONARY
  5
C
100
AcDbDictionary
280
0
281
1
  3
ACAD_GROUP
350
D
  3
ACAD_MLINESTYLE
350
17
  3
ACAD_LAYOUT
350
1A
  3
ACAD_PLOTSETTINGS
350
19
  3
ACAD_PLOTSTYLENAME
350
E
  0
DICTIONARY
  5
D
102
{ACAD_REACTORS
330
C
102
}
100
AcDbDictionary
280
0
281
1
  0
ACDBDICTIONARYWDFLT
  5
E
102
{ACAD_REACTORS
330
C
102
}
100
AcDbDictionary
281
1
  3
Normal
350
F
100
AcDbDictionaryWithDefault
340
F
  0
DICTIONARY
  5
17
102
{ACAD_REACTORS
330
C
102
}
100
AcDbDictionary
280
0
281
1
  3
Standard
350
18
  0
DICTIONARY
  5
19
102
{ACAD_REACTORS
330
C
102
}
100
AcDbDictionary
281
1
  0
DICTIONARY
  5
1A
102
{ACAD_REACTORS
330
C
102
}
100
AcDbDictionary
281
1
  3
Model
350
4C9
  3
Layout1
350
4CA
  0
ACDBPLACEHOLDER
  5
F
102
{ACAD_REACTORS
330
E
102
}
  0
MLINESTYLE
  5
18
102
{ACAD_REACTORS
330
17
102
}
100
AcDbMlineStyle
  2
STANDARD
 70
0
  3

 62
256
 51
90.0
 52
90.0
 71
2
 49
0.5
 62
256
  6
BYLAYER
 49
-0.5
 62
256
  6
BYLAYER
  0
LAYOUT
  5
4C9
102
{ACAD_REACTORS
330
1A
102
}
100
AcDbPlotSettings
  1

  2
none_device
  4
ISO_A0_(1189.00_x_841.00_MM)
  6

 40
0.0
 41
0.0
 42
0.0
 43
0.0
 44
1189.0
 45
841.0
 46
0.0
 47
0.0
 48
0.0
 49
0.0
140
0.0
141
0.0
142
1.0
143
1.0
 70
1024
 72
1
 73
0
 74
0
  7

 75
0
147
1.0
148
0.0
149
0.0
100
AcDbLayout
  1
Model
 70
0
 71
0
 10
0.0
 20
0.0
 11
1189.0
 21
841.0
 12
0.0
 22
0.0
 32
0.0
 14
0.0
 24
0.0
 34
0.0
 15
0.0
 25
0.0
 35
0.0
146
0.0
 13
0.0
 23
0.0
 33
0.0
 16
1.0
 26
0.0
 36
0.0
 17
0.0
 27
1.0
 37
0.0
 76
0
330
201
345
0
346
0
  0
LAYOUT
  5
4CA
102
{ACAD_REACTORS
330
1A
102
}
100
AcDbPlotSettings
  1

  2
none_device
  4
ISO_A0_(1189.00_x_841.00_MM)
  6

 40
0.0
 41
0.0
 42
0.0
 43
0.0
 44
1189.0
 45
841.0
 46
0.0
 47
0.0
 48
0.0
 49
0.0
140
0.0
141
0.0
142
1.0
143
1.0
 70
0
 72
1
 73
0
 74
0
  7

 75
0
147
1.0
148
0.0
149
0.0
100
AcDbLayout
  1
Layout1
 70
0
 71
1
 10
0.0
 20
0.0
 11
1189.0
 21
841.0
 12
0.0
 22
0.0
 32
0.0
 14
0.0
 24
0.0
 34
0.0
 15
0.0
 25
0.0
 35
0.0
146
0.0
 13
0.0
 23
0.0
 33
0.0
 16
1.0
 26
0.0
 36
0.0
 17
0.0
 27
1.0
 37
0.0
 76
0
330
202
345
0
346
0
  0
ENDSEC
  0
EOF
